<?xml version="1.0" encoding="UTF-8"?><svg id="Capa_2" xmlns="http://www.w3.org/2000/svg" xmlns:xlink="http://www.w3.org/1999/xlink" viewBox="0 0 48.62 45.68"><defs><style>.cls-1{fill:url(#Degradado_sin_nombre_5);}.cls-1,.cls-2,.cls-3,.cls-4,.cls-5,.cls-6,.cls-7,.cls-8,.cls-9,.cls-10,.cls-11,.cls-12,.cls-13,.cls-14,.cls-15,.cls-16,.cls-17,.cls-18,.cls-19,.cls-20,.cls-21,.cls-22,.cls-23,.cls-24,.cls-25,.cls-26,.cls-27{stroke-width:0px;}.cls-2{fill:#f7f7f6;}.cls-3{fill:#f6faec;}.cls-4{fill:#5d801d;}.cls-5{fill:#506f1c;}.cls-6{fill:#2d2936;}.cls-7{fill:#2d3d0f;}.cls-8{fill:#87aa7a;}.cls-9{fill:#959593;}.cls-10{fill:#83a829;}.cls-11{fill:#40591a;}.cls-12{fill:#15200d;}.cls-13{fill:#202b0d;}.cls-14{fill:#1e1c1f;}.cls-15{fill:#12180c;}.cls-16{fill:#d1e0c7;}.cls-17{fill:#cededb;}.cls-18{fill:#cadba7;}.cls-19{fill:#bec5a3;}.cls-20{fill:#a3c5ae;}.cls-21{fill:#9ea4ab;}.cls-22{fill:#99a975;}.cls-23{fill:#6b8e20;}.cls-24{fill:#fdfdfd;}.cls-25{fill:#f1fdd8;}.cls-26{fill:#e5e3ce;}.cls-27{fill:#677836;}</style><linearGradient id="Degradado_sin_nombre_5" x1="36.12" y1="4.15" x2="13.29" y2="27.2" gradientTransform="translate(-3.7 5.58) rotate(-7.4)" gradientUnits="userSpaceOnUse"><stop offset=".25" stop-color="#84ab2c"/><stop offset="1" stop-color="#597c1e"/></linearGradient></defs><g id="Capa_1-2"><path class="cls-24" d="m16.68,42.36c-.55.47-.63,1.32-.14,1.85.7.76,1.92,1.58,3.89,1.46,3.54-.23,16.35-2.56,17.14-2.87,2.34-.91,1.49-3.81-.69-4.97-1.16-.62-1.88-2.5,3.77-2.54,1.85-.01,1.49-2.01,2.46-2.84,1.27-1.09,3.46-.83,4.29-2.65.43-.95,1.46-4.94,1.14-7.86-.37-3.45-2.62-8.61-4.39-9.37s-2.67-6.49-9.47-8.57-8.86-6.83-18.08-1.76S5.4,14.66,4.6,16.13s-6.74,7.79-3.78,12.42,2.47,8.49,6.7,9.46,9.63-.36,10.49,1.22c.63,1.15-.46,2.39-1.33,3.14Z"/><path class="cls-10" d="m45.06,15.54c.28.75-.03,1.47-.68,1.91.6.05.92.17.98.17.48-.01.65-.33.82-.21.04,1.04.54.82-.18,1.52.32.48-.53.58-.33.78.1,1.1-.16.56-.7.47-1.09-.18-1.6.29-.72-.51,1.53-1.1.77-.83-.7-.4-.02-.24-.23-.53-.29-.78-.49.68-.74.28-.54.89-.41-.56-.71-.22-1.07-.3-.04,0-.12-.11-.21-.14-.1-.03-.16-.03-.17-.03-.12-.04-.47-.28-.64-.35l-.07-.1s0-.07-.01-.11c0-.06.05-.42,0-1.2-.02-.33.14-1.53-.65-1-.18-.66-.55-.22-.65-.62-.03-.14.17-.6.19-.62.03-.04.49-.21.45-.3l-.47.14c.16-.31.27-.13.38-.21.19-.15.19-.34.2-.35.27.05-.19.3.09.48.96-1.38,1.75-.72,1.86-.73.06,0,.66-.55.7.54.04,1.15-1.22,1.15.16.99,0,0,.14.07.17.09.49-.42.73.06.77.06.15.02,1.05-.5,1.33-.06Z"/><path class="cls-3" d="m39.42,14.91c0-.06-.04-.04-.06-.05-.04-.12.04-.11.04-.11l.47-.14c.04.09-.42.26-.45.3Z"/><path class="cls-5" d="m41.89,17.8c1.54.8.55.32-.06,1.21-.57-.86.35-.11-.21-.6.29-.18.12-.37.27-.61Z"/><path class="cls-15" d="m38.38,17.33c0,.18-.09.16-.09.17-.17-.38-.27-.07-.57-.42l-.86.11c-.05-.03-.03-.31-.21-.54-.16-.21-1.62-.76-.18-.33.87-.3,1.01-.13,1.07-.14.03,0,.35-.17.34-.32.36.4.48.93.49,1.46Z"/><path class="cls-10" d="m35.59,6.81c-.05-.12-.08-.24-.2-.3.18-.13.09-.52.25.08.88-1.09,1.73.16.76.39-.36.09-.59-.23-.81.05-.09-.06.04-.13,0-.22Z"/><path class="cls-11" d="m39.36,14.87s.06-.02.06.05c-.02.02-.23.49-.19.62-.25,0-.2.08-.21.08-.15.06-.32.08-.43.22l.08-.42c-1.38.32.07-.69.69-.55Z"/><path class="cls-10" d="m10.44,10.13c-.09.06-.13.1-.19.19-2.13-.06.36-1.76.19-.19Z"/><path class="cls-10" d="m25,2.58s.51-.07.54-.07c.47.04.65.73-.3,1.02-.3-.24-.76-.67-.23-.95Z"/><path class="cls-1" d="m35.39,6.51c.12.06.15.19.2.3-.55.49.63.04.32,1.18.54-.34,1.45-.64,1.13.34.59.02-.03,1.86-.73,1.89.03.12.84-.44,1.27.35.21-.46.79-1.02,1.28-.6.37-.62,1.22-.42.67.32.45.13.52.82.16,1.04-.25.16-.92.13-.08.23.3-.35.64,0,.98-.4.41.35.16.64.18.77.48.15-.1,1.06-.52,1.05.51.48.07.84-.28,1.21-.01.01-.01.21-.2.35-.11.09-.22-.09-.38.21,0,0-.08,0-.04.11-.62-.13-2.07.88-.69.55l-.08.42c.11-.14.29-.16.43-.22-.55.65-.16.67-.18.7-.04.07-.55-.1-.15.51-.42.18-.06.77-.32.5,0-.53-.13-1.06-.49-1.46,0,.14-.31.31-.34.32-.06,0-.2-.16-1.07.14-1.44-.43.02.12.18.33.18.24.15.51.21.54l.86-.11c.31.34.4.04.57.42-.01.09.08.24-.1.5-.26-.02-.35-.11-.37-.12-.64-.03.09.44.39.49,1.04.2,1.8-.64,1.45.49,1.21-.05-.06,1.27,1.01,1.47.02.1.21.2.04.32-.27-.05-.56.08-.8.1-.04,0-.07,0-.11.01-1.77.2-1.09.04-1.05.33.05.29-.3-.2-.63-.27-.12-.03-.36.05-.37.05-.54-.04-1.07-.07-1.61-.06-.2.21-.13.38-.14.4-.04.07-.04.11-.09.17-.55-1.01-1.6-.29-2.37-.84-.95.54-1.13-.21-1.23-.22-.05,0-.34.16-.58.13-.05,0-.51-.46-.99-.09-.53-.83-1.74-.36-2.51-.22-.26.05-.48.08-.74.15-.01,0,.05-.05-.21.03-.74.23-1.56.73-1.64.76-.05.02-.89.22-.95.23-.79.1-1.73-.22-2.5,0-.26-.07-.37-.05-.39-.06-.03,0-.02-.2-.55-.26-1.23-.13-2.01,1.11-3.21,1.23l-.07.09c.06.04.09.11.13.17-.34.02-.47.04-.73.26-.14-.08-.29-.14-.44-.22l-.21.03c-.63.3-1.35.37-1.99.64-.28.12-.6.67-.93.39.05,1.24-.05,1.69-.12.1-.29-.08-.25.28-.32.29-.06,0,.05-.2-.31-.07-.41.15-.18.32-.29.69-.14-.8-.22-.33-1-.14-.05-.05-.23-.25-.23-.13-.61.11-1.19.35-1.79.5-.37.09-.73.23-1.1.31-.14.03-.57.14-.64.14-.04,0-.56-.26-.7-.34-.11-.81-.09-1.9-.3-.23-.34-.13-.76-1.12-.82-1.09,0,1.28-.24.33-.9.39-.09-.1-.27-.24-.35-.39l-.08.04c.11.08.13.21.14.23-.49.11-1.21.44-1.17,1.02-.25-.15-.53-.29-.41-.63-.59-.09-.43-.37-.43-.79,0-.02-.13-.18-.1-.34.08-.37.69-.16.97-.26.07-.02.12-.23.13-.23.03-.02.02.19.48-.25-.67-.05-1.34-1.13-.87-1.66.16-.18,1.31-.13,1.37-.18.06-.05-.03-.18.03-.22.06-.04,1.2-.22,1.3-.06.06-.04-.68-.71-.76-1.07-.23-.93.31-.59.84-.9.64.33.78-.37,1.49.57.79-.29,1,.78.89-.03.69-.58-.48.33-.59-.79-.47-.04-.8-.62-.33-.88-.6.08-1.02-.93-1-1.39.02-.46.21-.04.55-.15.52-.17-.07-.59.02-.9.63-.32-.86-1.4,1.02-.76-.06-.54.94-.29,1.37.09,0-.23.09-.46.31-.58.56-.32.67.26.89-.03.4-.52-.35.3-1.05-.95,0-.01.13-.11.09-.17-.61-.46-.47-1.35.4-1.14-.34-.36-.46-.48-.17-.88.07-.09.11-.12.19-.19.14-.1.39-.08.42-.14-.16-1.03-.55-1.3-.57-1.45,0-.03.1-.53.12-.53.07-.02.27.54.82-.38.03.01.05.51.05.57-.03.3-.51.49.31.29-.47-.53-.04-.33-.02-.35.16-.19-.05-.46.43-.06,1.07-.18-.23.55.53.31.24.36.32-.32.71.45.12-.23.36-.32.36-.35.02-.06-.46-.47.51-.47.15,0,.47.32.52.01.02-.13-1.4-1.77-.29-1.62-.01-.65.63-.22.79-.21.06,0,.16-.63.71.45.06-.33.48-.19.56.09.1.02.06-.12.09-.12,1.02-.03-.9-.88-.32-1.02-.42-.58.15-.42.16-.46.02-.04-.35-.62.14-.81.28-.11.47.22.52.21.13-.04,0-.33.06-.39.04-.04.87.68,1.01.63.09-.03.04-.2.08-.23.03-.02.25.18.76,0,1.36.51.62.61,1.13.1-.33-.12-.31-.25-.61-.08.08-.25-.05-.52-.25-.68.07-1.21.75-.59.82-.62.03-.01.02-.5.41-.22.07-.32.57.06.6.03.03-.63.59-.49.89-.09.05.07.12.78.16-.02-.58-.97-1.64-.06-1.55-1.05.75-.76.59-.2,1,.14,1.13.95.47-.1,1.28.41-.46-1.78,3.17-1.18,1.06.82,1.11-.62,1.38.3,1.28,1.28.23-.59.97-1.32,1.54-.69.73-.86.77-.35.82-.38.03-.02.04-.36.08-.42.33-.51.53-.05.57-.05.06.01.89-.65.41.46.88-.05.53.91.17,1.34,1.06.35.38-.23,1.19-.67.03-.02.65-.2.68-.2.97-.02,1.48,1.05.5,1.54.53-.06.84.27.88.29.05.02.54-.22.68.62.05-.67.46-.59.49-.64.03-.07-.23-.9,1-.48.39-.68.64-.14.69-.14.05,0,.44-.74.69.05.3.99-.81.91-.79,1.03.02.12.41-.23.17.71.29-.46.48-.43.51-.45Z"/><path class="cls-15" d="m29.77,13.55c-.02-.07-.06-.04-.06-.05-.01-.07-.15-.09-.13-.17.01-.08.24-.16.25-.2.08-.27-.46-.7-.49-.81-.13-.45.35-.4.3-.83,1.03.17,1.22,1.01,1.66.65,1.2.87-.82-.21-.54,2.57-.9-.82-.63-1.62-1-1.18Z"/><path class="cls-15" d="m16.31,15.08v.11c-.31-.09-.51.28-.42.41.06.08.42.03.53.07.13.05.45.28.55.26.06-.01.07-.09.15-.07.1.38.45.81.32,1.21-.14-.09-.53-.26-.64-.13-.06-.02-.19-.36-.74-.23-.18-.91-.64-.34-1.09-.67l-.06-.43c.08,0,.2.07.26.13.2-.35.51-.05.54-.07.17-.15-.38-.73.61-.57Z"/><path class="cls-13" d="m14.91,15.59l.06.43c-.73.2-.22.41-.79,0,.02.27-.2.13-.35.26-.71.66.39,1.15-.83.95.06-.19.01-.54.07-.69.19-.48.76-.24.94-1.16.28.18.58.18.9.21Z"/><path class="cls-13" d="m13.45,15.29c-.16.24-.28.79-.51,1.1-.44-.55-.71.02-.75-.31-.01-.11,1.08-1.54,1.28-1.66.23-.05-.18.66-.02.87Z"/><path class="cls-7" d="m34.5,11.63c.58-.31-.11.39-.14.43-.09.15-.09.41-.11.45-.04.08-.29-.35-.02.47-.33-.15-.71-.28-1.04-.08-.29-.82-1.65-.12-1.21-.55.34-.34.95.21,1.01.2.13-.03.05-.24.13-.29.09-.06.71.44.55-.4.73.44.78-.19.84-.22Z"/><path class="cls-5" d="m14.01,15.38c-.18.91-.74.68-.94,1.16-.03-.06-.09-.09-.13-.15.23-.31.35-.86.51-1.1.02-.04.49-.5.6-.62.03.01-.03.65-.04.71Z"/><path class="cls-7" d="m20.64,8.42c.4.24.91.38,1.17.8-.25.17-.95.25-1.21.13-.66-.31.01-.11.04-.11.73-.05-.05-.78,0-.82Z"/><path class="cls-13" d="m8.97,21.64c.32-.13.67.08.98.17-1.95,1.12-1.22-.08-.98-.17Z"/><path class="cls-7" d="m17.5,15.85c.16.47.29.95.19,1.45-.09-.08-.23-.23-.25-.24.13-.4-.22-.83-.32-1.21-.04-.15-.15-.18.07-.34.02.02.17.05.32.34Z"/><path class="cls-13" d="m17.18,15.51c-.22.16-.11.19-.07.34-.09-.01-.1.06-.15.07-.17-.19-.37-.66-.64-.73v-.11c-.13-.88.68.22.86.43Z"/><path class="cls-7" d="m21.1,9.45s.37.12.37.14c0,.12-1,1.12-1.7.76,1.23-.12,1.24-.88,1.32-.91Z"/><path class="cls-11" d="m26.46,8.76c.21.3-.31,1.08-.5,1.15-.89.32.34-.36.5-1.15Z"/><path class="cls-4" d="m22.21,5.82c.82-.23.7.36-.38.43v-.11c.09-.01.36-.32.38-.32Z"/><path class="cls-2" d="m13.65,8.62c.09-.03.54.02.53.12,0,.21-.4-.02-.51.23.6.74-.77-.14-.02-.35Z"/><path class="cls-2" d="m22.37,2.86c.19-.12.33.31.31.48.56.05.4.86.26.29-.27-.27-1-.51-.56-.77Z"/><path class="cls-11" d="m12.04,13.02c.25-.12.7.39.68.43-.2.33-.93-.31-.68-.43Z"/><path class="cls-10" d="m31.36,7.96c.26.09.44-.16.71.26-.06.1-1.17.16-.71-.26Z"/><path class="cls-11" d="m37.98,14.5c.37-.03.16.19.53.07.13.69-.44.64-.53-.07Z"/><path class="cls-13" d="m12.38,14.39s.6.24.61.27c0,.07-.46.31-.54.26-.02-.01-.19-.48-.07-.54Z"/><path class="cls-3" d="m11.02,8.96l.25,1.06c-.27-.4-.55-.52-.25-1.06Z"/><path class="cls-11" d="m9.73,20.35c.25-.13.68.16.61.27-.13.21-.84-.15-.61-.27Z"/><path class="cls-13" d="m10.71,17.88c.43-.1-.77,1.23-.42.35.03-.08.39-.35.42-.35Z"/><path class="cls-2" d="m14.72,8.1c.16-.08.45.03.63.05-.43.07-.54.38-.58.37-.02,0-.24-.34-.06-.43Z"/><path class="cls-7" d="m34.61,13.31c.12.01.57.4.39.49-.33.18-.34-.17-.39-.49Z"/><path class="cls-2" d="m23.26,1.72c.16-.05.38.18.33.26-.07.11-.23,0-.24,0-.1.05-.18.2-.19.19-.1-.06-.05-.4.11-.45Z"/><path class="cls-11" d="m36.3,13.3c.08-.03.61-.08.62-.05-1.31.66-1.17.24-.62.05Z"/><path class="cls-7" d="m26.45,7.89c.28.12.03.63-.1.5-.31-.29,0-.34.1-.5Z"/><path class="cls-3" d="m30.92,5.78c.12-.01.25.21.23.27-.02.04-.22-.12-.38.19-.1-.03.02-.44.16-.46Z"/><path class="cls-2" d="m12.95,9.97c.57.07.15.49.12.47-.07-.04-.04-.33-.12-.47Z"/><path class="cls-2" d="m7.73,15.43c.31-.16.84.27.13.2-.11-.01-.28-.13-.13-.2Z"/><path class="cls-3" d="m33.94,7.24c.09-.04.52-.08.47.07-.73.22-1.03.19-.47-.07Z"/><path class="cls-7" d="m35.07,10.96c.19.55-.29.42-.31.34,0-.02.27-.29.31-.34Z"/><path class="cls-3" d="m12.34,9.88c.47-.04-.08.56-.22.22,0-.02.2-.22.22-.22Z"/><path class="cls-3" d="m34.47,5.49c.08-.02.2-.03.25.05.34.52-.58.05-.25-.05Z"/><path class="cls-3" d="m11.9,9.45c.23.02-.13.45-.16.46-.17.04.01-.47.16-.46Z"/><path class="cls-2" d="m17.88,5.19c.39-.22.03.48-.05.44-.08-.04-.02-.4.05-.44Z"/><path class="cls-2" d="m16.93,6.24c.09-.05.46,0,.47.02.06.18-.84.18-.47-.02Z"/><path class="cls-2" d="m15.56,7.4c.5-.12-.25.62-.17.16,0-.03.16-.16.17-.16Z"/><path class="cls-3" d="m28.33,4.76c.23-.09.45.07-.13.29-.09-.06.11-.28.13-.29Z"/><path class="cls-2" d="m27.24,3.87c.12-.04.26.09.26.1,0,.25-.69.06-.26-.1Z"/><path class="cls-3" d="m33.05,7.57c.4-.19.46.26.03.21-.03,0-.14-.16-.03-.21Z"/><path class="cls-3" d="m29.99,5.36c.05,0,.14-.03.16-.02.83.21-1.04.19-.16.02Z"/><path class="cls-25" d="m23.79,4.97c.54-.13-.05.38-.22.22-.01-.01.18-.21.22-.22Z"/><path class="cls-3" d="m24.23,4.15c.26-.1.46.08-.03.17-.07-.02-.01-.15.03-.17Z"/><path class="cls-3" d="m34.24,6.66c.11,0,.14.24.03.27-.13.03-.16-.27-.03-.27Z"/><path class="cls-3" d="m13.44,10.34c.12-.04.23.05.2.11-.05.12-.4-.04-.2-.11Z"/><path class="cls-15" d="m29.71,13.51s.04-.02.06.05c0,.04-.14.29.2.71.09.11.41.25.72.53-.9-.32-.97.17-1.14.26-.07.04-.52-.28-.85,1.04-.4-.11-.72.07-.81.49-.37-.1-.63.06-.82.38-.07,0-.17-.49-.57-.58-.15-.04-1.5.01-1.57.29.08.69-.3.34-.51.91-.77-.97-1.73-.89-2.51-.06-.25-1.01-.99-.25-1.07-.24-.1.01-.67-.36-1.39.18-.38.28-.18.84-.89.71-.38-.07-.69-.68-.9-.86.1-.5-.02-.98-.19-1.45-.26-.72-1.03-1.02-.4-1.39-.14-1.12.87.67.6-1.03,1.17.97.37,1.39,1.05,2.01.22.2.94.49.95.01.06-.04.59.26,1.43-.29-.24.64.17.24.86.32.22.03.86.26.91.26.58.02.75-.21.79-.21.21,0-.16.56,1.32-.33.98.15.91-.46,1.43.09.68-1.06.98-.37,1.04-.41.03-.02.15-.53.14-.62,1.04.79,1.22-.82,1.27.35l.14.06c-.19-.19-.08-.56.22-.41.15-.08-.32-.34.47-.77Z"/><path class="cls-5" d="m30.7,14.79s.17-.05.09.1c-.09-.05-.09-.09-.09-.1Z"/><path class="cls-10" d="m21.15,15.65c.06.12.31.4.31.48,0,.25-.71,1.32-.31-.48Z"/><path class="cls-2" d="m17.95,16.18c.33.13.86.41.76.83l-.76-.83Z"/><path class="cls-11" d="m26.65,15.7c.11-.09.72.28.47.7-.04-.15-.57-.63-.47-.7Z"/><path class="cls-23" d="m21.79,16.44c.63.58.01.46-.04.36,0-.02.06-.05.04-.36Z"/><path class="cls-27" d="m24.14,16.08s.13.1.1.18c-.03.09-.2-.14-.1-.18Z"/><path class="cls-23" d="m16.32,15.19c.27.07.47.54.64.73-.1.02-.42-.2-.55-.26-.1-.04-.47.02-.53-.07-.09-.13.11-.5.44-.41Z"/><path class="cls-6" d="m24,27.75c.05,0,.06.04.11.04.76.67,1.28-.68,1.63.85.51.11.11.31.3.42.62-.55.96-1.31,1.39-.81-.23.92-.13,1.94-.01,2.83-.44.51-1.32.87-1.06,1.44.12.22.54-.49.95-.86.04-.04.11.04.11.04.11-.09.02-.2.13-.29.55-.44.61.29.31.94-.77,1.53.54,5.55,1.35,6.19-.24-.04.22.34.48.78.65,1.09.64,1.22-.31.34-.93-.29-1.11,1.06-.45,1.34.01.05,0,.12.02.13.15.17.23.22.42.33-.52.15-1.44-1.47-1.82-2.05-.18.06.57,1.85.74,2.11,0,.23-1.57-.32-1.75-.24-.52-.68-.73-1.58-1.49-2.07.68-1.24.8-3.01.47-4.36-.52-2.13-2.9-3.24-3.01-3.47-.21-.43.34-.04.47-.14.46.2.92.39,1.38.58.02.03-.05.08-.04.09.43.42.96.82,1.23,1.34,0-1.33-.11-2.65-.27-3.97-.23-.12-2.3-1.66-1.29-1.55Z"/><path class="cls-14" d="m29.21,38.56c.13.11,2.37,1.16,3.01,1.19.85.04,3.01-.55,3.31-.48.57.13-1.09.44-1.34.61l2.63.31.72.34-1.92.06c.4.49,1.02.62,1.6.8-.25.06-.51.04-.76,0-.83-.16-1.88-1.25-.78.07-.01.22-.21,0-.27,0l-1.28-.87c-.46.25-1,.09-1.51.14.46.36.95.67,1.41,1.01.57.43.49.46-.22.19-.5-.19-1.57-1.24-3.02-1.46.56,1.01,2.04,1.14,2.89,1.69.96.63-1.14-.18-1.56-.29-.62-.15-1.27-.11-1.33-.15-.07-.06.5-.2-1.18-1.15l.19.63-.85-.05s0-.08-.02-.13c-.66-.28-.48-1.63.45-1.34.95.88.96.75.31-.34-.26-.44-.72-.82-.48-.78Z"/><path class="cls-14" d="m23.99,41.57c-2.11.44-2.85.82-3.95,2.69l-.1.04c-.24-.4.23-.97-1.05.49-.1-.05,0-.36.02-.44.17-.56.92-1.31,1.2-1.84-1.16.18-1.46,1-2.08,1.41-.05.03-.26.21-.31.12l.82-1.2c-.91.04-1.28.5-.98,0,.35-.32,2.68-.86,2.83-1.02v-.11c-3.08-.12-.27-.38,1.02-.41.17-.68,1.36-.46,2.56-1.48.32.47.48,1.29,0,1.74Z"/><path class="cls-15" d="m7.3,24.96c.03.24.06.48.09.72l.86.51s0-.11.01-.11c.22,0,.13.07.28.07.03.07,0,.2.03.24.1.16,1.56.81,1.65.79.22-.03.69-.66.47-1.42.48.98.63-1.11.35.8.22.07,1.62.45,1.46-.08-.06-.2-.78.16-.96-.26-.19-.44.36-.53.27-.03.41.09-.12-.49.29-.5.2,0,.43.38.35.61.15.05.15-.56.43-.44.26.11-.66.67.22,1.47-.03.05-.44.09-.53.1-.13,0-.43-.07-.66-.08-1.63-.04-.47.17.17.47.02,0,.06.06.41.22.94.42,1.66.95,2.73.52.04.22.17.19.31.29.48.34.8.55,1.4.69-.28.27-.21.32-.45.33-.26.01-.73-.23-1.03-.19-.06.02-.49.78-.71,1.02-.31.35-1.08,1.07-1.47,1.23-.1.04-.51.17-.59.08,1.07-.26,2.69-2.13,2.63-2.38,0-.03-.46-.18-.49-.18-.42,0-1.29.57-1.72.77-1.53.68-2.43,1.37-4.12.37l-3.36,1.36c.78-.58,1.7-.97,2.56-1.42.27-.14.61-.22.81-.49.04.01.06-.1.1-.04.65,1.09,1.69.83,2.66.39.51-.23,1.16-.64.75-.53-.28-.39.58-.54.97-.67-.82-.4-4.19-2.22-4.86-2.2-.87.02-1.72.83-2.39,1.29-.79.15-1.55.82-2.31.84.77-.23,1.45-.69,2.14-.93.23-.31.35-.73.73-.91-.11.1-.34.54-.51.69.11.12.85-.35.76-.83.4-.26.74-.39,1.18-.56-.36-.19-2.05-1.4-2.17-1.43-.51-.11-1.98.22-.19-.19.08-.05-.06-.14-.11-.2l.05-.06c.4.36.92.6,1.34.91.17-.05-.11-.72-.14-.85.21-1.67.19-.58.3.23Z"/><path class="cls-15" d="m17.36,22.78c.8.46.25.69.55.85-.07.04-.2.03-.2.16,0,.05.28.35.6.87l-.1.04c.08-.02.12.27.24.59-.15-.23-.99-1.46-1.15-1.48-.02,0-.26.08-.34.1l-1.06-.41c.04.22.47.53.55.69,0,.01,0,.04,0,.05,0,0-.04-.02,0,.16-.11-.11-.27-.18-.39-.28-.22-.18-.67-.77-.78-.77-.34.01.34.58.41.82.05.19-.13.34-.01.33-.15.13-.33.48-.52.61-2.07-.49-1.15.22-1.15.34,0,.19-.94.09-.96-.26,0-.18.32-.15.35-.21.03-.05-.26-.95-.36-1.07.36-.13.25.07.31.07.07,0,.03-.36.32-.29.08,1.59.18,1.15.12-.1.33.28.65-.27.93-.39.63-.27,1.36-.34,1.99-.64l.21-.03c.14.08.3.14.44.22Z"/><path class="cls-15" d="m21.8,21.28c-.51.18.24.09.26.32,0,.06-.66.73-.76.83-.17.19-.27.46-.29.47-.13.04-.4-.47-.37.32-.21-1.13-.04-1.38-.58-.71.52.32-.05.03-.08.04-.04,0-.59.61-.6.65-.03.18.71,2.69.94,3.06-.01,0-.13,0-.22-.05-.16-.95-.63-1.87-.74-2.79h-.11q0,.22,0,.42c-.04-.14-.09-.3-.11-.45-.12-.12-.27-.09-.29-.1-.16-.16-.68-.67-.75-.77-.04-.06-.07-.13-.13-.17l.07-.09c1.2-.12,1.99-1.36,3.21-1.23.53.05.52.25.55.26Z"/><path class="cls-11" d="m7,24.73c.03.13.31.81.14.85-.43-.32-.95-.56-1.34-.91-.35-.32-.49-.61-.52-.64.66-.06.9.89.9-.39.06-.02.48.96.82,1.09Z"/><path class="cls-2" d="m27.28,20.35l-1.36,1.92-.29-1.16c.09-.03.9-.53,1.64-.76Z"/><path class="cls-15" d="m24.69,21.34c-.19.71-.02.07.11.42-.19.12-.65.07-.45.33-.2-.08-.2-.11-.26.09-.92-.7-.89-.57-1.91-.84.78-.22,1.71.1,2.5,0Z"/><path class="cls-15" d="m11.53,24.36c-.39,2.14-.2.63-1.46.68-.21,0-.37.41-.32-.18.59-.15,1.18-.39,1.79-.5Z"/><path class="cls-2" d="m28.24,20.17c-.25.84-1.1,1.43-1.68,2.18,0,0-.1.03-.11-.01-.03-.11.98-1.73,1.05-2.01.26-.07.48-.1.74-.15Z"/><path class="cls-11" d="m18.09,22.53c.07.11.6.61.75.77-.65.48-.51.17-.6.19-.02,0-.3.13-.33.15-.29-.16.25-.4-.55-.85.26-.21.39-.24.73-.26Z"/><path class="cls-11" d="m8,25.31l.26.78s.03.09-.01.11l-.86-.51c-.03-.24-.06-.48-.09-.72.14.09.66.34.7.34Z"/><path class="cls-15" d="m12.76,24.63l-.88.17c-.07-.07-.11-.3-.12-.31.78-.18.86-.66,1,.14Z"/><path class="cls-13" d="m8.64,25.17c-.24.47-.28.45-.09.99-.15,0-.06-.07-.28-.07l-.26-.78c.07,0,.49-.11.64-.14Z"/><path class="cls-7" d="m14.61,32.61s-.03.04-.05.06c-.13.03-.22-.07-.23-.08.28-.85-.15-1.2-.32-.34-.08-.09-.35-.35-.4-.17,0-.02-.28-.17-.35-.17.4-.16,1.16-.88,1.47-1.23.12-.03.14,1.62.11,1.7-.04.1-.15-.04-.19,0-.14.15-.05.22-.05.22Z"/><path class="cls-13" d="m14.02,32.25c.14.15-.06.19.32.34.01,0,.1.11.23.08-.25.3-.48.47-.91.5.12-.27.11-.84-.03-1.08.05-.18.32.08.4.17Z"/><path class="cls-2" d="m9,30.02c-.2.26-.54.34-.81.49-.09-.32.44-.37.66-.58.18-.06.14.09.15.09Z"/><path class="cls-11" d="m12.51,29.84c-.27.12-.77.31-.75.53-.97.44-2.02.7-2.66-.39-.04-.06-.06.05-.1.04,0,0,.03-.15-.15-.09-.22.21-.75.25-.66.58-.86.45-1.79.84-2.56,1.42l3.36-1.36c1.69,1,2.58.31,4.12-.37.01.23.36.21.29.53-.04.16-.76.77-.71,1.26.08.1.49-.04.59-.08.07,0,.34.16.35.17.14.24.15.82.03,1.08-.37.85-1.23.45-1.3.44-.07-.01-.21-.13-.26-.13-.51-.02-1.08.35-1.34.8.65-.28,1.14-.21,1.69-.41.09.73-.7,1.52-1.25,1.47-.31-.03-1.04-1.04-1-1.39-.68,1.42-.97,1.08-2.22.51-.05.01-.07.21-.21.3-.21.13-.42.23-.63.35-1.35-1.46-.82-2.9-.98-2.92-.3,1.06-.48.75-.87,1.26-.67-1.09-1.29-2.39.42-2.86-.17-.13-1.47-.54-1.5-.62-.03-.09.11-.14.08-.23-.04-.12-.76-.19-.77-.47.09-.2.24-.11.41-.16.76-.03,1.53-.69,2.31-.84.68-.46,1.52-1.27,2.39-1.29.67-.02,4.04,1.8,4.86,2.2-.39.13-1.26.28-.97.67Z"/><path class="cls-7" d="m12.35,33.61c-.01.11.08.16.09.26-.55.2-1.04.13-1.69.41.26-.45.83-.82,1.34-.8.05,0,.2.12.26.13Z"/><path class="cls-13" d="m8.76,29.24c.08-.03.73-.13.73-.01-.11.06-.66.61-.71.61-.04,0-.54-.41-.02-.6Z"/><path class="cls-20" d="m12.51,29.84c.41-.11-.23.3-.75.53-.02-.22.47-.41.75-.53Z"/><path class="cls-14" d="m21.29,22.44c-.44.71.36,2.75.5,3.88.76.44,1.56.81,2.2,1.43-1.01-.11,1.06,1.43,1.29,1.55.16,1.31.28,2.64.27,3.97-.28-.52-.8-.92-1.23-1.34,0,0,.06-.06.04-.09.23.1.57.35.63.22l-.2-2.37c-.09-.1-.13-.25-.21-.35-.44-.59-3.02-2.37-4.27-2.47-1-.07-.91.11-1.65.49-.05-.21.4-.27.64-.55-.1-.03-.21-.09-.29-.15-1.1-.77-1.93-1.44-2.9-2.4-.23.07-.27.14-.43.27-.12.01.07-.14.01-.33l.37-.05c.12.1.28.16.39.28-.03-.18,0-.16,0-.16.5.38,1.35,1.26,1.86,1.5.72.35.32.03.13-.45-.12-.32-.16-.61-.24-.59l.1-.04c.13.21,1.55,2.46,1.4,1.15-.01-.12-.41-1.77-.47-1.98v-.41q.05,0,.11-.01c.12.92.58,1.84.74,2.79.1.06.21.05.22.05.07.02.87.17.89.13-.25-1.04-.38-2.11-.57-3.16-.03-.79.23-.28.37-.32.03,0,.12-.29.29-.47Z"/><path class="cls-2" d="m16.5,28.72c.12.05,1.09.8,1.09.87l-.02.08c-.18-.13-.48-.1-.64-.13-.59-.13-.92-.35-1.4-.69-.33-.28.76-.21.96-.13Z"/><path class="cls-14" d="m18.21,27.63s-.05.08-.04.09c.05.09,1.13.74,1.58,1.26.39.45.57,1.04.9,1.27.79.3,1.56.67,2.33,1-.13.1-.68-.29-.47.14.11.24,2.49,1.35,3.01,3.47.33,1.35.21,3.12-.47,4.36.76.48.97,1.39,1.49,2.07.18-.09,1.74.46,1.75.24-.17-.26-.92-2.05-.74-2.11.38.58,1.29,2.2,1.82,2.05.91.5,2.06.3,2.45,1.29-.09.23-.66-.59-1.31-.43.85.93.87,1.19-.16.27-1.16-.2-2.64-1.24-2.01.04-.7-1.26-.67.86-.64-.54l-1.05-.33c-.1.03-.07,1.02-1.08,1.77-.85.64.22-.3-1.13.09-.5-.51.12-.32.38-.43.76-.33,1.17-1.12,1.19-1.92-1.47-.21-1.09-.04-1.75,1.02-.65-.09-1.01,1.15-2.08,1.58.11-.78-.64.3-1.16.48.35-.47.63-1.13,1.31-.99l.64-.76c-2.29.17.37-.42,1.01-1.03.47-.45.31-1.27,0-1.74,1.57-1.34,1.47-4.78.32-6.33-.46-.62-3.01-2.19-3.61-2.44-.37-.16-1.87-.47-2.24-.47-.21,0-.24.14-.25.14-1.4.04-.68-.33-.81-.58-.02-.04-.78-.18-.9-.24v-.05c.23-.01.16-.06.44-.33.16.04.46,0,.64.13l.02-.08c0-.07-.97-.81-1.09-.87-.02-.06.09-.11.09-.12.39.06,1.73,1.3,1.83,1.34.06.02,1.06.06,1.32.1-.2-1.14-.9-1.57-1.76-2.22-.06,0-.25.19-.43.22.01-.19.48-.31.65-.41Z"/><path class="cls-6" d="m24.87,39.34c.28-.08.72,1.15.65,1.22l-1.29-.51c.15-.09.6-.7.64-.71Z"/><path class="cls-2" d="m7.04,27.12c.09.49-.65.95-.76.83.16-.15.4-.59.51-.69.27-.27.21-.11.25-.14Z"/><path class="cls-11" d="m4.99,23.9c.17.27.73.78.76.83.05.07.19.15.11.2-1.79.41-.32.08.19.19.13.03,1.82,1.25,2.17,1.43-.43.17-.78.3-1.18.56-.04.03.02-.12-.25.14-.37.18-.5.6-.73.91-.69.24-1.36.7-2.14.93-.18.05-.33-.04-.41.16-1.76-.48.17-1.7,1.06-1.91-.73-.02-.77-.09-.97-.75.26-.47.64-.49,1.12-.63-1.3-.41-.54-.84-.55-.91,0-.05-.2-.06-.35-.15-.03-.59.69-.92,1.17-1.02Z"/><path class="cls-11" d="m5.28,24.03s.16.32.52.64l-.05.06s-.59-.56-.76-.83c-.01-.02-.03-.15-.14-.23l.08-.04c.08.15.26.29.35.39Z"/><path class="cls-11" d="m6.5,26.75c-.22.1-.42.26-.67.28.18-.22.44-.19.67-.28Z"/><path class="cls-11" d="m6.92,26.59c-.15.06-.26.11-.41.16.06-.03.16-.1.17-.18.06.06.18.05.25.02Z"/><path class="cls-11" d="m6.92,26.59c.1-.04.14-.24.36-.13,0,.05-.32.11-.36.13Z"/><path class="cls-2" d="m33.26,22.35c0,.06.06.19,0,.35-.94.39-.84.63-1.14,1.32-.63,1.44-.23-.5.35-1.51.17-.3.63-.82.86-1.15.06.02-.04.88-.06.99Z"/><path class="cls-2" d="m31.74,25.38c-.07.04-.15.09-.22,0,.21-.7.37-.7.39-.73.07.32.18.55-.18.73Z"/><path class="cls-2" d="m32.15,22.66c-.14.25-.33.51-.5.75.07-.25-.05-1.66,0-1.74.03-.07.52-.04.56-.26.59.29.23.76-.05,1.26Z"/><path class="cls-2" d="m33.99,26.34c-.04.18,0,.44-.04.55-.11.44-.23.34-.58.57-.08.05-.83.48-.87.41.38-.41.59-.96.91-1.4.04-.06.1-.13.14-.18.21-.16.42.05.44.05Z"/><path class="cls-2" d="m34.06,28.56c-1.08-.46-1.57.04-.67-.57.17-.11.33-.23.5-.34l.32.8c-.06.11-.11.09-.15.1Z"/><path class="cls-14" d="m27.5,20.33c-.06.28-1.07,1.9-1.05,2.01.01.04.11,0,.11.01-.02.24-.06.19-.16.46-.06.15-.2.25-.22.44-.06.63.28,3.47.16,4.61.12.53.88-.67,1.4-1.19.49-.49,1.04-.93,1.53-1.42-.37-.89-.94-1.7-.95-2.71.39.85.78.42,1.18-.15.13,1.06-.98,3.54,1.02,2.37-.01-.91.15-1.61-.11-2.52.29-.34-.22-.36.12-.72-.16.23.18.7.24,1.03.2,1.03.05,2.13.15,2.19.51.28.47-2.62.51-2.95.24.24.09-.18.21-.25.53.08.31-.25.56-.13-.04.22-.53.2-.56.26-.04.08.08,1.49,0,1.74.17-.23.36-.5.5-.75l.31-.15c-.58,1.01-.98,2.96-.35,1.51.1.03.06.25.17.09-.12.17-.25.36-.37.54-.02.04-.19.03-.39.73.07.09.15.03.22,0-.09.28.48.23.3.61-.08.17-1.11.63-1.1,2.4l.09.07c.27-.2.79-.25.84-.27.1-.05,1.34-1.61,1.38-1.7l.16-.02c-.32.44-.53.99-.91,1.4.04.06.79-.36.87-.41-.02.19.19.12.15.33,0,.03-.18.05-.14.21-.9.6-.41.1.67.57-.1.04-.53.07-.75.1-.53.07-.98.06-1.1.09-.1.02-1.5.69-1.69.82-.45.31-2.42,2.32-2.66,2.79.29-.65.23-1.38-.31-.94-.11.09-.02.2-.13.29,0,0-.07-.08-.11-.04-.41.37-.83,1.08-.95.86-.25-.58.62-.93,1.06-1.44-.12-.9-.22-1.91.01-2.83-.43-.51-.77.25-1.39.81-.19-.11.21-.32-.3-.42-.35-1.53-.87-.18-1.63-.85.11,0,.54.38,1.04-.38-.15-1.4.11-2.8.05-4.2-.34-.28-.8-.79-1.11-1.03.06-.2.06-.16.26-.09.24.09.41.43.65.57-.06-.3-.09-.61-.2-.9-.13-.35-.3.29-.11-.42.06,0,.9-.22.95-.23l.29,1.16,1.36-1.92c.26-.08.2-.03.21-.03Z"/><path class="cls-2" d="m29.35,22.7l-.21,1.77c-1.17-2.31-.35-.81.21-1.77Z"/><path class="cls-2" d="m24.8,21.76c.11.29.14.6.2.9-.23-.14-.41-.48-.65-.57-.2-.26.26-.21.45-.33Z"/><path class="cls-2" d="m19.01,26.65c-.26-.01-.36.21-.38.21-.12,0-.33-.82-.65.03l-.27-1.03c-.71-.27-.68-.67-1.7-.95-.01,0-.11-.15-.15-.14-.12,0-.5.43-.69.36.19-.13.37-.48.52-.61.15-.13.19-.21.43-.27.96.96,1.8,1.63,2.9,2.4Z"/><path class="cls-2" d="m12.58,27.43l-.08.61c-.34-.15-.39-.21-.41-.22.21-.24-.03-.3-.17-.47.23,0,.54.08.66.08Z"/><path class="cls-11" d="m13.05,23.94c.1.12.39,1.02.36,1.07-.04.06-.36.03-.35.21.02.35.96.44.96.26,0-.12-.92-.83,1.15-.34.19.06.57-.35.69-.36.04,0,.14.14.15.14.42,1.21.73,3.03-.78,3.64-1.08.43-1.79-.09-2.73-.52l.08-.61c.09,0,.5-.05.53-.1-.88-.8.04-1.35-.22-1.47-.28-.12-.28.48-.43.44.08-.23-.15-.61-.35-.61-.4,0,.12.59-.29.5.09-.5-.45-.41-.27.03.18.41.9.06.96.26.16.53-1.24.16-1.46.08.28-1.91.13.18-.35-.8.22.76-.25,1.39-.47,1.42-.09.01-1.56-.63-1.65-.79-.02-.04,0-.17-.03-.24-.19-.54-.15-.52.09-.99.37-.08.73-.21,1.1-.31-.04.59.12.18.32.18,1.26-.05,1.07,1.46,1.46-.68,0-.12.19.09.23.13.01.01.05.24.12.31l.88-.17c.11-.37-.12-.54.29-.69Z"/><path class="cls-15" d="m14.02,26.59c.08-.02.38.02.44.05.52.29-.62.37-.57.05,0,0,.12-.1.12-.1Z"/><path class="cls-7" d="m11.92,27.36c.14.16.38.22.17.47-.64-.3-1.79-.51-.17-.47Z"/><path class="cls-15" d="m35.91,21.41c-.26.39-.73.03-1.11.04-.82.01.04.32.05.62,0,.11-.3.48-.42.52-.12-.21-.29-.12-.5-.1-.22-.05-.43-.19-.67-.13.02-.11.13-.97.06-.99-.22.33-.68.84-.86,1.15l-.31.15c.28-.5.64-.97.05-1.26-.25-.12-.03.21-.56.13-.13.07.02.49-.21.25-.04-.19-.6-.59-.91-.26-.34.36.17.39-.12.72-.29-1.03-.93-1.05-1.76-1.62l-2.25,2.2c.1-.26.14-.22.16-.46.58-.74,1.43-1.34,1.68-2.18.77-.14,1.98-.61,2.51.22.48-.37.94.08.99.09.24.03.53-.14.58-.13.1.01.27.76,1.23.22.77.55,1.82-.17,2.37.84Z"/><path class="cls-3" d="m34.43,22.58c-.37.12-.48-.09-.5-.1.21-.02.38-.11.5.1Z"/><path class="cls-2" d="m32.77,20.95c.11,0,.29.27.1.31-.17.04-.4-.32-.1-.31Z"/><path class="cls-9" d="m33.28,21.1l.03.02v.05s0,.02-.02.03h-.05s-.02,0-.03-.02l.02-.03.02-.03.02-.03Z"/><path class="cls-23" d="m16.97,23.92s-.51.2-.51.28c-.08-.16-.51-.47-.55-.69l1.06.41Z"/><path class="cls-2" d="m16.07,24.15l-.37.05c-.07-.24-.75-.81-.41-.82.11,0,.56.59.78.77Z"/><path class="cls-7" d="m16.49,29.87v.05q-.15.5-.3.99c1.1-.21.45-.63.7-.72.37-.13.3.5.31.53.07.16.32-.15.76.42-.18.25-.39.2-.67.3-.31-.15-.73.03-.76-.23.02.24-.12.11-.5.12-.1,0-.29-.23-.3.2-.01.42.26.51.26.76-.16.33-.36.86-.76.89-.4-.16-.46.01-.49,0-.55-.04.3-.5-.01-.71-.08-.05-.06.13-.12.12,0,0-.09-.08.05-.22.04-.04.16.1.19,0,.03-.08,0-1.73-.11-1.7.22-.24.65-1,.71-1.02.3-.03.77.21,1.03.19Z"/><path class="cls-16" d="m15.36,32.3c.23.12-.3.58-.26.28,0-.02.25-.29.26-.28Z"/><path class="cls-3" d="m16.03,31.34c-.03.11-.08.16-.19.19-.03,0-.07,0-.11.01.01-.43.2-.2.3-.2Z"/><path class="cls-11" d="m14.34,32.59c-.37-.15-.17-.19-.32-.34.17-.86.6-.51.32.34Z"/><path class="cls-7" d="m12.68,31.99c-.05-.5.67-1.1.71-1.26.07-.33-.27-.31-.29-.53.44-.19,1.3-.76,1.72-.77.03,0,.48.15.49.18.06.25-1.56,2.12-2.63,2.38Z"/><path class="cls-16" d="m13.62,30.67c.36-.1.91.21.25.24-.13,0-.55-.16-.25-.24Z"/><path class="cls-11" d="m41.74,26.48c1.04-.4,1.85-.03,2.85.17.27.28.57.66.61.68.22.15,0-.39.28-.15.13,1.01.26,2.11-.29,3.03-.36-.24-.52-.19-.54-.2-.23-.08-.47-.21-.67-.35-.64,1.19-1.32,1.12-2.11.11-.05.03,0,.16,0,.22-.8-.06-1.64-.27-2.3.3-.75.07-.74.24-1.47-.41,0-.08.1-.05.1-.09,0-.05-.57-.77-.66-.89.01-.15.62-.04.83-.13.39-.17-.75-1.22-1.11-.18l-.78-.77s.03-.06.04-.11c.07-.4-.6-.39-.73-.18-.15-.07-.69-.4-.78-.55.18-.07.36-.13.55-.18.87.09,3.74.75,4.23.7.84-.08,1.48-.83,1.96-1.02Z"/><path class="cls-5" d="m45.81,23.45c1.13.07,1.1-.46,1.93-.63.15.43-.13.72-.58.78.02.4-.79.63-.81.68-.03.05.71.31-.54.7-.07.47-.54.25-.52.42.02.14,1.58-.24,1.55,1.49,0,.41-.35.75-.18,1.17-.08.21-.37-.35-.4-.36-.03,0-.19.33-.29.31-.09-.02-.39-.7-.51-.8-.28-.25-.06.29-.28.15-.04-.03-.34-.4-.61-.68-.07-.07-.06-.13-.07-.15.4-.15,1.08.1,1.33.43-.02-.35.03-.21.2-.38-.82-.51-1.26-.15-1.6-.15-.39.04-.76-.25-1.13-.34.3-.62.19-.98.23-1.2.02-.18.12-.27.13-.29,0-.08-.33-.38.17-.78-.2-.11-.16-.36-.07-.51.2.16.44.29.63.46l.07-.09-.78-.8c.67.15,1.43.55,2.12.6Z"/><path class="cls-23" d="m47.74,22.81c-.83.17-.8.7-1.93.63-.38-.18-.76-.36-1.15-.5l-.18-.52c-.63-.48-.88-1.17-1.76-.97.24-.32.46-.66.72-.96l1.51-.31c.54.09.8.63.7-.47.41.48-.17,1.06-.67,1.09.48.19,1.72-.29,1.65.55-.02.29-.56.61-.84.65.62.03,1.72.13,1.96.81Z"/><path class="cls-4" d="m39.23,15.54c.1.4.48-.04.65.62.78-.52.63.67.65,1-.29-.28-.02.54-.52.15.11.38.24.77.52,1.05,0,.04,0,.07.01.11-.63-.19-.91-1.12-1.58-.86.52.6-.23.45-.76.4.18-.26.09-.41.1-.5,0,0,.09,0,.09-.17.26.26-.11-.33.32-.5-.4-.61.11-.44.15-.51.02-.04-.37-.06.18-.7.01,0-.04-.08.21-.08Z"/><path class="cls-7" d="m40.54,18.47l.07.1c-.33.4-.14.84.07,1.79-1.07-.21.2-1.53-1.01-1.47.35-1.14-.42-.29-1.45-.49-.31-.06-1.03-.52-.39-.49.02,0,.11.09.37.12.53.05,1.29.2.76-.4.67-.26.95.66,1.58.86Z"/><path class="cls-15" d="m39.8,20.8c.02.85-.83.89-.59,1.3-1.34.96-.9-.7-.92-.81-.04-.23-.3-.19-.17-.44.34.07.68.56.63.27-.05-.28-.72-.13,1.05-.33Z"/><path class="cls-12" d="m37.75,20.9c-.65,1.79-.23,1.01-1.75.34.01-.02-.06-.19.14-.4.54,0,1.07.03,1.61.06Z"/><path class="cls-13" d="m40.71,20.68c.24-.07.46.39.61.52l-.36.16c-.29-.06-.77.04-1.05-.57.25-.02.54-.15.8-.1Z"/><path class="cls-13" d="m36.47,27.82l.78.77c.36-1.04,1.5,0,1.11.18-.21.09-.81-.02-.83.13.09.12.65.84.66.89,0,.04-.1,0-.1.09.02.27-.3.32.71.83l-.14.18c-.32-.15-1.16-.58-1.46-.57-.79.02-.42.4-.41.43.26.56.24.44-.2-.08v.11c-.21.14-.53.71-.65.95l-.36-.23s0-.04,0-.05c.21-.31.3-.39-.12-.53,0-.03-.2-.39.16-.62.19-.12.11.01.14.04-.06.39.04.32.11-.01,0,0,.09,0-.01-.11.04,0,.2.01.27.02.06,0,.26.02.27.02.22-.02.44-.03.42-.11-.09-.21-.17-.41-.24-.62-.35-.94-.31-.56.07-.34.21.12.36.28.62.19.07.07.09-.05.13.15-.27.16-.24.19-.06.39.02.03.05.07.07.1-.27.28,1.06.24.31-.1.42-.22-.95-1.71-1.28-1.93-.16-.24.03-.18.03-.19Z"/><path class="cls-7" d="m33.66,29.65c1.42-.1.7.27,1.14.78.02.02-.02.12.07.1-.04.05-.15.59-.64.74-.2.06-.29-.07-.31-.07.25-.48-.24-.18-.54.07-.03-.01-.1-.07-.12-.09-.03-.03.06-.27-.06-.26-.01,0-.17.19-.23.11-.05-.07-.16-1.28-.01-1.77.49.81.41.42.7.4Z"/><path class="cls-11" d="m41.82,30.44c-.44,1.78-2.13.79-2.24-.04.74-.07,1.51-.13,2.24.04Z"/><path class="cls-7" d="m38.67,30.91c.57.26.94.65,1.02.3.56.65.08.18,0,.46-.03.1.42.58.36.71-.72-.13-.29.15-.1.48-.17.05-.27-.07-.28-.07l-.27-.4c.13-.23.45-.03.46-.2,0-.03-.24-.57-.27-.59-.05-.04-1.08-.15-1.28-.21-.77-.24-1.17-.85-1.52-.62-.02-.04-.39-.41.41-.43.3,0,1.14.43,1.46.57Z"/><path class="cls-7" d="m41.87,30c-.01.15-.02.3-.05.44-.72-.16-1.5-.11-2.24-.04v-.11c.65-.57,1.49-.36,2.29-.3Z"/><path class="cls-11" d="m39.67,32.79s.11.12.28.07c.64,1.09-.01.34-.14.59-.03.05.5.55.28,1.08-.47-.45-1.29.52-1.36.2-.01-.06.1-.71,0-1.23.54-.02.17-.74.94-.72Z"/><path class="cls-7" d="m39.4,32.39l.27.4c-.77-.02-.4.7-.94.72,0-.03,0-.07-.01-.11-.18-.68-.88-.74.43-1.09l.25.08Z"/><path class="cls-11" d="m35.93,33.27c-.1.35-.07.32-.24.63-.52.51-.54-.41-.5-.51.02-.06.13-.01.15-.07.15-.33.34-.63.56-.92.11.03-.15.41.03.87Z"/><path class="cls-7" d="m39.69,31.21c-.08.34-.44-.04-1.02-.3l.14-.18c.16.08.28-.21.88.48Z"/><path class="cls-15" d="m42.2,21.63c.03.12.02.27.05.37.03.09-.14.03.19.19-.2.17-.61.06-.39.32-1.79,1.52-3.46,3.31-5.8,3.94,1.31.51,3.37-.1,2.25.33-.07.1,1.07.41,1.51.29.47-.13,1.19-1.11,1.45-1.22.23.07.25.37.52.26-.02.01-.13.25-.23.36-.49.19-1.13.93-1.96,1.02-.49.05-3.36-.61-4.23-.7-.18.05-.37.11-.55.18-.31.12-.81.49-1.11.69-.17.11-.33.23-.5.34-.04-.16.13-.18.14-.21.04-.21-.17-.14-.15-.33.35-.23.47-.13.58-.57.18.12.2-.3.6-.43-.09-.15-.45-.1-.56-.12-.02,0-.23-.21-.44-.05,0,0,.01-.16.09-.17.67-.1,1.35-.07,2,.12,1.44-.45,2.02-.62,3.2-1.56.13-.11.98-.78.98-.86-.29,0-.91.08-1.14.01-.08-.02-1.36-.79-.94-1.18.65-.6.64.55,1.51.29.55-.16.02-.67.12-.72l1.24,1.2,1.31-1.45-.66-.65c-.1,0-.24.05-.29.04l.36-.16c.24.2.48.4.71.62.05-.07.1-.13.17-.18Z"/><path class="cls-13" d="m42.86,25.9s.32.12.46.16c.38.1.74.38,1.13.34,0,.13.06.1.07.1.01.02,0,.08.07.15-1-.21-1.82-.57-2.85-.17.1-.1.21-.34.23-.36.2-.15.66-.23.9-.23Z"/><path class="cls-8" d="m36.51,27.7c-.26.04-.51-.07-.73-.18.13-.21.8-.22.73.18Z"/><path class="cls-13" d="m44.23,19.68c-.88.79-.38.33.72.51l-1.51.31c-.26.3-.47.65-.72.96-.15.19-.32.37-.47.55-.03-.11-.02-.26-.05-.37.39-.34.77-1.1,1.17-1.46l.86-.49Z"/><path class="cls-23" d="m44.23,19.68l-.86.49c-.01-.33.16-.78.16-.89,1.48-.43,2.24-.7.7.4Z"/><path class="cls-7" d="m40.53,17.16c.04.78-.01,1.14,0,1.2-.28-.28-.41-.67-.52-1.05.5.39.24-.43.52-.15Z"/><path class="cls-5" d="m41.25,18.92c-.14.18-.21.57-.09.77l.26-.74c.09.03.16.13.21.14.37.08.66-.27,1.07.3-.2-.61.05-.21.54-.89.06.25.28.54.29.78,0,.12-.17.56-.16.89-.4.36-.78,1.12-1.17,1.46-.07.06-.12.11-.17.18-.23-.22-.47-.41-.71-.62-.15-.13-.38-.59-.61-.52.17-.12-.02-.22-.04-.32-.21-.95-.4-1.39-.07-1.79.17.08.53.31.64.35Z"/><path class="cls-11" d="m41.42,18.95l-.26.74c-.12-.2-.05-.59.09-.77,0,0,.07,0,.17.03Z"/><path class="cls-11" d="m43.77,23.27c-.09.15-.14.4.07.51-.5.4-.16.71-.17.78,0,.02-.1.11-.13.29-.03.22.07.58-.23,1.2-.14-.04-.43-.16-.46-.16.2-.24-1.29-.09-1.42-.03-.26.11-.97,1.09-1.45,1.22-.44.12-1.58-.19-1.51-.29,1.12-.44-.94.18-2.25-.33,2.34-.63,4.01-2.42,5.8-3.94,1.52.12,1.37.47,1.73.76Z"/><path class="cls-13" d="m43.84,22.56c-.39.17.38.23.81.38.39.14.78.32,1.15.5-.69-.04-1.44-.45-2.12-.6l.78.8-.07.09c-.19-.18-.43-.3-.63-.46-.36-.28-.21-.63-1.73-.76-.21-.26.2-.15.39-.32.26.13,1.14.38,1.41.36Z"/><path class="cls-7" d="m44.52,26.5s-.07.03-.07-.1c.34,0,.78-.37,1.6.15-.16.17-.21.03-.2.38-.26-.32-.94-.57-1.33-.43Z"/><path class="cls-5" d="m44.48,22.42c-.23,0-.41.12-.64.14-.27.02-1.15-.23-1.41-.36-.33-.16-.16-.1-.19-.19.16-.18.33-.36.47-.55.88-.2,1.13.49,1.76.97Z"/><path class="cls-4" d="m44.48,22.42l.18.52c-.43-.16-1.21-.21-.81-.38.22-.02.41-.14.64-.14Z"/><path class="cls-13" d="m33.64,26.11c-.07.01-.08.17-.09.17-.04.06-.1.13-.14.18l-.16.02c.03-.06.12-.15.05-.22-.03-.02-.55-.05-.66-.08-.12-.03.02-.11.01-.11l.7-1.07c-.15.47-.05.75.28,1.11Z"/><path class="cls-2" d="m38.84,24.68l-.16-.85c.23.07.85-.01,1.14-.01,0,.08-.84.75-.98.86Z"/><path class="cls-11" d="m38.12,20.85c-.13.25.13.21.17.44.02.1-.42,1.77.92.81-.24-.41.61-.46.59-1.3.04,0,.07-.01.11-.01.28.62.77.51,1.05.57.06.01.2-.04.29-.04l.66.65-1.31,1.45-1.24-1.2c-.11.05.42.56-.12.72-.87.26-.86-.9-1.51-.29-.42.39.86,1.16.94,1.18l.16.85c-1.18.94-1.76,1.1-3.2,1.56-.65-.19-1.34-.22-2-.12-.33-.36-.43-.64-.28-1.11l-.7,1.07c-.24-.05-.47.08-.61-.08.18-.38-.39-.34-.3-.61.36-.18.25-.41.18-.73.11-.18.24-.37.37-.54.06-.09.89-1.02.7-1.07-.57.44-.67,1.02-.7,1.07-.11.16-.08-.06-.17-.09.3-.69.19-.93,1.14-1.32.06-.17,0-.3,0-.35.24-.06.45.08.67.13.03,0,.14.21.5.1.13-.04.43-.41.42-.52-.02-.29-.88-.61-.05-.62.38,0,.85.36,1.11-.04.04-.07.05-.1.09-.17,1.52.67,1.11,1.45,1.75-.34.02,0,.25-.07.37-.05Z"/><path class="cls-12" d="m36.54,22.31c1.24.17.3.62.72,1.13-1.71.84-2.03,1.53-1.43-.33-.04,1.06.14.92.99.28,0-.33-.46-1.01-.28-1.08Z"/><path class="cls-13" d="m33.73,23.71c.34-.15.26.45.17.66-.4.87-.49-.52-.17-.66Z"/><path class="cls-14" d="m32.29,24.11c.04-.05.13-.63.7-1.07.19.05-.64.99-.7,1.07Z"/><path class="cls-16" d="m33.91,31.2c-.15.02-.3.17-.54.07.29-.25.79-.55.54-.07Z"/><path class="cls-11" d="m36.58,30.79v-.11c.46.52.48.65.21.08.35-.23.76.38,1.52.62.2.06,1.23.17,1.28.21.03.02.27.56.27.59-.02.16-.34-.04-.46.2l-.25-.08c-1.31.35-.61.41-.43,1.09-.18.03-.02.46-.19.65-.18.2-.33.06-.34.07-.16.1.11.58-.42.11-.41.49-1.21-.78-1.3-.76-.05.01-.17.72-.54-.2-.18-.45.07-.83-.03-.87-.22.28-.42.59-.56.92-.03.06-.13.01-.15.07-.03.1-.02,1.02.5.51-.05.08-.31.52-.4.49-.54-1.14-.93-.44-.96-.5-.03-.72-.55-.85-.55-.91.28-.25.51-.26.57-.67-.4.25-1.34.47-1.27-.16-.55-.06-.09-.7.2-.98.02.02.09.08.12.09.24.1.38-.05.54-.07.02,0,.1.13.31.07.49-.15.6-.68.64-.74.07-.1.19-.23.29-.31.07.18-.56,2.22-.22,1.44.72.99,1.21.25,1.78,1.56.31.11-.49-1.1-.5-1.16-.13-.51.38-.76.38-1.27Z"/><path class="cls-7" d="m35.62,31.74c.41.41.32.04.33.01.13-.24.44-.81.64-.95,0,.52-.5.76-.38,1.27.02.06.81,1.27.5,1.16-.57-1.32-1.07-.57-1.78-1.56-.34.78.29-1.26.22-1.44.05-.04.15-.26.21-.05-.07.21-.38,1.29-.37,1.35.01.06.72,1.04.63.22Z"/><path class="cls-16" d="m34.86,32.43s.4.38.41.41c.19.77-.52-.31-.41-.41Z"/><path class="cls-16" d="m35.15,30.22c-.1.08-.21.21-.29.31-.08.02-.05-.08-.07-.1.03-.07.14-.13.19-.19.07-.05.12-.13.16-.02Z"/><path class="cls-7" d="m35.14,29.73c.09.08.21.16.2.3-.48.08-.34.19-.35.21-.06.06-.16.12-.19.19-.44-.51.29-.87-1.14-.78.16-.26.14-.95.28-.96.09,0,.38.48.48.56.03.03.2-.02.72.48Z"/><path class="cls-7" d="m36.58,29.54c.08.21.15.42.24.62-.17.03-.37-.11-.42.11-.01,0-.22-.01-.27-.02-.05-.15.1-.22-.07-.32-.29-.16.06.18-.08.23-.06.02-.32-.11-.37-.12-.06,0-.21-.03-.27-.02,0-.14-.11-.22-.2-.3l1.45-.19Z"/><path class="cls-2" d="m37.73,29.94c.74.34-.59.38-.31.1.15-.16.3-.09.31-.1Z"/><path class="cls-7" d="m35.78,27.52c.22.1.47.22.73.18,0,.05-.04.07-.04.11,0,.01-.19-.04-.03.19.33.22,1.7,1.71,1.28,1.93-.01,0-.16-.06-.31.1-.01-.03-.04-.07-.07-.1.15-.07.09-.25.06-.39-.04-.2-.06-.07-.13-.15,0,0,.1-.12-.11-.2-.02,0-.48-.07-.52.01-.38-.22-.41-.6-.07.34l-1.45.19c-.52-.49-.68-.45-.72-.48-.1-.08-.39-.57-.48-.56-.14.01-.12.7-.28.96-.29.02-.22.41-.7-.4.08-.28.17-.39.36-.59.22-.03.65-.06.75-.1.04-.01.09,0,.15-.1l-.32-.8c.3-.19.8-.57,1.11-.69.09.15.63.48.78.55Z"/><path class="cls-26" d="m37.27,29.4c-.26.09-.41-.07-.62-.19.04-.08.49-.02.52-.01.21.09.1.2.11.2Z"/><path class="cls-2" d="m34.5,28.78c.28-.07.76.75-.07.09.03-.03.05-.09.07-.09Z"/><path class="cls-16" d="m35.63,29.12c.08.04.11.08.1.18-.01.16-.53.48-.1-.18Z"/><path class="cls-3" d="m37.34,29.93c-.18-.2-.21-.23.06-.39.03.13.1.31-.06.39Z"/><path class="cls-11" d="m35.34,30.03c.06-.01.21.01.27.02-.17.05.2.18.24.19.11.12.01.1.01.11-.04,0-.1.02-.11.01-.03-.03.05-.16-.14-.04-.36.23-.17.59-.16.62.02.42.11.47.12.53,0,.02,0,.04,0,.05,0,.03.02.16.03.21.1.83-.62-.16-.63-.22-.01-.07.3-1.15.37-1.35-.06-.21-.16.02-.21.05-.04-.11-.09-.03-.16.02.02-.02-.13-.13.35-.21Z"/><path class="cls-17" d="m35.58,31.47c0-.05-.1-.11-.12-.53.42.13.33.21.12.53Z"/><path class="cls-3" d="m35.95,31.75s.08.4-.33-.01c0-.05-.02-.18-.03-.21l.36.23Z"/><path class="cls-22" d="m36.13,30.25c-.08,0-.23-.01-.27-.02-.04,0-.41-.14-.24-.19.05,0,.31.14.37.12.14-.05-.21-.39.08-.23.17.09.02.17.07.32Z"/><path class="cls-3" d="m36.83,30.16c.02.08-.2.09-.42.11.05-.22.26-.08.42-.11Z"/><path class="cls-19" d="m35.87,30.34c-.07.34-.17.4-.11.01,0,0,.06-.01.11-.01Z"/><path class="cls-2" d="m42.86,25.9c-.24,0-.69.07-.9.23-.27.11-.29-.19-.52-.26.13-.06,1.62-.2,1.42.03Z"/><path class="cls-21" d="m33.95,26.89c.03-.11,0-.37.04-.55.11.02.47-.04.56.12-.4.13-.42.55-.6.43Z"/><path class="cls-11" d="m17.07,28.05c.25.38-.27.3-.48.5-.02-.04-.46-.21.48-.5Z"/><path class="cls-7" d="m19.01,26.65c.09.06.19.12.29.15-.24.27-.68.34-.64.55-.15.08-.3.19-.45.28-.18.1-.64.23-.65.41-.06.01-.25-.06-.49,0-.93.29-.5.45-.48.5,0,.01,0,.04,0,.05,0,0-.12.06-.09.12-.2-.09-1.29-.16-.96.13-.13-.09-.27-.07-.31-.29,1.51-.61,1.2-2.43.78-3.64,1.02.28.99.68,1.7.95l.27,1.03c.32-.85.53-.04.65-.03.02,0,.12-.22.38-.21Z"/><path class="cls-18" d="m16.57,26.92c.33,0,.65.12.84.41l-.07.09c-.19-.31-.99-.32-.77-.5Z"/><path class="cls-18" d="m16.47,26.17c.1.11.41.28.45.35.36.56-.41.06-.45-.35Z"/><path class="cls-11" d="m18.18,33.24c-.05.24-.19.24-.4.27-.59.08-1.21-.35-1.11-.13-.29-.15-.46-.09-.5-.1-.7-.1-.74,0,.15-.35.07-.03.12.06.17.09l.07-.12c.1-.18-.03-.22-.03-.27.17-.4.51-.12.62-.24.1-.1.02-.14-.03-.21.53.09.61-.52.18-.73.28-.11.49-.06.67-.3.39.5.7,1.7-.01,1.99.04.18.19.09.23.11Z"/><path class="cls-11" d="m14.36,35.31c-.22-.21-.63.11-.84.22-.25.13-.24.04-.45.28l-.52.2c-.06-.08.1-.8.15-.92.13-.29.4-.49.59-.73,3.35-1.35,1.26.32,1.08.95Z"/><path class="cls-11" d="m18.05,34.78c0,.08.13.04.12.07-.03.07-.78.21-.82.19-.16-.09-.38-1.07-.24,0-.81.09-.32.55-.61.76-.05-.2-.09-.3-.1-.31-.11-.88.33-1.54.52-1.21l.72-.31c.02-.38.34-.15.13-.45.22-.03.35-.03.4-.27.43.14.42-.31.66.05.18.26.07.86-.16,1.08-.39.38-.68-.03-.63.41Z"/><path class="cls-11" d="m13.23,36.22c.71.07.83-.17.88-.17l.09.1c-.21.96.11.82.19,1.06.44,1.33-.21.55-.39.54-.52-.02-.17.42-.94.09l.04-.98c-.1-.18-.35.24-.43.06-.07-.17.13-.65.22-.82.16.06.16.1.34.12Z"/><path class="cls-11" d="m18.05,34.78c.67-.16.38,1.24.3,1.27-.06.02-.52-.53-.52.61-.65-.51-.99-.07-.92-.61.01-.11.38-.18.1-.69-.06.26-.2.47-.32.69-.22.19-.16-.09-.2-.25.29-.21-.2-.67.61-.76-.14-1.08.09-.09.24,0,.04.02.79-.12.82-.19.01-.03-.11,0-.12-.07Z"/><path class="cls-11" d="m16.4,35.48s.05.12.1.31c.04.16-.02.43.2.25-.4.75-.14.12-.38.21-.03.01-.11.39-.26.52-.04.04-.9.61-.95.61-.2.01-.21-.33-.32-.34-.02,0-.1.26-.35.05-.2-.17-.18-.59-.16-.85.29.28.62,1.05.87,0,.02.06,0,.18.05.21.12,0,.21-.14.32-.26.26-.28.42-1.04.89-.71Z"/><path class="cls-7" d="m15.23,33.19c-.09.19.15.07.12.53-.26.57-.14,1.2-.15,1.82l-.17-1.07-.69,1.18s-.04-.15.01-.33c.19-.63,2.27-2.3-1.08-.95-.19.24-.46.44-.59.73.1-.29-.3-.01-.17-.44.04-.12.49-.51.62-.65.21.04,1.65-.48,1.67-.57,0-.01-.12-.11-.12-.12-.02-.04.05-.07.04-.11.02,0,.09-.17.49,0Z"/><path class="cls-13" d="m14.7,33.31s.13.11.12.12c-.02.09-1.46.61-1.67.57.08-.08.19-.34.3-.42.67-.52.87-.06,1.24-.27Z"/><path class="cls-7" d="m13.52,35.53c.17.14-.28.43-.29.69-.19-.02-.18-.06-.34-.12.04-.07.13-.24.18-.3.21-.24.21-.14.45-.28Z"/><path class="cls-18" d="m14.27,36.25c-.02.25-.03.68.16.85l-.04.11c-.08-.24-.4-.1-.19-1.06.08-.02.05.09.07.1Z"/><path class="cls-7" d="m17.29,31.45c.43.21.35.82-.18.73-.31-.05-.96-1.09-.78-.53.02.08.68.58.8.74-.12.12-.45-.16-.62.24,0-.04-.05-.04-.07-.15-.36-1.67-.25-.01-.61-.95.11-.03.16-.08.19-.19.38,0,.53.12.5-.12.03.26.46.08.76.23Z"/><path class="cls-7" d="m15.83,31.53c.37.94.25-.71.61.95-.32.12-.17.39.11.42l-.07.12c-.05-.03-.1-.11-.17-.09-.89.35-.84.25-.15.35-.02.14.06.13.13.2-.61.56-.61-.5-.95.23.03-.46-.21-.34-.12-.53.39-.03.6-.56.76-.89,0-.25-.28-.33-.26-.76.04,0,.07,0,.11-.01Z"/><path class="cls-7" d="m17.78,33.51c.21.3-.11.07-.13.45l-.72.31c-.19-.33-.63.33-.52,1.21-.46-.32-.63.43-.89.71.21-1.3,1.26-1.99,1.28-2.26.01-.12-.13-.21-.15-.28,0-.03.07-.1.02-.27-.1-.22.52.21,1.11.13Z"/><path class="cls-7" d="m17.11,32.18c.05.08.13.11.03.21-.13-.16-.78-.66-.8-.74-.18-.56.47.48.78.53Z"/><path class="cls-18" d="m16.67,33.38c.05.17-.03.25-.02.27-.14.05-.25-.08-.35-.17-.07-.07-.16-.06-.13-.2.05,0,.21-.05.5.1Z"/><path class="cls-18" d="m16.52,32.64s.14.09.03.27c-.28-.03-.42-.3-.11-.42.03.12.07.12.07.15Z"/><path class="cls-7" d="m14.36,35.31c-.05.18,0,.29-.01.33-.02.06-.14.47-.15.51l-.09-.1s-.17.24-.88.17c.01-.26.46-.55.29-.69.21-.11.62-.43.84-.22Z"/><path class="cls-11" d="m16.3,33.48c.1.09.2.22.35.17.02.07.16.16.15.28-.03.27-1.08.96-1.28,2.26-.11.12-.2.26-.32.26-.06-.03-.04-.15-.05-.21,0-.01.13-.17-.03-.27,0-.18.1-.22.11-.45,0-.61-.12-1.24.15-1.82.34-.74.34.33.95-.23Z"/><path class="cls-11" d="m15.21,35.53c0,.23-.11.27-.11.45,0,.07.02.21.03.27-.25,1.06-.58.28-.87,0-.01-.01.02-.12-.07-.1,0-.04.13-.45.15-.51l.69-1.18.17,1.07Z"/><path class="cls-11" d="m15.14,36.25c-.02-.06-.03-.2-.03-.27.16.1.04.25.03.27Z"/></g></svg>