<?xml version="1.0" encoding="UTF-8"?><svg id="Capa_2" xmlns="http://www.w3.org/2000/svg" xmlns:xlink="http://www.w3.org/1999/xlink" viewBox="0 0 32.77 32.77"><defs><style>.cls-1{fill:url(#Degradado_sin_nombre_33);}.cls-1,.cls-2,.cls-3,.cls-4,.cls-5,.cls-6,.cls-7,.cls-8,.cls-9,.cls-10,.cls-11,.cls-12,.cls-13,.cls-14,.cls-15,.cls-16,.cls-17,.cls-18,.cls-19,.cls-20,.cls-21,.cls-22,.cls-23,.cls-24,.cls-25,.cls-26,.cls-27,.cls-28,.cls-29,.cls-30,.cls-31,.cls-32,.cls-33,.cls-34,.cls-35,.cls-36,.cls-37,.cls-38,.cls-39,.cls-40,.cls-41,.cls-42,.cls-43,.cls-44,.cls-45,.cls-46,.cls-47,.cls-48,.cls-49{stroke-width:0px;}.cls-2{fill:url(#Degradado_sin_nombre_31);}.cls-3{fill:url(#Degradado_sin_nombre_32);}.cls-4{fill:url(#Degradado_sin_nombre_182);}.cls-5{fill:#f7be80;}.cls-6{fill:#fb9779;}.cls-7{fill:#553316;}.cls-8{fill:#517f7f;}.cls-9{fill:#4e4c49;}.cls-10{fill:#2a601a;}.cls-11{fill:#5b7825;}.cls-12{fill:#64615d;}.cls-13{fill:#465548;}.cls-14{fill:#89a6ab;}.cls-15{fill:#724c30;}.cls-16{fill:#73191d;}.cls-17{fill:#a52326;}.cls-18{fill:#3b3934;}.cls-19{fill:#3c6866;}.cls-20{fill:#391b10;}.cls-21{fill:#191817;}.cls-22{fill:#365957;}.cls-23{fill:#092e0d;}.cls-24{fill:#114b12;}.cls-25{fill:#c88946;}.cls-26{fill:#cab19b;}.cls-27{fill:#b0763c;}.cls-28{fill:#dd8536;}.cls-29{fill:#de594c;}.cls-30{fill:#a9c4c5;}.cls-31{fill:#be9779;}.cls-32{fill:#b1b4b0;}.cls-33{fill:#a7652e;}.cls-34{fill:#cf443f;}.cls-35{fill:#8b5320;}.cls-36{fill:#b73732;}.cls-37{fill:#b3c0ab;}.cls-38{fill:#9fae80;}.cls-39{fill:#858179;}.cls-40{fill:#876031;}.cls-41{fill:#946342;}.cls-42{fill:#947044;}.cls-43{fill:#fdfdfd;}.cls-44{fill:#7f3e1f;}.cls-45{fill:#e5aa68;}.cls-46{fill:#efe5d7;}.cls-47{fill:#fcb8ac;}.cls-48{fill:#f08367;}.cls-49{fill:#694d2a;}</style><linearGradient id="Degradado_sin_nombre_182" x1="10.49" y1="27.5" x2="12.82" y2="31.63" gradientTransform="translate(4.94 -5.12) rotate(9.9)" gradientUnits="userSpaceOnUse"><stop offset="0" stop-color="#151515"/><stop offset="1" stop-color="#30302b"/></linearGradient><linearGradient id="Degradado_sin_nombre_32" x1="18.38" y1="27.18" x2="20.11" y2="29.78" gradientTransform="translate(4.94 -5.12) rotate(9.9)" gradientUnits="userSpaceOnUse"><stop offset="0" stop-color="#864218"/><stop offset="1" stop-color="#f38016"/></linearGradient><linearGradient id="Degradado_sin_nombre_31" x1="9.7" y1="6.47" x2="11.36" y2="9.02" gradientTransform="translate(4.94 -5.12) rotate(9.9)" gradientUnits="userSpaceOnUse"><stop offset="0" stop-color="#1a262a"/><stop offset="1" stop-color="#244648"/></linearGradient><linearGradient id="Degradado_sin_nombre_33" x1="23.53" y1="12.11" x2="25.35" y2="14.85" gradientTransform="translate(4.94 -5.12) rotate(9.9)" gradientUnits="userSpaceOnUse"><stop offset="0" stop-color="#60181a"/><stop offset="1" stop-color="#c92f2d"/></linearGradient></defs><g id="Capa_1-2"><circle class="cls-43" cx="16.39" cy="16.39" r="16.38"/><path class="cls-27" d="m4,24.8c.9,1.17,3.27,3.09,4.63,3.6,1.11.42.56.23.18-.65.63.7.84,1,1.75,1.36.3.12.6.25.92.29,1.05.42,2.18.59,3.29.74,1.32.18,2.67.26,4,.11-.27.43-1.01.46.02.6-3.33.19-7.38-.52-10.39-1.98-.78-.38-1.56-.82-2.26-1.32-.14-.12-.31-.21-.45-.33-.92-.76-1.55-1.58-2.22-2.54.46.56.6.54.09-.05.02-.17.44.37.43.18Z"/><path class="cls-33" d="m30.42,20.15c-.08.37-.18.73-.28,1.09-1.24,4.56-3.98,7.72-8.53,9.16-.89.2-1.78.36-2.69.42-.03,0-.06.02-.13.02-1.03-.14-.3-.16-.02-.6v-.04c.51.05,1.59-.24,2.04-.49.74.25,2.5-.38,3.22-.75.18.09,1.21-.5,1.33-.59.09-.07,1.53-1.42,1.67-1.57.6-.65.98-1.44,1.44-1.69.43-.59,1.47-3.08,1.64-3.81,0-.02,0-.29-.03-.32.23-.44.2-.68.36-.83Z"/><path class="cls-25" d="m2.62,22.27c.23.58,1,2.03,1.38,2.52,0,.19-.42-.35-.43-.18.5.59.37.61-.09.05-.14-.2-.32-.42-.44-.63-.5-1.1-1.1-2.2-1.22-3.42.12.4.71,2.1.81,1.66Z"/><path class="cls-45" d="m17.27,24.53s-.17.25-.23.34c-.41.59-.68,1.22-.68,1.95-.28,1.43.95,3.23,2.41,3.38v.04c-1.34.16-2.68.07-4-.11l-.84-.25c.57-2.4.87-4.88,1.36-7.31.81.14,1.48.19,2.3.15l-.31,1.8Z"/><path class="cls-40" d="m13.62,28.29c-.44.68-1.31,1.2-2.14,1.11-.33-.04-.62-.17-.92-.29,1.34-.1,2.37-.43,3.08-1.66.28.09-.15.6-.02.84Z"/><path class="cls-27" d="m24.02,28.97c1.37-.71,2.88-2.24,3.74-3.51.14-.2.54-.86.51-.99.54-.52,1.15-1.6,1.09-2.37l-.27.31c.12-.33.23-.58.25-.97.73,0,.66-.37.72-.47.03.04.03.31.03.32-.17.74-1.21,3.23-1.64,3.81-.46.26-.84,1.04-1.44,1.69-.13.15-1.58,1.5-1.67,1.57-.12.09-1.15.68-1.33.59Z"/><path class="cls-45" d="m2.62,22.27c-.1.44-.69-1.26-.81-1.66,0,0-.06.03-.11-.12-.2-1.07-.27-2.14-.24-3.23.07,0,.13-.11.17-.03.06.1.06,1.62.21,2.44.08.43.6,2.19.77,2.61Z"/><path class="cls-45" d="m22.43,3.46c-.89-.09-1.66.1-2.25.79-.02.02-.04.05-.06.07-.52.67-.95,1.76-.79,2.61-.03,0-.07-.02-.09,0-.08.19-.44,2.66-.51,3.19-.42-.12-.87-.22-1.31-.27l1.36-7.31c1.25.16,2.47.46,3.64.91Z"/><path class="cls-40" d="m17.59,22.73c-.82.04-1.49-.01-2.3-.15-.53-.09-1.07-.2-1.59-.36-.25-.31-.77-.48-1.12-.74-.31-.23-.6-.55-.87-.83-.02-.02-.11,0-.12-.02-.09-.1-.94-1.3-1-1.42-.08-.17-.32-.85-.15-.83-.14-.09-.28-.51-.12-.51.59,1.87,2.1,3.23,3.97,3.78,3.84,1.12,6.83-.23,8.01-4.12.41-1.37.49-2.57.05-3.94.16.35.27.46.38.97.44,2.14-.2,4.65-1.53,6.37-.97,1.24-2.06,1.72-3.61,1.8Z"/><path class="cls-27" d="m10.32,17.87c-.16,0-.02.41.12.51-.16-.03.07.66.15.83.06.12.91,1.32,1,1.42.02.02.11,0,.12.02.27.28.56.6.87.83.35.26.87.43,1.12.74-2.82-.87-3.87-2.87-3.6-5.74,0,.46.08.95.22,1.39Z"/><path class="cls-33" d="m13.62,28.29c-.13-.25.3-.75.02-.84.29-.5.48-1.02.53-1.6.17.78-.13,1.77-.55,2.44Z"/><path class="cls-39" d="m11.67,22.97c.37.33-.46.12-1.05.32-.32.11-.6.38-.88.56-.01,0-.01-.1-.22.05l-.27-.17c.63-.65,1.54-.85,2.41-.76Z"/><path class="cls-39" d="m9.52,23.9s-.23.16-.24.17c-.12,0-.14-.08-.14-.19,0,0,0-.03.11-.15l.27.17Z"/><path class="cls-4" d="m14.17,25.85c-.05.58-.24,1.1-.53,1.6-.71,1.23-1.73,1.56-3.08,1.66-.91-.36-1.12-.66-1.75-1.36-.58-1.3-.6-2.73.34-3.87,0,.11.01.2.14.19-.54.61-.86,2.48-.38,2.3.13-.05-.44-1.01.84-2.52.28-.19.56-.45.88-.56.59-.2,1.42,0,1.05-.32,1.51.16,2.64,1.34,2.5,2.89Z"/><path class="cls-32" d="m12.75,26.36c.22.12-.53,2.66-2.78,1.02,1.95.05,1.5-.72,2.78-1.02Z"/><path class="cls-9" d="m9.74,23.85c-1.28,1.5-.71,2.47-.84,2.52-.48.18-.16-1.69.38-2.3,0-.01.2-.14.24-.17.21-.14.21-.04.22-.05Z"/><path class="cls-35" d="m28.27,24.47c-1.35,1.3-2.92.36-3.91-.85.54.19.86.79,1.49.81-.1.22.72.29.88.28.25-.02.8-.27,1.06-.36.06-.02.85-.04.88-.82-.09.13-.24.19-.36.27v-.17c.43-.37.59-.66.79-1.21l.27-.31c.06.77-.55,1.85-1.09,2.37Z"/><path class="cls-7" d="m24.31,23.23c1.14,1.21,2.64,1.51,3.99.4v.17c-.12.09-.6.42-.51.54-.25.1-.81.35-1.06.36-.16,0-.98-.06-.88-.28-.63-.02-.94-.62-1.49-.81-.29-.36-.63-.83-.66-1.3.14.42.31.59.6.91Z"/><path class="cls-5" d="m13.34,10.49c.33.07-.57.44-.99.82-.91.83-1.41,2.08-1.79,3.22-.3-.45.5-1.89.84-2.37.54-.76,1.12-1.24,1.94-1.67Z"/><path class="cls-45" d="m17.43,9.85c.44.05.88.15,1.31.27,1.95.55,2.81,1.67,3.62,3.46.44,1.37.36,2.58-.05,3.94-1.18,3.89-4.17,5.23-8.01,4.12-1.87-.54-3.38-1.9-3.97-3.78-.14-.44-.23-.93-.22-1.39.01-.64.26-1.34.47-1.95.38-1.14.88-2.39,1.79-3.22.41-.38,1.32-.75.99-.82.5-.26.99-.48,1.56-.57.46-.08,2.08-.12,2.53-.07Z"/><path class="cls-9" d="m22.02,15.73c.07,1.91-1.01,4.11-2.76,5.01-2.18,1.12-6.64.57-7.97-2.4.27.19-.1-.52-.16-1.02-.25-1.94.33-3.49,1.96-4.58,2.26-1.51,5.58-1.8,7.49.42.36.42,1.11,1.65,1.21,2.18.27.07.06.38.23.4Z"/><path class="cls-18" d="m22.02,15.73c-.17-.02.05-.33-.23-.4-.09-.53-.84-1.75-1.21-2.18-1.91-2.22-5.23-1.93-7.49-.42-1.63,1.09-2.21,2.64-1.96,4.58.06.5.43,1.21.16,1.02-1.55-3.45.64-7.47,4.52-7.62,3.19-.12,6.08,1.58,6.2,5.01Z"/><path class="cls-35" d="m22.24,26.84c.05,1.14-.4,2.3-1.43,2.88-.45.25-1.53.54-2.03.49-1.46-.15-2.69-1.94-2.41-3.38,0,.98.66,1.92,1.48,2.41,1.15.69,2.17.63,3.14-.32.02-.02,0-.14.03-.16.06-.06.26-.06.26-.29.42-.13.24-.2.3-.29.38-.52.5-.95.53-1.6l.12.25Z"/><path class="cls-28" d="m17.42,25.15c-.71,1.18-.53,2.32.28,3.39.02-.01.04-.04.07-.03.23.25.55.34.84.49,0,0-.03.07,0,.09.47-.07.29.17-.03.16-.44,0-.67-.28-.74,0-.82-.49-1.47-1.44-1.48-2.41,0-.73.27-1.37.68-1.95-.11.47.04.34.37.28Z"/><path class="cls-45" d="m20.42,24.2s.06.07,0,.09c-.54-.17-1.5-.28-2.02-.06-.09.04-.08.11-.08.11-.43.22-.65.39-.9.81-.34.06-.49.19-.37-.28.06-.09.2-.31.23-.34.94-1,1.99-.76,3.14-.34Z"/><path class="cls-28" d="m22.24,26.84l-.12-.25c-.03.65-.15,1.08-.53,1.6-.06.08.12.16-.3.29,0,.24-.2.23-.26.29-.02.02,0,.14-.03.16-.97.95-1.99,1-3.14.32.07-.27.3,0,.74,0,.32,0,.5-.23.03-.16-.03-.02,0-.08,0-.09.91.24,1.88-.23,2.03-1.21.11.39.14.02.19,0,.04-.02.15.42.4-.46.54-1.91-.99-3.52-2.9-2.98,0,0-.01-.07.08-.11.52-.22,1.48-.12,2.02.06.05-.01-.03-.08,0-.09,0,0,.07-.07.16-.06.55.09,1.61,1.61,1.66,2.7Z"/><path class="cls-3" d="m20.64,27.78c.03-.17.04-.44-.14-.53-.48.99-1.65,1.71-2.73,1.26-.03-.01-.05.02-.07.03-.81-1.06-.98-2.2-.28-3.39.25-.42.48-.6.9-.81,1.91-.55,3.45,1.07,2.9,2.98-.25.88-.36.44-.4.46-.05.03-.08.4-.19,0Z"/><path class="cls-5" d="m20.64,27.78c-.14.98-1.12,1.45-2.03,1.21-.29-.15-.62-.23-.84-.49,1.08.46,2.26-.27,2.73-1.26.18.09.17.36.14.53Z"/><path class="cls-35" d="m19.36,7.02c.04.17.24.54.34.69-.14.17.35.52.37.55.01.02-.03.11-.02.12.51.71.69.71,1.29,1.22.77.13,1.37.05,2.14-.13.17-.23.41-.35.62-.53.98-.84,1-1.26,1.2-2.54.13,1.23-.08,2.29-1.13,3.08-2.05,1.55-4.82,0-4.81-2.47Z"/><path class="cls-44" d="m19.98,8.06c.71.82,1.73,1.35,2.84,1.26.63-.05,1.56-.75,1.27-.37-.21.18-.45.29-.62.53-.77.18-1.36.26-2.14.13-.59-.5-.78-.51-1.29-1.22-.01-.02.03-.11.02-.12-.02-.03-.51-.38-.37-.55.08.12.18.24.28.34Z"/><path class="cls-10" d="m29.29,20.8c.01.06.06.61.06.64-.03.39-.13.64-.25.97-.2.55-.36.84-.8,1.21-1.34,1.11-2.85.81-3.99-.4.27.14-.37-.87-.15-1.34.09.43.16.6.43.94.01.02-.03.11-.02.12.07.08.08,0,.09,0,.09.09.22.21.33.27-.12.25.25.25.27.26.89.56.86.66,1.92.38.01,0,.06.16.14-.06-.11.22.63-.26.66-.29.09-.1.34-.64.39-.8.27-.77.28-1.2.18-2,.43,0,.69.26.75.09Z"/><path class="cls-11" d="m24.28,19.97c-.06.13-.22.91-.23,1.08-.01.19.06.64.11.84-.22.47.42,1.48.15,1.34-.3-.31-.46-.49-.6-.91-.3-.9-.07-1.88.38-2.68l.2.33Z"/><path class="cls-11" d="m29.29,20.8c-.05.17-.31-.09-.75-.09-.14-1.09-.58-1.76-1.72-1.99,0-.22.22,0,.08-.24.54.11,1.17.39,1.58.78.32.31.73,1.1.81,1.54Z"/><path class="cls-38" d="m26.91,18.48c.14.23-.08.02-.08.24-1.1-.22-2.21.5-2.54,1.25l-.2-.33c.61-1.08,1.65-1.4,2.82-1.16Z"/><path class="cls-23" d="m26.82,18.72c1.14.23,1.58.9,1.72,1.99.11.8.09,1.23-.18,2-.56.49-.66.41-1.07.57.33-.34.65-.76.64-1.26-.02-1.1-.5,1.14-2.69.99-.38-.03-.64-.2-.6-.06,0,0-.02.08-.09,0-.01-.01.03-.11.02-.12-.27-.35-.34-.51-.43-.94-.04-.21-.12-.65-.11-.84.01-.17.17-.95.23-1.08.33-.75,1.44-1.47,2.54-1.25Z"/><path class="cls-37" d="m27.3,23.28c-.71.28-1.22.55-2.31-.07-.11-.06-.24-.18-.33-.27-.04-.13.22.04.6.06,2.19.15,2.67-2.09,2.69-.99,0,.5-.32.92-.64,1.26Z"/><path class="cls-24" d="m24.98,23.22c1.1.61,1.6.34,2.31.07.42-.16.52-.08,1.07-.57-.06.16-.3.7-.39.8-.03.03-.78.5-.66.29-.08.22-.13.06-.14.06-1.06.29-1.03.18-1.92-.38-.02-.01-.39-.01-.27-.26Z"/><path class="cls-35" d="m27.79,24.34c-.09-.13.39-.45.52-.54.12-.09.27-.15.36-.27-.03.78-.82.79-.88.82Z"/><path class="cls-45" d="m29.53,9.52c-.07-.03-.17-.07-.18-.07-.24-.2-1.48-2.67-3.43-4.06-.14-.1-1.19-.77-1.26-.77-.03,0-.03.05-.03.08-.22-.24-.76-.57-1.06-.73-.37-.2-.75-.34-1.14-.49-1.18-.45-2.39-.75-3.64-.91l-1.36,7.31c-.45-.05-2.07,0-2.53.07-.56.09-1.06.31-1.56.57-.82.42-1.4.91-1.94,1.67-.34.48-1.13,1.92-.84,2.37-.2.61-.45,1.3-.47,1.95-.27,2.87.78,4.87,3.6,5.74.52.16,1.05.27,1.59.36-.49,2.43-.79,4.9-1.36,7.31l.84.25c-1.11-.15-2.25-.33-3.29-.74.83.09,1.7-.42,2.14-1.11.43-.67.72-1.66.55-2.44.14-1.55-.99-2.73-2.5-2.89-.88-.09-1.78.11-2.41.76-.11.12-.1.14-.11.15-.93,1.14-.91,2.57-.34,3.87.39.88.93,1.06-.18.65-1.36-.51-3.74-2.43-4.63-3.6-.38-.49-1.14-1.94-1.38-2.52-.17-.42-.69-2.18-.77-2.61-.15-.83-.14-2.34-.21-2.44-.05-.08-.1.02-.17.03.1-3.58,1.26-7.31,3.24-10.32,1.03-1.57,2.85-3.31,4.51-4.18,1.52-.79,3.67-1.19,5.38-1.3,1.6-.11,3.19.04,4.76.32,2.37.53,5.74,1.99,7.52,3.64,1.2,1.11,2.04,2.59,2.64,4.1Z"/><path class="cls-40" d="m3.23,22.93c2.55,2.88,6.2.29,5.07-3.17.75,1.26.75,2.37-.04,3.65-1.19,1.91-3.63,1.72-4.78.05-.11-.16-.16-.37-.25-.53Z"/><path class="cls-40" d="m11.68,6.48c.36.32.58.68,1.02.94,0,.22.58.49.8.65.32.07.99-.12,1.31.02l.74-.23c-.09-.08.54-.46.6-.53,0,0-.06-.05-.03-.09.09-.1.36-.28.29-.44.46-.63.75-1.61.63-2.38,1.3,2.75-2.66,5.71-4.76,3.18-.28-.34-.42-.72-.59-1.12Z"/><path class="cls-27" d="m7.88,11.99c-.33.02-.65-.02-.97,0-.39-.26-.26-.09-.28-.09-.39-.26.09.02-.2-.33.6.23,1.54.18,1.45.42Z"/><path class="cls-18" d="m8.3,19.76c1.12,3.46-2.52,6.05-5.07,3.17-.16-.31-.22-.36-.34-.73.37.16.03-1,.03-1.12-.01-.43.33-.6-.14-.64.02-.08.07-.24.1-.32.13.84.24-.09.5-.46.08-.11.33-.43.41-.18-1.11,1.36-.82,3.06.95,3.5.86.21,2.06.33,2.45-.71.44.17.56.02.67-.67.3-1.85-1.2-3.48-3.1-2.84-.09-.27.42-.34.22-.51,1.43-.34,2.61.3,3.33,1.51Z"/><path class="cls-39" d="m4.76,18.76c-.39.13-.71.4-.97.72-.08-.25-.33.07-.41.18-.31,0,.06-.43.29-.67.31-.32.88-.64,1.31-.74.21.17-.3.24-.22.51Z"/><path class="cls-9" d="m2.89,22.19c-.22-.68-.29-1.03-.12-1.75.48.04.13.2.14.64,0,.12.34,1.28-.03,1.12Z"/><path class="cls-12" d="m3.38,19.66c-.27.37-.37,1.3-.5.46.15-.42.43-.86.79-1.13-.23.23-.59.66-.29.67Z"/><path class="cls-21" d="m7.19,22.27c.1-.27.12-.47.03-.76-.51.67-1.54,1.11-2.36,1.19-.44.05-1.11-.15-.11.28-1.77-.44-2.06-2.14-.95-3.5.26-.32.58-.59.97-.72,1.89-.64,3.39.99,3.1,2.84-.11.68-.22.84-.67.67Z"/><path class="cls-32" d="m7.19,22.27c-.39,1.04-1.59.93-2.45.71-1-.43-.33-.23.11-.28.83-.09,1.85-.52,2.36-1.19.09.29.08.48-.03.76Z"/><path class="cls-49" d="m12.7,7.42c.15.09.3.16.44.25.07.02.13-.03.27,0,.78.17,1.66.14,2.34-.35v.09c.17-.12.53-.46.64-.61.07.16-.2.34-.29.44-.03.04.03.09.03.09-.06.07-.69.45-.6.53l-.74.23c-.31-.13-.99.06-1.31-.02-.21-.16-.8-.42-.8-.65Z"/><path class="cls-19" d="m16.78,3.87l.22.95c-.18.69-.2,1.14-.51,1.73-.1.16-.57.67-.73.78-.68.49-1.56.52-2.34.35,0-.03.02-.07,0-.09-.23-.13-.76-.09-1.46-.97.22-.27.32.5.74.13.3.22.82.37,1.19.42-.01.25,1.01.23,1.13.2.01,0,.05-.09.22-.17,1.11-.57,1.68-2.79.8-3.87.06-.2.3-.03.1-.32.33.2.49.54.65.87Z"/><path class="cls-8" d="m11.95,3.7s-.16.65-.17.71c-.06.67.29,1.69.76,2.18,0,0-.02.03.14.15-.42.37-.51-.4-.74-.13-.32-.41-.36-.61-.58-1.03-.17-.85-.15-1.43.3-2.19l.29.3Z"/><path class="cls-14" d="m16.13,2.99c.2.29-.03.12-.1.32-.73-.9-2.11-1.24-3.12-.63-.25.15-.85.78-.96,1.02l-.29-.3c1.12-1.87,3.95-1.15,4.47-.4Z"/><path class="cls-13" d="m17.02,4.42c.12.77-.17,1.75-.63,2.38-.11.15-.47.49-.63.61v-.09c.15-.11.62-.62.72-.78.31-.58.33-1.04.51-1.73l-.22-.95c.09.18.21.34.24.55Z"/><path class="cls-13" d="m11.95,6.62c.7.89,1.23.84,1.46.97.03.02.01.06,0,.09-.15-.03-.21.01-.27,0-.14-.09-.3-.16-.44-.25-.44-.26-.66-.62-1.02-.94-.14-.34-.23-.52-.31-.9.23.42.26.62.58,1.03Z"/><path class="cls-2" d="m16.03,3.31c.88,1.08.3,3.3-.8,3.87-.11-.08-.18-.1-.17-.24.35-.27.63-.97.54-1.41-.15-.7-.29.37-1.65.83-.08.03-.14-.11-.15-.11-.07.01-.35.39-1.26.33-.47-.49-.82-1.51-.76-2.18,0-.06.15-.68.17-.71.11-.24.71-.87.96-1.02,1.01-.61,2.4-.27,3.12.63Z"/><path class="cls-30" d="m15.06,6.95c-.31.24-.81.27-1.18.22-.37-.05-.89-.2-1.19-.42-.16-.12-.14-.14-.14-.15.92.06,1.2-.32,1.26-.33,0,0,.07.14.15.11,1.36-.47,1.5-1.53,1.65-.83.09.44-.19,1.13-.54,1.41Z"/><path class="cls-22" d="m15.23,7.19c-.17.09-.21.17-.22.17-.12.03-1.14.06-1.13-.2.37.05.87.02,1.18-.22-.01.14.06.16.17.24Z"/><path class="cls-15" d="m8.37,15.25l-.12-.25c0,.36-.5,1.28-.73,1.52-.02.02-.42.25-.57.37-.02.01-.01.15-.03.16-.49.37-1.53.52-2.13.45-.28-.03-.7-.28-.84-.15-.77-.51-1.07-1.25-1.21-1.06-.06-.12-.1-.24-.15-.36l.54-.16c.1.11.21.19.33.27.63.42,1.69.79,2.4.42.2-.1.34-.29.52-.42.21-.14.2-.3.64-.27-.25.42-.91.89.23.36.3-.55.85-1.05,1.06-1.7.03.24.09.59.07.81Z"/><path class="cls-41" d="m6.91,11.99c.78.51,1.27,1.53,1.39,2.44-.2.64-.76,1.15-1.06,1.7-1.14.53-.48.06-.23-.36.1-.16.2-.33.26-.5.14-.41.21-.85.18-1.28-.07-1.05-.88-1.81-1.82-2.14.09,0,.16,0,.25,0,.24,0,.51.01.75.05.02,0-.11-.16.28.09Z"/><path class="cls-40" d="m8.37,15.25c-.15,1.83-1.58,2.67-3.3,2.68-.42-.25-.65-.26-1.12-.58.14-.14.56.11.84.15.6.07,1.63-.08,2.13-.45.02-.01,0-.15.03-.16.15-.11.55-.34.57-.37.23-.24.72-1.16.73-1.52l.12.25Z"/><path class="cls-31" d="m5.88,11.85c-.09,0-.16,0-.25,0-.12,0-.41-.07-.78,0-.79.13-1.77.92-2.05,1.67-.15-.03-.1.42-.32.11.28-.99,1.11-1.81,2.14-1.99.27-.05,1.65-.16,1.25.22Z"/><path class="cls-41" d="m2.8,13.51c-.12.32-.15.57-.16.9,0,.34.05.57.18.88.08.18.16.33.3.47l-.54.16c-.28-.79-.34-1.47-.11-2.3.21.31.17-.14.32-.11Z"/><path class="cls-27" d="m3.95,17.35c.48.31.7.33,1.12.58-1.23,0-1.83-.55-2.34-1.63.14-.2.44.55,1.21,1.06Z"/><path class="cls-26" d="m6.37,16.04c-.18.13-.32.31-.52.42-.71.37-1.77,0-2.4-.42.45.04,1.07-.27,1.12-.27.38.01.26.75,1.05-.7.46.57,1.06.19,1.1.23l-.36.74Z"/><path class="cls-7" d="m7.27,15.27c-.06.18-.16.35-.26.5-.44-.03-.43.13-.64.27l.36-.74s-.64.34-1.1-.23c-.79,1.46-.67.72-1.05.7-.06,0-.67.31-1.12.27-.12-.08-.23-.16-.33-.27-.13-.14-.22-.3-.3-.47,1.24-.54,4.16-2.39,4.44-.03Z"/><path class="cls-20" d="m5.63,11.85c.94.33,1.76,1.09,1.82,2.14-.42-.17-.6-.59-1.25-.72-.61-.12-2.1.21-2.63.55-.27.17-.54.72-.93.6,0-.33.04-.59.16-.9.27-.75,1.26-1.54,2.05-1.67.37-.06.66,0,.78,0Z"/><path class="cls-20" d="m7.45,13.99c.03.43-.04.87-.18,1.28-.28-2.36-3.2-.51-4.44.03-.14-.31-.19-.54-.18-.88.39.12.66-.43.93-.6.53-.34,2.02-.68,2.63-.55.65.13.83.56,1.25.72Z"/><path class="cls-46" d="m10.66,7.49v.04c-.11,0-.44-.28-.57-.39-.16-.13-.25-.42-.99-.64-.99-.29-2.09-.15-2.71.75-1.09.38-.99,1.72-.8,2.65-.05-.11-.08-.15-.12-.27-1.08-3.26,3.02-5.53,5.19-2.14Z"/><path class="cls-40" d="m5.59,9.9c.75,1.54,2.75,1.96,4.11.93.16.04.24-.15.38-.02-.08.07-.25.1-.28.14.13.45-.54.33-.27.57-.54.3-1.03.44-1.65.47.09-.24-.85-.19-1.45-.42-.47-.58-1.01-1.15-.97-1.94.04.13.07.17.12.27Z"/><path class="cls-42" d="m10.69,10.41c-.18-.06-.45.25-.62.4-.14-.13-.22.06-.38.02.82-.62,1.44-2.34.96-3.3v-.04c.67,1.03.7,1.86.05,2.92Z"/><path class="cls-40" d="m10.69,10.41c-.32.52-.63.81-1.17,1.11-.27-.24.4-.11.27-.57.03-.04.2-.07.28-.14.17-.15.44-.46.62-.4Z"/><path class="cls-46" d="m9.45,8.97c.43-.02-.06,1.43-.89,1.7-.65.22-2.04-.26-2.15-.61-.11-.34.37.18,1.07.04.43-.09.23-.42.37-.4.12.02-.1.37.29.26.54-.15,1.23-.99,1.31-1Z"/><path class="cls-34" d="m24.62,4.69c.16.17.47.74.55.98.02.36-.52,2.23-.91,2.21-.29-.02.12-.64.16-.78.2-.83.14-1.31-.28-2.03-.16-.27-.34-.58-.58-.78-.02-.16-.19-.25.02-.34.3.16.83.49,1.06.73Z"/><path class="cls-48" d="m23.57,3.95c-.2.09-.04.18-.02.34-.27-.22-.6-.39-.93-.46-.02-.15-1.07-.18-1.35-.11-.68.16-1.02.78-1.09.53.6-.69,1.37-.88,2.25-.79.39.15.77.29,1.14.49Z"/><path class="cls-36" d="m25.3,6.41c-.2,1.28-.23,1.7-1.2,2.54.29-.38-.64.32-1.27.37-1.11.09-2.13-.44-2.84-1.26l.19-.39c.13.19.25.2.26.21.91.78,2.46,1.05,3.12-.17.25.29.56-.66.87-.61-.03.13-.45.76-.16.78.4.02.94-1.85.91-2.21.1.29.09.45.12.74Z"/><path class="cls-34" d="m20.56,4.49c-.31.73-.57,1.23-.61,2.05-.02.33.03.86.22,1.14l-.19.39c-.09-.11-.2-.22-.28-.34-.1-.16-.3-.53-.34-.69,0,0,0,.02-.03-.09-.15-.85.27-1.94.79-2.61-.04.51.1.37.44.16Z"/><path class="cls-6" d="m22.62,3.83c-1.19-.24-1.74.45-2.06.66-.33.21-.48.35-.44-.16.02-.02.04-.05.06-.07.06.25.41-.37,1.09-.53.29-.07,1.34-.04,1.35.11Z"/><path class="cls-47" d="m23.81,6.45c.07.36-.09.93-.26,1.26-.65,1.23-2.2.96-3.12.17.08-.12.09-.03.13-.02,1.24.24,2.38-.06,3.08-1.17.08-.12.05-.3.17-.25Z"/><path class="cls-17" d="m24.41,7.1c-.31-.05-.62.9-.87.61.18-.33.33-.9.26-1.26-.11-.63-2.5.4-2.95.9-.15.16-.17.36-.3.52-.04,0-.05-.1-.13.02-.01-.01-.12-.03-.26-.21-.2-.27-.24-.81-.22-1.14.19,0,.37-.44.58-.64.55-.53,1.58-.97,2.34-.96.62,0,1.1.24,1.27.14.42.72.48,1.2.28,2.03Z"/><path class="cls-16" d="m22.62,3.83c.34.07.67.24.93.46.25.2.42.5.58.78-.17.11-.64-.13-1.27-.14-.76,0-1.79.44-2.34.96-.21.2-.38.64-.58.64.04-.82.3-1.32.61-2.05.32-.2.87-.89,2.06-.66Z"/><path class="cls-36" d="m23.81,6.45c-.11-.06-.09.12-.17.25-.7,1.11-1.84,1.41-3.08,1.17.14-.16.16-.36.3-.52.45-.5,2.83-1.53,2.95-.9Z"/><path class="cls-28" d="m29.53,9.52c1.31,3.28,1.62,7.19.89,10.64-.15.15-.12.39-.36.83-.05.1.01.46-.72.47,0-.03-.05-.58-.06-.64-.08-.44-.49-1.22-.81-1.54-.41-.39-1.04-.67-1.58-.78-1.17-.24-2.21.08-2.82,1.16-.46.8-.68,1.78-.38,2.68.03.47.37.94.66,1.3.99,1.22,2.56,2.15,3.91.85.03.12-.37.79-.51.99-.86,1.27-2.37,2.8-3.74,3.51-.71.37-2.48,1-3.22.75,1.03-.58,1.48-1.73,1.43-2.88-.05-1.09-1.12-2.61-1.66-2.7-.09-.01-.15.06-.16.06-1.16-.42-2.21-.66-3.14.34l.31-1.8c1.55-.08,2.64-.56,3.61-1.8,1.34-1.71,1.97-4.23,1.53-6.37-.1-.51-.22-.62-.38-.97-.82-1.79-1.67-2.91-3.62-3.46.07-.53.43-2.99.51-3.19.01-.03.06-.01.09,0,.02.1.03.08.03.09-.01,2.46,2.76,4.01,4.81,2.47,1.04-.79,1.26-1.84,1.13-3.08-.03-.29-.03-.45-.12-.74-.08-.24-.39-.81-.55-.98,0-.03,0-.08.03-.08.07,0,1.12.67,1.26.77,1.95,1.39,3.2,3.86,3.43,4.06,0,0,.11.04.18.07Z"/><path class="cls-35" d="m24.44,14.21s.13.18.14.19c0,.02.02.07.03.09.05.11.19.55.23.61.33.49,1,.81,1.43,1.12.32.11.84-.09,1.23,0,1.09-.43,2.12-1.21,2.35-2.42.03-.15.03-.41.06-.58.02-.03,0-.13.06-.12.03.37.09.85.04,1.21-.42,3.05-5.26,3.61-5.56-.1Z"/><path class="cls-44" d="m24.61,14.49c1.34,2.28,4.46,1.73,5.23-.69-.23,1.21-1.26,1.99-2.35,2.42-.39-.09-.91.11-1.23,0-.43-.3-1.11-.63-1.43-1.12-.04-.06-.18-.5-.23-.61Z"/><path class="cls-34" d="m29.96,13.1c-.07-.01-.04.08-.06.12-.07.12-.2.1-.3.26-.07.12-.22.68-.51.97-.12.12-1.02.73-.75.19.08-.16,1.06-.99.68-2.69-.27-1.21-1.27-1.96-2.51-1.73-.24.05-.67.33-.6.15.26-.17.71-.32,1.01-.33.44-.02,1.63.29.55-.12,1.7.29,2.35,1.6,2.49,3.18Z"/><path class="cls-34" d="m25.01,11.43c-.33.71-.48,1.86-.16,2.59-.3.03-.14.26-.28.37,0-.02-.13-.18-.14-.19-.39-1.02-.33-1.77.1-2.77h.47Z"/><path class="cls-29" d="m26.15,9.98c-.08.04-.58.46-.48.55-.18.16-.56.67-.66.9h-.47c.17-.4.41-.78.74-1.07.19-.17.85-.6.87-.38Z"/><path class="cls-47" d="m27.47,9.92c1.09.4-.11.1-.55.12-.3.01-.75.17-1.01.33-.09.06-.16.1-.24.17-.1-.09.4-.51.48-.55.42-.22.88-.14,1.32-.07Z"/><path class="cls-36" d="m29.84,13.8c-.77,2.43-3.89,2.97-5.23.69,0-.02-.02-.07-.03-.09.14-.11-.02-.35.28-.37.09.2.48.69.72.72.69.28,2.04.67,2.59-.06l.18-.05c-.27.54.64-.07.75-.19.28-.29.44-.85.51-.97.1-.17.23-.14.3-.26-.03.17-.03.43-.06.58Z"/><path class="cls-1" d="m28.34,14.63l-.18.05c.28-.37.32-.82.28-1.26-.49.8-1.39,1.42-2.35,1.36-.35-.02-.55-.18-.52-.05-.24-.03-.63-.52-.72-.72-.32-.73-.18-1.89.16-2.59.11-.22.48-.74.66-.9.08-.07.15-.11.24-.17-.08.18.36-.1.6-.15,1.24-.23,2.24.52,2.51,1.73.38,1.7-.6,2.53-.68,2.69Z"/><path class="cls-47" d="m28.16,14.69c-.54.73-1.89.34-2.59.06-.03-.14.17.03.52.05.96.06,1.86-.57,2.35-1.36.03.44,0,.89-.28,1.26Z"/></g></svg>