<?xml version="1.0" encoding="UTF-8"?><svg id="Capa_2" xmlns="http://www.w3.org/2000/svg" xmlns:xlink="http://www.w3.org/1999/xlink" viewBox="0 0 33.87 33.02"><defs><style>.cls-1{fill:url(#Degradado_sin_nombre_181);}.cls-1,.cls-2,.cls-3,.cls-4,.cls-5,.cls-6,.cls-7,.cls-8,.cls-9,.cls-10,.cls-11,.cls-12,.cls-13,.cls-14,.cls-15,.cls-16,.cls-17,.cls-18,.cls-19,.cls-20,.cls-21,.cls-22,.cls-23,.cls-24,.cls-25,.cls-26,.cls-27,.cls-28,.cls-29,.cls-30,.cls-31,.cls-32,.cls-33,.cls-34,.cls-35,.cls-36,.cls-37,.cls-38,.cls-39,.cls-40,.cls-41,.cls-42,.cls-43,.cls-44,.cls-45,.cls-46,.cls-47{stroke-width:0px;}.cls-2{fill:url(#Degradado_sin_nombre_178);}.cls-3{fill:url(#Degradado_sin_nombre_179);}.cls-4{fill:url(#Degradado_sin_nombre_180);}.cls-5{fill:#f7d169;}.cls-6{fill:#600507;}.cls-7{fill:#605d5d;}.cls-8{fill:#5f4948;}.cls-9{fill:#513027;}.cls-10{fill:#31302f;}.cls-11{fill:#474340;}.cls-12{fill:#2a1c16;}.cls-13{fill:#703f0b;}.cls-14{fill:#a3a3a2;}.cls-15{fill:#379d7b;}.cls-16{fill:#1b2228;}.cls-17{fill:#3e2f23;}.cls-18{fill:#3e423f;}.cls-19{fill:#0e1213;}.cls-20{fill:#20231f;}.cls-21{fill:#1d7252;}.cls-22{fill:#c76e12;}.cls-23{fill:#c9c4c6;}.cls-24{fill:#d7d7d9;}.cls-25{fill:#b11414;}.cls-26{fill:#d62725;}.cls-27{fill:#d78e1c;}.cls-28{fill:#d9e0db;}.cls-29{fill:#bf9b76;}.cls-30{fill:#a89077;}.cls-31{fill:#a7660c;}.cls-32{fill:#939392;}.cls-33{fill:#93765c;}.cls-34{fill:#b5b6b5;}.cls-35{fill:#ba750e;}.cls-36{fill:#b3e8d4;}.cls-37{fill:#8d8c82;}.cls-38{fill:#94570b;}.cls-39{fill:#fdfdfd;}.cls-40{fill:#fc8b72;}.cls-41{fill:#737d80;}.cls-42{fill:#72caa5;}.cls-43{fill:#825f45;}.cls-44{fill:#746051;}.cls-45{fill:#684e39;}.cls-46{fill:#ecaa39;}.cls-47{fill:#053c31;}</style><linearGradient id="Degradado_sin_nombre_181" x1="4.47" y1="15.93" x2="2.48" y2="15.93" gradientTransform="translate(-4.53 6.02) rotate(-17.65)" gradientUnits="userSpaceOnUse"><stop offset="0" stop-color="#c72d27"/><stop offset="1" stop-color="#590f12"/></linearGradient><linearGradient id="Degradado_sin_nombre_180" x1="10.35" y1="9.05" x2="12.1" y2="9.16" gradientTransform="translate(-4.53 6.02) rotate(-17.65)" gradientUnits="userSpaceOnUse"><stop offset="0" stop-color="#484e51"/><stop offset="1" stop-color="#171918"/></linearGradient><linearGradient id="Degradado_sin_nombre_179" x1="23.85" y1="4.03" x2="22.91" y2="4.52" gradientTransform="translate(-4.53 6.02) rotate(-17.65)" gradientUnits="userSpaceOnUse"><stop offset="0" stop-color="#927255"/><stop offset="1" stop-color="#7d5e44"/></linearGradient><linearGradient id="Degradado_sin_nombre_178" x1="15.84" y1="12.66" x2="19.89" y2="12.87" gradientTransform="translate(-4.53 6.02) rotate(-17.65)" gradientUnits="userSpaceOnUse"><stop offset="0" stop-color="#854d11"/><stop offset=".82" stop-color="#e5a02a"/></linearGradient></defs><g id="Capa_1-2"><path class="cls-39" d="m.04,15.56s.97.77.82,1.13-.23,1.21-.23,1.21l2.07,6.49s3.57.56,5.31-1.74l.24-.95c.33-1.32,1.74-2.07,3.02-1.6.53.2,1.08.47,1.52,1.41l3.1,9.24s.58,2.8,2.81,2.19,8.52-2.66,8.52-2.66c0,0,2.72-.35,3.23.93s2.62,2.56,3.31.39c.62-1.94-1.3-19.01-1.73-22.77-.06-.54-.34-1.02-.78-1.34-.32-.23-.64-.39-.74-.16-.87,2.05-3.19,1.52-2.42-.83,0,0,.8-2.16.49-3.14s-2.5-2.34-3.45-1.47-.86,3.93-.83,4.33-2.06.22-2.23-.37C21.43,3.71,20.49.11,20,0s-4.35,1.07-3.64,2.49,2.9,4.48,1.73,4.95c-.7.28-6.96,2.25-6.96,2.25,0,0-1.1-3.37-2.14-3.4s-6.45,1.07-5.8,3.29,1.17,3.85-.26,4.35S-.3,14.64.04,15.56Z"/><path class="cls-44" d="m28.86,29.31c-.06.03-.09.07-.12.06-.21-.54-.38-1.09-.57-1.64.03,0,.08-.04.09,0,.13.21.48,1.2.6,1.58Z"/><path class="cls-23" d="m30.78,13.59c.02.59.15,1.35.15,1.55,0,.02-.1-.04-.1.3.14.28-.03.49-.03.66-.06.01-.14,1.3-.26.54-.02-.1.11-.93.12-1.15.02-.57-.09-1.69.12-1.9Z"/><path class="cls-18" d="m30.95,9.42c.33,1.76.49,3.54.72,5.32.01.08.14.06.16.19.08.61.08,1.25.16,1.86-.24.03-.49.01-.73-.01-.1-.01-.11-.06-.12-.06.23-.12.16-.51.35-.72-.75.12.04-.01-.21-.66-.07-.18-.21-.26-.35-.2,0-.2-.13-.96-.15-1.55,0-.02-.08-.09-.09-.43-.04-1.34.02-2.68-.07-4.02.13.1.3.1.33.28Z"/><path class="cls-37" d="m31.14,16.72s-.12.05-.29,0c0-.03-.05-.13-.05-.61,0-.17.17-.38.03-.66,0-.34.1-.28.1-.3.14-.06.28.02.35.2.25.65-.54.78.21.66-.19.21-.12.59-.35.72Z"/><path class="cls-20" d="m30.95,9.42c-.03-.19-.2-.19-.33-.28-.18-1.57.5-1.23.33.28Z"/><path class="cls-45" d="m30.85,16.71c.17.05.28,0,.29,0,0,0,.02.05.12.06.08.58,0,.75.01.8.06.33.22.53.23.56.2,1.27.16,2.61.38,3.87-.02,0-.15-.33-.13-.03,0,.06.16.17.3,1.09.15,1.02.25,2.33.35,3.38.11,1.23.38,3.91.08,4.82,0,0-.06.04-.09-.14-.27-3.44-.86-6.84-1.23-10.26-.09-.87-.38-3.48-.4-3.99,0-.15.1-.14.1-.15Z"/><path class="cls-33" d="m31.99,16.79c.21,1.77.48,3.53.48,5.32-.19-.11.03.65.03.69,0,.06-.09.27-.08.34-.31-.63-.15-.05-.36-.08-.14-.92-.3-1.03-.3-1.09-.02-.3.12.04.13.03-.23-1.26-.18-2.6-.38-3.87,0-.03-.17-.23-.23-.56,0-.04.07-.22-.01-.8.24.02.49.04.73.01Z"/><path class="cls-43" d="m32.47,22.11c0,1.24.67,8.49.61,8.93-.05.37-.52.28-.61.22.3-.91.03-3.59-.08-4.82.44.22-.26-.64.27-.35-.22-.93.04-1.9-.34-2.75.02-.03.08-.19.08-.2,0-.07.08-.28.08-.34,0-.04-.22-.81-.03-.69Z"/><path class="cls-33" d="m32.41,23.14s-.06.16-.08.2c.38.85.12,1.82.34,2.75-.53-.29.17.57-.27.35-.09-1.05-.2-2.36-.35-3.38.21.02.05-.55.36.08Z"/><path class="cls-20" d="m26.6,12.79c-.17-.04-.35-.1-.52-.12.04-1.7.17-3.4.62-5.04h.04c-.05.68-.12,4.08-.14,5.17Z"/><path class="cls-44" d="m26.65,15.39c-.01.65-.04,1.3-.06,1.96-.03,0-.07-.01-.1-.02-.23-.04-.48-.1-.71-.11-.21-1.94-.61-1.85.87-1.83Z"/><path class="cls-17" d="m25.8,14.98c.29.03.57.06.86.11.02.09,0,.2,0,.29-1.48-.02-1.08-.11-.87,1.83-.08,0-.18.02-.23.03,0,0,0-.07-.19.01-.01-.15-.05-.25-.05-.32-.05-.67-.09-1.33-.1-2,.2,0,.4.03.6.05Z"/><path class="cls-33" d="m25.98,12.65s.07.01.1.02c.17.03.35.08.52.12,0,.06.08.18.08.24-.01.69,0,1.38-.02,2.07-.29-.05-.57-.08-.86-.11.3-.73,0-1.53.05-2.29,0-.02-.01-.03-.01-.04.06.03.11,0,.15,0Z"/><path class="cls-45" d="m25.84,12.69c-.05.76.26,1.56-.05,2.29-.2-.02-.4-.04-.6-.05-.01-.81.07-1.6.11-2.41l.54.17Z"/><path class="cls-9" d="m25.76,2.84c.24-.02,1.66.1,1.81.37.32.55-.47,2.76-.65,3.45-.04.15-.14.16-.14.17-.37,0-.75-.06-1.11-.13-.14-.03-.35-.01-.39-.17,0-.61-.27-3.23.1-3.57.19-.17.31-.11.37-.12Z"/><path class="cls-32" d="m26.79,6.82c-.02.08-.02.57-.04.79h-.04c-.1-.07-.16.27-.3.45-.43.16-.61-.96-.73-1.37.36.07.74.12,1.11.13Z"/><path class="cls-34" d="m25.68,6.69c.11.41.3,1.53.73,1.37-.56.73-.81-.31-1.01-.74-.06-.13-.05-.28-.13-.25,0-.3.02-.48.02-.54.05.15.25.14.39.17Z"/><path class="cls-10" d="m25.39,7.31c.46,1.74.65,3.54.58,5.34-.04,0-.09.02-.15,0-.03-.17-.2-.73-.35-.81.02-.38-.19-3.68-.21-4.78.08-.03.07.12.13.25Z"/><path class="cls-32" d="m25.83,12.65s.01.03.01.04l-.54-.17c0-.09.08-.05.11-.11-.19-.34.06-.54.06-.58.15.08.32.64.35.81Z"/><path class="cls-20" d="m25.55,17.24c-.08.51.99.6.95.09.04,0,.07.02.1.02-.03,1.17-.1,2.35-.19,3.52l.08.1c-.2.13-.44.18-.67.17-.09,0-.21-.03-.28-.11.03-.16,0-.97-.03-1.15.08,0,.07-.29.07-.39-.03-.74-.16-1.49-.22-2.23.19-.09.18-.01.19-.01Z"/><path class="cls-19" d="m25.78,17.21c.23.01.48.08.71.11.04.51-1.03.42-.95-.09.06,0,.15-.03.23-.03Z"/><path class="cls-24" d="m26.4,8.06c.14-.18.2-.52.3-.43-.46,1.64-.59,3.34-.62,5.04-.03,0-.1-.02-.1-.02.06-1.8-.12-3.59-.58-5.34.2.44.46,1.48,1.01.74Z"/><path class="cls-1" d="m3.63,16.71c.19.06.51-.22.38.14.66,1.97,1.37,3.97,1.96,5.94l-.45.19c-.16.06-.32.1-.48.15-.12.04-.28.14-.6.24-.31.09-.77.23-1.07.29-.02,0-.03.01-.04.01-.43-1.19-1.72-5.62-2.02-6.19.06-.06.13-.1.19-.16l2.13-.63Z"/><path class="cls-25" d="m5.21,16.2c.08.11.13.43.2.62.63,1.86,1.17,3.75,1.78,5.61-.54.23-1.11.36-1.66.55l.45-.19c-.59-1.97-1.3-3.97-1.96-5.94.13-.36-.19-.09-.38-.14l1.58-.5Z"/><path class="cls-8" d="m1.21,17.47s.07-.04.1.02c.3.56,1.58,5,2.02,6.19-.1.02-.18.1-.28.02-.09-.86-1.9-5.71-1.92-6.03-.01-.22.08-.19.08-.2Z"/><path class="cls-7" d="m4.44,23.37c.25.31.18.43.2.47-.3-.05-.69.04-.96.02-.18-.01-.43.02-.3-.19.3-.06.76-.2,1.07-.29Z"/><path class="cls-28" d="m4.46,15.67c.04.21.17.2.29.46.22.14.52-.1.46.07l-1.58.5-2.13.63c.06-.06.1-.25.13-.28.14-.15.69-.47.85-.75.13-.09.39-.2.47-.34.5-.15.99-.42,1.51-.29Z"/><path class="cls-7" d="m2.48,16.3c-.16.29-.71.6-.85.75-.03.03-.07.22-.13.28-.06.06-.13.09-.19.16-.03-.06-.06-.03-.1-.02.03-.19.13-.44.18-.64.27-.03.8-.33,1.09-.54Z"/><path class="cls-12" d="m1.54,16.06c.48-.14,1.09-.2,1.17-.42.07-.02,0,.09.2.03l-.07.09c.18-.05.17.05.11.18-.58.17-1.14.37-1.72.55-.03-.05-.1-.05-.13-.1-.03-.05-.07-.11-.1-.16,0-.01,0-.03-.01-.04.17.1.34-.06.54-.12Z"/><path class="cls-11" d="m2.95,15.95c-.08.15-.34.25-.47.34-.29.21-.82.51-1.09.54l-.02-.21s-.11-.09-.14-.13c.57-.17,1.14-.38,1.72-.55Z"/><path class="cls-18" d="m4.16,15.33c.14-.05.26-.11.28-.04.16.36.02.36.02.38-.52-.13-1.01.14-1.51.29.07-.13.07-.23-.11-.18l.07-.09s.06-.02.09-.03c.19-.06.38-.12.57-.18.55-.17.38-.17.4-.18.03-.01-.01.1.18.04Z"/><path class="cls-26" d="m4.03,14.3c.05.21.08.28.26.38-.25.26.36.41-.13.65-.19.06-.15-.05-.18-.04-.02,0,.14,0-.4.18-.22-.3-.23-.57-.34-.91l.79-.25Z"/><path class="cls-6" d="m1.48,15.11c-.06.54.4.76.06.95-.21.06-.37.23-.54.12-.08-.13-.13-.14-.2-.32-.06-.14-.09-.3-.14-.44.11-.13.62-.24.82-.31Z"/><path class="cls-26" d="m2.8,14.69c.11.36.27.56.21.95-.03,0-.06.02-.09.03-.2.06-.14-.05-.2-.03-.16-.45-.2-.23-.36-.22l-.17-.53c.2-.07.41-.13.62-.2Z"/><path class="cls-40" d="m3.24,14.55c.1.34.12.61.34.91-.19.06-.38.12-.57.18.07-.4-.1-.59-.21-.95l.44-.14Z"/><path class="cls-25" d="m4.29,14.22c.02.06.68.57.15,1.07-.01-.07-.14,0-.28.04.5-.23-.12-.39.13-.65-.19-.1-.22-.16-.26-.38l.26-.08Z"/><path class="cls-25" d="m2.18,14.89l.17.53c-.17,0-.26.07-.27.06-.08-.09-.05-.39-.12-.52.07-.02.15-.05.22-.07Z"/><path class="cls-25" d="m1.96,14.96c.07.13.03.43.12.52,0,.01.1-.06.27-.06.16,0,.2-.23.36.22-.09.22-.7.29-1.17.42.34-.19-.12-.41-.06-.95.16-.06.32-.1.48-.15Z"/><path class="cls-25" d="m2.21,15.51c.18-.16.34.11.22.22-.14.13-.42-.04-.22-.22Z"/><path class="cls-4" d="m8.49,8.52c-.19.02.04.54.1.55.5.04.2-.58.17-.61-.05-.04-.18.05-.23.05.07-.16.33-.11.35-.11.07.13.32.94.36.98.1.11.36-.09.42-.04.16.12,1.24,3.71,1.25,3.91,0,.02-.24.39-.26.4-.01,0-.03,0-.04.01,0,0-.03-.14-.06-.12-.06.02-.53.36-1.1.59l-.84.1-1.29-4.21c.38-.12.84-.17,1.2-.33.16-.07.35-.08.23-.34-.12-.25-.18-.06-.3-.03-.42.11-.82.28-1.23.39-.02-.09-.06-.14-.03-.23.13-.03.91-.27.95-.3.12-.09.02-.64-.13-.49,0,0-.04-.08,0-.09.6-.21.46-.06.49-.06Z"/><path class="cls-19" d="m5.03,10.74c.07-.03.15-.04.22-.07.51-.2,1.44-.46,2.02-.64.01,0,.03,0,.04-.01l1.29,4.21.84-.1c-.67.27-1.87.67-2.56.77-.1.01-.23,0-.34,0-.06,0-.09,0-.15,0-.15,0-.3.02-.44-.03l-1.21-3.95s-.05-.04.28-.19Z"/><path class="cls-18" d="m10.61,13.66c0,.06-.14.28-.15.29-.09.1-.38.32-.5.4-.7.46-3.57,1.61-3.07.54.69-.1,1.89-.5,2.56-.77.57-.23,1.04-.57,1.1-.59.04-.01.06.13.06.12Z"/><path class="cls-32" d="m6.54,14.91c.05.23.3.3.09.43.41-.01.31.14-.26.08.19-.22-.01-.27.03-.52.05,0,.09,0,.15,0Z"/><path class="cls-10" d="m7.35,15.38c1.15-.15.18.26.01.12-.02-.01-.04-.09-.01-.12Z"/><path class="cls-21" d="m5.57,8.34c.13.69.48.46,1,.41.69-.07,1.99-.31,2.48-.74.01.08.06.27.05.3-.03.06-.15.07-.21.09-.02,0-.28-.05-.35.11-.01,0-.03.01-.04.01-.03,0,.11-.15-.49.06-.04.01.01.09,0,.09-.33.12-.69.19-1,.37-.32-.22-.57.09-.86.18-.27-.1-.86.13-1.18-.37-.06-.09-.03-.2-.05-.3.21-.08.44-.14.66-.21Z"/><path class="cls-47" d="m4.91,8.55c.02.1-.01.21.05.3.33.51.91.27,1.18.37-.31.1-.83.1-.94.4-.04-.09-.23.05-.41.08-.1.02-.18.1-.28.02l-.28-.88c.01-.13.45-.2.68-.29Z"/><path class="cls-36" d="m8.03,7.55c.46,1.05-.25.39-.82.7.18-.23-.08-.28-.15-.39.32-.1.64-.22.97-.31Z"/><path class="cls-15" d="m5.88,8.24c0,.42.45.37.78.31.03.14-.25.07-.08.2-.52.05-.87.28-1-.41.1-.03.21-.06.31-.1Z"/><path class="cls-42" d="m7.07,7.86c.07.11.33.16.15.39.57-.3,1.28.35.82-.7.26-.07.51-.17.78-.2.05.04.22.56.23.65-.49.43-1.79.67-2.48.74-.16-.13.12-.05.08-.2-.33.06-.77.11-.78-.31.39-.13.79-.26,1.19-.38Z"/><path class="cls-36" d="m7.03,7.97s.12.24.11.28c-.01.12-.16-.26-.11-.28Z"/><path class="cls-42" d="m6.89,8.6s.11-.04.12-.01c.02.05-.18.08-.12.01Z"/><path class="cls-18" d="m5.2,9.62c-.1.26.03.5.05.76,0,.01-.08.15,0,.29-.07.03-.15.04-.22.07,0-.18-.06-.33-.11-.5-.05-.18-.15-.36-.12-.54.18-.03.37-.17.41-.08Z"/><path class="cls-19" d="m7.14,9.48s.03-.01.04-.01c-.04.1,0,.15.03.23,0,.03.02.06.03.09l-.7.22-1,.27c-.51-1.41.99-.69,1.09-.69.14,0,.38-.08.52-.12Z"/><path class="cls-14" d="m8,8.68c.15-.15.25.4.13.49-.04.03-.81.27-.95.3-.01,0-.03.01-.04.01l-.14-.44c.31-.18.66-.25,1-.37Z"/><path class="cls-41" d="m8.45,9.31l.07.37c-.36.16-.82.21-1.2.33-.01,0-.03,0-.04.01,0-.08,0-.15-.03-.23,0-.03-.02-.06-.03-.09.41-.11.82-.29,1.23-.39Z"/><path class="cls-20" d="m8.49,8.52s.03-.02.04-.01c.05,0,.17-.09.23-.05.03.03.34.65-.17.61-.06,0-.29-.53-.1-.55Z"/><path class="cls-18" d="m8.51,9.68l-.07-.37c.11-.03.18-.22.3.03.12.26-.07.27-.23.34Z"/><path class="cls-16" d="m7.01,9.04l.14.44c-.14.03-.38.13-.52.12-.1,0-1.6-.73-1.09.69l1-.27c-.44.11-.85.34-1.29.36-.02-.26-.15-.5-.05-.76.11-.29.63-.3.94-.4.29-.09.55-.4.86-.18Z"/><path class="cls-20" d="m6.54,10.02l.7-.22c.02.08.02.15.03.23-.58.18-1.51.44-2.02.64-.07-.15,0-.28,0-.29.44-.02.85-.25,1.29-.36Z"/><path class="cls-43" d="m26.49,20.96c.79,2.72,1.82,5.38,2.71,8.07,0,.05-.11.05-.12.06-.26-.18-.23-.6-.33-.89,0,0-.13-.1-.13-.1-.31-.9-.49-1.85-.78-2.75-.06-.19-.13-.11-.16-.19-.01-.03.09-.04.07-.07-.25-.59-.17-.15-.2-.1-.14.19-.19-.53-.2-.56.09-.04-.06-1.04-.32-.84.15-.15-.13-.73-.36-.98-.14-.41-.03-.77-.57-.74-.08-.23-.24-.47-.28-.73.24.01.47-.03.67-.17Z"/><path class="cls-30" d="m27.35,24.42l-.11-.04c.01.1.11.03.11.04,0,.04.07.75.2.56.04-.05-.04-.48.2.1.01.03-.09.04-.07.07.03.08.1,0,.16.19.29.9.47,1.86.78,2.75,0,0,.13.1.13.1.1.29.07.71.33.89-.05.08-.14.18-.22.22-.11-.37-.47-1.37-.6-1.58-.02-.03-.07,0-.09,0-.32-.9-.64-1.8-.96-2.7.14.01-.06-.48-.17-.99,0-.04.08-.04.07-.07-.1-.45-.29-.94-.44-1.39.23.24.51.82.36.98.25-.19.41.8.32.84Z"/><path class="cls-30" d="m26.67,22.6c.15.44.34.93.44,1.39,0,.04-.08.04-.07.07.11.51.31,1,.17.99-.37-1.06-.73-2.13-1.11-3.18.55-.03.43.33.57.74Z"/><path class="cls-43" d="m21.86,8.39c.1,1.05.85,2.38,1.23,3.41.17.45.28.91.43,1.36.01.03.09-.02.1.02.1.3.15.62.24.92.12.39.26.78.37,1.17.01.04-.11.12-.1.13.08.3.39.86.52,1.19.11.27.06.93.53.61l-.32-1.01.11.04c.1.29.16.66.33.72,0,.07.04.17.05.32.06.74.2,1.49.22,2.23,0,.1.01.39-.07.39-.13-.67-1.13-3.21-1.48-4.18-.86-2.38-1.75-4.74-2.73-7.07.08-.08.28-.09.22-.22.1.08.23.02.34,0Z"/><path class="cls-30" d="m24.15,13.76c-.2.13.22.33-.28.33-.09-.3-.14-.62-.24-.92-.01-.03-.09.02-.1-.02-.16-.45-.27-.92-.43-1.36-.38-1.03-1.13-2.36-1.23-3.41.12-.04.21-.03.15-.14,0,0,.03,0,.12.08.66,1.82,1.38,3.61,2.02,5.44Z"/><path class="cls-33" d="m24.15,13.76c.28.81.56,1.63.83,2.45l-.11-.04.32,1.01c-.47.33-.42-.34-.53-.61-.14-.33-.44-.89-.52-1.19,0-.01.12-.09.1-.13-.11-.39-.25-.78-.37-1.17.5,0,.08-.2.28-.33Z"/><path class="cls-43" d="m27.35,24.42s-.1.06-.11-.04l.11.04Z"/><path class="cls-3" d="m19.32,1.16c.12.1,1.24,2.58,1.36,2.91l-1.28.7c-.12.12-.55-.36-.77-.6-.22-.24-1.5-1.75-1.45-1.96.06-.07.2-.12.24-.15.14.29,1.38-.73,1.9-.89Z"/><path class="cls-29" d="m19.32,1.16c-.52.16-1.76,1.19-1.9.89.28-.2,1.73-1.03,1.9-.89Z"/><path class="cls-34" d="m21.52,8.4c.06.12-.15.14-.22.22-.72-1.02-1.21-2.32-1.99-3.36-.08-.12.08-.17.08-.2.15.34.5.43.71.72.29.38,1.3,2.53,1.42,2.62Z"/><path class="cls-18" d="m20.68,4.06s.04-.02.11.04l.07.37.09,1.18c.36.86.72,1.72,1.07,2.59.06.11-.03.11-.15.14-.1.03-.24.09-.34,0-.12-.09-1.13-2.25-1.42-2.62-.22-.29-.57-.38-.71-.72,0-.03-.02-.17,0-.29l1.28-.7Z"/><path class="cls-19" d="m20.38,5.18s.44-.15.47-.12c.2.95-.71.37-.47.12Z"/><path class="cls-20" d="m25.54,21.02l-.08,7.42s.35.05.42-.08.54-7.5.54-7.5l-.87.16Z"/><path class="cls-27" d="m15.76,13.86c-.45,2.66,1.97,2.22,3.71,2.6.28-.27.99.06,1.27-.11.08-.05.39-.85.39-.97,0-.45-.39-1.43-.52-1.94.54.3,1.37.82,1.65,1.39.16.32,1.08,3.41,1.36,4.29.45,1.37,2.72,8.21,2.81,8.99-.73,1.2-2.78,1.55-4.25,2.03,0-.19-.24-.11-.31-.14-.51-.23-.99-1.99-1.65-2.36-.16-.84-1.28-1.77-1.6-2.74-1.12-1.44-1.76-3.35-2.56-5-1.15-2.06-2.56-3.18-1.73-5.58.47-.15.94-.3,1.41-.45Z"/><path class="cls-13" d="m18.7,31.19c.41-.06.8-.22,1.2-.33.16-.05.32-.11.48-.15.6-.18,1.2-.38,1.8-.57,1.47-.47,3.51-.83,4.25-2.03.05.47-.12,1.14-.44,1.5-.06.07-.23.24-.3.29-.09.06-.27.16-.37.21-.01,0-.03,0-.04.01-.12.06-.35.14-.49.2-.03.01.02.09-.02.1-.03.01-.04-.09-.07-.07-1.89.75-4.08,1.35-6.07,1.79-1.06-.2-1.55-.69-1.79-1.75.12.01.1.33.22.46.06.06,1.02.43,1.64.35Z"/><path class="cls-13" d="m14.92,9.58c-.08.01-.18.06-.26.08-.16.03-.29.04-.45.1-.67.22-.83.15-.18,1.17l-.68.22c.18-.26.36.12.23-.51-.02-.07-.05-.15-.07-.22-.05-.21-.11-.37-.14-.59l1.62-.47-.05.21Z"/><path class="cls-46" d="m19.07,12.86c.46-.01,1.14.36,1.54.58.14.52.53,1.49.52,1.94,0,.12-.32.93-.39.97-.28.17-.99-.16-1.27.11-1.74-.38-4.15.06-3.71-2.6.87-.28,1.72-.63,2.6-.88.26.04.67-.13.71-.13Z"/><path class="cls-2" d="m15.02,12.31c1.18-.36,2.34-.76,3.52-1.12.18.56.39,1.1.53,1.67-.04,0-.44.17-.71.13-.88.24-1.73.6-2.6.88-.47.15-.94.3-1.41.45l-.06-.03c-.17-.56-.36-1.11-.53-1.67.43-.02.84-.18,1.26-.3Z"/><path class="cls-46" d="m18.31,10.34c.08.22.1.46.17.67-.34.03-2.4.84-2.53.8-.04,0-.43-.51-.36-.61.91-.29,1.82-.58,2.73-.87Z"/><path class="cls-46" d="m15.7,9.72s.06.07.09.07c.15-.02.57-.22.7-.32-.01,1.3.53.22,1.66.34.03.05.05.2.1.31-.85.27-1.7.54-2.55.81l-.2-.47c.15-.05.25-.03.31-.08.03-.19-.44-.45-.39-.77.2.08.06.08.28.11Z"/><path class="cls-22" d="m14.8,11.46c.26-.08.53-.17.79-.25-.06.1.33.6.36.61.13.03,2.19-.77,2.53-.8.02.06.04.12.06.18-1.18.36-2.34.76-3.52,1.12-.2-.49-.57.57-.8-.69.02-.06.48-.13.58-.16Z"/><path class="cls-27" d="m18.15,9.81c-1.13-.12-1.67.96-1.66-.34.16-.13.25-.22.15-.44.25-.14.23.03.32-.37-.05-.15-.33.14-.36-.06.22-.07.44-.18.55-.1.08.17.34,1.19.39,1.23.04.03.43-.17.6.07Z"/><path class="cls-27" d="m15.69,10.93c.85-.27,1.7-.54,2.55-.81.03.07.04.15.07.22-.91.29-1.82.58-2.73.87-.26.08-.53.17-.79.25l-.06-.18c.09-.03.18-.06.26-.08.24-.08.46-.19.69-.27Z"/><path class="cls-35" d="m14.35,14.31c-.83,2.4.58,3.52,1.73,5.58.79,1.65,1.44,3.56,2.56,5,.32.96,1.43,1.9,1.6,2.74.66.36,1.13,2.13,1.65,2.36.07.03.3-.05.31.14-.6.19-1.2.4-1.8.57-.75-.61-.7-1.35-1.28-2.04-.54-1.54-1.41-2.94-2.08-4.42-.73-1.59-1.33-3.27-2.03-4.87-.39-.88-1.13-1.94-1.3-2.88-.07-.4.12-1.02-.06-1.26.06-.1.14-.31.21-.41.11-.16.33-.37.46-.53l.06.03Z"/><path class="cls-13" d="m18.7,31.19c-.61.08-1.58-.29-1.64-.35-.12-.13-.1-.45-.22-.46-.86-2.83-1.77-5.64-2.64-8.46-.32-1.04-1.02-3-1.19-3.74-.1-.43-.1-.67-.06-1.1.31.11.28.58.29.61.07.16.28.35.36.52,1.55,3.42,2.97,8.87,4.65,12.47.19.28.53.34.45.51Z"/><path class="cls-38" d="m19.9,30.85c-.4.11-.79.28-1.2.33.07-.17-.27-.23-.45-.51-1.68-3.6-3.1-9.05-4.65-12.47-.08-.17-.28-.36-.36-.52-.02-.03.02-.5-.29-.61.05-.51.17-.82.37-1.28.11,1.55.7,2.18,1.14,3.29,1.53,3.78,2.93,7.62,4.71,11.29.21.22.4.52.73.47Z"/><path class="cls-31" d="m20.38,30.7c-.16.05-.32.11-.48.15-.33.05-.52-.25-.73-.47-1.78-3.67-3.18-7.51-4.71-11.29-.45-1.11-1.04-1.74-1.14-3.29.09-.21.19-.38.3-.58.18.25-.01.87.06,1.26.18.94.92,2,1.3,2.88.7,1.61,1.31,3.28,2.03,4.87.68,1.48,1.54,2.88,2.08,4.42.58.69.53,1.43,1.28,2.04Z"/><path class="cls-27" d="m14.92,9.58c.09-.01.36-.1.43-.09.05.01.05.12.06.12-.05.32.42.58.39.77-.06.04-.16.02-.31.08-.1.04-.21.06-.31.1-.02-.05-.43-.47-.53-.9.09-.02.18-.07.26-.08Z"/><path class="cls-5" d="m16.49,9.47c-.12.1-.55.3-.7.32-.03,0-.09-.07-.09-.07-.33-.47.05-.19.94-.69.1.22,0,.31-.15.44Z"/><path class="cls-38" d="m14.21,9.76l.32,1.01c-.08.03-.42.11-.43.16-.03.08.2.35.2.49-.12.03-.69.24-.73.23-.1-.03-.07-.45-.24-.36,0-.07-.05-.07,0-.15l.68-.22c-.65-1.03-.49-.95.18-1.17Z"/><path class="cls-22" d="m14.66,9.66c.09.43.51.85.53.9-.22.07-.45.13-.66.21l-.32-1.01c.16-.05.3-.06.45-.1Z"/><path class="cls-13" d="m14.3,11.42c.15-.04.29-.09.44-.14l.06.18c-.1.03-.56.1-.58.16.23,1.26.6.2.8.69-.42.13-.83.29-1.26.3-.09-.31-.21-.61-.29-.92-.03-.13-.11-.29-.13-.4.17-.09.14.33.24.36.04.01.61-.2.73-.23Z"/><path class="cls-27" d="m15.5,10.46l.2.47c-.23.07-.45.19-.69.27.01-.25.49.02.18-.64.1-.04.21-.06.31-.1Z"/><path class="cls-35" d="m14.53,10.77c.21-.08.44-.14.66-.21.31.66-.17.39-.18.64-.09.03-.18.06-.26.08-.15.05-.29.1-.44.14,0-.14-.23-.41-.2-.49.02-.06.35-.13.43-.16Z"/></g></svg>