<?xml version="1.0" encoding="UTF-8"?><svg id="Capa_2" xmlns="http://www.w3.org/2000/svg" viewBox="0 0 45.45 31.81"><defs><style>.cls-1{fill:#5f3815;}.cls-1,.cls-2,.cls-3,.cls-4,.cls-5,.cls-6,.cls-7,.cls-8,.cls-9,.cls-10,.cls-11,.cls-12,.cls-13,.cls-14,.cls-15,.cls-16,.cls-17{stroke-width:0px;}.cls-2{fill:#75d3e8;}.cls-3{fill:#593e28;}.cls-4{fill:#08bc03;}.cls-5{fill:#d8240d;}.cls-6{fill:#740187;}.cls-7{fill:#fff;}.cls-8{fill:#fd1e25;}.cls-9{fill:#faf6f3;}.cls-10{fill:#fbafc5;}.cls-11{fill:#fefd02;}.cls-12{fill:#fd941d;}.cls-13{fill:#fd9233;}.cls-14{fill:#fefefe;}.cls-15{fill:#f76229;}.cls-16{fill:#011a95;}.cls-17{fill:#020202;}</style></defs><g id="Capa_1-2"><rect class="cls-7" x="2.06" y="4.28" width="41.34" height="23.24" transform="translate(-2.95 5.42) rotate(-12.78)"/><path class="cls-16" d="m42.36,15.32l.82,3.6c-9.19,2.08-18.38,4.17-27.57,6.25-.45.1-.91.2-1.36.3.21-.35.42-.7.64-1.05.28-.45.56-.91.85-1.35.23-.36.45-.72.69-1.08.22-.32.41-.66.62-.99.12.04.24,0,.36-.03,2.97-.67,5.95-1.35,8.92-2.02,5.3-1.2,10.6-2.4,15.9-3.6.05-.01.09-.02.14-.04Z"/><path class="cls-12" d="m39.91,4.49l.81,3.57c-6.58,1.49-13.17,2.99-19.75,4.48-1.85.42-3.69.84-5.54,1.26-.01,0-.03.01-.04.02,0,0,0,0,0,0-.01,0-.03-.02-.04-.03h0c-.02-.08-.06-.13-.16-.09h0s-.03-.02-.04-.03h0s-.03-.02-.04-.02h0c0-.12-.11-.12-.18-.16-.13-.07-.23-.21-.4-.2h0c-.02-.05-.05-.06-.1-.05h0c-.07-.16-.21-.25-.38-.24h0s-.02-.02-.04-.02h0s-.02-.02-.04-.02h0s-.02-.02-.04-.02h0c0-.07-.05-.1-.1-.13-.31-.19-.61-.39-.92-.58-.05-.03-.1-.06-.16-.04h0s-.04-.05-.07-.05h0c-.12-.19-.32-.27-.49-.39-.04-.03-.11-.07-.18-.04h0s0,0,0,0c-.04-.08-.09-.14-.19-.12h0s0,0,0,0c0-.07-.05-.1-.12-.07h0c0-.07-.05-.1-.12-.07h0s-.03-.02-.04-.03h0s-.03-.06-.08-.05h0s-.03-.02-.04-.03c-.01,0-.02-.01-.03-.02-.01,0-.03-.02-.04-.03h0c0-.1-.06-.13-.15-.1h0c-.04-.07-.05-.13.06-.16.08-.02.16-.06.24-.08,9.47-2.15,18.94-4.29,28.41-6.44Z"/><path class="cls-4" d="m42.36,15.32s-.09.03-.14.04c-5.3,1.2-10.6,2.4-15.9,3.6-2.97.67-5.95,1.35-8.92,2.02-.12.03-.24.07-.36.03.53-.84,1.06-1.69,1.58-2.53.39-.62.77-1.23,1.16-1.85.05-.01.11-.02.16-.03,7.14-1.62,14.28-3.24,21.41-4.86.06-.01.12-.03.18-.05l.82,3.63Z"/><path class="cls-11" d="m41.54,11.69c-.06.02-.12.04-.18.05-7.14,1.62-14.28,3.24-21.41,4.86-.05.01-.1.02-.16.03-.01-.04-.05-.06-.08-.08-.91-.54-1.79-1.13-2.69-1.69-.53-.33-1.06-.68-1.59-1.02,0-.02,0-.03,0-.05,1.85-.42,3.69-.84,5.54-1.26,6.58-1.49,13.17-2.99,19.75-4.48l.82,3.63Z"/><path class="cls-8" d="m7.64,8.95c10.5-2.38,21.01-4.76,31.51-7.15.12-.03.15,0,.18.11.18.83.37,1.66.56,2.49-9.57,2.17-19.13,4.34-28.7,6.51-.08.02-.16.01-.22.08-.01,0-.02.01-.04.02,0,0-.02,0-.02,0-.01-.07-.05-.08-.11-.06-.03-.01-.06-.03-.09-.04-.56-.35-1.13-.71-1.69-1.07-.46-.29-.92-.59-1.37-.88Z"/><path class="cls-6" d="m14.25,25.47c.45-.1.91-.2,1.36-.3,9.19-2.08,18.38-4.17,27.57-6.25l.58,2.57c-10.43,2.37-20.87,4.73-31.3,7.1-.06.01-.12.02-.17.03,0-.08.04-.14.08-.2.31-.49.62-.98.94-1.47.31-.49.63-.98.94-1.47Z"/><path class="cls-17" d="m14.25,25.47c-.31.49-.63.98-.94,1.47-.31.49-.63.98-.94,1.47-.04.06-.09.12-.08.2-.92.21-1.83.42-2.75.63.5-.81,1-1.62,1.5-2.42.36-.58.75-1.15,1.11-1.74.37-.6.75-1.2,1.13-1.8.86-1.36,1.71-2.72,2.57-4.08.36-.57.72-1.15,1.08-1.72.07-.11.13-.23-.02-.33-.01,0-.03-.02-.04-.03-.01,0-.02-.01-.03-.02-.01,0-.03-.02-.04-.02h0s-.03-.02-.04-.02h0s-.04-.03-.07-.02h0s-.02-.05-.05-.06c-.02-.01-.05-.03-.07-.04-.02,0-.03-.02-.05-.03-.13-.08-.25-.16-.38-.24-.01,0-.03-.02-.04-.02h0s-.03-.02-.04-.03c-.04-.02-.07-.05-.11-.07l-.05-.02h0s-.03-.02-.04-.02h0s-.03-.02-.04-.02h0s-.04-.03-.07-.02h0c-.02-.07-.07-.09-.12-.11-.11-.07-.23-.14-.34-.22-.04-.03-.07-.06-.12-.07h0c-.05-.05-.1-.1-.19-.09h0s-.02-.05-.05-.06c-.04-.02-.07-.05-.11-.07-.02,0-.03-.02-.05-.02h0s-.03-.02-.04-.03c-.81-.52-1.62-1.04-2.43-1.56-.63-.4-1.27-.79-1.9-1.18-.6-.38-1.19-.77-1.79-1.15-.89-.56-1.78-1.12-2.67-1.68-.34-.21-.69-.41-1.01-.65.9-.2,1.79-.41,2.69-.61.46.29.92.59,1.37.88.56.36,1.13.71,1.69,1.07.03.02.06.03.09.04.03.04.06.06.11.06,0,0,.01.01.02,0,.01,0,.03.02.04.03.07.06.15.11.24.14,0,0,0,0,0,0,.04.05.09.08.15.1,0,0,0,0,0,0,.01,0,.03.02.04.03.01,0,.02.01.03.02.01,0,.03.02.04.03,0,0,0,0,0,0,.02.03.05.04.08.05,0,0,0,0,0,0,.01,0,.03.02.04.03,0,0,0,0,0,0,.02.06.07.06.12.08,0,0,0,0,0,0,.02.05.06.08.12.07h0s0,0,0,0c.04.08.12.09.19.12h0s0,0,0,0c.21.16.43.3.67.43,0,0,0,0,0,0,.02.03.04.04.07.05,0,0,0,0,0,0,.39.26.78.51,1.19.75,0,0,0,0,0,0,.01,0,.02.02.04.02,0,0,0,0,0,0,.01,0,.02.02.04.02,0,0,0,0,0,0,.01,0,.02.02.04.02,0,0,0,0,0,0,.12.09.25.18.38.24,0,0,0,0,0,0,.03.03.06.05.1.05,0,0,0,0,0,0,.18.14.37.27.58.36,0,0,0,0,0,0,0,.02.02.03.04.03,0,0,0,0,0,0,0,.02.02.03.04.03,0,0,0,0,0,0,.04.05.09.08.16.09,0,0,0,0,0,0,0,.02.02.03.04.03,0,0,0,0,0,0,.01.01.03.02.04.03.53.34,1.06.68,1.59,1.02.9.56,1.78,1.15,2.69,1.69.03.02.07.04.08.08-.39.62-.77,1.23-1.16,1.85-.53.84-1.06,1.69-1.58,2.53-.21.33-.4.67-.62.99-.24.35-.46.72-.69,1.08-.29.45-.57.9-.85,1.35-.22.35-.42.7-.64,1.05Z"/><path class="cls-1" d="m15.3,16.12c.11.07.23.14.34.22.01.07.02.15.12.11,0,0,0,0,0,0,.02.02.04.03.07.02,0,0,0,0,0,0,.01,0,.03.02.04.03,0,0,0,0,0,0,.01,0,.03.02.04.03,0,0,0,0,0,0,.02,0,.03.02.05.02.04.02.07.05.11.07.01.01.03.02.04.03,0,0,0,0,0,0,.01,0,.03.02.04.02.13.08.25.16.38.24.02,0,.03.02.05.03.02.01.05.03.07.04,0,.03.01.05.05.06,0,0,0,0,0,0,.02.02.04.03.07.02,0,0,0,0,0,0,.01,0,.03.02.04.03,0,0,0,0,0,0,.01,0,.03.02.04.02.01,0,.02.01.03.02.01,0,.03.02.04.03.15.1.09.22.02.33-.36.57-.72,1.15-1.08,1.72-.86,1.36-1.71,2.72-2.57,4.08-.38.6-.76,1.2-1.13,1.8-.36.58-.74,1.16-1.11,1.74-.5.8-1,1.61-1.5,2.42-.9.21-1.81.41-2.71.62.01-.02.02-.05.03-.07.55-.87,1.09-1.74,1.64-2.61.85-1.34,1.69-2.68,2.54-4.03.6-.95,1.2-1.9,1.79-2.85.45-.72.91-1.44,1.36-2.16.15-.23.12-.32-.09-.46-1.38-.87-2.76-1.74-4.14-2.61-2.54-1.6-5.07-3.2-7.61-4.8-.04-.02-.11-.03-.1-.1l2.69-.61c.32.24.67.44,1.01.65.89.56,1.78,1.12,2.67,1.68.6.38,1.19.77,1.79,1.15.63.4,1.27.79,1.9,1.18.81.51,1.62,1.04,2.43,1.56.01.01.03.02.04.03,0,0,0,0,0,0,.02,0,.03.02.05.02.04.02.07.05.11.07,0,.03.01.05.05.06,0,0,0,0,0,0,.04.07.09.13.19.09,0,0,0,0,0,0,0,.08.05.1.12.07Z"/><path class="cls-2" d="m2.25,10.17c-.01.08.06.08.1.1,2.54,1.6,5.07,3.2,7.61,4.8,1.38.87,2.76,1.74,4.14,2.61.22.14.24.23.09.46-.45.72-.91,1.44-1.36,2.16-.6.95-1.2,1.9-1.79,2.85-.85,1.34-1.7,2.68-2.54,4.03-.55.87-1.09,1.74-1.64,2.61-.01.02-.02.05-.03.07-.18.04-.35.08-.53.13-.08.02-.11,0-.13-.08-.15-.68-.3-1.36-.46-2.04.06-.03.08-.08.11-.13.25-.39.5-.79.74-1.18.75-1.19,1.5-2.38,2.26-3.58.38-.61.77-1.21,1.16-1.82.51-.8,1.01-1.6,1.51-2.4.12-.19.11-.31-.08-.42-.63-.36-1.22-.78-1.84-1.16-.6-.37-1.19-.75-1.78-1.13-1.8-1.14-3.6-2.27-5.4-3.4-.04-.03-.09-.06-.14-.06-.17-.76-.35-1.52-.52-2.28l.53-.12Z"/><path class="cls-9" d="m5.02,24.97c-.73-3.22-1.46-6.44-2.19-9.67.01,0,.03,0,.04-.01.06.01.12.04.17.08,1.88,1.18,3.76,2.37,5.64,3.55.21.13.23.22.1.43-.22.38-.48.73-.7,1.11-.25.42-.54.83-.8,1.24-.27.43-.55.85-.8,1.28-.34.58-.71,1.14-1.07,1.71-.1.16-.17.33-.31.46-.01,0-.03-.02-.04-.03,0-.03-.01-.06-.02-.09.03-.03.02-.05-.01-.06Z"/><path class="cls-13" d="m11.2,11.17c-.09-.03-.17-.08-.24-.14.07-.03.16-.02.22-.08.05-.01.1-.03.16-.04,9.44-2.14,18.88-4.28,28.31-6.42.07-.02.14-.03.2-.04.01,0,.03.01.04.02v.03c-9.46,2.15-18.93,4.29-28.4,6.44-.08.02-.16.05-.24.08-.11.03-.1.09-.06.16Z"/><path class="cls-14" d="m5.05,25.13s.03.02.04.03c.2.9.41,1.8.61,2.7.15.68.31,1.36.46,2.04.02.08.05.11.13.08.18-.05.35-.08.53-.13.9-.21,1.81-.41,2.71-.62.92-.21,1.83-.42,2.75-.63.06-.01.12-.02.17-.03,10.43-2.37,20.87-4.73,31.3-7.1,0,.01.02.03,0,.04-.04,0-.08.02-.13.03-12.44,2.82-24.88,5.64-37.32,8.47-.12.03-.15,0-.18-.11-.36-1.59-.72-3.18-1.08-4.77Z"/><path class="cls-5" d="m39.86,4.44c-.07.01-.14.03-.2.04-9.44,2.14-18.88,4.28-28.31,6.42-.05.01-.1.03-.16.04-.07.01-.15.03-.22.04.06-.07.15-.06.22-.08,9.57-2.17,19.13-4.34,28.7-6.51v.03s-.01,0-.02.01Z"/><path class="cls-14" d="m2.87,15.29s-.03,0-.04.01c-.37-1.63-.74-3.25-1.1-4.88,0-.04-.06-.09,0-.13.17.76.35,1.52.52,2.28.09.43.19.85.29,1.28.11.48.22.96.34,1.45Z"/><path class="cls-14" d="m5.02,24.97s.04.03.01.06v-.06Z"/><path class="cls-15" d="m39.86,4.44s.02,0,.03-.01v.03s-.02-.01-.03-.02Z"/><path class="cls-13" d="m13.94,12.91c-.4-.24-.8-.49-1.19-.75.06-.02.11,0,.16.04.31.19.61.39.92.58.05.03.1.07.1.13Z"/><path class="cls-13" d="m12.67,12.11c-.23-.13-.45-.27-.67-.43.07-.03.13,0,.18.04.17.12.37.2.49.39Z"/><path class="cls-13" d="m15.12,13.64c-.21-.09-.4-.22-.58-.36.17-.01.27.13.4.2.07.04.18.04.18.16Z"/><path class="cls-13" d="m14.44,13.23c-.14-.06-.26-.15-.38-.24.17,0,.31.08.38.24Z"/><path class="cls-13" d="m12,11.68c-.07-.03-.16-.04-.19-.12.1-.02.15.04.19.12Z"/><path class="cls-13" d="m11.35,11.27c-.06-.02-.11-.05-.15-.1.09-.03.14,0,.15.1Z"/><path class="cls-13" d="m15.35,13.78c-.06-.01-.11-.05-.16-.09.1-.04.13.02.16.09Z"/><path class="cls-13" d="m11.81,11.56c-.06,0-.1-.02-.12-.07.07-.02.11,0,.12.07Z"/><path class="cls-13" d="m11.7,11.49s-.1-.01-.12-.08c.07-.02.11,0,.12.08Z"/><path class="cls-13" d="m14.54,13.28s-.08-.02-.1-.05c.05,0,.09,0,.1.05Z"/><path class="cls-13" d="m12.75,12.16s-.06-.02-.07-.05c.04,0,.06,0,.07.05Z"/><path class="cls-13" d="m11.55,11.39s-.06-.02-.08-.05c.05-.02.07,0,.08.05Z"/><path class="cls-13" d="m11.58,11.42s-.03-.02-.04-.03c.01,0,.03.02.04.03Z"/><path class="cls-13" d="m15.42,13.84s-.03-.02-.04-.03c.01,0,.03-.01.04-.02,0,.02,0,.03,0,.05Z"/><path class="cls-13" d="m13.97,12.94s-.02-.02-.04-.02c.01,0,.02.02.04.02Z"/><path class="cls-13" d="m15.39,13.81s-.03,0-.04-.03c.01,0,.03.02.04.03Z"/><path class="cls-13" d="m15.19,13.69s-.03,0-.04-.03c.01,0,.03.02.04.03Z"/><path class="cls-13" d="m15.16,13.66s-.03,0-.04-.03c.01,0,.03.02.04.03Z"/><path class="cls-13" d="m11.39,11.3s-.03-.02-.04-.03c.01,0,.03.02.04.03Z"/><path class="cls-13" d="m14.05,12.99s-.02-.02-.04-.02c.01,0,.02.02.04.02Z"/><path class="cls-13" d="m14.01,12.96s-.02-.02-.04-.02c.01,0,.02.02.04.02Z"/><path class="cls-13" d="m11.47,11.34s-.03-.02-.04-.03c.01,0,.03.02.04.03Z"/><path class="cls-15" d="m10.96,10.99c.07-.01.15-.03.22-.04-.06.07-.15.05-.22.08-.01,0-.03-.02-.04-.03.01,0,.02-.01.04-.02Z"/><path class="cls-5" d="m10.9,10.99s-.08-.02-.11-.06c.06-.02.1,0,.11.06Z"/><path class="cls-3" d="m15.18,16.05c-.1.04-.14-.02-.19-.09.08-.01.13.04.19.09Z"/><path class="cls-3" d="m15.76,16.44c-.11.04-.11-.04-.12-.11.05.02.11.04.12.11Z"/><path class="cls-3" d="m15.3,16.12c-.07.03-.11,0-.12-.07.05,0,.09.04.12.07Z"/><path class="cls-3" d="m16.75,17.04s-.05,0-.07-.02c.03-.01.05,0,.07.02Z"/><path class="cls-3" d="m16.68,17.03s-.04-.03-.05-.06c.03.01.05.03.05.06Z"/><path class="cls-3" d="m15.83,16.46s-.05,0-.07-.02c.03-.01.05,0,.07.02Z"/><path class="cls-3" d="m14.99,15.96s-.04-.03-.05-.06c.03.01.05.03.05.06Z"/><path class="cls-3" d="m14.84,15.83s-.03-.02-.05-.02c.02,0,.03.02.05.02Z"/><path class="cls-3" d="m14.79,15.81s-.03-.02-.04-.03c.01.01.03.02.04.03Z"/><path class="cls-3" d="m15.87,16.49s-.03-.02-.04-.03c.01,0,.03.02.04.03Z"/><path class="cls-3" d="m15.91,16.51s-.03-.02-.04-.03c.01,0,.03.02.04.03Z"/><path class="cls-3" d="m15.95,16.53s-.03-.02-.05-.02c.02,0,.03.02.05.02Z"/><path class="cls-3" d="m16.1,16.63s-.03-.02-.04-.03c.01,0,.03.02.04.03Z"/><path class="cls-3" d="m16.14,16.66s-.03-.02-.04-.02c.01,0,.03.02.04.02Z"/><path class="cls-3" d="m16.56,16.92s-.03-.02-.05-.03c.02,0,.03.02.05.03Z"/><path class="cls-3" d="m16.79,17.07s-.03-.02-.04-.03c.01,0,.03.02.04.03Z"/><path class="cls-3" d="m16.83,17.09s-.03-.02-.04-.02c.01,0,.03.02.04.02Z"/><path class="cls-3" d="m16.91,17.14s-.03-.02-.04-.03c.01,0,.03.02.04.03Z"/><path class="cls-10" d="m2.87,15.29c-.11-.48-.23-.96-.34-1.45-.1-.43-.19-.85-.29-1.28.06,0,.1.03.14.06,1.8,1.13,3.6,2.27,5.4,3.4.59.38,1.18.76,1.78,1.13.62.38,1.21.79,1.84,1.16.19.11.2.23.08.42-.51.8-1.01,1.6-1.51,2.4-.38.61-.77,1.21-1.16,1.82-.75,1.19-1.5,2.38-2.26,3.58-.25.39-.5.79-.74,1.18-.03.05-.06.1-.11.13-.2-.9-.41-1.8-.61-2.7.14-.13.22-.3.31-.46.35-.57.73-1.13,1.07-1.71.26-.43.53-.86.8-1.28.27-.42.55-.82.8-1.24.23-.37.48-.73.7-1.11.13-.22.11-.3-.1-.43-1.88-1.18-3.76-2.37-5.64-3.55-.05-.03-.11-.06-.17-.08Z"/></g></svg>