<?xml version="1.0" encoding="UTF-8"?><svg id="Capa_2" xmlns="http://www.w3.org/2000/svg" xmlns:xlink="http://www.w3.org/1999/xlink" viewBox="0 0 45.75 46.32"><defs><style>.cls-1{fill:url(#Degradado_sin_nombre_143);}.cls-1,.cls-2,.cls-3,.cls-4,.cls-5,.cls-6,.cls-7,.cls-8,.cls-9,.cls-10,.cls-11,.cls-12,.cls-13,.cls-14,.cls-15,.cls-16,.cls-17,.cls-18,.cls-19,.cls-20,.cls-21,.cls-22,.cls-23,.cls-24,.cls-25,.cls-26,.cls-27,.cls-28,.cls-29,.cls-30,.cls-31,.cls-32,.cls-33,.cls-34,.cls-35,.cls-36,.cls-37,.cls-38,.cls-39,.cls-40,.cls-41,.cls-42,.cls-43,.cls-44,.cls-45,.cls-46,.cls-47,.cls-48,.cls-49,.cls-50,.cls-51,.cls-52,.cls-53,.cls-54,.cls-55,.cls-56,.cls-57,.cls-58,.cls-59,.cls-60,.cls-61,.cls-62,.cls-63,.cls-64,.cls-65,.cls-66,.cls-67,.cls-68,.cls-69,.cls-70,.cls-71,.cls-72,.cls-73,.cls-74,.cls-75,.cls-76,.cls-77,.cls-78,.cls-79,.cls-80,.cls-81,.cls-82,.cls-83,.cls-84,.cls-85{stroke-width:0px;}.cls-2{fill:url(#Degradado_sin_nombre_144);}.cls-3{fill:url(#Degradado_sin_nombre_141);}.cls-4{fill:url(#Degradado_sin_nombre_142);}.cls-5{fill:url(#Degradado_sin_nombre_145);}.cls-6{fill:url(#Degradado_sin_nombre_146);}.cls-7{fill:url(#Degradado_sin_nombre_148);}.cls-8{fill:url(#Degradado_sin_nombre_149);}.cls-9{fill:#fb946e;}.cls-10{fill:#f8f8fd;}.cls-11{fill:#604f51;}.cls-12{fill:#605560;}.cls-13{fill:#755959;}.cls-14{fill:#5e4854;}.cls-15{fill:#79794c;}.cls-16{fill:#4d3d44;}.cls-17{fill:#4f222b;}.cls-18{fill:#2d1c31;}.cls-19{fill:#9c4050;}.cls-20{fill:#8a2b30;}.cls-21{fill:#54313d;}.cls-22{fill:#8a314b;}.cls-23{fill:#6f6e75;}.cls-24{fill:#958691;}.cls-25{fill:#9b96a9;}.cls-26{fill:#a37d79;}.cls-27{fill:#592122;}.cls-28{fill:#585861;}.cls-29{fill:#412433;}.cls-30{fill:#372e46;}.cls-31{fill:#0d0b16;}.cls-32{fill:#424047;}.cls-33{fill:#211c1f;}.cls-34{fill:#22202e;}.cls-35{fill:#25161f;}.cls-36{fill:#cfd3e7;}.cls-37{fill:#d2666b;}.cls-38{fill:#d28292;}.cls-39{fill:#c9c4d7;}.cls-40{fill:#c4c8bb;}.cls-41{fill:#b0a4b5;}.cls-42{fill:#ca464c;}.cls-43{fill:#d3a6ab;}.cls-44{fill:#d9dbe2;}.cls-45{fill:#c05d6b;}.cls-46{fill:#bec0c7;}.cls-47{fill:#a57b8f;}.cls-48{fill:#b2c2d6;}.cls-49{fill:#a64c4c;}.cls-50{fill:#a4a39c;}.cls-51{fill:#b1909c;}.cls-52{fill:#afb3a5;}.cls-53{fill:#c08f5c;}.cls-54{fill:#a9a866;}.cls-55{fill:#b1adc9;}.cls-56{fill:#ceb2bb;}.cls-57{fill:#cf705c;}.cls-58{fill:#86494c;}.cls-59{fill:#9e657a;}.cls-60{fill:#9da478;}.cls-61{fill:#9d9bbc;}.cls-62{fill:#9e5e64;}.cls-63{fill:#b55d50;}.cls-64{fill:#b4a7a6;}.cls-65{fill:#bb777e;}.cls-66{fill:#8e7086;}.cls-67{fill:#6c5f5f;}.cls-68{fill:#7d6775;}.cls-69{fill:#9d3837;}.cls-70{fill:#feb181;}.cls-71{fill:#80757a;}.cls-72{fill:#7f7688;}.cls-73{fill:#753b43;}.cls-74{fill:#68424c;}.cls-75{fill:#656434;}.cls-76{fill:#fff;}.cls-77{fill:#eb8364;}.cls-78{fill:#e5726d;}.cls-79{fill:#fcd3ae;}.cls-80{fill:#fcc6b3;}.cls-81{fill:#faeae2;}.cls-82{fill:#f08f89;}.cls-83{fill:#f1b0ac;}.cls-84{fill:#f6c4bd;}.cls-85{fill:#675878;}</style><linearGradient id="Degradado_sin_nombre_142" x1="39.83" y1="7.73" x2="30.32" y2="15.78" gradientTransform="translate(-5.47 7.71) rotate(-8.93)" gradientUnits="userSpaceOnUse"><stop offset="0" stop-color="#6f2242"/><stop offset=".23" stop-color="#371324"/><stop offset=".85" stop-color="#fda48c"/></linearGradient><linearGradient id="Degradado_sin_nombre_145" x1="27.44" y1="6.5" x2="29.3" y2="10.54" gradientTransform="translate(-5.47 7.71) rotate(-8.93)" gradientUnits="userSpaceOnUse"><stop offset="0" stop-color="#c08695"/><stop offset="1" stop-color="#e8b0ae"/></linearGradient><linearGradient id="Degradado_sin_nombre_148" x1="22.36" y1="11.47" x2="22.78" y2="13.14" gradientTransform="translate(-5.47 7.71) rotate(-8.93)" gradientUnits="userSpaceOnUse"><stop offset="0" stop-color="#c36b74"/><stop offset="1" stop-color="#e18786"/></linearGradient><linearGradient id="Degradado_sin_nombre_141" x1="28.09" y1="2.63" x2="37.02" y2="18.87" gradientTransform="translate(-5.47 7.71) rotate(-8.93)" gradientUnits="userSpaceOnUse"><stop offset="0" stop-color="#df8f9a"/><stop offset=".21" stop-color="#c95b6f"/><stop offset=".28" stop-color="#e5aaab"/><stop offset=".6" stop-color="#efafac"/><stop offset=".75" stop-color="#ecabad"/><stop offset=".82" stop-color="#eda9a9"/><stop offset="1" stop-color="#da808d"/></linearGradient><linearGradient id="Degradado_sin_nombre_143" x1="38.71" y1="30.37" x2="41.55" y2="30.95" gradientTransform="translate(-5.47 7.71) rotate(-8.93)" gradientUnits="userSpaceOnUse"><stop offset="0" stop-color="#fc8a72"/><stop offset="1" stop-color="#d8575b"/></linearGradient><linearGradient id="Degradado_sin_nombre_144" x1="41.55" y1="15.1" x2="40.27" y2="19.36" gradientTransform="translate(-5.47 7.71) rotate(-8.93)" gradientUnits="userSpaceOnUse"><stop offset="0" stop-color="#a56672"/><stop offset="1" stop-color="#f19e94"/></linearGradient><linearGradient id="Degradado_sin_nombre_146" x1="20.79" y1="13.57" x2="29.54" y2="21.98" gradientTransform="translate(-5.47 7.71) rotate(-8.93)" gradientUnits="userSpaceOnUse"><stop offset="0" stop-color="#ba616a"/><stop offset=".65" stop-color="#e9685c"/><stop offset=".77" stop-color="#e96a5b"/><stop offset="1" stop-color="#c84948"/></linearGradient><linearGradient id="Degradado_sin_nombre_149" x1="26.44" y1="19.01" x2="30.43" y2="22.89" gradientTransform="translate(-5.47 7.71) rotate(-8.93)" gradientUnits="userSpaceOnUse"><stop offset="0" stop-color="#dcaeb1"/><stop offset=".65" stop-color="#ffb083"/><stop offset="1" stop-color="#ce7060"/></linearGradient></defs><g id="Capa_1-2"><path class="cls-76" d="m2.24,23.75l-2.24-2.86,12.68-12.37s.02-1.7.49-1.68,2.49-.39,2.49-.39c0,0-1.02-1.07-.74-1.68s2.3-2.15,2.3-2.15c0,0,2.4,2.08,3.19,1.1s7.53-3.73,7.53-3.73l17.81,12.48-.83,3.15-3.61,1.04.02,2.54s4.04.5,2.15,2.3-2.23,1.39-2.23,1.39l.26,1.66s3.97,1.26,1.81,2.54-.99,7.51-.99,7.51l2.01,1.38.28,2.97-5.06.8.51,2.66s-16.61,4.12-19.29,3.88-9.41.16-10-.6,2.28-1.68,1.15-2.26-1.8-1.23-1.8-1.23l-.08-3.48s1.05-.54.99-.91-4.04-15.5-4.04-15.5l-4.78,1.41Z"/><path class="cls-60" d="m18.51,5.88c-.13.23.37.33.37-.17,0-.34-.47-1.57.09-.86-.28.13.31.95.43,1.28-.04.01-.26.13-.8.29-.12-.1-.26-.25-.39-.33-.03-.23-1.29-1.01-1.68-1.03-.29-.17-.44-.24-.78-.3l.3-.41c.56-.01,2.15,1.54,2.47,1.53Z"/><path class="cls-15" d="m11.86,12.33c-.14.2-.59.27-.82.35.05-.16.1-.3.12-.47.02-.11.17.04-.03-.22.02-.15.2,0,.33-.05.29.07-.06.06-.07.07-.43.48.06.41.47-.24.17-.03.07.48,0,.56Z"/><path class="cls-75" d="m18.96,4.85c.18.23.2.59.4.78.12.11.28.14.43.21-.2,0-.25.07-.24.26-.05.02-.11.01-.16.03-.12-.33-.71-1.15-.43-1.28Z"/><path class="cls-15" d="m18.2,6.1c-.37-.25-1.28-.8-1.68-1.03.39.02,1.65.8,1.68,1.03Z"/><path class="cls-54" d="m20.37,5.92c-.1.11-.22.07-.32.11,0-.16-.13-.13-.25-.19-.14-.07-.31-.1-.43-.21.42-.05.93-.26,1,.29Z"/><path class="cls-53" d="m41.93,11.89s-.27-.05-.45-.16c-.06-.04-.04-.15-.05-.16.11-.05.43-.17.51-.14.05.02-.08.31-.01.45Z"/><path class="cls-35" d="m15.71,37.53c.08.27.33.94.47,1.17.08.14.14.3.26.41.08.03.77-.04.92-.03,1.27.08,2.52.03,3.79.08,0,.01.14.08.06.22-.25.04-.49.08-.74.12-1.18.18-5.36.15-7.04.2-.14,0-.42-.1-.44-.1-.06-.14-.09-.29-.12-.43.31-.08.64-.03.95-.04.39-.01,1.24-.03,1.56-.13.39.2-.05-1.87.33-1.46Z"/><path class="cls-10" d="m16.9,7.48c-.21.12-.38.31-.58.43-.56.34-1.74.85-1.96.98-1.45-1.3-1.2-1.08.43-.29.63-.5,1.4-.76,2.11-1.12Z"/><path class="cls-71" d="m24.71,2.71c.56.64-.03.26-.2.31-.05.02-.5.77-.52.81l-.07-.1s.54-.8.54-.85c0-.08-.29-.44-.22-.5.09-.04.42.26.47.32Z"/><path class="cls-10" d="m27.03,1.67s-.03.07-.04.12c-.21.14-.42.32-.6.49-.1.09-.2.18-.3.27-.44-.16.65-.8.93-.88Z"/><path class="cls-33" d="m8.63,20.84c-.51.66-.44.24-.11-.32,0,.05.06.13.11.32Z"/><path class="cls-65" d="m30.06,3.78c-.1-.08-.24-.15-.27-.3.47-.34.35-.14.27.3Z"/><path class="cls-62" d="m37.94,9.47c-.16-.1-.3-.28-.45-.38.52-.23.51-.18.45.38Z"/><path class="cls-4" d="m42.97,14.2c.02.09-.17-.02-.35-.06-1.13-.27-1.01-.36-2.34-.2-.41.05-1.01-.06-.49.5-.36.12.04.33.34.37.18.62.71.27,1.21.15-.05,1.18-.29.31-.72.28-.27-.02-.87.31-1.1.34-.45.06-1.89-.3-2.5-.34-.35-.02-.82.08-.86.08-.01,0-.11-.11-.24-.08,0-.02,0-.04,0-.05,0-.09.07-.03-.03-.16-.15-.21-.03-.28-.85-.06.12.38.09,1.37.36,1.55.14.09.48.02.52.06.17.17.13,4.7.34,4.82.06.03.17-.12.35-.11,0,0,0,.08.12.04-.24.06-.51.17-.75.23,0,0-.06-.11-.1-.1-1.38.36-3.59,1.39-4.94,1.73-.17-1.99-.21-3.99-.26-5.99-.02-.63.35-1.72-.76-3.06-.5-.61-1.55-1.23-2.36-1.23-.22-.09.48-.67-.44-.44-.02-.66-1.16-4.08-1.33-5.26l-.23-.58c-.33.34-.61.75-.93,1.1-.14.16-.19.14-.2.14l-.18-.08c1.14-1.4,2.2-2.87,3.42-4.2,4.28,3.33,10.66,8.13,15.33,10.61Z"/><path class="cls-24" d="m35.84,39.44l-.02.57c-.44-.1-1.09-.17-1.55-.21.51-.17,1.05-.24,1.58-.36Z"/><path class="cls-26" d="m31.62,39.48c0,.18.1.24.1.27,0,.02-.25.09.1.29l-.07.1c-.28,0-.53.11-.79.18l.49-.81c.05,0,.12-.03.16-.03Z"/><path class="cls-13" d="m31.45,39.51l-.49.81s-.04,0-.05,0c-.05-.29.07-.58.09-.86.16-.06.31.03.46.04Z"/><path class="cls-35" d="m36.05,39.35l-.18.65s-.04.01-.05,0l.02-.57s-.07-.02.21-.09Z"/><path class="cls-19" d="m32.86,37.31s.06.1.1.1c1.37-.19,2.74-.5,4.11-.7.03,0-.08-.11.59-.21.02,0,.17.14.19.14.48-.07,3.51-.5,3.68-.58.02,0,.03-.11.06-.18.53-.01,1.07.04,1.6-.03l.15.06c.02.1.02.21.05.3.06.21.19,1.04.2,1.26,0,.14.1.28-.02.4-2.48.63-5.03.88-7.52,1.46-.28.07-.2.09-.21.09-.52.12-1.07.19-1.58.36-.84-.07-1.7,0-2.54-.05,0-.03-.1-.08-.1-.27.47.04.93.13,1.4.12.08-.06-.34-.79-.39-.9-.15-.3-.34-.59-.5-.88-.64.38-1.01.27-1.04,1.12h-.05s-.08-.04-.08-.12c.08-.88.82-1.39-.84-1.02.89-.28,1.82-.36,2.74-.49Z"/><path class="cls-19" d="m37.93,36.24s0,.11.04.11c.52-.04,1.09-.19,1.62-.25.16-.02.33-.06.49-.08.39-.04,1.1-.18,1.15-.18.01,0,0,.09.18.08.05,0,.11-.02.16-.03-.03.07-.04.17-.06.18-.17.07-3.2.51-3.68.58-.02,0-.17-.14-.19-.14-.67.1-.55.2-.59.21-1.37.21-2.75.51-4.11.7-.04,0-.09-.1-.1-.1l.24-.26s.04-.06.27-.1c.15-.02.29-.04.44-.07.04,0,.07-.01.11-.02.29-.05.59-.09.88-.14.17-.03.34-.11.49-.13.59-.1,1.24-.07,1.82-.23.02,0,.21.15.26-.32.02.6.38.2.57.19Z"/><path class="cls-21" d="m12.99,39.59s.3.1.44.1c1.67-.05,5.86-.03,7.04-.2l.45,2.52c-1.08.11-2.12.09-3.19.11-.86.01-2.96.1-3.11.09-.03,0-.18-.15-.25-.19l-2.73-.19-.34-2c.31-.11,1.37-.23,1.71-.24Z"/><path class="cls-19" d="m21.27,37.78c.01.09.17.35.17.37.07.37.04.76.23,1.12.06.04.66-.28.79-.32-.01.12.07.18.17.2.69.09,6.13-1.28,7.48-1.34,1.66-.37.92.14.84,1.02,0,.08.08.08.08.13-.02.18-.02.34-.03.51-.02.28-.14.57-.09.86-.44.11-3.72.76-3.91.73-.09-.01-.26-.3-.49-.26-.14.02-.42.34-.45.35-.65.2-4.2.77-5.13.86l-.45-2.52c.25-.04.49-.08.74-.12.08-.14-.06-.2-.06-.22-.05-.51-.24-1.02-.35-1.52.18,0,.45.15.47.15Z"/><path class="cls-19" d="m25.4,37.92c.03.08.02.19.04.27l.1.1c1.83-.29,3.65-.68,5.48-.97.01,0,.13.09.26.07.51-.08.37-.17.4-.17.46-.08.96-.09,1.41-.17l-.24.26c-.92.13-1.85.21-2.74.49-1.35.06-6.79,1.44-7.48,1.34-.1-.01-.18-.08-.17-.2.05-.01.07-.1.21-.09.09,0,.35,0,.39,0,.24-.05.57,0,.96-.15.38-.15.98-.73,1.37-.78Z"/><path class="cls-73" d="m32.62,38.7c.05.1.47.84.39.9-.47.01-.93-.07-1.4-.12-.05,0-.11.03-.16.03-.15-.01-.3-.1-.46-.04.01-.18.01-.33.03-.51h.05q.77-.13,1.54-.25Z"/><path class="cls-17" d="m32.62,38.7l-1.54.24c.03-.85.4-.74,1.04-1.12.17.29.35.58.5.88Z"/><path class="cls-48" d="m19.8,5.84c.12.06.24.02.25.19-.35.13-.47.07-.49.08,0-.2.04-.27.24-.26Z"/><path class="cls-34" d="m24.63,43.06c.08.01.5.25.33-.05.34-.01.68-.06,1.02,0-.08.63,1.45.93.25.69-.06.43.84.24,1.15.33-2.77.53-5.6.85-8.41.98-.67.03-1.35.02-2.02.04-.34,0-.68-.01-1.02,0-.04,0-.07.02-.11.02,0-.07-.07-.23-.02-.28.3-.3,4.29-.21,4.96,0,.27-.19.25.01.28.01.28,0,2.54-.24,2.66-.3-.06-.34-.83-.78-1.22-1.13.41-.04,1.83-.45,1.93-.44.03,0,.12.12.22.13Z"/><path class="cls-16" d="m29.16,42.12c-.61.28-1.59.39-1.93.81-.32-.16-1,0-.75.46.1.18,1.06.38,1.27.36.19-.01.86-.43,1.07-.56.05-.03.12.06.25-.04.16-.21.42-.67.55-.59-.36.62-.46.76-1.05,1.23-.4.07-.79.19-1.2.25-.31-.09-1.21.1-1.15-.33,1.2.23-.33-.07-.25-.69.02-.13.33-.38.44-.41.05-.01.64.05,1.03-.05.04-.01,0-.11.04-.12.13-.03.4,0,.96-.32.23-.08.47,0,.7,0Z"/><path class="cls-31" d="m30.19,41.85s0,.19-.02.23c0,.03-.14.2-.25.57.58.4.93.2.9.73-.75.13-1.5.28-2.25.41.59-.47.69-.62,1.05-1.23.1-.18.13-.3.21-.48.01-.03.12-.14.14-.19l.22-.03Z"/><path class="cls-16" d="m30.81,41.52c.29.46.5.15.62.75-.56-.52-.22.1-.26.89l.02.11s-.12,0-.1.07l-.16.03c-.04-.66-.29-.55-.32-.6-.17-.27-.3-.74-.45-.69.01-.04,0-.2.02-.23.03-.09.19-.38.26-.49.02.34.15.21.36.17Z"/><path class="cls-33" d="m31.91,42.42c.56-.12.47,0,.81.15l.12.38-1.74.39c-.02-.08.05-.06.1-.07.29-.1.58-.61.6-.83.15.07.1-.02.11-.02Z"/><path class="cls-11" d="m30.93,43.36s-.07.01-.11.02c.03-.53-.33-.34-.9-.73.1-.38.24-.54.25-.57.15-.05.28.42.45.69.03.04.28-.06.32.6Z"/><path class="cls-11" d="m29.97,41.88c-.02.05-.13.16-.14.19-.21-.05-.34.08-.55.09,0,0,.04-.04-.12-.04-.23,0-.47-.09-.7,0-.56.32-.83.29-.96.32-.04.01,0,.11-.04.12-.39.1-.98.04-1.03.05l-.03-.39c.56,0,3.37-1.08,3.55-1.07.36.02.09.54.03.73Z"/><path class="cls-71" d="m37.72,40.66s.04,0,.05,0c.2.56.86-.31.86,1.33-.86.07-.48-.07-.67-.51-.24-.56-.27-.27-.39-.36-.06-.04.09-.18-.07-.24-.04-.02-.77-.01-.93-.02-.52-.03-1.55.07-1.65-.13.85,0,1.84.11,2.63.09.18,0,.16-.14.18-.14Z"/><path class="cls-31" d="m34.26,39.8c.46.04,1.12.1,1.55.21.02,0,.04-.01.05,0,.37.09,1.34.58,1.85.67-.01,0,0,.14-.18.14-.79.02-1.79-.1-2.63-.09-.12,0-.14-.03-.17-.03-1.22,0-2.24-.06-3.46.21-.21.05-.42.06-.63.1-.24.27-.18.35-.2.37-.07.11-.23.4-.26.49l-.22.03c.06-.19.33-.7-.03-.73-.18-.01-2.99,1.07-3.55,1.07l.03.39c-.11.03-.43.28-.44.41-.34-.07-.68-.02-1.02,0-.18,0-.37.01-.33.05-.09-.01-.19-.13-.22-.13-.1,0-1.52.4-1.93.44.39.35,1.16.79,1.22,1.13-.12.06-2.37.3-2.66.3-.03,0-.02-.2-.28-.01-.67-.22-4.66-.3-4.96,0-.05.05.02.21.02.28-1.15.02-2.29-.06-3.44-.02-.41-.35.15-.13.18-.14,0,0,.14-.13.15-.14.67-.16,3.74-.41,4.06-.69.12-.12,0-.11,0-.22,0-.26-.12-.42,0-.7.28-.66,1.3-.22.97-1.03,1.08-.02,2.12,0,3.19-.11.93-.09,4.48-.66,5.13-.86.03,0,.31-.33.45-.35.23-.03.4.25.49.26.2.03,3.48-.61,3.91-.73.02,0,.04,0,.05,0,.26-.07.51-.17.79-.18l.07-.1c-.36-.2-.1-.27-.1-.29.84.06,1.7-.02,2.54.05Z"/><path class="cls-68" d="m25.11,42.36l1.2-.05c-.33.09-1.04.27-1.2.05Z"/><path class="cls-24" d="m24.96,43.01c.17.3-.25.06-.33.05-.04-.04.15-.05.33-.05Z"/><path class="cls-31" d="m31.8,42.44c-.02.22-.31.73-.6.83l-.02-.11c.29-.12.31-.61.26-.89-.13-.6-.33-.29-.62-.75.15-.03.77-.29.88-.11,0,.24.12.9.1,1.03Z"/><path class="cls-11" d="m37.96,41.47l-.11.19c-.29-.36-1.18-.35-1.28-.81.16,0,.89,0,.93.02.16.06,0,.2.07.24.12.09.16-.2.39.36Z"/><path class="cls-16" d="m31.28,40.89h.45c-1.09.27-.73.57.38.09.31.2,1.4,0,1.96-.08.02,0,.07-.12.09-.13.03,0,.47.17.58-.09.04,0,.06.03.17.03.11.2,1.13.1,1.65.13.11.47.99.45,1.28.81l.11-.19c.19.45-.19.58.67.51,0-1.64-.65-.77-.86-1.33.35-.02.73-.06.84.32.01.05,0,.8.11,1.05-1.96.34-3.92.6-5.88.92l-.12-.38c.78.34-.2-.5-.27-.46.02.37-.25-.08-.54.31,0,0,.04.09-.11.02.01-.13-.1-.79-.1-1.03-.12-.18-.74.08-.88.11-.21.04-.35.18-.36-.17.01-.02-.04-.1.2-.37.21-.04.43-.05.63-.1Z"/><path class="cls-11" d="m34.74,40.68c-.11.27-.54.09-.58.09-.02,0-.07.12-.09.13-.56.08-1.64.28-1.96.08-1.1.48-1.47.18-.38-.08h-.45c1.22-.28,2.25-.21,3.46-.22Z"/><path class="cls-67" d="m34.1,42.19c.52.24,1.12-.58.79.38-1.03.15-1.34.35-.79-.38Z"/><path class="cls-16" d="m32.72,42.57c-.35-.15-.25-.27-.81-.15.29-.39.56.06.54-.31.07-.03,1.05.8.27.46Z"/><path class="cls-34" d="m35.57,41.11l.7-.03c.02.07-.55.41-.7.03Z"/><path class="cls-13" d="m29.16,42.12c.16,0,.11.04.12.04-.16.27-.15.77-.47.97-.28.18-.62-.02-.65-.01-.18.04-.19.14-.2.14-1.34.17-1.27-.17-1.47.12-.25-.46.43-.61.75-.46.34-.42,1.32-.53,1.93-.81Z"/><path class="cls-11" d="m28.81,43.13v.05c-.2.13-.86.55-1.06.56-.21.01-1.17-.18-1.27-.36.2-.29.13.05,1.47-.12.02,0,.02-.11.2-.14.03,0,.37.19.65.01Z"/><path class="cls-16" d="m29.83,42.07c-.07.18-.1.31-.21.48-.14-.08-.39.38-.55.59-.13.1-.2,0-.25.04v-.05c.31-.2.3-.71.46-.97.21,0,.34-.13.55-.09Z"/><path class="cls-34" d="m31.44,42.27c.06.28.03.77-.26.89.04-.78-.3-1.41.26-.89Z"/><path class="cls-69" d="m32.98,30.59c.03.24,0,.36.05.33,0,1.09.27,1.66.29,1.84,0,.04-.11.03-.1.07.1.96.19,1.98.4,2.92,0,.04.1-.02.12.07.08.34.09.7.16,1.04-.04,0-.07.01-.11.02-.21-.32-.01-.36-.15-.57-.2.21-.62-.47-.67-.49-.05-.01-.91.08-1,.1-.88.18,1.45.6,1.37,1.02-.22.04-.25.09-.27.1-.45.08-.95.09-1.41.17-.02,0,.11.09-.4.17.02-.22-.23-.16-.26-.21-.06-.11-.13-1.37-.14-1.64.08,0,.12-.04.15-.11.32-.64,1.35-3.26,1.62-4.03.07-.2.09-.81.32-.81Z"/><path class="cls-78" d="m36.21,35.38c.4-.07.3-.1.32-.11.03,0,.29.05.55-.09.02.39,0,.79.02,1.18-.59.16-1.23.13-1.82.23l-.16-1.04c.28-.05.3-.1.32-.11.24-.04.52-.02.78-.07Z"/><path class="cls-20" d="m33.8,36.88c-.15.03-.29.04-.44.07.08-.43-2.25-.85-1.37-1.02.09-.02.95-.11,1-.1.04.01.47.7.67.49.13.21-.06.25.15.57Z"/><path class="cls-49" d="m34.51,35.65c.06-.02.05.03.06.05.11.18.02,1.12.22,1.04-.29.05-.59.09-.88.14-.07-.34-.08-.71-.16-1.04l.76-.18Z"/><path class="cls-27" d="m35,35.57s.07-.01.11-.02l.16,1.04c-.15.03-.32.1-.49.13-.2.09-.11-.86-.22-1.04.12-.11.28-.09.43-.12Z"/><path class="cls-5" d="m25.76,7.22c.17,1.18,1.31,4.6,1.33,5.26,0,.02,0,.04,0,.05-.07,0-.08,0-.1.07-.37,0-.52-.11-.4.34v.05c-1.02.39-1.78.97-2.09,2.08-.16,0-.08.09-.09.13-.21.66-.2,2.08.35,2.59l.7,3.38c-.09-.08-.24-.12-.32-.23-.02-.61-.73-2.67-.94-3.49-.35-2.39-1.13-4.68-1.99-6.93.71-.89,1.42-1.8,2.17-2.65,0,0,.06.02.2-.14.17.43.2-.3,1.16-.52Z"/><path class="cls-82" d="m30.65,17.21c.06,2,.09,3.99.26,5.99-.05.01-.11.01-.16.03-.57.14-1.57-.15-1.57.78,0,.49.29.94.74,1.12l-.07.1c-.52.05-1.04.21-1.57.25-.18-.76.07-2.16-.27-2.41l.09-.15c0-.22.13-1.62.18-1.69.07-.08.4.11.57.05.01,0,.03.05.24.08.63-1.05.27-.72-.48-1.61.05-.1.16-.27,0-.34.67-.23,1.68-1.54,1.73-2.24l.29.07Z"/><path class="cls-59" d="m25.76,7.22c-.96.22-.99.95-1.16.52.32-.36.59-.76.93-1.1l.23.58Z"/><path class="cls-29" d="m35.89,15.03c-.13,0-.1.07-.1.07-.1.15-.3.92-.38,1.19,0,.01-.15.02-.02.23-.27-.18-.24-1.17-.36-1.55.82-.22.7-.14.85.06Z"/><path class="cls-74" d="m35.91,15.2s0,.04,0,.05c.04.56.09.97-.51,1.04.07-.27.28-1.03.38-1.19l.13.09Z"/><path class="cls-51" d="m35.89,15.03c.1.13.02.07.03.16l-.13-.09s-.03-.07.1-.07Z"/><path class="cls-7" d="m19.67,17.98c-.44-.06-.87-.3-1.34-.27-.12-.42-.56-1.26-.63-1.51-.04-.15-.08-.31-.13-.46.33-.51,1.06-1.03,1.32-1.31.49,1.16.7,2.42,1.05,3.61-.04.03-.1-.05-.26-.07Z"/><path class="cls-3" d="m29.79,3.49c.03.14.17.21.27.3,1.11.89,2.23,1.68,3.38,2.51.16.11.34.2.5.32.04.03.08.06.13.09,0,0,.05.13.18.08.97.91,2.14,1.58,3.24,2.31.16.1.3.28.45.38.26.17,1.46,1.02,1.55,1.05,0,0,.04-.08.07-.07.01,0-.05.13.25.13.31.46.41.25.44.27.02.01-.04.02.38.28.48.29.76.41.8.44.02,0-.01.12.05.16.18.1.43.14.45.16.75.43,1.46.94,2.28,1.25-.07.24-.26,1.31-.29,1.37-.01.03-.1.18-.11.19-.26-.09-.48-.29-.53-.31-.1-.05-.2-.12-.31-.18-4.67-2.47-11.05-7.28-15.33-10.61-1.22,1.33-2.29,2.8-3.42,4.2-2.27,2.8-4.52,5.61-7.02,8.2-.53.47-1.09.91-1.61,1.38-.2-.46.48-.48.35-1.01-.01-.05.05-.07.04-.12.06,0,.25-.02.27-.07-.27-.61-.26-.82-1-.66.34-.48.74-.92,1.14-1.36,0,0,0-.02.05-.06.04-.04.04-.06.05-.06.01-.02.13-.02.35-.28.14-.16.08-.17.08-.18.28-.32.22-.3.23-.32.01-.02.12,0,.14-.02.19-.22.35-.47.54-.7.26-.32.55-.66.74-1.02.19-.1.37-.32.49-.5-1.07.06-.06-.05.22-.23.09-.06,1.1-1.48,1.38-1.79.04-.04.04-.06.05-.06,1.06-1.22,2.19-2.38,3.24-3.61.53-.63.99-1.36,1.52-1.99.21-.25.44-.54.67-.78.09-.1.2-.18.3-.27.7.51.48.03.6-.49.01-.05.04-.07.04-.12.67-.18.64.68.65-.19-.47.22-.27.05.11-.21.05,0-.06.63-.03.71.04.12,1.75,1.4,2.04,1.51Z"/><path class="cls-19" d="m24.4,7.88c-.76.85-1.46,1.76-2.17,2.65-.19.24-1.41,1.61-1.42,1.72,0,.2.11.35.14.51-.2.11-.12-.45-.26-.41-.13.04-1.54,1.81-1.79,2.08-.26.28-.99.79-1.32,1.31.05.15.09.31.13.46-.21-.51-1.48,1.19-1.73,1.57-.22.06-.53-.02-.62-.01-.02-.04-.09-.07-.13-.09.19,0,.13-.08.2-.14.05-.04.1-.09.15-.14.52-.48,1.08-.91,1.61-1.38,2.5-2.6,4.75-5.41,7.02-8.2l.18.08Z"/><path class="cls-19" d="m15.97,16.25s-.05.07-.04.12l-1.08.68c-.21-.14-.46-.27-.68-.4l.97-1c.07.2.6.62.83.6Z"/><path class="cls-19" d="m15.23,15.52c.74-.16.73.05,1,.66-.03.05-.21.07-.27.07-.23.01-.76-.41-.83-.6-.01-.03,0-.07-.02-.11.04,0,.07,0,.11-.02Z"/><path class="cls-45" d="m15.93,16.37c.13.53-.55.55-.35,1.01-.05.05-.1.09-.15.14-.19-.15-.38-.34-.58-.47l1.08-.68Z"/><path class="cls-73" d="m26.99,1.78c-.12.52.1.99-.6.49.18-.17.39-.35.6-.49Z"/><path class="cls-68" d="m42.97,14.2c.1.06.21.12.31.18-.64.21-1.28.43-1.94.59-.5.12-1.03.47-1.21-.15-.02-.05-.13-.1-.06-.22.31.09.46.04.76,0,.54-.08,1.41-.21,1.79-.45.17.04.36.15.35.06Z"/><path class="cls-64" d="m42.62,14.14c-.37.24-1.25.37-1.79.45-.31-.1-.91-.23-.55-.65,1.33-.16,1.21-.07,2.34.2Z"/><path class="cls-24" d="m40.28,13.95c-.36.41.24.54.55.65-.3.05-.45.1-.76,0-.07.11.05.16.06.22-.3-.04-.7-.25-.34-.37-.53-.56.07-.45.49-.5Z"/><path class="cls-22" d="m14.17,16.64c.22.13.47.26.68.4.2.14.39.32.58.47-.08.07-.01.15-.2.14-.46-.26-.88-.61-1.32-.89.04-.05.07-.09.09-.15.1.05.17.02.17.03Z"/><path class="cls-78" d="m21.48,37.69s-.2.09-.21.09c-.02,0-.29-.15-.47-.15,0-.04,0-.07-.02-.11-.31-1.45-.63-2.91-.97-4.36l.63-.32c.38,1.61.64,3.25,1.04,4.85Z"/><path class="cls-49" d="m24.75,35.6c.07.21.13.43.16.65l.06.05c.11.55.23,1.1.42,1.62-.39.05-.99.63-1.37.78-.39.16-.72.1-.96.15-.03-.51-.16-.35-.17-.37-.07-.18,0-.48-.13-.49-.04-.04-.57-.14-.7-.17.4-.89.15-1.94-.22-2.81-.21-.49-.73-.97-.8-1.48.65.63.65.48.52-.25.46.66,1.32,3.88,1.59,2.93.04-.13-.05-1.56.1-2.07.55.43.99,1.82,1.5,1.46Z"/><path class="cls-73" d="m26.41,36.07c.1,0,.2-.04.3-.05l.02.11c-.42.36-.7.02-.86.44-.23.63.56,1.69-.42,1.62-.02-.09-.01-.2-.04-.27-.19-.53-.31-1.08-.42-1.62.48-.05.95-.19,1.43-.22Z"/><path class="cls-73" d="m22.77,38c.12,0,.07.3.13.49l-.22.37c-.14,0-.16.08-.21.09-.13.04-.74.36-.79.32-.19-.35-.16-.75-.23-1.12.9-.77.52.39.6.41.24-.19.43-.54.73-.57Z"/><path class="cls-83" d="m21.48,37.69s.47.11.58.13c.13.03.66.13.7.17-.3.03-.49.38-.73.57-.08-.02.3-1.19-.6-.41,0-.02-.16-.28-.17-.37.01,0,.2-.09.21-.09Z"/><path class="cls-83" d="m23.07,38.85s-.3,0-.39,0l.22-.37s.14-.14.17.37Z"/><path class="cls-85" d="m21.26,6.57c-1.29.39-.6.6-.76.74-.03.03-.25-.35-.34-.34-.32.03.24.87-1.04.22.61.71,1.32.52.1.66.07.38-.71.28-1.39.44-1.04,1.92-1.71.18-2.54,1.41-.23-.07-.29.05-.46.13-.26.12-.83.36-1.07.34.06-.36.09-.73.23-1.08.29-.06.35-.19.36-.2.22-.13,1.4-.64,1.96-.98.2-.12.37-.31.58-.43.64.06.72,0,.9-.37.18-.11.36-.04.55-.09.61-.15.49-.27,1.25-.14-.12.4.99-.36,1.67-.32Z"/><path class="cls-85" d="m23.99,3.83c-.04.1-.25.75-.21.79l.6-.15-1.43.76c-.05.08.2.16.23.19-.58.31-2.47,1-2.8.66-.64.46-1.83.53-2.02.94-.19.05-.37-.03-.55.09.02-.04.14-.63.21-.65.03,0-.11.17.59-.04.54-.16.76-.28.8-.29.05-.02.11,0,.16-.03.02,0,.14.05.49-.08.1-.04.22,0,.32-.11l.37-.17c.55-.31,1.07-.69,1.62-.99.66-.35,1.47-.28,1.45-.96.04-.01.07-.05.1-.07l.07.1Z"/><path class="cls-10" d="m23.81,3.8c.01.68-.8.61-1.45.96-.55.29-1.07.68-1.62.99,0-.04-.07-.06-.07-.07.03-.35,2.64-1.78,3.14-1.87Z"/><path class="cls-85" d="m21.26,6.57c-.68-.04-1.78.72-1.67.32-.75-.13-.63-.01-1.25.14.19-.41,1.38-.47,2.02-.94.33.34,2.22-.35,2.8-.66.02.02.21.07.16.14l-1.34.77c.41.49-.26-.16-.43.12.6.87.05.15-.16.08-.03,0-.09.02-.14.02Z"/><path class="cls-30" d="m7.02,18.84c-.42.49.12.23.73,0,.14-.05.28-.12.42-.18.67.27,1.31.64,2.03.72.02.04-.61.27-.68.3-.3.12-.64.19-.94.32l-.12.1c.06.03.08.07.08.13-.71,0-3.63,1.53-3.84,1.56-.31.04-.18-.25-.27-.3-.1-.05-1.91.69-2.19.79-1.09-.96-.77-.88.64-2.35.19-.2.23-.08.24-.09-.1.15-.13.29-.17.36-.06.12-.55,1.06-.36,1.13.37-.25,1.21-.46,1.18-.92.06-.03.08-.09.16-.08.39-.14.59-.31.63-.32.03-.01.08,0,.11-.02.07-.03.13-.11.2-.14.04-.02.12.01.1-.07.88-.24,1.3-.44,2.05-.94Z"/><path class="cls-18" d="m14,16.62c-.02.06-.05.11-.09.15.45.28.87.63,1.32.89.04.02.11.05.13.09-.28.02-.68.07-.85.3,0,0-.02,0-.05.06-.6.17-.84.41-.89.42-.14.05-.53.1-.82.18-.04.01-.07-.06-.2-.02-.09.03-.2.22-.54.31-.04.01.17-.2-.7.05-.09.09-.05.14-.06.18l-.18-.06c.04.32.11.64.15.96-.5-.08-.26.18-.42.57-.08.19-.17.45-.3.61-.02.03-.06.2-.17.2-.22-.1-.16-.24-.19-.31-.25-.47-.43-1.04-.64-1.53.08-.03.7-.27.68-.3-.72-.09-1.36-.45-2.03-.72.34-.13.65-.31,1-.44.41-.15.83-.31,1.21-.53.21-.13.24-.03.27-.04.48-.15,1.03-.21,1.52-.35,1.59-.44,1.87-.33.89-.79l.66.09c.19-.9,0-.16.26.02Z"/><path class="cls-10" d="m3.78,20.42c.03.46-.81.66-1.18.92-.19-.06.3-1.01.36-1.13-.27.65.56.49.61.47.1-.05.06-.19.21-.26Z"/><path class="cls-66" d="m15.12,15.54s0,.08.02.11l-.97,1s-.08.02-.17-.03c.02-.07.52-.85.57-.88.31.16.32-.19.56-.2Z"/><path class="cls-10" d="m8.18,15.11c-.08.07-.32.06-.41.26l.04.08.72-.25-.31.89c1.54-.52.61.59-.43.66-.03,0-.54-.31-.05.06l1.07-.34.15.09c.62.35,2.36,1.47.45.55-.8.23-1.22-.63-1.06.22-.74-.45.67.68.82.89-.35.13-.66.3-1,.44-.14.06-.28.13-.42.18-.38-.74-.16-.29-.44-.1-.14.09-.28.09-.29.1-.75.5-1.17.7-2.05.94l1.13-1.76c2.12-.72.06-.44-.89-.31,0,0,.02-.06-.12-.04l.34-1.04.11-.02c.03.09.02.22.05.3.22.62.23.45.87.15.19-.03.38-.16.6-.12.17-.19-.11-1.53,0-1.55.04,0,.52.22.54.2.04-.04-.24-.84.57-.48Z"/><path class="cls-44" d="m4.83,17.78c-.3.19.02.45.02.48-.03.16-.18-.37-.25.57-.48.36-.4,1.03-.66,1.51-.08,0-.1.05-.16.08-.16.07-.12.21-.21.26-.05.03-.88.19-.61-.47.04-.08.07-.22.17-.36.43-.45.77-.94,1.16-1.42.02-.03.2,0,.22-.03.25-.27-.04-.43.33-.61Z"/><path class="cls-72" d="m10.27,14.78c.35.35.2.08.26.07.48-.04.51-.22.8-.13.04.2-.07.05-.1.07-.12.15-.19.12-.26.15-.11.05-.92.28-1.42.62-.21.14-.27.08-.27.44-.14.16-.17.39-.31.56l-.15-.09-1.07.34c-.49-.37.02-.06.05-.06,1.04-.07,1.97-1.18.43-.66l.31-.89-.72.25-.04-.08c.09-.2.33-.19.41-.26,0,0,.1-.02.16-.08.3.06.95.52,1.01.52.11,0,.76-.2.92-.76Z"/><path class="cls-32" d="m12.54,11.66c.64.71,1.19,1.13.09.38-.11.71.51.39-.44.94.08.09.19.08.3.09.04.05.09.11.14.15-.04-.01-.18,0-.23-.02-.53-.14-.08-.3-1.38.16.16-.18.14-.32.7-.39.18-.16.13-.41.22-.6.1-.22.21-.44.29-.67.1-.03.24-.02.33-.05Z"/><path class="cls-10" d="m14.85,9.83c0,.06.04.12.08.16-.35.11-.24.2-.25.21-.11.12-.45.24.09.21,0,.1.28.57-.5.25-.05-.02.03-.1-.29-.24-.08-.03-.16-.05-.24-.08,0-.06.02-.11.03-.17.25.02.81-.22,1.07-.34Z"/><path class="cls-23" d="m5.09,17.68c.14-.03.11.04.12.04.26.46-.53.32-.13.58-.11.04-.39.1-.42.21.11.5,0,.98,0,1.49-.03.01-.08,0-.11.02.06-.4,0-.79.04-1.19.07-.95.21-.41.25-.57,0-.03-.32-.29-.02-.48.07-.03.07-.06.27-.1Z"/><path class="cls-28" d="m6.46,17.07c-.64.31-.65.48-.87-.15.48.4.33.24.87.15Z"/><path class="cls-23" d="m13.6,10.88s-.55.16-.81.24c-.05-.16.08-.08.14-.19.22-.03.63-.29.67-.05Z"/><path class="cls-68" d="m16.42,14.09s-.04.06-.05.06l-.93.37c-.54-1.26-.28-.82.71-1.24l.27.8Z"/><path class="cls-66" d="m18.55,11.51c-.19.36-.49.7-.74,1.02-.03-.18-.57-.21-.61-.27-.22-.42,1.2-.68,1.35-.75Z"/><path class="cls-66" d="m16.22,12.83c.13.09.36.27.42.13.08.28-.02.56.18.79-.22.26-.34.26-.35.28-.11-.4-.22-.79-.36-1.18.05,0,.1-.02.11-.02Z"/><path class="cls-10" d="m25.43,3.33c-.53.63-.98,1.36-1.52,1.99-1.05,1.23-2.18,2.39-3.24,3.61l-1.62.79,1.58-.73c-.28.32-1.29,1.73-1.38,1.79-.27.18-1.28.29-.22.23-.12.18-.29.4-.49.5-.14.07-1.57.33-1.35.75.03.06.58.09.61.27-.19.23-.35.48-.54.7-.02.02-.12,0-.14.02-.36-.47.13-.01.12-.67-.33-.12-.44.44-.35.98,0,0,.05.02-.08.18-.2-.22-.1-.51-.18-.79-.05.14-.29-.04-.42-.13,0-.21-.33-.61-.15-.77,1.84-.5,1.16-.66-.22.03-.14.01-1.71-.82-1.54-.29.05.16.9.12.51.4-.01,0-.13.01-.29.16.03-.39-.74-.3-1.31-.81.26.49.46.68.67,1.19l-.1.07c-.39-.17-.13.02-.26-.02-.06-.02-.69-.63-.61.43-.1-.34-.28-.13-.45-.16-.11-.02-.21,0-.3-.09.96-.55.33-.24.44-.94,1.1.75.55.33-.09-.38.29-.1.36-.26.16-.42,0,0,0-.07-.02-.11.03-.01.08,0,.11-.02.26-.08.77-.22.81-.24.05-.02.13,0,.16-.05,0-.04-.03-.1-.02-.14h.42c-.09-.15-.3-.03-.18-.26.32.13.24.21.29.24.78.32.5-.14.5-.25-.01-.21.18-.39-.09-.21.01-.01-.1-.1.25-.21,0,.47-.02.7.39.84.06-.05-.15-.62-.39-.84-.04-.04-.08-.1-.08-.16.17-.08.23-.2.46-.13.83-1.23,1.5.51,2.54-1.41.69-.16,1.47-.07,1.39-.44,1.21-.14.5.05-.1-.66,1.27.65.71-.19,1.04-.22.09,0,.3.37.34.34.16-.13-.53-.35.76-.74.05,0,.11-.03.14-.02.21.07.75.79.16-.08.17-.28.84.37.43-.12l1.34-.77c.05-.07-.14-.13-.16-.14-.03-.02-.27-.11-.23-.19l1.43-.76-.6.15s.17-.69.21-.79c.02-.04.47-.8.52-.81.17-.06.77.33.2-.31.22-.14.29.17.53-.22l.19.84Z"/><path class="cls-25" d="m13.98,10.42c-.12.23.09.12.18.25h-.42s-.05.05,0-.33c.08.03.16.04.24.08Z"/><path class="cls-68" d="m17.13,13.25s.05,0-.23.32c-.09-.55.03-1.11.35-.98,0,.66-.48.2-.12.67Z"/><path class="cls-46" d="m20.67,8.92s-.01.02-.05.06l-1.58.73,1.62-.79Z"/><path class="cls-39" d="m16.22,12.83s-.06.01-.11.02c-.22-.66,0-.78-1.19-.43l-.09-.21c.38-.28-.46-.24-.51-.4-.17-.53,1.4.31,1.54.29,1.38-.69,2.06-.54.22-.03-.18.16.16.56.15.77Z"/><path class="cls-44" d="m14.93,9.99c.24.22.45.79.39.84-.41-.15-.39-.37-.39-.84Z"/><path class="cls-36" d="m15.16,9.84c.33.46.37.1.41.1.82,0-.56.82-.41-.1Z"/><path class="cls-36" d="m16.29,9.72c-.09.02-.19-.09-.44.07-.19-.38,1.41-.32.44-.07Z"/><path class="cls-46" d="m16.65,10.73c.84,1.19-1.46-.28.06.38l-.06-.38Z"/><path class="cls-44" d="m20.35,7.79c.49-.06-.47.31-.63.32-.46.03.51-.31.63-.32Z"/><path class="cls-61" d="m14.02,11.6c.45-.15.23.24.21.25-.09.03-.25-.15-.21-.25Z"/><path class="cls-25" d="m16.29,9.72c.25.12-.36.22-.44.07.25-.16.35-.05.44-.07Z"/><path class="cls-55" d="m14.77,10.41c-.54.03-.2-.09-.09-.21.27-.18.08,0,.09.21Z"/><path class="cls-55" d="m15.82,9.4c.14.03-.27.63-.16.22,0-.01.15-.23.16-.22Z"/><path class="cls-52" d="m6.1,18.03l-1.13,1.76c.02.08-.06.05-.1.07.21-.58.31-1.05.42-1.64.24-.08.57-.1.82-.18Z"/><path class="cls-40" d="m5.29,18.21c-.1.6-.21,1.06-.42,1.64-.07.03-.13.11-.2.14-.01-.51.11-.99,0-1.49.03-.11.31-.16.42-.21.05-.02.08-.05.21-.09Z"/><path class="cls-10" d="m4.6,18.83c-.03.4.02.79-.04,1.19-.03.01-.24.18-.63.32.26-.49.19-1.16.66-1.51Z"/><path class="cls-36" d="m7.75,18.84c-.61.23-1.15.49-.73,0,.02-.01.16,0,.29-.1.27-.19.06-.64.44.1Z"/><path class="cls-12" d="m6.1,18.03c-.25.08-.57.1-.82.18-.13.04-.17.07-.21.09-.4-.27.39-.13.13-.58.95-.13,3.01-.41.89.31Z"/><path class="cls-50" d="m12.39,13.21c-.41.29-.32.32-.34.34-.02.01-.08-.07-.19.03-.32.29-.25.42-.27.44-.12.08-1.56.44-.08.41-.06.09-.12.21-.18.31-.28-.1-.31.09-.8.13-.06,0,.08.28-.26-.07.02-.06.11-.42.1-.44-.03-.11-2.06-1.33.12-.16.07-.02.4-.68.52-.81,1.31-.46.85-.3,1.38-.16Z"/><path class="cls-10" d="m11.16,12.22c-.03.17-.08.31-.12.47.23-.09.68-.16.82-.35l.06.05c-.08.18-.04.44-.22.6-.56.07-.54.21-.7.39-.12.14-.45.79-.52.81-2.17-1.17-.15.05-.12.16,0,.02-.08.38-.1.44-.16.57-.81.76-.92.76-.06,0-.71-.46-1.01-.52.05-.06.24-.68.84-1.31.1-.1.27,0,.23-.32.17,0,.19.17.29.24.75.46.6.09.79-.35.18-.42.28-1.28.68-1.06Z"/><path class="cls-46" d="m10.49,13.28c-.19.44-.04.81-.79.35.27-.1.51-.46.79-.35Z"/><path class="cls-72" d="m9.57,14.44c.73-.22.51.27.26.24-.02,0-.23-.2-.26-.24Z"/><path class="cls-85" d="m12.19,17.29c-.5.14-1.05.21-1.52.35l1.15-1.48.37,1.12Z"/><path class="cls-28" d="m12.05,13.54c.83.57.66.16.11.88l-.27-.63c-.1.22-.24.43-.38.62-1.49.03-.04-.32.08-.41.02-.01-.05-.15.27-.44.11-.1.17-.02.19-.03Z"/><path class="cls-10" d="m16.11,12.85c.13.39.24.79.36,1.18,0,0,0,.02-.05.06l-.27-.8c-.99.42-1.25-.03-.71,1.24l.93-.37c-.39.44-.8.88-1.14,1.36-.04,0-.07.01-.11.02-.24,0-.25.36-.56.2-.04.03-.54.81-.57.88-.26-.18-.07-.92-.26-.02l-.66-.09c.98.46.7.35-.89.79l-.37-1.12-1.15,1.48s-.07-.08-.27.04c-.89-.24-1.05.28-1.11.29-.06,0-.79-.57-.92-.64-.16-.85.27,0,1.06-.22,1.91.92.17-.19-.45-.55.14-.16.17-.39.31-.56.21-.25.41-.42.48.04-.93,0,.14.04.18.42-.36-.28-.51.14.14.2.62.06.03-.24-.1-.46-.41-.71.15,0,.17.03.93.75-.01-.35.27-.63.68.34,1.07,1.11.52-.25-.09-.02-1.32.53-1.4.22.5-.34,1.31-.57,1.42-.62.42,1.47.48.77.54.76.1-.02.18.43.28.35l-.56-1.26s.14.12.1-.07c.05-.1.11-.22.18-.31.14-.19.28-.4.38-.62l.27.63c.55-.72.72-.31-.11-.88.02-.01-.07-.04.34-.34.05.01.18,0,.23.02.06.05.07.13.18.08.14.04.39.27.62.18.16-.29.46-.34.75-.4.28-.06.37.08.46.04.02-.78-.25-.57.28-.72,1.19-.35.97-.23,1.19.43Z"/><path class="cls-25" d="m8.36,17.33c.13.08.86.65.92.64.06,0,.22-.52,1.11-.29-.38.22-.8.37-1.21.53-.15-.2-1.56-1.33-.82-.89Z"/><path class="cls-39" d="m9.28,16c0-.36.06-.29.27-.44.08.31,1.31-.25,1.4-.22.55,1.36.16.59-.52.25-.28.29.66,1.38-.27.63-.03-.02-.58-.74-.17-.03.13.22.73.52.1.46-.65-.06-.5-.48-.14-.2-.04-.38-1.11-.43-.18-.42-.07-.45-.27-.28-.48-.04Z"/><path class="cls-36" d="m10.97,14.95c.07-.03.14,0,.26-.15l.56,1.26c-.1.08-.18-.37-.28-.35-.06.01-.12.71-.54-.76Z"/><path class="cls-39" d="m13.84,13.99c.1-.02.26-.05.27-.04.37.15-.49.17-.51.36-.78-.05-.06-.27.23-.32Z"/><path class="cls-39" d="m10.6,15.97c.82.42.09.36,0,.14-.02-.04-.03-.11,0-.14Z"/><path class="cls-41" d="m14.82,12.2l.09.21c-.53.16-.26-.06-.28.72-.35-.24-.28-.53-.34-.57-.01,0-.22.16-.23.18-.01.04.13.24.11.35-.3.06-.59.11-.75.4-.23.08-.48-.14-.62-.18,0,0,.01-.03-.18-.08-.05-.04-.1-.1-.14-.15.17.02.35-.18.45.16-.08-1.06.55-.45.61-.43.13.03-.14-.16.26.02.47.21.11-.05.1-.07-.2-.51-.41-.7-.67-1.19.57.51,1.34.42,1.31.81.15-.15.27-.15.29-.16Z"/><path class="cls-47" d="m13.79,12.82l.1-.07s.37.28-.1.07Z"/><path class="cls-72" d="m14.63,13.14c-.09.04-.18-.1-.46-.04.02-.11-.13-.31-.11-.35,0-.01.21-.18.23-.18.06.03,0,.32.34.57Z"/><path class="cls-32" d="m12.8,13.31c-.11.05-.12-.03-.18-.08.2.06.17.08.18.08Z"/><path class="cls-72" d="m13.2,13.14c.23-.03-.14.23-.18.11,0,0,.17-.11.18-.11Z"/><path class="cls-21" d="m13.57,18.54l.78.67c0,.12-.04.22,0,.34-.45-.14-1.29-.47-1.59-.82.29-.09.67-.14.82-.18Z"/><path class="cls-21" d="m10.16,21.22c.03.06-.03.21.19.31.11,0,.15-.17.17-.2.36-.05.4,1.22.46,1.5.21,1.01.49,2.01.7,3.02.12.61.7,4.29.82,4.49.12.21.43-.3.44-.44.32-.02.21.06.33.29.42.85.46,2.07.83,2.74-.05.04-.26.09-.27.1-.18-.34-.2-.86-.45-1.06-.01-.01.01-.12-.07-.1,0-.35-.12-1.2-.17-.73-.04.32-.12,1.26.06,1.43-.03.38-.12.75-.1,1.14-.21.11-.41.11-.43.15l1.16,5.25c-.32.01-.64-.04-.95.04-.05-.18-.1-.36-.14-.54.62-.24,0-1.26-.18-2.2-.14-.71-.18-1.44-.34-2.14-.58-2.69-1.44-5.32-1.88-8.04-.26-.08-.19.1-.3.24-.4-1.78-.81-3.56-1.23-5.33.03-.79,1.01.06,1.36.07Z"/><path class="cls-74" d="m12.72,38.62c-.97-4.03-1.79-8.1-2.7-12.14.11-.15.04-.32.3-.24.44,2.72,1.3,5.35,1.88,8.04.15.7.2,1.44.34,2.14.18.94.8,1.96.18,2.2Z"/><path class="cls-29" d="m9.52,19.69c.21.49.39,1.07.64,1.53-.36,0-1.33-.86-1.36-.07-.04-.17-.16-.3-.16-.31-.04-.19-.1-.27-.11-.32,0-.01,0-.24.01-.28,0-.06-.02-.1-.08-.13l.12-.1c.3-.12.64-.2.94-.32Z"/><path class="cls-73" d="m13.84,24.58c.06.27.12.54.18.82.92,4.08,1.91,8.13,2.93,12.19.88-.02,1.67-.2,2.51-.37.41.23,1,.37,1.31.3,0,.04,0,.07.02.11.11.5.3,1.01.35,1.52-1.27-.05-2.52,0-3.79-.08-.09-.16-.11-.52-.18-.59-.07-.08-.87.19-1.01.21-.14-.23-.39-.89-.47-1.17l-.74-3.6c-.16-.43-.69-.62-.89-.99-.37-.67-.4-1.9-.83-2.74,0-.69-.36-1.35-.49-2.04-.04-.21.04-.49.03-.51-.14-.79-.48-1.81-.22-1.77-.28.08-.15-.54-.23-1.09.36-.05.72-.06,1.13-.15.04,0,.07-.21.36-.06Z"/><path class="cls-29" d="m15.36,17.75c.09,0,.41.08.62.01.14.01.15.25.24.47.07.17.16.52.23.75.11.32.17.65.27.97-.73.04-1.17.75-1.78,1.07-.78.41-1.69.39-1.77.56.06.48.21.94.31,1.42.11.53.24,1.05.36,1.58-.29-.15-.32.05-.36.06-.41.09-.77.1-1.13.15.08.55-.05,1.17.23,1.09-.26-.04.08.98.22,1.77,0,.03-.07.3-.03.51.13.68.48,1.35.49,2.04-.11-.23,0-.31-.33-.29.03-.36-.94-3.73-.84-4.66-.17-1.31-.26-2.62-.45-3.93.77-.17.29-1.66.37-2.31.35-.1.45-.28.54-.31.13-.04.16.04.2.02.31.35,1.14.68,1.59.82.01,0,.11.13.16.14.09-.53.02-1.09,0-1.63.18-.24.58-.28.85-.3Z"/><path class="cls-21" d="m11.34,23.01c.06.27.18.84.29.74,0,.04-.07.31-.05.37,0,.02.12.07.13.09.09.4.21,1.07.39,1.04-.09.92.88,4.29.84,4.66-.01.13-.32.64-.44.44-.12-.2-.69-3.88-.82-4.49-.21-1.01-.49-2-.7-3.02.23.08.1.47.36.17Z"/><path class="cls-29" d="m11.34,23.01c-.26.3-.14-.09-.36-.17-.06-.28-.1-1.56-.46-1.5.13-.16.22-.42.3-.61.33.11.36,1.47.53,2.28Z"/><path class="cls-35" d="m13.82,33.04s.08,0-.19.25c-.66.5-.37-.21-.26-1.31.25.19.27.72.45,1.06Z"/><path class="cls-14" d="m13.37,31.98c-.11,1.1-.39,1.81.26,1.31-.26.25-.24.27-.55.42-.02-.39.07-.76.1-1.14.02-.23.11-.46.12-.69.09-.02.06.09.07.1Z"/><path class="cls-35" d="m13.3,31.88c0,.24-.1.46-.12.69-.17-.17-.09-1.1-.06-1.43.05-.47.18.38.17.73Z"/><path class="cls-21" d="m14.08,32.94c.2.37.73.56.89.99l.4,5.06c-.32.1-1.17.12-1.56.13l-1.16-5.25s.21-.04.43-.15c.31-.16.29-.17.55-.42.26-.26.17-.24.19-.25.01,0,.21-.06.27-.1Z"/><path class="cls-74" d="m15.71,37.53c-.39-.41.06,1.66-.33,1.46l-.4-5.06.74,3.6Z"/><path class="cls-29" d="m17.36,39.07c-.15,0-.84.06-.92.03-.13-.11-.18-.27-.26-.41.14-.03.94-.29,1.01-.21.07.08.09.44.18.59Z"/><path class="cls-73" d="m17.13,21.53c.82,3.9,1.78,7.76,2.67,11.64.33,1.45.65,2.9.97,4.36-.32.07-.9-.07-1.31-.3-.84.16-1.63.34-2.51.37-1.02-4.05-2.01-8.11-2.93-12.19.71-.65.7.86,1.23,1.21.14-.44.37-.23.51-.5-.08-3.09.66-.12,1.44.76.69-1.48-.58-4.02-.24-5.29.01-.05.11-.04.16-.05Z"/><path class="cls-73" d="m16.98,20.93c.05.2.08.4.15.6-.05.01-.15,0-.16.05-.34,1.26.92,3.81.24,5.29-.78-.88-1.52-3.85-1.44-.76-.15.27-.37.06-.51.5-.53-.36-.53-1.86-1.23-1.21-.06-.27-.12-.54-.18-.82-.12-.53-.25-1.05-.36-1.58,1.38-.03,1.86-1.11,2.04-1.17.3-.09.41.33.5.32.18-.03.17-1.06.46-1.37.51-.52.23.14.5.15Z"/><path class="cls-17" d="m16.72,19.96c.05.18.09.36.14.54.04.15.09.28.12.43-.27,0,0-.67-.5-.15-.3.31-.28,1.34-.46,1.37-.09.01-.2-.41-.5-.32-.18.05-.66,1.14-2.04,1.17-.1-.47-.24-.94-.31-1.42.08-.17.99-.15,1.77-.56.61-.32,1.05-1.03,1.78-1.07Z"/><path class="cls-21" d="m11.25,19.24c-.02.2.28,1.38.38,2.08.18,1.3.28,2.62.45,3.93-.18.03-.3-.63-.39-1.04,0-.02-.12-.07-.13-.09-.01-.07.06-.34.05-.37-.18-1.19-.26-2.41-.4-3.6-.04-.32-.11-.64-.15-.96l.18.06Z"/><path class="cls-35" d="m12.01,19.01c-.08.65.4,2.14-.37,2.31-.1-.7-.4-1.88-.38-2.08,0-.04-.04-.09.06-.18.87-.25.66-.04.7-.05Z"/><path class="cls-62" d="m14.34,19.55c-.04-.12,0-.22,0-.34.02-.24.06-.97.11-1.09.03-.07.04-.06.05-.06.03.54.09,1.1,0,1.63-.05-.01-.15-.14-.16-.14Z"/><path class="cls-35" d="m11.23,20.15c.14,1.19.22,2.41.4,3.6-.1.1-.23-.47-.29-.74-.17-.81-.2-2.17-.53-2.28.15-.39-.08-.66.42-.57Z"/><path class="cls-29" d="m14.46,18.12c-.05.12-.09.84-.11,1.09l-.78-.67s.29-.26.89-.42Z"/><path class="cls-78" d="m30.75,23.22c-2.02.33-1.29,1.58-.62,1.62.67.04,4.2-1.17,5.17-1.49l.43,2.92c-1.5,1.61-.31-1.52-1.6-1.55-.31,0-5.54.77-6.17.91-.03-.11-.2.02-.23-.05,0-.01.13,0,.19-.23.03.22.2.13.36.11.52-.04,1.04-.19,1.57-.25l.07-.1c-.45-.18-.74-.64-.74-1.12,0-.93.99-.64,1.57-.78Z"/><path class="cls-1" d="m40.35,27.29l.87,8.43c-.29.06-.04-.99-.33-1.38-.29-.39-.69.12-.91.28-.02.02-.07-.12-.46.27l.22.67c-.03.07-.22.36-.14.53-.53.06-1.1.21-1.62.25-.05,0-.04-.11-.04-.11-.17-1.44-.31-2.88-.45-4.32-.12-1.26-.21-2.52-.37-3.77.3-.08.74-.24,1.07-.34.63-.19,1.27-.34,1.88-.58.09.01.15-.09.29.07Z"/><path class="cls-82" d="m39.93,22.12c.12.39.17,2.84.22,3.57-.2.02-.4.07-.6.1.06-1.11-.21-2.3-.37-3.43.25-.08.49-.19.75-.23Z"/><path class="cls-78" d="m41.22,35.72l.02.11c-.06,0-.77.14-1.15.18l-.17-.71c.1-.31,0-.47.06-.69.22-.16.62-.67.91-.28.29.4.04,1.45.33,1.38Z"/><path class="cls-69" d="m37.47,31.91c.14,1.44.28,2.88.45,4.32-.19,0-.55.41-.57-.19-.05.48-.24.32-.26.32-.02-.39,0-.79-.02-1.18-.03-.73-.08-1.45-.12-2.18,0-.19-.02-.37-.03-.56.67.63.37-.27.54-.53Z"/><path class="cls-80" d="m40.09,36.01c-.16.02-.33.06-.49.08-.08-.17.11-.46.14-.53.03-.07.15-.16.19-.25l.17.71Z"/><path class="cls-69" d="m37.1,28.14c.15,1.25.25,2.52.37,3.77-.16.27.13,1.16-.54.53-.07-1.38-.13-2.76-.25-4.13.13-.11.27-.14.42-.18Z"/><path class="cls-58" d="m39.98,34.62c-.06.22.04.38-.06.69-.03.1-.15.18-.19.25l-.22-.67c.39-.39.44-.25.46-.27Z"/><path class="cls-82" d="m38.37,22.59l.32,3.13c-.05.09-.36.01-.09.15-.36.04-.71.13-1.07.17-.05,0-.04-.11-.04-.11l-.19-2.98c.04-.14.87-.3,1.07-.37Z"/><path class="cls-78" d="m39.18,22.35c.17,1.13.43,2.32.37,3.43-.32.03-.63.06-.94.09-.27-.14.04-.06.09-.15l-.32-3.13c.27-.09.54-.16.81-.24Z"/><path class="cls-2" d="m39.53,15.59c-.06.13-.01.26,0,.39-.35.06-.9-.13-1.12.06-.05,0-.16-.09-.28.02,0,.17.09.25.11.35.07.33.45,1.5.69,1.53.04.96.09,1.94.23,2.89-.82.16-1.65.31-2.46.5-.13.04-.11-.04-.12-.04l-.43-5.96s.51-.1.86-.08c.62.04,2.05.4,2.5.34Z"/><path class="cls-83" d="m39.53,15.98c.21,1.55.37,3.1.45,4.66-.27.05-.54.13-.82.18-.13-.96-.19-1.93-.23-2.89-.02-.47.03-.94,0-1.41-.03-.46.06-.48-.53-.48.21-.19.77,0,1.12-.06Z"/><path class="cls-73" d="m36.16,15.33l.43,5.96c-.18-.01-.29.14-.35.11-.21-.12-.17-4.65-.34-4.82-.04-.04-.37.03-.52-.06-.13-.21.02-.21.02-.23.6-.06.56-.48.51-1.04.13-.03.22.07.24.08Z"/><path class="cls-21" d="m38.94,16.53c.03.47-.02.94,0,1.41-.24-.03-.62-1.2-.69-1.53l.69.12Z"/><path class="cls-29" d="m38.41,16.05c.59,0,.5.02.53.48l-.69-.12c-.02-.1-.12-.18-.11-.35.12-.11.23-.02.28-.02Z"/><path class="cls-63" d="m33.5,28.87c.2,1.11.31,2.24.53,3.35h-.11c.11,1.14.4,2.27.6,3.42l-.76.18c-.02-.09-.11-.02-.12-.07-.21-.94-.3-1.96-.4-2.92,0-.04.11-.03.1-.07-.02-.18-.29-.75-.29-1.84,0,0,.11,0,.11-.04,0-.65.05-1.29-.02-1.94.11-.04.26-.03.38-.06Z"/><path class="cls-20" d="m32.9,30.1c.02.17.06.33.08.49-.24,0-.25.61-.32.81-.27.77-1.3,3.39-1.62,4.03-.03.06-.07.11-.15.11-.02-.42-.09-.84-.03-1.26.51-.76,1.06-1.9,1.43-2.76.25-.58.4-1.43.62-1.42Z"/><path class="cls-69" d="m33.12,28.94c.08.65.02,1.29.02,1.94,0,.05-.11.04-.11.04-.06.03-.02-.09-.05-.33-.02-.17-.06-.33-.08-.49-.01-.09-.04-.18-.04-.27-.02-.25-.02-.5-.06-.75.07-.15.2-.1.32-.13Z"/><path class="cls-70" d="m36.68,28.32c.13,1.37.18,2.75.25,4.13,0,.19.02.37.03.56-.35-.11-.34.04-.65.16-.16-1.33-.33-2.65-.62-3.96-.02-.09.05-.61-.13-.66-.07-.02-.59.09-.62.18-.1.29.18.48.19.51.49,2.01.69,4.11,1.08,6.14-.26.04-.54.03-.78.07-.73-2.13-1.04-4.38-1.49-6.58.91-.19,1.78-.48,2.73-.54Z"/><path class="cls-70" d="m36.97,33.01c.04.73.09,1.45.12,2.18-.26.13-.52.08-.55.09-.08-.7-.14-1.41-.22-2.11.32-.12.3-.27.65-.16Z"/><path class="cls-77" d="m33.95,28.86c.45,2.2.75,4.45,1.49,6.58-.02,0-.04.06-.32.11-.04,0-.07.01-.11.02l-.23-.05c-.16-1.11-.53-2.19-.74-3.29-.21-1.11-.32-2.24-.53-3.35.45-.09.43,0,.45-.01Z"/><path class="cls-57" d="m34.03,32.23c.21,1.1.58,2.18.74,3.29l.23.05c-.15.03-.31.01-.43.12,0-.02,0-.06-.06-.05-.2-1.14-.49-2.27-.6-3.43h.11Z"/><path class="cls-35" d="m27,12.6c-.1.44-.12,0-.4.34-.12-.46.02-.34.4-.34Z"/><path class="cls-56" d="m27.1,12.53c0,.16.04.26-.02.4-.14.04-.35.03-.47.07v-.05c.26-.35.29.09.39-.34.02-.08.03-.07.1-.07Z"/><path class="cls-21" d="m30.65,17.21l-.29-.07c.28-3.49-4.54-5.26-5.9-1.72,0-.06-.05-.17-.03-.22,0,0,.06-.01.09-.13.31-1.11,1.06-1.69,2.1-2.08.12-.05.33-.03.47-.07.06-.14.02-.23.02-.4,0-.02,0-.04,0-.05.91-.23.21.35.44.44.82,0,1.86.63,2.36,1.23,1.11,1.34.75,2.43.76,3.06Z"/><path class="cls-43" d="m24.46,15.42c-.13.94-.1,1.53.37,2.36h-.05c-.55-.5-.56-1.92-.35-2.58-.01.05.04.16.03.22Z"/><path class="cls-83" d="m24.51,15.08c-.03.12-.09.12-.09.13.01-.04-.07-.13.09-.13Z"/><path class="cls-31" d="m30.36,17.14c-.06.7-1.06,2.02-1.73,2.24-.24.08-.88.14-1.16.13-.98-.04-2.16-.88-2.64-1.73-.47-.84-.51-1.43-.37-2.36,1.37-3.54,6.18-1.77,5.9,1.72Z"/><path class="cls-84" d="m28.63,19.39c.16.07.05.23,0,.34-.12.25-.33.44-.6.49-.03-.02-.21-.05-.24-.08-.12-.12-.3-.45-.32-.63.28.01.92-.05,1.16-.13Z"/><path class="cls-27" d="m28.87,21.26c-.17.06-.51-.13-.57-.05-.05.07-.19,1.47-.18,1.69l-.07-.1c-.12-.55-.14-1.1-.2-1.66-.01-.11-.04-.22-.05-.33.36.11.72.36,1.08.45Z"/><path class="cls-45" d="m29.1,21.34c-.27-.39-.72-.79-1.08-1.13.27-.05.47-.24.6-.49.75.89,1.11.56.48,1.61Z"/><path class="cls-17" d="m28.03,20.21c.35.34.81.73,1.08,1.13-.21-.03-.23-.07-.24-.08-.37-.09-.73-.33-1.08-.45-.04-.32-.16-.62,0-.68.02.02.21.05.24.08Z"/><path class="cls-78" d="m18.92,19.96c.15.39.53-.02.88-.14.42,1.04,2.52,8.49,2.85,8.82.07.07.14-.08.22-.06.14.52.27,1.05.42,1.57,0,.02.04.05.09.21-1.16.03-2.31.34-3.47.49-.84-3.57-1.66-7.14-2.47-10.71.11.02.26.07.36.11.13.06.9.61.88.23,0-.05-.65-.46-.76-.53v-.11c.21.26.69.2,1.02.12Z"/><path class="cls-69" d="m24.34,30.43c.05.07.13.04.19.11.16.96.3,1.95.51,2.91.49,2.18,1.31,2.79-.12,2.81-.03-.22-.09-.44-.16-.65-.39-1.23-.7-2.53-1.04-3.78-.13-.48-.21-.99-.34-1.47-.05-.16-.08-.19-.09-.21l.86-.08c.1.11.11.24.2.36Z"/><path class="cls-82" d="m22.86,28.57c-.08-.02-.14.13-.22.06-.33-.32-2.44-7.78-2.85-8.82.13-.05.29-.07.4-.17l.16.12c.88,2.93,1.69,5.87,2.51,8.82Z"/><path class="cls-20" d="m24.6,30.33c.03.11.23.38.3.46.13,1.37.58,2.95,1.22,4.17.18.35.97.9.29,1.11-.48.04-.95.18-1.43.22l-.06-.05c1.43-.02.62-.63.12-2.81-.22-.95-.35-1.94-.51-2.91-.05-.07-.14-.04-.19-.11l-.02-.11c.1.05.18.03.28.01Z"/><path class="cls-19" d="m23.17,22.27c-.22-1.03-1.39-3.75-.8-3.99.18.67,1.05,3.45,1.08,3.63.05.38,0,.18-.28.35Z"/><path class="cls-6" d="m20.94,12.76c.19,1.04,1.06,4.14,1.43,5.52-.6.24.57,2.95.8,3.99,0,.09.16.03.34,0l1.76,6.88c-.34.06-.68.1-1.02.16l.07,1,.02.11c-.08-.12-.1-.25-.2-.36l-.86.08c-.14-.52-.27-1.05-.42-1.57-.82-2.94-1.63-5.89-2.51-8.82l-.16-.12c-.11.1-.26.13-.4.17-.35.12-.73.53-.88.14.06-.01,1.01-.37,1.07-.39.05-.03.15.02.21-.12-.13-.39-.22-1.18-.5-1.36,0,0,0-.07-.02-.11.16.02.23.1.26.07-.34-1.19-.56-2.45-1.05-3.61.25-.27,1.65-2.04,1.79-2.08.14-.04.07.52.26.41Z"/><path class="cls-21" d="m21.34,18.56c.05.18.05.42.1.6,0,0,.06.1-.07.12-.09.01-.74.01-.77-.08.46-.79.57-1.24.74-.65Z"/><path class="cls-82" d="m21.44,19.16c-.05-.19-.04-.42-.1-.6.09-.11.25.52.26.55.01.26-.14.05-.16.05Z"/><path class="cls-42" d="m23.71,31.82c.34,1.25.65,2.55,1.04,3.78-.5.37-.95-1.03-1.5-1.46-.14.51-.06,1.95-.1,2.07-.27.95-1.13-2.28-1.59-2.93-.05-.06-.09-.15-.14-.2.13-.06-.02-.11-.03-.16,0-.02.09-.22,0-.37-.02-.04-.63-.54-.68-.54-.37-.02-.34.87.32,1.53.06.51.59.99.8,1.48.37.87.61,1.92.22,2.81-.11-.03-.55-.13-.58-.13-.4-1.6-.66-3.24-1.04-4.85-.11-.47-.28-.93-.39-1.4.83-.35,1.66-.39,2.54-.51.42.02.78.69,1.13.89Z"/><path class="cls-82" d="m17.42,20.13c.81,3.57,1.64,7.14,2.47,10.71.05.2.1.4.15.6.11.47.28.93.39,1.4l-.63.32c-.89-3.88-1.86-7.74-2.67-11.64-.07-.19-.1-.4-.15-.6-.04-.15-.09-.29-.12-.43.18-.16.47-.23.46-.47.06.04.01.08.1.1Z"/><path class="cls-17" d="m28.79,29.39s.15.09.15.09c.57,0,3.55-.59,3.8-.54.07.03-.02.05-.01.11-.22.02-.34.22-.45.38-.69,1.05-1.22,2.24-2,3.22-2.04.89-1.89,2.03-3.24.71-.22-.22-1.62-1.94-2.15-2.56-.07-.08-.26-.35-.3-.46,1.17-.25,2.34-.51,3.53-.67l-.07-.1c.26-.01.49-.11.73-.17Z"/><path class="cls-27" d="m32.74,29.05c.02.13-.05.84.12.77,0,.09.03.18.04.27-.22,0-.37.84-.62,1.42-.37.86-.92,2-1.43,2.76-.06.42.01.84.03,1.26.01.27.09,1.53.14,1.64.03.05.28,0,.26.21-.14.02-.25-.07-.26-.07-1.83.3-3.65.69-5.48.97l-.1-.1c.98.08.19-.99.42-1.62.16-.42.44-.08.86-.44l-.02-.11c-.1.01-.2.04-.3.05.68-.21-.1-.76-.29-1.11-.64-1.22-1.09-2.8-1.22-4.17.53.62,1.93,2.35,2.15,2.56,1.36,1.32,1.2.18,3.24-.71.78-.98,1.31-2.17,2-3.22.11-.16.23-.36.45-.38Z"/><path class="cls-29" d="m27.34,36.27c-.11.15-.5.95-.65,1.23-.25,0,.27-1.58.65-1.23Z"/><path class="cls-58" d="m26.69,37.5c.15-.28.54-1.08.65-1.23.06-.09.16-.16.21-.26.1.02-.85,1.86-.86,1.49Z"/><path class="cls-62" d="m17.71,16.2c.07.25.51,1.09.63,1.51.47-.03.89.21,1.34.27.01.04.01.11.02.11l-1.22-.03.2.76s-.06.09-.13.08c-.32-.06-.97-.38-1.24-.2-.03-.29-.75-.29-1.08-.45-.09-.22-.1-.46-.24-.47.25-.38,1.52-2.08,1.73-1.57Z"/><path class="cls-37" d="m18.68,18.81s0,.12.11.15c.17.04.93.07,1.03.12.07.03.03.17.06.19.13.1.34-.11.1.29-.05.03-1.01.38-1.07.39-.32.07-.8.14-1.01-.12v.11c-.09-.06-1.06-.69-1.11-.53l.98.83c-.09-.04-.25-.1-.36-.11-.09-.01-.04-.06-.1-.1.01.24-.28.3-.46.47-.05-.18-.09-.36-.14-.54-.09-.32-.16-.65-.27-.97.15-.2.44.21.51.2.05,0,.32-.49.34-.5.27-.18.93.14,1.24.2.07.01.09-.09.13-.08Z"/><path class="cls-19" d="m17.31,18.69s-.3.5-.34.5c-.07.01-.36-.41-.51-.2-.07-.23-.16-.58-.23-.75.33.15,1.05.16,1.08.45Z"/><path class="cls-78" d="m19.69,18.09c.28.18.37.97.5,1.36-.06.13-.16.09-.21.12.24-.4.03-.19-.1-.29-.02-.02.01-.15-.06-.19-.1-.05-.86-.08-1.03-.12-.11-.03-.1-.15-.11-.15l-.2-.76,1.22.03Z"/><path class="cls-19" d="m17.9,19.95c.11.07.76.48.76.53.02.38-.75-.17-.88-.23l-.98-.83c.04-.16,1.01.47,1.1.53Z"/><path class="cls-81" d="m25.16,20.95c0,.21-.47.13.5.65-.11.12-1.91.65-2.15.68-.18.02-.33.08-.34,0,.28-.18.34.02.28-.35-.03-.19-.9-2.96-1.08-3.63-.37-1.38-1.25-4.48-1.43-5.52-.03-.16-.14-.31-.14-.51.01-.11,1.23-1.48,1.42-1.72.86,2.25,1.64,4.54,1.99,6.93.21.81.92,2.87.94,3.49Z"/><path class="cls-17" d="m25.47,21.18c.29.25.31.28.18.42-.97-.53-.49-.45-.5-.65.08.11.23.15.32.23Z"/><path class="cls-8" d="m24.83,17.79c.47.84,1.66,1.69,2.64,1.73.02.18.2.5.32.63-.16.06-.05.36,0,.68.02.11.04.22.05.33l-1.04.19c.28.62-.11,1.29.07,1.9-.06.32-.02,2.42.06,2.53.04.06.3-.2.51,0-.57.17-.94.18-.92.96.02.56.41,1.53.4,2.16-.55.09-1.1.16-1.65.26l-1.76-6.88c.23-.03,2.03-.55,2.15-.68.13-.14.12-.17-.18-.42l-.7-3.38h.05Z"/><path class="cls-78" d="m28.04,22.8l.07.1-.09.15c.33.25.09,1.65.27,2.41-.15.01-.32.11-.36-.11.16-.67-.21-2.03.11-2.55Z"/><path class="cls-9" d="m27.83,21.15c.06.55.09,1.11.2,1.66-.32.52.05,1.89-.11,2.55-.05.23-.2.21-.19.23.03.06.2-.06.23.05-.16.04-.38.09-.54.14-.21-.2-.46.06-.51,0-.07-.1-.12-2.21-.06-2.53-.18-.61.21-1.28-.07-1.9l1.04-.19Z"/><path class="cls-79" d="m35.69,29.21c.29,1.31.47,2.63.62,3.96.08.7.14,1.41.22,2.11-.02,0,.08.04-.32.11-.39-2.03-.59-4.13-1.08-6.14l.56-.03Z"/><path class="cls-31" d="m35.69,29.21l-.56.03s-.29-.21-.19-.51c.03-.1.55-.2.62-.18.18.05.11.57.13.66Z"/><path class="cls-37" d="m23.37,30.35c.13.48.21.99.34,1.47-.34-.2-.71-.87-1.13-.89-.87.13-1.71.16-2.54.51-.05-.2-.1-.39-.15-.6,1.16-.15,2.31-.46,3.47-.49Z"/><path class="cls-27" d="m21.4,32.92c-.18-.22-.52-.28-.57-.59-.3.39.38.52.6.75.05.06.1.14.14.2.13.73.12.89-.52.25-.67-.65-.69-1.55-.32-1.53.04,0,.65.5.68.54.09.14,0,.35,0,.37Z"/><path class="cls-38" d="m21.4,32.92c0,.05.16.11.03.16-.21-.23-.9-.36-.6-.75.06.3.39.37.57.59Z"/><path class="cls-18" d="m35.96,21.56c.07.15.19.34.3.46.02.02.03.19.31.35l3.24-.51c.13.06.09.14.12.21,0,.02,0,.04,0,.05-.26.04-.5.16-.75.23-.27.08-.54.15-.81.24-.2.06-1.03.22-1.07.37l.19,2.98c-.27.03-1.1.21-1.42.28-.09.02-.14-.07-.33.05l-.43-2.92c-.97.32-4.5,1.53-5.17,1.49-.67-.04-1.4-1.29.62-1.62.05-.01.11-.01.16-.03,1.35-.34,3.56-1.38,4.94-1.73.04,0,.09.1.1.1Z"/><path class="cls-68" d="m42.7,21.12l-.04-.11c-.1.24-.23.03-.44.07-.38.06-1.48.31-1.96.42-.03,0-.18.42-.49.13-.13.23-1.18.29-1.75.33-.05,0-.03-.16-.08-.16-.54.03-1.12.25-1.69.21-.11-.12-.23-.31-.3-.46.24-.06.51-.17.75-.23.81-.19,1.64-.34,2.46-.5.27-.05.55-.14.82-.18,1.54-.29,3.21-.84,2.96.18-.02.08-.18.22-.24.29Z"/><path class="cls-74" d="m42.7,21.12c-.51.58-2.01.62-2.78.94-.03-.07.01-.15-.12-.21l-3.24.51c-.27-.15-.29-.33-.31-.35.56.04,1.15-.18,1.69-.21.05,0,.03.16.08.16.57-.04,1.62-.1,1.75-.33.31.28.46-.13.49-.13.48-.11,1.58-.36,1.96-.42.21-.04.34.17.44-.07l.04.11Z"/><path class="cls-74" d="m37.49,25.94s0,.11.04.11c.36-.04.71-.13,1.07-.17.32-.04.63-.06.94-.09.2-.02.4-.08.6-.1.76-.07,2.7-.51,2.56.53-.07.57-2.32.67-2.37,1.08-.14-.16-.2-.05-.29-.07-.73-.1-2.03,0-2.77.1l-1.22-1.1c.32-.07,1.15-.25,1.42-.28Z"/><path class="cls-35" d="m35.74,26.27c.19-.12.24-.03.33-.05l1.22,1.1c.74-.1,2.04-.2,2.77-.1-.61.24-1.25.39-1.88.58-.63-.12-1.36.2-2.02.26-.03,0-.2-.12-.52-.09-2.83.28-4.2.76-6.85,1.41-.25.06-.47.16-.73.17l.07.1c-1.19.16-2.36.42-3.53.67-.11.02-.18.04-.28-.01l-.07-1c.34-.06.68-.1,1.02-.16.55-.1,1.1-.17,1.65-.26,1.31-.21,2.65-.28,3.91-.73.47.25,3.64-.92,3.68-1.11l-.37-2.34c1.29.03.09,3.17,1.6,1.55Z"/><path class="cls-29" d="m38.18,27.8c-.33.1-.77.26-1.07.34-.16.04-.3.07-.42.18-.95.06-1.82.35-2.73.54-.02,0,0-.08-.45.01-.12.03-.27.03-.38.06-.11.04-.25-.01-.32.13.04.25.04.5.06.75-.17.07-.1-.64-.12-.77-.01-.06.08-.09.01-.11-.26-.05-3.23.54-3.8.54,0,0-.15-.05-.15-.09,2.65-.65,4.02-1.14,6.85-1.41.32-.03.49.09.52.09.66-.06,1.38-.38,2.02-.26Z"/><path class="cls-29" d="m34.14,24.72l.37,2.34c-.04.19-3.22,1.37-3.68,1.11-1.27.45-2.6.52-3.91.73.01-.64-.38-1.6-.4-2.16-.02-.78.35-.79.92-.96.16-.05.38-.1.54-.14.63-.14,5.85-.92,6.17-.91Z"/><path class="cls-31" d="m32.81,27.01c-1.08.61-2.26.99-3.46,1.28l-.14-1.44c.5.02,3.42-.44,3.6-.4.28.07.05.45,0,.56Z"/><path class="cls-68" d="m29.35,28.29c1.2-.28,2.38-.66,3.46-1.28-.01.03.07.07.07.07-.25.31-3.4,1.44-3.53,1.2Z"/></g></svg>