<?xml version="1.0" encoding="UTF-8"?><svg id="Capa_2" xmlns="http://www.w3.org/2000/svg" viewBox="0 0 58.41 32.08"><defs><style>.cls-1{fill:#6bb234;}.cls-1,.cls-2,.cls-3{stroke-width:0px;}.cls-2{fill:#fff;}.cls-3{fill:#e64b5b;}</style></defs><g id="Capa_1-2"><path class="cls-2" d="m58.37,12.26c-.07.45-1,2.36-1.34,2.71-.62.67-1.49,1.05-2.41,1.05-.68,0-1.34-.16-2.05-.51l-.03-.02-2.11,4.34c-.17.34-.5.89-.5.89-.25.34-.55.63-.9.9-.65.49-1.44.73-2.29.69-.08,0-.24-.01-.44-.05-.47-.08-.96-.24-1.47-.5-.16-.08-3.22-1.69-3.37-1.78-2.03-.99-2.09,2.44-2.09,2.44,1.31,1.49,1.75,1.77,2.45,2.98.41.71.19,2.96-.44,3.39-.36.25-3.83,2.75-4.14,2.94-.34.2-2.56.36-3.1.33-1.09-.06-6.37-1.27-7.04-1.44-.56-.14-4.81.22-5.42.22-.54,0-4.73-.05-5.21-.08-.37-.02-.74-.2-1.08-.45-1-.74-1.54-1.95-1.54-3.19,0-1.96.11-5.43.16-7.02.02-.51.19-.99.49-1.4.42-.56.99-1.31,1.15-1.41-.33-.21-1.03-.9-1.27-1.21-.15.28-.33.54-.53.79-.93,1.2-2.14,2.07-3.56,2.55-.68.24-1.39.38-2.1.42-.29.02-.59.02-.88,0-.38-.02-.73-.07-1.06-.15-.94-.2-1.7-.51-2.32-.94l-.09-.05c-.94-.59-1.57-1.33-1.87-2.22-.35-1.02-.14-2,.11-2.68h0c-.76-.68-1.34-1.58-1.72-2.67-.54-1.59-.42-3.23.33-4.76.75-1.52,2.1-2.66,3.91-3.28.88-.29,1.72-.45,2.52-.47.7-.01,1.28.04,1.78.17.24-.36,2.12-1.54,2.92-1.64L20.21.05c.75-.1,1.4-.06,1.99.13l.1.04c.69.25,1.28.71,1.68,1.31.29-.31.64-.58,1.04-.79.78-.42,1.56-.59,2.35-.51,1.61.13,2.9,1.06,3.57,2.59l.24.59,1.4,3.41.68-2.4c.11-.38.2-.64.3-.85.16-.4.44-.82.81-1.2.58-.61,1.87-1.49,4.13-.84l3.17.9c1.22.34,2.33,1.05,3.25,2.07.45-.22.96-.35,1.48-.35.65,0,1.31.15,2.02.49l7.67,3.73c.71.35,1.24.76,1.63,1.26.57.73.82,1.68.67,2.63Z"/><path class="cls-3" d="m17.65,25.21h-.04c-.02.41-.04.81-.04,1.2s-.02.8-.04,1.22c0,.12-.02.24-.03.35s-.03.22-.07.31-.09.16-.17.22-.19.07-.34.06c-.28-.02-.46-.17-.56-.46-.02-.47-.03-.93-.01-1.39s.01-.92-.01-1.4c-.01-.14-.06-.28-.15-.41s-.13-.26-.12-.38c0-.09.04-.16.11-.22s.1-.14.11-.25c.04-.78.06-1.55.06-2.31s.02-1.53.06-2.29v-.25c.09-.1.16-.15.23-.17s.17-.02.29-.01c.29.02.47.11.54.29s.1.39.1.64l-.08,3.98s.02.08.04.14.06.1.11.1c.07,0,.2,0,.39-.03s.39-.05.6-.09.4-.07.58-.12.27-.09.31-.14c0-.07.01-.19.03-.37s.02-.3.03-.37c.02-.42.04-.83.05-1.24s.01-.82,0-1.24c0-.07,0-.24-.02-.5s-.03-.55-.04-.86-.02-.6-.04-.86-.01-.43-.01-.5c0-.01-.01-.04,0-.1v-.11c.01-.13.07-.22.16-.28s.2-.08.31-.07c.24.01.41.1.52.25s.18.34.22.57c0,.11,0,.29.01.55s.02.54.03.84.03.58.04.85.02.45.02.55v.24s-.01.15,0,.29.01.24.02.29l-.33,6.12c.04.17.07.31.07.42s0,.24,0,.39c0,.12-.05.24-.12.38s-.19.19-.35.18c-.14,0-.26-.05-.37-.13s-.21-.17-.28-.28-.14-.24-.18-.38-.06-.28-.05-.41l.17-3.07-1.72.28Z"/><path class="cls-3" d="m27.78,25.35c-.03.18-.06.32-.09.41s-.08.19-.14.26-.15.15-.27.23-.27.19-.47.33-.44.33-.73.57-.65.54-1.07.91c-.17.14-.34.29-.52.44s-.36.28-.55.4-.39.21-.59.27-.41.1-.63.09c-.43-.02-.73-.18-.92-.48s-.26-.64-.24-1.02c.01-.25.03-.46.06-.63s.07-.39.15-.65c-.1-.11-.19-.2-.27-.28s-.11-.18-.1-.31c0-.12.04-.2.1-.23s.12-.06.2-.07.15-.02.22-.04.12-.05.16-.11c.02-.06.07-.17.13-.32s.13-.32.2-.49.14-.33.2-.48.11-.26.13-.31c.08-.17.17-.33.26-.5s.2-.32.32-.45.26-.24.42-.32.34-.12.55-.1c.12,0,.26.07.43.19s.33.26.48.42.28.33.38.51.15.32.14.44c0,.15-.05.28-.13.4s-.17.23-.28.33-.23.19-.35.27-.24.16-.34.24c0,0-.03,0-.06.03s-.06.03-.08.04l-.07.06-.12.11s-.08.08-.12.11-.06.06-.07.07c-.03.03-.09.07-.18.13s-.18.12-.29.19-.2.13-.29.19-.15.1-.18.12l-.07.12s-.04.12-.07.26-.05.28-.08.45-.06.34-.08.51-.04.31-.05.42c0,0,0,.02.01.03.02.02.03.03.04.03.08,0,.16-.03.23-.09s.15-.11.23-.14l2.51-2.08.66-.91c.05-.07.15-.14.3-.22s.3-.11.45-.11.28.06.39.16.16.3.14.59Zm-3.22-1.34c.05-.04.08-.1.07-.18s-.03-.15-.07-.21-.1-.1-.17-.12-.14.02-.2.1c-.03.04-.09.11-.17.23s-.16.23-.24.35-.15.22-.2.31-.07.12-.04.1l1.02-.59Z"/><path class="cls-3" d="m28.65,29.01c0-.36,0-.84-.02-1.45s-.03-1.23-.05-1.88-.04-1.26-.07-1.84-.05-1.03-.08-1.35c0-.13.07-.21.19-.24s.24-.05.35-.04c.14,0,.28.06.43.14s.24.2.27.34c0,.04,0,.11,0,.22s0,.21,0,.32,0,.22,0,.32,0,.18,0,.22v.13s-.01.06-.01.08,0,.05.01.08.02.08.04.15c.02-.02.04-.04.07-.07s.04-.05.06-.06c.17-.22.34-.41.5-.58s.32-.32.49-.47.35-.3.56-.46.44-.35.71-.57l.14-.1s.06-.04.09-.06.05-.02.08-.03.07,0,.12,0c.17,0,.34.08.51.2s.25.29.24.48c0,.07-.03.14-.09.21s-.12.14-.19.2-.15.11-.23.16-.15.08-.21.09c-.27.21-.56.46-.86.74s-.59.58-.86.9-.49.67-.67,1.03-.28.72-.3,1.09c-.02.34-.01.67.02,1s.04.67.02,1l-.03.52c-.08.08-.16.14-.22.18s-.15.07-.26.06c-.17,0-.33-.09-.48-.24s-.25-.31-.29-.46Z"/><path class="cls-3" d="m39.74,26.01c-.03.18-.06.32-.09.41s-.08.19-.14.26-.15.15-.27.23-.27.19-.47.33-.44.33-.73.57-.65.54-1.07.91c-.17.14-.34.29-.52.44s-.36.28-.55.4-.39.21-.59.27-.41.1-.63.09c-.43-.02-.73-.18-.92-.48s-.26-.64-.24-1.02c.01-.25.03-.46.06-.63s.07-.39.15-.65c-.1-.11-.19-.2-.27-.28s-.11-.18-.1-.31c0-.12.04-.2.1-.23s.12-.06.2-.07.15-.02.22-.04.12-.05.16-.11c.02-.06.07-.17.13-.32s.13-.32.2-.49.14-.33.2-.48.11-.26.13-.31c.08-.17.17-.33.26-.5s.2-.32.32-.45.26-.24.42-.32.34-.12.55-.1c.12,0,.26.07.43.19s.33.26.48.42.28.33.38.51.15.32.14.44c0,.15-.05.28-.13.4s-.17.23-.28.33-.23.19-.35.27-.24.16-.34.24c0,0-.03,0-.06.03s-.06.03-.08.04l-.07.06-.12.11s-.08.08-.12.11-.06.06-.07.07c-.03.03-.09.07-.18.13s-.18.12-.29.19-.2.13-.29.19-.15.1-.18.12l-.07.12s-.04.12-.07.26-.05.28-.08.45-.06.34-.08.51-.04.31-.05.42c0,0,0,.02.01.03.02.02.03.03.04.03.08,0,.16-.03.23-.09s.15-.11.23-.14l2.51-2.08.66-.91c.05-.07.15-.14.3-.22s.3-.11.45-.11.28.06.39.16.16.3.14.59Zm-3.22-1.34c.05-.04.08-.1.07-.18s-.03-.15-.07-.21-.1-.1-.17-.12-.14.02-.2.1c-.03.04-.09.11-.17.23s-.16.23-.24.35-.15.22-.2.31-.07.12-.04.1l1.02-.59Z"/><path class="cls-1" d="m12.52,13.71c-.1.62-.32,1.16-.67,1.59-.65.83-1.45,1.41-2.39,1.73-.48.17-.96.26-1.43.29-.21.01-.42.02-.6,0-.23-.01-.44-.04-.63-.09-.66-.14-1.14-.33-1.49-.59l-.16-.1c-.43-.27-.68-.55-.8-.87-.12-.34-.02-.79.31-1.44.2-.38.48-.64.83-.77.36-.12.88,0,1.62.36.19.11.4.19.66.25.25.05.45.05.61,0,.92-.31.9-.76.77-1.16-.02-.05-.05-.16-.33-.22-.26-.06-.56-.06-.91-.01-.41.06-.86.09-1.35.09-.49,0-.97-.05-1.42-.13-.49-.09-.97-.33-1.4-.73-.43-.39-.77-.93-1-1.59-.31-.93-.24-1.87.21-2.79.45-.92,1.27-1.59,2.45-1.99.61-.2,1.2-.32,1.75-.33.58-.01.99.03,1.28.14l.44.15c.52.23.79.46.89.75.09.27.07.62-.07,1.11-.19.7-.52,1.13-.97,1.28-.26.09-.6.08-1.03-.02-.04,0-.14-.05-.27-.1-.09-.04-.17-.07-.25-.1-.16-.04-.39-.01-.64.07-.25.08-.43.21-.55.37-.1.14-.11.27-.06.44.04.11.11.25.37.31.26.07.56.08.9.02.4-.07.85-.12,1.33-.14.49-.03.97-.02,1.41.03.49.06.96.28,1.4.67.43.38.77.92,1.01,1.59.22.68.29,1.33.2,1.94Z"/><path class="cls-1" d="m22.14,4.56c-.06.32-.22.48-.35.57-.21.15-.5.24-.89.29l-2.58.34.96,7.31c.04.25.05.44.05.56,0,.15-.04.32-.1.52-.09.24-.27.42-.53.54-.22.1-.49.17-.84.22-.24.03-.44.04-.63.03-.08,0-.16-.02-.23-.03-.28-.05-.49-.19-.64-.39-.12-.17-.2-.32-.24-.47-.03-.12-.07-.31-.1-.56l-.96-7.3-2.59.34c-.38.05-.67.04-.88-.04-.24-.08-.43-.25-.54-.48-.09-.18-.14-.42-.18-.72-.04-.3-.04-.54,0-.74.06-.31.22-.48.35-.56.21-.15.5-.24.89-.29l8.44-1.12c.37-.05.66-.03.87.03.24.09.43.25.54.49.09.18.15.42.18.72.04.3.04.54,0,.73Z"/><path class="cls-1" d="m32.2,12.61l-3.6-8.77h0c-.28-.66-.78-1.03-1.45-1.07-.32-.04-.62.06-.91.21-.29.16-.52.38-.67.66l-4.65,8.28c-.23.39-.34.68-.35.91-.03.5.31.94.99,1.32.38.23.69.34.94.35.27.02.51-.04.7-.17.17-.11.29-.23.38-.35.06-.09.15-.24.28-.46l.79-1.43,3.83.23.62,1.52c.09.22.16.38.22.48.07.15.18.29.34.42.18.14.4.22.66.24h0c.25.01.57-.06.97-.24.73-.31,1.11-.71,1.14-1.21.01-.23-.06-.53-.24-.94Zm-6.49-3.03l1.14-2.03.89,2.16-2.03-.12Z"/><path class="cls-1" d="m44.06,8.29c-.12-.64-.34-1.19-.68-1.65-.68-.91-1.5-1.51-2.42-1.77l-3.18-.9c-.76-.22-1.28-.17-1.58.16-.15.15-.25.3-.31.44-.05.12-.11.3-.18.54l-2.32,8.17c-.1.38-.15.67-.14.89.02.55.45.95,1.28,1.19.76.21,1.28.16,1.58-.16.15-.15.25-.3.31-.44.05-.12.11-.3.18-.54l.38-1.36,1.57.44.24.05c.2,1.66.33,2.58.38,2.81.04.16.12.31.24.47.14.18.34.31.6.38.1.03.21.05.34.06.17,0,.38,0,.61-.04.82-.1,1.31-.41,1.45-.91.06-.2.06-.51,0-.95h0c-.14-1.02-.25-1.81-.32-2.39.91-.56,1.53-1.4,1.85-2.51.19-.69.23-1.35.11-1.99Zm-3.32,1.08c-.09.33-.26.54-.51.64-.28.11-.52.13-.74.07l-1.58-.44.56-1.99,1.55.44c.24.07.44.22.62.47.17.22.2.49.1.82Z"/><path class="cls-1" d="m55.85,11.88c-.03.2-.11.43-.24.7-.13.27-.26.47-.4.62-.22.23-.45.28-.6.28-.26,0-.56-.08-.91-.25l-2.34-1.14-3.23,6.64c-.11.23-.21.39-.27.5-.09.12-.2.24-.37.37-.17.13-.38.19-.62.18-.04,0-.08,0-.11-.01-.24-.04-.51-.13-.82-.28-.32-.15-.56-.31-.73-.47-.2-.2-.31-.43-.31-.67,0-.2.01-.38.07-.53.04-.12.11-.29.23-.52l3.22-6.62-2.36-1.15c-.34-.17-.58-.33-.71-.51-.16-.2-.22-.45-.19-.7.03-.2.11-.43.24-.7.14-.27.26-.47.4-.62.22-.23.45-.28.6-.28.26,0,.56.08.91.25l7.65,3.72c.34.17.58.33.71.51.16.2.22.45.18.7Z"/></g></svg>