<?xml version="1.0" encoding="UTF-8"?><svg id="Capa_2" xmlns="http://www.w3.org/2000/svg" viewBox="0 0 48.73 29.81"><defs><style>.cls-1{fill:#766f6b;}.cls-1,.cls-2,.cls-3,.cls-4,.cls-5,.cls-6,.cls-7,.cls-8,.cls-9,.cls-10,.cls-11,.cls-12{stroke-width:0px;}.cls-2{fill:#606261;}.cls-3{fill:#50504e;}.cls-4{fill:#312f2e;}.cls-5{fill:#1a1815;}.cls-6{fill:#413f3e;}.cls-7{fill:#afafb0;}.cls-8{fill:#c5c5c5;}.cls-9{fill:#dadbdc;}.cls-10{fill:#939495;}.cls-11{fill:#7e8081;}.cls-12{fill:#fff;}</style></defs><g id="Capa_1-2"><path class="cls-12" d="m.03,15.57l1.26,5.1c.08.31.31.55.61.65l13.29,4.16s16.17,4.65,16.97,4.32c.7-.29,11.09-17.06,16.29-20.55.52-.35.25-2.07-.34-2.26L23.72.18c-.14-.05-2.03-.21-2.18-.18-1.67.3-9.59.43-9.63,1.46-.04.9-.79,3.97-1.09,5.19-.08.31-7.14,2.22-6.79,3.23,1.48,4.29-1.44,4.31-3.26,4.58-.53.08-.87.59-.74,1.11Z"/><polygon class="cls-8" points="33.46 4.07 21.17 .95 12.85 2.12 14.15 7.68 5.36 9.64 23.43 15.21 31.61 28.19 44.37 9.53 39.52 10.79 33.46 4.07"/><path class="cls-7" d="m36.93,18.99c-.11.28.03.43-.37.51-1.63-1.37-.26-.41-.17-.78-.9-.61.15-.85-.14-1.97-.11-.77.94.49.96.57.03.1-.19,1.43-.29,1.67Z"/><path class="cls-8" d="m32.36,19.83c.22,1.13,0,1.74.47,1.85.04.3-.39-.74-.68,1.23-.01.1.34-.14.26.16-.72,1.24-2.57,3.29-2.71.57-.04-.83.35-2.28.61-3.09.2-.63.27-.96.74-1.47-.56-.62-.75-2.06.04-2.52,1.13-.67.18,1,.15,1.28,0,.04.49.23.06.61.03.29.7.24.86.35.16.11.17.82.21,1.04Z"/><path class="cls-8" d="m39.22,13.76c-.87-2.12-1.78-1.35-1.07-3.13.21-.11.7-.69.9-.69,1.83,0,.84,2.61.62,3.57-.06.09-.44.22-.45.24Z"/><path class="cls-8" d="m32.57,19.78c-.25-1.06-.15-1.27.12-2.26.99-.52,1.56-.97,2.71-.97.07.11.37.42.37.53.01.32-.49,2.35-.86,2.23-.16-.8.49-1.69-.31-1.02-.37.31-.99,1.49.18.29.33.91-1.4,2.53-1.91,2.24-.07-.04-.26-.89-.3-1.06Z"/><path class="cls-8" d="m35.4,16.55c-1.15,0-1.72.44-2.71.97.13-.47.21-.95.42-1.39.03.01.06.01.09.02.15.04,1.35-.17,1.69-.21.5.03.41.44.5.61Z"/><path class="cls-7" d="m22.82,24.18c-.1.26-.2.43-.2.45-.19.63-.08.98.14,1.39.28-.02.57-.02.85-.01-.17-.71-.39-1.64-.79-1.83Z"/><path class="cls-8" d="m37.85,10.66c-.36.54-.44,1.44-.84,1.94-.07.09-1.82,1.3-1.94,1.29-.11-.01-.2-.22-.45-.4.57-.76-.14-1.22-.13-2.02.03-.05.02-.14.04-.19.43-.76,1.48-1.78,2.28-2.16l1.04,1.53Z"/><path class="cls-2" d="m34.62,13.49c-.11-.08-.67-.46-.68-.5-.01-.05.09-.35.12-.52,0-.03.09-.15.22-.54.07-.19.12-.28.2-.45,0,.8.7,1.26.13,2.02Z"/><path class="cls-5" d="m22.6,25.68c-.1-.29-.12-.6.01-1.05-6.73-2.06-13.53-3.9-20.34-5.68.05.37.02.8-.12,1.16,2.28.52,4.54,1.15,6.79,1.76,1.03.28,2.07.53,3.09.81,2.08.57,9.02,2.41,9.98,2.8.09.04.19.11.29.22.1,0,.19-.02.29-.02Z"/><path class="cls-5" d="m31.09,28.04c.17.05.34.1.52.15.13-.18.26-.37.4-.56-.33-.04-.65-.09-.97-.15.02.22.04.41.06.56Z"/><path class="cls-5" d="m37.09,14.16c1.8,2.39-.14,4.07,1.7,3.62,2.58-3.49.27-.48.05-.44-1.04.21-.25-1.91,0-2.38-.29-.06.21-.91.38-1.2-.87-2.12-1.78-1.35-1.07-3.13-.08.04-.21.07-.3.03-.36.54-.44,1.44-.84,1.94-.07.09-1.82,1.3-1.94,1.29-.11-.01-.2-.22-.45-.4-.11-.08-.67-.46-.68-.5-.01-.05.09-.35.12-.52-6.79-2.12-13.64-3.97-20.6-5.44-.02.25.16.83-.2.85,1.52.56,3.11.87,4.67,1.27,5.29,1.39,10.54,2.95,15.85,4.25.1.13.25.19.38.29,1.01.76.03,1.41-.86,1.59-.59.63.49.12-.1.87.15.04,1.35-.17,1.69-.21.5.03.41.44.5.61.07.11.37.42.37.53.01.32-.49,2.35-.86,2.23-.16-.8.49-1.69-.31-1.02-.37.31-.99,1.49.18.29.33.91-1.4,2.53-1.91,2.24-.07-.04-.26-.89-.3-1.06q-.11.03-.21.05c.22,1.13,0,1.74.47,1.85.04.3-.39-.74-.68,1.23-.01.1.34-.14.26.16-.72,1.24-2.57,3.29-2.71.57-.04-.83.35-2.28.61-3.09-.19-.52-.7,1.51-1.53,1.04-.07.33-.26.6-.41.9-.75,1.57-.43,1.61-1.75-.6-.61-.06-1.19-.05-1.8.03q.47.55.94,1.11c-.31.95-.81,1.81-1.37,2.63,1.5.06,2.89.39,4.01,1.16.07.04.13.07.2.11.17.04.33.08.5.13.3-1.12.78-2.26,1.55-1.76.09.06.28,1.31.38,2.19.32.06.64.11.97.15.49-.7.95-1.37.98-1.45.33-.78-1,1.24-1.74,1.09-.41-.87.73-4.14,1.63-3.85,1.11.36,0,2.16.47,2.05q1.49-2.14,2.97-4.28c.15-1.86.6-1.19.68-1.23.06-.04.43-.8.78-1.21.08-.09.15.2.28.07.92-.95.24-1.2-.64-.25-.08.09-.23,1.01-.5.43-.11.28.03.43-.37.51-1.63-1.37-.26-.41-.17-.78-.9-.61.15-.85-.14-1.97-.04-.17-1.43-2.17.84-2.59Z"/><path class="cls-5" d="m29.07,27.19s.02-.09.04-.14c-.17-.04-.34-.08-.5-.13.16.09.31.18.46.26Z"/><path class="cls-8" d="m27.51,26.65c.36-.87.66-1.7.64-1.89-.01-.09-.78-.87-.88-1.15-.37.64-.85,2.18-1.43,2.55-.01.03-.02.07-.02.1.56.11,1.13.24,1.7.38Z"/><path class="cls-8" d="m28.03,26.37c-.09,0-.2.14-.31.33.24.06.48.12.73.18-.09-.32-.23-.53-.42-.51Z"/><path class="cls-8" d="m35.75,19.12c.54-.05.03.96-.24,1.68-.02.05-.69.82-.16.91.11.02,1.32-1.11-.41.9l-.68-1.99c.19-.18,1.38-1.49,1.49-1.49Z"/><path class="cls-8" d="m34.03,21c.66.63.37,2.01-.06,2.62-.58.82-1.81-1.44.06-2.62Z"/><path class="cls-5" d="m25.84,26.17s-.09.05-.13.08c.03,0,.07.01.1.02,0-.03.01-.07.02-.1Z"/><path class="cls-8" d="m25.93,22.12c.63-.03,1.07,1.1,1.07,1.19-.01.49-.84,1.81-1.09,2.38-.79-.69.41-2.16.31-2.86-.03-.19-1.02-.67-.28-.71Z"/><path class="cls-8" d="m24.37,26.05c.22.02.44.05.66.08,0-.5-.32-.44-.66-.08Z"/><path class="cls-8" d="m28.93,22.01c.87-.24,1.16,1.82-.83,1.89-.14-.18.72-1.86.83-1.89Z"/><path class="cls-7" d="m28.38,22.48c-.75,1.57-.43,1.61-1.75-.6.69.07,1.19.19,1.75.6Z"/><path class="cls-8" d="m35.52,14.1c.09.01.28.03.32.12-.24,2.14-2.27,1.24-1.15.23.03-.03.78-.36.83-.36Z"/><path class="cls-10" d="m31.3,27.52c-.03-.44-.08-.86-.13-1.06-.7.13-1.33-.35-1.9-.72-.18.51-.23.89-.21,1.3.74.18,1.48.35,2.24.48Z"/><path class="cls-8" d="m31.17,26.46c-.7.13-1.33-.35-1.9-.72.75-2.1,1.59-.74,1.9.72Z"/><path class="cls-8" d="m29.23,24.17c.79.16.13,1.59-.25,1.93-.12-.37-.59-2.1.25-1.93Z"/><path class="cls-8" d="m36.77,12.99c.2,1.83-.82.95-.8.66,0-.05.72-.51.8-.66Z"/><path class="cls-11" d="m32.59,22.96c.06-.01.24.05.22.1-.02.11-.41-.06-.22-.1Z"/><path class="cls-5" d="m45.11,9.75c.96.01,1.04-.42,1.42-.12-.17.21-.24.18-.24.19-.66-.07-1.23,1.12-.63,1.44-.84.18-1.79,0-1.95.05-.18.06-.44.52-.71.73.07-.51,1-1.14,1.04-1.5.01-.1-.59-1.77-.73-1.81-.03,0-.55.1-.57.12-.12.11-.32,3.4.26,3.19-.54.41-.16-.13-1.14-.21-.77,1.27-.04,1.89-.08,2.07-.02.13-1.43,1.66-1.56,2.02-.26-.24-.17-1.26-.41-1.44-.54-.39-.78.15-.95.48-.29-.06.21-.91.38-1.2.01-.02.39-.15.45-.24.22-.96,1.21-3.58-.62-3.57-.2,0-.69.58-.9.69-.08.04-.21.07-.3.03l-1.04-1.53.02-.09s.12.04.19.04l.33.08c.42-.64.93-.21,1.54-.24,1.44-.07,3.9-.59,1.07.74-.14,0-.76.09-.51.28l1.17.32-.66-.6c.17,0,1.3.16,1.39.22.12.08.68,2.32,1.11,1,.48-1.47-.61-1.54-.91-2.1,1.49-.02,1.81-.48,1.9-.5.23-.06.42,0,.66-.05.09.7-.56.06-.32.52.19.36,1.89.25.57.78.12.32.2.21.74.22Z"/><path class="cls-8" d="m42.99,12.05c-.58.21-.38-3.08-.26-3.19.02-.02.54-.12.57-.12.14.04.74,1.71.73,1.81-.04.36-.97.99-1.04,1.5Z"/><path class="cls-8" d="m40.73,12.82c-.25.98.27,0,.59.24.69.5-1.28,3.37-1.2,1.96.02-.43.44-.99.38-1.2-.12-.38-.72.57-.54-.67l.77-.32Z"/><path class="cls-9" d="m40.73,12.82l-.77.32c.04-.29.79-2.79.98-2.75.74,1.21.05,1.42-.21,2.43Z"/><path class="cls-8" d="m37.7,8.94c.88.52,2.48.18.75,1.07l-.75-1.07Z"/><path class="cls-1" d="m39.97,9.66l.66.6-1.17-.32c-.25-.19.37-.28.51-.28Z"/><path class="cls-8" d="m44.72,9.96c.09.26.66.07.65.4-.01.54-.76-.02-.65-.4Z"/><path class="cls-7" d="m39.46,13.81c.09.02.16.36,0,.4-.36.09-.18-.44,0-.4Z"/><path class="cls-8" d="m29.88,16.37l.74.22c-.9.07.4.36-.29.83-.2.14-1.56.07-1.73-.25.01-.03.05-.59.06-.68.19.22.18.04.19.04.25.03.48.05.71.16.39-.25-.3-.16.32-.32Z"/><path class="cls-4" d="m22.82,24.18c-.1.26-.2.43-.2.45-6.73-2.06-13.53-3.9-20.34-5.68-.04-.29-.12-.64-.18-.94,6.89,1.71,13.75,3.56,20.4,6.09.34.03.81-1.55.67-1.63-1.97-.3-6.95-2.09-8.14-2.17-.08,0-.4.35-.56.27-.08-.04-.13-.61-.15-.63-.29-.22-6.06-1.47-7-1.71l.09-1.27c5.41,1.47,10.78,3.06,16.21,4.43.43,1.03,1,.33.99.67-.75-.27-1.52,1.46-1.78,2.12Z"/><path class="cls-8" d="m23.76,26.58c.13-.18.26-.37.39-.55-.18-.01-.36-.02-.54-.03.05.22.1.42.15.58Z"/><path class="cls-8" d="m24.83,21.91c.61-.08,1.18-.09,1.8-.03.69.07,1.19.19,1.75.6.14-.3.34-.57.41-.9-.3-.17-.4-.93-.73-1.16-.51-.36-.38-.1-.7.04-.16.07.38.36-.91.09-.01.06-.01.17-.09.18-.3.03-4.79-.87-6.07-.8-.26-1.3-1.95-1.19-3.46-1.59-3.96-1.07-7.93-2.08-11.87-3.23-.58.06-2.17.17-2.13.6,1.34.37,2.67.76,4.01,1.12.19.05.38.08.57.13,5.41,1.47,10.78,3.06,16.21,4.43.43,1.03,1,.33.99.67-.75-.27-1.52,1.46-1.78,2.12.4.19.61,1.11.79,1.83.18,0,.36.01.54.03.65-.94,1.26-1.91,1.62-3.01q-.47-.55-.94-1.11Z"/><path class="cls-3" d="m6.74,18.1c.19.05.38.08.57.13.94.24,6.72,1.49,7,1.71.03.02.07.59.15.63.16.08.47-.27.56-.27,1.19.08,6.17,1.88,8.14,2.17.13.09-.34,1.66-.67,1.63-6.64-2.53-13.51-4.37-20.4-6.09-.04-.21-.21-.92-.25-1.05,1.32,0,3.4.74,4.9,1.13Z"/><path class="cls-4" d="m2.82,15.7c1.34.37,2.67.76,4.01,1.12l-.09,1.27c-1.5-.39-3.58-1.13-4.9-1.13-.33-.91-1.21-.82-.61-1.68.13-.19,1.29.33,1.59.42Z"/><path class="cls-7" d="m16.81,17.93v.4c-3.95-1.07-7.93-2.08-11.86-3.23.33-.03.71-.21,1.05-.25,3.6,1.04,7.2,2.1,10.81,3.09Z"/><path class="cls-4" d="m7.4,16.96l-.09,1.27c-.19-.05-.38-.08-.57-.13l.09-1.27c.19.05.38.08.57.13Z"/><path class="cls-8" d="m26.44,20.55c-.01.06-.01.17-.09.18-.3.03-4.79-.87-6.07-.8-.26-1.3-1.95-1.19-3.46-1.59v-.4c2.75.75,7.26,2.11,9.62,2.61Z"/><path class="cls-9" d="m44.31,6.79c0,.5-.62.16-.89.19-1.03.11-2.11.5-3.13.67-.05,0-.4-.2-.66-.15-.09.02-.08.18-.09.18-.2.04-1.07.11-1.15.23-.43.72.77.31,1.06.34.05,0,.61.51.6.19,0-.11-.3-.01-.24-.25.05-.18,3.09-.63,3.27-.19.38-.02.88-1.14.38.29-.1.03-.41.48-1.9.5.3.56,1.39.62.91,2.1-.43,1.32-.99-.92-1.11-1-.09-.06-1.22-.22-1.39-.22,2.83-1.33.36-.81-1.07-.74-.62.03-1.12-.4-1.54.24l-.33-.08c.36-.26.48-1.15.26-1.33-.19-.15-.53.27-.56.27-.73.01-1.33-.61-.33.37-.21.05-.45-.07-.67-.1-.79-.12-6.36-1.7-8.14-2.17-.19-.05-.38-.08-.57-.13-.5-.13-.98-.31-1.49-.44l1.54.21c-.79-.71-2.77-2.54-.52-.96-.65-1.36,2.52.48,3.13-.42-1.39-1.11.61-.47,2-.93-.88-.94-8.33-.49-8.6-.84-.1-.13.14-.47.04-.59-.16-.18-2.71-.66-3.22-.89-.16-.29,2.61-.01,2.9-.08l.47-.09c2.91.98,5.97,1.45,8.92,2.25.07.02-.02.19.05.21,4.03,1.09,8.04,2.35,12.08,3.38Z"/><path class="cls-8" d="m46.34,7.45c.09.05.23.04.33.08.17.21-.53.51-.73.78-.04.06-.08.48-.28.78-.21-1.06-.09-.36-.66-.35-.03,0-.22-.27-.54-.22-.79.1.87.46.88.7-.08.09-.2.39-.22.54-.54,0-.62.1-.74-.22,1.32-.53-.38-.41-.57-.78-.24-.46.41.18.32-.52-.23.04-.43-.01-.66.05.5-1.43,0-.31-.38-.29-.18-.44-3.23.01-3.27.19-.06.24.24.14.24.25,0,.32-.55-.18-.6-.19-.3-.03-1.49.38-1.06-.34.36.46,1.99.29,1.15-.23.01,0,0-.16.09-.18.26-.05.61.16.66.15,1.03-.17,2.1-.56,3.13-.67.27-.03.88.31.89-.19.38.1.43.2.45.2.18.02.07-.32.3-.23-.12.48.55.32,1.28.69Z"/><path class="cls-11" d="m45.66,9.08c-.11.16-.18-.03-.33.12,0-.24-1.67-.6-.88-.7.32-.04.51.23.54.22.57,0,.45-.71.66.35Z"/><path class="cls-8" d="m37.02,9.08c-.07,0-.15-.05-.19-.04-.07.01-.56-.22-1.24.41l.12-1.16c.22.03.46.16.67.1-1-.98-.39-.36.33-.37.03,0,.37-.42.56-.27.23.18.1,1.07-.26,1.33Z"/><path class="cls-8" d="m38.39,7.91c.07-.12.95-.2,1.15-.23.84.52-.79.7-1.15.23Z"/><path class="cls-3" d="m22.34,4.71l-1.66,1.16c.08.17,2.6.67,2.75.78.05.04-.32.4.17.34.09-.01.21.12.23-.15.41-.01,2.26.5,2.83.65.35.09.74.26,1.11.35,1.62.42,3.27.79,4.88,1.22l-.88,2.08c-.67-.17-1.5-.37-2.15-.59.55-.25-.44-1.41-1.47-.54-.2-.14-.8-1.16-.87-1.19-.29-.17-4.14-.5-4.92-.64-2.96-.54-5.91-1.25-8.86-1.84,0-.75-.26-1.66-.23-2.44,1.33.39,2.67.78,4.01,1.12.92.24,1.1.15,1.15.17.39.1,2.7,1.26,1.94.2l1.57-.78c.12.03.25.05.38.09Z"/><path class="cls-4" d="m28.17,10.02c.32.22,1.04.39,1.47.54.65.22,1.47.42,2.15.59,1.04.27,2.31.38,2.5.78-.14.39-.22.52-.22.54-6.79-2.12-13.64-3.97-20.6-5.44.02-.22.06-.46.06-.68,2.95.59,5.9,1.31,8.86,1.84.77.14,4.63.47,4.92.64.06.04.67,1.06.87,1.19Z"/><path class="cls-6" d="m25.52,5.54c.5.13.98.31,1.49.44l-.35,1.51c-.57-.15-2.42-.66-2.83-.65-.14,0-.46-.13-.23.15-.49.06-.12-.3-.17-.34-.15-.11-2.67-.61-2.75-.78l1.66-1.16c1.06.28,2.12.55,3.18.83Z"/><path class="cls-6" d="m18.14,3.54c-.28.54-.82.8-.84,1.49-1.34-.35-2.69-.73-4.01-1.12-.02-.59-.68-.55-.73-.71-.02-.06.22-1.04.3-1.07.25-.1,4.6,1.24,5.28,1.42Z"/><path class="cls-6" d="m21.96,4.62l-1.57.78c.75,1.06-1.55-.1-1.94-.2l.14-1.46c1.12.3,2.25.58,3.37.88Z"/><path class="cls-4" d="m18.59,3.74l-.14,1.46c-.06-.01-.24.07-1.15-.17.02-.69.56-.95.84-1.49.59.16.43.2.45.2Z"/><path class="cls-4" d="m35.72,8.28l-.12,1.16c.67-.63,1.17-.4,1.24-.41l-.02.09c-.8.38-1.86,1.4-2.28,2.16-.88.14.27-.72.7-1.53-.86-.21-1.71-.46-2.57-.69-1.62-.43-3.26-.8-4.88-1.22l-.2-1.73c1.78.48,7.35,2.06,8.14,2.17Z"/><path class="cls-4" d="m27.58,6.11l.2,1.73c-.37-.1-.76-.26-1.11-.35l.35-1.51c.19.05.38.08.57.13Z"/><path class="cls-6" d="m34.53,11.29s-.02.14-.04.19c-.09.17-.14.26-.2.45-.2-.4-1.46-.51-2.5-.78l.88-2.08c.86.23,1.71.48,2.57.69-.43.81-1.58,1.66-.7,1.53Z"/><path class="cls-3" d="m29.63,10.56c-.43-.15-1.14-.31-1.47-.54,1.03-.88,2.02.29,1.47.54Z"/><path class="cls-5" d="m23.84,6.84c-.02.27-.14.13-.23.15-.23-.28.1-.14.23-.15Z"/><path class="cls-8" d="m28.56,17.36l.88,1.35c-1.12,2.47-.39,2.03-1.27,1.64-1.61-.71-1.4-.69-.53-2.01.05-.08.1-.18.16-.26.63-.96.74-.67.76-.72Z"/><path class="cls-8" d="m33.31,15.28c-.66.13-.78-.1-.82-.09-1.13.2-2.25.73-3.49.29.08-.15.34-.17.56-.27.09-.04.42-.1.75-.23.78-.3,2.44-.56,2.49-1.31.45.05,1.04.19,1.39.02,1.01.76.03,1.41-.86,1.59Z"/><path class="cls-5" d="m27.35,20.46c-.16.07.38.36-.91.09-2.36-.51-6.87-1.87-9.63-2.61-3.61-.98-7.21-2.05-10.81-3.09.02-.22.08-.57.08-.78.01-.06.02-.18.09-.18.31,0,5.33,1.3,6.11,1.51,4.81,1.27,9.53,2.9,14.33,4.19.25.17-.63.83.74.87Z"/><path class="cls-6" d="m11.53,14.13c.27.59,1.34.34,1.93.45.37.07,2.55.44,2.66.51.08.05.46,1.04.63,1.14,1.14.64,8.94,1.37,10.89,2.11-.87,1.32-1.08,1.3.53,2.01l-.12.07c-.51-.36-.38-.1-.7.04-1.38-.04-.5-.7-.74-.87-4.8-1.29-9.52-2.92-14.33-4.19-.78-.21-5.79-1.51-6.11-1.51-.07,0-.08.11-.09.18,0-.31-.04-.69-.07-1.01,1.1.43,2.3.67,3.26-.14.16.22.16.65.19.69.42.68,1.68.88,2.06.53Z"/><path class="cls-3" d="m11.34,12.8c.02.31.11,1.17.19,1.33-.39.36-1.64.16-2.06-.53-.02-.04-.02-.47-.19-.69-.96.81-2.16.57-3.26.14-.02-.24-.18-1.54-.22-1.64.23-.2.29-.14.56-.07,1.66.45,3.32.99,4.98,1.45Z"/><path class="cls-4" d="m28.66,16.49c0,.09-.05.65-.06.68-.05.13-.04.18-.04.19-.03.05-.13-.24-.76.72l.34-.82c-1.67-.33-3.29-.8-4.93-1.23l1.17-1.22c1.42.39,2.82.8,4.27,1.08.2.2.02.4.01.6Z"/><path class="cls-4" d="m23.44,14.59l-.61,1.35c-1.21-.32-2.45-.61-3.66-.94l-.22-1.64c1.5.4,2.99.82,4.48,1.23Z"/><path class="cls-5" d="m24.38,14.81l-1.17,1.22c-.12-.03-.25-.05-.38-.09l.61-1.35c.31.08.63.13.94.22Z"/><path class="cls-4" d="m18.96,13.36l.22,1.64c-.08-.02-.26-.14-.73-.27l-.05-1.5c.19.05.38.08.57.13Z"/><path class="cls-3" d="m18.44,14.73c.47.13.66.25.73.27,1.21.33,2.44.62,3.66.94.12.03.25.05.38.09,1.64.44,3.26.91,4.93,1.23l-.34.82c-.06.09-.11.18-.16.26-1.95-.74-9.74-1.47-10.89-2.11-.18-.1-.55-1.09-.63-1.14-.12-.07-2.29-.45-2.66-.51-.59-.1-1.66.15-1.93-.45-.08-.16-.17-1.03-.19-1.33,2.37.64,4.74,1.28,7.1,1.93Z"/><path class="cls-8" d="m18.3,9.73c1.9.68,3.9,1.07,5.83,1.64.48.28.93.57,1.47.74.47.55,1.32,1.1,1.96,1.64.62.54.74,1.29,1.72,1.39.24.02.32-.09.28.07-.21.1-.48.12-.56.27-.1.2.03.67-.14,1.06,0,0,0,.17-.19-.04,0-.2.19-.4-.01-.6-1.44-.28-2.85-.69-4.27-1.08-.31-.09-.63-.13-.94-.22-1.5-.41-2.99-.83-4.48-1.23-.19-.05-.38-.08-.57-.13-.12-.03-.25-.05-.38-.09-1.1-1.62-6.83-3.76-7.78-4.37-.07-.05-.3-.24-.12-.33.58-.06,1.13-.23,1.71-.3,1.76,1.08,4.06.96,5.92,1.66.39.15,4.33,2.53,4.5,3.32-.09-1.77-2.85-2.22-3.94-3.39Z"/><path class="cls-4" d="m18.01,13.14c.12.03.25.05.38.09l.05,1.5c-2.37-.65-4.73-1.29-7.1-1.93-1.66-.45-3.32-.99-4.98-1.45-.27-.07-.33-.14-.56.07-.33-.99-1.14.06-.43-1.79,4.18,1.29,8.42,2.37,12.65,3.51Z"/><path class="cls-10" d="m13.27,7.88c1.52.56,3.11.87,4.67,1.27-.38.74.25.54.36.58,1.08,1.17,3.85,1.62,3.94,3.39-.16-.79-4.11-3.17-4.5-3.32-1.87-.7-4.17-.58-5.92-1.66.26-.03.51-.09.77-.12-.22.96.21-.36.68-.14Z"/><path class="cls-10" d="m34.17,13.69c-.35.17-.93.03-1.39-.02-1.63-.18-3.28-.41-4.87-.82-.83-.21-.94-.41-.99-.43-.43-.13-.89-.17-1.32-.3-.54-.17-.98-.46-1.47-.74-1.93-.57-3.93-.96-5.83-1.64-.12-.04-.74.16-.36-.58,5.29,1.39,10.54,2.95,15.85,4.25.1.13.25.19.38.29Z"/><path class="cls-9" d="m27.91,12.84c.53.76,1.81,1.25,2.39,2.14-.33.13-.66.18-.75.23.03-.16-.04-.04-.28-.07l-2.35-2.73c.05.02.16.21.99.43Z"/><path class="cls-8" d="m26.92,12.42l2.35,2.73c-.98-.1-1.09-.85-1.72-1.39-.63-.55-1.49-1.1-1.96-1.64.43.13.89.17,1.32.3Z"/><path class="cls-8" d="m32.79,13.67c-.05.76-1.71,1.01-2.49,1.31-.57-.89-1.86-1.38-2.39-2.14,1.6.41,3.24.64,4.87.82Z"/><path class="cls-5" d="m33.12,16.13c-.21.45-.29.92-.42,1.39-.27.98-.37,1.2-.12,2.26l-.21.05c-.04-.22-.05-.93-.21-1.04-.16-.11-.83-.05-.86-.35.43-.38-.06-.57-.06-.61.03-.28.98-1.95-.15-1.28-.79.47-.6,1.9-.04,2.52-.46.51-.53.84-.74,1.47-.19-.52-.7,1.51-1.53,1.04-.3-.17-.4-.93-.73-1.16l.12-.07c.88.39.16.83,1.27-1.64l-.88-1.35s0-.06.04-.19c.17.32,1.53.39,1.73.25.69-.47-.61-.75.29-.83l-.74-.22c.59-.16,1.23-.21,1.82-.37l.5,1.7c.92-2.85.79-1.62.91-1.58Z"/><path class="cls-8" d="m29.74,18.92c.83-.42-.34,3-.85,2.39-.08-.1.73-2.33.85-2.39Z"/><path class="cls-11" d="m29.41,17.76c.11.04.28.04.38.09.35.19,1.15,2.71-.38-.09Z"/><path class="cls-7" d="m33.21,16.15s-.06-.01-.09-.02c-.11-.04.01-1.27-.91,1.58l-.5-1.7c-.59.16-1.24.22-1.82.37-.62.17.07.07-.32.32-.23-.12-.46-.13-.71-.16.17-.39.04-.86.14-1.06,1.24.44,2.36-.09,3.49-.29.04,0,.16.22.82.09-.59.63.49.12-.1.87Z"/><path class="cls-4" d="m32.8,15.56c.38.12-1.05.74-.92.33l.92-.33Z"/></g></svg>