<?xml version="1.0" encoding="UTF-8"?><svg id="Capa_2" xmlns="http://www.w3.org/2000/svg" xmlns:xlink="http://www.w3.org/1999/xlink" viewBox="0 0 28.55 28.55"><defs><style>.cls-1{fill:url(#Degradado_sin_nombre_294);}.cls-1,.cls-2,.cls-3,.cls-4,.cls-5,.cls-6,.cls-7,.cls-8,.cls-9,.cls-10,.cls-11,.cls-12,.cls-13,.cls-14,.cls-15,.cls-16,.cls-17,.cls-18,.cls-19,.cls-20,.cls-21,.cls-22,.cls-23,.cls-24,.cls-25,.cls-26,.cls-27,.cls-28,.cls-29,.cls-30,.cls-31,.cls-32,.cls-33,.cls-34,.cls-35,.cls-36,.cls-37,.cls-38,.cls-39,.cls-40,.cls-41,.cls-42,.cls-43{stroke-width:0px;}.cls-2{fill:url(#Degradado_sin_nombre_299);}.cls-3{fill:url(#Degradado_sin_nombre_295);}.cls-4{fill:url(#Degradado_sin_nombre_296);}.cls-5{fill:url(#Degradado_sin_nombre_298);}.cls-6{fill:url(#Degradado_sin_nombre_297);}.cls-7{fill:url(#Degradado_sin_nombre_300);}.cls-8{fill:url(#Degradado_sin_nombre_301);}.cls-9{fill:#f7f7f5;}.cls-10{fill:#f8f8f6;}.cls-11{fill:#9a9b85;}.cls-12{fill:#a3a590;}.cls-13{fill:#1a1b1f;}.cls-14{fill:#1b201c;}.cls-15{fill:#a8aa97;}.cls-16{fill:#c3c4b6;}.cls-17{fill:#cbccc1;}.cls-18{fill:#c7c8bc;}.cls-19{fill:#c5c6b9;}.cls-20{fill:#dfe0d9;}.cls-21{fill:#d6d6cd;}.cls-22{fill:#d3d3ca;}.cls-23{fill:#bebfb0;}.cls-24{fill:#bbbcae;}.cls-25{fill:#a4a692;}.cls-26{fill:#abac99;}.cls-27{fill:#bdbdaf;}.cls-28{fill:#d8d9d0;}.cls-29{fill:#a6a894;}.cls-30{fill:#b5b6a6;}.cls-31{fill:#9d9e89;}.cls-32{fill:#9e9f8a;}.cls-33{fill:#b3b4a3;}.cls-34{fill:#969780;}.cls-35{fill:#ecece8;}.cls-36{fill:#f1f1ee;}.cls-37{fill:#fff;}.cls-38{fill:#edede9;}.cls-39{fill:#e3e3dd;}.cls-40{fill:#e4e4de;}.cls-41{fill:#eeeeeb;}.cls-42{fill:#e6e6e0;}.cls-43{fill:#030303;}</style><linearGradient id="Degradado_sin_nombre_301" x1="7.06" y1="19.81" x2="5.33" y2="22.55" gradientUnits="userSpaceOnUse"><stop offset="0" stop-color="#040708"/><stop offset="1" stop-color="#aeaf9d"/></linearGradient><linearGradient id="Degradado_sin_nombre_300" x1="19.87" y1="15.36" x2="21.42" y2="21.64" gradientUnits="userSpaceOnUse"><stop offset="0" stop-color="#b5b6a6"/><stop offset="1" stop-color="#dedfd8"/></linearGradient><linearGradient id="Degradado_sin_nombre_299" x1="25.23" y1="8.89" x2="24.08" y2="14.91" gradientUnits="userSpaceOnUse"><stop offset="0" stop-color="#9d9e89"/><stop offset=".2" stop-color="#b4b5a5"/><stop offset="1" stop-color="#14191b"/></linearGradient><linearGradient id="Degradado_sin_nombre_298" x1="12.29" y1="18.58" x2="13.61" y2="24.7" gradientUnits="userSpaceOnUse"><stop offset=".23" stop-color="#bfc0b1"/><stop offset="1" stop-color="#dfe0d9"/></linearGradient><linearGradient id="Degradado_sin_nombre_297" x1="4.98" y1="12.9" x2="9.27" y2="17.34" gradientUnits="userSpaceOnUse"><stop offset="0" stop-color="#eeeeeb"/><stop offset="1" stop-color="#e0e1da"/></linearGradient><linearGradient id="Degradado_sin_nombre_296" x1="21.66" y1="3.81" x2="19.59" y2="5.21" gradientUnits="userSpaceOnUse"><stop offset="0" stop-color="#d2d2c8"/><stop offset="1" stop-color="#ecece8"/></linearGradient><linearGradient id="Degradado_sin_nombre_295" x1="20.08" y1="6.66" x2="19.7" y2="13.25" gradientUnits="userSpaceOnUse"><stop offset="0" stop-color="#e8e8e3"/><stop offset=".62" stop-color="#d6d6cd"/><stop offset="1" stop-color="#abac99"/></linearGradient><linearGradient id="Degradado_sin_nombre_294" x1="9.19" y1="7.29" x2="14.53" y2="10.46" gradientUnits="userSpaceOnUse"><stop offset="0" stop-color="#f8f8f6"/><stop offset="1" stop-color="#efefec"/></linearGradient></defs><g id="Capa_1-2"><circle class="cls-37" cx="14.27" cy="14.27" r="14.27"/><path class="cls-43" d="m22.8,21.64c.02.18-.03.29-.04.43-.03.35-.05.69-.15,1.04l1.19-.69c-.56.74-1.07,1.44-1.77,2.07-.23.21-1,.82-1.25.99-.15.1-.32.21-.47.3-.67.42-2.22,1.22-2.98,1.29-.15.01-.13,0-.22,0-1.24-.06-1.95-1.03-2.63-1.94v-.04c.45-.07,1.6-.84,1.96-1.17.66-.59.78-.9,1.19-1.6.03-.05.06-.11.13-.13.29.45,2.06.32,2.61.26.7-.08,1.86-.4,2.39-.86.04,0,.04.01.04.04Z"/><path class="cls-17" d="m9.55,23.45c.18.06.29.23.43.35,1.29,1.06,2.84,1.42,4.49,1.34.68.91,1.39,1.88,2.63,1.94-1.35.36-2.97.43-4.36.26-.55-.07-1.25-.21-1.77-.39-.02,0-.03-.03-.3-.13-.28-.1-1.14-.5-1.42-.65-1.61-.84-1.86-1.27-2.89-2.2v-.09l3.19-.43Z"/><path class="cls-17" d="m14.47,25.09v.04c-1.65.09-3.2-.28-4.49-1.34,1.12.48,3.32,1.48,4.49,1.29Z"/><path class="cls-41" d="m16.97,2.01c-.59.02-.5.27-.52.3-.04.06.03.06-.11.13-.74-.34-2.52-.38-3.19.09-.13-.13-.45-.05-.65,0-.97-.34-1.8.09-1.62-.52,1.82-.53,4.37-.85,6.08,0Z"/><path class="cls-41" d="m2.99,18.75c.55,2.02,1.91,3.68,3.37,5.13v.09c-.07-.06-.19-.04-.19-.04-1.69-1.55-2.66-2.92-3.52-5.05.13.09.11.01.13,0,0,0,.02-.07.13-.13.02,0,.07,0,.09,0Z"/><path class="cls-28" d="m25.56,8.95c.6,1.31.73,1.99.95,3.41l-.22-.04c-.11-1.15-.46-2.24-.95-3.28l.22-.09Z"/><path class="cls-22" d="m25.56,8.95l-.22.09c-.14-.3-.38-.57-.52-.86-.08-.16-.14-.32-.22-.47-.1-.2-.2-.41-.3-.6-.05-.09-.12-.28-.13-.39.06-.08.53.63.69.88.26.43.48.9.69,1.36Z"/><path class="cls-27" d="m24.18,6.71c.01.11.08.29.13.39l-.17.09c-.14-.37-.2-.75-.3-1.12l.35.65Z"/><path class="cls-17" d="m26.51,12.36s.11.13.17.56l-.35-.09c0-.18-.03-.34-.04-.52l.22.04Z"/><path class="cls-17" d="m26.6,15.77c-.34,2.68-1.2,4.53-2.8,6.65l-1.19.69c.1-.34.12-.68.15-1.04.6-.13,1.88-1.4,1.68-2.01-.21-.65-.64.44-.91.82-.13.19-.6.84-.73.76,0-.03,0-.05-.04-.04.54-.47,1.14-1.65,1.38-2.33.42-.02.33-1.28.43-1.4.66-.25.82-1.17.95-1.47,0-.01.22-.05.22-.17,0-.02-.19-.31-.22-.19.01-.01-.02-.09.17-.26.28-.25.24-.15.91,0Z"/><path class="cls-28" d="m22.76,22.07c.01-.14.06-.25.04-.43.13.08.6-.56.73-.76.26-.38.69-1.47.91-.82.2.61-1.09,1.88-1.68,2.01Z"/><path class="cls-28" d="m26.68,12.92c.1.95.03,1.9-.09,2.85-.66-.15-.62-.25-.91,0,.54-1.06.68-1.75.65-2.93l.35.09Z"/><path class="cls-30" d="m24.14,19.27c.09-.27.18-.53.26-.8.11-.52.03-.69.04-.86,0-.03.08,0,.09-.06.4-.2.49-.69.82-.97l-.13-.15c.06-.07.19-.25.22-.35.01-.01.08-.03.09-.04.03-.12.22.18.22.19,0,.12-.21.16-.22.17-.13.3-.29,1.22-.95,1.47-.1.12,0,1.38-.43,1.4Z"/><path class="cls-26" d="m24.53,17.54c0-.1,0-.2,0-.3v-.17c.2-.14.35-.34.52-.52.04-.04.13-.08.17-.13l.13.15c-.33.28-.42.77-.82.97Z"/><path class="cls-39" d="m4.11,10.07c-.02.74.22,1.94-.04,1.77h-.04c-.02-.24-.15-.45-.17-.69-.03-.33,0-.92.09-1.23.12-.47.01.14.17.15Z"/><path class="cls-12" d="m3.6,8.82s-.17.1-.22.13c-.03-.08-.06-.12-.13-.17-.17-.11.44-.33.47-.24-.07.08-.06.2-.13.28Z"/><path class="cls-41" d="m3.12,9.04c.07.01.21-.06.26-.09.05-.03.21-.12.22-.13.28.49-.23,1.84.26,2.33.02.24.16.45.17.69.07,1.11-.39,3.39-.39,4.66l-1.17,1.98c-1.15-3.11-1.06-6.7.39-9.71.15.04.1.23.26.26Z"/><path class="cls-28" d="m3.77,16.5c-.23.4-.39.84-.6,1.25-.15.3-.47.39-.35.78-.12-.12-.21.28-.04.35-.02.01,0,.09-.13,0-.05-.13-.12-.25-.17-.39l1.17-1.98s.09,0,.13,0Z"/><path class="cls-9" d="m3.12,9.04c-.15-.03-.11-.22-.26-.26.04-.08.08-.08.09-.09-.04.07.19.25.17.35Z"/><path class="cls-20" d="m4.37,12.49c-.04.05-.09.05-.13.11,0,.14-.06.28-.09.41-.02.12-.16,1.62-.17,1.88-.03.57.09,1.31-.09,1.62-.01,0-.08,0-.13,0-.04,0-.09,0-.13,0,0-1.27.46-3.55.39-4.66h.04l.3.65Z"/><path class="cls-35" d="m3.25,8.78c.07.05.1.09.13.17-.05.03-.19.1-.26.09.02-.1-.21-.27-.17-.35.03-.07.24.04.3.09Z"/><path class="cls-31" d="m12.62,4.85c-.04.18-.08.38-.13.56,0,.02,0,.05-.04.04l-.35.04c.12-.2.15-.43.22-.65.02-.06.07-.07.09-.13l.22.13Z"/><path class="cls-41" d="m10.89,2.01c-.18.61.65.18,1.62.52.2-.05.52-.13.65,0,.67-.47,2.46-.43,3.19-.09.13-.07.06-.07.11-.13.13.06.38.03.39.22-.39-.19-.22-.04-.09.17-.06-.03-.11-.06-.17-.09-.86-.39-2.9-.58-3.62.13,0,0-.04-.04-.17.15-.12.6-.21,1.24-.39,1.83-.02.06-.07.07-.09.13-1.29.76-2.76,1.22-3.88,2.24-.51-.14-2.16-.32-2.33-.39-.06-.02-.05-.15-.17-.13,0,0-.03-.1.06-.09.07.01.05.21.24.02.02-.63.55-1.95.26-1.88.04-.15.17-.29-.04-.3,1.34-1.09,2.78-1.84,4.44-2.33Z"/><path class="cls-36" d="m10.35,4.21c.68-.03,1.36.06,2.03.13.19.64-1.96,1.35-2.63,1.73-.48.27-.9.63-1.34.95-.67-.14-2.68-.3-.67-.54.12-1.84.91-2.19,2.61-2.27Z"/><path class="cls-17" d="m12.31,4.85c-.07.22-.09.45-.22.65-.81.19-2.97,1.1-3.41,1.73-.09-.04-.24-.13-.26-.13,1.12-1.02,2.59-1.48,3.88-2.24Z"/><path class="cls-9" d="m6.49,4.64c-.1.36-.3.69-.43,1.04l-1.08,1.7.09.06c-.19.21-.56.58-.3.6-.05.06-.25.28-.26.3.17-.4-.65.06-.69.15-.24.5.49-.07.6.06-.26.56-.29.92-.3,1.51-.16-.01-.05-.62-.17-.15-.08.31-.12.9-.09,1.23-.49-.49.02-1.84-.26-2.33.07-.08.06-.2.13-.28-.03-.09-.64.12-.47.24-.06-.04-.27-.15-.3-.09.85-1.71,2.01-3.15,3.5-4.36.22.02.09.15.04.3Z"/><path class="cls-41" d="m5.93,6.58c-.08.03-.12.04-.13.04.05-.28.16-.68.26-.95.13-.35.33-.67.43-1.04.29-.07-.24,1.24-.26,1.88-.18.19-.17-.01-.24-.02-.09-.01-.06.08-.06.09Z"/><path class="cls-20" d="m6.1,6.71c0,.05-.06.07-.09.09-.2.15-.85.75-.95.95-.12.08-.21.19-.3.3-.26-.03.12-.39.3-.6.11-.12.69-.79.73-.82,0,0,.05-.01.13-.04.12-.03.11.1.17.13Z"/><path class="cls-10" d="m5.8,6.62s-.63.7-.73.82l-.09-.06,1.08-1.7c-.1.27-.21.66-.26.95Z"/><path class="cls-35" d="m4.5,8.35s-.06.17-.09.22c-.11-.13-.85.43-.6-.06.04-.09.86-.55.69-.15Z"/><path class="cls-34" d="m2.82,18.53c.02.07.12.09.09.22-.11.06-.12.12-.13.13-.17-.07-.08-.46.04-.35Z"/><path class="cls-8" d="m4.33,17.11c.93,1.03,1.82,1.68,3.02,2.37.28.16.56.33.86.43l.04.13c-.14.02-.02.73.04.99.06.23.18.43.26.65.19.49.48,1.17.82,1.55,0,.01-.02.11.17.22l-3.19.43c-1.45-1.45-2.82-3.12-3.37-5.13.08-.06.03-.08.17-.06-.11-.24.38-.84.56-1.19.14-.02.2-.11.37-.04.05.02.58.58.71.69.67.58,1.34,1.2,2.16,1.58-.69-.61-1.39-1.22-2.07-1.83-.45-.41-.34-.64-.99-.52.05-.19.63-.1.35-.24l.09-.02Z"/><path class="cls-33" d="m3.73,17.5c-.18.35-.68.95-.56,1.19-.15-.01-.09,0-.17.06-.01,0-.07,0-.09,0,.03-.12-.06-.14-.09-.22-.12-.39.19-.48.35-.78.13,0,.18-.18.47-.3,0,.05.04.05.09.04Z"/><path class="cls-43" d="m3.9,16.5s.33.5.43.6l-.09.02c.28.14-.3.04-.35.24-.09.02-.17.05-.26.09-.3.12-.34.3-.47.3.21-.41.38-.85.6-1.25.05,0,.12,0,.13,0Z"/><path class="cls-33" d="m4.81,18.14l.09-.26c.69.62,1.38,1.22,2.07,1.83-.82-.38-1.48-.99-2.16-1.58Z"/><path class="cls-16" d="m4.89,17.88l-.09.26c-.13-.11-.67-.67-.71-.69-.17-.07-.22.03-.37.04-.05,0-.09,0-.09-.04.09-.03.17-.07.26-.09.66-.12.54.11.99.52Z"/><path class="cls-7" d="m23.4,14.43s0,0,.04.04c.16.52.55.93.73,1.45.2.57.24,1.23.26,1.29.01.03.06.02.09.02,0,.1,0,.2,0,.3,0,.07-.08.03-.09.06-.01.17.06.34-.04.86-.08.27-.17.53-.26.8-.24.68-.84,1.86-1.38,2.33-.54.47-1.7.78-2.39.86-.55.06-2.32.19-2.61-.26-.01-.02.02-.07-.13-.35-.07-.64-.66-1.59-.91-2.31,0-.07.1-.44.13-.54.26-.75,1.8-2.92,2.24-3.75.55-.3,3.55-.99,4.32-.82Z"/><path class="cls-28" d="m19.09,15.25c-.45.84-1.98,3.01-2.24,3.75-.18-.12.02-.28-.22-.43.09-.23,1.17-1.97,1.51-2.59.3-.13.09.18.24.17.06,0,.35-.71.71-.91Z"/><path class="cls-28" d="m16.84,19.01c-.03.09-.13.47-.13.54.25.72.84,1.67.91,2.31-.2-.38-1-2.32-1.17-2.42-.01-.31.07-.58.17-.86.23.15.04.31.22.43Z"/><path class="cls-36" d="m22.89,13.79c.18.22.36.41.52.65-.76-.17-3.76.52-4.32.82-.36.19-.65.9-.71.91-.15,0,.06-.31-.24-.17.03-.05.06-.08.09-.13.17-.31.33-.62.47-.95.1-.05.2-.04.22-.13.62-.02,2.62-.7,3.45-.91.17-.04.35-.07.52-.09Z"/><path class="cls-24" d="m18.7,14.91c-.14.33-.3.64-.47.95-.13.03-.05-.08,0-.22.12-.32.19-.59.47-.73Z"/><path class="cls-2" d="m24.83,8.18c.14.29.37.56.52.86.49,1.04.84,2.13.95,3.28.02.18.04.34.04.52.04,1.19-.11,1.88-.65,2.93-.19.17-.16.25-.17.26-.01,0-.07.03-.09.04-.02.01-.06.03-.09.04-.39-.7-1.38-2-1.55-2.7-.27-1.11.06-3.07-.65-4.32l1.25-1.06c.26.18.55.45.43.13Z"/><path class="cls-15" d="m24.61,7.7c.08.16.14.32.22.47.12.32-.17.05-.43-.13-.22-.15-.45-.34-.65-.52.06-.05.21-.24.39-.3.08.2.21.6.47.47Z"/><path class="cls-15" d="m24.61,7.7c-.26.12-.39-.27-.47-.47,0-.01,0-.03,0-.04l.17-.09c.1.2.2.4.3.6Z"/><path class="cls-43" d="m23.75,7.53c.2.18.43.36.65.52l-1.25,1.06c.7,1.24.38,3.2.65,4.32.17.7,1.17,1.99,1.55,2.7-.35.2-.55.05-.95.13-.18-.65-.58-1.22-.95-1.77-.03-.05-.04-.04-.04-.04-.16-.24-.34-.43-.52-.65-.06-.07-.07-.19-.13-.26.11-.19.17-.43.22-.65.19-.89.2-1.99.09-2.89-.08-.67-.24-1.39-.65-1.94l.09-.09c.09.11.21.2.24.35.07.03.27-.26.32-.3.01-.01.07-.03.09-.04.2-.15.41-.28.6-.43Z"/><path class="cls-28" d="m24.4,16.24c.03.09.03.21.04.3.03.17.08.34.09.52v.17s-.07.01-.09-.02c-.02-.06-.06-.73-.26-1.29-.18-.51-.58-.92-.73-1.45.37.55.77,1.12.95,1.77Z"/><path class="cls-32" d="m23.21,8.18c.31,0-.55.95-.41.37,0-.03.38-.37.41-.37Z"/><path class="cls-14" d="m25.22,16.42s-.13.09-.17.13c-.11-.18-.4-.19-.6,0-.02-.09-.02-.21-.04-.3.4-.08.59.07.95-.13.02-.01.07-.03.09-.04-.03.09-.15.28-.22.35Z"/><path class="cls-43" d="m25.04,16.55c-.17.18-.32.37-.52.52,0-.18-.05-.35-.09-.52.2-.19.5-.18.6,0Z"/><path class="cls-5" d="m14.99,19.14c.33.23.84.43,1.25.41.43.94.8,1.92,1.38,2.78-.41.69-.52,1-1.19,1.6-.37.33-1.52,1.09-1.96,1.17-1.17.19-3.37-.82-4.49-1.29-.14-.12-.25-.28-.43-.35-.19-.11-.16-.2-.17-.22-.5-.74-.14-.71-.13-.76,0-.06-.28-.82-.69-.8-.08-.22-.2-.41-.26-.65.84.48.26-.06.39-.78.62-.31,2.62-1.95,2.78-1.98,1.17.3,2.34.59,3.52.86Z"/><path class="cls-26" d="m15.38,19.18c.33.08.65.2.99.22l.09.04c.17.1.96,2.04,1.17,2.42.14.27.12.33.13.35-.06.02-.1.08-.13.13-.58-.86-.95-1.85-1.38-2.78-.41.02-.93-.18-1.25-.41.08.02.28.02.39.04Z"/><path class="cls-41" d="m8.3,20.04c-.03.15.17.39.19.39.01,0-.01-.07.19-.17-.13.72.45,1.26-.39.78-.06-.26-.18-.97-.04-.99h.04Z"/><path class="cls-41" d="m9.38,23.24c-.34-.38-.63-1.07-.82-1.55.41-.02.7.74.69.8,0,.05-.37.01.13.76Z"/><path class="cls-17" d="m16.37,19.39c-.34-.01-.66-.14-.99-.22-.67-.41-1.47-.6-2.2-.91.46,0,1.09.29,1.58.43.68.2,1.38.13,1.62.69Z"/><path class="cls-36" d="m11.36,17.5l.43.13c.4.25.94.46,1.38.65.73.31,1.53.5,2.2.91-.11-.03-.3-.02-.39-.04-1.18-.27-2.35-.56-3.52-.86-.17.03-2.17,1.68-2.78,1.98-.21.1-.18.17-.19.17-.02,0-.22-.24-.19-.39.04-.19,2.8-2.46,2.98-2.55.02,0,.06,0,.09,0Z"/><path class="cls-35" d="m11.8,17.63l-.43-.13s-.07-.12.19-.09c.22.02.22.21.24.22Z"/><path class="cls-20" d="m8.34,10.68c.42.53,1.28,1.17,1.86,1.55,0,0,.09.13.15.17,0,0,.04-.06.06-.04.11.07.23.16.35.22.12.6.63.88.3.95-.09.02-.19-.05-.17.09,0-.03-.13-.04-.09-.63l-.91-.67c-.58-.6-1.34-1-1.9-1.6.1.02.13-.03.17-.04.05-.01.12,0,.17,0Z"/><path class="cls-6" d="m8.17,11.63c.48.45,1.27,1.41,1.92,1.98.2.17.62.54.8.52.04.56.01.97.09,1.64-.17,0-.15.57-.35.93-.36.65-2.4,2.22-3.11,2.65-.06.04-.16.05-.17.13-1.2-.69-2.09-1.34-3.02-2.37-.1-.11-.4-.59-.43-.6.17-.31.05-1.04.09-1.62.02-.26.15-1.76.17-1.88.26-.02.59-.57.93-.78.39-.24,2.06-.72,2.68-.99.13.14.27.26.41.39Z"/><path class="cls-30" d="m10.98,15.77c.06.58.19,1.15.3,1.73-.18.09-2.94,2.35-2.98,2.55h-.04l-.04-.13c.13.03.29-.51.19-.56-.36-.02-.55.2-.88,0,.71-.43,2.75-2,3.11-2.65.19-.36.18-.92.35-.93Z"/><path class="cls-19" d="m8.21,19.91c-.31-.11-.58-.27-.86-.43.02-.08.11-.09.17-.13.34.2.53-.02.88,0,.1.05-.06.59-.19.56Z"/><path class="cls-9" d="m9.9,12.32l.91.67c-.05.58.08.59.09.63.02.17-.01.35,0,.52-.17.03-.6-.34-.8-.52-.65-.57-1.44-1.54-1.92-1.98.86.14,1.29.69,1.36.73.02.01.2.03.22.04.44.27.79.57.15-.09Z"/><path class="cls-10" d="m8,10.72c.56.6,1.32,1,1.9,1.6.64.65.29.36-.15.09-.02-.01-.2-.03-.22-.04-.07-.04-.5-.6-1.36-.73-.14-.13-.28-.25-.41-.39-.62.27-2.28.76-2.68.99-.34.2-.67.76-.93.78.02-.13.09-.27.09-.41.04-.06.09-.05.13-.11.53-.71,2.7-1.6,3.62-1.77Z"/><path class="cls-4" d="m23.83,6.06c.1.38.17.76.3,1.12,0,.01,0,.03,0,.04-.18.06-.33.26-.39.3-.19.15-.41.28-.6.43-.44-.87-1.22-1.14-1.94-1.6-.41-.26-.85-.42-1.23-.73-.71-.57-1.63-1.88-2.33-2.5-.13-.11-.7-.55-.8-.6,0-.19-.26-.15-.39-.22.02-.03-.07-.29.52-.3.26,0,1.5.31,1.83.43.26.09,1.52.69,1.81.86,1.24.7,2.29,1.69,3.21,2.76Z"/><path class="cls-10" d="m16.84,2.52c.1.05.67.49.8.6.7.62,1.62,1.93,2.33,2.5.38.31.82.48,1.23.73l-.09.17c-.26-.15-.29-.12-.3-.13-.26-.13-.5-.24-.78-.35-.4-.15-.97-.46-1.08-.26-.1-.33-.19-.56-.35-.86-.4-.81-1.06-1.79-1.86-2.24-.13-.21-.3-.36.09-.17Z"/><path class="cls-42" d="m23.14,7.96s-.07.03-.09.04c-.46-.31-.84-.72-1.29-1.04-.21-.15-.42-.3-.65-.43l.09-.17c.72.46,1.5.73,1.94,1.6Z"/><path class="cls-26" d="m21.72,7.1c.34.24.53.56.78.86l-.09.09c-.17-.23-.43-.42-.65-.6-.31-.27-.89-.67-1.25-.86.18-.03,1.09.43,1.21.52Z"/><path class="cls-23" d="m23.06,8c-.05.04-.25.33-.32.3-.03-.15-.15-.24-.24-.35-.24-.3-.43-.62-.78-.86l.04-.13c.45.32.84.73,1.29,1.04Z"/><path class="cls-28" d="m21.12,6.54c.23.13.43.28.65.43l-.04.13c-.12-.09-1.03-.54-1.21-.52-.06-.03-.12-.06-.17-.09.2-.12.35.17.47-.09.01,0,.04-.02.3.13Z"/><path class="cls-41" d="m20.04,6.06l-.43.09c-.09-.02-.61-.13-.65-.13.1-.04.02-.16,0-.22.11-.2.68.11,1.08.26Z"/><path class="cls-28" d="m20.81,6.41c-.12.26-.28-.04-.47.09-.13-.07-.3-.17-.43-.22-.11-.04-.25-.11-.3-.13l.43-.09c.27.11.51.21.78.35Z"/><path class="cls-20" d="m16.33,7.49c-.01.22-.08.43-.13.65l-.3-.17c.04-.2.11-.4.09-.6.11.07.3.19.35.13Z"/><path class="cls-13" d="m8.43,7.1s.17.09.26.13c-.37.52-.48,2.71-.52,3.45-.04,0-.07.06-.17.04-.93.17-3.1,1.05-3.62,1.77l-.3-.65c.26.17.02-1.03.04-1.77.01-.59.04-.95.3-1.51.02-.05.06-.18.09-.22,0-.02.21-.24.26-.3.09-.11.18-.23.3-.3-.14.24.03.15,0,.24-.02.06-.25.31-.26.35-.02.1.25.36.04.56.18,0,.24.83.37.84.02,0,.02-.32.19.15.02.05-.06.08-.04.13.57,1.38.74.66,2.31.06l.54-2.74-2.2-.54s.09-.03.09-.09c.17.07,1.82.24,2.33.39Z"/><path class="cls-21" d="m5.06,7.74c.1-.19.75-.8.95-.95l2.2.54-.54,2.74c-1.57.59-1.73,1.32-2.31-.06-.02-.05.06-.08.04-.13-.18-.47-.17-.15-.19-.15-.12,0-.19-.84-.37-.84.21-.2-.07-.46-.04-.56,0-.03.24-.29.26-.35.03-.08-.14,0,0-.24Z"/><path class="cls-34" d="m15.81,11.2l.95,1.25c-.43-.45-.66-.75-.78-.54-.03.06.05.2.09.28-.23-.19-.23-.35-.56-.65,0,0,.06,0,0-.11-.22-.09-4.06,1.61-4.19,1.86-.02.03-.09.62-.13.76-.22.12.11-.24-.13-.52.33-.07-.18-.35-.3-.95.03.01.06.03.09.04.25.11.16.27.6-.26.03-.01.05-.03.09-.04-.12.54.31.09.78-.26.08.08-.25.24.35-.04.62-.3,1.28-.94,1.36-.95.1-.01.45.17.5.17.12.01.29-.06.43-.09.55-.11.55-.4.86.04Z"/><path class="cls-13" d="m16.59,2.61c-.03.26.68.87,1.12,1.4.42.51.65,1.13.91.93.15.3.25.54.35.86.02.06.1.18,0,.22-.66,0-2.07,1.02-2.63,1.47-.05.06-.23-.06-.35-.13-1.14-.71-2.27-1.43-3.54-1.9.05,0,.04-.02.04-.04,1.1.18,2.92,1.33,3.09,1.34.05,0,.32-.17.32-.19.01-.06-.64-.8-.73-.91-.81-.88-2.08-1.55-2.2-2.57.03-.14.03-.21,0-.35.72-.71,2.77-.52,3.62-.13Z"/><path class="cls-18" d="m16.76,2.7c.8.45,1.46,1.44,1.86,2.24-.26.2-.49-.42-.91-.93-.44-.53-1.15-1.14-1.12-1.4.06.03.12.06.17.09Z"/><path class="cls-25" d="m12.96,2.74c.03.14.03.21,0,.35-.12.59-.22,1.18-.35,1.77l-.22-.13c.17-.59.27-1.23.39-1.83.13-.19.16-.14.17-.15Z"/><path class="cls-18" d="m12.49,5.41c.05-.18.09-.38.13-.56.12-.59.23-1.18.35-1.77.12,1.02,1.39,1.69,2.2,2.57.1.1.74.85.73.91,0,.03-.28.2-.32.19-.17,0-1.99-1.15-3.09-1.34Z"/><path class="cls-43" d="m11.06,13.53c.24.28-.09.64.13.52h.04c-.04.1-.12.08-.13.11-.02.07.03,1.24.04,1.47,0,.04.16.06,0,.17l.26,1.51c.48-.01.56.3.84.41.08.03,1.49.43,1.68.47.71.17,1.45.25,2.16.43.33-.49.7-.95,1.01-1.45.4-.62,1.13-2.22,1.12-1.53-.05.14-.13.25,0,.22-.03.05-.06.08-.09.13-.34.62-1.42,2.36-1.51,2.59-.11.28-.18.56-.17.86l-.09-.04c-.24-.56-.93-.49-1.62-.69-.48-.14-1.11-.42-1.58-.43-.44-.19-.98-.4-1.38-.65-.01,0-.02-.19-.24-.22-.26-.03-.18.08-.19.09-.02,0-.07,0-.09,0-.12-.57-.24-1.15-.3-1.73-.07-.67-.05-1.08-.09-1.64-.01-.17.02-.35,0-.52-.02-.14.08-.07.17-.09Z"/><path class="cls-13" d="m16.07,12.19c.06.16,1.96,2.53,2.09,2.63.26.2.52,0,.54-.02,0,0-.06-.05-.09-.11.03,0,.07,0,.09,0,.07.18.04.09.22.09-.02.09-.11.08-.22.13-.28.15-.35.42-.47.73,0-.69-.72.91-1.12,1.53-.32.49-.68.96-1.01,1.45-.71-.18-1.45-.26-2.16-.43-.19-.05-1.6-.44-1.68-.47-.28-.11-.36-.42-.84-.41l-.26-1.51c.16-.11,0-.13,0-.17-.02-.22-.06-1.4-.04-1.47,0-.02.09,0,.13-.11.07-.17.32-.63.45-.73.25-.2,3.18-1.39,3.82-1.77.33.3.33.46.56.65Z"/><path class="cls-38" d="m15.51,11.54c-.64.38-3.57,1.57-3.82,1.77-.13.11-.38.56-.45.73h-.04c.04-.14.11-.72.13-.76.12-.25,3.96-1.94,4.19-1.86.06.11,0,.1,0,.11Z"/><path class="cls-13" d="m16.76,12.45c.53.56.96,1.22,1.51,1.77,0,.05.04.04.04.04.09.18.12.16.13.17.05.08.11.12.17.26.03.06.09.1.09.11-.01.03-.28.22-.54.02-.13-.1-2.03-2.48-2.09-2.63-.03-.08-.12-.22-.09-.28.12-.21.35.09.78.54Z"/><path class="cls-3" d="m19.91,6.28c.13.05.3.15.43.22.06.03.12.06.17.09.36.2.94.6,1.25.86,0,.21.41.44.65.84.32.54.33,1.19.65,1.7.11.9.1,2.01-.09,2.89-.15.03-.2-.29-.24-.3-.05-.01-.92.56-.54.47-.21,0-3.23,1.12-3.75,1.38,0,0-.04,0-.13-.17.29.06.44-.54.56-.78.27-.11.6-.31.65-.63.11-.68-1.43.2-1.73.15-.19-.34-1.26-1.78-1.29-1.96.04-1.24.26-2.78,1.04-3.78.65-.55,1.5-1.19,2.37-.99Z"/><path class="cls-29" d="m22.97,12.88c-.04.21-.1.46-.22.65-.13-.16-.25-.33-.41-.47-.05,0-.1,0-.15,0-.38.09.49-.49.54-.47.04.01.09.33.24.3Z"/><path class="cls-36" d="m22.41,8.05c.41.55.56,1.28.65,1.94-.32-.51-.33-1.16-.65-1.7-.23-.4-.64-.63-.65-.84.22.18.48.38.65.6Z"/><path class="cls-30" d="m22.76,13.53c.06.07.07.19.13.26-.17.02-.35.05-.52.09-1.27-.11-2.48.47-3.67.82-.02,0-.06,0-.09,0-.06-.14-.13-.18-.17-.26.52-.27,3.54-1.37,3.75-1.38.05,0,.1,0,.15,0,.16.14.28.31.41.47Z"/><path class="cls-29" d="m22.37,13.87c-.84.2-2.83.89-3.45.91-.18,0-.14.09-.22-.09,1.19-.35,2.4-.93,3.67-.82Z"/><path class="cls-10" d="m18.96,6.02s.56.1.65.13c.05.01.19.09.3.13-.88-.19-1.73.45-2.37.99,0,0-.03-.07-.15.04-.37.33-.69,1.09-.84,1.58,0,.02-.03.45-.04.52-.02.08-.51.92-.22,1.64-.02.04-.51-.2-.47-.24.02-.35.08-.69.13-1.04.02-.14.06-.29.09-.43.06-.38.1-.88.17-1.21.05-.21.12-.42.13-.65.56-.45,1.97-1.47,2.63-1.47Z"/><path class="cls-36" d="m17.53,7.27c-.78,1-1,2.53-1.04,3.78.04.18,1.1,1.62,1.29,1.96.12.21.24.43.35.65.02.05.14.47.13.56-.55-.55-.98-1.21-1.51-1.77l-.95-1.25-.09-.15s.09-.22.09-.24c-.04.04.45.28.47.24-.3-.72.19-1.56.22-1.64.02-.06.04-.49.04-.52.16-.48.47-1.25.84-1.58.13-.11.15-.04.15-.04Z"/><path class="cls-17" d="m18.87,13.48c-.09.04-.52.09-.73.17-.11-.22-.23-.43-.35-.65.29.05,1.84-.83,1.73-.15-.05.32-.38.52-.65.63Z"/><path class="cls-29" d="m18.87,13.48c-.12.24-.27.84-.56.78,0,0-.05.01-.04-.04,0-.09-.1-.51-.13-.56.22-.08.64-.14.73-.17Z"/><path class="cls-34" d="m15.81,10.81s-.06.2-.09.24l.09.15c-.31-.44-.32-.15-.86-.04.2-.53.47-1.12.99-1.38-.05.35-.11.69-.13,1.04Z"/><path class="cls-11" d="m10.41,12.36s-.06.05-.06.04c-.06-.04-.14-.17-.15-.17,0-.03.03-.06.04-.09.29-.42.09-.11.17.22Z"/><path class="cls-1" d="m12.44,5.46c1.27.47,2.4,1.19,3.54,1.9.02.21-.05.4-.09.6-.04.24-.08.49-.13.73-.08.38-.18.76-.22,1.14-.04.1-.83,1.08-.99,1.32l-1.4-1.08c-1.6.1-3.2.3-4.77.6-.01,0-.03,0-.04,0-.06,0-.12-.01-.17,0,.04-.74.15-2.93.52-3.45.44-.62,2.6-1.54,3.41-1.73l.35-.04Z"/><path class="cls-19" d="m16.02,9.34c-.02.14-.07.29-.09.43-.53.26-.8.85-.99,1.38-.14.03-.31.1-.43.09,0-.03.03-.06.04-.09.16-.23.95-1.22.99-1.32.03-.39.14-.76.22-1.14.3.12,0,.24.26.65Z"/><path class="cls-41" d="m14.56,11.15s-.04.06-.04.09c-.05,0-.39-.19-.5-.17-.08.01-.74.65-1.36.95,1.63-1.28.44-.57-1.06-.69-.17-.01-1.11-.25-1.86-.3-.21-.01-.92-.03-.84.09-.17-.14-.39-.24-.52-.43,1.57-.31,3.17-.5,4.77-.6l1.4,1.08Z"/><path class="cls-41" d="m12.66,12.02c-.59.29-.27.12-.35.04-.16-.16-.61.19-.78.26-.03.01-.05.03-.09.04-.16.07-.56.11-.6.26-.03-.01-.06-.03-.09-.04-.11-.05-.23-.15-.35-.22-.08-.33.12-.63-.17-.22-.49-.29-.9-.68-1.34-1.04-.08-.12.63-.1.84-.09.74.05,1.69.29,1.86.3,1.49.12,2.69-.59,1.06.69Z"/><path class="cls-40" d="m12.31,12.06c-.47.35-.9.8-.78.26.17-.07.62-.42.78-.26Z"/><path class="cls-20" d="m11.45,12.36c-.44.52-.36.37-.6.26.05-.15.44-.19.6-.26Z"/><path class="cls-24" d="m8.9,11.11c.44.35.85.74,1.34,1.04-.02.02-.04.06-.04.09-.58-.38-1.43-1.02-1.86-1.55.01,0,.03,0,.04,0,.13.19.35.29.52.43Z"/><path class="cls-23" d="m16.2,8.13c-.07.33-.11.83-.17,1.21-.26-.4.04-.53-.26-.65.05-.24.09-.49.13-.73l.3.17Z"/></g></svg>