<?xml version="1.0" encoding="UTF-8"?><svg id="Capa_2" xmlns="http://www.w3.org/2000/svg" viewBox="0 0 28.97 28.97"><defs><style>.cls-1{fill:#46332b;}.cls-1,.cls-2,.cls-3,.cls-4,.cls-5,.cls-6{stroke-width:0px;}.cls-2{fill:#cd4d24;}.cls-3{fill:#e25d24;}.cls-4{fill:#b24420;}.cls-5{fill:#f36e1f;}.cls-6{fill:#fff;}</style></defs><g id="Capa_1-2"><circle class="cls-6" cx="14.48" cy="14.48" r="14.48"/><path class="cls-4" d="m26.46,9.4c.18.17.13.39.13.6-.24-.26-.57-.3-.89-.38-.16-.04-.15.08-.15.18h0c-.09-.04-.08-.22-.24-.16.1.27.13.57.08.82-.05.24-.1.54-.31.73h0c-.01-.28.07-.54.13-.81.07-.27.09-.55-.11-.78-.02.09-.02.18,0,.26.1.31-.03.6-.17.84-.1.17-.13.28-.09.47.04.16.13.35.04.52-.02.03-.16-.04-.1.09.04.08.12.09.2.05.07-.03.07-.14.18-.14.07.11.11.23.11.36-.09.02-.17.03-.06.14-.04.14.12.21.13.33-.03.05-.08.07-.14.07-.14-.11-.05-.38-.29-.45.01.17.02.3.03.44.02.18.1.23.26.14.11.02.22.05.33.07,0,.22.14.01.2.07,0,.04,0,.09,0,.13.17.2.23.53.59.5,0,0,0,.02,0,.03-.04.19-.16.16-.27.08-.19-.13-.2-.02-.2.13,0,.07,0,.13,0,.2-.08-.02-.06-.18-.19-.14-.03.19.07.37.07.55,0,.06.07.14-.03.16-.11.02-.12-.08-.12-.15,0-.17-.03-.33-.14-.56,0,.16-.03.25,0,.31.18.36-.15.95.5,1.09,0,0,.01,0,.02-.01-.07-.36-.07-.45-.02-.52.2.38.13.82.34,1.24-.15-.05-.23-.08-.31-.11-.01-.18-.06-.33-.2-.43-.13.05.04.2-.1.22-.05,0-.08-.03-.09-.08-.09-.31-.21-.62-.21-.95,0-.14,0-.34-.09-.41-.21-.16-.23-.36-.21-.59-.24.08-.08.33-.2.4-.18.11-.19.22-.09.38.07.11.24.19.12.46-.06-.27-.22-.36-.38-.47.21.29.2.62.27.93.16.77.2.83.38.93,0-.04,0-.07-.01-.1-.04-.1-.09-.22.05-.24.11-.02.1.12.13.2.03.11,0,.3.07.34.34.19.51.45.47.93.16-.22.05-.42.2-.53.08.01,0,.14.09.14.05,0,0-.11.07-.13.14.22-.16.24-.18.4,0,.1,0,.25-.12.26-.14.01-.31.01-.36-.19-.02-.09-.11-.09-.21-.05.03.07.04.16.09.2.11.07.02.35.31.26.08-.03.38.12.24.42-.08.18-.06.39.04.58-.05.07-.12.05-.19.05-.09,0-.14.04-.15.13-.02,0-.03,0-.05,0-.1,0-.21,0-.21-.15,0-.27,0-.54.25-.74-.1-.06-.2-.12-.31-.2,0,.1,0,.16,0,.23-.03.29.11.63-.28.8-.08.03-.07.16-.04.24.05.11.13.03.2.02.09-.02.17-.04.25-.06,0,.12-.11.13-.19.15-.25.07-.51.12-.76.2-1.38.42-2.79.64-4.23.57-.01-.16.03-.31.14-.43.09-.1.12-.15.02-.3-.2-.27-.32-.58-.26-.93.01-.05.04-.14,0-.15-.35-.08-.2-.36-.23-.56-.02-.1.07-.29-.14-.26-.14.02-.2.14-.14.3.16.41.1.78-.29,1.05-.02.01-.02.04-.03.06-.03.07-.07.18-.15.12-.09-.06-.08-.21,0-.26.18-.1.23-.21.17-.4-.02-.07.07-.07.1-.1.17-.16.17-.3-.05-.43-.12-.08-.22-.17,0-.3.18-.11.31-.29.05-.47-.06-.04-.14-.13-.02-.17.23-.06.06-.43.35-.43,0-.04.02-.11,0-.13-.37-.27-.15-.6-.11-.92.08-.54.42-.97.61-1.46.05-.12.05-.21,0-.31-.04-.07-.09-.1-.16-.08-.11.04-.08.17-.12.25-.13.2-.02.56-.39.6h0c.08-.51.28-.99.46-1.47.04-.1.02-.19-.02-.3-.1-.35-.04-.72-.03-1.09,0-.26.25-.03.32-.16.1-.18.17-.06.25.02.13.14-.03.17-.1.19-.2.06-.33.18-.26.38.05.16.07.27-.05.4-.06.06-.05.18.06.22.11.03.17,0,.15-.14,0-.07,0-.15.07-.2.21.23.21.24.29.14.08-.1.05-.19-.02-.27-.07-.09-.25.09-.27-.08-.02-.16.22-.06.26-.19,0-.03.02-.06.03-.09.02-.12.06-.15.17-.08.13.08.26.1.23-.13h0c.09.01.26,0,.17.15-.15.23.04.29.12.42.17-.21-.02-.43.07-.62.07-.14.02-.23-.14-.27-.06-.01-.15,0-.12-.11.01-.04.07-.08.12-.1.07-.04.11,0,.16.05.15.15.32.28.46.44.12.14.15.4.42.2,0,0,.04.04.03.05-.14.14.1.28,0,.42-.05.06-.08.18.04.22.07.02.17.02.22-.02.08-.06.01-.14-.02-.21-.08-.15-.06-.23.13-.22.03.52.41.02.48.15-.11-.02-.22-.3-.48-.15.02-.15-.05-.27-.18-.31-.12-.04-.16-.1-.15-.22h0c.31-.02.61-.21.93-.07,0,.17.3.38-.09.5.17.08.3.13.3-.12,0-.08.04-.17.06-.25.05.01.1.08.14.03.04-.05,0-.11-.05-.13-.07-.02-.08.05-.09.1l-.27-.13c.01-.05,0-.14.04-.15.26-.13.26-.12.13-.4-.03-.06-.05-.12,0-.18.09.02.09.19.24.14v-.33s.04,0,.06,0c.01,0,.02.02.03.03,0-.01-.02-.02-.03-.03,0-.06,0-.13,0-.19.04,0,.08,0,.12,0,.04.07.07.15.11.22.12-.02.06-.17.19-.19.07.1.02.28.18.34.1-.06-.04-.17.05-.2.1-.04.12.06.15.13.03.07.08.12.15.08.06-.04.07-.12.03-.17-.04-.06-.12-.09-.18-.14,0-.24,0-.48-.27-.6.03-.1.16-.03.2-.13-.22-.01-.56,0-.61-.14-.09-.27-.25-.17-.39-.18-.15-.02-.31,0-.46-.01.01-.1-.05-.24.13-.26.11.1.12.02.14-.07.02,0,.04,0,.07,0,.08.02.03.19.16.16.1-.29-.09-.55-.09-.82.05,0,.09,0,.14,0,.06.25.12.5.2.82.13-.35,0-.74-.2-.82.06-.19-.08-.35-.08-.54h0c.23.11.18.47.47.52-.07.29-.04.57.08.83.04.1.14.17.18-.02.14.01.22-.05.2-.2.06-.04.18.12.19-.06,0-.04-.02-.15.03-.09.07.09.29-.08.24.15h0c-.12.16-.11.32.08.36.45.1.87.27,1.29.43Zm-1.24,3.79c0-.13-.02-.24-.21-.29.07.13-.14.38.21.3.02.17.03.33.05.5.1-.18.23-.37-.05-.5Zm-.47,4.12c.02.09-.03.19.06.3.09-.13.15-.24-.06-.3.07-.19.14-.39.13-.6.16-.02.09.17.19.21.02-.01.03-.01.03-.02.07-.42-.24-.74-.29-1.13-.01-.08-.18-.08-.27-.03-.07.04-.06.11.01.16.29.2.34.49.33.81-.18.12-.16.34-.25.51-.03.05.06.08.12.09Zm-.93-4.58c.07-.3,0-.39-.31-.38-.07,0-.13,0-.14.09-.01.09.02.15.12.16.13,0,.27-.02-.21.25.11.08.17.12.23.17.08.06.16.07.23,0,.06-.07.11-.16.08-.24-.04-.08-.15-.04-.22-.03-.09.02-.18.06.23,0Zm-2.26-.4c-.14-.34-.27,0-.4.01-.1,0-.15.1-.12.2.03.09.07.21.2.17.1-.03.17-.03.18.1,0,.08.03.18.13.14.11-.04.08-.16.05-.23-.04-.13-.13-.25-.06-.39l.02-.03s-.01.02-.02.03Zm2.61.12c-.02.06-.03.08-.03.1-.01.23.25.42.06.68-.02.02.08.25.13.38,0,.02.06.03.08.03.07-.01.08-.07.06-.13-.02-.08-.08-.18.05-.21.19-.04.2-.04.1-.21-.05-.08-.07-.14,0-.2.04-.04.08-.09.12,0,.03.07.07.13.14.09.1-.06,0-.14-.02-.2-.04-.08-.05-.17-.05-.26,0-.08.02-.18-.11-.19,0,.18-.35-.03-.27.24.02.08.1.19-.04.21-.13.02-.09-.12-.13-.19-.02-.04-.05-.07-.1-.14Zm-1.85.13s0,.03,0,.04c-.12.09-.25.2-.12.33.13.12.26.06.3-.13.01-.06.08-.06.13-.09.16-.1.16-.3-.02-.37-.24-.1-.49-.3-.73.01-.05.06-.18.06-.17.18,0,.08.08.13.15.16.11.04.18.02.24-.1.05-.1.13-.09.22-.04Zm-1.51,6.64c.02-.32.07-.57-.1-.79-.09-.12-.12-.24,0-.35.19-.17.14-.34.03-.56-.37.57-.29,1.09.07,1.7Zm-.46-3.09c.01-.07.02-.14-.04-.18-.04-.02-.11-.02-.11.03-.04.3-.3.47-.41.73-.04.1-.03.22.09.25.11.03.18-.07.2-.17.01-.06-.07-.16.02-.18.28-.07.16-.33.26-.48Zm1.11-2.17c.04-.25.05-.44.14-.6.05-.09,0-.18-.1-.21-.09-.03-.15.03-.17.11-.06.22-.1.44.12.7Zm3.07-2.32s.11-.08.06-.15c-.17-.23-.2-.51-.25-.78-.01-.06-.06-.1-.12-.08-.06.02-.06.09-.03.14.13.22.16.48.22.72.02.06.01.14.12.14Zm-.4,2.13c.07-.27.03-.43-.23-.48-.07-.01-.14-.05-.18.02-.05.08,0,.16.07.19.12.06.22.14.33.27Zm-2.96,1.98c-.3.23-.11.47-.16.67,0,.01.07.06.1.05.05,0,.06-.06.06-.1,0-.18,0-.37,0-.62Zm-.19,1.73c.1.1-.02.32.16.4.07.03.12-.07.09-.13-.08-.15.03-.38-.16-.48-.05-.03-.1.1-.09.2Zm-.87-2.65c-.13.18-.19.32-.04.47.04.04.11.08.14.03.09-.16,0-.31-.1-.5Zm0,.88c0-.1-.01-.19-.14-.19-.13,0-.13.1-.13.19,0,.1.04.18.15.19.14,0,.11-.11.12-.19Zm.61-2.8c.12-.2.12-.34,0-.47-.01-.01-.14.03-.16.08-.12.19.13.22.16.39Zm1.77.55c-.04-.1-.09-.17-.18-.19-.07-.02-.13.02-.13.1,0,.11.04.21.14.23.05,0,.11-.08.17-.13Zm1.99.38c-.1-.04-.18-.06-.18.09,0,.08,0,.19.15.12.05-.03.16.14.18-.04.01-.11,0-.2-.15-.16Zm.24-2.55c-.04-.18.03-.4-.25-.59.12.25.03.46.25.59Zm-3.91,4.48c.01-.08-.03-.11-.09-.11-.12,0-.15.07-.14.17,0,.07.01.14.1.13.12-.01.09-.14.13-.2Zm.52-1.66c-.08.12-.13.24-.05.37.02.04.09.02.11-.02.07-.12.13-.24-.06-.35Zm-.95,3.37c-.08,0-.12.06-.13.12-.01.08,0,.16.1.17.07.01.14,0,.15-.09,0-.09-.03-.17-.11-.21Zm2.74-4.26s.19.06.17-.11c0-.08-.06-.11-.13-.11-.1,0-.18.05-.18.15,0,.1.06.1.14.07Zm-2.74,1.63c.06-.02.12-.06.12-.15,0-.08-.04-.16-.13-.15-.09,0-.12.09-.12.17,0,.07.02.13.13.13Zm.06-1.91c-.01-.07.02-.18-.09-.17-.09,0-.11.09-.11.18,0,.08.03.16.13.16.09,0,.06-.1.07-.16Zm2.78-.6c-.03-.09-.08-.17-.19-.18-.07,0-.13.06-.12.12.02.13.19.05.25.15.01.02.06-.04.07-.09Zm-2.57,5.09c.1,0,.11-.05.12-.12,0-.06.01-.14-.07-.17-.08-.03-.12.03-.13.1,0,.07-.02.16.07.19Zm.27-.7c-.08.02-.08.09-.07.15,0,.07.04.14.12.13.09,0,.07-.09.07-.16,0-.07-.02-.13-.11-.13Zm-.4.11c.09,0,.11-.06.11-.13,0-.08-.04-.12-.12-.11-.07.01-.12.05-.12.13,0,.07.06.11.12.11Zm.23-.58c.01-.08-.02-.13-.08-.13-.07,0-.13.03-.14.1-.01.07.03.13.1.13.08,0,.11-.05.12-.1Zm4.53,1.75c-.18.17-.11.3,0,.46.07-.17,0-.3,0-.46Zm-.08-.53c-.04.17-.08.27,0,.38.08-.1.12-.19,0-.38Zm-.73-8.45c.16.06.26.05.38.03-.11-.11-.21-.07-.38-.03Zm-.31,3.17s0-.1-.06-.1c-.06,0-.06.05-.06.1,0,.04,0,.1.06.1.06,0,.06-.05.06-.1Zm1.15,4.73s-.06.04-.07.07c0,.03,0,.07.02.08.05.03.08,0,.08-.05,0-.03-.02-.05-.04-.09Zm-1.81-3.72s-.05.05-.06.07c0,.03.01.07.03.08.05.02.08-.02.07-.07,0-.02-.03-.05-.05-.08Zm.79-4.18s-.02,0-.02.01c0,0,0,.01.01.02.01,0,.02-.02.03-.02,0,0-.02,0-.02-.01Z"/><path class="cls-1" d="m20.36,19.9c1.44.06,2.85-.15,4.23-.57.25-.08.51-.13.76-.2.08-.02.18-.03.19-.15.08,0,.13-.05.15-.13.02,0,.03,0,.05,0,.1.01.13-.05.15-.13.07,0,.14.02.19-.05.09-.04.17-.07.26-.11-.01.05,0,.13-.04.15-.33.25-.62.56-1.02.71-.11.04-.24.07-.27.22-.04,0-.09.02-.13.03-.2.02-.39.06-.59.16-.65.33-1.35.51-2.09.56-.81.05-1.62.08-2.44.08-.04,0-.09,0-.13-.01-.24-.06-.48-.16-.73-.11-.09,0-.17,0-.26,0-.42-.1-.84-.11-1.27-.09-.04,0-.09,0-.13,0-.28-.11-.57-.16-.87-.17-.04,0-.08,0-.12,0-.19-.1-.4-.11-.6-.09-.02,0-.03-.01-.05-.01-.47-.18-.98-.18-1.47-.25-.1-.08-.22-.06-.34-.04-.25-.05-.5-.03-.76-.07-.54-.07-1.08-.22-1.63-.23-.06,0-.13-.02-.19-.03-.13-.06-.26-.09-.4-.09l-.34-.02s-.04-.01-.05,0c-.09-.01-.18-.02-.27-.03-.04-.02-.08-.03-.12-.05-.07-.05-.14-.05-.22-.04-.02,0-.04,0-.06,0-.22-.03-.44-.06-.66-.08-.1-.09-.22-.05-.34-.05-.18-.04-.35-.08-.54-.07-.02-.01-.04-.01-.06,0-.04,0-.07,0-.11,0-.09-.08-.19-.06-.3-.06-.46-.14-.92-.14-1.39,0-.25.07-.31.2-.18.43.19.36.41.7.69.99.53.78,1.13,1.49,1.79,2.16.41.42.88.76,1.36,1.08.02.02.04.04.06.06.14.12.26.28.45.35.07.06.15.12.22.18.09.05.17.1.26.14.02.03.05.05.07.08.02.02.04.04.06.06.08.12.2.17.34.2h0c.06.22.29.21.44.3.46.28.89.62,1.44.74.02.06.07.07.13.07.06.04.13.08.21.05.01.07.06.09.13.07.14.07.29.09.44.1.05.15.19.14.3.17.86.3,1.76.37,2.66.33.28-.01.4.14.5.32.13.22-.23.1-.21.27-1.31.18-2.63.12-3.94.09-.59-.01-1.19-.01-1.77-.17-.01-.2.04-.3.28-.26.23.03.45.09.67.13.78.14,1.57.1,2.36.07.47-.02.93-.09,1.39-.14,0-.03,0-.06,0-.08-.25,0-.49-.03-.73-.08-.75-.15-1.5-.29-2.24-.52-.36-.11-.66-.35-1.03-.42-.04-.02-.09-.05-.13-.07-.11-.06-.23-.13-.34-.19-.75-.43-1.43-.96-2.12-1.46h0c-.15-.23-.38-.37-.6-.53-.01-.01-.03-.02-.04-.02-.16-.29-.44-.45-.69-.65h0c-.1-.16-.23-.3-.4-.4-.23-.22-.39-.5-.66-.68-.04-.05-.08-.09-.12-.14-.08-.14-.16-.28-.28-.38h0c-.05-.13-.16-.21-.25-.3,0-.02,0-.03,0-.04-.07-.18-.21-.33-.33-.47,0-.02,0-.04-.02-.05-.03-.15-.11-.27-.24-.34h0c-.05-.16-.13-.3-.27-.4-.02-.02-.04-.04-.05-.06-.02-.03-.04-.05-.07-.08h0c-.01-.15-.07-.31-.21-.29-.15.01-.3.11-.36.29h0c-.09.01-.11.07-.12.15-.08.06-.08.15-.08.24-.16.3-.28.61-.23.96,0,.04,0,.09,0,.13-.05.16.04.31.06.47-.01.07-.02.14.05.19.01.02.02.05.03.07-.02.07-.01.13.02.19-.04.04-.08.08-.12.12,0-.02-.02-.03-.03-.05.03-.05.03-.09-.04-.11-.05-.11-.09-.22-.14-.33-.14-.31-.06-.65-.18-.96,0-.04,0-.09,0-.13.03-.45.1-.9.27-1.33,0,0,0,0,0,0,.02-.02.04-.04.06-.06.03-.04.05-.08.08-.13.1-.08.21-.15.3-.24.13-.12.14-.24-.02-.34,0-.03,0-.06-.01-.1,0-.06-.01-.11-.07-.14-.01-.04-.02-.08-.03-.12.03-.14-.07-.18-.16-.24,0-.01,0-.02,0-.03-.02-.03-.04-.06-.07-.09,0-.02,0-.03,0-.04,0-.09-.04-.16-.13-.2h0c0-.11-.05-.2-.13-.27-.01-.03-.03-.05-.04-.08-.08-.21-.08-.45-.29-.59l-.07-.19c0-.12.01-.25-.16-.13-.07.05-.12.12-.18.18h0c-.06,0-.1.02-.12.08h0c-.06.02-.08.06-.08.12h.01s-.01,0-.01,0c-.06,0-.1.02-.12.08h0c-.14.08-.28.16-.34.32h0c-.08.01-.12.07-.15.13-.02,0-.03,0-.04.02-.11.05-.19.13-.21.25,0,0,0,0,0,0-.02.02-.05.04-.07.07-.1-.06-.02-.22-.15-.26.04-.09.07-.18.11-.26l.05-.06c.28-.48.69-.82,1.1-1.17.11-.09.26-.18.21-.34-.18-.63-.14-1.29-.27-1.92-.09-.48-.1-.5-.58-.42-.71.13-.86.04-1.05-.63.09-.04.17-.08.26-.13.04.04.08.07.12.11.02.02.04.03.05.05.23.14.47.19.7,0,.02,0,.03,0,.05-.02.11,0,.22-.01.33-.02.13-.15.26-.3.43-.41.09-.03.15-.08.19-.16.01-.02.02-.05.04-.07.01-.02.02-.04.03-.06.02-.02.04-.04.06-.05.11-.16.23-.32.32-.49.18-.36.47-.64.76-.91.09.11.17.12.26,0,.07-.11.15-.22.23-.32.76-.88,1.52-1.75,2.27-2.63.08-.09.26-.12.2-.31,0-.01.02-.02.03-.03.09.02.12-.02.1-.1.01-.01.02-.02.03-.03.09.02.13-.02.1-.11.4-.56.96-.97,1.43-1.47.07-.02.11-.06.13-.13h0c.09-.04.16-.11.2-.2h0c.07-.02.11-.07.13-.14.02-.02.04-.04.06-.06.08,0,.13-.04.14-.12h0c.06,0,.1-.02.12-.08h0s.09-.08.13-.12c.07-.01.15-.02.2-.09.02-.02.05-.05.07-.07.02-.02.02-.04,0-.05h0s.08-.02.12-.02c.03-.02.05-.04.08-.06.15-.09.3-.17.45-.26.02-.02.05-.05.07-.07,0,0,0,0,0,0,.19-.03.32-.17.43-.31h.03s.03,0,.03,0c.04.05.08.06.12,0,0,0,.02,0,.02,0,.92-.41,1.85-.82,2.83-1.07l.33-.08c.09,0,.19,0,.27-.06.66,0,1.33-.19,1.99.03-.47.05-.94.04-1.39.17-.05,0-.09,0-.14,0-.04,0-.08,0-.12,0-.04,0-.09.01-.13.02-.1-.04-.17,0-.23.08-.04,0-.07,0-.11.01-.56.02-1.07.19-1.56.45-.02,0-.03,0-.05,0l-.13.07s-.09.02-.13.02c-.02.01-.05.03-.07.04h0c-.07,0-.14,0-.19.08-.03.01-.05.03-.08.04-.2.05-.38.13-.53.28h0c-.15.03-.29.1-.4.21-.55.25-1.01.63-1.5.96-.9.62-1.69,1.38-2.45,2.16-.87.89-1.68,1.85-2.5,2.78-.4.45-.8.91-1.15,1.41-.38.54-.7,1.13-1.2,1.57-.1.09-.09.19-.09.3,0,.72.24,1.39.4,2.08.08.34.11.34.41.13.11-.08.21-.16.32-.23,1.21-.83,2.59-1.34,3.91-1.95.93-.43,1.92-.72,2.88-1.06h.03s.02-.01.02-.01c.13-.04.27-.09.4-.13.28-.08.56-.15.8-.32h.01c.09,0,.18,0,.25-.07.05-.02.1-.04.14-.06.34-.1.69-.15.98-.36.04,0,.09-.01.13-.02,1.09-.3,2.17-.61,3.26-.91.3.01.58-.13.87-.18,1.41-.27,2.81-.54,4.25-.61.06,0,.13,0,.19,0,.02,0,.05,0,.07,0,.15,0,.31,0,.46.01.14.01.3-.08.39.18.05.14.39.13.61.14-.04.1-.17.03-.2.13,0,0,0,0,0,0-.02,0-.04,0-.06,0-.13,0-.27,0-.4,0-.04,0-.09,0-.13,0-.04,0-.09,0-.13,0-.71-.02-1.4.09-2.1.16-.5.05-1,.1-1.49.24-.04,0-.09.02-.13.03-.49-.02-.96.14-1.44.21-.31.04-.64.04-.9.26-.7.17-1.4.34-2.1.52-.14.04-.31.05-.4.21-.03,0-.07,0-.1.01-.17,0-.33.01-.46.13-.07.01-.13.02-.2.03-.11,0-.24-.03-.29.12-.14-.02-.26.03-.38.08-.35.13-.69.26-1.06.33.04-.06.08-.12.13-.2-.35.02-.65.15-.94.28-.84.36-1.84.36-2.52,1.1-.45.21-.89.44-1.34.64-1.18.5-2.31,1.07-3.33,1.87-.1.08-.21.15-.14.32.14.34.23.71.41,1.04.08.19.02.44.25.57,0,.03.02.07.03.1.02.03.03.05.05.08.02.04.04.08.07.13.04.11.11.22.12.34.03.32.21.33.44.24.07-.03.13-.07.2-.11,0,0,.02,0,.02,0h.02c.45-.03.89-.04,1.33.06.03,0,.07,0,.1,0,.18.26.45.17.7.16.04,0,.09.01.13.02.26.06.52.15.79.12.11.01.22.02.33.03.08.07.18.06.27.04.04,0,.09,0,.13,0,.7.19,1.42.22,2.13.32.03.06.08.07.14.04.04,0,.09.01.13.02.07.12.17.08.27.05.17.01.35.02.52.03.04,0,.09,0,.13,0l.19.02c.1.07.21.13.34.07.04,0,.08.01.13.02.09.03.17.09.27.06.13.01.26.02.39.04.04.05.09.05.14.03.06,0,.13,0,.19,0,.2.04.4.08.6.12.2.02.39.04.59.06.42.08.84.14,1.27.16.04,0,.09,0,.13,0,.68.1,1.37.09,2.06.13.06.04.13.07.21.04.04,0,.09,0,.13.01.04,0,.09,0,.13,0,.09,0,.18,0,.27,0Z"/><path class="cls-5" d="m10.06,5.01c-.47.5-1.03.9-1.43,1.47-.06,0-.1.04-.1.11-.01.01-.02.02-.03.03-.07,0-.1.04-.1.1,0,.01-.02.02-.03.03-.37.18-.56.54-.82.83-.64.72-1.36,1.37-1.96,2.13-.07.09-.2.15-.18.3-.29.27-.57.55-.76.91-.09.17-.21.33-.32.49-.02.02-.04.04-.06.05-.01.02-.02.04-.03.06-.01.02-.02.05-.04.07-.04.08-.1.13-.19.16-.19-.05-.15-.21-.16-.35-.05-1.09.11-2.15.34-3.2.09-.22.18-.44.25-.67.02-.05.03-.14-.06-.16-.08-.02-.12.06-.12.12,0,.25-.17.46-.15.7-.22.37-.26.79-.32,1.2-.15.91-.23,1.84-.21,2.77-.11,0-.22.01-.33.02-.03-.03-.04-.03-.05.02-.24.19-.47.14-.7,0,0-.04-.02-.06-.05-.05-.04-.04-.08-.07-.12-.11,0-.04,0-.07-.01-.11-.06-.27-.08-.53,0-.81.09-.32.14-.66.21-.99.01-.04.02-.09.04-.13.12-.02.09-.11.1-.19,0,0,0,0,0,0,0,0,.02,0,.02-.01,0-.01,0-.03,0-.04,0-.05.02-.1.02-.15.16-.12.22-.29.21-.49,0-.08.05-.13.1-.18.01-.03.02-.06.03-.09,0,0-.01-.01-.01-.01,0,0,.01-.01.01-.01.08-.05.11-.14.13-.23.01-.04.03-.07.04-.11.21-.07.19-.27.22-.43v-.02s0-.01,0-.01c.09-.04.13-.11.13-.2.03-.04.05-.09.08-.13.15-.01.11-.13.12-.22.03-.04.07-.07.1-.11.08-.02.1-.07.08-.15,0,0,0,0,0,0,.12-.03.15-.11.14-.22,0-.05.01-.09.07-.11.02-.03.05-.05.07-.08,0,0,0,0,0,0,.05,0,.07-.05.09-.09v-.02s.02,0,.02,0c.13-.03.18-.11.16-.24,0-.05.02-.09.08-.1.14,0,.2-.08.19-.22,0-.02,0-.04.03-.05.19-.09.42-.12.51-.36.1-.26.32-.43.5-.63.09-.1.21-.17.24-.3v-.02s.02,0,.02,0c.32-.24.62-.52.9-.81,0,0,0,0,0,0,.13,0,.25,0,.27-.17.03-.01.06-.03.09-.04.09,0,.15-.05.18-.14.15-.21.39-.3.6-.43.77-.49,1.58-.89,2.47-1.12.21.06.41.02.61-.05.05-.02.1-.05.15,0,.04.05.02.1,0,.15-.02.13-.22.2-.12.4.11-.09.18-.19.22-.32.04-.14.1-.28.26-.34h0c.02.14-.04.3.04.44.11-.05.07-.13.1-.18.08-.11,0-.36.18-.34.15.02.06.25.07.38.02.29-.1.63.38.65q-.21.23.12.39s-.02,0-.02,0c-.04,0-.08,0-.12,0h-.03s-.03,0-.03,0c-.28.01-.26-.4-.54-.41-.05.27.48.43.11.72,0,0,0,0,0,0-.02.02-.05.05-.07.07-.15.09-.3.17-.45.26-.03.02-.05.04-.08.06-.04,0-.08,0-.12.01-.01-.01-.02-.02-.04-.03.01.01.02.02.03.04.02.02.02.03,0,.05-.02.02-.05.05-.07.07-.05.07-.13.07-.2.09-.02-.04-.05-.11-.05-.11-.11.04-.09.13-.08.22,0,0,0,0,0,0-.06,0-.11,0-.12.07,0,0,0,0,0,0-.1-.03-.14.02-.14.12-.02.02-.04.04-.06.06-.09,0-.14.04-.13.14,0,0,0,0,0,0-.15-.02-.22.04-.2.19,0,0,0,0,0,0-.08,0-.13.04-.13.13Zm1.85-2.47c-.05.04-.07.06-.1.07.02.02.03.06.05.06.04.01.09,0,.08-.05,0-.03-.02-.05-.04-.08Z"/><path class="cls-4" d="m17.47,27c-.02-.17.34-.05.21-.27-.11-.18-.22-.34-.5-.32-.9.04-1.8-.02-2.66-.33-.11-.04-.25-.03-.3-.17.21-.03.41-.03.61.08.24.13.48-.22.72,0,.03-.03.07-.06.08-.1.06-.22.24-.29.43-.3.4-.02.66-.26.9-.53.1-.11.2-.13.3-.03.05.05-.09.21.09.18.12-.02.06-.17.11-.25.05-.08-.03-.15-.03-.22,0-.06,0-.11.06-.14.06-.03.13,0,.13.05.04.32.44.03.51.3,0,.01.09-.04.09-.1,0-.13-.03-.25-.19-.27-.36-.06-.17-.32-.21-.5.07.15.19.25.3.35.06.05.19.09.15-.03-.06-.21.05-.49-.3-.66.27-.01.41.03.45.23.01.07.03.14.12.1.07-.03.15-.06.11-.17-.04-.12-.07-.24.12-.26.23-.02.22-.11.06-.23-.05-.04-.1-.09-.14-.14-.06-.07-.11-.18-.03-.24.11-.08.12.05.17.11.1.14.21.28.47.17-.26-.14-.38-.33-.47-.6.19.06.29.13.35.27.02.05.09.06.15.04.08-.03.04-.07.02-.13-.08-.26,0-.45.27-.62.08-.05.06-.12,0-.15-.11-.05-.32-.02-.21-.22.06-.11.04-.27.17-.35.09-.05.18-.2.14-.24-.28-.22,0-.4.05-.58.03-.11-.02-.19-.02-.28.81,0,1.63-.03,2.44-.08.74-.05,1.44-.23,2.09-.56.19-.1.38-.14.59-.16-.19.45-.44.89-.39,1.4.01.12,0,.2-.1.28-.26.21-.2.54-.3.81-.02.07.03.13.11.13.1,0,.17.05.21.13-1,1.18-2.18,2.14-3.55,2.87-.95.51-1.94.9-2.96,1.27.31.03.62.06.93.09.08,0,.2,0,.2.13,0,.15-.13.12-.22.13-.45.06-.89.14-1.34.09Zm2.54-5.96s-.05-.06-.08-.06c-.03,0-.07.01-.08.03-.02.05.02.08.07.07.02,0,.05-.03.09-.05Z"/><path class="cls-3" d="m25.75,12.86c-.06-.05-.2.15-.2-.07-.05-.15.27-.11.15-.26-.13-.16-.22-.37-.42-.47,0-.13-.04-.25-.11-.36-.1,0-.11.11-.18.14-.08.04-.16.03-.2-.05-.06-.13.08-.06.1-.09.09-.18,0-.36-.04-.52-.04-.19,0-.3.09-.47.14-.24.28-.53.17-.84-.03-.08-.03-.17,0-.26.2.24.18.52.11.78-.07.27-.14.53-.13.81-.02.02-.08.04-.02.08,0-.03.02-.06.03-.08.21-.2.26-.49.31-.73.05-.25.01-.55-.08-.82.16-.06.15.12.24.16,0,0,.02.01.03.02,0,0-.02,0-.03-.01,0-.1,0-.22.15-.18.31.08.65.11.89.38.35.26.35.68.44,1.04.54,2.06.58,4.14.09,6.22-.06.25-.06.56-.37.69-.13-.1-.24-.2-.2-.39.02-.09-.02-.17-.13-.18,0-.04,0-.09,0-.13.05.01.11,0,.15.04.1.06-.02.28.12.26.21-.03-.11-.18.01-.24.31-.16.05-.34.02-.52-.01-.07-.1-.09-.05-.2.1-.22,0-.4-.19-.53-.02-.18-.14-.04-.2-.07-.04,0-.09,0-.13,0-.04-.09-.21-.05-.19-.2.02,0,.04,0,.06,0,.08.03.16.06.31.11-.21-.42-.14-.87-.34-1.24-.05.07-.05.16.02.52,0,0-.01.01-.02.01-.64-.14-.32-.73-.5-1.09-.03-.06,0-.15,0-.31.1.23.14.39.14.56,0,.08,0,.18.12.15.1-.02.04-.1.03-.16,0-.19-.11-.36-.07-.55.13-.03.11.12.19.14,0,.14.06.22.19.19.16-.03.44-.11.44-.14-.04-.24.15-.45.09-.73-.08.14-.07.32-.26.27,0-.01,0-.03,0-.03-.36.03-.42-.3-.59-.5.11,0,.24,0,.24-.15,0-.05-.04-.12-.08-.14-.13-.04-.07.14-.16.16Zm1.4,1.26s-.02-.01-.03-.02c0,0,.02.01.03.02.01.06-.02.13.06.17.01,0,.04-.01.05-.03.01-.08-.05-.11-.1-.14Zm-1.26-2.73c-.4.35.07.51.17.75-.19-.28.41-.41.13-.7-.13,0-.06.2-.2.19-.03-.08-.07-.16-.1-.24.05,0,.11,0,.1-.08,0,0-.01-.02-.02-.02-.07,0-.07.05-.08.1Zm1,4.52s.02.01.03.02l-.03-.02c.04-.06-.08-.21.1-.19.05,0,.06.15.14.06.05-.06-.02-.12-.04-.18-.08-.23-.41-.39-.22-.72.04-.06-.06-.12-.13-.1-.24.05-.34.03-.14-.21.03-.03.02-.11.01-.16-.02-.14-.19-.03-.24-.13-.03.01-.07.02-.07.04-.02.09.04.11.11.12.18.04,0,.1,0,.16.01.06.01.18-.12.07-.05-.04-.13-.04-.11.08.06.37.21.72.35,1.06.02.05.04.23.16.04.06-.1.12.06.19.06Zm-.25-1.7c.13.02.21-.02.24-.11,0-.02-.02-.08-.04-.08-.1,0-.14.08-.2.19Zm-.58-.93c.12-.08.11-.19.07-.38-.03.18-.05.28-.07.38Zm.73,1.13c-.08,0-.09.05-.08.09,0,.05.04.07.09.07.05,0,.08-.04.06-.08-.01-.03-.05-.06-.07-.08Zm.27-.51s-.04-.02-.05-.02c0,.02-.03.04-.02.05,0,.01.03.02.05.03,0-.02.02-.04.02-.06Z"/><path class="cls-5" d="m4.47,20.31s0,.09,0,.13c-.17.35.02.68.08,1.01.03.14.13.28-.1.33-.02-.02-.03-.03-.05-.05,0-.24-.17-.36-.35-.48,0,0,0,0,0,0-.05-.24-.16-.43-.37-.56,0,0,0,0,0,0-.05-.2-.1-.4-.29-.52,0,0,0-.02,0-.02-.02-.04-.05-.07-.07-.11,0,0,0,0,0,0-.02-.22-.1-.4-.27-.55,0,0,0-.02,0-.02.02-.12-.05-.21-.09-.31-.19-.52-.51-1-.44-1.6,0-.11.1-.17.14-.26.05-.03.07-.08.06-.14,0,0,0,0,0,0,.18,0,.21-.11.21-.25,0-.01.02-.02.04-.02.1.01.16-.01.15-.13,0,0,0,0,0,0,.19-.03.35-.08.34-.32,0,0,0,0,0,0,.06,0,.11,0,.12-.08h.01s-.01,0-.01,0c.07,0,.08-.06.08-.11,0,0,0,0,0,0,.06,0,.1-.02.12-.08,0,0,0,0,0,0,.12.03.23-.05.34-.06.02.06.05.13.07.19.06.22.03.48.29.59.01.03.03.05.04.08,0,.1-.06.25.13.26,0,0,0,0,0,0-.01.1,0,.19.13.2.01.01.02.03,0,.04.02.03.04.06.07.09.01,0,.02.02,0,.03-.03.13.02.21.16.24.01.04.02.08.03.12-.01.06,0,.11.07.14,0,.03,0,.06.01.1-.02.13-.04.26-.18.32-.11.05-.11.15-.1.25-.03.04-.05.08-.08.13-.02.02-.04.04-.06.06,0,0,0,0,0,0-.12,0-.17.06-.2.18-.05.28-.11.55-.18.83-.03.14.01.23.1.32Z"/><path class="cls-5" d="m2.63,16.72c-.04.09-.07.18-.11.26-.17.04-.05.28-.23.32-.03-.03-.08-.05-.09-.09-.39-1.66-.51-3.33-.17-5.02.02-.01.04-.02.06-.04.19.67.34.76,1.05.63.47-.09.48-.06.58.42.12.64.09,1.29.27,1.92.04.16-.1.25-.21.34-.41.35-.83.7-1.1,1.17-.02.02-.03.04-.05.06Z"/><path class="cls-3" d="m9.22,23.35s.03,0,.04.02c.03.24.33.51.6.53,0,0,0,0,0,0-.02.14.05.21.16.29.12.09.31.17.18.39-.12.2-.26.32-.52.2.04-.14.26-.31.09-.38-.2-.09-.24.15-.28.31,0,.02-.02.04-.02.06-.02.07-.05.13-.13.11-.07-.02-.05-.08-.04-.14.03-.13-.06-.19-.15-.22-.17-.05-.69.31-.72.49-.02.13-.11.09-.18.07-.12-.04-.1-.16-.13-.25-.03-.1-.15-.28-.18-.23-.1.21-.31.04-.41.16-.52-.31-.98-.7-1.4-1.14-.02-.02-.04-.03-.07-.05-.05-.04-.11-.08-.16-.12,0,0,0,0,0,0-.01-.02-.03-.04-.04-.05.02-.11-.01-.2-.06-.29.23-.28.54-.42.88-.51.12-.03.21-.12.25-.25.03-.11.12-.13.21-.08.09.06.03.12-.02.19-.09.1-.04.2.07.23.13.04.14-.07.15-.16.01-.07.06-.14.03-.22-.08-.23.04-.18.18-.13.06.03.12.17.21.02.07-.12-.04-.15-.1-.2-.11-.09-.22-.19-.18-.36.27.18.43.46.66.68.01.25.15.38.4.39,0,0,0,0,0,0,.02.17-.09.38.25.37.16,0,.21.3.44.27Z"/><path class="cls-3" d="m11.72,1.89c-.16.06-.22.2-.26.34-.04.13-.11.22-.22.32-.1-.19.09-.27.12-.4,0-.05.04-.11,0-.15-.05-.05-.09-.02-.15,0-.2.07-.4.1-.61.05.62-.22,1.26-.33,1.91-.45.91-.16,1.81-.2,2.72-.17.25,0,.51-.02.74.09.15.21.36.06.54.1.02,0,.04,0,.05.01.14.11.36.06.48.26-.35,0-.71-.09-1.01.15-.08.06-.18.05-.27.06-.13-.08-.26-.15-.33.08-.98.25-1.91.66-2.83,1.07q-.33-.16-.12-.39c-.48-.02-.37-.37-.38-.65,0-.13.08-.36-.07-.38-.18-.03-.1.23-.18.34-.04.05,0,.14-.1.18-.08-.14-.03-.29-.04-.44,0,0,0-.02.01-.03,0,0-.01.02-.02.03Z"/><path class="cls-2" d="m7.53,24.76c.1-.12.31.05.41-.16.02-.05.14.13.18.23.03.09.01.21.13.25.06.02.16.06.18-.07.03-.18.55-.54.72-.49.09.03.18.1.15.22-.01.06-.04.12.04.14.08.02.11-.04.13-.11,0-.02.02-.04.02-.06.05-.15.08-.4.28-.31.17.08-.05.25-.09.38.26.12.4,0,.52-.2.13-.22-.06-.3-.18-.39-.11-.08-.18-.15-.16-.29.69.51,1.38,1.03,2.12,1.46,0,.28.2.18.34.19.04.02.09.05.13.07-.02.08-.04.17-.08.25-.1.2-.33.25-.48.38-.1-.25-.26-.05-.39-.06-.23-.02-.59.04-.67-.03-.25-.25-.41-.08-.6.02-.95-.32-1.81-.82-2.65-1.34-.02-.02-.04-.05-.06-.07Z"/><path class="cls-3" d="m26.46,9.4c-.42-.16-.84-.33-1.29-.43-.19-.04-.21-.2-.08-.36,0,0,0,.02.01.02,0,0,.01,0,.02,0,0,0-.02-.02-.03-.03.05-.23-.17-.06-.24-.15-.05-.06-.03.06-.03.09-.01.18-.14.02-.19.06,0-.17,0-.35,0-.52.06,0,.13,0,.19-.01.09-.04.07-.09,0-.13h0c-.06-.45-.4-.78-.54-1.19,0-.04,0-.09,0-.13.07-.16,0-.29-.09-.43,0,.1.02.2.03.3-.07-.02-.15-.03-.22-.05-.04,0-.07,0-.11-.01-.23-.04-.21.12-.21.26-.09-.09-.17-.18-.26-.27.02-.03.05-.05.07-.08.03,0,.07,0,.1,0,.1.03.17-.01.22-.1h0c.06-.05.06-.1,0-.15-.27-.55-.68-1-1.08-1.45.02-.09.05-.18.07-.27.83.63,1.51,1.41,2.12,2.24.57.78,1.05,1.62,1.43,2.52.04.09.09.18.07.28Zm-1.8-2.87s-.04-.02-.06-.02c0,.02-.03.04-.02.05,0,.01.03.02.05.03,0-.02.02-.04.02-.06Z"/><path class="cls-4" d="m10.25,26.17c.19-.1.35-.27.6-.02.08.08.43.02.67.03.13.01.29-.18.39.06.15-.14.38-.18.48-.38.04-.08.05-.17.08-.25.37.07.67.31,1.03.42.73.23,1.49.37,2.24.52.24.05.49.07.73.08,0,.03,0,.06,0,.08-.46.05-.93.12-1.39.14-.79.03-1.58.07-2.36-.07-.22-.04-.45-.1-.67-.13-.24-.03-.29.07-.28.26-.29.1-.54-.06-.87-.14.22-.06.38-.11.6-.17-.45-.16-.84-.3-1.24-.44Z"/><path class="cls-2" d="m22.82,4.36c-.02.09-.05.18-.07.27-.31-.14-.62-.29-.97-.29-.24,0-.34.05-.15.27-.03.03-.06.05-.08.08-.02,0-.03-.02-.05-.03,0-.05-.02-.09-.08-.11h0c-.02-.07.03-.2-.13-.13-.13-.05-.27-.1-.4-.15-.34-.12-.69-.03-1.04-.05-.14,0-.1.15-.17.21-.44-.11-.88-.04-1.32,0-.56.04-.57.08-.27.52.01.02.01.04.02.06-.11-.02-.53-.43-.52-.53,0-.08.07-.11.13-.12.22-.03.43-.07.65-.07.82-.01.82,0,.86-.83.06-.05.12-.05.19-.03-.04.07-.03.12.06.12.09,0,.12-.03.07-.11.49.01.98-.02,1.45.05.3.04.24-.06.19-.24.6.28,1.12.66,1.61,1.1Z"/><path class="cls-2" d="m26.02,15.78s-.04,0-.06,0c-.16-.02-.31-.05-.47-.07.07-.24-.1-.44-.14-.66-.02-.13,0-.35-.14-.36-.14,0-.18.21-.25.34-.06.11-.14.28.13.23.18-.03.27.05.27.24,0,.1,0,.21.13.22.03.12-.08.29.13.33.02.1-.04.22.09.28q.04-.18-.08-.28c0-.1.1-.17.14-.11.14.21.45.28.49.6.07-.15-.06-.39.22-.37,0,0,0-.08.01-.13.19.13.29.31.19.53-.05.1.04.13.05.2.03.17.29.35-.02.52-.12.07.19.21-.01.24-.14.02-.02-.2-.12-.26-.04-.03-.1-.02-.15-.04-.03-.02-.05-.03-.06,0-.01.05.01.1.06.12.11,0,.15.09.13.18-.04.19.07.29.2.39.02.03.04.07.06.1-.12.2-.4.25-.47.5-.09.04-.17.07-.26.11-.1-.19-.12-.4-.04-.58.14-.3-.16-.45-.24-.42-.29.09-.21-.18-.31-.26-.05-.04-.06-.13-.09-.2.09-.04.18-.04.21.05.05.2.22.2.36.19.13-.01.11-.16.12-.26.01-.16.31-.18.18-.4-.07.02-.02.12-.07.13-.09,0,0-.12-.09-.14-.15.11-.04.31-.2.53.05-.48-.13-.75-.47-.93-.06-.04-.04-.22-.07-.34-.02-.08-.01-.22-.13-.2-.14.03-.09.15-.05.24.01.03,0,.06.01.1-.18-.1-.22-.16-.38-.93-.07-.32-.06-.65-.27-.93.16.11.32.2.38.47.12-.27-.04-.35-.12-.46-.1-.16-.09-.27.09-.38.12-.07-.04-.32.2-.4-.01.24,0,.44.21.59.09.06.09.27.09.41,0,.33.12.64.21.95.01.05.04.09.09.08.14-.02-.02-.17.1-.22.14.1.19.25.2.43Zm.64,1.14s0-.02-.01-.03c0,0-.02.02-.02.02,0,0,0,.02.01.03,0,0,.01-.02.02-.02Z"/><path class="cls-2" d="m24.42,22.43c-.04-.09-.12-.13-.21-.13-.08,0-.14-.06-.11-.13.1-.27.04-.61.3-.81.1-.08.11-.16.1-.28-.05-.51.2-.95.39-1.4.04,0,.09-.02.13-.03.19.04.32-.12.5-.13.28-.02.63.06.65-.4,0-.05.08-.13.17-.13.14.15,0,.3,0,.44-.48,1.1-1.09,2.13-1.92,3.01Z"/><path class="cls-2" d="m16.05,2.04c.3-.24.65-.15,1.01-.15-.12-.2-.34-.15-.48-.26.26-.1.5.02.73.08.84.19,1.67.43,2.46.8.12.05.26.07.33.2-.38.05-.75-.08-1.13-.08.04-.11.2-.02.23-.14-.2-.17-.2-.17-.46-.04-.06.03-.09.01-.1-.03-.04-.13-.14-.11-.24-.12-.43-.05-.85-.11-1.28,0-.15.03-.33.06-.48-.05.46-.13.93-.12,1.39-.17-.66-.22-1.33-.02-1.99-.03Z"/><path class="cls-1" d="m18.97,2.63c.38,0,.74.13,1.13.08.41.12.77.33,1.12.56.05.17.11.28-.19.24-.48-.07-.97-.04-1.45-.05-.04,0-.09,0-.13,0-.07-.02-.13-.02-.19.03-.01,0-.02,0-.04,0,0-.02-.01-.04-.02-.05-.26-.22-.6-.31-.81-.59.15-.05.25.06.35.13.21.14.41.3.67.32.11,0,.32.09.33-.07.01-.15-.06-.35-.29-.38-.1-.01-.2,0-.29-.02-.1-.02-.23-.01-.23-.17h.03s.03,0,.03,0Zm1,.26s-.03-.02-.04-.03c0,.01.02.03.03.04.07.32.41.53.72.46.05-.01.08-.04.08-.08,0-.06-.03-.1-.09-.12-.23-.1-.44-.24-.69-.27Z"/><path class="cls-4" d="m26.33,18.97c-.09,0-.17.08-.17.13-.03.46-.37.38-.65.4-.18.01-.31.17-.5.13.03-.15.16-.18.27-.22.41-.15.69-.46,1.02-.71.03-.02.03-.1.04-.15.07-.25.35-.3.47-.5.08.22-.16.35-.14.56-.15.09-.29.18-.33.36Z"/><path class="cls-4" d="m5.8,23.1c.05.09.08.19.06.29-.26-.24-.55-.46-.72-.78-.02-.27-.25-.47-.28-.74.04-.04.08-.08.12-.12.03,0,.06,0,.08.01.17.49.42.92.73,1.33Z"/><path class="cls-3" d="m4.86,21.88c.03.27.26.46.28.74-.3-.22-.51-.52-.69-.84.24-.05.13-.19.1-.33-.07-.33-.25-.66-.08-1.01.12.31.04.65.18.96.05.1.09.22.14.33.01.04.02.07.04.11.01.01.02.03.03.05Z"/><path class="cls-3" d="m6.08,4.78c-.04.14-.16.21-.24.3-.18.2-.4.37-.5.63-.09.24-.32.27-.51.36.36-.49.76-.94,1.25-1.3Z"/><path class="cls-3" d="m2.54,17.58c-.07.59.26,1.07.44,1.6.04.1.11.19.09.31-.31-.59-.69-1.16-.58-1.88,0-.02.02-.03.04-.03Z"/><path class="cls-3" d="m2.55,10.14c-.07.33-.12.66-.21.99-.08.28-.05.54,0,.81-.04-.04-.08-.07-.12-.11-.11-.61.11-1.15.33-1.69Z"/><path class="cls-3" d="m7,3.95c-.28.3-.57.57-.9.81.22-.36.51-.64.9-.81Z"/><path class="cls-4" d="m2.54,17.58s-.04.01-.04.03c-.05-.07-.1-.13-.15-.2,0,0,0,0,0,0-.01-.03-.03-.07-.04-.1.17-.04.05-.28.23-.32.13.04.05.2.15.26,0,.02,0,.05.01.07-.05.09-.14.15-.14.26Z"/><path class="cls-3" d="m26.33,18.97c.05-.18.19-.28.33-.36-.05.29-.16.56-.33.81,0-.15.14-.3,0-.44Z"/><path class="cls-4" d="m2.21,11.82s.08.07.12.11c0,.04,0,.07.01.11-.09.04-.17.08-.26.13-.02.01-.04.02-.06.04,0-.16.06-.28.18-.38Z"/><path class="cls-3" d="m3.69,20.7c.21.13.32.32.37.56-.19-.14-.28-.35-.37-.56Z"/><path class="cls-2" d="m16.52,1.62c-.18-.04-.39.1-.54-.1.18.04.39-.06.54.1Z"/><path class="cls-3" d="m4.05,21.25c.17.12.34.24.35.48-.14-.14-.28-.28-.35-.48Z"/><path class="cls-3" d="m2.94,9.11c.01.2-.05.37-.21.49.04-.18.12-.34.21-.49Z"/><path class="cls-3" d="m3.47,8.04c-.03.16,0,.36-.22.43,0-.18.1-.31.22-.43Z"/><path class="cls-3" d="m3.4,20.17c.18.13.24.32.29.52-.16-.14-.23-.33-.29-.52Z"/><path class="cls-3" d="m3.07,19.51c.16.15.25.33.27.55-.13-.16-.23-.34-.27-.55Z"/><path class="cls-3" d="m7.27,3.78c-.02.16-.14.18-.27.17.07-.09.16-.14.27-.17Z"/><path class="cls-3" d="m4.53,6.44c.02.13-.04.21-.16.24.02-.11.08-.18.16-.24Z"/><path class="cls-3" d="m3.81,7.45c0,.09.03.21-.12.22.01-.09.03-.18.12-.22Z"/><path class="cls-3" d="m4.8,6.13c0,.14-.05.21-.19.22.04-.1.1-.17.19-.22Z"/><path class="cls-3" d="m3.61,7.81c0,.1-.04.16-.13.2,0-.09.05-.16.13-.2Z"/><path class="cls-3" d="m2.68,9.81c0,.08.02.17-.1.19-.01-.09.02-.15.1-.19Z"/><path class="cls-3" d="m4.14,6.99c.01.11-.03.19-.14.22,0-.1.05-.17.14-.22Z"/><path class="cls-3" d="m4,7.2c.01.07,0,.13-.08.15,0-.07.02-.12.08-.15Z"/><path class="cls-3" d="m3.2,8.58c-.02.09-.05.17-.13.23,0-.1.04-.18.13-.23Z"/><path class="cls-3" d="m7.53,3.61c-.02.09-.08.14-.18.14.02-.09.08-.13.18-.14Z"/><path class="cls-4" d="m6.07,23.57s.04.03.07.05c-.03,0-.07,0-.07-.05Z"/><path class="cls-3" d="m4.35,6.71s-.03.08-.09.09c0-.06.04-.08.09-.09Z"/><path class="cls-5" d="m2.33,17.4s0,0,0,0c-.02.04-.02.03,0,0Z"/><path class="cls-3" d="m2.7,9.75s0,.03,0,.04c0,0-.01,0-.02.01,0-.02,0-.04.02-.06Z"/><path class="cls-3" d="m3.07,8.84s-.02.06-.03.09c.01-.03.02-.06.03-.09Z"/><path class="cls-3" d="m3.33,20.05s.05.07.07.11c-.05-.02-.07-.06-.07-.11Z"/><path class="cls-3" d="m4.27,6.8s-.05.05-.07.08c.02-.03.05-.05.07-.08Z"/><path class="cls-4" d="m5.91,23.45s0,0,0,0c0,0,0,0,0,0Z"/><path class="cls-2" d="m20.16,9.87c.49-.13.99-.19,1.49-.24.7-.06,1.4-.17,2.1-.16,0,.14.03.25.2.25.03.05.08.07.14.07,0,.07,0,.13,0,.2-.04,0-.08,0-.12,0-.03-.04-.07-.12-.11-.07-.07.09,0,.18.04.27v.33c-.15.05-.15-.12-.24-.14-.05.06-.03.12,0,.18.13.28.13.28-.13.4-.03.01-.02.1-.04.15,0,0,0,0,0,0-.32-.14-.62.05-.93.07-.02-.15-.09-.25-.25-.25-.02,0-.06.05-.05.06.04.15.16.2.3.19-.01.11.03.18.15.22.14.05.2.16.18.31h0c-.18-.01-.21.06-.13.21.04.06.1.15.02.21-.05.04-.15.04-.22.02-.12-.04-.09-.15-.04-.22.1-.15-.14-.28,0-.42,0,0-.03-.05-.03-.05-.27.2-.3-.06-.42-.2-.14-.16-.31-.29-.46-.44-.05-.05-.09-.09-.16-.05-.05.03-.11.06-.12.1-.03.1.06.09.12.11.15.04.2.13.14.27-.09.2.1.41-.07.62-.08-.13-.28-.19-.12-.42.09-.14-.07-.13-.17-.15,0-.16-.05-.29-.21-.32-.12-.02-.15.1-.17.23.15-.04.27,0,.38.09.04.23-.09.21-.23.13-.12-.07-.16-.04-.17.08,0,.03-.02.06-.03.09-.04.13-.28.02-.26.19.02.17.2,0,.27.08.07.08.1.17.02.27-.08.1-.08.09-.29-.14-.07.05-.08.14-.07.2.02.13-.04.17-.15.14-.12-.03-.12-.16-.06-.22.12-.13.11-.24.05-.4-.07-.2.06-.33.26-.38.07-.02.23-.05.1-.19-.07-.08-.15-.2-.25-.02-.07.13-.31-.09-.32.16,0,.36-.07.73.03,1.09.03.11.05.2.02.3-.17.48-.38.96-.46,1.47-.29.04-.36.32-.3.47.13.35-.02.61-.18.87-.04.07-.08.16,0,.2.09.06.12-.05.16-.11.29-.44.26-.95.33-1.44.37-.04.27-.4.39-.6.05-.07,0-.2.12-.25.07-.03.13.01.16.08.06.1.05.19,0,.31-.19.49-.53.92-.61,1.46-.05.32-.26.65.11.92.02.02,0,.08,0,.13-.29,0-.11.37-.35.43-.12.03-.04.13.02.17.27.19.13.36-.05.47-.21.13-.12.22,0,.3.21.13.22.27.05.43-.04.03-.12.04-.1.1.06.19,0,.31-.17.4-.09.05-.09.2,0,.26.08.06.12-.05.15-.12,0-.02.01-.05.03-.06.39-.27.45-.63.29-1.05-.06-.17,0-.28.14-.3.21-.03.12.16.14.26.03.2-.12.48.23.56.04.01.02.1,0,.15-.07.35.06.66.26.93.11.14.07.2-.02.3-.11.12-.15.26-.14.43-.09,0-.18,0-.27,0-.04-.06-.08-.06-.13,0-.04,0-.09,0-.13-.01-.03-.09.04-.2-.07-.27-.11.04-.12.14-.14.24-.69-.04-1.38-.03-2.06-.13.13-.22.15-.47.13-.72,0-.07-.02-.13-.11-.12-.07,0-.09.07-.08.12.08.25-.09.47-.07.72-.43-.02-.85-.08-1.27-.16.01-.09,0-.18.16-.12.26.1.46,0,.43-.26-.05-.35.37-.45.34-.77.56-.18.18-.46.06-.7-.02-.05-.07-.08-.11-.12-.1-.07-.04-.13.01-.19.05-.06.07-.15.17-.12.08.03.06.1.07.17.03.22.16.44.34.51.23.09.09-.23.21-.31.02-.01.03-.03.05-.05.07-.09-.04-.54-.14-.58-.06-.03-.13-.02-.17.05-.04.07-.06.24-.18.14-.09-.06-.01-.18.06-.26.18-.2.1-.35-.09-.47.04-.25-.14-.48-.03-.75.06.06.11.1.14.16.04.07.01.25.17.17.1-.05.04-.17,0-.26-.19-.36-.23-.77-.29-1.17-.03-.19-.09-.35.13-.54-.05.49.17.88.18,1.34.17-.1.2-.22.16-.34-.19-.58-.24-1.18-.18-1.78,0,0,0,0,0,0,.14.03.43-.06.3.21-.09.2-.09.4-.07.56.02.23-.06.53.2.73.16-.26.02-.52.07-.78.04-.2-.05-.41.13-.6.06-.07.11-.21-.03-.26-.19-.06-.21-.06-.1-.23.17-.24.04-.51.09-.76.01-.06-.02-.19-.15-.16-.2.04-.16-.06-.1-.17.13-.21.14-.43.13-.66h0c.24.16.15.41.17.63,0,.06-.05.14.02.17.11.04.05-.13.14-.14-.05.35.03.71-.13,1.04-.02.05-.06.13.05.15.07,0,.11-.04.15-.1.17-.25,0-.56.15-.81.13-.23,0-.3-.22-.28,0-.18,0-.37,0-.53,0-.23-.27-.4-.1-.65.03-.05-.08-.2-.21-.18-.11.02-.16.1-.14.22.01.09.13.13.08.25-.1-.01-.28-.02-.25-.12.06-.19-.11-.27-.11-.42.26-.22.59-.21.9-.26.48-.07.94-.23,1.44-.21,0,.2.13.33.2.5.03.12-.07.33.06.35.18.03.13-.21.2-.32,0,0,0-.02,0-.03-.02-.23-.36-.27-.33-.53Zm-3.26,9.37c.01.18-.03.34.18.33.19,0,.15-.15.16-.27.02-.22-.07-.47.26-.55.13-.03.04-.17-.01-.25-.06-.08-.2-.09-.22,0-.08.29-.42.45-.36.74Zm2.21-8.02s-.06.04-.06.06c-.05.4-.21.78-.2,1.19,0,.06.02.11.09.11.09,0,.1-.08.1-.14,0-.35-.01-.7.16-1.03.04-.08.02-.15-.08-.18Zm2.21-1.4c.12.19.08.28-.1.38-.1.05-.05.2-.05.31,0,.08.02.17.1.18.12.01.09-.1.09-.17,0-.08,0-.16.07-.21.28-.21.06-.34-.11-.49Zm-3.22,6.91c-.24-.09-.25-.3-.29-.5-.01-.06-.09-.05-.14-.04-.06.02-.08.07-.08.13.02.21.19.33.27.5.01.02.12,0,.18,0,.02,0,.03-.05.06-.09Zm5.29-5.9c-.09-.19-.25-.24-.42-.29-.04-.01-.09,0-.11.04,0,.02.01.08.02.08.19-.02.29.25.51.17Zm-4.49,2.84c0-.09-.04-.15-.14-.14-.11,0-.13.07-.12.16,0,.08.05.15.15.15.11,0,.11-.09.11-.17Zm.85-1.12c.04.12-.1.26.05.36.02.01.09-.02.11-.05.08-.15-.02-.23-.16-.31Zm-.12.85c.09-.16.09-.27.01-.38-.01-.01-.08-.01-.08,0-.05.12,0,.23.07.38Zm-.22.54c.11-.2.12-.31-.1-.45.04.18.06.28.1.45Zm.85,5.35c0,.14-.18.19-.14.35,0,.01.07.03.08.02.1-.1.13-.23.06-.37Zm-2.59-1.07s-.05.05-.06.07c-.02.06-.06.14.05.1.06-.02.04-.11,0-.17Zm1.11-5.45s-.02.07-.02.1c0,.02.02.05.02.05.05-.02.04-.07.03-.1,0-.01-.02-.03-.04-.05Z"/><path class="cls-2" d="m22.96,9.01c-1.44.07-2.84.34-4.25.61-.29.06-.57.19-.87.18.02-.1-.06-.28.16-.24.09.02.18.04.22-.07.04-.11.02-.18-.1-.24-.1-.05-.1-.15-.03-.22.07-.06.15,0,.2.05.08.09.16.18.23.28.07.09.15.13.25.05.08-.06.16-.13.07-.25-.04-.05-.07-.11-.02-.18.2-.31.13-.64,0-.94-.17-.39-.18-.8-.29-1.2.14.08.22.22.23.35.02.33.11.33.31.11.08-.08.16-.08.07-.23-.09-.14-.02-.32.15-.41.02.07,0,.16.09.2h0c-.02.12.05.18.15.21.01.02.02.04.03.06,0,.06.02.1.08.13.02.07.04.13.06.2-.02.16.08.28.13.41,0,.06,0,.13-.01.19-.02.08-.07.17.03.23.09.06.18.06.26-.04.22.03.43-.06.65-.06.07,0,.15.02.2-.06.05,0,.1,0,.15,0,.02,0,.03-.01.04-.02.05,0,.1-.01.15-.02.04.04.08.05.13,0,.05,0,.09,0,.14,0,.03.02.05,0,.06-.02h0c.06,0,.13,0,.19,0,.2-.02.4-.05.61-.07.07,0,.12-.04.14-.1.02.02.03.04.05.06.02.02.04.03.06.05h0s.05.04.07,0c.02,0,.04,0,.07-.01.04.17.17.09.27.08.04.15.1.28.27.33.05,0,.1-.01.13-.07.11.09.05.22.07.33-.02,0-.04,0-.07,0-.08-.04-.14-.04-.14.07-.18.02-.12.16-.13.26-.02,0-.05,0-.07,0-.07-.13-.11-.29-.31-.28.04.1.08.19.12.28Zm-3.52-1l-.03-.03s.02.02.03.03c0,.23.02.46,0,.69-.01.17.11.28.15.43.01.04.05.07.1.06.02,0,.06-.05.06-.06-.13-.35-.07-.73-.15-1.08,0-.02-.1-.03-.15-.04Z"/><path class="cls-1" d="m23.43,6.41c.09.09.17.18.26.27.28.29.25.76.6,1.02.09.07.17.26-.07.32-.02,0-.04-.02-.06-.02-.3-.05-.24-.41-.47-.52-.03-.19-.15-.34-.27-.48.03.19,0,.42.27.47,0,.18.13.35.08.54h0s-.09,0-.14,0c-.04-.02-.08-.03-.12-.05-.13-.03-.15-.14-.22-.23-.14-.16-.16-.37-.29-.54-.2-.26-.33-.58-.49-.88.35-.1.63.16.94.1Z"/><path class="cls-2" d="m24.17,12.45c.05.07.08.1.1.14.04.07,0,.21.13.19.14-.02.07-.13.04-.21-.08-.27.27-.06.27-.24.12.02.11.11.11.19,0,.09.02.17.05.26.03.06.11.14.02.2-.07.05-.11-.02-.14-.09-.04-.08-.09-.03-.12,0-.07.07-.05.13,0,.2.11.16.1.16-.1.21-.14.03-.08.13-.05.21.02.06,0,.11-.06.13-.03,0-.08,0-.08-.03-.05-.13-.15-.36-.13-.38.19-.26-.07-.46-.06-.68,0-.02.01-.04.03-.1Z"/><path class="cls-2" d="m22.32,12.57c-.08-.06-.17-.07-.22.04-.05.12-.13.14-.24.1-.07-.03-.14-.08-.15-.16-.01-.11.12-.12.17-.18.24-.32.49-.12.73-.01.17.07.18.28.02.37-.04.03-.11.02-.13.09-.04.2-.18.25-.3.13-.14-.13,0-.25.12-.33,0,0,0-.02,0-.04Z"/><path class="cls-3" d="m24.08,10.01c0-.07,0-.13,0-.2-.07-.1-.07-.22-.07-.33.13,0,.27,0,.4,0,.04.14-.12.34.14.4.08.05.04.21.19.2.06.04.13.08.18.14.04.05.03.14-.03.17-.07.04-.12,0-.15-.08-.03-.07-.04-.17-.15-.13-.09.03.05.15-.05.2-.16-.06-.11-.24-.18-.34-.13.01-.07.17-.19.19-.03-.07-.07-.14-.11-.22Z"/><path class="cls-2" d="m26.35,13.53c.19.04.18-.14.26-.27.06.28-.13.49-.09.73,0,.02-.28.1-.44.14-.14.03-.2-.05-.19-.19,0-.07,0-.13,0-.2,0-.14,0-.25.2-.13.1.07.23.1.27-.08Z"/><path class="cls-2" d="m20.81,19.22c-.36-.61-.43-1.13-.07-1.7.11.22.16.39-.03.56-.12.11-.1.23,0,.35.17.22.12.46.1.79Z"/><path class="cls-2" d="m25.7,18.85c-.02.08-.06.13-.15.13-.08.02-.17.05-.25.06-.07.01-.15.1-.2-.02-.03-.08-.04-.21.04-.24.4-.17.26-.51.28-.8,0-.07,0-.13,0-.23.12.07.21.13.31.2-.24.21-.24.48-.25.74,0,.15.11.14.21.15Z"/><path class="cls-2" d="m20.35,16.13c-.1.15.02.41-.26.48-.09.02,0,.12-.02.18-.03.1-.09.2-.2.17-.12-.03-.13-.15-.09-.25.11-.26.38-.43.41-.73,0-.05.07-.05.11-.03.07.04.06.11.04.18Z"/><path class="cls-2" d="m21.56,12.33c-.07.14.01.26.06.39.02.07.05.2-.05.23-.1.03-.12-.07-.13-.14-.02-.13-.08-.13-.18-.1-.13.04-.17-.07-.2-.17-.03-.1.02-.19.12-.2.13,0,.26-.35.4-.01h0Z"/><path class="cls-2" d="m24.88,16.72c.01-.32-.04-.61-.33-.81-.07-.05-.09-.11-.01-.16.09-.05.26-.05.27.03.06.39.36.71.29,1.13,0,0-.02.01-.03.02-.09-.04-.03-.23-.19-.21,0,0,0,0,0,0Z"/><path class="cls-2" d="m24.62,8.09c0,.17,0,.35,0,.52.02.15-.06.21-.2.2,0,0,0,0,0,0,0-.07.01-.15-.07-.2-.05-.17-.08-.35-.07-.53.11,0,.23,0,.34,0Z"/><path class="cls-2" d="m25.28,12.06c.2.1.29.31.42.47.12.15-.2.11-.15.26-.11-.02-.22-.05-.33-.07,0-.04,0-.08,0-.13.06,0,.11-.02.14-.07.21-.21,0-.25-.13-.33-.11-.1-.03-.12.06-.14Z"/><path class="cls-2" d="m21.46,13.96c-.22-.26-.18-.48-.12-.7.02-.08.08-.14.17-.11.1.03.15.12.1.21-.09.17-.1.35-.14.6Z"/><path class="cls-3" d="m24.52,11.64c-.11,0-.11-.09-.12-.14-.07-.24-.1-.5-.22-.72-.03-.05-.03-.12.03-.14.06-.02.11.02.12.08.06.27.08.54.25.78.05.07-.02.12-.06.15Z"/><path class="cls-3" d="m24.28,8.08c-.01.18.02.35.07.53-.12.11,0,.15.07.2,0,0,0,0,0,0-.04.19-.14.12-.18.02-.11-.26-.15-.54-.08-.83.02,0,.04.01.06.02.02.02.04.04.06.06Z"/><path class="cls-2" d="m24.12,13.78c-.11-.14-.21-.22-.33-.27-.08-.04-.12-.11-.07-.19.04-.07.11-.03.18-.02.26.05.3.22.23.48Z"/><path class="cls-3" d="m23.49,7.97s.08.03.12.05c0,.28.19.53.09.82-.12.02-.07-.14-.16-.16-.02-.11.05-.24-.07-.33,0-.12,0-.25,0-.37Z"/><path class="cls-2" d="m23.82,12.73c-.07-.16-.21-.13-.34-.14-.1,0-.13-.07-.12-.16.01-.08.07-.09.14-.09.31,0,.38.08.31.38Z"/><path class="cls-2" d="m23.28,12.84c.13-.05.22-.09.31-.11.07-.01.18-.05.22.03.04.08-.02.17-.08.24-.07.08-.15.07-.23,0-.06-.05-.12-.09-.23-.17Z"/><path class="cls-3" d="m25.21,12.6s0,.08,0,.13c-.16.1-.24.04-.26-.14-.01-.14-.02-.27-.03-.44.25.07.15.34.29.45Z"/><path class="cls-2" d="m21.16,15.76c0,.25,0,.44,0,.62,0,.04,0,.1-.06.1-.03,0-.1-.04-.1-.05.05-.2-.14-.43.16-.67Z"/><path class="cls-2" d="m20.97,17.49c0-.11.04-.23.09-.2.19.1.08.32.16.48.03.05-.03.16-.09.13-.18-.08-.06-.3-.16-.4Z"/><path class="cls-3" d="m23.76,8.02c.2.07.33.47.2.82-.08-.32-.14-.57-.2-.82,0,0,0,0,0,0Z"/><path class="cls-2" d="m22.89,11.73c.26-.15.37.13.48.15-.07-.13-.45.37-.48-.15,0,0,0,0,0,0Z"/><path class="cls-2" d="m20.1,14.84c.1.19.19.33.1.5-.03.06-.1.01-.14-.03-.16-.15-.09-.29.04-.47Z"/><path class="cls-2" d="m20.1,15.72c0,.08.02.19-.12.19-.11,0-.14-.09-.15-.19,0-.09,0-.19.13-.19.13,0,.13.09.14.19Z"/><path class="cls-5" d="m24.75,10.07c-.15.02-.11-.14-.19-.2-.03-.13-.1-.26-.08-.4,0,0,0,0,0,0,.26.12.27.36.27.6Z"/><path class="cls-2" d="m23.75,11.27c-.02.08-.06.17-.06.25,0,.25-.12.2-.3.12.39-.12.08-.33.09-.5,0,0,0,0,0,0,.09.04.18.09.27.13h0Z"/><path class="cls-2" d="m20.71,12.92c-.03-.18-.27-.21-.16-.39.03-.05.15-.09.16-.08.11.13.11.27,0,.47Z"/><path class="cls-2" d="m22.48,13.47c-.06.05-.13.14-.17.13-.11-.02-.15-.12-.14-.23,0-.08.06-.12.13-.1.09.02.14.09.18.19Z"/><path class="cls-2" d="m24.47,13.85c.15-.04.16.05.15.16-.02.18-.12.02-.18.04-.15.07-.14-.04-.15-.12,0-.14.08-.12.18-.09Z"/><path class="cls-3" d="m24.71,11.29c-.22-.12-.13-.34-.25-.59.28.19.21.41.25.59Z"/><path class="cls-2" d="m24.75,17.32c-.06,0-.14-.03-.12-.09.08-.17.07-.39.25-.51,0,0,0,0,0,0,0,.21-.06.41-.13.6h0Z"/><path class="cls-2" d="m20.8,15.77c-.04.06-.01.19-.13.2-.09,0-.1-.07-.1-.13,0-.1.02-.18.14-.17.06,0,.11.03.09.11Z"/><path class="cls-2" d="m21.31,14.11c.19.11.13.23.06.35-.02.04-.09.06-.11.02-.08-.13-.03-.25.05-.37Z"/><path class="cls-2" d="m20.37,17.48c.09.04.12.12.11.21,0,.08-.08.1-.15.09-.1-.01-.11-.09-.1-.17.01-.07.04-.12.13-.12Z"/><path class="cls-2" d="m23.11,13.22c-.08.03-.15.03-.14-.07,0-.1.08-.15.18-.15.08,0,.12.03.13.11.02.17-.12.07-.17.11Z"/><path class="cls-2" d="m20.37,14.85c-.11,0-.14-.05-.13-.13,0-.08.03-.16.12-.17.1-.01.13.06.13.15,0,.09-.06.13-.12.15Z"/><path class="cls-3" d="m25.22,13.19c.28.13.15.32.05.5-.02-.17-.03-.33-.05-.5,0,0,0,0,0,0Z"/><path class="cls-2" d="m20.43,12.94c-.01.06.02.15-.07.16-.1,0-.12-.08-.13-.16,0-.08.02-.17.11-.18.11,0,.08.11.09.18Z"/><path class="cls-2" d="m23.21,12.34c0,.05-.05.11-.07.09-.06-.1-.23-.02-.25-.15,0-.06.05-.13.12-.12.11.01.16.09.19.18Z"/><path class="cls-2" d="m20.64,17.43c-.09-.03-.08-.11-.07-.19,0-.07.04-.13.13-.1.08.03.07.1.07.17,0,.07-.02.13-.12.12Z"/><path class="cls-2" d="m20.91,16.73c.1,0,.11.06.11.13,0,.06.02.15-.07.16-.08,0-.11-.06-.12-.13,0-.07,0-.13.07-.15Z"/><path class="cls-3" d="m25.21,13.2c-.35.08-.14-.17-.21-.3.19.05.21.17.21.29,0,0,0,0,0,0Z"/><path class="cls-2" d="m20.51,16.84c-.06,0-.12-.04-.12-.11,0-.08.05-.12.12-.13.08-.01.12.04.12.11,0,.07-.02.13-.11.13Z"/><path class="cls-2" d="m25.75,12.86c.09-.02.03-.2.16-.16.04.01.08.09.08.14,0,.16-.13.15-.24.15,0-.04,0-.09,0-.13Z"/><path class="cls-2" d="m20.75,16.26s-.04.11-.12.1c-.07,0-.12-.05-.1-.13.01-.07.07-.11.14-.1.06,0,.09.04.08.13Z"/><path class="cls-2" d="m25.27,18.01c-.01.16.07.29,0,.46-.1-.16-.17-.29,0-.46Z"/><path class="cls-3" d="m25.22,12.2c.13.08.34.12.13.33,0-.12-.17-.19-.13-.33Z"/><path class="cls-2" d="m25.19,17.48c.12.19.08.28,0,.38-.08-.11-.04-.21,0-.38Z"/><path class="cls-2" d="m24.75,17.32c.21.06.14.17.06.3-.09-.11-.04-.21-.06-.3,0,0,0,0,0,0Z"/><path class="cls-3" d="m23.89,10.2c-.04-.09-.11-.18-.04-.27.04-.05.08.03.11.07,0,.06,0,.13,0,.19h0s-.04,0-.06,0Z"/><path class="cls-1" d="m24.46,9.03c.17-.04.26-.09.38.03-.12.02-.21.03-.38-.03Z"/><path class="cls-2" d="m24.15,12.2s0,.1-.06.1c-.06,0-.06-.05-.06-.1,0-.04,0-.1.06-.1.06,0,.06.05.06.1Z"/><path class="cls-2" d="m23.75,11.27c0-.05.01-.12.09-.1.05.02.09.08.05.13-.04.05-.09-.02-.14-.03,0,0,0,0,0,0Z"/><path class="cls-2" d="m25.3,16.93s.04.07.04.09c0,.05-.03.08-.08.05-.02-.01-.03-.06-.02-.08,0-.02.04-.04.07-.07Z"/><path class="cls-2" d="m23.49,13.21s.05.06.05.08c0,.05-.02.08-.07.07-.02,0-.03-.05-.03-.08,0-.02.03-.04.06-.07Z"/><path class="cls-3" d="m23.35,8.74c0-.11.06-.11.14-.07-.01.09-.03.17-.14.07Z"/><path class="cls-2" d="m25.89,18.71c-.01.08-.05.14-.15.13,0-.09.05-.14.15-.13Z"/><path class="cls-1" d="m24.28,9.03s.02,0,.02.01c-.01,0-.02.02-.03.02,0,0-.01-.02-.01-.02,0,0,.01,0,.02-.01Z"/><path class="cls-3" d="m23.96,10.2s.02.02.03.03c-.01,0-.02-.02-.03-.03,0,0,0,0,0,0Z"/><path class="cls-2" d="m21.56,12.33s.01-.02.02-.03c0,0-.01.02-.02.03,0,0,0,0,0,0Z"/><path class="cls-5" d="m11.8,11.69c-.97.34-1.95.63-2.88,1.06-1.32.61-2.7,1.12-3.91,1.95-.11.07-.22.15-.32.23-.3.21-.33.21-.41-.13-.16-.69-.39-1.36-.4-2.08,0-.11-.01-.21.09-.3.5-.44.83-1.03,1.2-1.57.34-.5.75-.95,1.15-1.41.82-.94,1.63-1.89,2.5-2.78.76-.78,1.55-1.54,2.45-2.16.49-.34.95-.72,1.5-.96.19.05.38.08.4-.2,0,0,0,0,0,0,.05,0,.1,0,.14.01.23.13.47.08.67-.06.1-.07.16-.04.18.02.08.22.22.4.35.62-.23-.02-.28-.26-.47-.25,0-.05,0-.1-.08-.1,0,0-.02.01-.02.02,0,.07.05.07.1.08.07.23.22.38.47.36.16-.01.11.09.13.17-.12,0-.24-.02-.41-.03.12.13.21.2.17.37-.05.19.23.1.29.24.01.03.09.03.11-.02.04-.11-.11-.13-.13-.2-.03-.11-.02-.24-.03-.35.14.02.3-.04.45.06-.27.21-.18.52-.02.6.3.15.21.36.24.57.03.19-.06.36-.02.55.1.55.29,1.08.51,1.59.18.41-.05.91.3,1.28.01.02-.04.09-.06.14-.07.18-.14.36-.19.54-.02.08,0,.19.1.22.07.02.08-.05.09-.1.02-.11-.04-.3.13-.28.14.02.05.21.07.32.01.06,0,.13,0,.2-.03.2-.18.3-.32.19-.25-.2-.34-.13-.41.13-.01.05-.05.15-.16.14-.07-.07,0-.24-.13-.24-.13,0-.15.13-.19.23-.04.09-.09.15-.19.03-.15-.19-.21-.15-.21.08,0,.08-.04.17-.06.26-.04,0-.09.01-.13.02-.1-.19-.21-.12-.31-.01-.12.12-.22.28-.3-.02-.03-.1-.11-.08-.14-.02-.07.15-.26.22-.23.42-.05.02-.1.04-.14.06.01-.21-.06-.43.11-.62.04-.04.03-.13-.04-.17-.08-.03-.11.02-.13.1-.06.25-.12.51-.18.76,0,0-.01,0-.01,0-.13.01-.11-.18-.23-.19-.18.34-.23.36-.47.14-.06.12-.12.24-.1.37-.13.04-.27.09-.4.13-.05-.15.22-.3-.03-.46-.03.17-.26.3-.02.47Zm3.88-2.32c0-.2-.01-.42.13-.59.04-.04-.01-.11-.05-.14-.17-.15-.25-.3-.07-.5.06-.07-.02-.17-.04-.25-.06-.22-.15-.42-.21-.63-.03-.1-.01-.22-.14-.21-.18,0-.1.16-.11.26,0,.08.07.13.1.2.1.25.23.48.2.8-.03.31.1.65.07.98,0,.04.03.11.14.1Zm-.71-3.33c.19-.29,0-.62.12-.92.01-.03-.03-.08-.08-.08-.07,0-.1.04-.1.1,0,.3-.03.6.06.9Z"/><path class="cls-5" d="m6.2,18.19h-.02s-.02,0-.02,0c-.28,0-.57.03-.61-.38,0-.07-.08-.1-.15-.09-.02-.04-.04-.08-.07-.13-.02-.03-.03-.05-.05-.08,0-.03-.02-.07-.03-.1-.05-.2.02-.46-.25-.57-.18-.33-.27-.7-.41-1.04-.07-.18.04-.24.14-.32,1.01-.79,2.15-1.36,3.33-1.87.45-.19.89-.43,1.34-.64.1.03.19,0,.29-.03.77-.28,1.55-.55,2.32-.84.24-.09.52-.1.71-.31.36-.07.71-.2,1.06-.33.12-.05.24-.1.38-.08.3-.04.16.27.29.4.13-.2-.07-.36,0-.52.07-.01.13-.02.2-.03-.01.16.04.3.08.45.06.22.04.25-.2.28-.09,0-.11.07-.12.14-.02.1.07.09.13.1.25.02.25.14.17.34-.12.31-.24.62-.19.97.09-.27.34-.47.34-.77,0-.14.06-.25.16-.24.14.01.08.16.06.25-.05.3-.1.6-.17.89-.01.06-.09.11.02.14.09.02.17-.02.16-.11-.02-.23.15-.39.2-.59.02-.07-.02-.22.12-.17.11.04.15.25.12.28-.26.18-.19.54-.44.74-.27.22-.3.57-.13.87.07.12.09.24,0,.37-.16.24-.34.47-.43.74-.07.2-.11.38-.3.51-.11.07-.19.2.03.29.07.03.14.18.05.22-.2.09-.41.19-.68.19.11-.17.29-.23.27-.4-.05-.43.29-.69.47-1.01.1-.18.28-.3.28-.53,0-.14.23-.32.01-.39-.21-.08-.15.24-.28.33-.02.01,0,.06-.02.09-.12.37-.22.76-.59.99-.12.07-.16.22-.12.35.03.11.02.23-.03.28-.33.26-.12.74-.43,1-.04.03.01.12.07.17.16-.2.4-.33.42-.63,0-.09.09-.12.16-.02.12.15.21.3-.02.44-.14.08-.22.21-.31.34-.16.25-.27.25-.38-.02-.07-.18-.15-.25-.33-.16.01.14.17.06.2.15.01.05-.31.58-.37.6-.24.08-.48-.16-.72-.01-.11-.28-.28-.11-.44-.07-.13.03-.22-.14-.37-.08-.33.13-.65.15-.98-.02-.09-.05-.14.02-.15.12-.04,0-.09,0-.13,0-.06-.19-.16-.16-.27-.04-.11-.01-.22-.02-.33-.03-.23-.24-.51-.2-.79-.12-.04,0-.09-.01-.13-.02-.2-.2-.46-.11-.7-.16-.03,0-.07,0-.1,0-.43-.22-.87-.3-1.33-.07Z"/><path class="cls-3" d="m11.11,24.37s-.04-.04-.06-.06c-.02-.03-.05-.05-.07-.08-.09-.05-.17-.1-.26-.14,0-.16-.07-.21-.22-.18-.18-.07-.3-.23-.45-.35-.02-.02-.04-.04-.06-.06-.48-.33-.95-.67-1.36-1.08-.66-.67-1.26-1.39-1.79-2.16.12,0,.3-.05.31.1.04.28.58.23.39.64,0,0,.04.03.05.03.18-.13.5.17.58-.22.18.34.32.38.62.16.16-.12.33-.11.5-.11.09,0,.17.05.13.14-.07.16.07.3,0,.45-.05.08,0,.15.07.19.05.02.11.01.15-.03.08-.07.03-.13,0-.2-.12-.2-.05-.31.17-.28.46.07.22-.31.27-.46.07-.21-.17-.11-.28-.14-.06-.02-.18.05-.16-.09.01-.09.09-.12.18-.09.21.08.37.09.37-.21,0-.06.04-.11.1-.11.07,0,.08.06.08.12,0,.06,0,.11.01.17.02.08.06.15.14.17.08.02.12-.05.15-.1.05-.08.03-.14-.06-.18-.13-.06-.07-.11.01-.15.16-.08.28-.08.28.15,0,.11.02.22.16.18.16-.04.12-.17.05-.26-.11-.16-.09-.35.08-.37.33-.03.19-.21.17-.37.55,0,1.09.15,1.63.23.25.03.51.01.76.07.06.19.22.09.34.11.05.02.09.04.14.07-.02.25.02.48.12.72.19-.23.04-.54.27-.71.31.1.62.17.94.11.02,0,.04,0,.05.01.18.16.39.17.6.09.04,0,.08,0,.12,0,.1.19.45.06.44.41.02-.37.22-.18.36-.16,0,.29.02.57-.07.85-.02.07-.03.16-.13.18-.17.03-.24.13-.2.29,0,.02,0,.05,0,.07.07.23,0,.47.05.78-.28-.29-.15-.66-.38-.89-.1.21-.11.21.02.48.07.15.04.28-.1.33-.15.05-.1-.13-.16-.2-.05-.05.01-.16-.09-.19-.09.05-.11.28-.2.21-.35-.23-.33.09-.49.22-.17.13-.08.22-.1.33-.02.12.11.19.09.26-.08.15-.38-.03-.29.21.09.24-.09.33-.15.49-.03-.05-.04-.09-.05-.13-.02-.11.06-.28-.13-.28-.19,0-.12.17-.13.28,0,.12-.05.25-.16.26-.19.03-.06-.17-.14-.24-.01-.01-.04-.01-.06-.02-.17.34-.47.56-.8.76-.08-.18.04-.27.1-.38.02-.04.05-.08,0-.12-.04-.03-.1-.03-.12,0-.18.41-.71.3-.89.66-.13-.07-.03-.46-.32-.19-.04.04-.02.15-.12.12-.09-.03-.1-.11-.08-.19.01-.06.07-.14-.04-.16-.09-.02-.09.06-.12.12-.09.2-.2.39-.47.33,0,0,0,0,0,0,.07-.37-.15-.25-.34-.2Zm-2.33-3.01c.11-.08.39-.01.37-.17-.03-.21-.23.05-.35-.02-.02,0-.04,0-.07,0-.07.01-.18-.03-.16.1.02.09.11.1.21.09Zm-.58-.05c0-.07-.01-.14-.11-.13-.12.02-.1.13-.13.21-.02.07.03.1.09.1.12,0,.14-.08.14-.18Zm2.45-.66c-.01-.06-.05-.09-.12-.09-.1,0-.14.05-.13.14,0,.06.03.11.1.09.07-.02.15-.05.15-.14Zm3.24-.67s.03-.04.03-.05c0-.02-.02-.03-.03-.05,0,.02-.03.03-.03.05,0,.02.02.03.03.05Z"/><path class="cls-3" d="m9.99,18.65c0-.09.06-.16.15-.12.33.17.65.15.98.02.15-.06.25.11.37.08.16-.04.33-.22.44.07.24-.15.48.09.72.01.06-.02.38-.55.37-.6-.03-.1-.18-.02-.2-.15.18-.09.26-.02.33.16.11.27.22.27.38.02.09-.13.17-.26.31-.34.23-.14.14-.29.02-.44-.08-.1-.15-.07-.16.02-.02.3-.26.43-.42.63-.06-.04-.11-.13-.07-.17.31-.27.1-.74.43-1,.06-.05.07-.17.03-.28-.04-.13,0-.28.12-.35.37-.23.47-.62.59-.99.01-.03,0-.08.02-.09.13-.09.07-.41.28-.33.22.08-.01.26-.01.39,0,.24-.18.36-.28.53-.18.32-.52.58-.47,1.01.02.17-.16.22-.27.4.28,0,.49-.11.68-.19.09-.04.02-.19-.05-.22-.21-.09-.13-.21-.03-.29.19-.13.23-.31.3-.51.09-.26.27-.5.43-.74.09-.13.07-.25,0-.37-.17-.3-.15-.65.13-.87.25-.2.18-.56.44-.74.03-.02,0-.24-.12-.28-.14-.05-.11.1-.12.17-.05.2-.22.36-.2.59,0,.1-.07.14-.16.11-.11-.03-.03-.09-.02-.14.06-.3.12-.59.17-.89.01-.09.07-.23-.06-.25-.11,0-.16.1-.16.24,0,.3-.25.5-.34.77-.05-.35.07-.67.19-.97.08-.2.08-.32-.17-.34-.06,0-.15,0-.13-.1,0-.06.03-.13.12-.14.23-.03.26-.06.2-.28-.04-.15-.1-.29-.08-.45.13-.11.3-.13.46-.13.04.32-.25.6-.1.94.02.05-.13.2.05.24.18.04.18-.12.19-.23.03-.26-.13-.54.11-.78.06-.06-.08-.13-.15-.19.09-.15.26-.17.4-.21.7-.19,1.4-.35,2.1-.52,0,.15.17.23.11.42-.03.1.15.11.25.12.05-.12-.07-.16-.08-.25-.02-.12.03-.2.14-.22.13-.02.25.13.21.18-.17.25.11.42.1.65,0,.17.01.35,0,.53h0c-.08.01-.03.18-.14.14-.08-.03-.02-.11-.02-.17-.02-.22.06-.47-.17-.63,0,0-.02-.01-.03-.02,0,0,.02.01.03.02,0,.23,0,.46-.13.66-.06.11-.1.21.1.17.13-.02.16.11.15.16-.05.25.08.52-.09.76-.11.16-.08.16.1.23.14.05.1.2.03.26-.18.19-.09.4-.13.6-.05.26.09.52-.07.78-.26-.2-.17-.5-.2-.73-.02-.16-.02-.36.07-.56.13-.28-.16-.19-.3-.21.12-.15.02-.3,0-.44-.06-.29.01-.58,0-.87,0-.09-.04-.14-.12-.18-.04-.02-.09-.04-.12.01-.04.07-.04.16.02.21.16.15,0,.31.02.46-.12,0-.3-.03-.25.18.03.14.08.26-.03.39-.01.01.02.09.05.11.07.05.09-.02.1-.07.02-.06.07-.08.13-.08.03.12.04.25.2.27-.06.61,0,1.2.18,1.78.04.12,0,.24-.16.34-.02-.46-.23-.85-.18-1.34-.22.19-.15.36-.13.54.06.4.1.8.29,1.17.05.09.11.21,0,.26-.15.08-.12-.09-.17-.17-.03-.05-.09-.09-.14-.16-.11.27.07.51.04.75-.28,0-.19.16-.2.27.03.01.06.02.09.04.03-.09.07-.18.11-.3.18.13.26.28.08.48-.07.08-.14.2-.06.26.13.1.14-.06.18-.14.04-.07.11-.07.17-.05.1.04.21.49.14.58-.01.02-.03.04-.05.05-.12.08.02.4-.21.31-.18-.07-.31-.28-.34-.51,0-.06,0-.14-.07-.17-.1-.03-.13.07-.17.12-.05.06-.11.12-.01.19.04.03.09.07.11.12.11.24.5.52-.06.7.03.31-.39.41-.34.77.03.26-.17.36-.43.26-.15-.06-.14.03-.16.12-.2-.02-.39-.04-.59-.06-.16-.35-.34-.39-.6-.12-.06,0-.13,0-.19,0,0-.05,0-.13-.05-.14-.08-.02-.07.06-.08.11-.13-.01-.26-.02-.39-.04-.07-.11-.13-.26-.27-.06-.04,0-.08-.01-.13-.02-.08-.18-.19-.23-.34-.07-.06,0-.13-.02-.19-.02-.04-.07-.09-.07-.13,0-.17-.01-.35-.02-.52-.03-.07-.13-.16-.12-.27-.05-.04,0-.09-.01-.13-.02-.03-.07-.07-.12-.14-.04-.71-.1-1.43-.13-2.13-.32Zm5.9-6.68c.06.37.01.72-.12,1.07-.12.32-.25.64-.48.9-.2.23-.27.66-.09.91.07.1.15.2.05.29-.28.26-.27.65-.45.95-.04.07-.07.18.01.22.09.04.16-.04.2-.13.13-.27.2-.56.35-.82.11-.18.22-.26.42-.16.09.05.15,0,.21-.04.06-.05.05-.13,0-.18-.3-.32-.13-.6.07-.89.03.31.04.62.17.91.02.06,0,.14.09.16.04,0,.09-.01.12-.04.07-.06.07-.14,0-.2-.09-.08-.08-.18-.07-.28.04-.44-.21-.87-.07-1.31.02-.06.02-.18-.08-.19-.14-.01-.11.11-.11.19-.01.26-.14.47-.29.68-.1-.45.13-.85.21-1.27.06-.31-.03-.53-1.25,3.56-.17.04-.28.12-.26.31,0,.06.06.1.12.08.21-.07.12-.25,1.25-4.74Zm-.18,0c-.06-.14.11-.46-.1-.46-.3,0-.11.33-.16.51-.01.04,0,.09,0,.13.04.11.16.21-.04.3-.08.04,0,.18.06.22.11.07.12-.06.15-.11.12-.18.08-.38.09-.6Zm.05,4.03c-.03-.09-.05-.17-.13-.2-.09-.02-.16.04-.17.12,0,.15-.06.27-.13.4-.02.04,0,.11.02.15.04.06.12.02.14-.02.1-.15.19-.31.27-.45Zm.7-2.28c.07.1.02.23.06.35.03.09.08.16.18.17.06,0,.1-.04.12-.1.03-.09-.02-.14-.09-.2-.07-.05-.24-.09-.08-.2.11-.07.1-.12.05-.21-.03-.04-.06-.07-.11-.04-.08.05-.15.1-.13.22Zm-.11-1.84c-.12.25,0,.41.12.57.05.08.12.09.19.02.04-.04.1-.1.03-.13-.2-.09-.16-.33-.34-.46Zm1.52.29c.05.19-.12.34-.11.52,0,.06,0,.14.08.16.09.02.1-.06.12-.12.07-.19.09-.38-.09-.56Zm-1.41.5c-.11.1-.21.17-.19.29.02.06.12.06.17.03.16-.08.04-.18.01-.32Zm.37,2.53c.06-.18.2-.22.16-.35-.02-.05-.09-.06-.14-.03-.13.07-.09.17-.02.38Zm.22,1.65c-.1.11-.17.17-.13.28.02.04.07.06.11.04.1-.07.07-.17.02-.32Zm-.26-3.82c-.13.07-.17.15-.14.25.01.04.07.06.11.04.1-.07.07-.17.03-.29Zm-.28,2.37c0-.07-.05-.06-.09-.06-.06,0-.11.02-.09.09,0,.03.06.07.09.07.07,0,.08-.06.1-.1Z"/><path class="cls-3" d="m14.65,4.22c-.01-.08.03-.18-.13-.17-.26.02-.4-.13-.47-.36h0c.19,0,.23.23.47.25-.13-.22-.28-.4-.35-.62-.02-.06-.08-.09-.18-.02-.2.13-.43.19-.67.06.11-.12.35-.07.39-.29.03-.01.05-.03.08-.04.07,0,.15.01.19-.08,0,0,0,0,0,0,.02-.01.05-.03.07-.04.04,0,.09-.02.13-.02.12.12.12.02.13-.07.01-.01.03-.02.05,0,.54-.07,1.06-.22,1.56-.45.04,0,.07,0,.11-.01.09.02.19.04.23-.08.04,0,.09-.01.13-.02.04.05.09.05.13,0,.05,0,.09,0,.14,0,.15.11.33.08.48.05.43-.1.85-.04,1.28,0,.1.01.2-.01.24.12.01.04.04.06.1.03.26-.13.26-.12.46.04-.03.12-.19.04-.23.14,0,0-.03,0-.03,0,0,0-.03,0-.03,0-.18.02-.37.04-.55.06-.02,0-.04,0-.06-.01-.02-.09-.05-.16-.14-.05-.02.02-.04.04-.06.06-.02.02-.05.03-.07.05h0c-.08-.06-.17-.07-.27-.05-.01,0-.03-.02-.04-.03v.06s0,.06.02.09c-.04.01-.08.02-.12.03h0c-.04-.09-.09-.14-.19-.08h-.22c-.06,0-.12,0-.17,0-.15.03-.31.05-.45.09-.1.03-.23.04-.25.18-.01.13.09.19.19.24.06.03.12.06.18.09.05.12,0,.3.21.32h0c.26.12.51.14.73-.08.08-.02.16-.04.24-.06.08-.02.15-.04.22,0h0c.17.08.36.2.39-.13.06,0,.11.01.14.06-.02.14,0,.3.16.3.15,0,.24-.13.23-.3,0,0,0,0,0,0,.06,0,.11-.02.17-.03.01,0,.03,0,.04,0-.04.82-.04.81-.86.82-.22,0-.43.04-.65.07-.07,0-.13.04-.13.12,0,.09.41.51.52.53.09.11.18.21.27.32-.02.09.01.14.1.16.02.02.05.05.07.07,0,.05.02.1.08.11h0s.03.05.05.08c.03.04.05.08.08.12.02.02.04.05.06.07.02.03.04.06.06.08.02.04.04.08.06.13,0,.02.02.03.02.05,0,.1.03.15.13.14.04,0,.08,0,.12,0,.05.09-.15.21.04.29l.02.02s0,.02,0,.04c-.17.1-.23.27-.15.41.09.15,0,.15-.07.23-.21.22-.29.23-.31-.11,0-.13-.09-.27-.23-.35.1.4.12.81.29,1.2.13.3.21.63,0,.94-.05.07-.02.12.02.18.09.11.01.18-.07.25-.1.08-.18.04-.25-.05-.08-.09-.15-.19-.23-.28-.05-.06-.13-.12-.2-.05-.07.07-.07.17.03.22.12.05.14.13.1.24-.04.11-.13.08-.22.07-.22-.04-.14.14-.16.24-1.09.3-2.17.61-3.26.91.02-.09.06-.17.06-.26,0-.23.06-.27.21-.08.09.12.15.06.19-.03.04-.1.06-.24.19-.23.12,0,.06.18.13.24.1.01.14-.08.16-.14.07-.27.16-.33.41-.13.14.11.29.01.32-.19,0-.07.01-.13,0-.2-.02-.11.07-.3-.07-.32-.17-.02-.11.17-.13.28,0,.06-.02.12-.09.1-.11-.03-.12-.13-.1-.22.05-.18.13-.36.19-.54.02-.05.07-.13.06-.14-.34-.37-.12-.86-.3-1.28-.22-.51-.41-1.04-.51-1.59-.04-.19.05-.37.02-.55-.03-.21.06-.42-.24-.57-.16-.08-.25-.39.02-.6-.15-.1-.31-.04-.45-.06h0Zm1.81,4.62c-.15.1-.31.15-.26.35.02.08.1.08.16.06.25-.08.03-.26.22-.57-.07,0-.11.05-.13.11-.03.08.04.09.08.1.09.03.15-.02.15-.11,0-.06-.04-.09-.22.04Zm1.07-.45c.1-.01.11-.08.1-.14,0-.08-.04-.16-.13-.15-.09,0-.13.08-.12.16.01.09.07.13.15.13Zm.02.11c-.15.08-.21.18-.15.32.02.05.08.11.12.06.1-.11.05-.24.03-.39Zm.11-.96c.06-.18.08-.32,0-.44-.01-.01-.08-.01-.09,0-.06.12.03.23.02.34,0,.02.02.03.07.1Zm.13.45c.08,0,.11-.05.11-.13,0-.12-.1-.09-.16-.1-.09-.01-.1.06-.09.13,0,.08.07.1.14.1Zm-.14-1.11s-.06-.08-.09-.1c-.02-.01-.07,0-.08.01-.03.06.01.1.06.12.02,0,.05-.01.1-.03Zm1.29.1c-.05-.02-.07,0-.08.04,0,.03,0,.07.02.08.05.03.08,0,.08-.05,0-.03-.02-.05-.03-.07Z"/><path class="cls-2" d="m11.44,24.57c.28.06.38-.13.47-.33.03-.06.03-.14.12-.12.11.02.05.1.04.16-.02.08,0,.16.08.19.1.03.08-.08.12-.12.29-.27.19.11.32.19.18-.36.71-.26.89-.66.02-.04.08-.04.12,0,.05.04.02.08,0,.12-.06.11-.18.2-.1.38.33-.2.62-.41.8-.76.02,0,.05,0,.06.02.08.06-.05.26.14.24.11-.02.15-.14.16-.26,0-.11-.06-.28.13-.28.19,0,.11.18.13.28,0,.04.02.08.05.13.05-.16.24-.24.15-.49-.09-.24.21-.06.29-.21.01-.07-.12-.14-.09-.26.02-.11-.07-.2.1-.33.16-.13.14-.46.49-.22.09.06.11-.16.2-.21.11.03.05.14.09.19.06.07,0,.25.16.2.14-.05.18-.17.1-.33-.13-.27-.12-.27-.02-.48.23.23.1.6.38.89-.06-.31.02-.54-.05-.78,0-.02,0-.04,0-.07-.04-.16.03-.26.2-.29.09-.02.1-.11.13-.18.09-.28.08-.57.07-.85.02-.02.05-.05.07-.07.04,0,.09,0,.13,0,.02.16.15.12.25.14.26.07.56-.12.8.08.24.2.21,0,.22-.14.09,0,.17,0,.26,0,.04.12.08.23.12.35.12-.06.05-.31.25-.21.14.07.11.2.06.32-.02.05-.06.1-.07.15-.03.19-.07.38.15.54-.17-.41.11-.7.22-1.03.04,0,.09,0,.13.01,0,.09.05.17.02.28-.05.18-.33.35-.05.58.04.04-.05.19-.14.24-.14.08-.11.23-.17.35-.11.2.1.17.21.22.07.03.08.1,0,.15-.27.17-.36.36-.27.62.02.06.06.1-.02.13-.06.02-.13.01-.15-.04-.06-.14-.17-.22-.35-.27.09.27.21.47.47.6-.26.11-.37-.03-.47-.17-.05-.07-.07-.2-.17-.11-.08.06-.03.16.03.24.04.05.09.1.14.14.17.12.17.21-.06.23-.19.02-.16.14-.12.26.04.11-.04.14-.11.17-.09.03-.11-.03-.12-.1-.04-.2-.18-.25-.45-.23.35.17.23.45.3.66.04.12-.09.09-.15.03-.11-.1-.23-.2-.3-.35.04.18-.15.44.21.5.15.02.18.15.19.27,0,.06-.09.12-.09.1-.07-.27-.47.02-.51-.3,0-.05-.07-.08-.13-.05-.06.03-.06.09-.06.14,0,.08.07.15.03.22-.05.08.01.23-.11.25-.17.03-.04-.13-.09-.18-.1-.1-.2-.09-.3.03-.24.27-.5.52-.9.53-.19,0-.37.07-.43.3-.01.04-.05.07-.08.1-.24-.22-.49.13-.72,0-.2-.11-.4-.1-.61-.08-.15,0-.3-.03-.44-.1-.02-.07-.03-.15-.13-.07-.08.03-.14-.01-.21-.05-.01-.08-.03-.16-.13-.07-.55-.12-.98-.46-1.44-.74-.15-.09-.38-.08-.44-.3Zm4.3-2.13c-.12.02-.21.11-.15.2.07.1-.13.35.17.32.08,0,.21.02.17-.12-.05-.14.05-.35-.19-.4Zm-2.5,2c-.1.07.14.24-.02.32-.02,0,.05.06.09.06.12-.03.14-.12.14-.22,0-.1-.04-.17-.2-.15Zm.97-.17s.1-.1.13-.16c.02-.05-.05-.06-.09-.06-.1,0-.14.05-.13.14,0,.05.02.08.09.08Zm2.6-1.61s-.01-.05-.02-.05c-.01,0-.04.01-.05.02,0,.02.01.05.02.05.01,0,.04-.01.05-.02Z"/><path class="cls-5" d="m11.39,19.37c.02.15.16.34-.17.37-.17.02-.2.2-.08.37.07.09.11.22-.05.26-.14.04-.16-.08-.16-.18,0-.23-.12-.23-.28-.15-.08.04-.14.1-.01.15.09.04.11.11.06.18-.03.05-.07.12-.15.1-.08-.02-.12-.09-.14-.17-.01-.05,0-.11-.01-.17,0-.06,0-.12-.08-.12-.06,0-.1.06-.1.11,0,.3-.16.29-.37.21-.09-.03-.17,0-.18.09-.02.14.1.07.16.09.11.03.34-.07.28.14-.05.15.19.53-.27.46-.22-.03-.29.08-.17.28.04.07.09.13,0,.2-.05.04-.1.05-.15.03-.08-.04-.12-.1-.07-.19.08-.15-.06-.3,0-.45.04-.09-.04-.14-.13-.14-.18,0-.34,0-.5.11-.3.22-.44.18-.62-.16-.08.39-.4.09-.58.22,0,0-.05-.03-.05-.03.19-.4-.36-.35-.39-.64-.02-.14-.19-.1-.31-.1-.28-.29-.5-.63-.69-.99-.12-.23-.07-.36.18-.43.47-.14.93-.13,1.39,0,.08.12.19.07.3.06.04,0,.07,0,.11,0,0,.02.02.03.03.05.01-.01.02-.03.03-.04.18-.02.36.03.54.07.1.1.19.23.34.05.22.03.44.06.66.08.02.05.04.06.06,0,.08,0,.15,0,.22.04,0,.11-.07.24.09.37.01-.13.02-.23.03-.32.09.01.18.02.27.03,0,.03-.03.08.04.09,0,0,.01-.05.02-.08.11,0,.23.01.34.02.01.05.02.11.04.15.04.07-.11.2.07.23.14.03.14-.1.2-.17.03-.04.07-.08.1-.13.06,0,.13.02.19.03Z"/><path class="cls-5" d="m5.8,23.1c-.31-.41-.56-.85-.73-1.33,0-.09.02-.18-.1-.2-.01-.02-.02-.05-.03-.07,0-.06,0-.13,0-.19.11-.19.1-.35-.11-.47,0-.04,0-.09,0-.13.23-.28.22-.62.23-.96,0-.09,0-.18.08-.24.1,0,.14-.05.12-.14,0,0,0,0,0,0,.19-.1.38-.02.57,0,0,0,0,.01,0,.01.02.03.05.05.07.08.02.02.04.04.05.06.06.15,0,.39.27.4,0,0,0,0,0,0-.02.19.06.3.24.34.01.02.02.03.02.05-.02.07-.02.15-.06.22-.06.11-.23.19-.09.33.12.13.24,0,.36-.05.04-.01.08-.02.13-.03.01.01.02.02,0,.04-.04.21.03.31.25.29,0,0,0,0,0,0-.06.17.15.33.01.52-.03.04.07.07.11.03.06-.05.1-.11.15-.17.04.05.08.09.12.14-.04.17.07.27.18.36.06.05.17.08.1.2-.08.15-.14,0-.21-.02-.14-.06-.26-.1-.18.13.03.08-.02.15-.03.22-.01.09-.02.2-.15.16-.11-.04-.16-.13-.07-.23.05-.06.11-.13.02-.19-.08-.05-.17-.03-.21.08-.04.13-.13.21-.25.25-.34.09-.65.23-.88.51Z"/><path class="cls-4" d="m12.72,11.8c-.19.21-.47.22-.71.31-.77.29-1.55.56-2.32.84-.1.03-.19.06-.29.03.67-.74,1.67-.74,2.52-1.1.29-.12.58-.26.94-.28-.05.07-.09.13-.13.2Z"/><path class="cls-4" d="m5.42,10.01c-.02-.15.1-.21.18-.3.6-.76,1.32-1.41,1.96-2.13.26-.29.44-.65.82-.83.07.18-.12.22-.2.31-.75.88-1.51,1.75-2.27,2.63-.09.1-.16.21-.23.32-.09.13-.17.11-.26,0Z"/><path class="cls-4" d="m3.6,12.17c-.02-.93.06-1.85.21-2.77.07-.41.11-.83.32-1.2.02,0,.05,0,.07,0-.23,1.06-.4,2.12-.34,3.2,0,.14-.03.3.16.35-.17.11-.3.26-.43.41Z"/><path class="cls-4" d="m19.63,20.44c-.11.33-.39.63-.22,1.03-.22-.15-.18-.35-.15-.54,0-.05.04-.1.07-.15.05-.12.08-.25-.06-.32-.2-.1-.13.15-.25.21-.04-.12-.08-.24-.12-.35.26-.04.49.06.73.11Z"/><path class="cls-5" d="m15.2,11.09c.07.05.2.13.15.19-.24.24-.08.52-.11.78-.01.11-.01.27-.19.23-.17-.04-.03-.18-.05-.24-.14-.34.15-.62.1-.94.03,0,.07,0,.1-.01Z"/><path class="cls-3" d="m13.46,11.09c-.03-.2.16-.27.23-.42.03-.06.12-.08.14.02.08.31.18.15.3.02.1-.1.22-.17.31.01-.29.22-.65.27-.98.36Z"/><path class="cls-4" d="m18.64,20.32c-.01.14.02.34-.22.14-.24-.2-.53-.01-.8-.08-.1-.03-.23.02-.25-.14.43-.02.85,0,1.27.09Z"/><path class="cls-2" d="m15.91,2.35c-.5.23-1.02.38-1.56.45.49-.26,1-.43,1.56-.45Z"/><path class="cls-3" d="m6.81,20.77s-.09.02-.13.03c-.12.04-.23.18-.36.05-.14-.14.03-.23.09-.33.04-.06.04-.14.06-.22.13.15.26.29.33.47Z"/><path class="cls-3" d="m13.07,11.22c.06-.25.12-.51.18-.76.02-.07.05-.13.13-.1.08.03.08.12.04.17-.17.19-.1.41-.11.62-.07.07-.16.07-.25.07Z"/><path class="cls-3" d="m17.44,19.71c-.02-.24.15-.47.07-.72-.02-.05,0-.11.08-.12.09-.01.11.05.11.12.02.25,0,.5-.13.72-.04,0-.09,0-.13,0Z"/><path class="cls-3" d="m12.26,11.54c-.01-.14.04-.25.1-.37.24.22.29.21.47-.14.12.01.1.2.23.19-.24.17-.52.25-.8.32Z"/><path class="cls-3" d="m4.47,20.31c-.09-.09-.14-.18-.1-.32.07-.27.12-.55.18-.83.02-.11.08-.18.2-.18-.16.43-.23.87-.27,1.33Z"/><path class="cls-2" d="m9.22,23.35c-.23.03-.29-.28-.44-.27-.34,0-.23-.21-.25-.37.25.2.53.35.69.65Z"/><path class="cls-4" d="m15.59,19.96c-.33.06-.64-.01-.94-.11-.13,0-.26,0-.39,0-.05-.02-.09-.04-.14-.07,0-.02,0-.04,0-.07.49.08,1,.08,1.47.25Z"/><path class="cls-3" d="m12,3.57c.36-.29-.16-.45-.11-.72.29.01.26.42.54.41-.11.15-.23.28-.43.31Z"/><path class="cls-3" d="m5.06,19.75c-.01.34,0,.68-.23.96-.05-.35.07-.66.23-.96Z"/><path class="cls-3" d="m5.4,17.72c.07,0,.14.03.15.09.04.4.33.38.61.38-.07.04-.13.08-.2.11-.24.09-.42.08-.44-.24-.01-.12-.08-.23-.12-.34Z"/><path class="cls-3" d="m6.2,18.19c.46-.23.9-.15,1.33.07-.44-.1-.88-.09-1.33-.07Z"/><path class="cls-4" d="m17.24,20.24s-.05.05-.07.07c-.14-.01-.34-.21-.36.16.01-.35-.35-.22-.44-.41.3.01.59.06.87.17Z"/><path class="cls-3" d="m20.23,10.4c-.06-.17-.2-.31-.2-.5.04,0,.09-.02.13-.03-.03.26.31.3.33.53-.09,0-.18,0-.27,0Z"/><path class="cls-2" d="m14.98,19.36c.26-.26.44-.23.6.12-.2-.04-.4-.08-.6-.12Z"/><path class="cls-3" d="m5.82,19.35c-.19-.01-.38-.1-.57,0,.05-.18.2-.28.36-.29.14-.01.2.14.21.28Z"/><path class="cls-2" d="m9.86,23.89c-.27-.02-.57-.29-.6-.53.22.15.44.3.6.53Z"/><path class="cls-3" d="m11.2,19.34s-.06.08-.1.13c-.06.07-.06.2-.2.17-.17-.03-.03-.16-.07-.23-.02-.05-.03-.1-.04-.15.14,0,.28.03.4.09Z"/><path class="cls-3" d="m8.47,18.44c.28-.07.56-.11.79.12-.27.02-.53-.07-.79-.12Z"/><path class="cls-3" d="m7.64,18.26c.23.05.5-.04.7.16-.25,0-.51.1-.7-.16Z"/><path class="cls-3" d="m4.88,18.79c0-.1,0-.21.1-.25.14-.07.16-.19.18-.32.16.1.15.22.02.34-.1.08-.2.16-.3.24Z"/><path class="cls-3" d="m7.35,21.49c-.05.06-.1.12-.15.17-.05.04-.14,0-.11-.03.13-.19-.07-.35-.01-.52.13.1.2.25.28.38Z"/><path class="cls-3" d="m14.45,11.27c-.06.16.14.33,0,.52-.13-.13,0-.44-.29-.4.05-.16.18-.12.29-.12Z"/><path class="cls-3" d="m5,16.85c.27.1.2.36.25.57-.23-.12-.17-.37-.25-.57Z"/><path class="cls-3" d="m11.8,11.69c-.24-.17,0-.3.02-.47.25.16-.02.31.03.46,0,0-.02.01-.02.01h-.03Z"/><path class="cls-3" d="m4.83,20.84c.21.12.23.28.11.47-.02,0-.04,0-.06,0-.01-.16-.11-.3-.06-.47Z"/><path class="cls-3" d="m4.5,16.9c-.26-.12-.23-.38-.29-.59.2.15.21.39.29.59Z"/><path class="cls-2" d="m8.53,22.7c-.25-.01-.38-.15-.4-.39.16.1.29.24.4.39Z"/><path class="cls-4" d="m16.25,20.06c-.22.08-.42.07-.6-.09.21-.02.41,0,.6.09Z"/><path class="cls-2" d="m11.11,24.37c.18-.05.41-.17.34.2-.13-.03-.26-.08-.34-.2Z"/><path class="cls-3" d="m3.47,16.45c.01.24-.15.3-.34.32.06-.17.2-.24.34-.32Z"/><path class="cls-2" d="m13.7,3.07c-.04.21-.28.17-.39.29-.05,0-.1,0-.14-.01.15-.15.33-.23.53-.28Z"/><path class="cls-3" d="m13.18,3.35c-.02.28-.21.25-.4.2.12-.1.25-.18.4-.2Z"/><path class="cls-4" d="m22.96,9.01c-.04-.09-.08-.18-.12-.28.21-.01.25.15.31.28-.06,0-.13,0-.19,0Z"/><path class="cls-4" d="m19.63,19.84c.02-.1.03-.19.14-.24.1.08.04.19.07.27-.08.04-.14,0-.21-.04Z"/><path class="cls-3" d="m4.15,16.12c-.12,0-.22.09-.34.06.06-.06.11-.14.18-.18.17-.12.17,0,.16.13Z"/><path class="cls-2" d="m13.51,19.14c.15-.16.26-.11.34.07-.13.06-.24,0-.34-.07Z"/><path class="cls-3" d="m6.21,19.9c-.26-.02-.21-.25-.27-.4.14.1.22.24.27.4Z"/><path class="cls-3" d="m6.45,20.24c-.18-.04-.27-.15-.24-.34.14.07.21.19.24.34Z"/><path class="cls-3" d="m10.13,19.19c0,.09-.02.18-.03.32-.16-.13-.09-.26-.09-.37.04.02.08.03.12.05Z"/><path class="cls-2" d="m14.12,19.7s0,.04,0,.07c-.12-.02-.27.08-.34-.11.12-.01.23-.04.34.04Z"/><path class="cls-3" d="m23.95,9.74c-.17,0-.2-.12-.2-.25.04,0,.09,0,.13,0,.02.09.04.18.06.26Z"/><path class="cls-4" d="m12.33,25.55c-.15,0-.35.09-.34-.19.11.06.23.13.34.19Z"/><path class="cls-3" d="m7.07,21.1c-.22.02-.29-.09-.25-.29.09.09.2.17.25.29Z"/><path class="cls-4" d="m24.48,9.47c-.02.14.04.27.08.4-.26-.06-.09-.27-.14-.4.02,0,.04,0,.06,0Z"/><path class="cls-2" d="m15.45,2.17c.06-.22.19-.16.33-.08-.11.03-.22.05-.33.08Z"/><path class="cls-3" d="m2.95,16.92c0,.14-.03.26-.21.25.02-.13.1-.2.21-.25Z"/><path class="cls-4" d="m23.95,9.74c-.02-.09-.04-.18-.06-.26.04,0,.09,0,.13,0,0,.12,0,.23.07.33-.06,0-.11-.01-.14-.07Z"/><path class="cls-2" d="m13.98,19.23c.14-.2.2-.05.27.06-.1.03-.18-.03-.27-.06Z"/><path class="cls-4" d="m12.39,19.02c.11-.07.2-.07.27.05-.1.03-.2.06-.27-.05Z"/><path class="cls-3" d="m9.07,19.02c-.14.18-.24.05-.34-.05.12,0,.24-.03.34.05Z"/><path class="cls-3" d="m9.59,18.6c.11-.12.21-.15.27.04-.1.01-.19.03-.27-.04Z"/><path class="cls-3" d="m5.05,17.85c-.13-.03-.19-.1-.16-.24.09.06.19.1.16.24Z"/><path class="cls-2" d="m10.51,23.91c.15-.04.23.01.22.18-.07-.06-.15-.12-.22-.18Z"/><path class="cls-3" d="m10.87,4.29c0-.09-.03-.18.08-.22,0,0,.03.07.05.11-.04.04-.09.08-.13.11Z"/><path class="cls-3" d="m4.96,21.57c.12.02.11.11.1.2-.03,0-.06,0-.08-.01-.03-.06-.04-.12-.02-.19Z"/><path class="cls-3" d="m4.68,17.24c-.19-.01-.12-.15-.13-.26.08.07.12.15.13.26Z"/><path class="cls-2" d="m14.64,19.32c0-.05,0-.13.08-.11.06.01.05.09.05.14-.05.02-.1.02-.14-.03Z"/><path class="cls-3" d="m10.19,4.88c-.02-.15.05-.21.2-.19-.04.09-.11.15-.2.19Z"/><path class="cls-3" d="m4.81,17.45c-.14,0-.14-.1-.13-.2.09.03.13.1.13.2Z"/><path class="cls-2" d="m16.24,2.26c-.04.12-.14.09-.23.08.06-.08.13-.12.23-.08Z"/><path class="cls-3" d="m3.13,16.77c.01.12-.05.15-.15.13.03-.07.07-.12.15-.13Z"/><path class="cls-4" d="m13.32,25.62c.1-.09.12-.01.13.07-.06,0-.11,0-.13-.07Z"/><path class="cls-4" d="m8.53,6.59c0-.07.04-.1.1-.11.03.09,0,.13-.1.11Z"/><path class="cls-4" d="m8.4,6.72c0-.07.03-.1.1-.1.02.09-.01.12-.1.1Z"/><path class="cls-3" d="m10.59,4.49c0-.09.04-.14.14-.12-.01.08-.07.12-.14.12Z"/><path class="cls-3" d="m8.03,18.9c-.1,0-.22.06-.3-.06.1,0,.21-.02.3.06Z"/><path class="cls-4" d="m13.66,25.74c.1-.08.11,0,.13.07-.06.01-.11,0-.13-.07Z"/><path class="cls-3" d="m5.25,19.36c.02.1-.02.14-.12.14,0-.08.03-.14.12-.14Z"/><path class="cls-2" d="m14.31,2.81c0,.09-.01.19-.13.07.04-.02.09-.04.13-.07Z"/><path class="cls-4" d="m12.12,18.97c.07-.08.11-.03.14.04-.06.03-.11.03-.14-.04Z"/><path class="cls-3" d="m10.4,4.69c0-.09.04-.14.13-.14-.02.07-.06.12-.13.14Z"/><path class="cls-2" d="m13.97,2.95c-.04.09-.12.07-.19.08.04-.07.11-.08.19-.08Z"/><path class="cls-3" d="m10.06,5.01c0-.08.04-.13.13-.13-.02.07-.06.11-.13.13Z"/><path class="cls-4" d="m4.88,21.31s.04,0,.06,0c0,.06,0,.13,0,.19-.07-.05-.06-.12-.05-.19Z"/><path class="cls-3" d="m3.6,16.37c-.01.07-.06.08-.12.08.02-.06.06-.08.12-.08Z"/><path class="cls-3" d="m10.74,4.37c.01-.07.06-.08.12-.07-.02.06-.06.08-.12.07Z"/><path class="cls-3" d="m3.68,16.26c0,.06-.02.1-.08.11,0-.06.03-.1.08-.11Z"/><path class="cls-3" d="m3.8,16.18c-.02.06-.07.08-.12.08.02-.05.07-.08.12-.08Z"/><path class="cls-3" d="m5.15,18.11c-.06-.03-.08-.08-.07-.14.05.03.07.08.07.14Z"/><path class="cls-4" d="m4.84,21.83s-.02-.07-.04-.11c.06.02.07.06.04.11Z"/><path class="cls-2" d="m13.18,19.11c.05-.07.09-.06.13,0-.04,0-.09,0-.13,0Z"/><path class="cls-2" d="m16.5,2.24c-.04.05-.08.06-.13,0,.04,0,.08,0,.13,0Z"/><path class="cls-3" d="m2.68,17.31s0-.05-.01-.07c.02-.02.05-.04.07-.07,0,.06,0,.11-.06.14Z"/><path class="cls-3" d="m10.45,19.23s-.01.08-.02.08c-.06,0-.03-.05-.04-.09.02,0,.04,0,.05,0Z"/><path class="cls-4" d="m19.97,19.89c.05-.05.09-.05.13,0-.04,0-.09,0-.13,0Z"/><path class="cls-3" d="m12.48,3.25s.08,0,.12,0c-.04.06-.07.05-.12,0Z"/><path class="cls-3" d="m5.28,17.52s.03.05.05.08c-.02-.03-.03-.05-.05-.08Z"/><path class="cls-3" d="m5.89,19.44s-.05-.05-.07-.08c.02.03.05.05.07.08Z"/><path class="cls-3" d="m4.89,17.58s-.04-.06-.07-.09c.02.03.04.06.07.09Z"/><path class="cls-3" d="m11.92,3.63s.05-.05.07-.07c-.02.02-.05.05-.07.07Z"/><path class="cls-3" d="m9.79,19.1c-.02.06-.04.05-.06,0,.02,0,.04,0,.06,0Z"/><path class="cls-4" d="m4.29,11.47s.04-.04.06-.05c-.02.02-.04.04-.06.05Z"/><path class="cls-4" d="m4.22,11.6s.02-.05.04-.07c-.01.02-.02.05-.04.07Z"/><path class="cls-3" d="m11.39,3.95s.05-.04.08-.06c-.03.02-.05.04-.08.06Z"/><path class="cls-3" d="m8.2,18.89s-.02.03-.03.04c0-.02-.02-.03-.03-.05.02,0,.04,0,.06,0Z"/><path class="cls-2" d="m10,23.5s.04.04.06.06c-.02-.02-.04-.04-.06-.06Z"/><path class="cls-3" d="m4.74,18.98s.04-.04.06-.06c-.02.02-.04.04-.06.06Z"/><path class="cls-2" d="m14.05,2.9s-.05.03-.07.04c.02-.01.05-.03.07-.04Z"/><path class="cls-2" d="m10.98,24.23s.05.05.07.08c-.02-.03-.05-.05-.07-.08Z"/><path class="cls-3" d="m11.19,4.09s.05-.05.07-.07c-.02.02-.05.05-.07.07Z"/><path class="cls-4" d="m3.23,12.21s.02-.05.05-.02c-.01.01-.03.02-.05.02Z"/><path class="cls-4" d="m2.47,12.15s.06.01.05.05c-.02-.02-.04-.04-.05-.05Z"/><path class="cls-4" d="m2.63,16.72s.03-.04.05-.06c-.02.02-.03.04-.05.06Z"/><path class="cls-2" d="m4.21,8.21s-.05,0-.07,0c-.02-.25.15-.46.15-.7,0-.07.04-.14.12-.12.09.02.08.11.06.16-.08.22-.17.44-.25.67Z"/><path class="cls-3" d="m11.91,2.54s.04.05.04.08c0,.06-.04.07-.08.05-.02,0-.03-.04-.05-.06.02-.02.04-.03.1-.07Z"/><path class="cls-3" d="m11.27,3.97s-.02-.02-.03-.04c.01.01.02.02.04.03,0,0,0,0,0,0Z"/><path class="cls-2" d="m20.02,21.04s-.06.05-.09.05c-.05,0-.08-.02-.07-.07,0-.02.05-.03.08-.03.02,0,.04.03.08.06Z"/><path class="cls-2" d="m26.88,15.92c-.07,0-.12-.16-.19-.06-.12.19-.14,0-.16-.04-.14-.35-.29-.69-.35-1.06-.02-.12.06-.12.11-.08.13.11.13,0,.12-.07-.01-.06.18-.12,0-.16-.07-.02-.13-.04-.11-.12,0-.02.05-.03.07-.04.05.1.21,0,.24.13,0,.05.02.13-.01.16-.2.24-.1.26.14.21.07-.02.17.04.13.1-.19.33.14.48.22.72.02.06.09.12.04.18-.08.09-.1-.05-.14-.06-.18-.02-.05.13-.1.19h0Z"/><path class="cls-4" d="m26.48,16.05s-.01.13-.01.13c-.28-.02-.15.21-.22.37-.04-.33-.35-.39-.49-.6-.04-.06-.14.01-.14.11h0c-.21-.04-.1-.21-.13-.33h0c.16.02.31.05.47.07-.02.15.15.11.19.2.04.07.09.07.13,0,.07.03.18-.11.2.07Z"/><path class="cls-4" d="m25.88,11.4c.03.08.07.16.1.24.15.01.07-.18.2-.19.28.29-.32.42-.13.7-.1-.25-.57-.4-.17-.75h0Z"/><path class="cls-2" d="m26.62,14.22c.06-.1.1-.18.2-.19.01,0,.04.06.04.08-.03.09-.1.13-.24.11Z"/><path class="cls-4" d="m26.05,13.29c.02-.1.03-.2.07-.38.05.19.05.3-.07.38Z"/><path class="cls-2" d="m26.78,14.42s.06.04.07.08c.02.05-.01.08-.06.08-.05,0-.09-.02-.09-.07,0-.04,0-.09.08-.09Z"/><path class="cls-2" d="m27.14,14.12c.06.03.12.06.1.14,0,.01-.04.03-.05.03-.08-.03-.05-.11-.06-.17h0Z"/><path class="cls-2" d="m27.05,13.91s-.02.04-.02.06c-.02,0-.05-.01-.05-.03,0-.01.01-.04.02-.05.02,0,.04.02.05.02Z"/><path class="cls-4" d="m25.88,11.4s0-.11.08-.1c0,0,.02.01.02.02,0,.07-.05.07-.1.08,0,0,0,0,0,0Z"/><path class="cls-4" d="m26.41,17.38s-.07-.07-.06-.12c0-.04.04-.03.06,0,0,.04,0,.09,0,.13Z"/><path class="cls-2" d="m26.28,15.99c-.04.07-.09.07-.13,0,.04,0,.09,0,.13,0Z"/><path class="cls-4" d="m25.08,11.2s-.02.06-.03.08c-.06-.05,0-.06.02-.08,0,0,0,0,0,0Z"/><path class="cls-4" d="m25.55,9.81s.02,0,.03.01c0,0-.02-.01-.03-.02,0,0,0,0,0,0Z"/><path class="cls-2" d="m26.88,15.92l.03.02s-.02-.01-.03-.02c0,0,0,0,0,0Z"/><path class="cls-2" d="m27.14,14.13s-.02-.01-.03-.02c0,0,.02.01.03.02,0,0,0,0,0,0Z"/><path class="cls-5" d="m11.72,1.89s.01-.02.02-.03c0,0,0,.02-.01.03,0,0,0,0,0,0Z"/><path class="cls-1" d="m21.63,4.62c-.19-.23-.08-.27.15-.27.35,0,.66.15.97.29.4.45.82.9,1.08,1.45,0,.04,0,.09,0,.13,0,0,0,.01,0,.01-.09,0-.18-.01-.22.1-.03,0-.07,0-.1,0-.09-.23-.32-.11-.48-.18-.29-.12-.4-.42-.67-.54h0c-.16-.39-.47-.68-.73-1Zm.8.23s-.04.04-.06.06c.23.3.47.6.7.9.02-.02.05-.04.07-.06-.19-.34-.42-.65-.72-.9Z"/><path class="cls-4" d="m22.36,5.62c.27.11.38.42.67.54.16.06.39-.05.48.18-.02.03-.05.05-.07.08-.31.06-.59-.2-.94-.1.16.31.29.63.49.88.14.17.15.38.29.54.07.08.1.2.22.23,0,.12,0,.25,0,.37-.03.05-.08.07-.13.07q-.09-.35-.27-.33c-.1,0-.22.09-.27-.08.34,0,.31-.17.2-.4-.2-.4-.49-.75-.66-1.18-.09-.21-.32-.18-.46-.11-.18.1.01.22.06.33.21.42.47.82.62,1.28-.03.07-.08.1-.14.1-.1-.38-.33-.7-.48-1.05-.21-.5-.58-.74-1.12-.68.05-.11.21-.14.22-.27.17.12.35.09.54.09.17,0,.19-.07.09-.2-.12-.15-.27-.3-.29-.54.29.12.38.37.51.58.16.26.47.23.6.16.21-.12-.08-.25-.13-.38-.01-.03,0-.06,0-.1Z"/><path class="cls-1" d="m24.28,6.75c.14.42.48.74.54,1.2-.09,0-.21.13-.26,0-.13-.34-.41-.6-.53-.93-.06-.18-.32-.34-.14-.59.04,0,.07,0,.11.01.03.11.11.17.21.19h0c0,.05.02.1.07.13Z"/><path class="cls-4" d="m23.89,6.42c-.18.25.08.4.14.59.11.34.4.59.53.93.05.14.17.01.26,0,0,0,0,0,0,0,0,.04,0,.09,0,.13-.06,0-.13,0-.19.01-.11,0-.23,0-.34,0-.02-.02-.04-.04-.06-.06.24-.06.15-.26.07-.32-.35-.26-.32-.73-.6-1.02,0-.14-.02-.3.21-.26Z"/><path class="cls-2" d="m24.22,6.48c0-.1-.02-.2-.03-.3.09.14.17.27.09.43-.02,0-.05,0-.07,0,0,0,0,0,0,0,0-.05,0-.09,0-.13Z"/><path class="cls-4" d="m24.22,6.48s0,.09,0,.13c-.11-.02-.18-.08-.21-.19.07.02.15.03.22.05Z"/><path class="cls-4" d="m23.6,6.33c.04-.11.13-.1.22-.1-.05.09-.12.13-.22.1Z"/><path class="cls-2" d="m24.65,6.53s-.02.04-.02.06c-.02,0-.05-.01-.05-.03,0-.01.01-.04.02-.05.02,0,.04.02.06.02Z"/><path class="cls-4" d="m24.21,6.62s.05,0,.07,0c0,.04,0,.09,0,.13-.05-.03-.07-.07-.07-.13Z"/><path class="cls-4" d="m23.83,6.22s0-.09,0-.13c.06.05.05.09,0,.13Z"/><path class="cls-1" d="m24.81,8.07s0-.09,0-.13c.07.05.09.09,0,.13Z"/><path class="cls-4" d="m25.08,8.61s.02.02.03.03c0,0-.01,0-.02,0,0,0,0-.02-.01-.02,0,0,0,0,0,0Z"/><path class="cls-1" d="m18.9,6.03s-.04-.06-.06-.08c-.02-.02-.04-.05-.06-.07-.03-.04-.05-.08-.08-.12-.02-.02-.03-.05-.05-.07,0,0,0,0,0,0,0-.05-.02-.1-.08-.11-.02-.02-.05-.05-.07-.07,0-.08-.03-.13-.1-.16-.09-.11-.18-.21-.27-.32,0-.02,0-.04-.02-.06-.31-.44-.29-.49.27-.52.44-.03.88-.1,1.32,0,.2.26.43.49.66.72,0,.04,0,.08,0,.12l-.05.08s-.09.05-.14.07c-.21-.04-.39.11-.6.06-.02-.02-.04-.04-.07-.07-.02-.02-.04-.04-.06-.07-.01-.09-.05-.17-.04-.25.04-.31-.13-.28-.36-.24.11.21.22.38.4.5.02.02.05.04.07.06.02.02.04.04.07.07,0,.11.02.21.13.26.05.17.28.26.2.48-.23-.02-.46,0-.67.11-.04,0-.08,0-.12,0-.02-.07-.06-.12-.13-.14,0-.02-.01-.03-.02-.05,0-.06,0-.1-.06-.13Z"/><path class="cls-1" d="m22.36,5.62s0,.07,0,.1c.06.13.34.26.13.38-.13.07-.44.1-.6-.16-.13-.21-.22-.46-.51-.58.02.24.17.38.29.54.1.13.08.19-.09.2-.19,0-.37.03-.54-.09,0,0-.01,0-.01,0,0-.06-.02-.1-.07-.12-.02-.04-.05-.09-.07-.13,0-.09-.05-.15-.13-.19-.08-.12-.16-.25-.28-.34-.11-.28-.33-.48-.53-.69-.05-.05-.14-.1-.09-.19.04-.07.12-.05.18-.05.29,0,.57,0,.86,0,.13.05.27.1.4.15.04.04.08.09.13.13,0,0,0,0,0,0,.03.04.05.07.08.11.01.01.03.02.05.03.16.41.45.7.81.92,0,0,0,0,0,0Z"/><path class="cls-4" d="m20.89,4.28c-.29,0-.57,0-.86,0-.06,0-.14-.02-.18.05-.05.09.04.14.09.19.2.21.42.41.53.69-.04-.02-.08-.04-.12-.06-.24-.23-.47-.46-.66-.72.07-.06.02-.21.17-.21.35.02.7-.08,1.04.05Z"/><path class="cls-4" d="m22.36,5.62c-.37-.22-.66-.51-.81-.92.03-.03.06-.05.08-.08.26.32.57.6.73,1Z"/><path class="cls-3" d="m19.43,3.44s.09,0,.13,0c.05.08.02.11-.07.11-.1,0-.11-.04-.06-.12Z"/><path class="cls-4" d="m21.42,4.56s-.08-.09-.13-.13c.15-.07.11.06.13.13Z"/><path class="cls-4" d="m21.5,4.67s-.05-.07-.08-.11c.06.02.07.06.08.11Z"/><path class="cls-4" d="m25.48,15.72c-.14-.01-.13-.12-.13-.22,0-.18-.09-.27-.27-.24-.27.05-.19-.12-.13-.23.07-.13.11-.35.25-.34.13,0,.12.23.14.36.04.22.2.42.14.66,0,0,0,0,0,0Z"/><path class="cls-4" d="m25.62,16.05q.12.11.08.28c-.13-.07-.07-.18-.09-.28,0,0,0,0,0,0Z"/><path class="cls-3" d="m26.66,16.92s-.01.02-.02.02c0,0-.01-.02-.01-.03,0,0,.01-.02.02-.02,0,0,0,.02.01.03Z"/><path class="cls-2" d="m18.36,2.7c.18-.02.37-.04.55-.06,0,.16.12.16.23.17.1.02.2,0,.29.02.22.03.3.23.29.38-.01.16-.22.08-.33.07-.26-.02-.46-.18-.67-.32-.11-.07-.2-.18-.35-.13,0,0,0,0,0,0,0-.04,0-.08,0-.13Z"/><path class="cls-4" d="m18.64,3.49c-.03-.05-.08-.06-.14-.06-.13.04-.23.18-.39.13,0,0,0,0,0,0,0-.02,0-.05,0-.07.04,0,.09,0,.13,0-.06-.36.22-.09.34-.18-.18-.19-.55-.2-.54-.55,0,0,0-.01,0-.01.03,0,.06,0,.1,0,.08.02.16.05.23.07,0,0,0,0,0,0,.21.28.56.37.81.59-.06.01-.12.02-.15.08,0,0,0,0,0,0-.13,0-.26,0-.4,0Z"/><path class="cls-2" d="m19.97,2.88c.26.03.47.17.69.27.06.02.09.06.09.12,0,.05-.03.07-.08.08-.3.08-.65-.14-.72-.46l.02-.02Z"/><path class="cls-2" d="m19.03,3.49c.03-.06.09-.07.15-.08,0,.02.02.03.02.05-.06,0-.11.02-.17.03Z"/><path class="cls-2" d="m19.95,2.9s-.02-.03-.03-.04c.01,0,.03.02.04.02,0,0-.02.02-.02.02Z"/><path class="cls-3" d="m16.9,19.24c-.06-.29.29-.46.36-.74.02-.08.16-.08.22,0,.06.07.14.21.01.25-.33.09-.24.34-.26.55,0,.11.03.26-.16.27-.21,0-.17-.15-.18-.33Z"/><path class="cls-4" d="m19.7,14.19c-.08.49-.05,1-.33,1.44-.04.06-.06.17-.16.11-.07-.05-.04-.13,0-.2.16-.27.31-.52.18-.87-.06-.15.01-.43.3-.47,0,0,0,0,0,0Z"/><path class="cls-3" d="m18.43,11.8c.21-.02.35.05.22.28-.15.26.02.56-.15.81-.04.06-.07.11-.15.1-.11-.01-.07-.1-.05-.15.16-.33.08-.7.13-1.04,0,0,0,0,0,0Z"/><path class="cls-3" d="m19.11,11.22c.1.04.13.1.08.18-.18.32-.17.68-.16,1.03,0,.07,0,.14-.1.14-.07,0-.09-.05-.09-.11,0-.41.15-.79.2-1.19,0-.02.04-.04.06-.06Z"/><path class="cls-4" d="m21.32,9.83c.17.15.38.28.11.49-.07.05-.06.14-.07.21,0,.07.03.18-.09.17-.09,0-.1-.1-.1-.18,0-.11-.05-.26.05-.31.18-.09.22-.19.1-.38Z"/><path class="cls-3" d="m18.09,16.74s-.04.09-.06.09c-.06,0-.17.02-.18,0-.08-.18-.25-.3-.27-.5,0-.06.02-.11.08-.13.05-.01.13-.02.14.04.04.2.05.41.29.5Z"/><path class="cls-4" d="m23.39,10.84c-.22.08-.32-.2-.51-.17,0,0-.03-.06-.02-.08.02-.05.07-.05.11-.04.16.05.33.1.42.29Z"/><path class="cls-3" d="m18.9,13.68c0,.08,0,.17-.11.17-.09,0-.14-.07-.15-.15,0-.09.01-.15.12-.16.1,0,.14.05.14.14Z"/><path class="cls-4" d="m20.23,10.4c.09,0,.18,0,.27,0,0,.01,0,.02,0,.03-.07.11-.02.35-.2.32-.13-.02-.04-.23-.06-.35Z"/><path class="cls-4" d="m21.23,11.33c-.1-.1-.23-.13-.38-.09.02-.13.04-.25.17-.23.16.03.22.16.21.32,0,0,0,0,0,0Z"/><path class="cls-4" d="m19.75,12.56c.14.07.23.16.16.31-.01.03-.09.06-.11.05-.15-.09-.01-.24-.05-.36Z"/><path class="cls-4" d="m19.63,13.4c-.07-.15-.12-.26-.07-.38,0-.01.07-.01.08,0,.08.11.08.22-.01.38Z"/><path class="cls-4" d="m22.56,11.2c-.14,0-.26-.04-.3-.19,0-.02.04-.06.05-.06.16,0,.23.11.25.25,0,0,0,0,0,0Z"/><path class="cls-4" d="m19.41,13.95c-.04-.17-.06-.27-.1-.45.22.14.21.25.1.45Z"/><path class="cls-4" d="m20.26,19.3c.06.14.04.27-.06.37,0,0-.07,0-.08-.02-.04-.15.14-.21.14-.35Z"/><path class="cls-3" d="m17.67,18.23c.04.07.05.15,0,.17-.11.04-.08-.05-.05-.1.01-.03.04-.05.06-.07Z"/><path class="cls-3" d="m18.79,12.78s.04.03.04.05c0,.04.02.08-.03.1,0,0-.02-.03-.02-.05,0-.03.01-.06.02-.1Z"/><path class="cls-1" d="m20.83,6.28c.54-.05.91.18,1.12.68.15.35.38.67.48,1.05-.2.02-.4.05-.61.07-.11-.42-.36-.77-.52-1.17-.03-.07-.04-.18-.14-.14-.13.05-.04.15,0,.22.17.36.35.71.47,1.09,0,0,0,0,0,0-.02,0-.04.02-.06.02-.05,0-.09,0-.14,0-.04,0-.08,0-.13,0-.05,0-.1.01-.15.02,0,0-.03,0-.03,0,0,0-.02.03-.02.03-.05,0-.1,0-.15,0-.08-.43-.32-.8-.48-1.2-.03-.07-.09-.15-.18-.11-.11.05-.07.15-.03.23.03.06.08.1.12.16.18.3.36.61.37.98-.22,0-.43.09-.65.06-.06-.11-.11-.21-.17-.32-.01-.02-.03-.05-.04-.07h0c0-.17-.07-.3-.19-.41-.02-.07-.04-.13-.06-.2,0-.05-.02-.1-.08-.13-.01-.02-.02-.04-.03-.06-.01-.1-.05-.18-.15-.22,0,0,0,0,0,0-.02-.08.02-.19-.09-.23,0,0-.02-.02-.02-.02.22-.26.55-.16.82-.23.07,0,.14,0,.21,0,.12.02.25.19.34-.03.06-.03.12-.05.18-.08Z"/><path class="cls-1" d="m22.57,7.91c-.14-.45-.4-.85-.62-1.28-.05-.1-.24-.23-.06-.33.14-.07.37-.11.46.11.17.42.46.77.66,1.18.12.23.14.4-.2.4-.02,0-.04,0-.07.01-.02,0-.04,0-.07,0,0,0,0,0,0,0-.02-.02-.04-.03-.06-.05-.02-.02-.03-.04-.05-.06Z"/><path class="cls-4" d="m20.76,8.21c0-.37-.19-.67-.37-.98-.03-.06-.09-.1-.12-.16-.04-.08-.07-.18.03-.23.09-.04.15.04.18.11.16.4.4.77.48,1.2-.05.07-.13.06-.2.06Z"/><path class="cls-4" d="m21.63,8.07c-.12-.38-.3-.73-.47-1.09-.03-.07-.13-.17,0-.22.1-.04.11.07.14.14.16.4.41.75.52,1.17-.07,0-.13,0-.19,0Z"/><path class="cls-3" d="m19.43,8.01c.05.01.14.02.15.04.08.36.02.73.15,1.08,0,.01-.03.05-.06.06-.05.02-.09-.01-.1-.06-.04-.14-.16-.25-.15-.43.02-.23,0-.46,0-.69h0Z"/><path class="cls-3" d="m19.94,7.95c.06.11.11.21.17.32-.07.1-.17.09-.26.04-.1-.06-.05-.15-.03-.23.01-.06,0-.13.01-.19.02,0,.04,0,.06,0,0,0,0,0,0,0,.01.02.03.05.04.07Z"/><path class="cls-3" d="m23.09,8.08q.17-.02.27.33c-.17-.05-.23-.18-.27-.33Z"/><path class="cls-4" d="m19.89,7.88s-.04,0-.06,0c-.05-.13-.16-.25-.13-.41.12.11.2.23.19.4Z"/><path class="cls-4" d="m19.38,6.87c.1.03.14.12.15.22-.11-.03-.17-.1-.15-.22Z"/><path class="cls-4" d="m19.29,6.64c.11.05.07.15.09.23-.09-.04-.07-.13-.09-.2,0-.01,0-.02,0-.04Z"/><path class="cls-4" d="m19.56,7.15c.05.03.07.07.08.13-.06-.02-.07-.07-.08-.13Z"/><path class="cls-4" d="m21.3,8.1s.08,0,.13,0c-.04.04-.09.04-.13,0Z"/><path class="cls-4" d="m21.56,8.1s.04-.02.06-.02c-.01.03-.03.05-.06.02Z"/><path class="cls-4" d="m21.11,8.15l.02-.03s.03,0,.03,0c-.01.01-.03.02-.04.02Z"/><path class="cls-4" d="m22.69,8.01s.04,0,.07,0c-.02.04-.04.05-.07,0Z"/><path class="cls-4" d="m22.62,7.96s.04.03.06.05c-.02-.02-.04-.03-.06-.05Z"/><path class="cls-3" d="m19.43,8.01s-.02-.02-.03-.03c.01,0,.02.02.03.03,0,0,0,0,0,0Z"/><path class="cls-4" d="m23.69,7.48c-.26-.06-.24-.28-.27-.47.12.14.23.28.27.48h0Z"/><path class="cls-4" d="m24.42,8.81c-.07-.05-.18-.09-.07-.2.08.05.06.13.07.2Z"/><path class="cls-3" d="m15.68,9.37c-.1,0-.14-.06-.14-.1.03-.33-.1-.67-.07-.98.03-.32-.09-.54-.2-.8-.03-.07-.11-.12-.1-.2.01-.1-.06-.25.11-.26.12,0,.11.12.14.21.06.21.16.42.21.63.02.08.1.18.04.25-.18.21-.1.36.07.5.04.04.09.1.05.14-.14.18-.13.39-.13.59Z"/><path class="cls-3" d="m14.98,6.04c-.09-.3-.06-.6-.06-.9,0-.06.03-.1.1-.1.05,0,.09.05.08.08-.13.3.06.63-.12.92Z"/><path class="cls-3" d="m14.65,4.22c0,.12,0,.24.03.35.02.07.17.09.13.2-.02.05-.1.05-.11.02-.06-.14-.34-.05-.29-.24.04-.17-.05-.24-.17-.37.17.01.29.02.41.03,0,0,0,0,0,0Z"/><path class="cls-3" d="m14.05,3.69s-.1,0-.1-.08c0,0,.01-.02.02-.02.07,0,.07.05.08.1,0,0,0,0,0,0Z"/><path class="cls-2" d="m14.25,19.84c.13,0,.26,0,.39,0-.23.18-.08.49-.27.71-.11-.24-.15-.47-.12-.72Z"/><path class="cls-5" d="m8.77,21.37c-.1,0-.19,0-.21-.09-.03-.13.09-.09.16-.1.02,0,.05,0,.07,0,.12.07.33-.19.35.02.02.16-.26.09-.37.17Z"/><path class="cls-5" d="m8.2,21.32c0,.1-.02.18-.14.18-.06,0-.12-.03-.09-.1.03-.08,0-.19.13-.21.09-.01.1.06.11.13Z"/><path class="cls-5" d="m10.65,20.67c0,.09-.08.12-.15.14-.07.02-.1-.03-.1-.09,0-.09.04-.14.13-.14.06,0,.1.03.12.09Z"/><path class="cls-2" d="m13.88,19.99s-.03-.04-.03-.05c0-.02.02-.03.03-.05,0,.02.03.03.03.05,0,.02-.02.03-.03.05Z"/><path class="cls-5" d="m15.89,11.97c.11.25.2.47.14.78-.08.42-.31.82-.21,1.27.14-.21.27-.42.29-.68,0-.08-.03-.2.11-.19.11,0,.1.12.08.19-.14.45.11.87.07,1.31,0,.1-.02.2.07.28.07.06.07.14,0,.2-.03.03-.08.05-.12.04-.09-.01-.06-.1-.09-.16-.13-.29-.14-.6-.17-.91-.21.29-.38.57-.07.89.05.05.06.13,0,.18-.06.05-.12.09-.21.04-.19-.1-.31-.02-.42.16-.16.26-.22.55-.35.82-.04.09-.11.17-.2.13-.08-.04-.05-.15-.01-.22.18-.3.18-.69.45-.95.1-.09.02-.19-.05-.29-.18-.25-.11-.68.09-.91.23-.26.35-.58.48-.9.13-.34.18-.7.12-1.07Zm-.31,1.92c-.14.25.02.51-.24.64-.04.02,0,.26.13.29.14.04.09-.12.11-.19.08-.22.07-.44,0-.74Z"/><path class="cls-5" d="m15.71,11.96c0,.22.04.42-.09.6-.04.05-.04.18-.15.11-.07-.05-.14-.19-.06-.22.21-.1.08-.19.04-.3-.02-.04-.02-.09,0-.13.05-.18-.13-.51.16-.51.21,0,.04.32.1.46Z"/><path class="cls-2" d="m17.44,12.46c-.02-.15.14-.31-.02-.46-.06-.06-.07-.14-.02-.21.03-.05.08-.03.12-.01.08.03.12.09.12.18,0,.29-.07.58,0,.87.03.14.12.29,0,.44,0,0,0,0,0,0-.16-.02-.18-.15-.2-.27,0-.18,0-.35,0-.53Z"/><path class="cls-5" d="m15.76,16c-.09.14-.17.3-.27.45-.03.04-.1.07-.14.02-.03-.04-.04-.11-.02-.15.07-.13.12-.25.13-.4,0-.08.08-.14.17-.12.09.02.11.1.13.2Z"/><path class="cls-5" d="m16.47,13.71c-.02-.12.05-.17.13-.22.05-.03.08,0,.11.04.05.09.06.13-.05.21-.16.11.02.15.08.2.07.05.11.11.09.2-.02.05-.06.1-.12.1-.1-.01-.15-.09-.18-.17-.04-.11.01-.25-.06-.35Z"/><path class="cls-5" d="m17.44,12.46c0,.18,0,.35,0,.53-.06,0-.1.02-.13.08-.02.05-.03.12-.1.07-.03-.02-.06-.09-.05-.11.11-.13.06-.25.03-.39-.05-.21.13-.18.25-.18Z"/><path class="cls-5" d="m16.36,11.87c.18.14.15.38.34.46.07.03,0,.09-.03.13-.07.07-.14.06-.19-.02-.11-.16-.23-.32-.12-.57Z"/><path class="cls-2" d="m17.88,12.16c.18.18.16.36.09.56-.02.06-.03.14-.12.12-.09-.02-.07-.1-.08-.16-.01-.18.16-.32.11-.52Z"/><path class="cls-5" d="m14.78,16.31c-.03.14.06.32-.14.39-.06.02-.11-.02-.12-.08-.02-.19.09-.27.26-.31Z"/><path class="cls-5" d="m16.47,12.66c.03.14.14.24-.01.32-.06.03-.16.04-.17-.03-.03-.12.08-.19.19-.29Z"/><path class="cls-5" d="m16.84,15.18c-.07-.21-.11-.31.02-.38.05-.03.13-.02.14.03.04.13-.1.17-.16.35Z"/><path class="cls-2" d="m17.06,16.84c.05.15.09.25-.02.32-.04.03-.09,0-.11-.04-.04-.11.03-.18.13-.28Z"/><path class="cls-5" d="m16.8,13.01c.04.12.08.22-.03.29-.04.03-.1,0-.11-.04-.03-.1,0-.19.14-.25Z"/><path class="cls-2" d="m17.39,16.45c-.05.13-.08.22-.12.31-.03-.01-.06-.02-.09-.04.01-.11-.08-.26.21-.27Z"/><path class="cls-5" d="m16.53,15.38s-.03.11-.1.1c-.03,0-.08-.04-.09-.07-.02-.07.03-.09.09-.09.04,0,.09,0,.09.06Z"/><path class="cls-2" d="m18.1,11.13s-.02-.01-.03-.02c0,0,.02.01.03.02h0Z"/><path class="cls-1" d="m18.04,2.76c0,.35.36.35.54.55-.12.09-.4-.18-.34.18-.04,0-.09,0-.13,0-.12-.13-.2-.13-.22.06-.08.02-.16.04-.24.06-.24.03-.49.05-.73.08,0,0,0,0,0,0-.01-.16.1-.17.21-.19.14-.03.29-.04.46-.15-.34-.11-.61-.02-.89.01-.06-.03-.12-.06-.18-.09-.1-.05-.2-.11-.19-.24.01-.14.14-.16.25-.18.15-.04.3-.06.45-.09,0,.05.15.07.04.14-.07.04-.17.05-.25.07-.07.02-.17.03-.15.13.02.08.11.06.17.06.25,0,.49,0,.77,0-.11-.22-.33-.24-.4-.41.07,0,.15,0,.22,0,.05.07.11.08.19.08,0,0,0,0,0,0,.02.09.08.19.17.14.08-.05.03-.13-.05-.17,0-.03-.02-.06-.02-.09.02,0,.04-.01.05-.03.1-.03.19-.01.27.06Z"/><path class="cls-2" d="m17.21,2.75c.07.17.29.2.4.41-.28,0-.52,0-.77,0-.06,0-.15.02-.17-.06-.02-.11.08-.11.15-.13.08-.02.18-.03.25-.07.11-.07-.03-.09-.04-.14.06,0,.12,0,.17,0Z"/><path class="cls-4" d="m20.09,6.39c-.28.07-.6-.03-.82.23-.19-.07.01-.2-.04-.29.21-.11.44-.13.67-.11-.01.14.14.1.19.17Z"/><path class="cls-2" d="m16.71,3.36c.27-.03.55-.13.89-.01-.18.11-.32.12-.46.15-.11.02-.23.03-.21.19-.2-.02-.16-.2-.21-.32Z"/><path class="cls-2" d="m18.64,3.49c.13,0,.26,0,.4,0,0,.17-.09.3-.23.3-.17,0-.18-.16-.16-.3Z"/><path class="cls-5" d="m16.46,8.85c-.07.15.16.34-.1.42-.06.02-.15.02-.16-.06-.05-.2.11-.25.26-.35Z"/><path class="cls-5" d="m17.53,8.4c-.08,0-.13-.05-.15-.13-.01-.09.03-.15.12-.16.09,0,.13.07.13.15,0,.07,0,.13-.1.14Z"/><path class="cls-5" d="m17.54,8.51c.03.15.07.28-.03.39-.04.04-.1-.01-.12-.06-.06-.15,0-.25.15-.32Z"/><path class="cls-5" d="m17.66,7.55c-.05-.06-.07-.08-.07-.1.01-.12-.09-.23-.02-.34,0-.01.08-.01.09,0,.09.13.06.26,0,.44Z"/><path class="cls-2" d="m16.91,3.68c.24-.03.49-.05.73-.08-.22.22-.47.2-.73.08Z"/><path class="cls-5" d="m17.78,8c-.07,0-.13-.02-.14-.1,0-.07,0-.14.09-.13.06,0,.17-.02.16.1,0,.07-.03.12-.11.13Z"/><path class="cls-5" d="m16.58,8.7c.06.02.1.05.1.11,0,.09-.06.14-.15.11-.04-.01-.11-.02-.08-.1.03-.06.06-.11.13-.11Z"/><path class="cls-2" d="m18.1,3.55c.16.05.26-.1.39-.13-.04.33-.22.21-.39.13Z"/><path class="cls-1" d="m18.37,2.82c-.08-.02-.16-.05-.23-.07-.01-.02-.02-.04-.02-.06.02-.02.04-.04.06-.06.05.02.09.03.14.05.02,0,.04.01.06.01,0,.04,0,.08,0,.13Z"/><path class="cls-2" d="m17.74,2.81c.08.04.13.13.05.17-.09.05-.15-.05-.17-.14.04-.01.08-.02.12-.03Z"/><path class="cls-5" d="m17.64,6.89c-.05.01-.08.04-.1.03-.05-.02-.09-.06-.06-.12,0-.01.06-.02.08-.01.03.02.05.06.09.1Z"/><path class="cls-2" d="m17.88,3.55c.03-.19.11-.19.22-.06,0,.02,0,.05,0,.07-.07-.05-.15-.03-.22,0Z"/><path class="cls-2" d="m18.93,6.99s.03.04.03.07c0,.05-.03.08-.08.05-.02,0-.03-.05-.02-.08,0-.03.02-.06.08-.04Z"/><path class="cls-4" d="m18.98,6.2c.07.02.12.07.13.14-.1,0-.14-.04-.13-.14Z"/><path class="cls-2" d="m17.62,2.84c-.07,0-.14-.01-.19-.08.1-.06.15,0,.19.08Z"/><path class="cls-4" d="m18.39,5.33c.07.03.11.08.1.16-.09-.02-.12-.07-.1-.16Z"/><path class="cls-2" d="m18.3,2.68s-.09-.03-.14-.05c.09-.11.12-.04.14.05Z"/><path class="cls-4" d="m18.9,6.03c.06.02.07.07.06.13-.02-.04-.04-.08-.06-.13Z"/><path class="cls-4" d="m18.56,5.56c.06.01.08.06.08.11-.06-.01-.07-.06-.08-.11Z"/><path class="cls-2" d="m18.11,2.69s.01.04.02.06c-.03,0-.06,0-.1,0,.02-.02.05-.03.07-.05Z"/><path class="cls-2" d="m17.77,2.7s-.03.02-.05.03c0-.02,0-.04,0-.06.01,0,.03.02.04.03Z"/><path class="cls-4" d="m18.64,5.68s.03.05.05.07c-.02-.02-.03-.05-.05-.07Z"/><path class="cls-4" d="m18.77,5.87s.04.05.06.07c-.02-.02-.04-.05-.06-.07Z"/><path class="cls-3" d="m15.75,22.44c.23.05.14.26.19.4.05.14-.09.11-.17.12-.3.03-.1-.22-.17-.32-.06-.09.03-.18.15-.2Z"/><path class="cls-3" d="m13.24,24.44c.17-.01.2.05.2.15,0,.1-.02.2-.14.22-.04,0-.11-.05-.09-.06.16-.08-.08-.25.02-.32Z"/><path class="cls-3" d="m14.21,24.26c-.07,0-.09-.04-.09-.08,0-.09.04-.15.13-.14.04,0,.11.02.09.06-.03.06-.09.11-.13.16Z"/><path class="cls-3" d="m16.81,22.65s-.04.02-.05.02c-.01,0-.02-.03-.02-.05.02,0,.04-.02.05-.02.01,0,.02.03.02.05Z"/><path class="cls-4" d="m22.43,4.85c.3.25.53.56.72.9-.02.02-.05.04-.07.06-.23-.3-.47-.6-.7-.9.02-.02.04-.04.06-.06Z"/><path class="cls-2" d="m20.09,6.39c-.06-.07-.2-.03-.19-.17.08-.22-.15-.31-.2-.48,0-.11.01-.18.14-.2.11-.02.23-.04.32-.12.05-.02.09-.05.14-.07.02-.03.03-.05.05-.08,0-.04,0-.08,0-.12.04.02.08.04.12.06.13.09.2.22.28.34,0,.09.05.15.13.19.02.04.05.09.07.13,0,.06,0,.11.07.12,0,0,.01,0,.01,0-.02.14-.17.16-.22.27-.06.03-.12.05-.18.08-.12,0-.23-.04-.34.03-.07,0-.14,0-.21,0Z"/><path class="cls-4" d="m19.43,5.35c-.18-.12-.29-.29-.4-.5.23-.04.4-.07.36.24-.01.08.03.17.04.25h0Z"/><path class="cls-4" d="m20.16,5.42c-.09.08-.21.1-.32.12-.13.02-.15.09-.14.2-.11-.05-.13-.15-.13-.26,0,0,0,0,0,0,.21.05.39-.11.6-.06Z"/><path class="cls-4" d="m20.36,5.27s-.03.05-.05.08c.02-.03.03-.05.05-.08Z"/><path class="cls-4" d="m19.43,5.35s.04.04.06.07h0s-.05-.05-.07-.07c0,0,0,0,0,0Z"/><path class="cls-4" d="m19.5,5.42s.04.04.07.07c0,0,0,0,0,0-.02-.02-.04-.04-.07-.07,0,0,0,0,0,0Z"/><path class="cls-4" d="m20.89,5.75c-.08-.04-.13-.1-.13-.19.08.04.13.1.13.19Z"/><path class="cls-4" d="m21.04,6c-.06-.02-.07-.07-.07-.12.05.03.07.07.07.12Z"/><path class="cls-4" d="m20.3,6.39c.11-.07.23-.03.34-.03-.1.22-.23.05-.34.03Z"/><path class="cls-4" d="m19.94,7.95s-.03-.05-.04-.07c.01.02.03.05.04.07Z"/><path class="cls-3" d="m15.59,13.89c.08.3.08.52,0,.74-.03.07.02.22-.11.19-.13-.03-.17-.27-.13-.29.26-.13.1-.38.24-.64Z"/></g></svg>