<?xml version="1.0" encoding="UTF-8"?><svg id="Capa_2" xmlns="http://www.w3.org/2000/svg" viewBox="0 0 23.31 23.31"><defs><style>.cls-1{fill:#6bb234;}.cls-1,.cls-2{stroke-width:0px;}.cls-2{fill:#f4f4f4;}</style></defs><g id="Capa_1-2"><circle class="cls-2" cx="11.65" cy="11.65" r="11.65"/><path class="cls-1" d="m17.26,18.61c.12-.58-.07-1.06-.2-1.54-.47-1.7-.94-3.4-1.41-5.11-.12-.42-.24-.85-.36-1.27-.03-.09-.03-.13.08-.16,1.13-.26,2.25-.52,3.37-.78.16-.04.18.04.21.15.36,1.3.71,2.61,1.07,3.91.08.29.14.58.14.88,0,.41-.19.74-.44,1.03-.76.9-1.53,1.8-2.29,2.69-.04.05-.09.1-.18.19Z"/><path class="cls-1" d="m12.33,6.45c-.37.37-.74.73-1.12,1.09-.51.48-1.02.96-1.53,1.45-.13.12-.18.11-.29-.02-.73-.86-1.48-1.72-2.22-2.58-.06-.07-.08-.11,0-.18.93-.88,1.85-1.75,2.78-2.63.03-.03.06-.04.09-.07.13.04.17-.09.24-.15.11-.11.3-.14.31-.33.07.02.1-.02.11-.07,0,0,0,0,0,0,.27-.02.5-.17.76-.22.02,0,.03-.03.04-.04h.01s.01,0,.01,0c1.1.24,2.19.49,3.29.73.13.03.24.09.36.13.08.03.11.09.01.15-.35.22-.62.54-.95.8-.08.06-.08.19-.19.2-.25.04-.39.24-.58.37-.04.03-.05.07-.01.12.02.02.07.04.03.07-.15.08-.19.27-.37.32-.05.01-.13.02-.14.08-.04.19-.23.25-.32.39-.1.15-.3.2-.33.4Z"/><path class="cls-1" d="m10.38,18.14c-.2-.03-.4-.07-.6-.13-.05-.07-.14-.06-.21-.08-1.16-.26-2.32-.51-3.48-.77-.09-.02-.23,0-.23-.17,0-.04-.05-.03-.08-.03-.31,0-.44-.31-.69-.42-.01,0,0-.05,0-.07.14-.01.19-.06.08-.19-.02-.03-.04-.07-.05-.1-.01-.04-.02-.09-.07-.1-.02,0-.05.01-.06.03-.03.05,0,.11.03.14.06.05.09.1.04.17-.09,0-.11-.08-.14-.14-.08-.19-.13-.39-.21-.57-.07-.15-.15-.25.03-.37q-.18.01-.22-.15s0-.02-.01-.04c-.1-.21-.22-.42-.31-.64-.17-.4-.24-.83-.47-1.2-.03-.04,0-.06.04-.09.04-.05.09-.1.09-.16.01-.08.07-.08.1-.05.13.11.3.05.44.09.15.03.29.09.44.12.51.11,1.05.12,1.52.39.03.01.07.03.09.01.11-.07.22-.01.33,0,.58.13,1.16.25,1.74.38.14.03.3.03.42.16.04.05.16.07.22.05.17-.06.31,0,.47.04.29.06.59.13.88.19.06.01.13.01.17.07.07.09.15.08.25.06.23-.06.33.05.27.29-.07.27-.14.54-.21.81-.18.72-.39,1.44-.61,2.16-.03.09-.05.21-.22.13-.14-.06-.3-.1-.47-.06.19.07.39.11.58.16.04,0,.14-.02.08.09Zm-2.49-.69s0,.04-.01.06c.21.05.42.09.63.14.04,0,.08.01.09-.03.01-.05-.03-.06-.07-.07-.21-.06-.43-.05-.65-.09Zm1.36.31c.09.1.18.09.27.08-.07-.07-.15-.08-.27-.08Zm-.33-.06c-.07-.05-.14-.09-.24-.04.08.05.16.08.24.04Z"/><path class="cls-1" d="m9.26,12.73c-.26-.21-.48-.39-.71-.58-.22-.18-.43-.36-.65-.54-.09-.08-.17-.08-.24.01-.32.38-.64.76-.96,1.14-.1.12-.15.27-.16.43,0,.11-.04.13-.14.1-.78-.18-1.56-.34-2.33-.54-.98-.26-1.34-1.27-.74-2.1.4-.56.88-1.06,1.33-1.58.12-.14.1-.22-.03-.32-.41-.34-.81-.68-1.22-1.02-.02-.02-.04-.03-.09-.09.17.03.31.05.44.07,1.29.25,2.57.5,3.86.74.14.03.2.08.25.21.45,1.31.91,2.63,1.37,3.94,0,.02,0,.05.02.11Z"/><path class="cls-1" d="m19.78,6.28c-.54.55-1.05,1.06-1.56,1.58-.51.51-1.02,1.02-1.53,1.53-.08.08-.15.11-.27.08-1.36-.36-2.71-.72-4.07-1.08-.02,0-.03-.02-.09-.05.38-.11.72-.21,1.05-.3.21-.06.43-.13.64-.19.11-.03.13-.1.1-.2-.12-.43-.23-.86-.35-1.29-.06-.2-.16-.38-.33-.51-.06-.05-.1-.09-.02-.16.62-.56,1.18-1.18,1.83-1.7.72-.57,1.59-.37,2.02.43.13.24.19.5.26.76.13.49.27.97.4,1.46.04.16.14.13.25.1.52-.15,1.04-.29,1.56-.44.02,0,.03,0,.1-.01Z"/><path class="cls-1" d="m16.51,15.67c.23.77.47,1.53.63,2.32.09.44-.02.85-.35,1.17-.01.01-.03.02-.04.03,0,0,0,0,0,0-.04,0-.08-.01-.12.02-.32.23-.67.31-1.05.23-.14-.03-.28-.06-.45-.1.09.1.21.04.27.14-.57-.1-1.13-.23-1.68-.37.03-.17-.12-.1-.17-.11-.09-.01-.21,0-.23.12-.09.4-.17.79-.26,1.19-.02.09,0,.22-.09.25-.09.02-.05-.13-.12-.17,0,0-.01,0-.02,0-.28-.88-.55-1.76-.83-2.65-.11-.35-.21-.69-.32-1.04-.02-.07-.04-.13.02-.19.86-.91,1.72-1.83,2.58-2.74.06,0,.1-.02.14-.05.04-.03.06-.1.12-.06.05.03.01.09,0,.14-.08.37-.16.75-.25,1.12-.06.25,0,.35.25.4.45.1.89.2,1.34.3.06.01.11.03.17.01.3-.06.3-.06.46.04,0,0,0,0,.01-.01Z"/><path class="cls-1" d="m5.09,16.47s0,.07,0,.07c.24.11.37.42.69.42.03,0,.08,0,.08.03,0,.17.13.14.23.17,1.16.26,2.32.51,3.48.77.07.02.16,0,.21.08-.7-.15-1.4-.3-2.1-.46-.54-.12-1.07-.24-1.61-.36-.69-.15-1.13-.56-1.38-1.22-.42-1.1-.86-2.2-1.3-3.29,0-.02-.01-.05-.03-.09.11.01.17.1.25.14.25.15.53.21.81.28,2.26.5,4.53,1,6.79,1.5.15.03.18.07.14.22-.3,1.1-.59,2.21-.89,3.31-.01.05,0,.13-.1.1.06-.11-.05-.08-.08-.09-.19-.05-.39-.09-.58-.16.16-.04.33,0,.47.06.17.08.19-.04.22-.13.22-.71.43-1.43.61-2.16.07-.27.14-.54.21-.81.06-.23-.04-.35-.27-.29-.11.03-.18.03-.25-.06-.04-.06-.11-.05-.17-.07-.29-.07-.59-.13-.88-.19-.15-.03-.3-.1-.47-.04-.06.02-.17,0-.22-.05-.12-.12-.27-.12-.42-.16-.58-.13-1.16-.26-1.74-.38-.11-.02-.22-.08-.33,0-.02.01-.07,0-.09-.01-.47-.27-1.01-.28-1.52-.39-.15-.03-.29-.09-.44-.12-.15-.03-.31.02-.44-.09-.04-.03-.09-.03-.1.05,0,.06-.05.11-.09.16-.03.03-.06.05-.04.09.23.37.3.8.47,1.2.09.22.21.43.31.64,0,.01.01.02.01.04q.04.16.22.15c-.18.13-.1.22-.03.37.08.18.13.38.21.57.03.06.04.14.14.14h0s.02.03.03.05h0Zm-1.37-3.6s-.1,0-.11.04c0,.07.06.09.11.11.04.01.08,0,.08-.05,0-.06-.03-.09-.09-.11Zm-.16-.05s0,.02,0,.03c0,0,.01,0,.01-.01,0,0,0-.01,0-.02Z"/><path class="cls-1" d="m12.33,6.45c.03-.2.23-.25.33-.4.09-.14.28-.2.32-.39.01-.06.09-.07.14-.08.17-.05.22-.24.37-.32.04-.02-.01-.05-.03-.07-.04-.04-.03-.09.01-.12.18-.14.33-.34.58-.37.11-.02.12-.14.19-.2.32-.26.59-.57.95-.8.1-.06.06-.12-.01-.15-.12-.05-.23-.11-.36-.13-1.1-.24-2.19-.48-3.29-.73.05-.03.11-.02.17,0,1.32.25,2.62.58,3.94.85,0,.03,0,.05-.01.05-.6.19-.97.68-1.41,1.09-.64.59-1.26,1.19-1.89,1.78Z"/><path class="cls-1" d="m16.51,15.67s-.01.01-.01.01c-.17-.1-.17-.1-.46-.04-.06.01-.11,0-.17-.01-.45-.1-.9-.2-1.34-.3-.25-.06-.31-.15-.25-.4.08-.37.17-.75.25-1.12,0-.05.05-.11,0-.14-.06-.04-.08.04-.12.06-.04.03-.08.06-.14.05.13-.15.26-.3.39-.45.01,0,.02.01.03.02-.12.54-.23,1.08-.36,1.61-.04.17,0,.24.17.28.41.08.82.18,1.23.28.18.04.37.07.55,0,.19-.09.24-.02.24.15Z"/><path class="cls-1" d="m12.8,20.41s.01,0,.02,0c.07.04.03.19.12.17.1-.03.07-.16.09-.25.09-.4.17-.79.26-1.19.03-.13.14-.14.23-.12.05,0,.2-.06.17.11-.04,0-.09,0-.13-.02-.14-.05-.21.01-.24.15-.12.55-.24,1.1-.37,1.69-.09-.18-.12-.36-.16-.53Z"/><path class="cls-1" d="m15.38,19.49c-.06-.1-.18-.04-.27-.14.17.04.31.07.45.1.38.08.74,0,1.05-.23.04-.03.08-.03.12-.02-.39.38-.86.4-1.36.29Z"/><path class="cls-1" d="m11.51,2.7s-.02.04-.04.04c-.26.05-.49.19-.76.22.23-.19.5-.26.8-.26Z"/><path class="cls-1" d="m10.59,3.03c-.02.19-.2.23-.31.33-.06.06-.1.19-.24.15.16-.18.34-.36.55-.49Z"/><path class="cls-1" d="m10.71,2.95c-.02.05-.04.1-.11.08.03-.04.06-.07.11-.08Z"/><path class="cls-1" d="m16.74,19.2s.03-.02.04-.03c0,.02-.02.03-.04.03Z"/><path class="cls-1" d="m7.88,17.45c.21.04.43.03.65.09.04.01.08.03.07.07-.01.05-.06.04-.09.03-.21-.05-.42-.09-.63-.14,0-.02,0-.04.01-.06Z"/><path class="cls-1" d="m5.06,16.42c.05-.07.02-.12-.04-.17-.04-.03-.06-.09-.03-.14,0-.02.04-.03.06-.03.05,0,.06.06.07.1.01.03.02.07.05.1.11.12.05.17-.08.19,0,0,0,0,0,0,0-.02-.02-.03-.03-.05h0Z"/><path class="cls-1" d="m9.24,17.76c.12,0,.2,0,.27.08-.09.01-.18.02-.27-.08Z"/><path class="cls-1" d="m8.91,17.7c-.08.04-.15.02-.24-.04.1-.06.17-.01.24.04Z"/><path class="cls-1" d="m3.73,12.87c.05.01.09.04.09.11,0,.05-.04.06-.08.05-.05-.02-.12-.04-.11-.11,0-.05.06-.05.11-.04Z"/><path class="cls-1" d="m3.56,12.82s0,.01,0,.02c0,0,0,0-.01.01,0,0,0-.02,0-.03Z"/><path class="cls-1" d="m5.06,16.42s.02.03.03.05c0-.02-.02-.03-.03-.05Z"/></g></svg>