<?xml version="1.0" encoding="UTF-8"?><svg id="Capa_2" xmlns="http://www.w3.org/2000/svg" viewBox="0 0 48.78 31.21"><defs><style>.cls-1{fill:#fff;}.cls-1,.cls-2{stroke-width:0px;}.cls-2{fill:#0056a1;}</style></defs><g id="Capa_1-2"><path class="cls-1" d="m41.23,31.21L2.52,22.57l-2.52-3.96L3.59,2.52,7.56,0l38.71,8.64,2.52,3.96-3.59,16.09-3.96,2.52Z"/><path class="cls-2" d="m16.48,11.1l-.58-.13.42-1.88.64.14c-.03.4.07.74.29,1.03s.52.48.92.57c.27.06.49.06.67-.01s.28-.19.32-.37c.06-.28-.18-.54-.72-.8-.09-.04-.16-.07-.2-.1-.47-.23-.8-.4-.97-.52s-.31-.24-.42-.37c-.13-.16-.22-.34-.26-.53s-.04-.39,0-.61c.11-.48.36-.82.76-1.01s.91-.22,1.53-.08c.31.07.58.16.8.28s.41.27.55.44l.22-.31.59.13-.39,1.75-.66-.15c.04-.36-.05-.67-.25-.93s-.51-.43-.91-.52c-.24-.05-.44-.05-.6.02s-.26.19-.3.36c-.05.24.22.5.82.78.23.1.41.19.54.26.52.26.88.54,1.08.85s.25.66.16,1.07c-.11.48-.37.82-.79,1.02s-.93.23-1.54.1c-.29-.07-.57-.17-.83-.31s-.47-.29-.62-.47l-.27.31Z"/><path class="cls-2" d="m21.64,9.71v-.04c.05-.18.05-.29.02-.34s-.11-.08-.25-.11l-.23-.05.13-.59,1.76.39-.55,2.46c-.03.14-.03.24,0,.29s.11.09.25.12l.18.04-.13.58-2.25-.5.13-.58.22.05c.14.03.23.03.28,0s.09-.12.13-.26l.32-1.44Zm.36-1.9c.04-.16.13-.29.27-.38s.29-.12.46-.08.29.13.38.27.12.29.08.46-.13.29-.27.38-.29.12-.46.08-.3-.13-.38-.26-.11-.29-.08-.46Z"/><path class="cls-2" d="m24.06,11.55c-.11-.18-.19-.37-.22-.55s-.03-.36.01-.55c.1-.43.31-.74.65-.92s.75-.21,1.26-.1c.21.05.39.12.56.21s.31.21.44.36c.15-.08.29-.14.43-.17s.27-.03.41,0c.23.05.41.16.53.33s.15.35.11.56c-.03.15-.11.27-.21.34s-.23.09-.38.06c-.13-.03-.23-.09-.3-.19s-.1-.2-.07-.31c.02-.07.05-.13.09-.19s.1-.11.18-.15c-.02-.03-.04-.06-.06-.08s-.05-.03-.08-.04c-.06-.01-.12,0-.2.02s-.17.07-.27.12c.06.12.09.25.1.39s0,.28-.03.43c-.09.41-.31.71-.66.88s-.77.21-1.27.1c-.12-.03-.23-.06-.35-.11s-.23-.11-.34-.18c-.06.02-.1.04-.13.07s-.05.06-.06.1c-.02.1.02.18.14.24s.39.15.84.25c.1.02.23.05.39.08s.28.06.35.07c.42.09.72.24.9.45s.23.46.17.77c-.09.39-.31.63-.67.73s-.91.07-1.66-.1c-.6-.13-1.04-.29-1.3-.47s-.38-.39-.32-.63c.03-.14.1-.25.22-.32s.27-.11.47-.12c-.15-.13-.25-.27-.31-.41s-.06-.29-.03-.45c.03-.14.1-.25.22-.34s.28-.15.48-.19Zm-.17,1.95c-.02.1.05.19.22.27s.42.17.76.24c.39.09.68.13.86.12s.28-.07.31-.18c.02-.1-.03-.19-.17-.26s-.4-.15-.8-.24c-.44-.1-.74-.14-.9-.13s-.25.07-.28.18Zm1.32-1.84c.15.03.27-.01.36-.14s.18-.36.25-.7c.07-.31.09-.54.06-.68s-.12-.23-.27-.26-.26.01-.36.14-.18.36-.25.69c-.07.29-.08.52-.05.67s.12.25.26.28Z"/><path class="cls-2" d="m30.48,9.13l-.87,3.88c-.03.15-.03.25,0,.29s.12.08.25.11l.19.04-.13.58-2.25-.5.13-.58.19.04c.14.03.23.03.28,0s.09-.12.13-.26l.64-2.88c.04-.19.05-.31.02-.36s-.11-.1-.25-.13l-.21-.05.13-.58,1.73.39Z"/><path class="cls-2" d="m30.61,12.42c.13-.56.4-.97.82-1.21s.93-.3,1.54-.17,1.05.4,1.32.81.35.88.23,1.45-.4.96-.82,1.21-.93.3-1.54.16-1.05-.4-1.32-.8-.35-.88-.22-1.44Zm1.29.29c-.1.45-.12.77-.06.97s.21.32.46.37.44,0,.57-.14.26-.45.36-.9.12-.78.06-.97-.21-.32-.46-.37-.43,0-.57.14-.26.45-.36.91Z"/><path class="cls-2" d="m7.84,19.86l.21-.92.15.03c.25.06.47.06.65.01s.39-.16.62-.35l2.02-1.62-1.18-2.62c-.11-.24-.23-.42-.36-.54s-.31-.21-.52-.26l.2-.92,3.81.85-.2.91s-.05-.01-.09-.03-.06-.02-.08-.02c-.16-.04-.29-.04-.38-.02s-.15.07-.17.16c0,.04,0,.09,0,.14s.03.12.07.21l.5,1.19,1.08-.82c.08-.06.13-.1.17-.14s.05-.08.07-.13c.02-.08-.02-.16-.11-.23s-.23-.12-.43-.16l-.07-.02.2-.91,3.16.71-.2.91h-.04c-.25-.06-.46-.07-.65-.03s-.39.15-.6.31l-1.95,1.52,1.21,2.72c.13.3.25.51.37.63s.27.2.46.25c.04,0,.11.02.21.03.01,0,.03,0,.03,0l-.21.92-4.03-.9.21-.92.12.03c.22.05.39.06.49.04s.17-.08.19-.17c.02-.09,0-.2-.08-.34-.02-.04-.04-.07-.05-.1l-.54-1.22-1.05.84c-.11.1-.19.17-.23.23s-.07.12-.09.18c-.02.08.01.15.09.2s.2.11.36.14c.06.01.1.02.13.03s.06,0,.08.01l-.2.93-3.34-.74Z"/><path class="cls-2" d="m20.78,22.75l-2.01-.45-.61-5.85c-.04-.39-.12-.65-.24-.78s-.34-.24-.66-.32l.2-.91,4.03.9-.21.91c-.05-.02-.11-.03-.17-.05s-.14-.03-.24-.06c-.23-.05-.39-.06-.49-.03s-.16.11-.19.24c-.01.05-.02.12-.01.21s.02.24.04.44l.35,3.77,2.05-3.42c.09-.16.15-.26.18-.32s.05-.1.06-.14c.02-.1-.01-.19-.1-.26s-.24-.13-.45-.18c-.09-.02-.16-.03-.2-.04s-.09-.02-.13-.02l.2-.91,3.13.7-.21.91c-.33-.07-.59-.05-.79.06s-.4.36-.61.75l-2.91,4.85Z"/><path class="cls-2" d="m23.88,23.45l.21-.95.44.1c.28.06.47.07.56.02s.17-.22.23-.49l.91-4.08c.06-.28.06-.46,0-.55s-.24-.16-.52-.22l-.44-.1.21-.95,4.26.95-.21.95-.44-.1c-.28-.06-.47-.07-.57-.01s-.18.22-.24.49l-.91,4.08c-.06.27-.06.45,0,.54s.24.17.52.23l.44.1-.21.95-4.26-.95Z"/><path class="cls-2" d="m28.59,24.5l.21-.95.44.1c.28.06.47.07.56.02s.17-.22.23-.49l.91-4.08c.06-.28.06-.46,0-.55s-.24-.16-.52-.22l-.44-.1.21-.95,4.26.95-.21.95-.44-.1c-.28-.06-.47-.07-.57-.01s-.18.22-.24.49l-.91,4.08c-.06.27-.06.45,0,.54s.24.17.52.23l.44.1-.21.95-4.26-.95Z"/><path class="cls-2" d="m33.3,25.55l.21-.95.44.1c.28.06.47.07.56.02s.17-.22.23-.49l.91-4.08c.06-.28.06-.46,0-.55s-.24-.16-.52-.22l-.44-.1.21-.95,4.26.95-.21.95-.44-.1c-.28-.06-.47-.07-.57-.01s-.18.22-.24.49l-.91,4.08c-.06.27-.06.45,0,.54s.24.17.52.23l.44.1-.21.95-4.26-.95Z"/><path class="cls-2" d="m40.29,29.42L4.13,21.34l.07-.3c.3-1.37-.56-2.72-1.92-3.03l-.3-.07L5.1,3.95l.3.07c1.37.3,2.72-.56,3.03-1.92l.07-.3,36.16,8.07-.07.3c-.3,1.37.56,2.72,1.92,3.03l.3.07-3.13,14-.3-.07c-1.37-.3-2.72.56-3.03,1.92l-.07.3ZM4.84,20.88l35,7.81c.47-1.42,1.89-2.33,3.38-2.14l2.87-12.84c-1.42-.47-2.33-1.89-2.14-3.38L8.94,2.52c-.47,1.42-1.89,2.33-3.38,2.14l-2.87,12.84c1.42.47,2.33,1.89,2.14,3.38Z"/></g></svg>