<?xml version="1.0" encoding="UTF-8"?><svg id="Capa_2" xmlns="http://www.w3.org/2000/svg" xmlns:xlink="http://www.w3.org/1999/xlink" viewBox="0 0 34.94 28.88"><defs><style>.cls-1{fill:url(#Degradado_sin_nombre_61);}.cls-1,.cls-2,.cls-3,.cls-4,.cls-5,.cls-6,.cls-7,.cls-8,.cls-9,.cls-10,.cls-11,.cls-12,.cls-13,.cls-14,.cls-15,.cls-16,.cls-17,.cls-18,.cls-19,.cls-20,.cls-21,.cls-22,.cls-23,.cls-24,.cls-25,.cls-26,.cls-27,.cls-28,.cls-29,.cls-30,.cls-31,.cls-32,.cls-33,.cls-34,.cls-35,.cls-36,.cls-37,.cls-38,.cls-39,.cls-40,.cls-41,.cls-42,.cls-43,.cls-44,.cls-45,.cls-46,.cls-47,.cls-48,.cls-49,.cls-50,.cls-51,.cls-52,.cls-53,.cls-54,.cls-55,.cls-56,.cls-57,.cls-58,.cls-59,.cls-60,.cls-61,.cls-62,.cls-63,.cls-64,.cls-65,.cls-66,.cls-67,.cls-68{stroke-width:0px;}.cls-2{fill:url(#Degradado_sin_nombre_60);}.cls-3{fill:url(#Degradado_sin_nombre_62);}.cls-4{fill:url(#Degradado_sin_nombre_64);}.cls-5{fill:url(#Degradado_sin_nombre_63);}.cls-6{fill:#f4a908;}.cls-7{fill:#f7e385;}.cls-8{fill:#f6e3b2;}.cls-9{fill:#f8e7c9;}.cls-10{fill:#f7cf3a;}.cls-11{fill:#5d6656;}.cls-12{fill:#523918;}.cls-13{fill:#783e0a;}.cls-14{fill:#7b8277;}.cls-15{fill:#2d2317;}.cls-16{fill:#351107;}.cls-17{fill:#4a5658;}.cls-18{fill:#4a4f39;}.cls-19{fill:#563f08;}.cls-20{fill:#275457;}.cls-21{fill:#81510a;}.cls-22{fill:#6e7565;}.cls-23{fill:#463820;}.cls-24{fill:#3d4441;}.cls-25{fill:#58280f;}.cls-26{fill:#1b0d05;}.cls-27{fill:#43605a;}.cls-28{fill:#444e43;}.cls-29{fill:#0f2c37;}.cls-30{fill:#1d2629;}.cls-31{fill:#407282;}.cls-32{fill:#0b0b09;}.cls-33{fill:#232923;}.cls-34{fill:#171912;}.cls-35{fill:#17404b;}.cls-36{fill:#c56d31;}.cls-37{fill:#d27f42;}.cls-38{fill:#e07139;}.cls-39{fill:#d73f20;}.cls-40{fill:#be8405;}.cls-41{fill:#a99a80;}.cls-42{fill:#b0b5b5;}.cls-43{fill:#a7ab9e;}.cls-44{fill:#bbc8d2;}.cls-45{fill:#cdcfc9;}.cls-46{fill:#b57112;}.cls-47{fill:#9ca18a;}.cls-48{fill:#8b9086;}.cls-49{fill:#b4a860;}.cls-50{fill:#743316;}.cls-51{fill:#b55b27;}.cls-52{fill:#bab4a2;}.cls-53{fill:#31372c;}.cls-54{fill:#9a5a18;}.cls-55{fill:#9d4e20;}.cls-56{fill:#9f832e;}.cls-57{fill:#877ad8;}.cls-58{fill:#99a0a2;}.cls-59{fill:#65706d;}.cls-60{fill:#eceae4;}.cls-61{fill:#e7b583;}.cls-62{fill:#e79215;}.cls-63{fill:#fcddba;}.cls-64{fill:#fcb752;}.cls-65{fill:#fcc79b;}.cls-66{fill:#e99454;}.cls-67{fill:#f6a970;}.cls-68{fill:#f4f4f4;}</style><linearGradient id="Degradado_sin_nombre_60" x1="22.19" y1=".71" x2="25.22" y2="2.88" gradientTransform="translate(-4.66 7.94) rotate(-11.67)" gradientUnits="userSpaceOnUse"><stop offset="0" stop-color="#8c341a"/><stop offset="1" stop-color="#622411"/></linearGradient><linearGradient id="Degradado_sin_nombre_61" x1="28.14" y1="3.33" x2="31.36" y2="5.74" gradientTransform="translate(-4.66 7.94) rotate(-11.67)" gradientUnits="userSpaceOnUse"><stop offset="0" stop-color="#a0a49b"/><stop offset="1" stop-color="#161b19"/></linearGradient><linearGradient id="Degradado_sin_nombre_62" x1="18.49" y1="4.3" x2="18.24" y2="6.07" gradientTransform="translate(-4.66 7.94) rotate(-11.67)" gradientUnits="userSpaceOnUse"><stop offset="0" stop-color="#929f95"/><stop offset="1" stop-color="#6a8378"/></linearGradient><linearGradient id="Degradado_sin_nombre_63" x1="15.28" y1="11.77" x2="14.9" y2="15.56" gradientTransform="translate(-4.66 7.94) rotate(-11.67)" gradientUnits="userSpaceOnUse"><stop offset="0" stop-color="#5f2911"/><stop offset="1" stop-color="#964f23"/></linearGradient><linearGradient id="Degradado_sin_nombre_64" x1="13.69" y1="16.05" x2="13.78" y2="17.83" gradientTransform="translate(-4.66 7.94) rotate(-11.67)" gradientUnits="userSpaceOnUse"><stop offset="0" stop-color="#d68b51"/><stop offset="1" stop-color="#f9c796"/></linearGradient></defs><g id="Capa_1-2"><path class="cls-68" d="m1.33,7.47l.11,2.09s-2.68,3.94-.73,6.18,3.98,13.13,3.98,13.13c0,0,3.8-.04,6.6-.31s20.81-.6,22.27-1.22,1.48-1.04,1.3-2.91-2.08-16.19-3.59-17.89-6.42-4.91-8.33-4.08c-.48.21-2.57-2.78-5.68-2.45s-6.47,1.58-6.26,2.59S1.01,5.95,1.33,7.47Z"/><path class="cls-32" d="m22.27,26.36c.23-.01.45,0,.67-.01.12.18.42-.03.7.24.9-.15,4.78-.13,5.07-.2.13-.03.44-.23.37-.37.55-.08.92-.14,1.46-.3.85-.26,1.69-.72,2.35-1.33.06.3.09.63.11.93.33-.1,1.82-.66.8-.23-.51.22-1.04.4-1.57.58-3.11,1.03-4.35.76-7.47.91-2.45.11-4.89.21-7.34.29.02-.05.02-.13.04-.13.37-.21,4.05-.32,4.81-.36Z"/><path class="cls-16" d="m30.76,10.73c-.33.25-.6.24-.62.28.73,3.55,1.47,7.1,2.2,10.65.19.91.38,1.81.56,2.72-.65.61-1.5,1.07-2.35,1.33.08-.26-.06-.71-.13-1.03-.09-.38-.22-.74-.32-1.12.73-.18,1.48-.34,2.06-.87q-1.2-5.93-2.41-11.85c.38.11.62.02.99-.1Z"/><path class="cls-26" d="m23.46,24.12c0,.41-.53,1.36-.78,1.64-.15.16-.76.41-.31.44-.06.04-.16-.03-.1.15-.76.04-4.44.15-4.81.36-.01,0-.02.08-.04.13-.62.02-1.23.02-1.85.04-.64.02-1.29.04-1.93.06-.64.02-1.29.04-1.93.06l-.13-.14.37-.16c.22,0,.41-.06.46.07.04-.15.4-.09.72-.11.68-.03,1.37-.05,2.05-.09.3-.01,2.27-.04,2.37-.11.01,0,.08-.24.04-.33-.02-.05-.29-.13-.31-.25,1.35.04,2.33.28,3.63-.33.05-.02.93-.55.88-.65.04.12.74-.38.72-.61.18.07.13-.1.23-.13.03-.01.48-.03.73-.07Z"/><path class="cls-16" d="m11.57,26.75c.12,0,.25-.03.37-.03l-.37.16.13.14c-1.73.06-3.46.22-5.18.18-.17-.09-.24-.27-.25-.29,1.76.11,3.53-.08,5.29-.16Z"/><path class="cls-55" d="m23.29,25.98c1.94-.27,5.06-.02,6.79-.47.18-.05.38-.04.43-.15l-.1-.68c.07.32.21.77.13,1.03-.54.17-.91.22-1.46.3-1.95.28-3.98.2-5.94.3-.22-.3.07-.28.14-.33Z"/><path class="cls-26" d="m23.15,26.3c1.97-.1,3.99-.02,5.94-.3.08.15-.24.34-.37.37-.3.07-4.17.05-5.07.2-.29-.26-.59-.05-.7-.24.07,0,.14-.04.2-.04Z"/><path class="cls-50" d="m24.63,24.05l-.19,1.22c-.04.05-.97.58-1.14.7-.07.05-.37.02-.14.33-.07,0-.14.04-.2.04-.22.01-.45,0-.67.01-.06-.17.04-.11.1-.15.31-.18.97-.37,1.4-.71-.06-.43.19-.89.21-1.35.03,0,.16-.05.66-.09Z"/><path class="cls-55" d="m30.06,23.52c.01.05.05.03.05.03.09.37.23.74.32,1.12l.1.68c-.05.12-.25.1-.43.15-.02-.31-.12-.59-.18-.89-.07-.34-.14-.68-.21-1.01l.36-.08Z"/><path class="cls-25" d="m15.57,25.84c.22.57-.17.43-.39.76-.68.03-1.37.05-2.05.09.26-.33,1.14-.46,1.03-.93.46,0,.94.07,1.41.09Z"/><path class="cls-16" d="m17.27,25.91c.02.12.28.2.31.25.04.09-.03.32-.04.33-.1.07-2.06.09-2.37.11.22-.33.62-.19.39-.76.57.02,1.14.05,1.71.07Z"/><path class="cls-16" d="m23.88,24.12c.11-.01.08.02.09.02-.01.46-.27.92-.21,1.35-.42.34-1.09.53-1.4.71-.45-.04.16-.28.31-.44.25-.28.77-1.23.78-1.64.12-.01.3,0,.42,0Z"/><path class="cls-55" d="m6.48,26.66c.9,0,4.12-.16,5.07-.24l-.3.21.32.12c-1.76.08-3.53.27-5.29.16-.06-.06-.29-.23-.31-.29-.08-.18-.28-1.43-.39-1.89.28.42.17,1.95.73,2.01.11.01.15-.08.17-.08Z"/><path class="cls-51" d="m6.11,24.66l.37,2s-.07.09-.17.08c-.56-.06-.45-1.59-.73-2.01,0-.03-.01-.05-.02-.08.18,0,.37,0,.55.01Z"/><path class="cls-36" d="m6.91,24.66c-.4,1.25-.59,1.28.73,1.37.57.04,2,.01,2.43-.29.09-.06,1.03-1.32.63-1.36h.04c.25.21,1,.68,1.31.82.36.16,1.49.49,1.83.47v.04c-.13.02-.58.42-.88.52-.47.15-.98.13-1.46.18-.95.09-4.17.25-5.07.24l-.37-2c.29.01.51.01.8,0Z"/><path class="cls-66" d="m10.7,24.39c.4.04-.54,1.29-.63,1.36-.44.31-1.86.33-2.43.29-1.31-.09-1.13-.12-.73-1.37,1.27-.03,2.53-.18,3.79-.28Z"/><path class="cls-13" d="m13.89,25.72c.08-.02.19.03.26.03.11.47-.78.6-1.03.93-.32.02-.68-.04-.72.11-.05-.14-.24-.08-.46-.07-.12,0-.25.03-.37.03l-.32-.12.3-.21c.49-.04.99-.02,1.46-.18.3-.1.75-.5.89-.52Z"/><path class="cls-16" d="m23.51,5.34c-.19.02-.31.13-.46.22-.67.43-.69,1.24-.53,1.51l-.09-.04c.02.07.02.19.05.22h-.04s-.05-.17-.11-.22c-.75.19-1.47.51-2.23.67.12.09.28.08.43.12.22.06.44.13.67.16.09.49.25.96.38,1.44.09.33.48,2.03.61,2.16,0,0,0,.06.09.02-.12.03-.14.04-.23.13-.52.54.88,4.44,1.06,5.36-.35.53.39,1.35-.79,1.3-.06-.33-.15-.64-.24-.96.14-.06.08.19.15.22.36.16.07-1.23.04-1.32-.07-.3-.19-.62-.27-.92-.19-.63-.49-1.25-.69-1.89-.41-1.32-.71-2.69-1.28-3.96-.16-.29-.89-1.07-1.17-1.37-.36-.37-.81-.91-.81-.64,0-.01-.17-.21-.21-.21v-.04c.07-.01.12-.08.18-.12,1.39-.94,2.77-1.9,4.09-2.94l-.11-.13c.49.35,1.02.69,1.49,1.07.02.01.01.13.03.14Z"/><path class="cls-16" d="m29.73,7.39l.04.71c-.07-.24-.25-1.18-.63-1.01-.07.03-.74,1.27-.79,1.41-.21.7.05,1.52.04,2.23-.04.09-.08.07-.11.09-.03-.26-.78-.05-1.02,0,.08-.6-.11-2.62.17-2.95.21-.25.63-.29.84-.55,1.14-.46.32-.65.37-.88.58.09.9.41,1.09.96Z"/><path class="cls-2" d="m19.22,2.38c.33-.02,2.37,1.46,2.77,1.75l.11.13c-1.31,1.04-2.7,1.99-4.09,2.94l-1.21-3.22v-.09c.47-.23,1.43-1.06,1.75-1.25.16-.09.49-.26.66-.26Z"/><path class="cls-38" d="m16.96,3.1c.59-.11,1.02-.31,1.6-.46-.33.18-1.29,1.02-1.75,1.25v.09c-.13-.05-.25.01-.38.03-.87.15-2.99.03-4.16.35.29-.41.99-.67,1.4-1.01,1.08-.16,2.23-.05,3.29-.26Z"/><path class="cls-67" d="m16.87,2.86s.06-.04.09.23c-1.06.2-2.21.1-3.29.26l-.07-.32,3.26-.17Z"/><path class="cls-16" d="m3.91,9.3c0,.13,0,.29,0,.42,0,.04.05.14.01.17l-.65.05s.02-.09.02-.13c.2-.17.37-.39.61-.51Z"/><path class="cls-36" d="m25.84,23.97c.39,1.68,2.87.81,4.06.64.06.3.17.58.18.89-1.74.46-4.85.2-6.79.47.17-.12,1.1-.65,1.14-.7l.19-1.22c.4-.03.81-.05,1.21-.08Z"/><path class="cls-53" d="m28.56,12.58s-.46.19-.59.21c.3-.7.56-1.42.87-2.13.07-.17.12-.34.19-.5.77-1.7.46-.59.67.39-.2.26-1.06,1.95-1.14,2.03Z"/><path class="cls-53" d="m29.03,10.16c-.07.16-.12.34-.19.5-.23-.14-.18-.81-.3-1.23l.49.72Z"/><path class="cls-50" d="m28.28,10.82c-.23.11-.56.07-.8.12-.02,0-.08.1-.08.1-.14.03-.28.02-.41.04h.04c.42-.06.22-.13.24-.27.24-.05.99-.26,1.02,0Z"/><path class="cls-66" d="m29.53,23.63c.05,0,.11-.02.16-.03.07.34.14.68.21,1.01-1.2.17-3.68,1.03-4.06-.64,1.24-.1,2.47-.13,3.69-.34Z"/><path class="cls-66" d="m14.2,11.23c.67-.05,1.34-.05,2.01-.08-.12.09-.02.16.08.19l-.43.26.13.14c-.48,0-1.08.08-1.55.19-.29.07-1.09.32-1.28.47-.3.07-.55.21-.82.34-.3.14-.58.33-.87.48,0,0,.05-.11.17-.12.06-.07-.17-.04.18-.37.58-.56,2.19-1.15,2.04-1.48l.33-.03Z"/><path class="cls-55" d="m10.58,10.5s.09.04.24.12c.01,0,0,.09.02.1.22.12,1.4.29,1.69.31.75.04,1.89-.27,1.67.2l-.33.03c-.38.07-3.27-.16-3.36-.3-.05-.08-.11-.57.07-.46Z"/><path class="cls-33" d="m2.62,14.13c-.15.44-.23.5.19.38.69-.19-.12-.53.95-.62.02.1.04.2.06.3.08.09.17,0,.26.01l-.22.15c.61,2.37.96,4.79,1.48,7.18.08.35.33,1.03.41,1.39.05.22.35,1.61.28,1.66-.02.01-.45-.06-.53-.02-.63-2.71-1.35-6.36-1.88-9.12,0,0,.07-.05.07-.08-.06-.31-.22-.64-.24-.96-.11.05-.26.29-.31.34-.07.07-.18.18-.25.22-.36.15-.82-.16-.82.13-.19-.03-.25-.06-.42-.17.27.03.09-.15,0-.25-.03-.11-.05-.21.08-.23.06.09.27.17.37.18.12,0,.19.05.28-.08.18-.25-.1-.18-.13-.23-.01-.02.1-.03.07-.08.41-.27.3-.11.32-.11Z"/><path class="cls-32" d="m9.52,13.13l.08-.02c-.09.06-.13.06-.13.07-.07.1.24,1.27.32,1.46-.16.16-.27.37-.44.51.16-.51-.61-.1-.87-.14-.26-.83-.07-1.53-.66-1.36.58-.16,1.14-.36,1.71-.52Z"/><path class="cls-53" d="m9.83,13.02c.1.43.25.85.31,1.29-.12.11-.24.21-.36.33-.08-.19-.39-1.35-.32-1.46,0,0,.05,0,.13-.07.08-.06.13-.08.23-.09Z"/><path class="cls-33" d="m7.16,13.79c.22-.05.43-.07.65-.13.6-.16.41.53.66,1.36.27.04,1.03-.37.87.14-.1.34-1.34,1.64-1.08,4.2.06.57.18,1.12.34,1.66.19.63.48,1.17.82,1.73.36.59.79,1.18,1.31,1.63h-.04c-1.26.1-2.52.25-3.79.28-.29,0-.51.01-.8,0-.18,0-.37-.02-.55-.01,0-.04-.05-.03-.06-.07.09-.05.51.03.53.02.07-.04-.23-1.43-.28-1.66-.08-.36-.34-1.04-.41-1.39-.52-2.39-.87-4.81-1.48-7.18l.22-.15c.95.06,2.16-.22,3.08-.43Z"/><path class="cls-32" d="m5.89,21.79c.03.14.03.3.15.31.08.61,1.37.88,1.47.35.04-.22-.07-.36-.11-.55-.21-.85-1.35-3.04-1.34-3.21,0-.14.3-.08-.01-.27,0-.08.14-.08.21-.02.17.16,2.02,3.76,2.04,4.15.04.71-2.61.95-2.4-.75Z"/><path class="cls-60" d="m6.04,18.42c.31.19.02.13.01.27,0,.17,1.13,2.36,1.34,3.21l-.2-.13c-.31-.41-.47-.22-.82.11.02-.24.2-.41.41-.49.06-.08-.57-1.54-.66-1.77-.26-.61-.3-1-.64-1.05.17-.27.14-.41.56-.16Z"/><path class="cls-58" d="m6.12,19.63c-.43,0,.32,1.09.32,1.75-.13.06-.17.22-.27.31,0-.08.07-.25.07-.29,0-.03-.08,0-.09-.02-.17-.89-.4-1.91-.7-2.75.02-.05.03-.05.03-.05.34.05.38.45.64,1.05Z"/><path class="cls-17" d="m6.04,22.1c-.12,0-.12-.17-.15-.31-.09-.49-.57-2.74-.54-3.02.06-.05.15.14.16.16.13.4.59,2.42.62,2.79,0,.03-.11.2-.09.38Z"/><path class="cls-59" d="m6.17,21.69c.05.41.04.84.82.89.41.02.44-.17.39-.57-.01-.03-.08,0-.09,0-.02-.06-.06-.19-.09-.23l.2.13c.05.19.15.33.11.55-.1.53-1.39.25-1.47-.35-.02-.18.09-.35.09-.38-.03-.37-.49-2.39-.62-2.79,0-.02-.1-.21-.16-.16.01-.09.09-.14.1-.15.29.84.53,1.86.7,2.75,0,.03.08,0,.09.02,0,.03-.08.21-.07.29Z"/><path class="cls-42" d="m6.12,19.63c.09.22.72,1.69.66,1.77.03-.12-.27-.05-.34-.01,0-.67-.75-1.75-.32-1.75Z"/><path class="cls-34" d="m6.78,21.39c-.21.08-.39.24-.41.49.35-.32.51-.52.82-.11.03.05.07.17.09.23.09.25-.06.49-.31.57-.78-.04-.77-.48-.82-.89.1-.09.15-.25.27-.31.08-.04.37-.1.34.01Z"/><path class="cls-45" d="m6.99,22.58c.24-.09.39-.33.31-.57,0,0,.07-.03.09,0,.05.39.02.59-.39.57Z"/><path class="cls-32" d="m29.73,7.39c.08.22.05.52.19.72-.04,0-.78.1-.84.13-.03.01-.35.47-.29.53-.11,0-.32.13-.34.22-.1.58.48-.07,1.53.42,0,.12-.02.08-.02.09-.2-.19-.25.59-.24.66.11.81,1.27.27,1.03-.74,0-.4.36.12.36.33l-.28.88s0,.04-.06.1c-.37.12-.61.21-.99.1q1.2,5.93,2.41,11.85c-.58.53-1.33.69-2.06.87,0,0-.04.02-.05-.03-.75-3.11-1.18-6.3-1.98-9.4,0-.01.03-.22.03-.26.01-.1.1-.14.17-.2.21-.21.95-.43.29-1.07.09-.08.94-1.77,1.14-2.03-.21-.98.1-2.09-.67-.39l-.49-.72c.12.42.06,1.09.3,1.23-.31.7-.57,1.42-.87,2.13-.04.1.01.16-.05.18-.07-.11-.18-.3-.29-.36.27.01-.18-.92-.24-1.56,0,0,.06-.1.08-.1.24-.05.57-.01.8-.12.03-.01.07,0,.11-.09,0-.72-.25-1.53-.04-2.23.04-.14.71-1.38.79-1.41.38-.17.56.77.63,1.01l-.04-.71Z"/><path class="cls-53" d="m26.98,11.09c.13-.02.27-.02.41-.04.05.64.5,1.57.24,1.56-.42-.24-1.18-.04-1.48.31-.74.85.27,2.42,1.51,1.68.16.88.47,1.72.66,2.59.07.32.06.71.13,1.03.36,1.78.66,3.59,1.12,5.33.02.01.18-.06.19-.02.01.05-.23.02-.23.11-1.23.21-2.46.24-3.69.34-.4.03-.81.05-1.21.08-.5.04-.62.09-.66.09,0,0,.02-.03-.09-.02-.02-.05.12-.08.23-.09.14-.02.41,0,.47-.06.02-.01-.06-.2,0-.42.11,0-.18.58.48.39-.04-.75.07-2.2.01-2.79,0-.09-.12,0-.11-.15.24-.06-.04-.36-.07-.54-.08-.56-.14-1.13-.18-1.7-.23-.85-.73-2.25-.71-3.02.3-.19-.13-.33-.19-.72.29-.34-.05-.26-.06-.28-.09-.18-.69-2.22-.54-2.42-.07.41-.22-.61-.23-.71,0-.03.09-.02.07-.08,1.3-.17,2.63-.22,3.93-.43Z"/><path class="cls-33" d="m30.06,23.52l-.36.08c-.05.01-.11.02-.16.03,0-.09.24-.06.23-.11-.01-.04-.17.03-.19.02-.46-1.74-.76-3.55-1.12-5.33-.07-.32-.06-.71-.13-1.03-.19-.87-.51-1.71-.66-2.59.2-.12.16-.16.21-.21.07-.08.14-.16.2-.25.8,3.1,1.23,6.29,1.98,9.4Z"/><path class="cls-33" d="m22.27,11.6c.18-.05.41-.05.62-.09.02,0,.04.02.17,0,.02.06-.07.05-.07.08.01.11.16,1.12.23.71-.15.21.46,2.25.54,2.42.01.02.35-.06.06.28.06.39.49.53.19.72-.02.77.48,2.17.71,3.02.05.56.1,1.14.18,1.7.02.18.31.48.07.54,0,.14.11.06.11.15.05.59-.06,2.05-.01,2.79-.66.19-.37-.39-.48-.39-.06.22.02.41,0,.42-.07.05-.34.04-.47.06-.03-.97.17-1.98.15-2.97-.09-3.5-1.36-6.07-2.22-9.33.08-.09.11-.1.23-.13Z"/><path class="cls-26" d="m23.29,19c0,.31.05.68.03.99,0,.06-.1.08-.1.11,0,.01.09.22.09.23,0,.05-.1.02-.11.07-.02.07.1.05.1.06-.01.04-.11.01-.15.11-.27.81.11.58-.7.08,0-.06,0-.28,0-.42.01-.33.03-.69,0-1.02.37.08.67.18.84-.22Z"/><path class="cls-16" d="m23.29,19c-.17.4-.47.3-.84.22-.03-.27-.08-.55-.13-.82,1.17.05.44-.78.79-1.3.14.71.16,1.2.18,1.91Z"/><path class="cls-53" d="m1.63,14.68c.1.11.28.29,0,.25-.04-.02-.06-.03-.1-.06-.61-.48-.69-1.02-.35-1.7.06-.12.12-.19.19-.29.12-.17.22-.23.24-.26.46.07.06.22-.07.39-.41.58-.55.99-.11,1.61.11.07.18.06.18.07Z"/><path class="cls-33" d="m2.88,14.97c-.24.15-.26.13-.52.15-.13,0-.17,0-.3-.02,0-.28.46.02.82-.13Z"/><path class="cls-53" d="m3.03,11.81h-.04c-.35.08-.56.49-.89.7-.05.11-.14.39-.15.41-.24.43-.64.94-.23,1.53-.13.02-.11.12-.08.23,0,0-.07,0-.18-.07-.44-.62-.3-1.03.11-1.61.13-.18.53-.32.07-.39.44-.51.99-.92,1.39-1.47,0,.17.06.38.07.56,0,.02-.06.06-.06.12Z"/><path class="cls-34" d="m2.99,11.82c-.12.19-.3.32-.45.47-.19.19-.4.39-.55.62h-.04s.1-.3.15-.4c.34-.21.54-.63.89-.69Z"/><path class="cls-60" d="m3.02,12.19l-.44.13s-.04.02-.05-.03c.15-.16.33-.29.45-.47h.04c.03.51,0,.35,0,.37Z"/><path class="cls-13" d="m3.61,15.45c-.24-.14-.36-.46-.48-.7.05-.05.2-.29.31-.34.02.33.18.65.24.96,0,.03-.07.07-.07.08Z"/><path class="cls-55" d="m2.59,12.32c.21.05.18.25.09.45-.5.19-.73.92-.52,1.4.09.13.14.07.14.08.03.04-.08.06-.07.08.03.05.31-.03.13.23-.09.13-.15.09-.28.08-.46-.63-.4-.99-.08-1.63.1.35.49-.62,0-.04v-.04c.14-.23.35-.43.54-.62,0,.05.04.03.05.03Z"/><path class="cls-45" d="m1.99,12.91v.04s.02.03.02.04c-.32.65-.38,1,.08,1.63-.1,0-.31-.09-.37-.18-.41-.59,0-1.1.23-1.53h.04Z"/><path class="cls-16" d="m3.02,12.19c0,.06.09,0,.1.08.02.18-.04.43-.03.45-.05,0-.11.03-.16.03-.03,0-.1-.05-.25,0,.09-.2.12-.39-.09-.45l.44-.13Z"/><path class="cls-36" d="m2.01,12.99s0-.03,0-.04c.5-.57.11.39,0,.04Z"/><path class="cls-67" d="m21.31,13.53c-.51-.18-.99-.95-1.79-1.41-.86-.49-1.38-.44-1.78-.52-.27-.06-1.38-.23-1.45-.25-.1-.04-.2-.11-.08-.19.83-.04,2.93.08,3.46-.46.26-.27.32-.78.36-1.13.57,1.27.87,2.64,1.28,3.96Z"/><path class="cls-26" d="m18.05,7.56c.39.79,1.43,2.35,1.18,3.05-.85.33-5.88.28-7.04.19-.44-.04-.89-.13-1.33-.19.77-.1,1.62-.02,2.42-.04.82-.01,4.47-.1,4.83-.15.31-.04.67,0,.7-.4.02-.32-.83-1.95-1.04-2.36-.02-.04-.02-.07-.07-.11,0-.08-.03-.1.13-.2.05,0,.21.2.21.21Z"/><path class="cls-66" d="m21.31,13.53c.2.63.5,1.25.69,1.89-.09.05-.09-.08-.18-.26-.24-.48-.38-.64-.72-1.04-.58-.67-1.22-1.1-1.93-1.59-.25-.17-.46-.37-.72-.53-.32-.19-.77-.31-.7-.41.4.09.91.03,1.78.52.8.45,1.28,1.22,1.79,1.41Z"/><path class="cls-55" d="m19.1,12.63c.43.4.72.59,1.14,1.03.31.33.32.67.92.76.14.29.41.5.66.73.09.18.09.31.18.26.09.3.21.62.27.92-.15.06-.09-.19-.14-.25-.03-.04-.13.02-.15,0-.45-.44-.57-.92-.83-.84-.17-.3-.35-.59-.56-.86-.34-.45-.87-.95-1.29-1.34-.31-.29-1.23-.96-.21-.42Z"/><path class="cls-50" d="m18.86,8.2c.44.81.74,1.29.76,2.25-.12-.06-.1.06-.39.16.25-.71-.79-2.26-1.18-3.05,0-.28.45.26.81.64Z"/><path class="cls-1" d="m23.05,5.56c-.06.35,0,.05.21.08.1.02.69.45,1.99.31.75-.08,1.54-.27,2.12-.78.51.42.64.55.88,1.21-.38.51-1.34.79-1.97.91-.98.2-3.49.24-3.77-.24-.15-.26-.14-1.07.53-1.51Z"/><path class="cls-32" d="m26.29,7.3c.63-.13,1.59-.4,1.97-.91.13.02.26.03.39.05-.05.23.77.42-.37.88-.08.03-1.21.34-1.32.36-.82.15-3.43.13-4.18-.15-.17-.06-.24-.14-.35-.27h.04c.24.38,3.48.61,4,.33l-.18-.28Z"/><path class="cls-32" d="m27.37,5.18c-.58.5-1.38.7-2.12.78.14-.14.35,0,.27-.35.18-.04.81-.24.93-.32.53-.35-.12-.97.93-.11Z"/><path class="cls-30" d="m23.51,5.34c.56.46,1.3.41,2,.26.09.35-.12.22-.27.35-1.3.14-1.89-.29-1.99-.31-.2-.03-.27.26-.21-.08.15-.09.28-.21.46-.22Z"/><path class="cls-49" d="m16.6,1.95c.04.12.11.11-.06.14-.09,0-.29.05-.28.1-.29.02-.58.04-.88.05-.62.02-1.27-.09-1.9.01,0-.03-.04-.1,0-.13,1.03-.07,2.09.06,3.11-.18Z"/><path class="cls-62" d="m26.12,5.26s-.03-.1-.03-.12c.03-.15.16-.36-.24-.54.08-.24.7.1.73.25.04.22-.3.35-.46.41Z"/><path class="cls-62" d="m25.04,4.56c.4.64.67.84.07.96-.33.05-.46.03-.76-.01-.14-.27.03-.53.02-.72.28-.1.13-.15.67-.22Z"/><path class="cls-46" d="m25.68,4.59c.18.17.05.94.41.55,0,.03.02.08.03.12-.3.12-.69.2-1.01.25.6-.12.33-.32-.07-.96.09-.01.19-.05.26-.05.1,0,.28.07.38.09Z"/><path class="cls-62" d="m24.33,4.79c-.4.18-.49.57-.02.72-.14-.02-.58-.02-.64-.23-.06-.25.23-.31.25-.33,0,0,.01-.11.1-.15.18-.09.3-.02.31-.02Z"/><path class="cls-21" d="m25.85,4.6c.4.18.26.39.24.54-.36.39-.23-.38-.41-.55.03,0,.08-.03.17,0Z"/><path class="cls-13" d="m24.33,4.79s.03,0,.04,0c0,.19-.16.46-.02.72-.01,0-.03.01-.04,0-.47-.15-.38-.54.02-.72Z"/><path class="cls-33" d="m22.52,7.07c.28.47,2.79.43,3.77.24l.18.28c-.52.28-3.76.06-4-.34-.02-.04-.02-.15-.05-.22l.09.04Z"/><path class="cls-50" d="m22.27,16.33c.02.09.32,1.48-.04,1.32-.07-.03,0-.28-.15-.22-.22-.76-.53-1.49-.92-2.18.26-.08.38.4.83.84.01.01.11-.05.15,0,.05.05-.01.31.14.25Z"/><path class="cls-51" d="m20.03,9.57c-.04.36-.1.86-.36,1.13-.17-.18-.05-.11-.05-.24-.02-.96-.32-1.45-.76-2.25.28.29,1.01,1.08,1.17,1.37Z"/><path class="cls-67" d="m9.99,8.68c.15,1.02-.34,1.13.59,1.82-.18-.11-.13.38-.07.46.09.14,2.98.37,3.36.3.15.33-1.46.92-2.04,1.48-.35.33-.12.3-.18.37-.12,0-.16.11-.17.12-.12.11-.48.22-.5.44-.1.04-.14.08-.23.13-.31.19-.31.26-.32.28-.08.06-.26.2-.29.23-.06-.44-.21-.86-.31-1.29,0-.03.06-.1-.08-.6-.17-.58-.65-1.93-1.14-2.24-.17-.11-.33-.22-.57-.18-.15.03-1.97.91-1.32,1.29-.23.04-.39.22-.46.43-.08.26-.06.38.04.63.1.25.34.49.64.46l.2.97c-.92.21-2.14.49-3.08.43-.08,0-.17.08-.26-.01-.02-.1-.04-.2-.06-.3,0-.01.07-.04.04-.2,0-.03-.08,0-.09,0-.04-.26-.03-.92-.05-1.26,1.06.98,2.28.59,2.04-.99-.15-.98-.68-.39-2.04-.28,0-.21,0-.42-.04-.63,1.53.06,4.89-1.16,6.38-1.87Z"/><path class="cls-36" d="m3.48,10.53c.05,0,.07.01.13.02.04.2.04.42.04.63,0,.42-.01.85,0,1.27.01.34.01,1,.05,1.26-.56.31-.55-.37-.62-.97,0-.02.05-.27.03-.45,0-.09-.1-.02-.1-.08,0-.02.04.14,0-.38,0-.05.06-.1.06-.12,0-.18-.07-.39-.07-.56,0-.27-.04-.54-.04-.8.19.02.25.15.5.19Z"/><path class="cls-67" d="m3.29,9.81s-.05.09-.02.13c.11.12.58.02.76.01.48.44-.81.2-.56.58-.26-.04-.32-.17-.5-.19,0-.03.05-.1-.01-.27l.14-.22s.18-.03.18-.04Z"/><path class="cls-65" d="m3.67,12.44c-.02-.42,0-.85,0-1.27,1.37-.11,1.89-.7,2.04.28.25,1.59-.98,1.97-2.04.99Z"/><path class="cls-63" d="m10.07,8.24c-.02.14-.01.31-.08.44-1.49.71-4.85,1.93-6.38,1.87-.06,0-.08,0-.13-.02-.25-.38,1.03-.14.56-.58.95-.04,1.99-.22,2.9-.51.31-.1,1.14-.4,1.21-.67.68-.03,1.29-.3,1.92-.52Z"/><path class="cls-66" d="m9.83,13.02c-.1,0-.15.03-.23.09l-.08.02c-.01-.07-.03-.14-.04-.2-.1-.45-.27-.91-.41-1.35-.14-.46-.3-.93-.46-1.39.49.31.97,1.66,1.14,2.24.14.49.07.57.08.6Z"/><path class="cls-51" d="m8.62,10.19c.16.46.31.92.46,1.39-.43-.23.31,1.92.41,1.35.01.07.03.14.04.2-.57.17-1.13.37-1.71.52-.22.06-.43.08-.65.13l-.2-.97c.68-.06.92-.98.22-1.4-.14-.08-.28-.15-.45-.12-.65-.38,1.17-1.26,1.32-1.29.23-.04.39.07.57.18Z"/><path class="cls-60" d="m8.01,11.25c.47-.24.66.88.15.73-.26-.08-.36-.63-.15-.73Z"/><path class="cls-51" d="m9.07,11.58c.14.44.31.9.41,1.35-.1.57-.84-1.58-.41-1.35Z"/><path class="cls-36" d="m8.15,8.76c-.07.28-.9.57-1.21.67.23-.27.79-.32,1.02-.68h.19Z"/><path class="cls-39" d="m7.36,7.4s-.27.34-.65.52c-.32.02-1.25.44-1.33.44-.03,0-.63-.17-.66-.22-.07-.13-.03-.33.13-.39.52-.14,1.07-.21,1.61-.29-.84.75.22.17.48-.23.22.06.29.18.42.17Z"/><path class="cls-66" d="m6.95,7.24c-.27.39-1.32.97-.48.23-.54.08-1.09.15-1.61.29-1.01.27-.25.79.4.59l.02.08c-.52.02-1.42.47-1.48.09.05-.92,2.49-1.46,3.16-1.29Z"/><path class="cls-63" d="m4.86,7.75c-.16.05-.2.25-.13.39.03.06.62.23.66.22.08,0,1-.42,1.33-.44.01.05-.03.04-.03.05-.54.49-2.38.99-2.74.86-.02,0-.16-.15-.15-.31.06.38.96-.07,1.48-.09l-.02-.08c-.65.19-1.4-.32-.4-.59Z"/><path class="cls-32" d="m10.15,6.15c.23-.06.46-.07.7-.1-.31.53-.53,1.08-.67,1.66-.06.23-.04.29-.07.48,0,0-.02-.01-.03.05-.63.23-1.25.49-1.92.52h-.19c-.23.35-.8.41-1.02.67-.91.3-1.95.47-2.9.51-.19,0-.66.11-.76-.01l.65-.05s-.01-.12-.01-.17c.32-.03.64-.02.96-.07.52-.08,1.06-.19,1.52-.44.2-.11.63-.44.67-.67.05-.31-.47-.29-.37-.58,0,0,.05,0,.03-.05.38-.17.62-.49.65-.52.06-.04.13-.08.19-.12v.04q.13.58.25,1.16c.05.04.12.05.18.07.1.02.28-.03.37-.03.29-.02.58-.05.86-.14.13-.04.58-.19.61-.21.3-.2.06-1.18.07-1.39.01-.14.21-.45.13-.6.04-.01.08-.01.12-.03Z"/><path class="cls-28" d="m4.87,9.65c-.32.05-.64.04-.96.07,0-.13,0-.29,0-.42,0-.04-.03-.08-.03-.12.14.05,0-.02.15-.11.26.41,1.55.2,1.41-.33.01,0,.1-.05.19-.08.4-.21.13.63-.04.73-.21.12-.6,0-.73.28Z"/><path class="cls-32" d="m6.38,9.21c.07-1.03.09-.98-.75-.65-.03.01,0,.08,0,.09-.09.03-.18.08-.19.08-.3.1-1.3.21-1.37.24-.03.01-.04.09-.04.09-.14.09,0,.17-.15.11,0-.12.01-.23-.03-.35h.09c.35.13,2.2-.37,2.74-.86-.09.28.42.27.37.58-.03.22-.46.55-.67.67Z"/><path class="cls-53" d="m6.38,9.21c-.46.25-1,.36-1.52.44.12-.28.51-.16.73-.28.17-.09.44-.93.04-.73,0,0-.03-.07,0-.09.84-.33.82-.38.75.65Z"/><path class="cls-11" d="m5.44,8.73c.14.53-1.15.75-1.41.33,0,0,.01-.08.04-.09.06-.03,1.07-.14,1.37-.24Z"/><path class="cls-32" d="m19.04,1.27l.19,1.1c-.17,0-.5.17-.66.26-.58.15-1,.34-1.6.46-.03-.27-.09-.22-.09-.23-.04-.13-.09-.27-.12-.4-.03-.1-.04-.22-.07-.32.01,0,.02-.11.24-.18.71-.22,1.41-.46,2.12-.69Z"/><path class="cls-32" d="m15.39,2.24c-.78.06-.54.08-.83.47-.11.14.02.07-.11.19l-.85.09c-.02-.24-.16-.5-.11-.74.63-.1,1.28.01,1.9-.01Z"/><path class="cls-15" d="m14.55,2.71c.29.04,2.09-.1,2.19-.16.03-.02,0-.06,0-.09.04.13.08.27.12.4l-3.26.17v-.04q.42-.05.84-.09c.13-.12,0-.06.11-.19Z"/><path class="cls-56" d="m19.04,1.27c-.71.23-1.41.47-2.12.69-.22.07-.22.17-.24.18-.01,0-.03,0-.04,0,0-.02-.09-.06-.1-.06.17-.03.1-.02.06-.14l2.69-.98c.28.29-.03.23-.25.31Z"/><path class="cls-60" d="m15.39,2.24c.29-.01.58-.03.88-.05.13-.03.24,0,.37-.03.01,0,.03,0,.04,0,.03.11.04.22.07.32,0,.03.03.07,0,.09-.09.06-1.9.19-2.19.16.3-.38.06-.41.83-.47Z"/><path class="cls-12" d="m16.54,2.08s.09.05.1.06c-.13.04-.24,0-.37.03-.01-.05.19-.1.28-.1Z"/><path class="cls-33" d="m29.92,8.12c.39.03.99.51,1.15.86.14.31.19.61.15.94-.04.28-.21.53-.4.72l.28-.88c0-.2-.36-.73-.36-.33-.07-.27-.24-.47-.43-.67-.18-.19-.62-.51-.91-.4-.03.01-.46.4-.21.51-.13-.02-.26-.1-.4-.09-.06-.06.27-.51.29-.53.06-.03.8-.13.84-.13Z"/><path class="cls-54" d="m30.31,8.75c.19.2.37.4.43.67.24,1.01-.92,1.55-1.03.74-.01-.08.04-.86.24-.66.09,1.07.45.89.57.52.24-.75-.5-.96-1.03-1.1-.02-.06.2-.47.26-.48.04,0,.45.27.55.31Z"/><path class="cls-60" d="m28.79,8.77c.14-.01.27.07.4.09.08.01.23.04.31.06.02.06.38.18.47.24-.1.14,0,.12,0,.25-1.04-.5-1.63.15-1.53-.42.02-.09.23-.21.34-.22Z"/><path class="cls-32" d="m30.31,8.75c-.1-.04-.51-.31-.55-.31-.06,0-.28.42-.26.48-.08-.02-.23-.05-.31-.06-.25-.11.18-.5.21-.51.29-.11.73.22.91.4Z"/><path class="cls-44" d="m30.53,10.02c-.12.37-.48.56-.57-.52,0,0,.03.03.02-.09,0-.13-.11-.11,0-.25.38.25.47.2.56.86Z"/><path class="cls-12" d="m30.53,10.02c-.09-.65-.18-.6-.56-.86-.09-.06-.45-.18-.47-.24.53.14,1.27.35,1.03,1.1Z"/><path class="cls-63" d="m22.78,7.52c.75.28,3.36.3,4.18.15.04.09,0,.16,0,.25-1.8.14-3.59.07-5.39.1-.13-.01-.26-.03-.39-.05-.23-.03-.45-.1-.67-.16l2.26-.3Z"/><path class="cls-36" d="m21.57,8.02c.33,1.2.88,2.33,1.31,3.49-.21.03-.44.03-.62.09-.09.03-.08-.02-.09-.02.01-.12.18-.03.18-.04.09-.08-.45-1.99-.53-2.07,0,0-.22-.05-.26-.05-.13-.48-.29-.95-.38-1.44.13.02.26.03.39.05Z"/><path class="cls-66" d="m22.43,7.25c.12.12.18.2.35.27l-2.26.3c-.14-.04-.3-.03-.43-.12.76-.16,1.48-.49,2.23-.67.06.05.1.22.11.23Z"/><path class="cls-51" d="m22.18,11.57c-.13-.13-.53-1.83-.61-2.16.04,0,.25.04.26.05.08.08.62,1.99.53,2.07,0,0-.17-.08-.18.04Z"/><path class="cls-66" d="m28.28,7.31c-.2.26-.63.31-.84.55-.28.34-.1,2.35-.17,2.95-.02.14.18.21-.24.26.14-1.05-.03-2.11-.06-3.16,0-.09.03-.17,0-.25.11-.02,1.24-.33,1.32-.36Z"/><path class="cls-67" d="m26.96,7.92c.03,1.05.2,2.11.06,3.16h-.04c-1.3.22-2.63.27-3.93.44-.13.02-.15,0-.17,0-.44-1.16-.99-2.29-1.31-3.49,1.8-.03,3.6.04,5.39-.1Z"/><path class="cls-37" d="m27.63,12.6c.11.06.22.26.29.36l-.81.38c-.01-.05-.02-.11-.03-.16-.03-.08-.02-.19-.05-.24-.23-.47-1.04.01-.86.73.03.11.06.07.06.07.07.17.02.13.18.26.23.56.92.65,1.47.37-.05.05,0,.09-.21.21-1.24.74-2.25-.83-1.51-1.68.3-.35,1.06-.55,1.48-.31Z"/><path class="cls-55" d="m27.92,12.97s.05.11.07.15c.03.06.11.17.13.23,0,.01,0,.03,0,.04-.09.27-.16-.52-.45.28-.02.06.08.11.07.15,0,.01-.16.21-.16.24.04.44.3-.22.51-.21,0,.04-.02.25-.03.26-.06.09-.13.17-.2.25-.55.28-1.24.18-1.47-.37.08.06.55.27.61.21.06-.07-.12-.26-.09-.34.1-.24.39.38.19-.53l.81-.38Z"/><path class="cls-23" d="m28.56,12.58c.67.65-.07.87-.29,1.07-.16-.06-.09-.15-.14-.27,0-.01,0-.03,0-.04.45-.34.25-.81-.13-.23-.02-.04-.05-.12-.07-.15.06-.02,0-.07.05-.18.13-.02.55-.17.59-.21Z"/><path class="cls-50" d="m28.13,13.39c.05.11-.02.21.14.27-.06.06-.16.1-.17.2-.21,0-.47.65-.51.21,0-.03.16-.23.16-.24,0-.04-.1-.09-.07-.15.29-.8.36-.01.45-.28Z"/><path class="cls-67" d="m27.08,13.18s.02.11.03.16c.2.91-.09.29-.19.53-.03.08.16.27.09.34-.06.06-.53-.15-.61-.21-.16-.13-.11-.09-.18-.26.37-.08.58-.34.86-.56Z"/><path class="cls-63" d="m27.03,12.94c-.52.11-.61.68-.86.73-.17-.72.64-1.2.86-.73Z"/><path class="cls-67" d="m27.03,12.94c.03.06.02.17.05.24-.27.22-.49.47-.86.56,0,0-.03.03-.06-.07.25-.05.35-.62.86-.73Z"/><path class="cls-18" d="m28.13,13.35c-.03-.06-.1-.16-.13-.23.38-.59.58-.12.13.23Z"/><path class="cls-50" d="m19.23,10.62c.29-.11.27-.22.39-.16,0,.14-.12.07.05.24-.52.54-2.63.42-3.46.46-.67.03-1.34.03-2.01.08.22-.48-.92-.16-1.67-.2-.29-.02-1.48-.19-1.69-.31-.01,0,0-.09-.02-.1h.04c.44.05.89.15,1.33.18,1.16.1,6.19.14,7.04-.19Z"/><path class="cls-66" d="m16.8,3.97l1.21,3.22c-.06.04-.11.11-.19.12l-1.4-3.3c.12-.02.25-.08.37-.03Z"/><path class="cls-63" d="m12.27,4.36c1.17-.32,3.28-.2,4.16-.35l1.4,3.3v.04c-.15.1-.11.12-.12.2-.02.19.08.45.02.5-.05-.15-.08-.53-.12-.59-.11-.17-2.84.05-3.26.06-.61.01-3.84-.03-4.13.09-.03.01.03.19-.04.09.14-.59.37-1.13.67-1.66.2-.34,1.11-1.71,1.43-1.69Z"/><path class="cls-63" d="m17.73,8.05c-2.16.02-4.32.23-6.48.24-.32,0-.98.01-1.14-.1.03-.19.01-.25.07-.48.07.1.01-.08.04-.09.29-.12,3.51-.08,4.13-.09.43,0,3.15-.23,3.26-.06.04.06.07.43.12.59Z"/><path class="cls-3" d="m17.73,8.05c.06-.05-.04-.32-.02-.5.05.04.05.08.07.11.16.73.71,1.64,1.04,2.36-.03.39-.39.36-.7.4-.36.05-4.01.14-4.83.15-.8.01-1.65-.06-2.42.04h-.04c-.15-.08-.23-.1-.24-.11-.93-.69-.43-.81-.59-1.82.07-.13.06-.3.08-.44,0-.06.03-.05.03-.05.16.12.82.1,1.14.1,2.16-.01,4.32-.22,6.48-.24Z"/><path class="cls-27" d="m18.81,10.03c-.32-.73-.88-1.63-1.04-2.36.21.41,1.06,2.05,1.04,2.36Z"/><path class="cls-36" d="m17.74,11.6c-.07.09.38.22.7.41.26.15.48.36.72.53l-.06.1c-1.02-.54-.1.13.21.42-.54-.41-1.12-.75-1.75-.99-.52-.14-1.02-.31-1.57-.31l-.13-.14.43-.26c.07.03,1.17.19,1.45.25Z"/><path class="cls-33" d="m6.96,12.82c-.3.03-.54-.21-.64-.46,0,.02.26.34.2.13.42.68,1.27-.16.73-.78.21-.11,0-.12-.06-.28.7.42.46,1.34-.22,1.4Z"/><path class="cls-31" d="m6.73,11.3c.16-.03.31.04.45.12.07.17.26.17.06.28-.52-.59-1.1.18-.73.78.07.21-.19-.1-.2-.13-.08-.22.05-.5-.04-.63.07-.21.23-.39.46-.43Z"/><path class="cls-53" d="m6.31,12.36c-.1-.24-.13-.37-.04-.63.1.12-.04.41.04.63Z"/><path class="cls-32" d="m7.24,11.7c.55.63-.31,1.47-.73.78-.37-.61.21-1.38.73-.78Z"/><path class="cls-51" d="m21.1,14.12c-.09.42-.67-.78-.86-.46-.42-.44-.71-.63-1.14-1.03l.06-.1c.72.49,1.36.92,1.93,1.59Z"/><path class="cls-55" d="m21.1,14.12c.34.39.48.55.72,1.04-.24-.23-.51-.44-.66-.73-.6-.09-.61-.43-.92-.76.18-.32.76.88.86.46Z"/><path class="cls-17" d="m10.15,6.15s-.08.01-.12.03c-.47.16-.49.39-.58.46-.58.38-.4.06-.99.25-.3.09-.59.36-.9.44v-.04s.15-.2.16-.2c.68-.48,1.52-.74,2.27-1.1.11.06.09.08.16.18Z"/><path class="cls-56" d="m9.99,5.97c-.75.37-1.58.62-2.27,1.1-.37-.34,2.05-1.23,2.18-1.21.07,0,.08.11.09.11Z"/><path class="cls-53" d="m10.03,6.18c.08.14-.12.46-.13.6-.02.21.22,1.19-.07,1.39-.04.02-.49.17-.61.21-.09-.18.21-.13.3-.38.14-.38-.27-.93-.07-1.36.09-.07.12-.3.58-.46Z"/><path class="cls-28" d="m9.45,6.64c-.2.43.21.98.07,1.36-.09.25-.39.2-.3.38-.28.08-.57.12-.86.14-.34-.23-.72-.77-.37.03-.06-.01-.13-.02-.18-.07l-.24-1.16c.31-.08.6-.35.9-.44.59-.18.41.13.99-.25Z"/><path class="cls-53" d="m8.35,8.51c-.1,0-.27.06-.37.03-.35-.81.03-.26.37-.03Z"/><path class="cls-22" d="m8.05,7.35c.42-.08,1.23-.41.98.33-.18.54-.99.15-.98-.33Z"/><path class="cls-47" d="m9.78,22.8c.21.3.45.53.71.78.23.22.72.79.93.53.59.5.75.33.79.34.69.23,1.1.52,1.94.4.78-.11,1.13-.52,1.48-.39l.91-.82c-.18.28-.39.48-.1.36-.28.46-.75.72-1.22.93-.25.57-.45.27-.49.27-.32.03-1.36.21-1.53.19-.26-.03-1.22-.62-1.16-.18-.32-.14-1.06-.61-1.31-.83-.52-.45-.95-1.05-1.31-1.63l.35.05Z"/><path class="cls-45" d="m11.28,13.7c0,.17.31-.02.56-.03.25,0,1.4.17,1.57-.07.1.02.17.04.27.07.26.41-.06.13-.5.44-1.58-.34-3.25.47-3.96,1.92-.6.92-.82,2.2-.72,3.28l-.24.05c-.26-2.56.97-3.86,1.08-4.2.17-.15.29-.35.44-.51.11-.11.24-.22.36-.33.03-.03.21-.17.29-.23.27-.15.55-.29.85-.39Z"/><path class="cls-14" d="m8.8,20.72c.22.74.54,1.45.98,2.08l-.35-.05c-.34-.56-.63-1.1-.82-1.73l.19-.29Z"/><path class="cls-47" d="m8.51,19.3c.05.5.15.94.29,1.42l-.19.29c-.17-.54-.29-1.1-.34-1.66l.24-.05Z"/><path class="cls-32" d="m22.04,11.73c.86,3.26,2.13,5.83,2.22,9.33.02.99-.18,2-.15,2.97-.12.02-.25.04-.23.09-.12.01-.31-.01-.42,0-.25.03-.69.05-.73.07-.1.03-.04.2-.23.13.02.23-.68.73-.72.61.05.1-.83.62-.88.65-1.3.61-2.29.37-3.63.33-.57-.02-1.14-.05-1.71-.07-.47-.02-.95-.08-1.41-.09-.07,0-.18-.05-.26-.03v-.04c1.22-.06,2.28-.84,3.01-1.77.24-.3.27-.36.45-.69.52-.94.78-1.81.75-2.9-.02-.93-.24-1.77-.58-2.63.22-.2.14-.73.29-1.03.3.58.54,1.25.69,1.89.65,2.74-.26,4.05-.06,4.11.3-.47.51-1.54.56-2.12.08-.95-.09-1.8-.05-1.89.24-.6.28.37.29.4,0,0,.16.11.17.11,1.35.14.38-1.44.44-2.06,0-.03.31-.18.01-.55.3-.39-.07-.41-.07-.77.27.48.59,1.09.76,1.62.38,1.18.53,2.6.32,3.82-.13.75-.61,2.06-1.06,2.67-.24.33-.95,1.02-1.29,1.24-.42.28-1.21.48-.51.4,1.22-.13,2.49-.79,3.2-1.8.24-.19.35-.48.48-.73.06-.12.09-.21.14-.33.29-.64.53-1.32.6-2.03.81.5.43.73.7-.08.03-.1.13-.07.15-.11,0-.02-.12,0-.1-.06.01-.05.11-.02.11-.07,0-.01-.09-.22-.09-.23,0-.02.1-.05.1-.11.02-.3-.03-.68-.03-.99-.02-.71-.04-1.2-.18-1.91-.18-.92-1.59-4.82-1.06-5.36Z"/><path class="cls-33" d="m14.46,13.51c-.1.15.62.33,1.08.62.8.5,1.76,1.59,2.21,2.42.02.04.05.08.07.11-.15.3-.07.84-.29,1.03-.1-.25-.2-.5-.32-.74-.34-.66-.86-1.38-1.37-1.92-.64-.67-1.24-1.11-2.14-1.38-.1-.03-.17-.05-.27-.07-.65-.13-1.2-.16-1.86,0l-.8.21c.09-.05.13-.09.23-.13,1.07-.45,2.35-.45,3.47-.17Z"/><path class="cls-43" d="m13.45,12.49c0,.21.15.06.31.06.24.26,1.02.54,1.55.86.25.16.46.37.66.43-.04.04-.04.01-.07.08,0,0,.02.06-.05.18-.49-.29-.84-.46-1.39-.6-1.12-.29-2.4-.29-3.47.17.02-.22.38-.33.5-.44.3-.14.57-.33.87-.48.36-.11.72-.21,1.09-.27Z"/><path class="cls-11" d="m11.56,13.6s-.15.06-.28.1c-.3.1-.58.24-.85.39.02-.01.01-.09.32-.28l.8-.21Z"/><path class="cls-43" d="m16.68,23.87l.22.04c-.73.93-1.79,1.7-3.02,1.77-.34.02-1.47-.31-1.83-.47-.06-.44.9.16,1.16.18.17.02,1.21-.15,1.53-.19.04,0,.24.3.49-.27.48-.21.95-.47,1.22-.93.11-.04.13-.03.23-.13Z"/><path class="cls-33" d="m17.71,19.85c.04.53-.13,1.89-.31,2.39-.03.09-.07.19-.11.28-.17.38-.51.77-.74,1.13l-.91.82c-.36-.13-.71.29-1.48.39-.84.11-1.25-.17-1.94-.4-.04-.01-.2.16-.79-.34-.22.27-.71-.31-.93-.53-.06-.11.05-.19.04-.2-.02-.11-1.19-1.19-1.09-1.78.01.02.28.17.21.4.17,0,.39.59.7.95.38.23.74.48,1.12.72,1.22.77,2.46,1.45,3.87.6.88-.53,1.4-1.62,1.64-2.58.26-1.02.3-1.63.04-2.67-.15-.6-.45-1.32-.73-1.88-.12-.24-.32-.62-.47-.83-.12-.25-.21-.43-.27-.7.01.01.09-.05.34.2.21.61.6.8.65.88,0,0-.05.11-.06.14.85.7.87,2.54.98,2.89.05.17.11.3.24.14Z"/><path class="cls-24" d="m9.45,21.6c-.11.6,1.06,1.68,1.09,1.78,0,.01-.1.09-.04.2-.26-.25-.5-.48-.71-.78-.44-.63-.76-1.34-.98-2.08-.14-.48-.24-.92-.29-1.42-.1-1.08.12-2.36.72-3.28-.31,1.12-.6,1.79-.52,3,.06.89.28,1.52.57,2.34.07.06.13.16.18.24Z"/><path class="cls-11" d="m17.29,22.52c-.01.29-.45,1.19-.61,1.35-.1.1-.12.09-.23.13-.3.12-.08-.08.1-.36.23-.36.57-.74.74-1.13Z"/><path class="cls-32" d="m13.19,14.11c.39.08.98.4,1.31.62.28.18.81.64,1.07.88.07.27.16.45.27.7-.39-.55-1.51-1.44-2.17-1.58-.05-.01-.06.07-.09.06-.68-.4-1.62-.24-2.31.1-.71.35-1.19.92-1.52,1.63-1.15,2.43-.17,5.42,1.73,7.17-.38-.24-.74-.49-1.12-.72-.31-.37-.54-.95-.7-.95.07-.23-.2-.38-.21-.4-.04-.08-.1-.18-.18-.24-.29-.81-.51-1.45-.57-2.34-.08-1.22.22-1.89.52-3,.71-1.45,2.38-2.25,3.96-1.92Z"/><path class="cls-52" d="m15.83,15.04s-.26.14-.26.16c0,0,.04,0,.11.13-.42-.01-.6-.6-1.18-.6-.34-.22-.93-.53-1.31-.62.44-.31.76-.03.5-.44.91.26,1.5.7,2.14,1.38Z"/><path class="cls-52" d="m11.56,13.6c.66-.16,1.21-.14,1.86,0-.17.24-1.32.06-1.57.07-.25,0-.56.2-.56.03.12-.04.24-.09.28-.1Z"/><path class="cls-33" d="m18.57,14.18c.36.35.88.99,1.14,1.41,0,.01.03.11.08.19,0,.36.37.38.07.77.3.38,0,.52-.01.55-.06.62.91,2.19-.44,2.06-.01,0-.17-.1-.17-.11-.02-.04-.05-1.01-.29-.4-.04.09.13.94.05,1.89-.05.58-.26,1.65-.56,2.12-.2-.07.71-1.37.06-4.11.05.01.25-.19.25-.2.21-.51-.4-1.64-.65-2.13-.41-.79-.9-1.53-1.58-2.13,0,0,.01-.11.02-.13.17.07.28.22.41.34.87.86,1.45,1.79,1.87,2.93.87-.39,1.01-.39.58-1.26-.34-.71-1.31-1.89-1.9-2.44-.01-.01-.14-.03-.29-.15-.07-.06-.13-.24-.18-.28.4.17,1.23.79,1.53,1.08Z"/><path class="cls-11" d="m17.52,17.69c.34.86.56,1.7.58,2.63-.14.02,0,.24-.13.07-.09.49-.12,1.05-.25,1.55-.02.08-.15.25-.18.35l-.14-.06c.18-.5.35-1.86.31-2.39-.07-.96-.36-1.9-.78-2.76l.27-.14c.12.24.22.49.32.74Z"/><path class="cls-53" d="m18.11,16.22c.25.49.87,1.61.65,2.13,0,.01-.2.21-.25.2-.15-.63-.39-1.31-.69-1.89-.02-.04-.04-.07-.07-.11.33-.04.22-.42.36-.33Z"/><path class="cls-28" d="m18.11,20.32c.02,1.09-.23,1.96-.75,2.9-.17.09.05-.48.19-.93.03-.1.16-.27.18-.35.13-.5.16-1.06.25-1.55.12.17,0-.05.13-.07Z"/><path class="cls-22" d="m17.54,22.3c-.14.44-.36,1.02-.19.93-.18.33-.21.38-.45.69l-.22-.04c.16-.16.6-1.06.61-1.35.04-.09.08-.19.11-.28l.14.06Z"/><path class="cls-53" d="m15.85,14.11c.17.1.47.62.67-.01.68.59,1.17,1.34,1.58,2.13-.13-.09-.02.29-.36.33-.45-.83-1.42-1.91-2.21-2.42-.46-.29-1.18-.47-1.08-.62.56.14.9.31,1.39.6Z"/><path class="cls-22" d="m15.83,15.04c.51.54,1.03,1.26,1.37,1.92l-.27.14c-.52-1.05-1.11-1.52-1.25-1.77-.07-.12-.11-.12-.11-.13,0-.02.21-.16.26-.16Z"/><path class="cls-33" d="m13.18,12.42c.96-.23,1.87-.1,2.79.19l-.78-.09c-.09-.02-.17-.02-.26-.03-.5-.06-.98-.07-1.48,0-.37.06-.73.16-1.09.27.27-.13.52-.27.82-.34Z"/><path class="cls-14" d="m15.16,12.81c.24.16.39.1.5.17.12.08.57.58.82.68.1.12.05.15.05.26h-.63c.02-.06.03-.04.07-.07-.2-.07-.41-.28-.66-.43-.53-.32-1.31-.61-1.55-.86.71,0,.79-.07,1.41.26Z"/><path class="cls-43" d="m16.53,13.92s0,.03,0,.04c0,.02-.01.12-.02.13-.2.63-.5.12-.67.01.07-.12.04-.17.05-.18h.63Z"/><path class="cls-22" d="m14.92,12.48c.04.28.25.25.27.26,0,0-.05.06-.03.07-.62-.33-.69-.25-1.41-.26-.16,0-.3.15-.31-.06.5-.07.98-.07,1.48,0Z"/><path class="cls-33" d="m15.68,15.33c.15.25.73.72,1.25,1.77.42.86.71,1.8.78,2.76-.13.16-.19.03-.24-.14-.11-.34-.13-2.19-.98-2.89.01-.03.06-.13.06-.14-.05-.08-.44-.28-.65-.88-.25-.25-.32-.19-.34-.2-.26-.24-.79-.7-1.07-.88.59,0,.76.59,1.18.6Z"/><path class="cls-41" d="m17.04,19.02c.26,1.04.22,1.65-.04,2.67l-.09-.02c.12-.35.13-.85.13-1.21,0-.07,0-.14,0-.21-.02-.46-.08-.84-.14-1.28-.05-.38.01.08.14.06Z"/><path class="cls-53" d="m15.96,12.6c.2.06.4.12.59.22.21.1.29.13.48.28.06.04.12.22.18.28.14.12.27.14.29.15.59.55,1.56,1.73,1.9,2.44.42.87.29.87-.58,1.26-.42-1.14-1-2.07-1.87-2.93.04-.16.34-.11.38-.23.1-.35-1.07-1.16-1.36-1.24.23-.09-.64-.3-.79-.32l.78.09Z"/><path class="cls-11" d="m21.85,22.68c-.05.11-.08.21-.14.33-.17-.01-.4.62-.48.73-.71,1.01-1.98,1.67-3.2,1.8-.7.07.09-.12.51-.4.34-.22,1.05-.91,1.29-1.24.31-.04.89-.79,1-1.07.14-.35.28-1.54.05-1.6.2-1.22.05-2.64-.32-3.82.14-.11.75.41.82.49,1.1,1.3.23,4.15.39,4.74,0,0,.07.05.09.04Z"/><path class="cls-48" d="m21.32,16.02c.14.27.24.65.42.82.04.22.09.52.15.73,0,.03.08,0,.09.02.07.23.31,1.28.35,1.49,0,0-.06.13-.06.14.05.33.14.66.16,1,0,.15,0,.37,0,.42-.07.71-.31,1.38-.6,2.03-.02,0-.09-.04-.09-.04-.15-.59.71-3.44-.39-4.74-.07-.08-.68-.59-.82-.49-.17-.53-.48-1.14-.76-1.62-.05-.08-.07-.18-.08-.19.18-.27,1.19.28,1.61.43Z"/><path class="cls-28" d="m19.82,23.9c.44-.61.93-1.92,1.06-2.67.23.06.09,1.25-.05,1.6-.11.28-.7,1.04-1,1.07Z"/><path class="cls-48" d="m21.71,23c-.13.26-.25.55-.48.73.08-.11.31-.74.48-.73Z"/><path class="cls-45" d="m20.6,14.39c.21.27.39.56.56.86.39.69.69,1.42.92,2.18.09.32.18.63.24.96.05.27.1.55.13.82.03.33.01.68,0,1.02-.03-.34-.11-.67-.16-1,0,0,.06-.13.06-.14-.04-.21-.28-1.26-.35-1.49,0-.03-.08,0-.09-.02-.06-.21-.11-.51-.15-.73-.19-.17-.28-.56-.42-.82-.25-.49-.75-1.21-1.1-1.63.12-.19.14.03.38,0Z"/><path class="cls-60" d="m16,11.75c.54,0,1.04.17,1.57.31.63.25,1.21.58,1.75.99.42.39.95.89,1.29,1.34-.24.02-.26-.2-.38,0-.1-.12-.26-.24-.37-.35-.45-.47-.93-.95-1.54-1.2-.39-.16-1.76-.35-1.76-.02-.19-.09-.39-.15-.59-.22-.92-.29-1.83-.42-2.79-.19.18-.15.98-.41,1.28-.47.47-.11,1.07-.2,1.55-.19Z"/><path class="cls-45" d="m19.85,14.04c-.52.16-1.41-.12-1.28.14-.31-.29-1.13-.91-1.53-1.08-.19-.15-.27-.18-.48-.28,0-.34,1.37-.15,1.76.02.61.25,1.09.74,1.54,1.2Z"/><path class="cls-43" d="m19.85,14.04c.11.11.27.23.37.35.35.42.84,1.15,1.1,1.63-.42-.15-1.43-.7-1.61-.43-.26-.43-.77-1.07-1.14-1.41-.12-.26.76.02,1.28-.14Z"/><path class="cls-28" d="m15.18,12.51c.15.03,1.02.24.79.32.29.09,1.46.9,1.36,1.24-.03.11-.33.06-.38.23-.12-.12-.24-.27-.41-.34,0-.01,0-.03,0-.04,0-.11.05-.14-.05-.26-.25-.09-.7-.59-.82-.68-.11-.08-.26,0-.5-.17-.02-.01.03-.07.03-.07-.02-.01-.23.02-.27-.26.09.01.17.01.26.03Z"/><path class="cls-34" d="m15.17,16.11c.09.04.26.11.36.1.97.95-.02.03-1.13.66-.53.3-.31.8-.14.54,0,.05-.03.22-.03.26-.19-.04-.83,1.1-.91,1.31-.47,1.21-.14,2.37,1.13,2.83.48.17.83.19,1.32.02.39-.14.81-.55,1.04-.89-.28.58-.54,1.12-1.14,1.42-.07-.2-.74-.08-1.3-.24-.27-.08-.94-.46-1.17-.65-.3-.25-.66-.66-.84-1.01-.17-.33-.22-.45-.3-.83-.32-1.56.66-3.32,2.35-3.49.32-.03.91.2.78-.03Z"/><path class="cls-63" d="m11.28,14.88c.07.03.12.1.13.1.11,0,.6-.5,2.18-.2.03,0,.04-.07.09-.06.65.15,1.77,1.03,2.17,1.58.15.21.35.59.47.83-.13.02-.04.02-.02.13l-.91.19c.08.12.26.19.34.31.2.31,0,.68.2.95-.02.04-.18.06-.24.07-.19.03-.59-.38-1.19-.22-.06-.04-.14-.07-.2-.13,0-.12-.09-.53-.08-.79,0-.04.02-.21.03-.26.03-.19.15-.35.14-.54,1.11-.62,2.11.3,1.13-.66-.3-.3-.66-.54-1.06-.71-3-1.28-5.3,1.66-3.97,5.43.28.78.83,1.72,1.61,2.08-.52.04-.08.14-.27.31-1.64-.99-2.33-2.91-2.25-4.76.05-1.08.69-2.56.17-2.04.33-.71.81-1.28,1.52-1.63Z"/><path class="cls-67" d="m11.83,23.31c1.23.74,2.65.9,3.9.13.22-.14,1.2-.9.69-1.07.17-.12.42-.49.49-.69l.09.02c-.24.96-.77,2.05-1.64,2.58-1.4.85-2.64.17-3.87-.6-1.91-1.75-2.88-4.74-1.73-7.17.52-.52-.12.96-.17,2.04-.08,1.84.61,3.77,2.25,4.76Z"/><path class="cls-61" d="m13.58,14.79c-1.58-.3-2.07.19-2.18.2,0,0-.06-.07-.13-.1.68-.33,1.63-.5,2.31-.1Z"/><path class="cls-5" d="m15.52,16.2c-.1.02-.27-.05-.36-.1-.49-.22-.91-.41-1.46-.33-2.47.07-2.83,2.68-2.26,4.61.05.38-.31.3-.95.53-1.33-3.77.98-6.71,3.97-5.43.39.17.76.42,1.06.71Z"/><path class="cls-9" d="m12.11,23c.37.17.79.21,1.18.09.12-.04.81-.41.63-.51.5.06.85.07,1.34-.07-.19.42.94-.01,1.15-.15.52.17-.46.93-.69,1.07-1.25.78-2.67.61-3.9-.13.2-.17-.25-.27.27-.31Z"/><path class="cls-4" d="m11.87,21.23c.29.56.85,1.02,1.44,1.23.12.04.19,0,.21,0,.02,0-.09.07.41.13.18.1-.51.47-.63.51-.39.12-.81.07-1.18-.09-.79-.35-1.34-1.3-1.61-2.08.64-.23.99-.16.95-.53.07.25.24.65.43.84Z"/><path class="cls-66" d="m16.91,21.67c-.07.2-.32.58-.49.69-.21.14-1.34.57-1.15.15.16-.04.25-.09.39-.16.61-.3.86-.84,1.14-1.42.08-.16.21-.29.24-.47,0,.36-.01.87-.13,1.21Z"/><path class="cls-29" d="m15.17,16.11c.13.23-.45,0-.78.03-1.69.16-2.66,1.92-2.35,3.49l-.48.35c-.29-1.67.14-3.94,2.13-4.2.56-.07.97.11,1.46.33Z"/><path class="cls-7" d="m16.31,17.14c.28.56.58,1.28.73,1.88-.13.03-.19-.43-.14-.06-.07-.22-.89-.18-.97-.1,0,0,0,.21-.01.26-.19.09-.25-.02-.29-.19.03-.02.11.02.06-.14.06,0,.22-.03.24-.07-.19-.27,0-.64-.2-.95.74-.39.76.18.57-.5-.03-.11-.11-.11.02-.13Z"/><path class="cls-8" d="m16.29,17.27c.19.68.16.11-.57.5-.08-.12-.26-.19-.34-.31l.91-.19Z"/><path class="cls-67" d="m15.68,18.79c.05.16-.02.12-.06.14-.15.1-.28.08-.41.04-.17-.05-.46-.31-.66-.33-.01-.02-.05-.07-.06-.07.6-.16,1,.25,1.19.22Z"/><path class="cls-57" d="m14.39,16.86c0,.19-.11.35-.14.54-.17.26-.39-.24.14-.54Z"/><path class="cls-10" d="m16.9,18.97c.06.45.12.83.14,1.28-.16-.29-.07-.03-.15-.01-.59.13-.98-.41-1.28-.79.58.02.31-.22.31-.32,0-.05,0-.25.01-.26.08-.08.9-.13.97.1Z"/><path class="cls-64" d="m15.62,18.93c.04.18.1.28.29.19,0,.1.27.34-.31.32-.12-.15-.24-.3-.38-.43v-.04c.13.04.26.05.41-.04Z"/><path class="cls-19" d="m14.22,17.66c-.01.26.08.67.08.79,0,.09,0,.1.04.18-.27.45-.08.96-.08,1.05.04.72.1.86.12.97,0,.07-.1.48.07,1.15-1.28-.46-1.61-1.62-1.13-2.83.08-.21.72-1.35.91-1.31Z"/><path class="cls-21" d="m14.49,18.57s.05.05.06.07c-.26-.02.12.32-.29,1.03,0-.09-.19-.61.08-1.05-.04-.08-.04-.09-.04-.18.06.06.13.09.2.13Z"/><path class="cls-6" d="m15.6,19.44c.3.38.69.92,1.28.79.08-.02-.01-.28.15.01,0,.07,0,.14,0,.21-.04.19-.16.31-.24.47-.23.34-.65.76-1.04.89-.68,0-.07,0-.02-.1-.08-.18-.34-.64-.35-.69-.09-.28-.35-1.81-.16-2.02.15.13.26.28.38.43Z"/><path class="cls-40" d="m14.55,18.65c.2.02.49.28.66.33v.04c-.18.21.08,1.73.17,2.02.01.04.28.51.35.69-.05.09-.66.1.02.1-.49.17-.84.15-1.32-.02-.16-.67-.06-1.07-.07-1.15-.01-.11-.08-.25-.12-.97.41-.72.03-1.06.29-1.03Z"/><path class="cls-35" d="m12.04,19.63c.08.37.12.49.3.83-.14.61.58,1.49.96,2-.59-.21-1.15-.66-1.44-1.23-.04-.43-.23-.83-.3-1.25l.48-.35Z"/><path class="cls-27" d="m15.65,22.35c-.14.07-.23.12-.39.16-.49.13-.84.12-1.34.07-.49-.06-.38-.12-.41-.13.21-.21-.23-.71-.33-.99.23.19.9.57,1.17.65.56.16,1.23.04,1.3.24Z"/><path class="cls-20" d="m13.19,21.47c.1.28.54.78.33.99-.02,0-.09.04-.21,0-.38-.51-1.1-1.38-.96-2,.18.35.54.76.84,1.01Z"/><path class="cls-32" d="m13.7,15.78c-1.99.26-2.42,2.53-2.13,4.2.07.42.26.82.3,1.25-.18-.19-.35-.59-.43-.84-.57-1.93-.21-4.54,2.26-4.61Z"/></g></svg>