<?xml version="1.0" encoding="UTF-8"?><svg id="Capa_2" xmlns="http://www.w3.org/2000/svg" viewBox="0 0 43.97 31.02"><defs><style>.cls-1{fill:#4c535d;}.cls-1,.cls-2,.cls-3,.cls-4,.cls-5,.cls-6,.cls-7,.cls-8,.cls-9,.cls-10,.cls-11,.cls-12,.cls-13{stroke-width:0px;}.cls-2{fill:#5b626e;}.cls-3{fill:#383c48;}.cls-4{fill:#344729;}.cls-5{fill:#5a5f5f;}.cls-6{fill:#0a0907;}.cls-7{fill:#434441;}.cls-8{fill:#25282d;}.cls-9{fill:#c4c3bf;}.cls-10{fill:#d5d5d5;}.cls-11{fill:#b0b5ae;}.cls-12{fill:#fff;}.cls-13{fill:#696c67;}</style></defs><g id="Capa_1-2"><path class="cls-12" d="m12.08,2.93S17.7.37,18.82.42s6.37-1.43,8.94.91,2.38,3.06,1.72,3.69-8.21,1.25-6.71,4.29,21.54,11.36,21.19,12.47-3.8,2.36-6.57,3.41-26.59,6.14-27.82,5.81-5.9-5.91-7.14-8.76S-.87,16.63.4,12.95C2.3,7.42,12.08,2.93,12.08,2.93Z"/><path class="cls-6" d="m26.54,2.17s.76.34.15-.7-4.02-.33-4.02-.33c0,0-5.48.17-5.47.43s.5,1.19.5,1.19"/><path class="cls-6" d="m21.83,5.98l.12-.02s-.09,0-.12.02Z"/><path class="cls-6" d="m22.06,5.94l-.12.02s.09,0,.12-.02Z"/><path class="cls-6" d="m42.29,22.15c-1.38-1.32-8.08-5.41-9.71-5.92-6.2-2.45-2.9-.41-8.59-4.49-.89-.37-3.19-1.74-2.57-3.58.15-.28.34-.53.56-.77-.08-.57-.1-.66-.21-1.39,0-.02.03-.03.05-.04l-.23.04c.01.08.04.19.04.23-.01.09-.87,1.46-.95,1.47-.18.03-.19-.24-.4-.23.03.19.07.39.1.58.07.58.07,1.17.11,1.75-.08.17-.37.13-.63.19-1.43.35-3.29.61-4.77.85.08.46-1.86.32-1.66.81.31.19,1.54.83,1.65.92.03-.24.17-.57.29-.77,0-.01-.01-.14.05-.25,1.3-.13,4.98-1.11,5.68-1.12,1.47-.02,2.93,2.08,1.98,2.37.05.09.12.02.13.07,0,.02-.21.21-.01.27.04-.03-.14-.26.88-.27.53,0,2.6,1.04,2.84,1.42.17.27.15.47.06.74-.06.18-.26.4-.43.49-.49.25-5.66,1.78-6.53,1.98-1.27.29-2.53.51-3.83.57l-.22-.05c0-.2-.08-.25-.11-.31-.28-.54-.62-1.79-.88-2.43q-.09-.01-.18-.03c-.51-.12-1.25-.13-1.66-.44.9-.27,1.91-.72,2.81-.94,0-.26-.16-.31-.17-.33l-5.31,1.36q-.8-.59-1.6-1.17c-.05.09.05.08-.12.2-1.44.12-3.59.77-4.83.86-.53.04-.99.12-1.29-.39-.22-.37-.45-1.19-.57-1.64,0,0-.05.01-.1.11.28.55.73,3.88.85,4.05.1.15.33-.04.44.11.1.14.65,2.84.78,3.28.06.1,1.53.3,1.8.39.23.08.23.13.4.23.15.1.28.16.41.29.27.27.26.21.46.58.27-.24.56-.5.92-.57-.1-.47-.26-.93-.29-1.42,2.36-.56,4.73-1.24,7.08-1.92.28.04.61,1.21,2.63.7,1.09.7,2.26,1.7,3.05,2.73.83,1.08.76.81-.47,1.15-1.73.49-3.47.93-5.16,1.57q-2.61.7-5.22,1.4c-.17-.02-1.36-2.7-1.32-3.07-.12-.32-.15-.41-.24-.74-.25.15-.46.36-.69.53.91,2.56,1.89,5.1,2.99,7.59.11-.06.4-.12.52-.27,1.66-.2,5.47-1.2,6.61-1.27.06,0,.56.13.75.18.07-.12.4-.36.48-.38,1.96-.58,4.01-.91,5.98-1.47.41.47.68.73.86.86.73-.19,1.47-.38,2.2-.58,0,0,0,0,0,0,.04-.06.03-.19.11-.26.5-.06,1-.12,1.5-.19,3.34-.95,6.66-1.99,9.98-3.04,1.44-.62,1.54-.2,2.92-1.2Z"/><path class="cls-4" d="m6.26,26.03c.79-.91,3.58,4.06,4.12,3.75-1.1-2.49-2.08-5.02-2.99-7.59-.02.02-.09,0-.12.02-.27.19-.49.47-.84.56-.07,0-.36-.29-.45-.35-.13-.09-1.02-.69-1.02-.76q.43-.48.86-.95c-.28-.09-1.74-.29-1.8-.39-.13-.44-.68-3.14-.78-3.28-.1-.15-.33.04-.44-.11-.12-.17-.57-3.5-.85-4.05.05-.1.1-.1.1-.11.08-.16,1.21-1.21,1.45-1.56.38-.13.82-.08,1.2-.14.07-.48.2-.93.37-1.38.07-.19.06-.39.18-.57q1.23-.71,2.46-1.42c.95-.11,1.89-.26,2.84-.41-.05-.07-.09-.25-.11-.28-.07-.1-.27-.2-.28-.22-.02-.09.83-1.34.91-1.56.52-.07,1.04-.14,1.55-.2-.09-.29.03-.19.13-.32.16-.21,1.04-1.22,1.2-1.28,1.6.05,2.05-.55,2.59-.61.39.09.78.07,1.17.05l-.02-.12c-.06,0-.15.07-.25-.05.03-.38.32-.62.5-.95.11-.19.17-.22.07-.31-.05-.01-.39-.18-.39-.2.15-.1-1.42,1.06-2.29,1.07-2.46,1.07-3.35,1.45-5.93,3.18-3.79,2.54-6.93,4.41-8.34,7.91-.6,1.5,1.09,4.45,1.33,6.05"/><path class="cls-4" d="m28.35,3.2c-.06.04-.11.07-.17.11-.13.05-.27-.1-.49-.22-.07,0-.04.04-.05.07-.03.16-1.67.81-2.59,1.87-.91.45-2.47.68-2.99.91-.07.03-.25,0-.29.08.11.73.12.82.21,1.39,2.32-2.43,8.24-2.58,6.37-4.2Z"/><path class="cls-11" d="m13.43,11.67c-.56.06-2.82.66-3.04.62-.37-.06-.24-.92-1.14.55-.15.25-.27.53-.41.79,0,.02.03.1.02.12q.8.59,1.6,1.17l5.31-1.36c-.19-.33-.4-.71-.7-.96-.11-.09-1.34-.74-1.65-.92Z"/><path class="cls-8" d="m18.65,5.96c-.04-.25.87-.18,1.43-.39-.63-.02-1.57.37-1.66.12-.67.11-1.35.19-2,.39-.2-.03.11-.7-.12-.7-.08,0-1.14.94-1.32,1.06q-2.27.29-4.54.57s.06.21.11.28c1.13-.18,2.25-.43,3.39-.47l-3.15,3.19c-1.71-.31-3.51-.09-5.22.09.63.08,1.68-.02,1.77,0,.11.04-.18.3.41.47.47.14,1.72-.03,1.83,0,.14.04.1.19.13.22.11.17.1.38.32.49.54-.76,1.22-1.44,1.76-2.21.87-.09,1.77-.55,2.38.27,1.97-.51,4.01-.76,5.99-1.23.01,0-.02-.14.23-.04-.02-.19-.07-.39-.1-.58-.53,0-7.15,1.66-7.28,1.23q.9-1,1.79-2c1.3-.2,2.57-.53,3.86-.76Z"/><path class="cls-11" d="m22.95,12.55c.08.02.11.23.14.28.95-.29-.51-2.39-1.98-2.37-.7.01-4.38.99-5.68,1.12-.06.1-.04.24-.05.25.49.72.88,1.54,1.57,2.07.74-.22,5.71-1.44,6-1.35Z"/><path class="cls-8" d="m23.2,13.17c-.19-.06.02-.26.01-.27-.01-.05-.08.02-.13-.07-.03-.05-.06-.25-.14-.28-.3-.09-5.26,1.13-6,1.35-.69-.54-1.08-1.36-1.57-2.07-.12.2-.26.53-.29.77.29.25.51.64.7.96,0,.02.17.07.17.33.18-.05.58-.19.66-.17.04.01.54.65.36.72q-1.08.42-2.17.84.09.01.18.03,1.06-.38,2.12-.77s.12.1.14.1c.79-.18,5.62-1.19,5.89-1.33.05-.03.06-.13.07-.13Z"/><path class="cls-6" d="m21.6,6.01l.47-.08c.52-.23,2.09-.46,2.99-.91.92-1.05,2.57-1.71,2.59-1.87-.31,0-.58-.15-.87-.21-.24.18-1.65,1.15-1.75,1.19-.17.07-2.83.64-3.49.82-.02,0,.05.09-.34.12-.04.06-.06.15-.12.2-.88.14-1.77.3-2.65.44.09.25,1.03-.14,1.66-.12-.56.21-1.47.13-1.43.39.94-.17,1.89-.3,2.83-.47.06.03.1.42.12.52Z"/><path class="cls-8" d="m9.26,12.84c.9-1.46.76-.61,1.14-.55.22.04,2.48-.56,3.04-.62-.2-.49,1.74-.35,1.66-.81-1.75.28-3.5.59-5.27.69-.25.38-.65.82-.56,1.29Z"/><path class="cls-11" d="m15.96,13.89c-.9.22-1.9.68-2.81.94.41.31,1.15.32,1.66.44q1.08-.42,2.17-.84c.18-.07-.32-.71-.36-.72-.08-.02-.48.12-.66.17Z"/><path class="cls-11" d="m26.92,14.32c-.24-.38-2.31-1.42-2.84-1.42-1.02,0-.84.24-.88.27,0,0-.01.1-.07.13-.27.14-5.09,1.15-5.89,1.33-.01,0-.09-.07-.14-.1q-1.06.38-2.12.77c.26.64.6,1.89.88,2.43,2.44-.87,2.31-.24,2.45-.23.09,0,1.47-.4,1.75-.47,2.33-.57,4.58-1.4,6.92-1.98.09-.27.11-.47-.06-.74Z"/><path class="cls-1" d="m26.98,15.06c-2.33.58-4.58,1.41-6.92,1.98l-.04.49c.87-.2,6.04-1.73,6.53-1.98.17-.09.37-.31.43-.49Z"/><path class="cls-3" d="m18.32,17.51c-.13-.01,0-.65-2.45.23.03.06.11.11.11.31l.22.05c1.3-.06,2.56-.28,3.83-.57l.04-.49c-.27.07-1.66.48-1.75.47Z"/><path class="cls-9" d="m20.68,7.72l.16-1.91.79.44s-.03-.15-.04-.23c-.01-.1-.06-.49-.12-.52-.94.16-1.89.3-2.83.47-1.29.23-2.56.56-3.86.76q-.9,1-1.79,2c.13.42,6.75-1.23,7.28-1.23.21,0,.22.27.4.23Z"/><path class="cls-3" d="m20.84,5.81l-.16,1.91c.09-.02.94-1.39.95-1.47l-.79-.44Z"/><path class="cls-11" d="m11.78,9.07c-.54.77-1.22,1.44-1.76,2.21-.07.09-.13.17-.19.27,1.78-.1,3.52-.41,5.27-.69,1.48-.24,3.34-.5,4.77-.85q.14-.95.28-1.9c-1.98.47-4.02.72-5.99,1.23-.61-.81-1.51-.35-2.38-.27Z"/><path class="cls-2" d="m20.15,8.11q-.14.95-.28,1.9c.26-.06.55-.02.63-.19-.04-.58-.04-1.17-.11-1.75-.25-.1-.22.04-.23.04Z"/><path class="cls-11" d="m17.43,18.61c-2.02.5-2.35-.66-2.63-.7-2.35.68-4.72,1.35-7.08,1.92.04.49.19.95.29,1.42.03.13.03.28.07.41.09.33.12.42.24.74.27.71.72,1.34,1.24,1.89l9.68-2.26q.46-.05.91-.09c.07-.19.21-.42.32-.59-.79-1.03-1.97-2.03-3.05-2.73Z"/><path class="cls-3" d="m9.56,24.28c-.52-.55-.97-1.18-1.24-1.89-.04.37,1.15,3.06,1.32,3.07q2.61-.7,5.22-1.4c1.69-.64,3.43-1.08,5.16-1.57.21-.34.14-.54.15-.56q-.46.05-.91.09l-9.68,2.26Z"/><path class="cls-3" d="m20.16,21.93s.06.23-.15.56c1.22-.35,1.3-.07.47-1.15-.11.18-.25.4-.32.59Z"/><path class="cls-4" d="m7.09,21.82c.07.12.17.24.18.39.02-.02.1,0,.12-.02.23-.17.44-.39.69-.53-.04-.13-.04-.27-.07-.41-.37.07-.65.33-.92.57Z"/><path class="cls-6" d="m6.23,20.95c-.17-.11-.17-.16-.4-.23q-.43.48-.86.95c0,.06.89.67,1.02.76.4.07.32-.17.28-.47-.06-.55-.47-1.29-.05-1.01Z"/><path class="cls-13" d="m6.63,21.24c-.02.22-.14.66-.36.72.03.3.12.54-.28.47.08.05.38.34.45.35.35-.08.56-.37.84-.56-.01-.15-.12-.26-.18-.39-.2-.37-.19-.31-.46-.58Z"/><path class="cls-11" d="m6.23,20.95c-.42-.28-.01.46.05,1.01.22-.06.34-.5.36-.72-.13-.13-.26-.2-.41-.29Z"/><path class="cls-6" d="m18.2,4.27s.02,0,.04,0c-.01,0-.02,0-.04,0Z"/><path class="cls-6" d="m21.2,5.06c.39-.03.32-.11.34-.12-.1.11-.18-.95-.17-1.02,0-.03.33-.55.36-.57.24-.13,4.09-.61,4.54-.57.08-.21.38-.49.54-.33-.02,0-.02-.12-.28-.25l-4.96.94c-.79-1.44-2.67-.2-3.86-.38l.02.12c.46-.03,2.98-.25,3.18-.17,1.17.5-2.19,1.48-2.67,1.55,1.44-.17,1.46-.17,2.93-.34.06.03.22.83.04,1.13Z"/><path class="cls-7" d="m27.7,3.09c-.16-.09-.5-.42-.88-.63-.16-.16-.47.12-.54.33.03,0,.37.12.5.16.29.07.56.22.87.21,0-.02-.02-.06.05-.07Z"/><path class="cls-10" d="m18.23,4.27s-.02,0-.04,0c0,0,.02,0,.04,0Z"/><path class="cls-10" d="m21.2,5.06c.18-.3.03-1.1-.04-1.13-1.47.17-1.49.17-2.93.34-.02,0-.03,0-.04,0,.01,0,.03,0,.04,0,.48-.07,3.83-1.05,2.67-1.55-.19-.08-2.71.13-3.18.17-.4.03-.78.05-1.17-.05-.54.06-.99.66-2.59.61-.16.05-1.03,1.06-1.2,1.28l5.03-.32c-.26.08-.9.63-.95.61-.12-.05,0-.2,0-.21-.17-.13-3.72.19-4.21.25-.52.06-1.04.13-1.55.2-.08.21-.93,1.47-.91,1.56,0,.02.21.12.28.22q2.27-.29,4.54-.57c.18-.12,1.24-1.05,1.32-1.06.23,0-.08.67.12.7.65-.2,1.33-.28,2-.39.88-.14,1.77-.29,2.65-.44.06-.05.08-.14.12-.2Z"/><path class="cls-11" d="m10.56,7.3c-.94.15-1.89.3-2.84.41q-1.23.71-2.46,1.42c-.12.17-.1.38-.18.57.04.55.1.35.48.4,1.71-.17,3.52-.39,5.22-.09l3.15-3.19c-1.15.04-2.27.29-3.39.47Z"/><path class="cls-6" d="m7.34,10.11c-.08-.03-1.14.07-1.77,0-.38-.05-.44.15-.48-.4-.17.45-.3.9-.37,1.38,1.01-.16,2.04-.22,3.03-.5-.59-.17-.29-.43-.41-.47Z"/><path class="cls-8" d="m12.64,5.04c.49-.06,4.04-.38,4.21-.25,0,0-.12.16,0,.21.05.02.69-.52.95-.61l-5.03.32c-.1.13-.21.03-.13.32Z"/><path class="cls-11" d="m12.61,14.86c-1.18,1.02-2.69.24-3.89-.37-1.36.39-4.01.72-5.18,1.1.28.68,1.21,3.49,1.83,3.65.2.05,3.6-.6,4.17-.69,1.84-.3,3.67-.61,5.5-.97.11-.07-.43-1.62-.49-1.69-.07-.09-1.69-.95-1.94-1.03Z"/><path class="cls-3" d="m5.38,19.23c-.62-.15-1.56-2.97-1.83-3.65-.11.03-.22,0-.28.14.51,1.37,1,2.76,1.83,3.98.58-.24,4.26-.85,4.45-.97.05-.03,0-.13,0-.18-.57.09-3.96.74-4.17.69Z"/><path class="cls-11" d="m24.21,25.45c-.07-.05-.14-.15-.21-.2-.39-.28-1.46-.71-1.25-.87,1.08-.47.9-.14,1.66.44.57.44,1.16.88,1.72,1.33q6.1-1.67,12.2-3.33s.13-.05.09-.16c-.05-.18-.63-1.17-.8-1.57-.65.09-1.02.27-1.57.26q-1.22.11-2.45.23-.25-.71-.5-1.41s-.37-.07-.62.04c-.15.07-.83.91-2.93,1.44,1.04.66,1.07.54-1.11.9-.01,0-.12.14-.21.16-.18.03-1.07-.06-1.38-.01-1.62.26-3.27.56-4.67,1.43-1.11-.87-1.31-.95-2.7-.75-2.25.33-1.94,1.01-2.22,1.08-.46-.28-.83.12-1.22.2-.83.16-2.36.23-2.98.43-.2.07-.79.54-.86.56-.19.06-1.01.02-1.78.29q.52,1.5,1.04,3c1.82-.58,11.96-2.61,12.54-2.91.08-.04.22-.45.23-.58Z"/><path class="cls-3" d="m10.06,26.03c.06.4.84,3.01,1.01,3.04q.18-.06.37-.12-.52-1.5-1.04-3c-.08.03-.31.02-.34.09Z"/><path class="cls-11" d="m29.58,20.08c.64-.73,2.24-1.07,3.04-1.7-.07-.27-.06-.47-.18-.75q-.95-.68-1.9-1.36c-.84-.21-1.83-.01-2.96-.35-1.28.55-2.66.8-3.9,1.42-.75.07-3.88,1.04-4.24,1.3.52.37,2.65,3.03,2.99,3.04,2.27-.48,4.92-1.63,7.16-1.6Z"/><path class="cls-3" d="m32.62,18.38c-.8.63-2.4.97-3.04,1.7-2.24-.03-4.88,1.12-7.16,1.6-.34-.01-2.46-2.67-2.99-3.04-.16.11-.1.24-.24.37q1.52,1.89,3.05,3.78c3.66-.75,7.22-1.92,10.68-3.29-.01-.4-.2-.75-.3-1.12Z"/><path class="cls-1" d="m30.54,16.27q.95.68,1.9,1.36c-.26-.57-1.31-1.21-1.9-1.36Z"/><path class="cls-3" d="m38.45,23.22c0-.28-.12-.38-.13-.4q-6.1,1.67-12.2,3.33c.15.12.32.24.43.41,1.91-.58,3.85-.95,5.77-1.49,2.14-.6,3.89-1.31,6.13-1.85Z"/><path class="cls-3" d="m40.28,21.63c-.73-.98-1.61-.69-2.66-.55.17.4.75,1.39.8,1.57.03.12-.09.16-.09.16,0,.02.12.12.13.4,1.57-.38,2.87-.18,1.83-1.59Z"/><path class="cls-3" d="m35,19.9c-.65.04-1.26.13-1.9.25q.25.71.5,1.41,1.22-.11,2.45-.23c-.21-.52-.69-.98-1.05-1.44Z"/><path class="cls-3" d="m26.55,26.56c-.1-.17-.28-.29-.43-.41-.56-.46-1.14-.9-1.72-1.33-.23.12-.42.15-.41.43.07.05.14.15.21.2.57.44,1.01.92,1.52,1.42.27-.12.54-.23.82-.31Z"/><path class="cls-8" d="m24.41,24.82c-.76-.58-.58-.91-1.66-.44-.21.16.86.59,1.25.87,0-.27.18-.31.41-.43Z"/><path class="cls-11" d="m9.57,10.58c-.11-.03-1.36.14-1.83,0-.99.29-2.02.34-3.03.5-.39.06-.82.01-1.2.14-.24.35-1.37,1.39-1.45,1.56.12.45.35,1.28.57,1.64.82-.18,5.26-1.14,5.54-1.09.17.03.27.48.48.16.08-.12.58-2.19,1.05-2.69-.02-.03.01-.18-.13-.22Z"/><path class="cls-3" d="m8.85,13.63q-.1-.07-.2-.15c-.21.32-.31-.13-.48-.16-.28-.04-4.72.91-5.54,1.09.31.5.76.42,1.29.39,1.24-.08,3.38-.74,4.83-.86.16-.12.07-.11.12-.2,0-.02-.03-.1-.02-.12Z"/><path class="cls-5" d="m9.7,10.79c-.47.5-.97,2.57-1.05,2.69q.1.07.2.15c.14-.26.26-.54.41-.79-.09-.47.31-.91.56-1.29.06-.1.13-.18.19-.27-.21-.1-.21-.32-.32-.49Z"/><path class="cls-10" d="m25.03,4.13c.1-.04,1.51-1,1.75-1.19-.13-.03-.48-.15-.5-.16-.45-.04-4.3.44-4.54.57-.03.02-.35.53-.36.57-.02.07.07,1.13.17,1.02.65-.17,3.32-.75,3.49-.82Z"/><path class="cls-10" d="m23.01,1.35c-1.1.55-2.67.98-.62.07.12-.52-4.11.16-4.43.34-.18.33-.48.57-.5.95.1.12.19.04.25.05,1.19.18,3.07-1.06,3.86.38l4.96-.94s0-.02,0-.03c-.76-.35-1.53-.64-2.3-.86-.44.01-.81.02-.93,0,.21-.02.43-.05.64-.07-.16-.04-.32-.08-.49-.12-.12.07-.26.14-.45.24Z"/><path class="cls-10" d="m26.41,1.27c-.09-.05-1.28.02-2.17.04.78.22,1.55.51,2.3.86.04-.19-.08-.88-.13-.9Z"/></g></svg>