<?xml version="1.0" encoding="UTF-8"?><svg id="Capa_2" xmlns="http://www.w3.org/2000/svg" xmlns:xlink="http://www.w3.org/1999/xlink" viewBox="0 0 38.09 33.84"><defs><style>.cls-1{fill:url(#Degradado_sin_nombre_194);}.cls-1,.cls-2,.cls-3,.cls-4,.cls-5,.cls-6,.cls-7,.cls-8,.cls-9,.cls-10,.cls-11,.cls-12,.cls-13,.cls-14,.cls-15,.cls-16,.cls-17,.cls-18,.cls-19,.cls-20,.cls-21,.cls-22,.cls-23,.cls-24,.cls-25,.cls-26,.cls-27,.cls-28,.cls-29,.cls-30,.cls-31,.cls-32,.cls-33,.cls-34,.cls-35,.cls-36,.cls-37,.cls-38,.cls-39,.cls-40,.cls-41,.cls-42,.cls-43,.cls-44,.cls-45,.cls-46,.cls-47,.cls-48,.cls-49,.cls-50,.cls-51{stroke-width:0px;}.cls-2{fill:#758e55;}.cls-3{fill:#54584e;}.cls-4{fill:#5e7433;}.cls-5{fill:#4d6b36;}.cls-6{fill:#4d5f28;}.cls-7{fill:#35451e;}.cls-8{fill:#2c3327;}.cls-9{fill:#4a4b44;}.cls-10{fill:#56545f;}.cls-11{fill:#596060;}.cls-12{fill:#292d28;}.cls-13{fill:#5a684e;}.cls-14{fill:#646266;}.cls-15{fill:#88878c;}.cls-16{fill:#6e7176;}.cls-17{fill:#87957e;}.cls-18{fill:#94ac6b;}.cls-19{fill:#313137;}.cls-20{fill:#3b3d3a;}.cls-21{fill:#3c4742;}.cls-22{fill:#45454b;}.cls-23{fill:#374630;}.cls-24{fill:#1d3226;}.cls-25{fill:#1d2012;}.cls-26{fill:#405731;}.cls-27{fill:#42494c;}.cls-28{fill:#23320b;}.cls-29{fill:#1f361e;}.cls-30{fill:#101911;}.cls-31{fill:#131217;}.cls-32{fill:#171f08;}.cls-33{fill:#24222b;}.cls-34{fill:#c4c6b6;}.cls-35{fill:#acba83;}.cls-36{fill:#aeb4af;}.cls-37{fill:#a9a8af;}.cls-38{fill:#a8b59d;}.cls-39{fill:#cdcad1;}.cls-40{fill:#9da2a5;}.cls-41{fill:#b9b9bb;}.cls-42{fill:#8f9d5f;}.cls-43{fill:#65814c;}.cls-44{fill:#9ca595;}.cls-45{fill:#818a85;}.cls-46{fill:#98949b;}.cls-47{fill:#fff;}.cls-48{fill:#e3e4e6;}.cls-49{fill:#f0ede0;}.cls-50{fill:#6a745d;}.cls-51{fill:#050604;}</style><linearGradient id="Degradado_sin_nombre_194" x1="25.24" y1="5.24" x2="11.93" y2="30.42" gradientUnits="userSpaceOnUse"><stop offset="0" stop-color="#7f974d"/><stop offset="1" stop-color="#4c5f28"/></linearGradient></defs><g id="Capa_1-2"><path class="cls-47" d="m14.97.26s-6.43,1.29-8.01,3.76S0,12.03,0,18.74c0,3.28,1.78,8.25,4.25,10.48s10.11,5.06,14.12,4.57,9.67-1.09,12.26-3.92,9.22-9.83,7.04-18.28S25.64.5,20.91.14s-5.95.12-5.95.12Z"/><path class="cls-1" d="m36.74,12.98c0,7.2-2.82,13.57-8.93,17.7l-5.86,1.52c-1.38.36-2.8.49-4.22.38l-2.79-.2c-1.02-.07-2.04-.26-3.02-.55-1.57-.47-3.84-1.14-3.84-1.14-1.77-1.43-3.2-3.29-4.62-4.87-1.52-1.82-2.23-4.01-2.3-6.31-.1-3.11.98-6.4,2.81-9.24.14-.21.28-.42.42-.62,1.49-1.86,2.42-3.9,4.09-5.39.99-.99,2.25-1.46,3.49-1.95h0s.42-.16.42-.16c3.8-1.4,7.96-1.52,11.84-.34l1.6.49c4.98,1.86,11.09,4.66,10.91,10.69Z"/><path class="cls-51" d="m8,16.67c.79.24,1.93.18,2.48-.53.44-.22.79-.23.86-.53.09.13.4.09.52,0,0,.37-.7.24-.31.4-.24.28-.55.48-.84.71-.28.22-.56.43-.84.65-.21.17-.46.3-.65.5-.31.11-.59.31-.92.38,0-.53-1.28-.44-.93-.27.12.06.68.14.9.31-.07.07-.42.17-.46.27-.03.07.09.06.08.1-.12.37-.27.72-.31,1.11-.18,2.05,1.18,2.92,2.06,4.5,1.44,1.31,3.82,2.71,5.78,2.8.12-.04.17-.12.25-.19.29-.26.24-.44.38-.8.01-.03.02-.13.04-.15.15.03-.09.34-.04.74.01.02.32,0,.27-.36.06-.06.11.02.15,0,.02-.01.15-.17.15-.19.08-.29-.14-.24-.27-.42.16-.15.22-.35.31-.53.22.2.39.48.53.02.08-.26-.11-.1-.38-.32,0-.01,0-.1.04-.23.11-.02.56.12.59.11.04,0,.14-.16.17-.19.24-.22.45-.5.69-.72.17-.16.4-.29.57-.46.03.32-.2.78-.23,1.09-.08,1,.6,1.43.88,2.29,1.91,1.33,2.99.23,3.83,1.01h.27c.62-.33,1.29.04,1.85-.31.03,0,.05,0,.08,0,.14.15-.03.12.04.19.09.09.89.31.38-.11.05-.04.1-.14.11-.15l.99.46s0,.07-.04.11c-.16.19-.7.64-.74.15v.38c-.2-.07-.95.6-1.03.61-.4-.19-1.18-.58-.36-.06-.16.08-.33.14-.5.21-.11-.03-.27-.33-.32-.34-.06,0-.43.23-.53.27l.74.15c-.9.39-1.11.29-1.16.31-.61.17-1.26.56-1.91.34-.74.45-1.25.09-1.45.11-.18.02-.79.74-1.26-.08l-1.13.69c-.28,0-.56,0-.84,0-.56-.19-.53-.62-.74-.8-.1-.08-.27.04-.74-.76l-.86.19c-.1-.08-.13-.2-.17-.31-.01-.03,0-.12,0-.17l-.1-.02c-.32.29-1.42.92-1.77.95-.71.07-2.65-1.22-3.22-1.72-.7-.6-1.57-1.7-2.12-2.46-.75-1.05-1.51-1.88-1.37-3.22.07-.68.25-1.16.72-1.66-.05-.06-.15-.13-.15-.13-.17-.21-.23-.19-.23-.21,0-.02.3-.36.32-.36.21-.05.32.38.97-.44-.58-.2.03-.56-1.22-.31.05.24.94.07.92.27-.55.53-1.29.57-1.14-.11,0-.02.16-.14.15-.15-.03-.04-.13,0-.15-.04-.02-.04.02-.25,0-.32-.1-.38-.37-.58-.38-.67-.01-.11.07-.11.08-.17,0-.05.1-.13.08-.25-.02-.11-.87-1.01-.92-2.08-.04-1.01.35-1.14.88-1.87,0,0,.03,0,.04,0,.22.72.07.89.57,1.55.86,1.12,1.43,1.01,1.97,1.16.06.02.05.11.06.11Z"/><path class="cls-6" d="m15.94,30.68c-2.62,0-5.24,0-7.86,0-1.77-1.43-3.2-3.29-4.62-4.87-1.52-1.82-2.23-4.01-2.3-6.31.06,0,.16,0,.3-.04.72,1.08,1.2.14,1.2,1.01.72.46.31,1.73.63.63.76.21.48-.1.55-.32.18-.54.46.09.65-.19.16-.23-.14-.55.36-.74.05-.02.24.02.27,0,.19-.13-.38-.38-.13-.86-.64-1.11-1.47-2.13-1.11-3.51.18-.23.37-.47.53-.71.2.15-.1.27-.11.29-.32.54-.27,1.14-.12,1.72.09.32.99,2.21,1.45,2.12.02.08-.02.28,0,.33.02.04.12,0,.15.04,0,.01-.15.13-.15.15-.15.69.59.64,1.14.12.03-.2-.86-.02-.91-.27,1.25-.26.64.11,1.22.3-.66.82-.76.39-.97.44-.02,0-.32.33-.32.36,0,.01.06,0,.23.21-.85.75-1.26,1.91-1.07,3.03.2,1.17,2.6,4.38,3.57,5.17.48.39,2.38,1.47,2.94,1.49.7.02,1.97-.88,2.58-1.26.04.11.07.23.17.31q.43-.1.86-.19c-.01.65.68.99.88,1.56Z"/><path class="cls-4" d="m14.98,2.38v.56c-1.05-.75-2.33.07-2.89-.65h-.12c-1.25.49-2.5.96-3.49,1.95-1.67,1.49-2.6,3.53-4.09,5.39-.14.2-.28.41-.42.62.14.02.27-.05.36.09.46-.31.52.86.69.27.23,0,.25.11.46.19.43-.11.37-.76.75-.84.09-.16.11-.15.11-.15.58-.93.79-.78,1.15-1.11.02-.02.27-.33.34-.42.07-.08.11-.2.19-.27,0,0-.07-.03-.11-.06q.06-.42.11-.84c.21-.17.42-.36.61-.55.09-.09.11-.08.19-.15.13-.12.3-.21.3-.23.03-.05-.2-.17.67-.96.07-.02.09.03.13.04-.06-.17.03-.1.04-.12.3-.37.35-.22.46-.19.09-.08.21-.21.3-.27.14-.33.36-.23.61-.19,0,0-.01-.08.02-.08.19.09.09.33.17.38.39-.7.13-.19.5-.42.09-.05.5-.76,1.18-.92.21-.1.71-.3.92-.19.27-.07.52-.12.8-.15.15-.01.26-.04.42-.04.08-.08.13-.14.18-.19-.13-.21-.29-.4-.52-.52Z"/><path class="cls-6" d="m7.52,12.21c-.31.01-.38-.19-.59-.15q-.37-.23-.75-.46c-.04.1-.48.52-.48.55,0,.24.72-.03-.27.99.32.31.05.66-.04.7,0,0-.03,0-.04,0-.11-.03.09-.23-.29.08-.29.23-.46.54-.67.84-.17.24-.35.48-.53.71-.36,1.37.47,2.4,1.11,3.51-.25.47.32.73.13.86-.03.02-.22-.02-.27,0-.5.2-.2.51-.36.74-.19.28-.46-.35-.65.19-.08.22.21.53-.55.32-.32,1.1.09-.17-.63-.63,0-.87-.48.07-1.2-1.01-.15.04-.24.04-.3.04-.1-3.11.98-6.4,2.81-9.24.14.02.27-.05.36.09.46-.31.52.86.69.27.23,0,.25.11.46.19.43-.11.37-.76.75-.84-.04.08-.26.45-.27.48-.02.07.05.11.04.15,0,.02-.11.15-.11.34,0,.33.07.31.08.33.02.12-.03.3-.02.3.51-.01,1.2-.22,1.51.3-.13.13-.05.22.12.27,0,0,.01.07-.02.08Z"/><path class="cls-7" d="m16.55,30.68c-.2,0-.41,0-.61,0-.2-.57-.89-.91-.88-1.56.47.81.65.68.74.76.21.18.18.61.74.8Z"/><path class="cls-51" d="m28.07,24.19c-.04.66.29.51.32.53.07.06.12.14.21.19.2.12.23.36.46.04.04.04.21.26.25.27.29-.23.53-.13.82-.42.82.23,0,.65-.06.65-.15,0-.26-.23-.31-.23-.35-.02-.03.79-.1.93,0,.02-.31.22-.32.21-.06-.04.04-.22-.08-.23-.03,0-.2.22-.44.27-.25-.22-.33-.37-.69-.42-.14-.02-.51.04-.5.21,0,.07.74.3.84.36.05.03.2.11.19.17-.47.73-.75.02-.97.02-.11,0-.97.48.42.88.08.15-.96.38-1.09.31.04-.05.03-.1.04-.11.19-.35.26-.31-.04-.61-.3-.31-.46-.25-.8,0-.12.09-.14.15-.15.15-.02.01-.06.12-.11.15-.08.05-.29.07-.38.11-.07-.07.1-.04-.04-.19.16-.02.19-.05.31-.15.18-.16.18-.32.34-.46,0,0,0,.03,0,.04.03.04,0,.24.27-.1.05-.06.55-.98.57-1.05l.82-.11c.13-.1.02-.18.02-.19,0-.36-.64-.72-.8-1.07.02-.03.2-.15.23-.19l.76.04Z"/><path class="cls-51" d="m31.31,24.15c.28-.03-.51.53-.55.53-.03,0-.38-.28-.4-.31,0,0-.1-.02-.08-.13.03-.08.19-.27.19-.29.13.02.8.2.84.19Z"/><path class="cls-5" d="m28.15,25.98c-.09.09.25.37.38.42l-.04.15c-.1-.06-.83-.29-.84-.36-.02-.17.35-.23.5-.21Z"/><path class="cls-18" d="m33.18,18.31c.79.95.43.68-.42.11.15-.09.14-.15.42-.11Z"/><path class="cls-7" d="m24.41,29.23s.01.02-.11.08l-.74-.15c.1-.04.47-.28.53-.27.06,0,.21.31.32.34Z"/><path class="cls-4" d="m28.83,26.4c-.15.03-.15.06-.31,0-.14-.05-.47-.33-.38-.42.35.05.44.2.69.42Z"/><path class="cls-4" d="m26.12,14.88c.29-.22.26-.3.31-.34.05-.05.08-.09.11-.11.09.07.11.04.19,0,.06.22.19,0,.31-.08.31-.21,1.09-1.04,1.16-1.07.06-.02.07.04.06.08-.09.14-.14.3-.23.46-.15.27-.45.57-.65,1.22-.16.52-.24,1.08-.19,1.62.02.25.4,1.71.57,1.74.01,0,.03,0,.04,0-.08.21-.24.38-.34.57-.59.58-1.11,1.24-1.49,1.98-.04,0-.71,0-.84,0-.17,0-.27-.05-.34,0-.39.06-.79.12-1.18.19-.09.02-.3-.01-.5.04-.3.08-.55.27-.82.42-.34-.09-.68.14-1.01.23,0,0,0-.06-.08-.04-.59.16-1.17.34-1.68.69-.07.05-.13.1-.19.15-.12.1-.23.21-.34.32.01.01.05.04.04.06-.01.03-.09.05-.15.34-.17.16-.4.3-.57.46-.56.15-.43-.06-.82-.19,0-.01.03-.3-.1-.19.07-.17.12-.35.19-.52-.16-.2-.75-.78-.8-.88-.13-.26-.08-.68-.31-.88.25-.79-.04-.94-.04-.99,0-.03.15-.24.11-.38-.08-.29-1.2-.93-1.55-.97-.09-.09.03-.73-.5-1.07-.23-.14-.95-.38-1.22-.31-.18-.25-1.54-.34-1.79-.31-.02,0-.24.11-.4.15l-.38-.57c.29-.23.6-.43.84-.71-.4-.16.3-.03.31-.4.2-.15.13-.96.15-1.01.01-.02.17-.04.19-.08.02-.05-.13-.18-.19-.67.32-.2.18-.2.19-.23,0,0,.07.01.08-.02-.05-.03-.03-.05-.04-.1.13-.19.07.12.21.11.08,0,1.13-.81,1.2-.99.02-.01.09-.06.11-.08.8.46,2.01.3,2.84,0,.43-.16.7-.4,1.01-.57.05-.01.09.02.11.06.14.22.22.84.93,1.55.6.59,2.88,2.01,3.66,2.1,1.16.13,2.85-.07,3.8-.8Z"/><path class="cls-7" d="m5.44,22.36c-.24.34-.18,1.1,0,1.58.07.19,1.34,2.1,1.56,2.4.6.81,1.42,1.79,2.23,2.38.51.37,2.48,1.58,2.92,1.03.35-.04,1.46-.67,1.77-.95l.1.02c0,.05-.01.14,0,.17-.61.38-1.87,1.28-2.58,1.26-.55-.02-2.46-1.09-2.94-1.49-.96-.79-3.37-4-3.57-5.17-.19-1.13.22-2.28,1.07-3.03,0,0,.11.07.15.13-.48.5-.66.98-.72,1.66Z"/><path class="cls-32" d="m5.44,22.36c-.13,1.35.62,2.18,1.37,3.22.55.76,1.42,1.86,2.12,2.46.58.49,2.52,1.79,3.22,1.72-.44.55-2.41-.66-2.92-1.03-.81-.6-1.63-1.57-2.23-2.38-.22-.3-1.49-2.21-1.56-2.4-.18-.48-.24-1.24,0-1.58Z"/><path class="cls-7" d="m5.37,13.85c-.53.73-.92.86-.88,1.87-.22-.08-.08.66.04,1.01.13.39.53.99.8,1.32-.01.06-.09.06-.08.17.01.09.28.28.38.67-.46.1-1.36-1.8-1.45-2.12-.16-.58-.2-1.18.11-1.72,0-.02.32-.14.11-.29.21-.3.38-.61.67-.84.38-.3.17-.11.29-.08Z"/><path class="cls-6" d="m18.3,23.81c-.24.22-.44.51-.69.72l-.69-.19c.03-.12.05-.22.08-.34.11,0,.15-.16.19-.23.07-.12.13-.2.19-.34.13-.11.09.18.1.19.39.13.26.34.82.19Z"/><path class="cls-6" d="m11.09,17.28c-.09.02-.18.05-.27.08-.28-.03-.88.35-.95,0,.28-.22.56-.43.84-.65l.38.57Z"/><path class="cls-32" d="m4.49,15.72c.04,1.07.89,1.97.92,2.08.02.12-.07.2-.08.25-.27-.33-.67-.93-.8-1.32-.12-.36-.26-1.09-.04-1.01Z"/><path class="cls-5" d="m27.04,27.2c.29.3.23.26.04.61l-.99-.46s.03-.06.15-.15c.24.05.66.18.8,0Z"/><path class="cls-29" d="m20.57,29.23s.55.05.57.08c.15.16.06.63-.88.34l-.06-.06c.08-.06.33-.35.36-.36Z"/><path class="cls-4" d="m25.3,28.04c.07,0,.74.32.74.36.05.36-1.04-.04-1.03-.15,0-.02.27-.21.29-.21Z"/><path class="cls-7" d="m6.57,18.54c.41.02.49.39.38.42-.67-.19-1.59-.16-.92-.34.05-.01.51-.08.53-.08Z"/><path class="cls-29" d="m21.55,29.34c.22.18.65.1.69-.15.14.04.19.2.15.32-.08.28-1.05.2-.84-.17Z"/><path class="cls-7" d="m8.3,18.24s-.04.04-.04.04c-.22-.17-.78-.25-.9-.31-.35-.17.93-.27.93.27Z"/><path class="cls-32" d="m22.9,28.88c.5,0,0,.53-.04.53-.03,0-.29-.38-.32-.44.09-.01.34-.1.36-.1Z"/><path class="cls-7" d="m17.62,24.53s-.13.18-.17.19c-.03,0-.48-.13-.59-.11.03-.09.05-.18.08-.27l.69.19Z"/><path class="cls-7" d="m22.23,29.19c-.04.25-.47.34-.69.15.08-.15.55-.19.69-.15Z"/><path class="cls-32" d="m6.53,17.47c.49.02-.13.14-.32.06.26-.01.31-.06.32-.06Z"/><path class="cls-51" d="m9.68,7.02c.06.02.13.04.19.04,0,.05.11,0,.08.21-.06.23-.11.16-.11.17-.58-.07-.55.19-.04.19,0,.02.02.09-.08.19-.31-.11-.35-.13-.69-.11-.29-.37-1.05-.55-.57.11-.05.02-.34.12-.34.13-.03.06.11.06.11.11.03.2-.11.11-.23-.06,0,0-.07-.03-.11-.06l.11-.84c.21-.17.42-.36.61-.55.34.04.7.34,1.07.46Z"/><path class="cls-6" d="m7.47,8.85s-.04.07-.04.08c-.56.58-1.07.57-.99,1.7-.02.04-.11.09-.11.1-.22-.23.14-.65,0-.92.58-.93.79-.78,1.14-1.11,0,.05,0,.11,0,.15Z"/><path class="cls-2" d="m9.56,6.41c.09.06.17.09.27.13.02.17.02.35.04.52-.06,0-.13-.02-.19-.04.16-.27-.58-.42-.88-.61.13-.12.3-.21.31-.23.12.09.37.18.46.23Z"/><path class="cls-6" d="m6.32,10.72c-.14.25-.41.38-.38.53,0-.02-.08,0-.08-.32,0-.19.11-.32.11-.34.01-.05-.06-.08-.04-.15,0-.03.22-.39.27-.48.09-.16.11-.14.11-.15.14.27-.22.69,0,.92Z"/><path class="cls-2" d="m10.4,4.96c.08.02.68.28.71.31.06.07-.03.17-.06.23l-1.11-.34c.3-.37.35-.22.46-.19Z"/><path class="cls-2" d="m9.95,5.15l1.11.34s-.09.19-.1.19c-.17.07-.91-.39-1.05-.42-.06-.17.02-.1.04-.11Z"/><path class="cls-43" d="m9.68,7.02c-.36-.12-.73-.42-1.07-.46.09-.08.11-.08.19-.15.3.19,1.04.34.88.61Z"/><path class="cls-4" d="m11.32,4.5c.12.13.12.34.08.5-.13-.02-.48-.42-.52-.42-.05,0-.12.08-.17.11.14-.33.36-.23.61-.19Z"/><path class="cls-18" d="m11.51,4.81s-.03.29-.11.19c.04-.16.05-.37-.08-.5,0,0-.01-.08.02-.08.19.09.09.33.17.38Z"/><path class="cls-51" d="m9.79,11.29s.18-.03.19-.04c.16-.06.28-.06.29-.08.04-.05,0-.1.02-.15.09.01.07-.04.08-.04.03-.03.05-.05.08-.08l.04.08s-.13.12-.06.15c.23-.08.36-.02.36-.31.04,0,.09-.08.1-.08.04.02-.04.19.21.11-.28.74-.04.57-.04.65.02.27-.05.44-.04.53-.17-.02-.33-.09-.5-.15-.37-.13-.49-.22-.52-.23-.39-.08-.91.08-1.22-.19-.2-.03-.34.28-1.03.19-.05.06-.31.18-.32.19-.31-.52-1-.32-1.51-.31-.01,0,.04-.19.02-.31-.03-.15.24-.28.38-.53,0,0,.1-.06.11-.1-.08-1.13.43-1.12.99-1.7.21,1.21.94,2.64,2.37,2.37Z"/><path class="cls-7" d="m28.03,18.24s-.2.15-.23.15c-.01,0-.03,0-.04,0,.08-.31-.18-.59-.27-.9-.3-1.05-.1-1.17-.08-1.49,0-.03-.12-.07-.11-.08,0-.05.38-.89.08-.9.2-.65.5-.95.65-1.22-.55,1.64-.76,2.79,0,4.43Z"/><path class="cls-4" d="m27.88,25.41c-.18.02-.4-.02-.57,0,.55-.56.02-.07-.34-.72.22-.1-.05-.1.11-.34.17.34.8.71.8,1.07Z"/><path class="cls-4" d="m28.36,25.26c.44-.08.71.18.93.52-.07.09-1.03-.22-1.2-.25-.04-.04.25-.26.27-.27Z"/><path class="cls-26" d="m27.46,26.56c-.02.06-.03.2-.1.23-.26-.07-.98-.01-.63-.38l.72.15Z"/><path class="cls-7" d="m27.31,25.41c.18-.02.39.02.57,0,0,0,.11.09-.02.19l-.82.11c.03-.08.08-.11.08-.23.07-.03.11-.07.19-.08Z"/><path class="cls-2" d="m27.04,27.2c-.15.18-.57.05-.8,0,.34-.25.5-.31.8,0Z"/><path class="cls-4" d="m27.46,26.56l-.72-.15c.14-.14.77-.26.8-.1,0,.01-.06.21-.08.25Z"/><path class="cls-7" d="m18.23,11.48c.06-.01.09.38.19.67.28.31.25.4.27.42.16.21,1.17,1.1,1.47,1.28.03.21.11.07.11.08.36.22,1.68.89,2.02.95.48,0,2.51.18,2.79,0,.04-.02.02-.08.02-.11.31-.05.96-.32,1.26-.46.16-.01.02.14.08.23-.04.04-.02.12-.31.34-.06.02-.09-.04-.1-.04-.29.06-1.11.9-3.55.65-1.02-.1-3.51-1.65-4.14-2.5-.16-.21-.47-.79-.53-1.07-.15-.08-.18.05-.19.06-.31.17-.58.42-1.01.57-.83.3-2.05.46-2.84,0,.01,0,.07-.03.08-.04.07-.07.08-.03.11-.15,1.67.58,2.84-.27,4.27-.88Z"/><path class="cls-6" d="m26.12,14.88c-.95.73-2.64.93-3.8.8-.78-.09-3.06-1.51-3.66-2.1-.71-.7-.8-1.32-.93-1.55-.02-.04-.06-.07-.11-.06,0,0,.04-.13.19-.06.07.28.37.85.53,1.07.63.85,3.12,2.4,4.14,2.5,2.44.25,3.26-.59,3.55-.65,0,0,.03.06.1.04Z"/><path class="cls-6" d="m27.76,18.39c-.17-.03-.55-1.49-.57-1.74-.05-.54.03-1.1.19-1.62.3,0-.07.85-.08.9,0,0,.12.04.11.08-.03.32-.22.44.08,1.49.09.3.35.59.27.9Z"/><path class="cls-7" d="m27.04,14.35c-.12.08-.24.3-.31.08.32-.14.09-.22-.19,0-.03.03-.07.07-.11.11-.06-.09.08-.24-.08-.23.25-.12.53-.27.76-.42.12.17-.06.02-.08.46Z"/><path class="cls-7" d="m26.73,14.42c-.08.04-.1.07-.19,0,.28-.22.51-.14.19,0Z"/><path class="cls-7" d="m12.01,11.22c-.11.18-.03.17-.04.19-.09.27-.1.51-.11.57-.07.28-.19.56-.27.84-.05-.05-.1-.1-.15-.15.16-.14-.16-.3-.27-.23-.02-.02-.12,0-.15-.38,0-.09.06-.26.04-.53.37-.01.31-.08.46-.34,0,.36.05.15.08.15.18,0,.26,0,.38-.19,0,.03-.02.08.04.08Z"/><path class="cls-32" d="m25.09,14.76s.02.09-.02.11c-.27.18-2.3,0-2.79,0-.35-.06-1.66-.74-2.02-.95,0,0-.08.13-.11-.08-.3-.18-1.31-1.07-1.47-1.28-.02-.02.02-.1-.27-.42-.1-.28-.13-.68-.19-.67.05-.02.15-.17.19-.1-.06.53.3.7.19.88.55.37,1,.85,1.47,1.32.93.34,1.63.95,2.63,1.11.77-.01,1.65.2,2.38.08Z"/><path class="cls-7" d="m10.33,7.13l-.27.84c-.09-.05-.17-.08-.27-.11,0,0,.02,0-.08-.04.1-.1.07-.17.08-.19.09-.22.03-.15.04-.19,0-.01.06.06.11-.17.03-.2-.07-.16-.08-.21-.02-.17-.02-.34-.04-.52-.1-.04-.18-.08-.27-.13.68-.3.46.08.76.72Z"/><path class="cls-7" d="m10.77,5.91c.14,0-.2.87-.46.8-.05-.01-.18-.41-.17-.44.02-.09.53-.27.63-.36Z"/><path class="cls-29" d="m11.97,11.14c-.12.2-.2.2-.38.19.28-.74.23-.71.38-.19Z"/><path class="cls-25" d="m6.53,10.83c.34,0-.1.39-.13.13,0,0,.12-.13.13-.13Z"/><path class="cls-2" d="m31.31,24.15s-.71-.17-.84-.19c.03-.11.05-.23.08-.34.25-.07.57-.24.8-.31.03.12.16.56.15.59,0,.05-.18.24-.19.25Z"/><path class="cls-28" d="m33.22,12.09s-.19-.1-.23-.11c.22-.29.15-.13.23.11Z"/><path class="cls-45" d="m33.64,12.97c.31,1.06.68,3.48.23,4.46-.9.1-1.72-.01-2.59-.19.05-.48-1.09-.09-1.49-.88-.44-.87-.32-3.43-.11-4.46.09-.02.14-.04.15-.04.01.08-.03.35.02.38.11.08,1.57-.31,2.75.04.77.23.75.75,1.05.69Z"/><path class="cls-36" d="m32.04,11.79c.12,0,.23.02.34.04.13.02.3.04.42.08.04.01.15.06.19.08.04.02.22.11.23.11.19.16.35.63.42.88-.3.07-.28-.46-1.05-.69-1.17-.35-2.63.04-2.75-.04-.05-.03,0-.31-.02-.38.36-.05.88-.07,1.26-.08.34,0,.61-.03.95,0Z"/><path class="cls-11" d="m29.67,11.9c-.21,1.03-.33,3.59.11,4.46-.17.23-.3-.75-.34-.78-.06-.05,0,.1-.11.13-.23-1.24,0-2.46-.04-3.7.04-.01.12-.07.38-.11Z"/><path class="cls-11" d="m29.79,16.37c.4.79,1.53.4,1.49.88-1.17-.24-1.7-.24-1.95-1.53.12-.03.05-.18.11-.13.04.03.17,1.01.34.78Z"/><path class="cls-51" d="m29.1,11.52c-.1.71-.13.81.11.5.02,0,.06,0,.08,0,.04,1.24-.19,2.47.04,3.7.24,1.29.77,1.29,1.95,1.53.88.18,1.7.29,2.59.19-.09.19-.38.52-.5.74l-.19.13c-.28-.04-.27.03-.42.11-.05.03-.28.23-.27.29l.95.5-.69.44c-.22-.28-.46-.5-.76-.69-.35-.22-1.84-.74-2.19-.8-.07-.01-1.28-.05-1.37-.04-.02,0-.29.08-.4.11-.76-1.63-.55-2.79,0-4.43.09-.16.14-.31.23-.46.4-.68.89-.98.72-1.72.05-.13.08-.25.11-.38.09.04.01.18,0,.27Z"/><path class="cls-12" d="m28.85,15.83c0,1.88,2.75,1.83,4.1,1.97-1.24.12-4.55-.09-4.1-1.97Z"/><path class="cls-29" d="m11.4,10.19c.05-.77-.66-1.84-1.34-2.21l.27-.84c.32.69,1.58,2.71,1.07,3.05Z"/><path class="cls-6" d="m11.51,11.18c-.15.26-.09.33-.46.34,0-.08-.24.1.04-.65,0-.02.13-.09.19-.31.4.28.23.29.23.61Z"/><path class="cls-45" d="m14.91,3.13c-.12.21.24.06.59.15,1.8.47,3.48,3.94,3.68,4.14.03.03.07.02.11.02-.02.05-.04.05-.04.11,0,.05-.14.5-.08,1.07-.01.47-.16.93-.38,1.34-.26-.16-.11.07-.48.38-.36.31-1.52.76-1.98.72-.76-.05-2.02-1.01-2.5-1.6-1.04-1.28-2.57-4.51-.78-5.72.45-.33.53-.33,1.05-.46.27-.07.52-.12.8-.15Z"/><path class="cls-41" d="m17.08,3.74c.27.21.99.99,1.22,1.3.01.01.03.06.04.08.16.22.33.45.46.69.08.14.21.31.27.46.06.14.07.11.08.11.08.24.17.81.15,1.07-.04,0-.08.01-.11-.02-.2-.2-1.89-3.67-3.68-4.14-.35-.09-.71.06-.59-.15.15-.02.26-.04.42-.04.68,0,1.21.23,1.76.65Z"/><path class="cls-27" d="m14.1,3.28c-.52.13-.6.13-1.05.46-1.79,1.21-.26,4.44.78,5.72l-.19.15c-.91-1.15-2.02-3.39-1.6-4.85.18-.61.59-1.01,1.14-1.3.21-.1.71-.3.92-.19Z"/><path class="cls-32" d="m13.19,3.47c-.56.29-.97.69-1.14,1.3-.29.09.03-.25-.04-.38.09-.05.5-.76,1.18-.92Z"/><path class="cls-27" d="m13.84,9.46c.48.59,1.74,1.55,2.5,1.6.46.03,1.63-.42,1.98-.72.37-.31.22-.54.48-.38-.14.26-.52.72-.76.88-1.62,1.05-3.33.11-4.39-1.22l.19-.15Z"/><path class="cls-12" d="m18.03,10.83c.24-.16.62-.62.76-.88.23-.41.37-.87.38-1.34l.23-.15c.02.58-.04,1.15-.34,1.66-.24.4-1.06,1.04-1.03.71Z"/><path class="cls-21" d="m19.41,8.47l-.23.15c-.06-.57.07-1.01.08-1.07.07.29.14.62.15.92Z"/><path class="cls-7" d="m10.82,17.36c-.28.08-.67.21-.95.31-.21.07-.44.12-.65.19.19-.19.43-.33.65-.5.08.35.68-.03.95,0Z"/><path class="cls-51" d="m16.36,25.68c.12.18.35.13.27.42-.12-.03-.21.09-.15.19-.04.02-.09-.06-.15,0-.02-.15-.13-.34-.15-.5.2-.28.15-.07.19-.11Z"/><path class="cls-6" d="m16.32,26.29c.05.37-.25.39-.27.36-.05-.41.19-.71.04-.74.02-.05.05-.07.08-.11.02.16.13.35.15.5Z"/><path class="cls-8" d="m16.62,26.1s-.13.18-.15.19c-.06-.1.04-.22.15-.19Z"/><path class="cls-4" d="m27.84,24s.08.05.11.08c.04.03.11.07.11.08v.04l-.76-.04c.09-.11.2-.21.27-.34.11.04.18.13.27.19Z"/><path class="cls-51" d="m27.31,19.34c-.07.16-.19.32-.23.53-.14.84.82,1.71,1.39,1.6.34.25.75.35,1.16.42.26.04.54.07.8.08.7.01,1.74-.09,2.29-.53.2-.05.26-.22.38-.38,0,0,.03.12.04.15-.18.2-1.21,1.49-1.26,1.58-.05.09-.12.55-.15.61-.11.18-.05-.14-.1-.17-.02-.01-.24.06-.29.08-.23.06-.55.23-.8.31.02-.11.13-.64.02-.69-.42-.05-.78-.08-1.18-.11-.52-.59-.05,0-.23-.04-.18-.05.01-.37-.23-.11-.18-.3-.11-.03-.15,0-.06.04-.62-.62-1.05.55.03.03.07.05.08.1,0,.04.15.11.04.69-.09-.07-.16-.15-.27-.19.16-1-.18-1.46-.46-2.38-.11-.17-.92-.45-1.14-.48.38-.74.9-1.4,1.49-1.98-.06.11-.1.26-.15.38Z"/><path class="cls-50" d="m27.27,20.45c.16.32.38.48.69.65.39.22,1.05.42,1.49.5-.13.2.23.07.19.31-.41-.07-.83-.17-1.16-.42-.58.11-1.53-.76-1.39-1.6.07.19.1.39.19.57Z"/><path class="cls-29" d="m31.71,22.63c.24,0,.29.04.04.11-.87.27-.99-.09-.04-.11Z"/><path class="cls-4" d="m27.82,24.42c.1-.07.47.44.48.48.1.37-.57-.41-.48-.48Z"/><path class="cls-14" d="m28.76,24.72c.16.17.01.12-.15.19-.09-.05-.14-.13-.21-.19-.03-.02-.37.12-.32-.53v-.04c.24.18.45.38.69.57Z"/><path class="cls-14" d="m29.06,24.95c-.23.33-.26.08-.46-.04.16-.07.31-.02.15-.19,0,0,.23.06.25.08.09.08.05.15.06.15Z"/><path class="cls-15" d="m30.55,23.62c-.02.11-.05.24-.08.34,0,.02-.17.21-.19.29-.02.12.07.13.08.13,0,.13-.15.34-.23.42-.29.29-.54.19-.82.42-.04,0-.21-.23-.25-.27,0,0,.03-.08-.06-.15-.02-.02-.24-.07-.25-.08-.23-.19-.45-.39-.69-.57,0,0-.07-.05-.11-.08.65.04.09-.82-.15-.76,0-.04-.05-.06-.08-.1.43-1.17.99-.51,1.05-.55.05-.03-.02-.3.15,0,.24-.25.05.07.23.11.17.05-.29-.55.23.04.4.03.76.06,1.18.11.11.05,0,.58-.02.69Z"/><path class="cls-48" d="m27.96,24.08s-.08-.05-.11-.08c.11-.58-.03-.65-.04-.69.25-.05.8.8.15.76Z"/><path class="cls-41" d="m29.2,24.11c.07,0,.38.29.29.48-.04.08-.16-.12-.19-.04-.06.14.53.15-.17.29.11-.24-.23-.49-.21-.55,0-.02.27-.17.29-.17Z"/><path class="cls-22" d="m29,23.66c.12.05-.1.18.15.42-.26-.12-.33-.15-.15-.42Z"/><path class="cls-14" d="m29.39,23.62c.24.03-.07.33-.29.06l.29-.06Z"/><path class="cls-41" d="m28.32,23.16c.31.07-.2.29-.17.13,0-.01.16-.14.17-.13Z"/><path class="cls-41" d="m29.42,23.01c.13-.07.17.09.04.08,0,0-.08-.06-.04-.08Z"/><path class="cls-45" d="m15.67,26.86c-.08.07-.13.15-.25.19-1.97-.09-4.34-1.49-5.78-2.8-.88-1.58-2.24-2.46-2.06-4.5.03-.39.19-.74.31-1.11.01-.04-.1-.03-.08-.1.75-.18,1.46-.45,2.21-.61.65-.14.99-.29,1.7,0,.34.14,1.95,1.5,2.42,1.85.32,1.69,1.27,3.14,1.79,4.77l-.27,2.31Z"/><path class="cls-44" d="m16.74,24.95c-.03.07-.05.13-.08.19-.09.19-.15.39-.31.53-.04.04,0-.17-.19.11-.03.04-.05.07-.08.11-.01.03-.02.12-.04.15-.06-.26.49-2.12.57-2.19.18-.15.14.85.1.97-.13-.05-.4-.1-.32-.02l.34.13Z"/><path class="cls-36" d="m9.87,17.66l.15.27c-.75.16-1.47.43-2.21.61.04-.1.38-.2.46-.27,0,0,.04,0,.04-.04.32-.08.61-.27.92-.38.21-.08.44-.12.65-.19Z"/><path class="cls-49" d="m17.39,23.43c-.06.14-.12.22-.19.34l-.15-.25c0,.16,0,.32-.04.48-.02.12-.05.23-.08.34-.02.09-.05.18-.08.27-.04.13-.03.22-.04.23,0,0-.03,0-.08.11l-.34-.13c-.08-.08.2-.03.32.02.05-.12.08-1.12-.1-.97-.09.07-.64,1.94-.57,2.19-.14.36-.09.54-.38.8l.27-2.31c-.52-1.63-1.47-3.08-1.79-4.77-.48-.35-2.08-1.71-2.42-1.85-.71-.29-1.05-.14-1.7,0l-.15-.27c.29-.1.67-.23.95-.31.09-.02.18-.05.27-.08.16-.04.38-.15.4-.15.25-.03,1.62.06,1.79.31.27-.08,1,.16,1.22.31.52.34.4.97.5,1.07.34.04,1.47.69,1.55.97.04.14-.12.35-.11.38,0,.05.29.2.04.99.23.2.17.62.31.88.05.09.64.68.8.88-.07.17-.12.34-.19.52Z"/><path class="cls-44" d="m15.67,20.45l-.19.23c-1.23-.29-.33-.36.19-.23Z"/><path class="cls-24" d="m15.48,20.68l.19-.23c.22.06.25.17.42.32-.03.05-.52-.08-.61-.1Z"/><path class="cls-28" d="m17.2,23.77c-.04.07-.08.22-.19.23.03-.16.05-.32.04-.48l.15.25Z"/><path class="cls-7" d="m15.4,28.54c-.06.11-.11.19-.21.27-.25-.02-1.08.02-.78-.42.31,0,.66.03.99.15Z"/><path class="cls-4" d="m15.4,28.54c-.34-.13-.68-.14-.99-.15.12-.17,1.42-.61.99.15Z"/><path class="cls-12" d="m10.48,16.14c-.55.71-1.69.78-2.48.53,1.43.06,1.42-.04,2.33-.46.05-.02.1-.05.15-.08Z"/><path class="cls-12" d="m14.98,27.55l-.08.15s-.85-.16-.97-.19c-1.25-.32-3.28-1.48-4.24-2.37-.28-.26-2.26-2.57-2.38-2.8-.39-.72-.47-1.65-.27-2.44-.26,2.51.88,2.84,2.14,4.58,1.02,1.26,4.25,3.14,5.8,3.07Z"/><path class="cls-32" d="m16.03,26.78c.49-.2-.04,1.28.02.67,0-.01.12-.15.11-.23-.03-.41-.45.86-.59.78-.02-.16.4-1.2.46-1.22Z"/><path class="cls-29" d="m19.77,29.07c.43-.02.44.43-.63.44-.08-.13.59-.44.63-.44Z"/><path class="cls-26" d="m16.66,25.14c.03-.06.05-.13.08-.19.05-.12.07-.11.08-.11.27.22.46.06.38.32-.14.46-.31.18-.53-.02Z"/><path class="cls-4" d="m15.96,27.93l-.19.88c-.08-.51-.22-.74.19-.88Z"/><path class="cls-4" d="m25.97,27.51c.51.43-.3.2-.38.11.09-.05.31-.06.38-.11Z"/><path class="cls-2" d="m14.91,27.7l.08-.15c.11,0,.32-.14.36-.11.05.2-.3.27-.44.27Z"/><path class="cls-12" d="m16.76,26.25c.1.02-.3.53-.02.02,0-.01.01-.02.02-.02Z"/><path class="cls-31" d="m18.95,29.15c-.11-.09-.17-.15-.31-.23-.64-.38-.94-.43-1.18-.53.22-.47.2-.95.19-1.45.55-.23,1.06-.41,1.64-.13.32,1.14,1.11,1.75-.21,2.5-.02,0-.04-.08-.13-.15Z"/><path class="cls-15" d="m17.04,27.66c-.06-.01-.23-.08-.27-.02-.02.2,0,.39,0,.59,0,.01-.07.12-.04.25.06.28.64,1.04.65,1.11.03.16-.17.1-.08.21-.09,0-.15-.07-.15-.08.13-.13-.31-.48-.46-.5-.06-.23-.23-.51-.23-.76.16.03-.16-.41.15-.88.07-.05.12-.1.19-.15l.23.23Z"/><path class="cls-15" d="m16.85,28.27c.09.55.37.48.5.63.22.26.37.6.65.82-.02.03-.04.08-.04.11-.19,0-.51.03-.65-.04-.09-.11.1-.05.08-.21-.01-.06-.59-.83-.65-1.11-.03-.13.04-.24.04-.25,0,.04.05.05.08.04Z"/><path class="cls-19" d="m17.65,26.94c.01.5.03.98-.19,1.45-.2-.09-.1-.15-.13-.15-.01,0-.03.27-.13.13-.04-.05.29-.54.08-.61.16-.09.09-.43-.11-.55.22-.13.23-.16.5-.27Z"/><path class="cls-22" d="m16.47,28.46c0,.26.17.53.23.76,0,.03,0,.08,0,.11-.32-.29-.62-.42-.57-.92.17-.02.28-.15.34.04Z"/><path class="cls-41" d="m16.62,27.59c-.31.47,0,.91-.15.88-.06-.19-.17-.06-.34-.04.03-.28.11-.34.11-.36.04-.19-.15-.5.1-.17.12-.29.27-.29.29-.31Z"/><path class="cls-27" d="m18.53,29.68s-.07.14-.17.19c-.14.03-.26-.04-.4-.04,0-.04.01-.09.04-.11,0,0,.08-.06.11-.08.16-.09.32-.17.42.04Z"/><path class="cls-19" d="m18.95,29.15c-.04.08-.14.17-.19.23-.38-.11-.16-.08-.15-.21,0-.04-.17-.02.04-.25.13.08.19.14.31.23Z"/><path class="cls-15" d="m17.16,29.72c-.3-.16-.27-.21-.46-.38,0-.04,0-.08,0-.11.15.01.59.37.46.5Z"/><path class="cls-14" d="m17.04,27.66l-.23-.23c.09-.07.17-.13.27-.19.02,0,.08.09.08.1.08.54-.09.33-.11.32Z"/><path class="cls-14" d="m18.11,29.65s-.11.07-.11.08c-.28-.22-.43-.56-.65-.82-.13-.15-.41-.08-.5-.63.21-.11.26.22.71.65.06-.05.74.36.74.4.02.11-.2.21-.19.32Z"/><path class="cls-22" d="m17.16,27.2c.2.12.28.46.11.55.21.07-.11.56-.08.61.1.13.12-.13.13-.13.04,0-.07.06.13.15.24.11.54.15,1.18.53-.21.23-.04.21-.04.25,0,.13-.23.1.15.21-.03.05-.08.17-.23.31-.1-.2-.26-.13-.42-.04,0-.11.21-.21.19-.32,0-.04-.68-.45-.74-.4-.45-.43-.5-.76-.71-.65-.02.01-.08,0-.08-.04,0-.2-.02-.39,0-.59.04-.06.2,0,.27.02.03,0,.19.22.11-.32,0,0-.05-.1-.08-.1.05-.03.07-.04.08-.04Z"/><path class="cls-14" d="m16.95,27.74s.09.16.04.19c-.12.08-.12-.19-.04-.19Z"/><path class="cls-48" d="m33.11,21.06c-.12.16-.19.33-.38.38-.08.02-.17.02-.25,0-.01-.26-.09-.18-.1-.19-.04-.09-.03-.15-.08-.23.02,0,.07.02.15-.1l-.15.1s-.07-.07-.21.04c-.19-.45-.53-.24.11-.46.12.26.68.21.9.46Z"/><path class="cls-41" d="m32,18.96c-.03.07-.14-.1-.11.13.49.29,1.01,1.24.99.71.96,1.3.42,1.24.27,1.41,0-.03-.03-.15-.04-.15-.22-.25-.77-.2-.9-.46-.64.22-.31,0-.11.46.14-.1.17-.02.21-.04.05.08.03.14.08.23-.08.01,0,.19-.06.23-.1.07-.2-.07-.21-.08,0,0,.08-.08-.02-.08-.03,0-.05.07-.06.08-.1.03-.07.04-.08.04-.35.1-.17-.45-.32-.08-.22,0-.56-.2-.61.08-.35-.08-.67-.23-1.03-.08-.45-.46-.69.13-1.24-.38.53-.08.06-.03-.06-.53l.04.46c-.42-.14.1-.76-.32-.32.08-.48-.13-.49-.1.06-.1-.09-.07-.25-.25-.19-.09.03-.07.11-.1.11-.21.02-.18-.34-.55-.57,0-.09-.08-.52-.11-.65.05-.12.09-.27.15-.38.1-.19.26-.36.34-.57.03,0,.21-.15.23-.15.11-.03.38-.11.4-.11.09-.01,1.3.03,1.37.04.35.06,1.85.59,2.19.8Z"/><path class="cls-49" d="m32,18.96c.3.19.54.41.76.69.04.05.08.1.11.15.02.53-.5-.41-.99-.71-.02-.23.09-.07.11-.13Z"/><path class="cls-48" d="m28.62,19.11c.84.13,1.92.36.27.53l-.27-.53Z"/><path class="cls-15" d="m28.76,20.98c-.4.06-.7-.12-.69-.53.18-.06.15.1.25.19-.04-.54.18-.54.1-.06.42-.43-.1.18.32.32l-.04-.46c.12.5.59.45.06.53Z"/><path class="cls-39" d="m32.11,21.4h-.08s.03-.07.06-.08c.1,0,.02.07.02.08Z"/><path class="cls-31" d="m28.07,20.45c0,.42.29.6.69.53.55.51.79-.08,1.24.38.36-.15.68,0,1.03.08.05-.27.39-.08.61-.08.16-.37-.03.18.32.08.45.25-1.08.26-1.68.23-.26-.01-.59-.04-.84-.08-.44-.07-1.1-.28-1.49-.5-.03-.48-.29-.52-.61-.8.06-.32.08-.29.08-.31.37.23.35.59.55.57.02,0,0-.08.1-.11Z"/><path class="cls-9" d="m32.73,21.44c-.55.44-1.59.55-2.29.53-.01-.16-.25-.18-.15-.31.6.03,2.13.02,1.68-.23,0,0-.02,0,.08-.04h.08s.11.15.21.08c.05-.04-.03-.21.06-.23,0,.01.08-.06.1.19.08.02.17.02.25,0Z"/><path class="cls-20" d="m27.42,19.99s-.02-.02-.08.31c0,0-.05.15-.08.15-.09-.19-.12-.38-.19-.57.03-.21.16-.38.23-.53.04.13.12.56.11.65Z"/><path class="cls-3" d="m30.28,21.67c-.1.13.14.15.15.31-.26,0-.54-.03-.8-.08.04-.23-.32-.11-.19-.31.25.04.58.06.84.08Z"/><path class="cls-19" d="m27.96,21.1c-.3-.17-.52-.33-.69-.65.02,0,.07-.14.08-.15.32.28.58.32.61.8Z"/><path class="cls-16" d="m32.31,21.02l.15-.1c-.09.11-.14.09-.15.1Z"/><path class="cls-49" d="m25.97,20.95c.22.03,1.03.31,1.14.48.28.92.62,1.39.46,2.38-.07.13-.18.23-.27.34-.03.04-.21.16-.23.19-.17.25.11.24-.11.34-.3.14-.98.28-.99-.23.35-.33.99-1.05,1.3-1.01,0-.02-.22-.04-.25-.06-.18-.12.51-.87.23-.8-.31.08-.09.73-.99-.65h-.57c-.18-.46.33-.65-.61-.92l.06-.08c.13,0,.8,0,.84,0Z"/><path class="cls-34" d="m27.12,25.49c0,.12-.05.15-.08.23-.03.07-.53.99-.57,1.05-.27.34-.24.13-.27.1.28-.58.49-1.22.5-1.87.01,0,.09-.1.17-.15l.1.06c0,.18.15.44.15.59Z"/><path class="cls-34" d="m26.7,24.99c0,.65-.22,1.29-.5,1.87,0,0,0-.03,0-.04-.08-.14-.09.06-.13.04-.08-.04.31-.81.32-1.14,0-.01,0-.03,0-.04,0-.17-.16-.28-.15-.46.14-.04.32-.16.46-.23Z"/><path class="cls-49" d="m24.79,20.95c.56.47.96.43.76,1.18l-.93.11-.1.1-.27.76c.09.27.06.71.04,1.01-1.5.54-3.26.22-4.81-.04,0-.01,0-.03,0-.04.07-.02.38.08.4.08.09-.02.87-1.17.95-1.22.02-.01.34-.07.44-.11.62-.28.1-.5,0-.95.34-.09.67-.32,1.01-.23.27-.15.52-.34.82-.42.39,1.09.94,1.46.5-.04.39-.08.79-.13,1.18-.19Z"/><path class="cls-34" d="m21.2,21.79c-.09.35.06.64.08.99-.1.05-.42.1-.44.11-.08.05-.86,1.2-.95,1.22-.02,0-.33-.1-.4-.08-.17-.62.05-.35-.38-.99.14.04.38-.09.5-.11.09-.02.38.22-.08-.46.51-.35,1.09-.53,1.68-.69Z"/><path class="cls-49" d="m23.61,21.14c.45,1.5-.1,1.13-.5.04.19-.05.41-.02.5-.04Z"/><path class="cls-34" d="m21.28,21.82c.1.45.62.68,0,.95-.02-.36-.17-.64-.08-.99.08-.02.07.04.08.04Z"/><path class="cls-36" d="m19.6,22.93c-.11.03-.36.15-.5.11,0,0-.06-.03-.08-.04.01-.02-.03-.04-.04-.06.11-.12.22-.22.34-.32l.27.31Z"/><path class="cls-8" d="m19.6,22.93l-.27-.31c.06-.05.12-.11.19-.15.46.68.16.44.08.46Z"/><path class="cls-30" d="m19.48,24.08c1.55.26,3.31.58,4.81.04,0,.13,0,.17-.04.31-.51.03-1.13.27-1.62.31-1.06.07-2.27-.46-2.54.06,1.27.93,2.61.95,3.89.02v.04c-.26.18-.56.46-.8.61-.22.14-.62.23-.67.27-.22.17.05.29-.44.31-.58.02-1.62-.4-2.08-.8-.07.03.32,1.08.92.88.1.09.17.2.29.27.55.34.79.38,1.41.53.04.14-.6,0-.74-.04-1.58-.41-1.72-1.18-1.79-1.26-.32-.34-1.46-.42-1.07-1.64.11.23.42.78.55.93.48.57.03-.45-.08-.82Z"/><path class="cls-8" d="m19.1,23.04c.44.64.21.37.38.99,0,.01,0,.03,0,.04.11.38.55,1.39.08.82-.13-.16-.45-.71-.55-.93-.39,1.22.75,1.3,1.07,1.64.08.08.22.85,1.79,1.26.14.04.78.18.74.04.23.06.47.09.71.08.54.19,1.63.49,2.16.46-.56.35-1.23-.03-1.85.31h-.27c-.84-.79-1.92.32-3.83-1.01-.27-.86-.96-1.29-.88-2.29.02-.31.26-.77.23-1.09.06-.3.14-.32.15-.34.02,0,.07.03.08.04Z"/><path class="cls-30" d="m19.27,25.72c.58.27,1.39,1.75.4.59-.11-.12-.33-.44-.4-.59Z"/><path class="cls-34" d="m23.3,25.49l.52.46c.69-.12,1.39-.06,2.08-.11.11.44-.21,1.16-.04,1.45-.11.1-.15.13-.31.15-.02,0-.05,0-.08,0-.52.03-1.62-.27-2.16-.46-.24.01-.48-.02-.71-.08-.62-.16-.86-.2-1.41-.53.23-.11.9-.06.88-.34.49-.02.22-.14.44-.31.05-.04.45-.13.67-.27.06-.02.07.03.11.04Z"/><path class="cls-34" d="m26.39,25.72c-.01.33-.4,1.11-.32,1.14.04.02.05-.18.13-.04-.17.14-.16.3-.34.46-.17-.29.15-1.01.04-1.45.19-.01.32-.04.5-.11Z"/><path class="cls-34" d="m22.08,26.02c.02.28-.65.23-.88.34-.11-.07-.19-.18-.29-.27-.59.2-.98-.85-.92-.88.46.4,1.5.82,2.08.8Z"/><path class="cls-8" d="m26.39,25.68s0,.03,0,.04c-.18.07-.31.1-.5.11-.69.05-1.39,0-2.08.11l-.52-.46c.21.02.3.23.44.27.37.09,2.04-.14,2.65-.08Z"/><path class="cls-30" d="m25.97,24.46c.01.51.69.37.99.23.36.66.9.16.34.72-.08,0-.13.04-.19.08,0-.15-.16-.42-.15-.59l-.1-.06c-.08.05-.16.15-.17.15-.13.07-.32.19-.46.23-.3.08-.23-.11-.53-.55.19-.33.25-.2.27-.21Z"/><path class="cls-34" d="m25.13,20.95l-.06.08c.94.27.43.45.61.92h.57c.9,1.38.68.73.99.65.28-.07-.41.68-.23.8.03.02.25.04.25.06-.31-.03-.95.69-1.3,1.01-.01.01-.07-.12-.27.21.31.44.23.63.53.55,0,.18.15.29.15.46-.61-.06-2.28.16-2.65.08-.14-.03-.23-.25-.44-.27-.04,0-.05-.06-.11-.04.24-.15.54-.43.8-.61.3-.21.75-.39.76-.44-.08-1.54.74-2.03.8-2.27.2-.75-.2-.71-.76-1.18.08-.05.18,0,.34,0Z"/><path class="cls-36" d="m25.55,22.13c-.06.24-.88.73-.8,2.27-.02.05-.46.23-.76.44v-.04s.3-.23.31-.25c.02-.16-.04-.13-.04-.13.04-.14.03-.18.04-.31.02-.3.05-.74-.04-1.01l.27-.76.1-.1.93-.11Z"/><path class="cls-49" d="m24.25,24.42s.06-.02.04.13c0,.02-.26.21-.31.25-1.28.93-2.62.91-3.89-.02.27-.52,1.48.02,2.54-.06.49-.03,1.11-.27,1.62-.31Z"/><path class="cls-4" d="m12.23,13.51s0,.06.04.1c0,.03-.08.02-.08.02-.11-.06-.07-.29-.11-.36-.02-.04-.06.04-.08.02-.08-.11-.14-.21-.23-.31l.27-.31s.18.74.19.84Z"/><path class="cls-32" d="m12.2,13.62s.13.03-.19.23c-.03-.22-.05-.34,0-.57.01.02.05-.06.08-.02.04.08,0,.3.11.36Z"/><path class="cls-32" d="m12.04,12.67l-.27.31c-.05-.05-.14-.1-.19-.15.08-.28.2-.56.27-.84.22.19-.18.81.19.69Z"/><path class="cls-6" d="m9.03,7.71c-.26.01-.33.03-.57.11-.48-.66.29-.49.57-.11Z"/><path class="cls-6" d="m9.83,7.44s.05-.03-.04.19c-.51,0-.54-.26.04-.19Z"/><path class="cls-51" d="m9.95,11.1s-.02.08.04.15c0,0-.14.03-.19.04-.67-.01-1.24-.31-1.64-.86-.02-.09.11-.04.11-.08.04-.66-.25-.08-.5-.5-.05-.08-.28-.88-.31-1.01,0-.05,0-.1,0-.15.02-.02.27-.33.34-.42.2.17.55.23.08.29.03.1-.19.4-.19.42,0,.18.22.18.23.23,0,.08-.11.06-.11.11-.01.09.15.14.15.15,0,.03-.19.55.13.36.02,0-.07-.41.15-.27.1.06-.06.13-.06.13.02.07.23.01.04.11.34.21.39.83.67.71.04.36.19.14.23.15.03,0,.06.15.42.34.08.02.22-.65.25-.06,0,.05-.22.22.15.13Z"/><path class="cls-19" d="m10.78,10.83c0,.28-.13.23-.36.31-.07-.03.05-.14.06-.15,0,0,.13.01.08-.1-.07-.16-.11.01-.11.02-.03.02-.05.05-.08.08-.16-.26-.07,0-.08.04-.01.05.02.1-.02.15,0,.01-.12.02-.29.08-.06-.07-.03-.14-.04-.15-.03-.06.03-.07-.11-.1.21-.13.44-.08.25-.36.49.28.13,0,.25-.15.22-.02.02.42.25.19.02.16.07.13.21.15Z"/><path class="cls-41" d="m9.72,7.82c.09.03.07.04.08.04-.14-.03.02.12-.06.15,0,0-.06-.08-.15-.04-.35.15.39.09.36.25-.02.12-.54-.19-.61-.04-.06.11.09.18.04.29-.17-.08-.07.05-.08.08-.03.43.24.15.5.61-.16.01-.04.07-.04.08-.01.48.04.43.04.46-.21-.08-.29,0-.04.08-.04.1-.08.08-.08.15-.03-.03-.07-.03-.11-.04-.15-.02-.09,0-.08.08.04.25.1.19.15.23.05.03.11.18.15,0,.02-.1-.04-.12-.08-.19.48.03.03.23.46.15.04.19.06.08.11.04.11-.09.11-.27.29-.23.26.59-.1.33-.25.53-.12.16.24.44-.25.15.19.28-.04.24-.25.36.14.02.09.04.11.1-.37.09-.15-.09-.15-.13-.03-.6-.17.08-.25.06-.36-.19-.39-.33-.42-.34-.04-.01-.19.2-.23-.15-.27.12-.33-.49-.67-.71.19-.1-.01-.05-.04-.11,0,0,.16-.07.06-.13-.22-.14-.14.26-.15.27-.32.19-.13-.34-.13-.36,0-.01-.17-.06-.15-.15,0-.05.12-.04.11-.11,0-.05-.23-.05-.23-.23,0-.02.22-.32.19-.42.47-.06.12-.12-.08-.29.07-.08.11-.2.19-.27.12.16.26.25.23.06,0-.05-.14-.05-.11-.11,0-.02.3-.12.34-.13.24-.09.32-.1.57-.11.34-.01.38,0,.69.11Z"/><path class="cls-41" d="m8.46,8.39c.07.02.21-.01.31,0h.04l.23.29c-.31.1-.24-.27-.52.25-.02,0-.16-.1-.36-.15l-.04-.08c.04-.1.05-.2.08-.31.24-.15.18.28.27,0Z"/><path class="cls-15" d="m9.68,9.92s.03.06.04.08c.04.07.1.1.08.19-.07-.09-.09-.12-.15,0-.05-.04-.11.02-.15-.23l.08-.08s.08,0,.11.04Z"/><path class="cls-40" d="m9.33,9.23l.11-.04c.3.24-.19.51-.11.04Z"/><path class="cls-19" d="m8.36,9.27s.17.16.17.17c.1.48-.3-.06-.17-.17Z"/><path class="cls-33" d="m8.46,8.39c-.08.28-.03-.15-.27,0,0-.03-.06-.06-.04-.1.13-.17.29.09.31.1Z"/><path class="cls-37" d="m8.74,9.84c.08-.03.2.13.11.19-.11.08-.26-.14-.11-.19Z"/><path class="cls-14" d="m9.16,9.38c.18.04-.13.21-.17.13-.04-.07.11-.03.17-.13Z"/><path class="cls-19" d="m9.79,10.19c-.04.18-.11.03-.15,0,.06-.12.08-.09.15,0Z"/><path class="cls-31" d="m8.21,9.12c.24-.03-.1.25-.1.1,0,0,.09-.09.1-.1Z"/><path class="cls-14" d="m8.8,8.39h-.04c-.19-.16.28-.1.04,0Z"/><path class="cls-15" d="m8.82,9.23c.05-.02.22.12.21.13-.03.07-.27-.11-.21-.13Z"/><path class="cls-22" d="m9.45,9.19l-.11.04s-.08,0-.02-.11c.11-.02.13.07.13.08Z"/><path class="cls-14" d="m9.79,9.69s-.02.04-.04.08c-.25-.07-.18-.16.04-.08Z"/><path class="cls-19" d="m8.11,8.7l.04.08s-.12.09-.15.02c-.04-.08.11-.09.11-.1Z"/><path class="cls-22" d="m9.56,9.88l-.08.08c-.01-.07-.08-.1.08-.08Z"/><path class="cls-22" d="m9.13,9.08c.14-.02-.01.16-.06.06,0,0,.05-.06.06-.06Z"/><path class="cls-31" d="m9.01,10.22s.07.11.04.11c-.09,0-.07-.1-.04-.11Z"/><path class="cls-16" d="m8.55,8.05c.06-.02.08.06.04.08-.06.02-.08-.06-.04-.08Z"/><path class="cls-31" d="m9.79,11.29c-1.43.28-2.15-1.15-2.37-2.37,0,0,.03-.06.04-.08.03.14.26.93.31,1.01.25.42.53-.17.5.5,0,.04-.13-.01-.11.08.4.55.97.85,1.64.86Z"/><path class="cls-46" d="m10.48,10.99l-.04-.08s.04-.18.11-.02c.05.11-.07.09-.08.1Z"/><path class="cls-15" d="m10.37,10.99s.01.05-.08.04c.01-.05-.08-.3.08-.04Z"/><path class="cls-48" d="m9.79,7.86c.09.04.18.07.27.11.67.37,1.38,1.44,1.34,2.21,0,.03-.08.27-.11.38-.06.21-.18.29-.19.31-.25.08-.17-.09-.21-.11,0,0-.06.08-.1.08-.14-.02-.19,0-.21-.15-.23.23-.03-.22-.25-.19.15-.2.51.06.25-.53-.17-.05-.18.14-.29.23,0-.05-.07-.05-.11-.04-.42.07.02-.12-.46-.15,0-.02-.03-.07-.04-.08,0-.07.03-.05.08-.15.01-.03.04-.05.04-.08,0-.02-.05.02-.04-.46.16-.01.04-.07.04-.08-.25-.46-.52-.18-.5-.61.04,0,.06-.04.08-.08.05-.11-.09-.17-.04-.29.08-.15.59.16.61.04.02-.16-.72-.1-.36-.25.09-.04.15.04.15.04.07-.03-.08-.19.06-.15Z"/><path class="cls-19" d="m10.29,10.19c-.05.04-.07.16-.11-.04.04,0,.12-.01.11.04Z"/><path class="cls-16" d="m9.79,9.16s.12.06-.04.08c0,0-.12-.06.04-.08Z"/><path class="cls-14" d="m9.37,8.47s-.03.07-.08.08c0-.03-.09-.15.08-.08Z"/><path class="cls-15" d="m10.31,9.19l.15.31c-.1-.07-.2-.16-.15-.31Z"/><path class="cls-14" d="m10.04,9.77s.16.04.13.1c-.02.05-.22-.05-.13-.1Z"/><path class="cls-16" d="m9.58,8.62s.08,0,.1.02c.03.06-.22.06-.1-.02Z"/><path class="cls-14" d="m10,9.31l.02.02.02.02.02.02-.02.02h-.04l-.02-.02v-.04l.02-.02Z"/><path class="cls-48" d="m10.52,11.9c.11.23.09.43-.17.53.04-.32-.34-.14-.53-.19-.05-.01-.06-.11-.08-.11-.46-.1-.72.09-1.11-.38-.08.09-.18.07-.29.08-.05,0-.11,0-.15,0-.05,0-.1,0-.13-.04-.15.19-.3.29-.52.34-.17-.05-.24-.13-.11-.27.01-.01.28-.13.32-.19.69.09.83-.22,1.03-.19.31.27.84.11,1.22.19.03,0,.15.09.52.23Z"/><path class="cls-51" d="m12.12,11.83c-.04.09-.1.07-.15.13.59-.09-.16.24.46.34-.42.5-.05.77.13.78.05,0,.87-.32.97-.42,0,0,.03,0,.11-.04-.07.18-1.12.99-1.2.99-.14,0-.08-.3-.21-.11,0-.1-.14-.8-.19-.84-.37.12.03-.49-.19-.69.02-.07.02-.3.11-.57.36-.18.27.17.15.42Z"/><path class="cls-51" d="m6.93,12.06c-.09.02-.89.49-.92.55.01.31.12.59-.19.31.03.14.21.45.04.5.33.08-.31-.03-.15.61.03.14.32.22.31.57.31.14.3.36.34.42.12.14.69.61.88.74-.15.37.8.4,1.14.42.39.02.55-.18.97.27l.06-.02c-.41-.51.26.25.06-.21.51.16.69-.26.86,0-.9.42-.89.52-2.33.46,0,0,0-.1-.06-.11-.53-.15-1.11-.05-1.97-1.16-.5-.66-.36-.83-.57-1.55.09-.05.35-.4.04-.71.99-1.02.27-.75.27-.99,0-.04.44-.45.48-.55l.74.46Z"/><path class="cls-51" d="m8.38,16.18c-.35-.02-1.29-.05-1.14-.42.28.21.11,0,.21-.04.09-.04.24.19.38.04.32.33.22-.36.55.42Z"/><path class="cls-48" d="m10.52,11.9c.16.06.32.13.5.15.03.39.14.36.15.38.09.12.18.14.27.23.05.05.1.1.15.15.05.05.14.1.19.15.09.1.15.2.23.31-.05.23-.03.35,0,.57.06.48.21.62.19.67-.02.04-.18.05-.19.08-.02.05.04.86-.15,1.01-.12.09-.42.13-.52,0-.06.31-.42.32-.86.53-.05.02-.11.05-.15.08-.16-.26-.35.16-.86,0,.21.46-.47-.3-.06.21l-.06.02c-.42-.45-.58-.24-.97-.27-.34-.78-.23-.09-.55-.42-.15.15-.29-.08-.38-.04-.1.05.07.24-.21.04-.19-.14-.76-.6-.88-.74-.05-.06-.04-.28-.34-.42.01-.35-.27-.44-.31-.57-.16-.64.48-.53.15-.61.17-.05-.01-.36-.04-.5.31.29.2,0,.19-.31.02-.06.83-.54.92-.55.21-.04.28.16.59.15.03,0,.02-.08.02-.08.21-.05.37-.15.52-.34.03.05.09.05.13.04-.15.18-.36.3-.53.46,0,0,.01-.05-.06-.04-.32.27.82,1,.25.27.06-.41.69-.31.99-.44,0-.13-.56.06-.5-.25.1,0,.2.01.29-.08.39.47.65.28,1.11.38.02,0,.03.1.08.11.2.05.57-.12.53.19.26-.1.28-.3.17-.53Z"/><path class="cls-29" d="m11.43,12.67c-.09-.09-.18-.11-.27-.23.11-.07.42.09.27.23Z"/><path class="cls-41" d="m8.38,13.01c-.18-.1-.26.16.04.15,0,.08-.08.16-.08.21,0,.05.49.51.06.44-.1-.02-.41-.71-.52-.29-.08.34.56.98.32,1.05-.66-.07-.19-1.28-.8-.84-.1-.06,0-.1-.02-.11.02-.03.14-.03,0-.15.13-.04.52-.14.59-.19.3-.21.2-.55.4-.27Z"/><path class="cls-41" d="m7.27,13.39s-.06-.02-.04.13c0,.02.09.02.15.1,0,0-.17.07-.15.17.02.11.32-.22.31.69.07.14.66.24.76.38.02.02.18.57,0,.42.36.56-.7-.48-.84-.8-.04-.09.13-.22-.11-.21.05-.18.08-.34-.15-.23-.32-.23-.31-.37-.34-.42,0-.23.26.05.31-.02.06-.1-.18-.13.08-.36.04.1.03.13.04.15Z"/><path class="cls-39" d="m10.1,13.73c.56.19.11-.23-.11-.34.02-.2.25-.21.36-.08.52-.23.13-.01.13.06,0,.03.36.22.11.46,0,.07.3.29.21.36-.14.1-.31-.1-.42-.15-.06-.03.05.21-.36-.21.02-.02.09-.07.08-.1Z"/><path class="cls-41" d="m6.85,13.62s.02.19.34.42c-.23.1,0,.14,0,.21,0,.01-.06.03-.15.17l-.53-.1c.21-.12.04-.12.04-.27,0,0,.08-.1.08-.15-.02-.16-.29-.34,0-.48h.04c.08.22.18.18.19.19Z"/><path class="cls-41" d="m9.07,14.42l.08-.08c.42-.14.55.1.84.36l-.06.06c-.22-.15-.25,0-.27,0-.27-.4.17.5-.25.32.23-.25-.2-.35-.34-.67Z"/><path class="cls-41" d="m11.03,13.51c.35-.08.27.23.4.36.12.13.41.07.38.38-.27-.12-.99-.47-.95-.61,0-.02.15-.13.17-.13Z"/><path class="cls-41" d="m8.34,11.83c-.06.31.5.12.5.25-.31.13-.94.03-.99.44-.06-.08-.14-.15-.19-.23.17-.16.38-.27.53-.46.04,0,.1,0,.15,0Z"/><path class="cls-41" d="m7.24,13.24c-.25.23-.01.26-.08.36-.04.07-.3-.21-.31.02,0-.01-.11.03-.19-.19,0-.03.09-.06-.04-.11,0-.37.25-.04.36-.04.11,0,.17-.21.25-.04Z"/><path class="cls-14" d="m7.35,14.27c-.03.11-.08.13-.15.21v.32c-.07-.05-.12.03-.27-.32.04-.04.07,0,.11-.06.1-.14.15-.16.15-.17,0-.07-.23-.1,0-.21.23-.11.2.04.15.23Z"/><path class="cls-15" d="m7.66,12.28c.05.08.13.15.19.23.57.73-.56,0-.25-.27.07-.01.05.04.06.04Z"/><path class="cls-40" d="m10.1,13.73c-.04-.11-.12-.24-.11-.34.23.11.67.53.11.34Z"/><path class="cls-15" d="m8.55,14.08c.36-.05.18.54-.02.13-.02-.03-.05-.12.02-.13Z"/><path class="cls-14" d="m6.84,12.48s.21.23.21.25c.05.2-.55-.31-.21-.25Z"/><path class="cls-14" d="m8.38,13.01s.07.03.08.06c0,0-.04.01-.04.1-.3,0-.22-.26-.04-.15Z"/><path class="cls-15" d="m7.39,15.07l-.08.08c-.13-.11-.21-.39.08-.08Z"/><path class="cls-15" d="m7.39,13.47c.14.13.02.12,0,.15-.06-.07-.15-.08-.15-.1-.02-.16.04-.13.04-.13,0,.05.08.05.11.08Z"/><path class="cls-22" d="m7.31,15.15l.08-.08c.24.27.13.25-.08.08Z"/><path class="cls-10" d="m6.23,12.97c.14-.03.1.1.04.11-.08.02-.12-.1-.04-.11Z"/><path class="cls-22" d="m6.57,12.86s.09.13.04.15c-.03.01-.15-.17-.04-.15Z"/><path class="cls-14" d="m6.66,13.43h-.04c-.09-.02,0-.08,0-.11.13.05.03.09.04.11Z"/><path class="cls-15" d="m6.3,13.51c.11,0,.04.12-.02.1-.07-.03,0-.1.02-.1Z"/><path class="cls-14" d="m9.14,14.35l-.08.08-.02-.08s.07,0,.1,0Z"/><path class="cls-40" d="m10.16,12.93s.17.05.17.06c0,.06-.3,0-.17-.06Z"/><path class="cls-15" d="m10.12,15.07s.12,0,.1.06c-.03.06-.18,0-.1-.06Z"/><path class="cls-15" d="m9.81,15.26s.08,0,.1.02c.03.06-.22.06-.1-.02Z"/><path class="cls-19" d="m6.64,12.4h.04l.02.02-.02.02-.02.02-.02.02-.02-.02v-.04l.02-.02Z"/><path class="cls-46" d="m7.2,14.8l.06.08c-.08.02-.05-.07-.06-.08Z"/><path class="cls-48" d="m13.84,12.51s-.06.03-.08.04c-.03.02-.09.07-.11.08-.08.04-.11.04-.11.04-.09.04-.79.29-.82.27,0-.22-.12-.13-.13-.17-.07-.21.13-.36.32-.44.27-.11,1.21-.08.93.19Z"/><path class="cls-48" d="m12.92,10.83c-.09.3.11.23.23.69.04.15.03.14-.04.29.06.05.14.05.15.06l.15.27c-.65-.1-.84-.25-1.3-.31.11-.25.21-.6-.15-.42,0-.02-.07-.02.04-.19.02-.03.48-.49.52-.5.18-.04.26.06.4.11Z"/><path class="cls-41" d="m13.95,12.36c-.04.12-.05.09-.11.15.27-.27-.66-.3-.93-.19-.2.08-.39.22-.32.44.01.04.13-.05.13.17.04.02.73-.23.82-.27-.1.1-.92.42-.97.42-.18-.01-.56-.28-.13-.78-.62-.1.13-.43-.46-.34.05-.06.11-.05.15-.13.45.06.65.21,1.3.31.6.09.45.27.34-.53.09.17.24.59.19.76Z"/><path class="cls-48" d="m13.76,11.6c.11.8.26.63-.34.53l-.15-.27c.05.03.35.11.38.06l-.5-.4c-.12-.45-.32-.39-.23-.69.32.13.68.46.84.76Z"/><path class="cls-12" d="m13.27,11.86s-.09,0-.15-.06c.06-.15.08-.13.04-.29l.5.4s-.33-.03-.38-.06Z"/><path class="cls-18" d="m30.89,6.83c.11.04.76-.02.42.57-.07-.07-.74-.05-.92-.11-.22,0,.16-.39.02-.46l-.86-.11s-.02,0-.08-.11l.42-.38c.28-.06.42.4.99.61Z"/><path class="cls-32" d="m32.04,11.79c-.34-.03-.62,0-.95,0-.03-.24-.09-.48-.11-.72l.55.31c.24.08.16-.03.17-.04.06-.02.03-.08.06-.08.11,0,.33.94.48-.5.05-.08.13-.28.19-.38,0,0,.07-.01.08.02,0,.04-.39.63.29.13l.02.06-.76,1.2Z"/><path class="cls-4" d="m31.35,7.9s-.43.42-.38.5c-.11,0-.18.18-.23.27-.27.01-.11-.25-.11-.27-.02-.12.15-.13.15-.21,0-.02-.09-.09-.15-.32.11-.01.62-.34.69-.46.1.1,0,.37.04.5Z"/><path class="cls-7" d="m29.86,6.18s.04,0,.04.04l-.42.38c-.21-.43-.22-.54-.23-.57.1-.11.27-.6.08-.55.53-.56.15-.07.04.8.13.16.34-.24.36-.25.09-.01,0,.09.13.15Z"/><path class="cls-4" d="m30.89,6.83c-.57-.21-.71-.67-.99-.61,0-.05-.03-.03-.04-.04.39-.29.9.3,1.03.65Z"/><path class="cls-6" d="m32.42,10.38c-.06.1-.14.31-.19.38-.11.15-.27.35-.46.31.07-.14.1-.21.19-.34.11-.17.24-.34.38-.5.01.08.07.12.08.15Z"/><path class="cls-32" d="m32.8,11.9c-.12-.04-.29-.06-.42-.08,0-.41.51-.24.53-.21.02.03-.13.23-.11.29Z"/><path class="cls-30" d="m30.44,10.07c.03.15.03.59.13.69.22.19.26-.2.21-.46.4-.05.76.79.95.31.01,0,.14.06.23.11-.09.13-.12.21-.19.34-.07.13-.13,0-.08.19l-.71-.38c-.13.01-.02.15-.02.19.03.24.09.48.11.72-.38.01-.89.03-1.26.08,0,0-.06.02-.15.04-.26.05-.34.1-.38.11-.02,0-.05,0-.08,0,.17-.22.63-1.18.76-1.49.19.4-.28.54-.38.9.34.13,1.45.69,1.14-.11-.06-.16-.54-.14-.61-.44.2.1.13-1-.11-.88-.05-.4,0-.82-.11-1.22l.46.52c-.03.27.03.52.08.78Z"/><path class="cls-2" d="m30.13,10.87c.07.3.55.27.61.44.31.8-.81.25-1.14.11.11-.36.57-.5.38-.9,0-.01-.02-.09.08-.11.02.1.06.4.08.46Z"/><path class="cls-18" d="m30.36,8.35s.1.62.11.72c.02.11.08.14.15.21-.03.24-.13.47-.15.71,0,.04.01.08-.04.08-.04-.26-.11-.51-.08-.78l-.46-.52c0-.21-.05-.4-.04-.61l.5.19Z"/><path class="cls-30" d="m31.31,7.4c-.07.12-.58.44-.69.46-.15.02-.37-.1-.53-.08,0-.01,0-.03,0-.04.03-.04.03-.08.04-.11,0-.02.24-.34.27-.34.17.06.85.05.92.11Z"/><path class="cls-32" d="m30.4,7.29s-.26.32-.27.34c-.22-.3-.4-.59-.57-.92l.86.11c.14.07-.24.45-.02.46Z"/><path class="cls-29" d="m30.09,7.78c.02.13.27.33.31.5-.01.03-.03.05-.04.08l-.5-.19c0-.18-.06-.14.23-.42,0,.01,0,.03,0,.04Z"/><path class="cls-29" d="m30.13,10.87c-.01-.06-.06-.35-.08-.46-.02-.13-.02-.29-.04-.42.25-.12.31.98.11.88Z"/><path class="cls-51" d="m30.97,8.39c-.01.28.02.56.08.84-.25-.12-.04.37-.04.82.12.16.18.13.19.13.12.12.39.32.53.42-.2.48-.56-.35-.95-.31-.01-.06.01-.15,0-.17,0-.01-.23-.07-.31-.13.03-.24.12-.47.15-.71-.07-.07-.13-.1-.15-.21.13-.11.18-.28.27-.42.05-.09.12-.27.23-.27Z"/><path class="cls-48" d="m32.34,10.22c-.14.15-.27.32-.38.5-.09-.06-.22-.11-.23-.11-.15-.1-.41-.3-.53-.42.17-.13.05-.3-.04-.65-.04-.26.41-.19.8-.25-.03-.01-.37-.94-.21-.93.05,0,.15.26.17-.11l.15.13c.14.61.18,1.23.27,1.85Z"/><path class="cls-48" d="m31.92,8.24c-.02.37-.12.11-.17.11-.16,0,.18.92.21.93-.39.06-.84,0-.8.25-.02-.1-.09-.19-.11-.31-.05-.28-.09-.56-.08-.84-.05-.07.35-.48.38-.5.04-.03.1-.04.13-.08l.44.42Z"/><path class="cls-19" d="m31.05,9.23c.02.11.09.21.11.31.09.35.21.51.04.65,0,0-.07.02-.19-.13,0-.45-.21-.94.04-.82Z"/><path class="cls-7" d="m31.69,11.33s0-.06,0-.08c-.05-.18.01-.06.08-.19.19.05.35-.16.46-.31-.15,1.43-.37.5-.48.5-.03,0,0,.06-.06.08Z"/><path class="cls-2" d="m31.69,11.25s0,.05,0,.08c-.01,0,.07.12-.17.04l-.55-.31s-.11-.18.02-.19l.71.38Z"/><path class="cls-7" d="m30.63,7.86c.06.24.15.31.15.32,0,.08-.18.09-.15.21-.02-.14,0-.21-.1-.31-.08.25-.13.18-.13.19-.04-.17-.29-.36-.31-.5.17-.02.39.09.53.08Z"/><path class="cls-7" d="m30.63,8.39s-.15.28.11.27c-.08.14-.14.31-.27.42-.02-.11-.12-.69-.11-.72,0-.03.03-.04.04-.08,0-.01.06.06.13-.19.09.1.07.16.1.31Z"/><path class="cls-51" d="m18.87,3.17c-.06.37-.45,1.09.19,1.2-.51-.09-.3.06-.42.32-.35.8-.01-.47-.06-.5l-.63-.02c.11.12.38.13.38.15,0,.04-.12,0-.15.04-.05.07.43.09.11.67-.23-.31-.95-1.09-1.22-1.3.04-.13.11-.12.15-.15l1.28.46.06-.06-.57-.74s.07-.06.11-.08c.51.69.36.4.76,0Z"/><path class="cls-2" d="m18,3.24l.57.74-.06.06-1.28-.46c.56-.47.72-.33.76-.34Z"/><path class="cls-7" d="m18.95,3.05s-.05.09-.08.11c-.41.4-.26.69-.76,0,.65-.17.57-.09.84-.11Z"/><path class="cls-42" d="m21.74,3.28s.01.01-.04.04c-.4-.05-.02-.35.04-.04Z"/><path class="cls-7" d="m19.87,5.53c.1.03,0,.12,0,.15-.29.36-.18.37-.19.42-.27.06-.11.49-.08.72-.11.16-.37-.59-.46-.46,0,0-.02.02-.08-.11.02-.5.37-.63.8-.72Z"/><path class="cls-2" d="m18.65,4.69c.07.03.11.1.15.15-.02.2.12.45.19.72-.25-.25-.19-.85-.65-.46-.01-.01-.03-.06-.04-.08.31-.57-.16-.6-.11-.67.03-.04.15,0,.15-.04,0-.02-.27-.03-.38-.15l.63.02s-.29,1.3.06.5Z"/><path class="cls-30" d="m18.99,5.57s.11.04.04.19c.01-.1-.03-.06-.08-.08-.13-.03-.02.14-.15.11-.13-.23-.3-.47-.46-.69.45-.4.4.21.65.46Z"/><path class="cls-51" d="m21.16,4.84c-.38.26-.43.3-.27.76-.13.54-.16,1.07-.19,1.62.11.23.38.54.42.78l-.42-.21.27,1.09s-.04,0-.04.04c-.04-.02-.15-.06-.19-.02-.02.04.1.34.11.4.34,1.48.95,1.24,1.41,2.35.86.17.92.94,2.16.86.32.62,1.08.28,1.68.5,1.52.03,1.27-.71,2.63-.61-.44.59-1,1.1-1.62,1.49-.24.15-.51.3-.76.42-.3.14-.95.41-1.26.46-.74.13-1.61-.09-2.38-.08-1-.15-1.7-.77-2.63-1.11-.47-.46-.92-.95-1.47-1.32.1-.18-.26-.35-.19-.88-.04-.07-.14.08-.19.1-1.43.61-2.6,1.46-4.27.88.05-.17-.1-.59-.19-.76-.16-.3-.52-.63-.84-.76-.14-.06-.23-.15-.4-.11-.03,0-.5.47-.52.5-.06,0-.03-.05-.04-.08-.15-.51-.1-.55-.38.19-.03,0-.08.21-.08-.15,0-.32.17-.33-.23-.61.03-.11.11-.35.11-.38.52-.35-.75-2.37-1.07-3.05-.3-.65-.08-1.02-.76-.72-.09-.05-.34-.14-.46-.23.03-.05-.2-.17.67-.95.07-.02.09.03.13.04.14.03.88.49,1.05.42,0,0,.08-.16.1-.19.03-.06.11-.16.06-.23-.02-.03-.63-.28-.71-.31.09-.08.21-.21.31-.27.06-.03.12-.12.17-.11.03,0,.39.4.52.42.08.1.11-.18.11-.19.39-.7.13-.19.5-.42.07.13-.25.47.04.38-.42,1.46.69,3.7,1.6,4.85,1.06,1.33,2.77,2.27,4.39,1.22-.03.34.79-.31,1.03-.71.31-.51.36-1.08.34-1.66-.01-.3-.08-.62-.15-.92,0-.06.01-.07.04-.11.01-.26-.07-.83-.15-1.07.09-.14.34.61.46.46.05-.24.03-.48.08-.72,0-.05-.1-.06.19-.42-.15,1.26.2.27.42-.21-.19-.02-.27.02-.42.06-.43.1-.78.22-.8.72-.06-.15-.19-.31-.27-.46.13.03.02-.15.15-.11-.04.1,0,.24.08.08.07-.15-.04-.18-.04-.19-.07-.27-.21-.52-.19-.72.18.23.35.47.55.69.33-.04.5-.2.84-.19.32-.26.46-.58.67-.92.06-.09.11-.22.11-.23.06-.09.21-.23.27-.34l-.08.99Z"/><path class="cls-12" d="m11.57,6.29c.41,2.36,2.12,5.32,4.81,5.38-.25-.02-.56.03-.8,0-1.92-.22-4.11-3.53-4.01-5.38Z"/><path class="cls-24" d="m21.13,8.01s-.04.04-.04.34c0,.25.18.5-.11.53l-.27-1.09.42.21Z"/><path class="cls-13" d="m21.2,4.84h-.04l.08-.99v-.08c.2-.03.03.78-.04,1.07Z"/><path class="cls-29" d="m19.87,5.68s.1-.12,0-.15c.15-.03.23-.08.42-.06-.22.48-.57,1.47-.42.21Z"/><path class="cls-35" d="m19.68,6.1c-.04.25-.03.48-.08.72-.04-.23-.19-.66.08-.72Z"/><path class="cls-38" d="m19.03,5.76c-.08.16-.12.03-.08-.08.05.01.09-.02.08.08Z"/><path class="cls-4" d="m30.78,10.3c.05.25,0,.65-.21.46-.1-.09-.11-.54-.13-.69.05,0,.03-.04.04-.08.08.06.3.12.31.13.01.02-.01.12,0,.17Z"/><path class="cls-48" d="m19.33,2.97c.13.67.7,1.1.61.72.35-.14.48.26.46.32-.03.09-.18.04-.19.08,0,.02.08.01.08.04,0,.36.1.5.57.29-.21.33-.35.66-.67.92-.34,0-.51.15-.84.19-.2-.22-.37-.46-.55-.69-.04-.06-.08-.13-.15-.15.11-.27-.09-.42.42-.32-.64-.12-.25-.84-.19-1.2.03-.03.06-.08.08-.11.04,0,.21-.05.38-.08Z"/><path class="cls-14" d="m19.62,4.12c.02.07.28.23.29.25.09.25-.46.62-.29-.25Z"/><path class="cls-48" d="m19.94,2.63c.11,0,.13,0,.23.04.23.08.82.65.95.88.04.07.11.13.11.23v.08c-.06.11-.21.25-.27.34-.14-.06-.02-.35-.21-.57-.05-.06-1.21-.72-1.35-.61,0,0,0,.02-.04-.08,0-.01,0-.03,0-.04.18-.14.34-.26.57-.27Z"/><path class="cls-14" d="m19.41,3.01c.08.18.51.57.53.69.09.38-.48-.06-.61-.72,0,0,0-.04.04-.04.03.1.04.07.04.08Z"/><path class="cls-48" d="m20.97,4.2s-.06.14-.11.23c-.47.21-.56.08-.57-.29,0-.03-.08-.01-.08-.04.01-.04.16.01.19-.08.02-.06-.1-.46-.46-.32-.03-.11-.45-.5-.53-.69.14-.11,1.3.55,1.35.61.19.22.07.51.21.57Z"/><path class="cls-41" d="m20.46,3.74s.12.01.13.06c.08.2-.06,1.02-.13-.06Z"/><path class="cls-30" d="m21.55,3.43c-.31.43,0,.38.29.15.05.02-.04.22-.06.31-.06.33-.14.66-.19.99-.08.5.19.36-.38.88-.25-.94-.09-.56,0-.92.07-.29.23-1.1.04-1.07,0-.09-.07-.16-.11-.23.27.11.27-.1.36-.15.05-.03.05.04.06.04Z"/><path class="cls-44" d="m26.05,5.76c.05.15.09.29.08.46l-.08.08s-.1.03-.11.04c-1.11.1-.9-.15-1.64-1.11.01-.02.07-.11.08-.11.45.52,1.08,1.63,1.68.65Z"/><path class="cls-34" d="m24.37,5.11s-.06.1-.08.11c-.05.07-.2.13-.23.23-.28-.29-.52-.29-.8-.55l.88-.25c.14.09.4.07.23.46Z"/><path class="cls-17" d="m29.29,7.93c-.07.41.02.73-.27.65-.11-.32-.11-.42-.11-.44-.01-.03-.07-.01-.08-.02-.04-.13-.09-.25-.11-.38,0-.03-.08-.11-.02-.23.25.29.48.35.59.42Z"/><path class="cls-49" d="m26.85,5.3l.11.31-.02.08-.36-.11c-.04-.07-.07-.07-.08-.08-.07-.15-.17-.13,0-.27.09.03.26.09.34.08Z"/><path class="cls-49" d="m26.96,5.61l.19.1c-.07.1-.37.27-.38.29-.08-.13-.12-.28-.19-.42l.36.11.02-.08Z"/><path class="cls-49" d="m29.25,6.03s.01.14.23.57c.06.12.07.11.08.11.17.33.36.62.57.92-.01.03,0,.07-.04.11-.29.28-.22.24-.23.42,0,.21.03.4.04.61.11.4.07.82.11,1.22.02.13.02.29.04.42-.09.03-.07.1-.08.11-.14.31-.6,1.27-.76,1.49-.24.31-.21.22-.11-.5l.11.06c.16-.82.79-1.44.1-2.23-.11-.07,0,.3-.06.95-.02.25-.03.4-.08.65-.02.11-.05.2-.08.31-.03.13-.06.25-.11.38-.26.68-.2.34-.31.34,0-.3.11-.59.15-.88.02-.14.02-.35.04-.5.03-.35.13-.6.04-1.28-.11-.83-.61-1.32-.08-1.2,0,0,.07-.01.08.02,0,.02,0,.12.11.44.02.06.01.2.13.38l.44-.86s-.25-.14-.31-.17c-.12-.07-.35-.13-.59-.42-.06.12.01.2.02.23-.22-.32-1.21-.24-1.43-.38-.07-.04-.17-.51-.32-.5-.09-.25-.2-.5-.23-.76,0,0,0-.07.04-.11.02-.02.31-.19.38-.29l-.19-.1-.11-.31s.3-.23.31-.25c.1-.23-.14.11-.4.06-.12-.02-1.94-1.49-1.16-.53-.17-.09-.38-.14-.55-.23l-.02.06c0,.1.82.75,1.03,1.35-.6.98-1.23-.13-1.68-.65.17-.39-.09-.37-.23-.46-.52-.33-2.01-.77-2.23-.69-.03.01-.02.05-.02.08-.02-.05-.08-.11-.11-.15.02-.09.11-.28.06-.31-.29.23-.59.27-.29-.15.07-.04.14-.11.15-.11.05-.03.04-.04.04-.04.22-.12.48-.27.72-.34.84-.24,1.06,0,1.16,0,1.81.17,3.32.57,4.5,2.06.89.11.94.64,1.13,1.03Z"/><path class="cls-49" d="m29.1,11.52c.01-.09.09-.23,0-.27.03-.1.06-.2.08-.31.19-.1.22-.65.08-.65.05-.65-.05-1.03.06-.95.69.79.06,1.41-.1,2.23l-.11-.06Z"/><path class="cls-38" d="m27.5,5.91c.14.01,0-.06,0-.19.08-.03-.01-.13.13-.11.46.55.55.62,1.2.97.05.09-.71.04-.74.02-.06-.03-.47-.56-.59-.69Z"/><path class="cls-32" d="m26.85,5.3c-.09.02-.25-.04-.34-.08-.07-.02-.13-.04-.19-.08-.04-.02-.33-.36-.72-.57-.78-.95,1.05.51,1.16.53.26.05.5-.29.4-.06,0,.02-.29.24-.31.25Z"/><path class="cls-34" d="m29.02,8.58c.29.08.19-.24.27-.65.05.03.3.12.31.17l-.44.86c-.12-.18-.11-.32-.13-.38Z"/><path class="cls-32" d="m22.67,3.32c.05-.01.73.55.9.55-.14,0-.94-.13-.97-.17-.04-.04.02-.37.08-.38Z"/><path class="cls-8" d="m23.85,3.97c.38-.03.72.24,1.09.36-.41.67-.65.93-.15,0-.33-.05-.67-.15-.93-.36Z"/><path class="cls-50" d="m29.18,10.95c.05-.25.06-.4.08-.65.14,0,.11.55-.08.65Z"/><path class="cls-23" d="m27.5,5.72c0,.13.14.2,0,.19,0,0-.07.02-.19-.13.21-.13.18-.05.19-.06Z"/><path class="cls-24" d="m20.93,8.93c.26.11.86.73,1.09.88.21.14.46.22.67.34.3.18.61.36.92.53,0,0,0,.05,0,.08-1.44-.1-1.75-.43-2.67-1.45,0,0-.04.02-.06-.11l-.02.11c-.01-.06-.14-.36-.11-.4.04-.04.15,0,.19.02Z"/><path class="cls-24" d="m21.2,5.99s-.05.04-.04.11c.05.48.15.94.23,1.41.06.39,0,.6.11,1.03l-.42-.19c0-.3.04-.33.04-.34-.04-.25-.31-.55-.42-.78.03-.55.06-1.09.19-1.62.04.11.18.38.31.38Z"/><path class="cls-30" d="m21.51,8.55s.03.09.04.11c.02.05-.02.12.02.19.1.16.62.2.46.53.32.01.62.06.93.11-.1.18-.1.4-.11.46-.02.06-.08.17-.15.19-.21-.13-.46-.21-.67-.34-.22-.15-.83-.77-1.09-.88,0-.03,0-.03.04-.04.3-.03.11-.28.11-.53l.42.19Z"/><path class="cls-24" d="m21.2,4.84c-.09.36-.25-.02,0,.92,0,.08,0,.15,0,.23-.12,0-.27-.28-.31-.38-.16-.46-.11-.5.27-.76h.04Z"/><path class="cls-24" d="m25.63,11.41c.35.12.7.17.74.19.02,0,.2.16.29.19.11.05.23.21.38.19,0,.02-.04.07-.06.08-.11.02-1.1-.2-2.02.23l-.1-.04c-.15-.16-.38-.24-.57-.34l.67-.31-1.05.15c-.27-.17-.22-.23-.31-.31.33-.12.66-.27.95-.46.36.12.71.29,1.07.42Z"/><path class="cls-30" d="m28.15,12.06c-.96.33-1.97.17-2.92.5-.2-.44-.57-.04-.36-.31l.1.04c.92-.43,1.91-.21,2.02-.23.01,0,.06-.05.06-.08.22.05.86.08,1.11.08Z"/><path class="cls-30" d="m25.93,6.33c-.13.06-.97.37-1.05.34-.25-.33-.58-.97-.82-1.22.03-.1.18-.16.23-.23.74.96.53,1.21,1.64,1.11Z"/><path class="cls-34" d="m21.89,4.04c.13.25-.01,1.19-.15,1.18-.02-.13-.06-.25-.15-.34.05-.34.13-.66.19-.99.04.04.09.11.11.15Z"/><path class="cls-44" d="m21.74,5.23c.06.45-.06,1.06-.04,1.49l-.53-.61c0-.08.04-.08.04-.11,0-.08,0-.15,0-.23.57-.52.3-.38.38-.88.09.1.13.21.15.34Z"/><path class="cls-38" d="m22.12,7.78c.23.23.2.83.34,1.13.08.17.34.22.34.4-.42-.22-.87-.38-1.26-.65,0-.02-.03-.09-.04-.11-.11-.43-.05-.64-.11-1.03.05-.22.13.35.48.69l.25-.42Z"/><path class="cls-44" d="m24.64,10.11c-.15.14-.39.29-.57.38-.53-.56-.5-.45-1.22-.53.02-.05.02-.28.11-.46.02,0,.05,0,.08,0,.21.04-.01-.02.17-.04.2.16.46.14.69.23.23.09.51.3.74.42Z"/><path class="cls-34" d="m21.7,6.71c.02.54.24.64.42,1.07l-.25.42c-.35-.33-.42-.91-.48-.69-.08-.48-.18-.93-.23-1.41l.53.61Z"/><path class="cls-17" d="m22.8,9.31c.1.05.19.07.23.19-.02,0-.05,0-.08,0-.31-.05-.62-.1-.93-.11.16-.33-.36-.37-.46-.53-.04-.07,0-.14-.02-.19.39.27.84.43,1.26.65Z"/><path class="cls-30" d="m23.61,10.76c.23,0,.46,0,.69,0,.18.33.69-.05.27.23-.29.19-.63.34-.95.46-.14-.11-.31-.19-.46-.29.87-.2.12-.06-.48-.21-1.24-.3-1.45-1.13-1.74-1.64.92,1.02,1.24,1.35,2.67,1.45Z"/><path class="cls-23" d="m20.93,9.31c.29.51.5,1.34,1.74,1.64.6.15,1.34.01.48.21.15.1.32.17.46.29.09.07.04.13.31.31.02.01.27.09.38.15.19.1.43.19.57.34-.21.26.16-.13.36.31.95-.33,1.96-.17,2.92-.5.07,0,.3-.07.53-.08.11,0,.04.34.31-.34.17.73-.33,1.04-.72,1.72,0-.04,0-.1-.06-.08-.07.03-.85.86-1.16,1.07.01-.43.2-.28.08-.46.62-.39,1.18-.9,1.62-1.49-1.36-.1-1.11.64-2.63.61-.6-.22-1.36.12-1.68-.5-1.24.08-1.3-.69-2.16-.86-.46-1.11-1.07-.87-1.41-2.35l.02-.11c.02.13.05.11.06.11Z"/><path class="cls-24" d="m22.17,11.1l1.7.9c-.61-.07-1.29-.42-1.7-.9Z"/><path class="cls-30" d="m24.29,11.9c-.11-.06-.36-.14-.38-.15l1.05-.15-.67.31Z"/><path class="cls-32" d="m24.06,10.49c-.15.08-.3.14-.46.19-.31-.17-.61-.35-.92-.53.07-.02.13-.13.15-.19.72.08.69-.02,1.22.53Z"/><path class="cls-34" d="m26.66,11.79c-.09-.04-.27-.18-.29-.19-.05-.02-.4-.07-.74-.19l-.36-.65c-.33,0-.65.01-.97,0-.23,0-.46,0-.69,0,0-.02,0-.07,0-.08.16-.06.31-.11.46-.19.18-.09.42-.24.57-.38.27.14,1.69.95,1.81,1.07.11.11.28.48.21.61Z"/><path class="cls-34" d="m24.14,4.65l-.88.25c.29.26.52.26.8.55.24.25.57.89.82,1.22.08.03.92-.28,1.05-.34.02,0,.07,0,.11-.04.01,0,.09.03.08-.08.02-.17-.02-.3-.08-.46-.21-.61-1.04-1.26-1.03-1.35l.02-.06c.17.09.38.14.55.23.4.21.69.55.72.57-.17-.09-.14,1-.11,1.05.02.05.24.12.27.08.08-.14-.16-.91.04-.78,0,0,.04,0,.08.08.07.14.11.29.19.42-.04.05-.03.11-.04.11,0,0-.06-.02-.08.02-.18.38.07,1.63.55,1.74l1.2.02-1.09-.25c-.12-.07-.3-.61-.36-.76.16,0,.26.45.32.5.22.14,1.21.06,1.43.38.02.13.07.25.11.38-.54-.12-.04.37.08,1.2.09.68,0,.92-.04,1.28-1.86-.49-1.25-.07-.04.5-.05.29-.15.58-.15.88-.24,0-.47.08-.53.08-.25,0-.89-.03-1.11-.08-.15.02-.27-.14-.38-.19.07-.13-.1-.5-.21-.61-.13-.12-1.54-.93-1.81-1.07-.24-.12-.51-.33-.74-.42-.23-.09-.49-.07-.69-.23-.19.02.04.08-.17.04-.03-.13-.13-.14-.23-.19,0-.18-.26-.23-.34-.4-.14-.29-.11-.9-.34-1.13-.18-.43-.4-.52-.42-1.07-.02-.43.1-1.04.04-1.49.14,0,.29-.93.15-1.18,0-.03-.01-.07.02-.08.23-.08,1.71.35,2.23.69Z"/><path class="cls-30" d="m26.73,6.1c.03.26.14.52.23.76.06.16.25.7.36.76l1.09.25-1.2-.02c-.48-.11-.73-1.36-.55-1.74.02-.04.07-.01.08-.02Z"/><path class="cls-30" d="m24.71,8.93s-.17.04-.11.69c-.43-.3-.14-.7-.08-1.09.09-.56.09-.91.32-1.51-.09.58-.08,1.43-.13,1.91Z"/><path class="cls-34" d="m26.31,5.15c.07.04.12.05.19.08-.17.13-.07.11,0,.27-.2-.13.04.64-.04.78-.03.05-.25-.03-.27-.08-.02-.05-.05-1.14.11-1.05Z"/><path class="cls-34" d="m28.87,10.61c-.01.15-.02.36-.04.5-1.21-.57-1.82-.98.04-.5Z"/><path class="cls-44" d="m24.6,9.61c-.06-.64.11-.65.11-.69l.46.48-.57.21Z"/><path class="cls-8" d="m26.12,6.22c.02.11-.07.07-.08.08l.08-.08Z"/><path class="cls-44" d="m25.63,11.41c-.36-.13-.71-.3-1.07-.42.42-.28-.09.1-.27-.23.33.01.65,0,.97,0l.36.65Z"/></g></svg>