<?xml version="1.0" encoding="UTF-8"?><svg id="Capa_2" xmlns="http://www.w3.org/2000/svg" viewBox="0 0 32.38 32.38"><defs><style>.cls-1{fill:#f9d299;}.cls-1,.cls-2,.cls-3{stroke-width:0px;}.cls-2{fill:#fff;}.cls-3{fill:#e64b5b;}</style></defs><g id="Capa_1-2"><circle class="cls-2" cx="16.19" cy="16.19" r="16.18"/><circle class="cls-1" cx="16.16" cy="16.28" r="14.75"/><path class="cls-3" d="m12.26,6.23l2.14.63.97,15.45-2.07-.61-.19-4.6-5.52-1.62-2.74,3.74-1.94-.57L12.26,6.23Zm.69,9.15l-.31-6.79-4.06,5.51,4.37,1.28Z"/><path class="cls-3" d="m24.12,18.18c.41.06.72-.02.93-.26.12-.13.22-.34.31-.62.17-.59.09-1.07-.25-1.46-.34-.39-.89-.69-1.66-.92-.89-.26-1.59-.2-2.11.17-.29.21-.54.57-.76,1.07l-1.6-.47c.4-1.25,1.06-2.01,1.99-2.27.93-.26,1.91-.24,2.94.06,1.2.35,2.1.86,2.71,1.54.61.67.77,1.49.49,2.45l-1.72,5.86c-.05.18-.06.33-.02.46.04.13.18.23.41.3.08.02.16.04.26.06s.2.03.32.05l-.37,1.26c-.29,0-.51-.01-.65-.04s-.34-.07-.58-.14c-.59-.17-.96-.51-1.1-1-.07-.26-.08-.61-.02-1.03-.48.35-1.1.6-1.85.75s-1.52.1-2.3-.13c-.94-.28-1.63-.79-2.06-1.54s-.52-1.55-.27-2.41c.28-.94.79-1.59,1.53-1.93s1.61-.44,2.6-.28l2.83.46Zm-4.96,3.56c.28.39.66.66,1.16.8.6.18,1.23.21,1.87.1,1.09-.18,1.78-.8,2.09-1.85l.4-1.38c-.25.07-.55.1-.9.1-.35,0-.7-.04-1.02-.09l-1.07-.17c-.64-.1-1.15-.11-1.51-.02-.62.14-1.02.54-1.21,1.19-.14.49-.08.93.2,1.32Z"/></g></svg>