<?xml version="1.0" encoding="UTF-8"?><svg id="Capa_2" xmlns="http://www.w3.org/2000/svg" viewBox="0 0 32.38 32.38"><defs><style>.cls-1{fill:#f9d299;}.cls-1,.cls-2,.cls-3{stroke-width:0px;}.cls-2{fill:#fff;}.cls-3{fill:#e64b5b;}</style></defs><g id="Capa_1-2"><circle class="cls-2" cx="16.19" cy="16.19" r="16.18"/><circle class="cls-1" cx="16.05" cy="16.23" r="14.75"/><path class="cls-3" d="m22.73,24.59l-8.11,2.19-6.42-5.06,5.86-13.39,11.8,8.56-3.13,7.7Zm-7.83.82l6.91-1.86,2.53-6.23-9.76-7.08-4.85,11.09,5.17,4.08Z"/><path class="cls-3" d="m25.32,9.95c-.12-.26-3.11-6.33-11.65-4.03S5.09,14.88,5.09,15.16l-1.24.02c0-.08-.03-7.89,9.5-10.46s13.06,4.63,13.1,4.7l-1.13.53Z"/><rect class="cls-3" x="3.15" y="14.85" width="3.03" height="3.03" transform="translate(-4.1 1.78) rotate(-15.08)"/><rect class="cls-3" x="11.79" y="3.99" width="3.03" height="3.03" transform="translate(-.97 3.65) rotate(-15.08)"/><rect class="cls-3" x="24.72" y="9.03" width="3.03" height="3.03" transform="translate(-1.84 7.19) rotate(-15.08)"/><circle class="cls-3" cx="16.88" cy="18.74" r="1.23"/><rect class="cls-3" x="14.98" y="8.89" width="1.24" height="10.25" transform="translate(-3.11 4.54) rotate(-15.08)"/><path class="cls-3" d="m23.14,27.35l-7.35,1.98c-1.06.28-2.15-.34-2.43-1.4s.34-2.15,1.4-2.43l7.35-1.98c1.06-.28,2.15.34,2.43,1.4s-.34,2.15-1.4,2.43Zm-8.06-.65c-.39.11-.63.51-.52.91s.51.63.91.52l7.35-1.98c.39-.11.63-.51.52-.91s-.51-.63-.91-.52l-7.35,1.98Z"/></g></svg>