<?xml version="1.0" encoding="UTF-8"?><svg id="Capa_2" xmlns="http://www.w3.org/2000/svg" viewBox="0 0 49.68 24.9"><defs><style>.cls-1,.cls-2,.cls-3,.cls-4,.cls-5,.cls-6{stroke-width:0px;}.cls-2{fill:#6bb234;}.cls-3{fill:#fff;}.cls-4{fill:#e64b5b;}.cls-5{fill:#f08f00;}.cls-6{fill:#0056a1;}</style></defs><g id="Capa_1-2"><path class="cls-3" d="m3.39.3C3.16.06,2.83-.05,2.5.02,1.4.27-.92,1.01.39,2.77c1.21,1.62,2.18,2.79,2.63,3.32.18.21.25.48.21.75l-.75,4.74c-.1.66.5,1.21,1.15,1.06l5.31-1.28c.54-.13,1.07.23,1.15.78l.76,5.21c.09.64.79,1,1.37.69l5.07-2.69c.49-.26,1.1-.04,1.31.48l2.07,5.14c.23.58.97.78,1.46.38l4.1-3.3c.48-.38,1.18-.22,1.44.34l2.21,4.81c.28.6,1.07.73,1.53.26l3.84-3.97c.4-.41,1.07-.37,1.42.08l3.83,4.96c.41.53,1.22.47,1.55-.1l3.12-5.4c.18-.31.52-.49.88-.47,1.17.08,3.7.11,3.66-1.28-.05-1.8-1.95-2.98-3.26-2.4S15.86,13.41,3.39.3Z"/><path class="cls-1" d="m48.05,16.21c-.3-.13-.69-.05-1.04-.07-9.83-.38-19.55-1.75-29.04-5.37C12.28,8.6,7.17,5.74,3.29,1.39c-.2-.23-.53-.27-.79-.12-.14.08-.28.15-.42.21-.29.12-.43.45-.35.75.01.05.03.1.04.15.03.12.09.23.18.31.5.47,1.02.91,1.55,1.32,0-.08.02-.15.03-.23.95.76,1.83,1.46,2.73,2.18.02.01.03.03.05.04,1.46.95,2.97,1.86,4.44,2.89.32.22.65.44.98.65.02.01.04.03.07.04l4.47,2.15c-.08.04,1.45.65,1.8.69l.25.04c2.23.7,4.26,1.34,6.48,2.03.12.04.2.12.29.21.15.16.87.32,1.06.19.13-.09.31-.1.46-.06,2.63.63,5.05,1.21,7.45,1.79.15.04.24.15.33.27.06.08.33.09.16-.16,0,0,0,0,0,0,.09-.09.18-.26.27-.25,2.25.26,4.5.53,6.94.82.23.03.42.18.51.4.19.45,1.25.81,1.5.51.32-.4,1.04-.63,1.63-.69.92-.09,1.89.08,2.82.03.06,0,.11-.02.17-.05.37-.19.41-.73.09-1-.13-.12-.27-.22-.43-.29Z"/><path class="cls-5" d="m36.94,16.79c.1-.11.21-.32.3-.32,2.59.14,5.19.29,8.02.46-1.46,2.17-2.82,4.2-4.26,6.34-1.4-2.23-2.74-4.36-4.07-6.49h0Z"/><path class="cls-4" d="m36.94,16.79c-.53.23-1.18.35-1.57.73-1.47,1.45-2.86,2.99-4.46,4.69-.97-2.4-1.86-4.59-2.9-7.13,3.17.61,6.05,1.17,8.93,1.72,0,0,0,0,0,0Z"/><path class="cls-2" d="m19.48,12.96c2.55.7,4.84,1.33,7.39,2.03-2,1.6-3.83,3.08-5.78,4.65-.55-2.29-1.05-4.36-1.61-6.68Z"/><path class="cls-6" d="m11.33,9.09l7.97,3.69c-2.58,1.46-4.91,2.77-7.51,4.24-.16-2.73-.3-5.21-.46-7.93Z"/><path class="cls-5" d="m11.19,9.1c-2.56.83-4.84,1.56-7.42,2.39.41-2.68.76-5.02,1.15-7.59,2.17,1.8,4.06,3.37,6.27,5.2Z"/></g></svg>