<?xml version="1.0" encoding="UTF-8"?><svg id="Capa_2" xmlns="http://www.w3.org/2000/svg" viewBox="0 0 39.4 80.25"><defs><style>.cls-1,.cls-2{stroke-width:0px;}.cls-2{fill:#fff;}</style></defs><g id="Capa_1-2"><path class="cls-2" d="m38.85,74.13c.09.15.15.31.2.48.37,1.24,1.16,5.43-2.15,5.63s-3.55-3.51-3.61-4.51c-.01-.19-.05-.38-.1-.56-.24-.81-.97-2.71-2.18-4.46-1.64-2.38-1.7-6.39-.49-7.51,1.02-.94,2.77-1.88,4.64-.22s3.71,3.88,3.2,9.07c0,0-.08,1.1.48,2.09Z"/><path class="cls-1" d="m37,79.71c-.26.01-.53.05-.79.04-.91-.04-1.51-.54-1.88-1.34-.39-.84-.51-1.75-.6-2.66-.02-.23-.03-.46-.04-.72,1.55-.25,3.1-.5,4.64-.75.01.01.03.02.03.03.22.87.45,1.74.5,2.64.03.6-.05,1.18-.35,1.71-.22.38-.52.68-.92.86-.03.01-.05.03-.07.05l-.5.15Z"/><path class="cls-1" d="m37.4,67.58c.33,1.13.5,2.29.62,3.47,0,.09,0,.19,0,.28-.03.24-.17.37-.44.39-.8.06-1.59.2-2.35.45-.56.19-1.1.43-1.64.66-.27.11-.47.09-.65-.14-.66-.88-1.31-1.77-1.75-2.78-.63-1.43-.87-2.95-.78-4.51.05-.76.24-1.48.72-2.08.57-.72,1.31-.98,2.21-.76,1.07.26,1.87.91,2.52,1.77.69.91,1.18,1.98,1.53,3.26Z"/><path class="cls-2" d="m17.87,68.71c-.02.19-.02.38,0,.57.15,1.4,1.4,6.09,4.82,4.9s1.84-5.16,1.48-6.2c-.07-.2-.11-.4-.14-.61-.1-.92-.16-3.35.5-5.59.61-2.08-.7-6.14-2.99-7.48-.99-.58-3.48-.9-4.67,1.57s-2.11,5.49.6,10.53c0,0,.55,1.08.4,2.32Z"/><path class="cls-1" d="m21.57,73.76c-.28-.06-.57-.08-.83-.18-.69-.26-1.12-.81-1.45-1.44-.33-.65-.47-1.35-.6-2.06-.08-.43-.15-.86-.23-1.31,1.69-.41,3.36-.81,5.06-1.22.14.46.32.9.42,1.35.15.67.28,1.34.34,2.02.06.69-.08,1.36-.56,1.9-.39.45-.9.67-1.45.82-.05.01-.09.03-.14.05l-.57.06Z"/><path class="cls-1" d="m23.85,60.48c.1.86-.05,2.01-.3,3.16-.09.4-.17.81-.28,1.2-.09.36-.27.48-.64.45-1.53-.13-3.01.11-4.47.57-.31.1-.54.02-.64-.29-.19-.58-.37-1.17-.52-1.77-.25-.97-.41-1.95-.48-2.95-.09-1.33-.01-2.64.47-3.9.31-.82.78-1.52,1.47-2.07,1.09-.87,2.27-.67,3.19.13.61.53,1.01,1.2,1.32,1.93.43,1.01.71,2.11.87,3.53Z"/><path class="cls-2" d="m28.07,41.72c.11.13.2.28.27.44.57,1.15,2.06,5.15-1.16,5.92s-4.09-2.85-4.33-3.83c-.04-.19-.11-.37-.2-.54-.37-.76-1.42-2.51-2.9-4.03-2.03-2.07-2.76-6.01-1.76-7.32.84-1.1,2.41-2.32,4.54-1.01s4.31,3.19,4.7,8.39c0,0,.11,1.1.83,1.98Z"/><path class="cls-1" d="m27.19,47.54c-.26.06-.51.14-.78.17-.91.12-1.58-.27-2.08-1-.53-.77-.8-1.64-1.05-2.52-.06-.22-.11-.45-.16-.7,1.49-.51,2.97-1.02,4.45-1.53.02.01.03.02.03.02.37.82.74,1.64.94,2.52.13.58.15,1.17-.06,1.75-.15.42-.4.75-.77,1-.02.02-.04.04-.06.06l-.47.23Z"/><path class="cls-1" d="m25.53,35.52c.51,1.06.89,2.18,1.2,3.31.02.09.04.18.05.27.01.24-.11.39-.36.46-.78.2-1.53.47-2.24.85-.52.28-1.01.61-1.5.93-.24.16-.45.17-.66-.03-.8-.76-1.59-1.52-2.2-2.44-.87-1.31-1.36-2.75-1.53-4.31-.08-.75-.02-1.5.36-2.18.44-.8,1.13-1.18,2.05-1.12,1.1.07,2,.58,2.78,1.31.83.78,1.5,1.75,2.07,2.96Z"/><path class="cls-2" d="m6.44,41.52c0,.19.04.38.09.56.36,1.37,2.29,5.81,5.5,4.13s1.05-5.38.54-6.35c-.1-.19-.17-.38-.23-.59-.24-.9-.66-3.29-.34-5.6.3-2.15-1.6-5.96-4.07-6.95-1.07-.43-3.58-.37-4.39,2.24s-1.27,5.74,2.16,10.32c0,0,.71.99.74,2.23Z"/><path class="cls-1" d="m10.85,45.97c-.28-.02-.57,0-.85-.06-.72-.16-1.23-.63-1.65-1.21-.42-.59-.66-1.27-.9-1.95-.14-.41-.28-.83-.42-1.26,1.61-.65,3.2-1.3,4.83-1.96.21.43.45.84.61,1.28.24.64.48,1.29.64,1.95.17.67.12,1.35-.27,1.97-.32.5-.79.8-1.31,1.03-.05.02-.09.05-.13.07l-.55.14Z"/><path class="cls-1" d="m11.13,32.49c.23.84.25,2,.17,3.17-.03.41-.05.82-.1,1.23-.04.37-.19.52-.56.54-1.53.1-2.96.56-4.33,1.23-.3.14-.53.1-.68-.19-.28-.55-.54-1.11-.78-1.67-.39-.92-.7-1.87-.91-2.85-.29-1.3-.4-2.61-.12-3.93.19-.85.55-1.62,1.15-2.27.95-1.02,2.14-1,3.18-.34.68.43,1.18,1.04,1.59,1.71.57.94,1.01,1.98,1.39,3.36Z"/><path class="cls-2" d="m23.18,17.03c.07.16.11.33.13.5.21,1.27.45,5.53-2.85,5.31s-3.07-3.93-3.01-4.93c.01-.19,0-.38-.03-.57-.13-.84-.61-2.82-1.59-4.7-1.33-2.58-.87-6.55.48-7.52,1.13-.8,2.99-1.51,4.63.37s3.18,4.32,2.02,9.4c0,0-.22,1.08.21,2.14Z"/><path class="cls-1" d="m20.62,22.33c-.26-.02-.53-.02-.79-.06-.9-.16-1.43-.73-1.7-1.57-.28-.89-.28-1.8-.26-2.72,0-.23.03-.46.05-.72,1.57-.05,3.14-.1,4.7-.15.01.02.02.02.03.03.11.89.22,1.78.16,2.68-.05.6-.2,1.16-.57,1.65-.26.35-.6.6-1.03.73-.03,0-.05.03-.07.04l-.51.08Z"/><path class="cls-1" d="m22.57,10.35c.18,1.17.21,2.34.17,3.52,0,.09-.01.19-.04.27-.06.23-.22.34-.48.33-.8-.04-1.6,0-2.39.15-.58.11-1.14.29-1.71.44-.28.08-.48.03-.62-.22-.54-.96-1.07-1.92-1.38-2.98-.45-1.5-.49-3.03-.19-4.57.14-.74.42-1.43.98-1.97.66-.64,1.43-.8,2.29-.47,1.03.39,1.74,1.14,2.27,2.08.57.99.92,2.11,1.1,3.43Z"/><path class="cls-2" d="m5,14.91c.04.19.1.36.18.54.57,1.29,3.18,5.38,6.08,3.2s.19-5.47-.47-6.35c-.13-.17-.23-.35-.32-.54-.38-.85-1.17-3.15-1.22-5.47-.05-2.17-2.53-5.63-5.12-6.22C3.01-.19.54.26.16,2.97s-.34,5.87,3.76,9.85c0,0,.85.86,1.09,2.09Z"/><path class="cls-1" d="m10.06,18.6c-.28.03-.57.09-.85.08-.74-.04-1.31-.43-1.82-.94-.51-.52-.86-1.15-1.2-1.78-.21-.38-.4-.78-.62-1.18,1.49-.9,2.96-1.79,4.46-2.7.28.4.57.76.81,1.16.34.59.67,1.2.94,1.82.27.64.33,1.32.05,1.98-.23.54-.65.91-1.14,1.22-.04.03-.08.06-.12.09l-.52.23Z"/><path class="cls-1" d="m8.21,5.25c.35.79.56,1.94.67,3.1.04.41.08.82.1,1.23.02.37-.11.54-.47.62-1.5.34-2.84,1.02-4.08,1.9-.27.19-.51.18-.7-.08-.36-.5-.71-1.01-1.03-1.53-.53-.85-.98-1.74-1.35-2.67-.49-1.24-.81-2.51-.74-3.86.05-.87.28-1.69.78-2.42C2.15.4,3.34.23,4.46.71c.74.32,1.33.84,1.85,1.44.72.83,1.31,1.79,1.9,3.1Z"/></g></svg>