<?xml version="1.0" encoding="UTF-8"?><svg id="Capa_2" xmlns="http://www.w3.org/2000/svg" xmlns:xlink="http://www.w3.org/1999/xlink" viewBox="0 0 54.26 43.62"><defs><style>.cls-1{fill:url(#Degradado_sin_nombre_17);}.cls-1,.cls-2,.cls-3,.cls-4,.cls-5,.cls-6,.cls-7,.cls-8,.cls-9,.cls-10,.cls-11,.cls-12,.cls-13,.cls-14,.cls-15,.cls-16,.cls-17,.cls-18,.cls-19,.cls-20,.cls-21,.cls-22,.cls-23,.cls-24,.cls-25,.cls-26,.cls-27,.cls-28,.cls-29,.cls-30,.cls-31,.cls-32,.cls-33,.cls-34,.cls-35,.cls-36,.cls-37{stroke-width:0px;}.cls-2{fill:url(#Degradado_sin_nombre_16);}.cls-3{fill:#5e3e1d;}.cls-4{fill:#79797a;}.cls-5{fill:#77471e;}.cls-6{fill:#777d87;}.cls-7{fill:#555554;}.cls-8{fill:#9a8678;}.cls-9{fill:#8a5c2a;}.cls-10{fill:#70707a;}.cls-11{fill:#5a3012;}.cls-12{fill:#585963;}.cls-13{fill:#3f4342;}.cls-14{fill:#44474f;}.cls-15{fill:#37373e;}.cls-16{fill:#1c1d1c;}.cls-17{fill:#43200a;}.cls-18{fill:#070606;}.cls-19{fill:#212128;}.cls-20{fill:#a8a9a9;}.cls-21{fill:#cfcfd1;}.cls-22{fill:#d09a33;}.cls-23{fill:#858688;}.cls-24{fill:#babbc1;}.cls-25{fill:#303231;}.cls-26{fill:#999793;}.cls-27{fill:#92969c;}.cls-28{fill:#a17336;}.cls-29{fill:#fdf5e1;}.cls-30{fill:#656669;}.cls-31{fill:#fff;}.cls-32{fill:#e7b65a;}.cls-33{fill:#fcecb5;}.cls-34{fill:#fbfbfb;}.cls-35{fill:#eba937;}.cls-36{fill:#e7e2e1;}.cls-37{fill:#69716d;}</style><linearGradient id="Degradado_sin_nombre_16" x1="45.21" y1="21.9" x2="46.79" y2="22.48" gradientTransform="translate(-8.41 15.06) rotate(-16.73)" gradientUnits="userSpaceOnUse"><stop offset="0" stop-color="#383943"/><stop offset="1" stop-color="#626872"/></linearGradient><linearGradient id="Degradado_sin_nombre_17" x1="27.69" y1="2.41" x2="30.88" y2="3.66" gradientTransform="translate(-8.41 15.06) rotate(-16.73)" gradientUnits="userSpaceOnUse"><stop offset="0" stop-color="#89888e"/><stop offset="1" stop-color="#717276"/></linearGradient></defs><g id="Capa_1-2"><path class="cls-31" d="m0,30.9c2.29-3,4.01-6.21,6.29-9.21,1.36-1.78,3.28-3.36,4.64-5.14-.55-1.64-1.1-3.27-1.65-4.91L20.16,0c3.66,1.05,4.93,1.02,8.58,2.07,1.81.52,5.83,1.74,7.27,2.95.37.31.89,2.13,1.16,2.99-.4,1.38-.38,1.83-.38,1.83l16.12,4.64,1.35,4.48-20.64,24.68L.99,34.17l-.99-3.28Z"/><path class="cls-32" d="m7.97,22.62c.73-.19.97-.24,1.7.07.06.03.08.04.09.05,1.14.53,2.06,1.61,1.97,2.91-.02,0-.05.03-.07.02-.13-.05-.27.04-.39-.07-.09-.62-.12-.86-.48-1.35-.12-.17-.26-.33-.48-.37-.29-.32-.26-.72-.3-.75-.02-.02-.45.01-.47.03-.06.09.37.38-.54,1.99-.37.16-.81.26-1.05.53-.05-.25-.17-.42-.19-.53-.1-.46.28-1.37-.08-1.73.62-.87-1.05.1-.93,1.27.05.47.17.33.18.35.08.4-.03.21-.13.55-.88-.89.07-2.69,1.15-2.98Z"/><path class="cls-22" d="m10.33,23.88c.21.04.36.2.48.37-.13.04-.15.14-.31.17-.11.02-.09-.13-.14-.1-.1.05-.21.3-.29.38-.3.31-.46.37-.47.4-.05.17.35.48.16.65-.52,0-.33.3-.46.43-.36.36-.91.16-.59,1.09.02.05.14-.01.14,0,.1.14.02.13.21.23.07.04.22.02.31.05l.02.07c-.78.41-1.42.29-2.07-.33.54-.05-.32-1.02.46-2.11.02.1.14.28.19.53.24-.27.68-.37,1.05-.53.57-.25,1.13-.3.6-.44.5-.26.4-.53.7-.83Z"/><path class="cls-22" d="m10.33,23.88c-.3.3-.2.58-.7.83.53.13-.03.19-.6.44.9-1.6.47-1.9.54-1.99.01-.02.45-.05.47-.03.03.03.01.43.3.75Z"/><path class="cls-29" d="m7.71,23.43c-.4.56-.68.82-.76,1.62,0-.02-.13.12-.18-.35-.12-1.16,1.56-2.13.93-1.27Z"/><path class="cls-35" d="m7.71,23.43c.36.35-.02,1.26.08,1.73-.78,1.1.08,2.06-.46,2.11-.06-.06-.29-.14-.4-.35-.45-.87-.15-1.15-.1-1.32.1-.34.21-.15.13-.55.08-.8.36-1.06.76-1.62Z"/><path class="cls-33" d="m7.2,25.26l-.07,1.48c-.23-.39-.29-1.17.07-1.48Z"/><path class="cls-28" d="m10.8,24.25c.36.5.39.73.48,1.35.12.1.26.01.39.07l-.28,1c-.17.16-.34.32-.51.48-.34.32-.75.55-1.15.78-.02-.06-.2-.46-.22-.48-.1-.13-.12.08-.12.07-.09-.03-.23-.02-.31-.05.36-.61-.37-.68-.21-.23,0,0-.12.06-.14,0-.32-.93.23-.73.59-1.09.13-.13-.06-.42.46-.43.19-.17-.21-.47-.16-.65,0-.03.17-.09.47-.4.13.13.52-.09.43-.28.17-.03.19-.13.31-.17Z"/><path class="cls-9" d="m9.07,27.48c-.2-.1-.12-.09-.21-.23-.16-.46.58-.38.21.23Z"/><path class="cls-32" d="m10.49,24.42c.09.18-.3.4-.43.28.08-.08.19-.33.29-.38.05-.02.03.12.14.1Z"/><path class="cls-9" d="m9.7,26.04c.5-.13.18.23.19.27.08.26.22-.46.57.19-.58.13-.32.92-.82.79-.3-.08.53-.51-.33-.96,0-.02.36-.29.39-.3Z"/><path class="cls-34" d="m28.38,2.52c1.25.49.78,1.13.22,2.05-.98-.29-7.55-2.59-7.96-2.43-2.43,2.92-6.37,6.84-8.59,9.6-.32.39-.72.83-.63.96,1.78.65,13.24,4.45,13.97,4.53.16.02.35.07.51,0,3.14-3.61,6.53-6.99,9.53-10.72-1.07-.44-2.18-.79-3.27-1.17.06-.26.09-.23.26-.22.17,0,3.21.87,3.36.96.29.18.13.31.15.39-1.61,1.61-3.02,3.4-4.53,5.09-.74.82-5.19,5.47-5.32,5.87-.03.08-.06.38,0,.48-.36.19-1.36-.28-1.8-.41.55-.49-2.09-.93-3.12-1.25-2.98-.94-5.95-1.97-8.92-2.94l-.28.16c-.32-.12-.7-.17-1.03-.27-.02-.03-.03-.49-.02-.54.21-.7,8.54-9.56,9.67-10.98.82.05,5.79,1.89,6.1,1.82.36-.08.43-.91,1.72-.96Z"/><path class="cls-34" d="m12.44,13.89c.41,1.05.44,2.38.96,1.98,0,.02.13.02.18.35-.63,1.2-1.67,2.13-2.46,3.23l.06.09c.43-.31,2.38-3.05,2.57-3.11.22-.07.14.88.05,1.01l-2.53,3.25c-.06.03-.06.09-.11.11-.11-.3-.44-.68-.48-1.1.11-.16.31.13.02-.66.18-.1,2.41-2.47,2.53-2.66.6-1.01-1.1.86-1.65,1.45.04-.49.81-1.2,1.23-1.5l-.8-2.65c.5.19.41.22.44.23Z"/><path class="cls-20" d="m35.53,38.45l17.06-20.55c.03.13.06.3.18.35-5.53,6.28-10.77,12.82-16.29,19.11-.05.05-.49.75-.83,1.13,0,0-.09-.07-.12-.04Z"/><path class="cls-4" d="m31.74,5.17l-.04.12c.13.04.24.16.36.22-.1,0-.11.09-.18.13-.56.32-.98,1.3-1.45,1.75-.16-.05-.81-.14-.87-.21l-.8-2.43c-.01-.12.09-.16.09-.17.02.17.1.08.19.16.21.18.87.46,1.13.47.57.02.95-.9,1-1.4,0,0,0-.13.09-.17l.46,1.54Z"/><path class="cls-16" d="m13.79,17.65c-.62.73-1.76,1.67-.95,2.66.05.06.19-.04.21-.03.19.13.38.19.59.26-.08.3-.25.38-.24.4.01.05.6.19.98.33l-.09.17c0-.17-.9-.37-.99-.36-.1,0-.12-.1-.19.09.04.15.1.29.13.44l-.07.02c-.03-.09-.07-.36-.15-.39-.15.36-.81.76-.73,1.1,0,0-.08,0-.05.09-.17-.08-.4-.32-.6-.29l.87,2.88,1.37.43s.01.04.02.07c.04.13.13.13.15.25-.28-.12-.55-.23-.83-.33-.08-.03-.6-.28-.62-.25-.03.16.09.33.11.48.18,1.28.25,1.67,1.36,1.86-.02.02.2.1,0,.14-.21-.15-.41-.09-.43-.09-.03,0-.36-.26-.49-.18l.36,1.21c.18-.2.17-.22.4-.38l.28.21c-.13-.01-.19-.13-.34-.04l-.99,2.05-.17.05.77-1.58c-.06-.24-.16-.47-.21-.7-.11-.47-.3-.94-.42-1.41-.04-.16-.1-.31-.14-.47-.09-.33-.18-.36-.19-.38,0-.02.05-.33.04-.34-.13-.46-.94-3.5-1.09-3.62-.45-.37-.1,1.56-.83-.22l-.84.98s-.02-.02-.09-.05l1-1.18c.28.52.2.97.38.65.29-.52-.18-1.3-.33-1.84-.03-.11-.08-.22-.1-.34-.03-.2-.18-.46.05-.31.03.42.37.8.48,1.1.03.08.13,1.4.88,1.34.29-.02.72-.81.96-1.06-.86-2.65-.49-1.09-1.73-.39l2.53-3.25c.1.22,0,.21,0,.22Z"/><path class="cls-20" d="m35.93,6.47s.15-.09.16.06l-.12.22c-.31.32-.55.69-.82,1.05-.72.97-1.52,1.84-2.32,2.74,0,0-.04.02-.11.11-.05.06-.47.32-1.14,1.07l-.19-.16c1.52-1.69,2.93-3.48,4.53-5.09Z"/><path class="cls-18" d="m10.69,19.02s-.05.01-.07.02c-.13-.23.53-.79.94-1.23.55-.59,2.25-2.45,1.65-1.45-.11.19-2.35,2.56-2.53,2.66Z"/><path class="cls-34" d="m10.12,19.05c.17.02.15.09.38.03.04-.01.09-.02.13-.04.02,0,.05,0,.07-.02.29.79.09.5-.02.66-.24-.15-.09.11-.05.31-.09,0-.36-.26-.48-.37-.01-.01-.3-.09-.34-.15-.42-.7.08-.44.31-.42Z"/><path class="cls-21" d="m10.62,20c.02.11.07.23.1.34-.31.06.12.33.06.46-.26.62-.72-.9-.64-1.16.12.1.39.37.48.37Z"/><path class="cls-7" d="m11.94,13.46c.24.09.68.32.94.45l.04.13c-.3-.2-.46-.14-.48-.15-.02,0,.07-.04-.44-.23-.22-.08-1.01-.3-1.09-.48.33.1.71.16,1.03.27Z"/><path class="cls-25" d="m10.49,19.08c-.23.06-.21-.02-.38-.03l.38.03Z"/><path class="cls-15" d="m38.26,27.1s-.07.19.08.52c.22-.04.5.15.69.12l-.04.12c2.97,1.28,3.1-.16.51,3.03-2.5-.5-1.08-.59-1.19-.92-.03-.1-1.76-.53-1.97-.72-.09-.26-.54-2.46-.21-2.53.06-.01.56.71.17-.78,0,0-.01-.03.16-.19.62.33,1.34.95,1.5.5l.13.07c-.31.18.06.55.16.79Z"/><path class="cls-7" d="m36.34,20.01c.18.01.27.21.32.34.02.06.05.18.08.27.01.03-.14.33.25.58-.69.91.99-.28,1.69-1.53.63.81-.61,1.34-1.22,2.16.03.27,1.31-1.05,1.41-1.26.69.97-.58,1.3-1.2,2.44.41.04,1.31-1.47,1.42-1.49.16-.02.3.55.29.61-.02.13-1.68,1.65-1.87,1.91-.06.02-1.07-.24-1.23-.07-.2-.11-.09-.34-.3-.5l.82-1.16c-.31-.23-.3-.66-.38-.76-.09-.13-2.67-.75-3.04-.88-.05-.18-.15-.36-.09-.56.7.05,2.62.79,2.74.71.15-.1-.05-.36.01-.44.1-.12.52.32.29-.38Z"/><path class="cls-20" d="m37.27,15.05c0,.76.74.69.17,1.05-.37-.7-.27.79.1.34.06.11.08.28.33.38-.07.3-.03.92.37.99l.11.84c-.5.56-1.12,1.8-1.68,1.71-.05-.14-.14-.33-.32-.34-.06-.19-.3-.59-.52-.5,0-.01-.16-.06-.15-.25.99.87,2.63-1.7,2.01-1.33-.06-.12-.07-.32-.12-.4-.05-.08.01-.17-.21-.08-.56.21-1.63,2.25-2.22-.21l-.04-.13c.5-.04.48.18.2.42.49,0,.33.56.58.59.74-.25,1.07-1.13,1.8-1.05-.48-.54-1.13.56-1.71.88-.92-1.02.37-1.2,1.12-2.46.01-.02-.04-.07.17-.42Z"/><path class="cls-34" d="m27.3,23.97c.21.04.48.15.58.12.96-1.06,1.91-2.14,2.87-3.2.5.4-1.38,1.46-.56,1.78-.29.33-1.9,2.27-2.12,2.32-1.83-.36-5.46-1.92-6.68-2.16-.51-.88,3.65.92,5.02,1.27.85.22,1.17.33.88-.12Z"/><path class="cls-12" d="m32.29,16.99c.08.21.08.54.3.64.05.02.99.08.97-.29.12.03.04-.03.22,0-.05.12.02.28-.03.38-.07.12-1.74,1.77-1.96,1.98-.03.03-.05-.11-.59.47l-1.45-.44c.43-.57.93-1.11,1.4-1.66l1.14-1.07Z"/><path class="cls-30" d="m24.19,31.33c0,.38.19.93.32,1.29.18.51.41,1,.66,1.48l-.88.7c-.1-.04-.23,0-.32-.09l.46-.65-.06-.09c-.03.08-.07.13-.13.18-.07-.06-.22-.05-.31-.05.44-.64-1.93-.48-1.57-.11-.02,0-.26.02-.45-.05-.13-.41-.25-.83-.37-1.24.63-.2,1.65.72,2.39.52.56-.14.07-.54.01-.81-.1-.43-.14-.88-.32-1.29.2.06.38.14.57.19Z"/><path class="cls-23" d="m33.76,17.72l2.05.74c.33,1,.1.54.47.11.06.3.33.39.59.26-.07.06-.3.38-.35.4-.29.09-.81-.36-.83.03,0,.19.14.23.15.25.34,1.27-.11.7-.41-.86l-1.58-.51-.99,1.21c.81.69,3.31.66,2.95,1.19-.08.11-2.34-.72-2.63-.74-.14.02-.69.61-.83.76l-.53-.79-.02-.07c.23-.2,1.89-1.86,1.96-1.98Z"/><path class="cls-20" d="m37.96,13.46c.14.05.28.09.42.17-.37.19-.72.05-.74.08-.07.09.13.16-.03.52-.27-.95-1.13-.95-.47.4.06.06.4-.29.42-.31.09.04,0,.08.08.27-.14.15-.26.29-.37.48-.21.35-.16.4-.17.42-.65.37-1.28,1.58-2.06,1.42-.02,0-.07.04-.09-.05.21-.43,2.25-1.96,1.97-2.2-.2-.03-.54-.19-.57-.19-.15-.03-.16,0-.22,0-.15-.01-.48-.08-.56-.05-.13.05-.32.43-.47.51,0-.02-.18-.03-.1-.34.31-.08,1.36-1.11,1.65-1.45.37.13,1.03.24,1.31.34Z"/><path class="cls-15" d="m39.72,17.38s.11-.05.14,0c.31.43.89,2.94,1.2,3.73.1.05.1-.14.1-.14.25.04.23.07.24.07.31.32-.49.69-.48,1.09-.18-.03-1.04-.19-1.11-.29-.4-1.24-.68-2.5-1.05-3.74.26-.06-.08-.99.26-.84,1,1.43,1.52,3.13.69.12Z"/><path class="cls-12" d="m38.37,13.62c.05.03.21,0,.23.04.35,1.25.78,2.47,1.12,3.72.83,3.01.3,1.31-.69-.12-.34-.15,0,.78-.26.84-.35-1.18-.67-2.38-1.13-3.53-.08-.19.01-.23-.08-.27,0,0,.04-.08.05-.09.16-.36-.04-.43.03-.52.02-.03.37.11.74-.08Z"/><path class="cls-20" d="m38.8,12.62c.23.67.26,1.54.45,2.24.57,2.05,1.21,4.1,1.91,6.11,0,0,0,.2-.1.14-.3-.79-.88-3.3-1.2-3.73-.03-.05-.1,0-.14,0-.34-1.25-.77-2.47-1.12-3.72-.02-.03-.18,0-.23-.04-.13-.08-.27-.11-.42-.17l-1.21-.62c-.07-.21-.11-.43-.19-.64l2.25.42Z"/><path class="cls-16" d="m29.62,33.86c.98,1.16-.37.26-.79.16-.46-.1-1.05-.04-1.23-.07-.13-.03-.18.03-.29.01-.78-.15-1.53-.47-2.29-.7-.22.36.35.51.14.83-.25-.48-.48-.97-.66-1.48,1.74.28,3.43.76,5.12,1.24Z"/><path class="cls-21" d="m31.59,11.72c-.78.88-5.05,5.94-5.52,6.19-.06-.09-.02-.4,0-.48.13-.4,4.58-5.05,5.32-5.87l.19.16Z"/><path class="cls-12" d="m39.07,24.45s.03.08.04.13c-.29.15-.38.9-.05.82-.1.09-.27.41-.47.4-.05-.05-.25-.96-.27-1.13,0,0,.14-.02.12-.07-.07-.26-.16-.15-.12.07-.33-.24-.17.04-.25.15l-1.4-.27c.36-.61.75-.29,1.34-.29-.59-.38-.17-.3.48-.95.7.77.81.45.88.5.21.14-.29.45-.32.64Z"/><path class="cls-20" d="m31.81,19.76l.53.79c-.08.09-.72.86-.68.9.28.02.36-.35.71-.54.27-.15.29-.24.56-.09l-1.09,1.35-.33-.96-.12.07-.14-.21c.06-.09.09-.19.13-.29.08-.22.52-.48.15-.7.01-.02.07-.26.27-.3Z"/><path class="cls-20" d="m36.99,21.2c-.39-.26-.24-.55-.25-.58.6.09,1.57-1.97,1.81-1.75.62.56-1.47,2.21-1.56,2.33Z"/><path class="cls-34" d="m38.8,12.62l-2.25-.42c-.04-.11-.22-.31-.28-.68.06-.24,1.98.6,2.26.6.19.06.19.3.26.51Z"/><path class="cls-4" d="m39.97,24.54s-.09.03-.13.04c-.06-.11-.08-.51-.26-.51-.11,0-.27.45-.51.37.03-.19.53-.51.32-.64-.07-.05-.18.27-.88-.5.78-.78,1.16-1.41,1.09-.51,0,.09-.67.83.08.27-.14.53.33.8.3,1.48Z"/><path class="cls-25" d="m29.62,33.86c.11.03.26.09.38.03.12.37.16.73.26,1.09l-2.65-.81v-.22c.18.03.78-.03,1.23.07.42.09,1.78.99.79-.16Z"/><path class="cls-21" d="m31.38,20.77c-.04.11-.07.2-.13.29l.14.21c-.34.51-.79.92-1.19,1.38-.82-.32,1.06-1.37.56-1.78.24-.26.47-.53.71-.8.11.29-.32.5-.09.68Z"/><path class="cls-20" d="m36.92,14.64l-1.61,1.58c-.09-.03-.13-.36-.17-.46-.05-.12-.08-.14-.2-.19.14-.12.27.09.15-.23.45-.06.9-.6,1.27-.89.03,0,.37.16.57.19Z"/><path class="cls-25" d="m40.93,22.14c-.02-.41.78-.77.48-1.09.37.07.73.13,1.09.22l-.96,1.06c-.31.02-.57-.18-.6-.18Z"/><path class="cls-34" d="m35.43,12.1l-.56-.42c.17-.2.56-.94.97-1.13.4,1.05.18.87-.41,1.55Z"/><path class="cls-21" d="m31.61,13.98c.11.36-.84,1.24-1.15,1.52-.06-.24-.19-.44-.1-.7.02-.07.97-1.12,1.05-1.12.14,0,.17.21.2.3Z"/><path class="cls-14" d="m38.33,24.67c.02.17.21,1.07.27,1.13.19.02.36-.3.47-.4.11-.09.18-.2.27-.3.02-.02.11-.02.13-.04.23.6.48,1.59.66,1.48-.86.72-.5.88-1.88.56-.1-.24-.48-.61-.16-.79l-.13-.07c-.16.46-.88-.17-1.5-.5.08-.07.15-.14.23-.21,2.91,1.1.61.23.57-.06-.03-.18.99-.25.29-.49l.13-.04c.57.06.37-.07.4-.12.08-.11-.08-.39.25-.15Z"/><path class="cls-15" d="m39.97,24.54c.1,0,1.31.43,1.68.48-.38.41-.76.81-1.18,1.19-.34-.43-.35-1.23-.43-1.44-.01-.03-.14-.04-.18-.13-.01-.02,0-.05-.02-.07.04,0,.1-.04.13-.04Z"/><path class="cls-12" d="m39.86,24.65c.04.08.17.1.18.13.08.21.09,1.01.43,1.44-.12.11-.21.21-.34.32-.19.11-.44-.88-.66-1.48.12-.12.18-.36.39-.41Z"/><path class="cls-23" d="m12.92,14.04c.2.61.37,1.2.48,1.83-.52.4-.55-.93-.96-1.98.02,0,.18-.05.48.15Z"/><path class="cls-4" d="m42.13,27.33c-.15-.3-1.44.76-1.25.96-.26-.05-.48-.15-.72-.22.19-.94,1.59-1.96,2.23-2.79.16.03,1.18.24,1.2.33-.35.49-1.2,1.34-1.46,1.72Z"/><path class="cls-12" d="m42.39,25.28c-.64.83-2.04,1.85-2.23,2.79-.38-.1-.76-.15-1.12-.32.48-.08,2.34-2.06,2.77-2.59.29-.13.55.11.58.12Z"/><path class="cls-23" d="m42.13,27.33c-.46.68-.22.65-.51,1.1-.19.1-.55-.11-.74-.14-.19-.2,1.1-1.26,1.25-.96Z"/><path class="cls-20" d="m36.13,14.44l-.83.76c-.18-.05-.14-.2-.2-.3.15-.08.34-.46.47-.51.09-.03.41.04.56.05Z"/><path class="cls-23" d="m37.43,16.1c.05.09.05.24.1.34-.37.46-.47-1.04-.1-.34Z"/><path class="cls-20" d="m31.38,20.77c-.23-.19.2-.39.09-.68.01-.01.05,0,.07-.02.37.22-.08.48-.15.7Z"/><path class="cls-15" d="m23.93,32.43c.06.27.54.66-.01.81-.74.19-1.75-.73-2.39-.52-.05-.17-.07-.45-.17-.82-.02-.07-.04-.13-.06-.2l2.63.74Z"/><path class="cls-15" d="m20.75,31.34c.07.22.12.46.2.67l-2.16-.37c1.19-.81,1.72-1.28,1.96-.3Z"/><path class="cls-21" d="m20.93,30.49c.11.4.25.8.36,1.21.02.07.04.13.06.2-.13.08.2,1.52-.21.76-.02-.03-.08-.34-.19-.64-.08-.22-.13-.45-.2-.67-.09-.29-.17-.58-.26-.87h.44Z"/><path class="cls-23" d="m23.93,34.12c-.51-.02-1.07,0-1.57-.11-.36-.37,2.01-.53,1.57.11Z"/><path class="cls-16" d="m9.72,27.94s-.08.02.03.36c.22.66.51,1.39.69,2.06.07.25.03.58.17.82h-.14q-.54-1.79-1.08-3.58l-.02-.07s.03-.2.12-.07c.02.02.2.42.22.48Z"/><path class="cls-34" d="m7.97,22.62c-1.08.29-2.03,2.09-1.15,2.98-.05.17-.34.45.1,1.32.11.21.34.29.4.35.65.62,1.29.74,2.07.33l1.08,3.59h.14s.06.08-.18.12c-.78-.23-1.59-.43-1.03-.13.31.16,2.97.87,3.69,1.08l.03-.15c-.72-.14-1.41-.4-2.12-.61.24-.22,1.44-.69,1.65-.71.18-.02.6.29.97.07l1.86-1c.02.18.16.44.19.64l-.1.28-2.93,3.37.04.13,2.79.77,1.65-1.81c2.26.82,1.28.57,1.3,1.03.02.45.31-.3.52-.34.9.41,4.31,1.16,3.02,1.29-.04,0-1.16-.25-.42.05.31.13,1.02.05.89-.31-.09-.26-4.68-1.39-5.24-1.86.39-.65,1.02-1.07,1.6-1.47l2.16.37c.11.29.18.61.19.64.41.76.08-.68.21-.76.1.38.12.66.17.82.13.41.25.83.37,1.24.19.06.43.04.45.05.5.12,1.06.1,1.57.11.09,0,.24,0,.31.05-.4.4-2.35,2.99-2.56,3.03-5.79-1.73-11.62-3.33-17.41-5.03.77-1.05,1.64-2.17,1.24-.85.72-.39-.48-.64.76-.74.25.06.5.11.76.1-.16-.18-.54-.12-.76-.1-.19-.05-.39-.05-.56-.16.85-1.2.66-.76,1.96-.52-.91,1.22-.24.14.53.06l-1.87-.5-2.34,2.68-2.3-.73,4.79-5.57.12-.22c-.03-.24-.18-.12-.18-.13-.15-1.38.07-2.5,1.55-2.88Z"/><path class="cls-21" d="m14.18,28.42c.13.01,1.25.32,1.28.38-.14.64.01.91.02,1.05l-1.86,1c-.37.22-.79-.09-.97-.07-.21.02-1.41.49-1.65.71-.19-.06-.38-.14-.57-.19.24-.04.17-.12.18-.13.39-.19,1.54-.49,2.06-.69l.17-.05.99-2.05c.15-.08.21.03.34.04Z"/><path class="cls-18" d="m10.44,31.3c.19.06.38.14.57.19.7.21,1.4.46,2.12.61l-.03.15c-.72-.21-3.38-.92-3.69-1.08-.56-.3.25-.1,1.03.13Z"/><path class="cls-18" d="m6.28,30.58c.22-.02.6-.08.76.1-.26.01-.51-.04-.76-.1Z"/><path class="cls-34" d="m12.48,25.94c-.09.04-.23-.01-.31-.05-.15-.07-.27-.17-.44-.23.08-1.31-.83-2.38-1.97-2.91l.84-.98c.73,1.79.38-.15.83.22.15.12.95,3.16,1.09,3.62,0,.02-.05.33-.04.34Z"/><path class="cls-4" d="m11.15,20.79c.06-.02.05-.07.11-.11,1.24-.7.87-2.25,1.73.39-.24.24-.67,1.03-.96,1.06-.75.06-.85-1.26-.88-1.34Z"/><path class="cls-34" d="m31.27,3.63c-.1.04-.09.17-.09.17-.13.21-.46.64-.62.84l-1.51-.42c.23-.63.62-1.07-.13-1.64-.09-.43,2.57.55,2.36,1.04Z"/><path class="cls-20" d="m30.56,4.65c-.11.13-.19.3-.27.45l-1.24-.36c-.1-.08-.18,0-.19-.16.05-.23.18-.33.19-.35l1.51.42Z"/><path class="cls-16" d="m29.05,4.74l1.24.36c.08-.15.16-.31.27-.45.17-.2.49-.63.62-.84-.06.5-.44,1.42-1,1.4-.26,0-.92-.28-1.13-.47Z"/><path class="cls-23" d="m14.03,25.76c.32.13.64.24.98.33l-.67,1.19c-.06.06-.21.18-.29.23-1.11-.19-1.18-.58-1.36-1.86l.52-.23c.28.1.55.22.83.33Z"/><path class="cls-20" d="m14.27,21.45l.41,1.48-1.12-.21c-.07-.21-.11-.43-.19-.64.38-.18.18-.71-.08-1,.09,0,.98.19.99.36Z"/><path class="cls-23" d="m13.16,21.64c.06.16.36,1.01.22,1.1l-1.11-.4c-.08-.33.58-.73.73-1.1.08.03.12.3.15.39Z"/><path class="cls-23" d="m12.17,25.89c.07.52-1.03,1.08-.81,1.19-.07.03-.29.31-.49.07.17-.16.34-.32.51-.48l.28-1s.05-.03.07-.02c.17.07.28.16.44.23Z"/><path class="cls-34" d="m12.81,26.79c.12.47.32.93.42,1.41l-2.79,2.15c-.18-.66-.47-1.4-.69-2.06l3.06-1.5Z"/><path class="cls-20" d="m13.23,28.2c.05.24.15.47.21.7l-.77,1.58c-.52.2-1.67.5-2.06.69-.15-.24-.11-.57-.17-.82l2.79-2.15Z"/><path class="cls-20" d="m12.67,26.32c.04.16.1.31.14.47l-3.06,1.5c-.11-.34-.03-.34-.03-.36.4-.23.81-.47,1.15-.78.2.24.42-.05.49-.07.54-.23.93-.49,1.31-.76Z"/><path class="cls-27" d="m12.48,25.94s.1.05.19.38c-.38.26-.77.53-1.31.76-.22-.11.88-.67.81-1.19.08.04.21.09.31.05Z"/><path class="cls-20" d="m13.63,27.57c.04.24.12.17.13.18.03.06-.08.12-.02.19.05.05.13-.02.14,0,.1.07.12.18.13.18-.17.02-.11.1-.11.11-.23.16-.22.18-.4.38l-.36-1.21c.13-.08.47.18.49.18Z"/><path class="cls-23" d="m13.29,21.09c.26.29.46.82.08,1-.05-.14-.11-.32-.14-.47-.03-.15-.09-.29-.13-.44.08-.2.09-.09.19-.09Z"/><path class="cls-34" d="m13.2,25.43l-.52.23c-.02-.15-.14-.32-.11-.48.02-.03.55.22.62.25Z"/><path class="cls-18" d="m29.76,33.09c.09.27.15.54.24.8-.12.05-.26,0-.38-.03-1.69-.48-3.38-.95-5.12-1.24-.13-.36-.32-.92-.32-1.29,1.86.56,3.73,1.12,5.57,1.76Z"/><path class="cls-34" d="m27.3,23.97c.29.44-.02.33-.88.12-1.37-.35-5.53-2.14-5.02-1.27-.08-.02-.37-.15-.39-.07.44,1.17.86,3.25,1.27,4.22.02.04.3-.06.4.61,0,.15-1.1,1.29-1.3,1.52-.1.11-.57.48-.56.57,2.8,1.08,5.79,1.86,8.68,2.76.28-.05,3.36-3.61,3.83-4.15.13-.08.23.1.34.04.16-.08,2.3-2.47,2.39-2.62l.08.27c-1.23,1.22-5.06,5.52-6.12,6.88-.08.11-.13.22-.29.23-1.84-.64-3.71-1.2-5.57-1.76-.19-.06-.37-.14-.57-.19-.83-.24-1.65-.53-2.47-.79h-.22q0,.07,0,.14h-.44c-.75-.33-1.74-.46-2.48-.73-.43-.16-.59-.2-1.01-.43-.42-.22-.67-.31-.69-.34-.04-.08.16-.38.21-.39.18-.06,3.22,1.01,3.73,1l1.39-1.33c-.73-.34-6.08-1.73-6.29-1.98-.03-.03-.05-.14-.02-.18,2.93.62,2.26,1.27,1.35-2.2-.71-.34-2.57-.6-1.92-.92.29-.14,5.36,1.7,6.1,1.82l-.44-1.58c-2-.71-4.07-1.21-6.06-1.94-.38-.14-.96-.28-.98-.33,0-.02.17-.1.24-.4,2.2.76,4.53,1.27,6.72,2.07.47-.05.59-.74.97-.66.36.01,4.86,1.81,5.97,2Z"/><path class="cls-18" d="m36.56,24.62c0,.09-.09.2-.14.26-.15.16-.29.34-.44.5-.88.97-1.76,1.93-2.63,2.91-.47.53-3.55,4.1-3.83,4.15-2.89-.9-5.88-1.68-8.68-2.76,0-.09.46-.46.56-.57l.02.07s-.1.31-.42.42c2.77,1.03,5.72,1.78,8.55,2.69.65-.66,1.24-1.36,1.82-2.08.14-.17.3-.31.44-.5.07-.09.25-.2.37-.48.36-.22.54-.62.82-.91.45-.46.89-.95,1.33-1.42.7-.76,1.55-1.54,2.06-2.37.11.02.07.07.17.09Z"/><path class="cls-18" d="m16.82,23.98l2.37.71.7,2.68-2.28-.67-.78-2.72Z"/><path class="cls-18" d="m19.39,24.74l1.65.49.72,2.74-1.65-.49-.72-2.74Z"/><path class="cls-18" d="m23.62,31.14c.18.41.22.86.32,1.29l-2.63-.74c-.11-.4-.25-.8-.36-1.21v-.14q.1,0,.21,0c.82.26,1.64.55,2.47.79Z"/><path class="cls-18" d="m35.83,19.5c.22-.09.45.31.52.5.24.7-.19.26-.29.38-.06.08.14.34-.01.44-.12.08-2.03-.66-2.74-.71-.11-.27-.66.42-.93.79-.35.2-.44.56-.71.54-.04-.04.6-.81.68-.9.14-.15.69-.74.83-.76.29.03,2.56.86,2.63.74.36-.53-2.14-.5-2.95-1.19l.99-1.21,1.58.51c.3,1.56.75,2.13.41.86Z"/><path class="cls-21" d="m21.59,21.23c-.62-.35-2.78-.65-3.53-.69-2.1-.12-1.32.12-1.6.26-.2.1-1.51-.36-1.84-.18-.13-.04-.26-.07-.4-.1.18-.5.2-.26.41-.34.06-.02.11.13.29-.23,0,0-.06-.11,0-.14.18-.12,1.22-.68,1.27-.38.21-.43.47.13.35-.4.66.19,5.13,1.52,5.36,1.68.26.17-.13.31-.31.53Z"/><path class="cls-34" d="m21.59,21.23c-.19.23-.98,1.2-1.2,1.24-1.94-.55-3.84-1.29-5.78-1.84.34-.18,1.65.27,1.84.18.28-.14-.49-.38,1.6-.26.75.04,2.92.34,3.53.69Z"/><path class="cls-4" d="m13.79,17.65s.22.27.32.82c.54.12,1.1.2,1.64.35-.51.77-1.74.67-2.08,1.58-.2-.04-.4-.13-.62-.11-.02-.01-.16.09-.21.03-.8-1,.34-1.93.95-2.66Z"/><path class="cls-23" d="m16.54,19.02c.12.53-.14-.03-.35.4-.06-.3-1.09.27-1.27.38-.05.03.01.14,0,.14-.09.07-.31.01-.29.23-.21.08-.23-.16-.41.34-.19-.05-.36-.09-.55-.13.34-.91,1.58-.81,2.08-1.58.26.07.53.13.79.2Z"/><path class="cls-20" d="m14.92,19.95c-.19.36-.24.21-.29.23-.01-.22.21-.17.29-.23Z"/><path class="cls-23" d="m30.13,35.54c.05,0,.21,0,.29-.01.06.17.42.49-.15.7-.06-.02-1.14-.1-.13-.69Z"/><path class="cls-18" d="m34.63,17.45l.42.53-.15-.61s-.14-.24.25-.15c.59,2.46,1.66.42,2.22.21.22-.08.16,0,.21.08-.35.27-1.04.76-1.29,1.05-.37.43-.14.88-.47-.11l-2.05-.74c.06-.09-.02-.26.03-.38.26.05.6.18.84.11Z"/><path class="cls-16" d="m37.1,15.47c-.76,1.25-2.05,1.44-1.12,2.46.58-.32,1.23-1.41,1.71-.88-.73-.08-1.06.8-1.8,1.05-.25-.03-.09-.59-.58-.59.28-.24.3-.45-.2-.42l-.06-.2c.77.16,1.4-1.05,2.06-1.42Z"/><path class="cls-26" d="m37.57,17.52c.05.08.07.28.12.4-.22.33-.53.65-.82.91-.26.12-.53.04-.59-.26.25-.28.94-.78,1.29-1.05Z"/><path class="cls-18" d="m35.68,19.26c.02-.39.54.06.83-.03.06-.02.29-.34.35-.4.3-.26.61-.57.82-.91.62-.37-1.02,2.2-2.01,1.33Z"/><path class="cls-20" d="m35,14.57c-.94.26-.98-.69-1.03-.75-.35-.4-.68,1.33-2.25.42.29,1.3-.17,1.13-.9,2.1-.17,0-.33-.69-.36-.84.31-.28,1.26-1.16,1.15-1.52l1.07.26c1.1-1.17,1.14-.57,1.59-.77.34-.15,1.79-1.94,1.92-1.89.9.35-1.64,2-1.66,2.14-.01.09.23.33.28.32.1-.03,0-.37.13-.55.06-.07,1.32-1.19,1.41-1.15.05.02.23.56.22.63-.01.19-1.48,1.28-1.56,1.6Z"/><path class="cls-18" d="m34.1,13.89c.25-.34.6.33.28.43-.29.09-.3-.39-.28-.43Z"/><path class="cls-18" d="m37.6,14.22s-.04.08-.05.09c-.01.02-.36.37-.42.31-.67-1.35.2-1.35.47-.4Z"/><path class="cls-18" d="m37.55,24.98c.7.24-.32.31-.29.49.05.29,2.34,1.16-.57.06.31-.29.37-.72.86-.55Z"/><path class="cls-23" d="m39.84,24.58s.01.05.02.07c-.2.05-.27.29-.39.41-.02.02-.11.02-.13.04-.05-.13-.22-.49-.23-.52,0-.05-.04-.11-.04-.13.24.08.4-.37.51-.37.18,0,.2.4.26.51Z"/><path class="cls-30" d="m39.11,24.58s.17.39.23.52c-.09.1-.17.21-.27.3-.33.08-.24-.67.05-.82Z"/><path class="cls-18" d="m34.95,16.84c-.35.07-.07-.24-.08-.27.3.07.27-.65-.04-.13,0-.02-.15-.3-.17-.31l.48-.36c.05.1.09.43.17.46l1.61-1.58c.29.24-1.76,1.77-1.97,2.2Z"/><path class="cls-20" d="m35.26,8.64c-.66.23-.35.69-.08,1.19-.16.24-.35.45-.53.67-.25-.67-.24-1.29-.54-1.08.34-.39.65-.84.98-1.24.08.03.14.35.17.46Z"/><path class="cls-34" d="m35.18,9.83c-.27-.5-.58-.96.08-1.19.42,1.18.12.89-.08,1.19Z"/><path class="cls-20" d="m34.11,9.43c.3-.21.3.41.54,1.08-1.63,1.95.19.05.83-.76.74.33-.55,1.61-.84,1.71-.32-.16-.98.25-1.1.48-.32-.36-.54-1.29-.07-.35l-.03-.47c-.31-.12-.27-.45-.73-.48.07-.08.11-.1.11-.11.08-.02.35.19.38.18.11-.06-.21-.14-.05-.42.07-.13.8-.7.94-.87Z"/><path class="cls-16" d="m33.56,11.12c.06-.17.2.38.1.34-.08-.04-.13-.25-.1-.34Z"/><path class="cls-27" d="m30.64,34.58c.02.07.04.13.06.2.08.27.16.54.24.8.06.22.14.44.2.67,0,0-.1.16-.09.17-.79.03-.75-.18-.79-.2.58-.22.21-.53.15-.7-.01-.04.13-.32-.26-.4.05-.13.11-.13.1-.14-.09-.37-.13-.72-.26-1.09-.09-.27-.16-.54-.24-.8.16-.01.21-.13.29-.23.29.53.42,1.15.59,1.72Z"/><path class="cls-21" d="m35.98,25.38c.4-.03.21.16.1.34-.09.15-2.23,2.54-2.39,2.62-.11.06-.21-.13-.34-.04.87-.98,1.75-1.94,2.63-2.91Z"/><path class="cls-34" d="m22.72,27.9c.39.08,2.8.96,2.95.94.21-.03.17-.25.4-.26.99.31,2.01.56,2.98.93-.48.33,1.51.56,2.33.69-.58.72-1.17,1.43-1.82,2.08-2.84-.91-5.79-1.66-8.55-2.69.32-.11.4-.4.42-.42.33-.36.92-.94,1.3-1.27Z"/><path class="cls-12" d="m36.39,24.52c-.52.84-1.37,1.61-2.06,2.37-.24-.02-.27-.04-.52-.14.1.25-1.08,1.3-1.26,1.4-.4.23-1.91.73-2.15.5,1.29-1.56,2.62-3.08,4-4.56.66.16,1.33.28,1.99.42Z"/><path class="cls-4" d="m34.32,26.9c-.44.48-.87.96-1.33,1.42-.52.5-.6-.02-.7,0-.11.01-1.86.65-2.06.8,1.43.21,2.29-.72,1.93.11-.24.11-2.16.25-2.55.26,0-.12.67-.69.78-.82.24.23,1.75-.27,2.15-.5.18-.1,1.36-1.15,1.26-1.4.25.1.28.12.52.14Z"/><path class="cls-21" d="m29.04,29.51l.36.11c.09,0,.09-.13.21-.14.03.46,1.86.22,2.19.22-.14.19-.3.32-.44.5-.81-.13-2.81-.35-2.33-.69Z"/><path class="cls-20" d="m37.68,24.94l-.13.04c-.49-.17-.55.26-.86.55-.08.07-.15.14-.23.21-.17.17-.15.19-.16.19-.02.02-.11.02-.13.04l-.08-.27c.11-.18.3-.37-.1-.34.15-.16.29-.33.44-.5.15.21.3-.03.29-.23.26.06.85.28.97.29Z"/><path class="cls-20" d="m36.72,24.64c0,.2-.15.45-.29.23.05-.06.14-.17.14-.26.05.01.11.02.15.03Z"/><path class="cls-23" d="m33,28.32c-.28.29-.47.69-.82.91.35-.83-.51.1-1.93-.11.2-.15,1.95-.79,2.06-.8.09-.01.18.51.7,0Z"/><path class="cls-21" d="m32.17,29.23c-.12.28-.3.38-.37.48-.33,0-2.15.24-2.19-.22.4,0,2.32-.15,2.55-.26Z"/><path class="cls-21" d="m34.89,17.37l.15.61-.42-.53c.08-.02.21-.05.27-.08Z"/><path class="cls-21" d="m34.87,16.58s-.02-.09-.04-.13c.31-.51.35.21.04.13Z"/><path class="cls-14" d="m38.33,24.67c-.04-.23.06-.33.12-.07.01.06-.12.07-.12.07Z"/><path class="cls-20" d="m27.24,34.21c-.1.17-.9,1.23-.98,1.24-.54-.22-1.11-.33-1.66-.53.05-.25.96.05.86-.3-.01-.04-.52.02.06-.27.07-.03.8-.02.3-.46,0,0-.03-.13.15-.12.07,0,1.02.4,1.26.42Z"/><path class="cls-20" d="m27.32,33.97c.08.13-.02.16-.07.24-.24-.03-1.19-.42-1.26-.42-.18-.01-.14.12-.15.12-.14.02-.39-.04-.41-.02-.07.05-.14.61.11.48-.59.3-.07.24-.06.27.1.34-.81.04-.86.3-.11-.04-.22-.07-.33-.12l.88-.7c.21-.33-.36-.47-.14-.83.76.23,1.51.55,2.29.7Z"/><path class="cls-27" d="m25.84,33.91c.49.43-.23.42-.3.46-.25.13-.18-.43-.11-.48.02-.01.27.04.41.02Z"/><path class="cls-18" d="m13.37,22.09c.08.21.12.43.19.64l1.12.21-.41-1.48.09-.17c1.99.73,4.07,1.23,6.06,1.94l.44,1.58c-.74-.12-5.81-1.96-6.1-1.82-.65.32,1.21.58,1.92.92.91,3.46,1.58,2.82-1.35,2.2-.04.04,0,.15.02.18.21.25,5.56,1.64,6.29,1.98l-1.39,1.33c-.52.02-3.55-1.05-3.73-1-.05.02-.25.31-.21.39.02.03.27.12.69.34-2.18-.49-.84.34-1.24,1.94l2.01.75c.35-.09.65-.48.69-.5.16-.11,1.1-.71,1.06-.87-.52-.2-.96-.77-1.52-.68-.03-.11-.09-.2,0-.22.74.27,1.73.4,2.48.72.09.29.17.58.26.87-.24-.98-.76-.51-1.96.3-.59.4-1.22.82-1.6,1.47.56.47,5.14,1.6,5.24,1.86.12.35-.59.43-.89.31-.74-.3.38-.05.42-.05,1.3-.13-2.12-.87-3.02-1.29-.21.04-.5.79-.52.34-.02-.46.97-.21-1.3-1.03l-1.65,1.81-2.79-.77-.04-.13,2.93-3.37.1-.28c-.03-.2-.17-.46-.19-.64-.01-.14-.17-.41-.02-1.05-.03-.06-1.15-.37-1.28-.38l-.28-.21s-.05-.08.11-.11c.06.03,1.13.23,1.32.26.16.03.21,0,.22,0,.01,0-.01.04.24.07.22.03.59.17.61.07-.45-1.17-.23-1.77-.97-2.01-.65-.21-.45-.02-.56.09-.16.17-.25.38-.53.67l.67-1.19c-.34-.09-.65-.19-.98-.33-.02-.12-.11-.12-.15-.25.44.05.86.16,1.3.19.17.01.44.11.45.05-.19-.45-.52-1.96-.63-2.11-.03-.04-.54-.14-.9-.31-.07-.03.05-.2-.03-.21-.67-.03-1.26-.39-1.85-.69-.03-.08.05-.08.05-.09l1.11.4c.14-.09-.16-.94-.22-1.1l.07-.02c.03.15.09.33.14.47Z"/><path class="cls-25" d="m14.51,32.34c.11-.03,1.94.66,2.24.75-.79,1.26-.89.58-1.28.49-.18-.04-1.67-.29-1.69-.4.15-.1.68-.83.73-.84Z"/><path class="cls-14" d="m15.21,31.26c1.5.79,2.85.6,1.37,1.63l-1.99-.68.63-.96Z"/><path class="cls-13" d="m13.44,33.39c.12-.06,2.48.45,2.5.67,0,.04-.51.7-.55.71-.08.02-1.43-.42-1.49-.46-.05-.03-.72-.79-.46-.92Z"/><path class="cls-20" d="m17.01,29.33c.42.22.57.27,1.01.43-.1.02-.04.12,0,.22.14.52.32,1.03.46,1.54-.04.02-.34.41-.69.5l-2.01-.75c.41-1.6-.94-2.43,1.24-1.94Z"/><path class="cls-14" d="m18.47,31.52c-.15-.52-.32-1.03-.46-1.54.56-.1,1,.48,1.52.68.05.15-.9.76-1.06.87Z"/><path class="cls-23" d="m12.23,22.43c.59.29,1.18.65,1.85.69.07,0-.04.18.03.21-.12.69-.41,1.43-.24,2.12l-1.37-.43-.87-2.88c.2-.03.43.21.6.29Z"/><path class="cls-4" d="m15.01,23.65c-.38.45.03,1.45.18,2.06-.44-.03-.86-.15-1.3-.19,0-.02-.01-.04-.02-.07-.17-.69.12-1.43.24-2.12.36.18.87.27.9.31Z"/><path class="cls-20" d="m15.19,25.71c-.15-.62-.56-1.61-.18-2.06.12.15.45,1.66.63,2.11-.01.07-.28-.03-.45-.05Z"/><path class="cls-4" d="m15.33,28.37c-.19-.03-1.26-.23-1.32-.26,0,0-.03-.11-.13-.18l.12-.07-.25-.11s-.09.06-.13-.18c.02,0,.22-.05.43.09.19-.04-.03-.13,0-.14.08-.06.23-.17.29-.23.28-.29.37-.5.53-.67l.46,1.76Z"/><path class="cls-21" d="m15.79,28.45l-.44-1.7c.03-.08,0-.22.07-.24.74.24.52.84.97,2.01-.02.1-.39-.04-.61-.07Z"/><path class="cls-23" d="m15.43,26.51c-.08.02-.04.16-.07.24-.24.59.22.96.2,1.62-.01,0-.06.02-.22,0l-.46-1.76c.11-.11-.09-.31.56-.09Z"/><path class="cls-20" d="m15.79,28.45c-.25-.03-.23-.07-.24-.07.02-.66-.43-1.03-.2-1.62l.44,1.7Z"/><path class="cls-34" d="m32.06,5.51c.31.17,2.55.78,3.15.99.07.12-.6.72-.7.83-.47-.56-1.2-.79-1.8-1.14-.15-.09-.28-.21-.46-.3-.12-.07-.26-.17-.37-.25.07-.04.08-.13.18-.13Z"/><path class="cls-21" d="m34.51,7.33c-.25.31-.5.59-.76.89-.6-.18-1.22-.33-1.82-.47.51-.36.57-1.02.78-1.55.6.35,1.33.58,1.8,1.14Z"/><path class="cls-23" d="m31.88,5.64c.11.08.25.19.37.25-.4.51.08.74-.78,1.77-.34-.09-.69-.17-1.03-.27.47-.45.89-1.43,1.45-1.75Z"/><path class="cls-20" d="m32.7,6.2c-.21.53-.27,1.19-.78,1.55-.15-.04-.31-.04-.46-.08.86-1.03.38-1.26.78-1.77.18.1.3.21.46.3Z"/><path class="cls-16" d="m13.88,27.93s-.1.06-.14,0c-.06-.07.04-.13.02-.19l.25.11-.12.07Z"/><path class="cls-21" d="m27.6,34.18l2.65.81s-.06.01-.1.14c.4.08.25.36.26.4-.07,0-.24.02-.29.01,0,0,0-.12-.07-.12-.09,0-.19.26-.76.01-.1-.79-1.03-.23-.58.25-.82.07-1.28-.14-2.02-.41.18-.4.48-.64.68-1.01l.23-.07Z"/><path class="cls-34" d="m26.68,35.26c.75.28,1.2.48,2.02.41.04,0,.27.26.58-.25.58.25.68-.01.76-.01.06,0,.06.12.07.12-1,.59.07.67.13.69.04.02,0,.23.79.2,0,.02.01.05.02.07.04.11.03.19.18.24l2.12-.49c.03-.11.27-.57.29-.6.02-.03.23,0,.23-.21.17-.06.3-.09.47-.14l.3.27c-1.41.38-.87.43.34.26.3-.25.32-.44.33-.47,0,0,.11-.03.18-.13l.33.12c-.22.29-1.81,2.31-1.96,2.34-2.42-.85-5-1.37-7.37-2.28.05-.16.17-.15.17-.16Z"/><path class="cls-15" d="m34.31,34.14c-.07.06-.28.14-.31.17-.49.43-.61.3-.5.52-.16.07-.28.19-.38.33l-2.17.43c-.08-.27-.16-.54-.24-.8.91-.33,1.71-.14,2.33-.99.44.1.84.22,1.27.35Z"/><path class="cls-20" d="m35.03,34.36c.17.05,1.33.29,1.35.36-.14.24-.37.42-.54.64l-.33-.12c.55-.75-.05-.24-1.15.05-.17.05-.3.08-.47.14-.25.08-1.21.17-1.13.49l.5-.15c-.18.32-.72.66-.86.18-.59.12-.85.53-1.17.35l-.02-.07c.62-.52,1.58-.72,2.43-1.02-.03-.51.94-.12,1.39-.86Z"/><path class="cls-4" d="m35.03,34.36c-.44.74-1.42.34-1.39.86-.85.31-1.81.5-2.43,1.02l-.07.02c-.06-.23-.14-.45-.2-.67l2.17-.43c.1-.14.22-.26.38-.33.03-.01.18.03.54-.16.25-.13.46-.15.52-.45.16.05.32.1.48.15Z"/><path class="cls-19" d="m32.48,33.66c.55.08.52.12.55.13-.62.85-1.42.66-2.33.99-.02-.07-.04-.13-.06-.2.12-.19.27-.3.46-.43.63.11.93-.1,1.39-.49Z"/><path class="cls-18" d="m32.48,33.66c-.46.39-.76.6-1.39.49.26-.18.59-.25.74-.59.29-.13.53.08.65.1Z"/><path class="cls-4" d="m34.31,34.14c.08.02.16.05.24.07-.07.3-.28.31-.52.45l-.03-.36s.24-.1.31-.17Z"/><path class="cls-21" d="m33.26,35.77l.4-.12s-.27.49-.29.6l-2.12.49c-.15-.05-.14-.12-.18-.24l.16-.19c.33.18.58-.23,1.17-.35.14.48.68.14.86-.18Z"/><path class="cls-21" d="m35.33,35.36s-.04.22-.33.47c-1.2.16-1.75.12-.34-.26.31-.09.32-.51.67-.2Z"/><path class="cls-20" d="m35.51,35.24c-.07.09-.17.12-.18.13-.35-.31-.36.11-.67.2l-.3-.27c1.1-.3,1.71-.8,1.15-.05Z"/><path class="cls-20" d="m33.89,35.43c0,.21-.2.19-.23.21l-.4.12-.5.15c-.08-.32.88-.4,1.13-.49Z"/><path class="cls-25" d="m31.21,36.24l.02.07-.16.19s-.02-.05-.02-.07c0,0,.1-.16.09-.17l.07-.02Z"/><path class="cls-12" d="m33.99,34.3l.03.36c-.35.19-.51.15-.54.16-.11-.21.01-.08.5-.52Z"/><path class="cls-16" d="m29.29,35.43c-.32.51-.55.25-.58.25-.45-.48.48-1.04.58-.25Z"/><path class="cls-37" d="m28.82,35.2c.21-.1.44.2.25.36-.31.27-.53-.23-.25-.36Z"/><path class="cls-18" d="m24.26,17.5c.44.13,1.45.6,1.8.41.47-.25,4.74-5.31,5.52-6.19.67-.76,1.09-1.01,1.14-1.07.46.03.42.35.73.48l.03.47c-.47-.94-.26-.02.07.35-.16.31.06.49,0,.59-.03.04-.39-.17-.42-.17-.27.08-.3,1.39-2.08.62-1.41,1.44-1.2,2.03.23.29,1.87,1.01,1.36-.61,2.27-.35.02.04-.14.07-.11.11.54.98-.03-1.02.48.37.6-.1.05-.55.08-.57.04-.03.2-.08.24-.04.1.09-.4,1.11,1.18-.68.6-.68.82-.49.41-1.55-.41.19-.8.93-.97,1.13-1.34,1.58-1.22,1.31-.21-.23.29-.1,1.57-1.39.84-1.71-.64.81-2.46,2.71-.83.76.18-.22.37-.43.53-.67.2-.31.5-.01.08-1.19-.04-.11-.09-.43-.17-.46-.33.4-.64.85-.98,1.24-.14.16-.87.74-.94.87-.16.28.17.37.05.42-.03.01-.3-.2-.38-.18.8-.9,1.6-1.77,2.32-2.74l1.02,3.38c5.15,1.84,10.53,2.97,15.76,4.54.17.73.5,1.45.65,2.18l-17.06,20.55c-.97,1.08-1.88,2.2-2.85,3.27-10.25-3.02-20.52-6-30.75-9.06-.03-.33-.46-1.14-.38-1.38.13-.36,4.36-4.92,4.88-5.78,0,.01.16-.12.18.13l-.12.22-4.79,5.57,2.3.73,2.34-2.68,1.87.5c-.77.08-1.44,1.16-.53-.06-1.3-.24-1.11-.68-1.96.52.17.11.37.11.56.16-1.24.11-.04.35-.76.74.4-1.33-.47-.2-1.24.85,5.79,1.71,11.62,3.3,17.41,5.03.21-.05,2.15-2.64,2.56-3.03.06-.06.1-.11.13-.18l.06.09-.46.65c.09.09.22.04.32.09.11.05.22.08.33.12.55.19,1.12.31,1.66.53.08-.02.87-1.08.98-1.24.05-.08.15-.12.07-.24.1.02.16-.04.29-.01v.22q-.12.04-.24.07c-.21.37-.5.61-.68,1.01,0,.01-.12,0-.17.16,2.37.91,4.95,1.42,7.37,2.28.15-.03,1.74-2.05,1.96-2.34.16-.21.4-.4.54-.64-.02-.07-1.18-.31-1.35-.36-.16-.05-.32-.1-.48-.15-.08-.02-.16-.05-.24-.07-.43-.12-.83-.25-1.27-.35-.03,0,0-.05-.55-.13-.12-.02-.36-.23-.65-.1-.14.34-.48.4-.74.59-.18.13-.33.24-.46.43-.17-.58-.3-1.19-.59-1.72,1.06-1.36,4.89-5.66,6.12-6.88.02-.02.11-.02.13-.04.39,1.49-.1.77-.17.78-.33.07.13,2.27.21,2.53.21.19,1.94.62,1.97.72.11.33-1.31.42,1.19.92,2.59-3.19,2.46-1.75-.51-3.03l.04-.12c.36.17.74.22,1.12.32.25.07.47.17.72.22.19.04.55.24.74.14.29-.46.05-.42.51-1.1.26-.38,1.1-1.23,1.46-1.72-.01-.09-1.04-.3-1.2-.33-.03,0-.3-.24-.58-.12-.42.52-2.29,2.5-2.77,2.59-.19.03-.48-.16-.69-.12-.15-.34-.07-.5-.08-.52,1.38.31,1.02.16,1.88-.56.13-.11.22-.21.34-.32.42-.38.79-.78,1.18-1.19-.37-.05-1.58-.48-1.68-.48.03-.68-.44-.95-.3-1.48-.75.56-.09-.18-.08-.27.07-.9-.31-.27-1.09.51-.65.65-1.07.57-.48.95-.59,0-.98-.32-1.34.29l1.4.27s.17.18-.4.12c-.11-.01-.7-.23-.97-.29-.05-.01-.11-.02-.15-.03-.11-.02-.07-.07-.17-.09-.66-.15-1.33-.26-1.99-.42-1.37,1.49-2.7,3.01-4,4.56-.11.13-.79.7-.78.82-.13,0-.12.14-.21.14l-.36-.11c-.97-.37-1.99-.62-2.98-.93-1.03-.32-2.01-.78-3.06-1.05-.18.02-.27.36-.29.38-.38.33-.97.9-1.3,1.27l-.02-.07c.2-.23,1.29-1.38,1.3-1.52-.1-.67-.38-.56-.4-.61-.41-.97-.83-3.05-1.27-4.22.02-.08.3.05.39.07,1.21.24,4.85,1.8,6.68,2.16.22-.05,1.83-1.99,2.12-2.32.4-.46.85-.87,1.19-1.38l.12-.07.33.96,1.09-1.35s.1-.06.14,0l.79,2.5c.4-.38-.15-1.52-.46-2.64.37.12,2.95.75,3.04.88.07.1.07.54.38.76l-.82,1.16c-.08-.06-2.03-.56-1.75-.24.05.06,1.56.28,1.58.4,0,.03-.21.12-.14.26.02.04.81.32.61.07.16-.17,1.17.09,1.23.07.19-.26,1.86-1.78,1.87-1.91,0-.06-.13-.63-.29-.61-.1.02-1.01,1.53-1.42,1.49.63-1.14,1.89-1.47,1.2-2.44-.1.21-1.38,1.53-1.41,1.26.6-.82,1.84-1.34,1.22-2.16-.7,1.25-2.38,2.44-1.69,1.53.09-.12,2.19-1.77,1.56-2.33-.24-.22-1.21,1.84-1.81,1.75-.03-.09-.06-.2-.08-.27.55.09,1.18-1.15,1.68-1.71l-.11-.84c-.39-.06-.44-.68-.37-.99-.25-.1-.27-.26-.33-.38-.05-.09-.05-.24-.1-.34.57-.36-.17-.28-.17-1.05.11-.18.23-.32.37-.48.47,1.15.78,2.35,1.13,3.53.37,1.24.66,2.5,1.05,3.74.07.1.93.25,1.11.29.03,0,.3.2.6.18l.96-1.06c-.36-.09-.72-.15-1.09-.22-.01,0,0-.03-.24-.07-.7-2.01-1.34-4.06-1.91-6.11-.19-.7-.22-1.56-.45-2.24-.07-.21-.07-.44-.26-.51-.29,0-2.2-.84-2.26-.6.06.37.24.57.28.68.08.21.12.43.19.64l1.21.62c-.28-.1-.94-.21-1.31-.34-.28.33-1.34,1.36-1.65,1.45.09-.33,1.55-1.41,1.56-1.6,0-.07-.17-.61-.22-.63-.08-.03-1.35,1.08-1.41,1.15-.14.18-.03.52-.13.55-.05.02-.29-.23-.28-.32.02-.15,2.56-1.8,1.66-2.14-.13-.05-1.57,1.74-1.92,1.89-.46.2-.49-.39-1.59.77l-1.07-.26c-.03-.1-.06-.3-.2-.3-.08,0-1.03,1.05-1.05,1.12-.09.26.04.46.1.7.04.15.19.84.36.84.73-.97,1.19-.8.9-2.1,1.57.91,1.9-.82,2.25-.42.05.06.09,1.01,1.03.75-.08.3.09.32.1.34.06.11.02.26.2.3l.83-.76c.06,0,.07-.02.22,0-.36.29-.82.83-1.27.89-.54.08-.23-.47-.76-.72l.23,1.25c-.18,0-1.05-.27-1.1-.25-.15.05.03.2.03.21-.05.1.03.2-.11.25-.06.02-.97-.23-1.01-.21-.55.34,1.73.74,1.87,1.01v.11c-.09.08-2.56-.86-1.73-.03.07.07.76.15.9.2.17.06.15.17.16.17.02.37-.92.32-.97.29-.22-.1-.23-.43-.3-.64-.02-.06.07-.12.02-.19-.18-.12-.99,1.07-1.16,1.26-.47.55-.97,1.09-1.4,1.66-.04.05-.46.34-.33.47.57.02,1.55.56,1.78-.02.54-.58.56-.44.59-.47l.02.07c-.21.04-.26.29-.27.3-.01.01-.05,0-.07.02-.24.27-.47.53-.71.8-.96,1.07-1.91,2.14-2.87,3.2-.1.03-.38-.08-.58-.12-1.12-.2-5.61-1.99-5.97-2-.38-.09-.5.61-.97.66-2.19-.8-4.52-1.31-6.72-2.07-.21-.07-.4-.13-.59-.26.21-.03.41.06.62.11.19.04.36.08.55.13.13.04.27.06.4.1,1.94.55,3.83,1.3,5.78,1.84.22-.03,1.01-1.01,1.2-1.24.19-.22.58-.36.31-.53-.23-.15-4.71-1.49-5.36-1.68-.26-.07-.53-.13-.79-.2-.54-.15-1.09-.23-1.64-.35-.1-.55-.31-.77-.32-.82,0-.01.11,0,0-.22.09-.12.17-1.08-.05-1.01-.19.06-2.14,2.8-2.57,3.11l-.06-.09c.8-1.09,1.84-2.02,2.46-3.23-.05-.33-.17-.33-.18-.35-.11-.63-.28-1.22-.48-1.83l-.04-.13c3.82,1.1,7.57,2.47,11.38,3.59Z"/><path class="cls-34" d="m23.83,34.88l9.99,2.95-1.97,2.31c-1.56-.43-3.13-.86-4.68-1.33l1.25-1.69-5.02-1.52.44-.72Z"/><path class="cls-34" d="m23.14,35.74l.2-.06,4.82,1.58-1.2,1.49c-1.67-.53-3.37-.95-5.02-1.52l1.2-1.49Z"/><path class="cls-2" d="m42.69,21.31c.18.09,1.91.33,1.84.54l-2.68,3-1.65-.49-.36-2.05,1.7.29,1.15-1.29Z"/><path class="cls-23" d="m44.96,21.58l1.61.36-2.8,3.44-1.69-.4,2.89-3.39Z"/><path class="cls-34" d="m24.26,17.5c-3.82-1.12-7.56-2.49-11.38-3.59-.26-.13-.7-.36-.94-.45l.28-.16c2.97.98,5.94,2,8.92,2.94,1.03.32,3.66.76,3.12,1.25Z"/><path class="cls-21" d="m34.65,11.46c-1,1.54-1.13,1.81.21.23l.56.42c-1.58,1.8-1.08.77-1.18.68-.04-.04-.2,0-.24.04-.03.02.52.47-.08.57-.5-1.39.07.61-.48-.37-.02-.04.13-.06.11-.11-.91-.26-.4,1.36-2.27.35-1.43,1.73-1.64,1.14-.23-.29,1.78.77,1.8-.54,2.08-.62.02,0,.39.21.42.17.07-.09-.15-.28,0-.59.11-.22.78-.64,1.1-.48Z"/><path class="cls-34" d="m27.42,22.4c2.37.28,1.35-.36,3.12-1.52-.5.7-2.02,2.1-2.65,2.99l-.2.06-6.36-2.07c-.03-.06.77-.99.83-1.02.29-.11,3.59,1.37,5.26,1.56Z"/><path class="cls-6" d="m30.54,20.87c-1.78,1.17-.75,1.8-3.12,1.52l1.82-2.08c1.32.26,1.66.06,1.3.56Z"/><path class="cls-21" d="m26.46,20.2c-.02-.06-.19-.98-.21-1.18l.19.02,1.71-1.83c.06.02.41,1.16.41,1.23-.02.13-1.71,1.65-1.85,1.98-.04.02-.24-.2-.25-.22Z"/><path class="cls-34" d="m21.65,20.11c.24-.15,4.77,1.49,5.4,1.67,2.75-3.17,2.71-2.26-.01.44-.87-.42-5.06-1.7-5.3-1.84-.12-.07-.23-.17-.08-.27Z"/><path class="cls-30" d="m33.48,15.83c.17.07,1.14.26,1.19.3.01.01.16.3.17.31.02.04.02.09.04.13.01.03-.27.33.08.27.02.08.07.04.09.05l.06.2.04.13c-.39-.09-.23.14-.25.15-.06.03-.18.06-.27.08-.24.06-.58-.06-.84-.11-.18-.04-.1.03-.22,0-.01,0,.01-.11-.16-.17-.14-.05-.84-.14-.9-.2-.84-.83,1.64.1,1.73.03v-.11c-.14-.27-2.42-.67-1.87-1.01.04-.03.95.23,1.01.21.14-.05.06-.15.11-.25Z"/><path class="cls-34" d="m26.26,19.02c.02.2.19,1.12.21,1.18l-2.01-.6c-.61-1.74-.45-1.13,1.8-.58Z"/><path class="cls-36" d="m14.87,17.99c.72.24,5.28,1.39,5.51,1.56.22.16.35.44-.01.44-.28,0-4.63-1.54-5.4-1.67l-.1-.34Z"/><path class="cls-34" d="m24.49,19.84c1.44.35,2.13.17,2.21,1.53-1.07-.38-2.22-.29-2.21-1.53Z"/><path class="cls-21" d="m28.53,18.7c.17-.01.31.48.22.74-.05.13-1.77,2.01-1.87,1.91-.09-.09-.14-.66-.06-.82.06-.11,1.59-1.82,1.71-1.83Z"/><path class="cls-34" d="m15.62,15.86l1.01.32c-.14.39.57,1.91.43,2.03-.05.04-1.02-.08-.98-.69.01-.2.3-.03.31-.17.02-.14-.82-.04-.77-1.48Z"/><path class="cls-34" d="m21.02,17.53c1.81.63,1.14.04,1.5,1.59-1.14-.3-1.45-.17-1.5-1.59Z"/><path class="cls-23" d="m47.85,20.35c-.06-.63-.76-1.43-1.22-1.39l-.02-.07c.01-.46-.21-1.45-.41-1.85l3.66.98c-.67.77-1.34,1.55-2.01,2.32Z"/><path class="cls-15" d="m46.62,18.96c1.25,1.85.22,1.4-.19,2.76-.46-.05-.89-.32-1.31-.48-.02-.53,1.07-.9,1.39-1.95.03-.11.1-.28.1-.4l.02.07Z"/><path class="cls-12" d="m47.85,20.35c-.24.28-.98,1.43-1.27,1.48-.05,0-.13-.1-.14-.1.41-1.36,1.45-.91.19-2.76.46-.04,1.16.75,1.22,1.39Z"/><path class="cls-34" d="m17.16,16.35c.07-.03,1.05.25,1.08.3.03.05.14.89.21,1.07-1.5.13-1.62-1.22-1.29-1.37Z"/><path class="cls-21" d="m26.06,28.58c-.23.01-.18.23-.4.26-.15.02-2.56-.86-2.95-.94.02-.02.11-.36.29-.38,1.04.28,2.03.73,3.06,1.05Z"/><path class="cls-34" d="m18.59,16.72c.19.06,1.11.27,1.16.34.06.08.38,1.2.34,1.25-1.2-.4-1.25-.2-1.5-1.59Z"/><path class="cls-34" d="m14.11,15.44c.05-.08,1.69.26,1.02.83.2,0,.39.67.33.74-1.24-.23-1.02-.24-1.35-1.57Z"/><path class="cls-20" d="m33.31,20.12c-.06.2.04.37.09.56.31,1.12.87,2.26.46,2.64l-.79-2.5c-.04-.05-.13.02-.14,0-.26-.14-.29-.06-.56.09.27-.38.83-1.06.93-.79Z"/><path class="cls-34" d="m22.66,18.13c1.24.09,1.2.18,1.44,1.39-1.1-.37-1.22-.02-1.44-1.39Z"/><path class="cls-7" d="m33,25.03c.99-.45-1.36,1.81-2.05,2.55.11-.17-.1-.35-.05-.53.04-.14,1.96-1.96,2.1-2.02Z"/><path class="cls-34" d="m18.99,18.06c.9.38,1.29.07,1.4,1.26-.79-.21-1.55-.2-1.4-1.26Z"/><path class="cls-34" d="m21.48,19.07c.79.18,1.5.09,1.36,1.13-.88-.36-1.29.02-1.36-1.13Z"/><path class="cls-34" d="m23.07,19.47c.08-.06,1.72.3,1.29,1.15-.61-.03-1.82-.77-1.29-1.15Z"/><path class="cls-34" d="m23.81,17.56c.06-.07,1.71.5,1.78.56.81.77-.91.22-1.66-.05-.01-.12-.18-.43-.12-.51Z"/><path class="cls-23" d="m35.09,15.34c.11.31,0,.11-.15.23.13.05.15.07.2.19l-.48.36s-1.01-.23-1.19-.3c0,0-.18-.16-.03-.21.05-.02.92.25,1.1.25l-.23-1.25c.54.25.23.8.76.72Z"/><path class="cls-34" d="m17.58,17.76c.08-.04,1.27.18,1.12,1.05-1.46-.16-1.26-.97-1.12-1.05Z"/><path class="cls-21" d="m30.04,17.37c.67.26-1.07,2.28-1.01,1.14,0-.08.94-1.17,1.01-1.14Z"/><path class="cls-34" d="m17.05,15.5c.52-.18,1.25.61.91.82-.06.03-1.22-.33-1.25-.39-.03-.08.32-.42.34-.43Z"/><path class="cls-34" d="m13.91,14.55c.11-.17,1.51.38,1.15.9-.05.07-1.51-.35-1.15-.9Z"/><path class="cls-34" d="m22.42,17.32c.18-.16.97.07,1.04.16.7.96-1.54.28-1.04-.16Z"/><path class="cls-34" d="m18.33,15.85c.04-.05,1.15.36,1.18.41.66.93-1.61.17-1.18-.41Z"/><path class="cls-20" d="m30.88,16.9c.53-.15.74-.73,1.14-1.07.26.63-.93,1.58-1.01,1.51-.02-.02-.12-.38-.13-.44Z"/><path class="cls-34" d="m21.99,17.23l-.14.26c-.18,0-.87-.14-.96-.26-.6-.83.94-.36,1.1,0Z"/><path class="cls-21" d="m51.24,16.33c-.22.29-.39.51-.64.78-1.64-.61-3.37-.88-5.04-1.33-.5-.14-1.21-.79-1.64-.24-.25.02-.31.03-.54.16l-.13.04s-.09-.13.51-.37l-4.03-1.38-.27-1.13c1.3.4,2.56.93,3.87,1.32,2.62.79,5.33,1.26,7.92,2.15Z"/><path class="cls-34" d="m51.24,16.33c-2.59-.89-5.3-1.36-7.92-2.15-1.31-.39-2.57-.92-3.87-1.32-.18-.06-.35-.18-.55-.13-.02-.12-.08-.24-.11-.37l.16-.08c4.18,1.41,8.52,2.34,12.73,3.59-.15.21-.43.44-.45.46Z"/><path class="cls-24" d="m50.6,17.11c-.13.14-.54.75-.68.79l-3.96-1.15c-.42-.62-1.27-1.27-2.04-1.21.43-.55,1.14.1,1.64.24,1.67.46,3.41.73,5.04,1.33Z"/><path class="cls-20" d="m39.46,12.86l.27,1.13,4.03,1.38c-.6.24-.48.36-.51.37-.18.09-.3.25-.54.16-.86-.31-1.77-.52-2.61-.9-.09-.45-.46-1.23-.94-1.18-.1-.31-.19-.77-.26-1.09.2-.06.37.07.55.13Z"/><path class="cls-23" d="m40.1,15c-.15-.07-.47-.03-.67-.27-.09-.3-.18-.6-.27-.9.48-.05.85.73.94,1.18Z"/><path class="cls-12" d="m36,23.47c.2.16.1.39.3.5.21.24-.59-.04-.61-.07-.07-.14.15-.23.14-.26-.02-.13-1.53-.34-1.58-.4-.28-.32,1.68.18,1.75.24Z"/><path class="cls-34" d="m14.75,17.07s.87.21.92.27c.63.88-1.26.23-.92-.27Z"/><path class="cls-34" d="m15.36,14.99c.05-.08.72.14.75.18.76,1.01-1.15.43-.75-.18Z"/><path class="cls-21" d="m32.02,15.83c-.4.34-.6.93-1.14,1.07-.02-.21.88-1.3.96-1.31.18-.02.11.06.18.24Z"/><path class="cls-21" d="m27.91,16.62c.62-.05-1.33,1.66-1.41,1.88l-.13-.07c.25-.18,1.42-1.8,1.54-1.81Z"/><path class="cls-21" d="m29.33,15.03c.4.14-.69,1.33-.77,1.33-.43,0,.69-1.36.77-1.33Z"/><path class="cls-21" d="m28.86,27.44l-.38-1.27,1.43-1.45c.75,1.4,0,1.38-1.04,2.73Z"/><path class="cls-34" d="m28.48,26.17l.38,1.27-1.64-.35c-.53-1.86-.84-1.55,1.26-.93Z"/><path class="cls-34" d="m24.98,25.1c1.33.51,1.69.07,1.8,1.87-1.36-.42-1.69-.14-1.8-1.87Z"/><path class="cls-34" d="m22.72,24.39c1.26.23,1.27.83,1.42,2.06-1.29-.27-1.03-.7-1.42-2.06Z"/><path class="cls-34" d="m27.31,27.25c.98.41,1.74-.01,1.66,1.4-1.05-.41-1.72-.12-1.66-1.4Z"/><path class="cls-34" d="m29.17,28.96c.13.09.14.24.19.38l-4.23-1.18c.01-.19.45-.29.61-.29.18,0,3.28.98,3.43,1.09Z"/><path class="cls-21" d="m30.26,26.15c.82.63-.63,1.61-1.08,2.23-.66-.85.39-1.15,1.08-2.23Z"/><path class="cls-34" d="m25.48,26.78c1,.4,1.64.1,1.69,1.25-.97-.27-1.65-.14-1.69-1.25Z"/><path class="cls-21" d="m30.71,23.75c.11,0,.84,1.31.01,1.75-.53-.92-.31-1.74-.01-1.75Z"/><path class="cls-34" d="m26.58,24.84c.06-.09,2.07.57,1.85.94-.32.03-2.24-.37-1.85-.94Z"/><path class="cls-34" d="m24.74,24.3c.06-.09,1.84.35,1.54,1-.28-.15-1.94-.4-1.54-1Z"/><path class="cls-20" d="m29.36,29.34c-.04-.14-.06-.29-.19-.38,2.03-2.22,2.27-1.63.19.38Z"/><path class="cls-21" d="m31.58,24.95c.94-.28-.5,1.42-.6,1.42-.7-.02.51-1.4.6-1.42Z"/><path class="cls-21" d="m31.14,23.25c.15,0,.75,1.36.13,1.64-.17-.22-.6-1.66-.13-1.64Z"/><path class="cls-21" d="m29.62,24c.77-.02-1.61,2.43-1.1,1.21.03-.08,1.02-1.21,1.1-1.21Z"/><path class="cls-34" d="m23.26,27.16c.65-.3,2.98,1.44-.18.24.14-.09.17-.23.18-.24Z"/><path class="cls-34" d="m22.48,23.59s1,.34,1.03.38c.47.74-1.33.06-1.03-.38Z"/><path class="cls-34" d="m23.39,26.39s.91.28.94.34c.47.75-1.28.17-.94-.34Z"/><path class="cls-34" d="m30.85,22.75c.06.04.14.05.15.14.05.34-1.78,1.6-.15-.14Z"/><path class="cls-10" d="m29.76,19.72l1.45.44c-.23.58-1.22.04-1.78.02-.12-.12.29-.41.33-.47Z"/><path class="cls-20" d="m32.29,16.99l-1.14,1.07c.17-.2.97-1.38,1.16-1.26.06.07-.04.12-.02.19Z"/><path class="cls-23" d="m32.97,21.31l.71,2.23c.11.18.6-.69.58-.03,0,.06-.72.82-.85.95-.14-.42-.84-2.46-.83-2.64,0-.03.38-.38.39-.52Z"/><path class="cls-21" d="m32.4,22.07c.19-.06.56,1.55.59,1.72-1.03-.23-.53-.15-.88-1.09.56-.11.08-.57.28-.63Z"/><path class="cls-30" d="m32.45,24.54l.57-.54c.18.15.29.63.17.68-.14.06-.23-.56-.6.18-.28-.12-.13-.31-.13-.32Z"/><path class="cls-34" d="m33.01,24l-.57.54c-.05-.12-.34-.41-.17-.68.43.86.08.18.24.07.02-.02.47.05.5.07Z"/><path class="cls-24" d="m28.81,16.57c-.04.48.92-.5.55-.6.01-.01.13-.18.17-.27l.13.07c.51,1.42.44,1.24-.73,2.3-.51-1.25-.37-1.08-.12-1.5Z"/><path class="cls-21" d="m29.36,15.97c.37.11-.59,1.08-.55.6.13-.22.36-.43.55-.6Z"/><path class="cls-8" d="m21.85,17.5l.14-.26c.24.57-.02.27-.14.26Z"/><path class="cls-15" d="m36.98,31.36c-.72-.52-.71.46-.76.52-.09.13-.5.21-.52.23-.35.35-.64.87-1.1,1.21-.33.24-.71.1-.62.48-.42-.12-.85-.22-1.27-.35-.17-.36.44-.47.65-.63,1.31-1.04,1.87-2.33,2.2-2.64.11-.1.34.13.19-.2.65.11,1.29.37,1.92.56-.24.27-.48.54-.7.83Z"/><path class="cls-27" d="m35.35,34.19c.24-.58.09-.8.66-1.22.1-.07.29-.22.36-.25.04-.02.52.3.46-.43.32,0,1.16-.39,1.41-.64.04-.04.13.01.16-.19.04-.23-.15-.44-.26-.62.03-.13,1.43.19,1.16.34l-2.8,3.33c-.41.01-.77-.22-1.15-.31Z"/><path class="cls-19" d="m35.76,29.97c.14.34-.08.1-.19.2-.34.31-.89,1.6-2.2,2.64-.21.16-.82.28-.65.63-.14-.04-.87-.1-.89-.28.95-1.13,1.94-2.22,2.91-3.32.18-.07.78.09,1.03.13Z"/><path class="cls-4" d="m36,32.97c-.57.42-.42.64-.66,1.22-.22-.05-.42-.12-.64-.17.04-.35.55,0,.6-.69.24-.16.71-.78.7-.36Z"/><path class="cls-12" d="m36.98,31.36c-.47.62-1.03,1.09-.62,1.35-.08.04-.27.18-.36.25.01-.43-.46.19-.7.36-.05.04-.76.37-.84.62-.17-.04-.32-.1-.48-.15-.08-.38.3-.24.62-.48.46-.34.75-.86,1.1-1.21.02-.02.42-.1.52-.23.05-.06.04-1.04.76-.52Z"/><path class="cls-30" d="m35.31,33.33c-.05.7-.55.34-.6.69-.08-.02-.16-.05-.24-.07.08-.25.78-.58.84-.62Z"/><path class="cls-30" d="m35.94,32.62c.21-.05.31.12-.09.17-.09,0,.08-.17.09-.17Z"/><path class="cls-23" d="m38.31,31.4c-.41.11-.57.16-.07.24-.25.25-1.1.65-1.41.64-.58-.02.22-.74.38-.92.2.09.42-.06.16-.19.04-.04.12-.4.35-.4.13.3.37.27.59.63Z"/><path class="cls-4" d="m38.31,31.4s.02.08.09.05c-.03.21-.12.16-.16.19-.49-.08-.34-.13.07-.24Z"/><path class="cls-30" d="m37.36,31.17c.26.14.04.28-.16.19.03-.03.04-.07.16-.19Z"/><path class="cls-4" d="m37.59,31.32c.16-.2.2.15.13.18-.01,0-.16-.14-.13-.18Z"/><path class="cls-3" d="m46.5,19.29c-.31,1.05-1.41,1.42-1.39,1.95-.17-.06-.23-.27-.39-.32-.19-.53,0-.75.23-1.17.02-.04.63-.47.48-.73.26,0,.26-.04.4-.26.1-.02.19-.14.23-.21l.44.74Z"/><path class="cls-28" d="m43.91,15.54c.77-.06,1.62.59,2.04,1.21.17.26.23.28.23.29.2.4.42,1.39.41,1.85,0,.12-.07.28-.1.4l-.44-.74c.38-.7-.14-.99-.17-1.05-.21-.41-.4-.88-.97-.8.4-1.03-1.03-.8-1.19-.81-.11,0-.27-.1-.35-.19.23-.13.29-.14.54-.16Z"/><path class="cls-17" d="m44.96,19.75c-.24.42-.42.64-.23,1.17-.04,0-.12-.01-.15-.03-.11-.64.11-1.33.14-1.72.39.14-.08.65.25.58Z"/><path class="cls-5" d="m44.67,17.8l.15.76c-1.12.99-1,.48-1.05.53-.06.07.08.23.01.29-.02.02-.28-.45-.31.17-.48-.99.06-.63.15-.7.05-.04.03-.19.22-.36.26-.24.55-.45.82-.68Z"/><path class="cls-11" d="m43.85,18.48c-.19.17-.18.32-.22.36-.09.08-.63-.28-.15.7.04-.62.29-.15.31-.17.07-.06-.08-.22-.01-.29.05-.05-.08.46,1.05-.53,0,.2-.09.43-.11.62-.03.39-.25,1.09-.14,1.72-1.04-.38-2.76.22-2.84-2.87.68.09,1.11-.62,2.11.46Z"/><path class="cls-17" d="m42.93,18.46h.11c-.68,1.03-1.12,1.09-.11,0Z"/><path class="cls-9" d="m44.92,16.7s-.3.25-.34.32c-.05-.76-.15-.23-.18-.24-.18-.07-.91-.68-.67-.89.17,0,1.59-.22,1.19.81Z"/><path class="cls-5" d="m43.24,15.74l.13-.04c.07.08.24.18.35.19-.24.21.49.82.67.89.03.01.13-.52.18.24.09.54.58-.53.43.2,0,.03-.49.08.19.16-.19.12-.37.27-.53.42-.26.24-.56.45-.82.68-1-1.08-1.43-.37-2.11-.46-.03-1.15.29-1.3.97-2.12.23.09.36-.07.54-.16Z"/><path class="cls-17" d="m43.31,16.31c.15-.05.12,0,.04.13-.73,1.23-1.64,1.55-.04-.13Z"/><path class="cls-9" d="m44.92,16.7c.58-.08.76.39.97.8-1.28.05-.13.06.02.32.14.25.06.69-.08.94-.13.22-.14.26-.4.26.16.26-.45.69-.48.73-.33.07.14-.44-.25-.58.02-.19.11-.42.11-.62l-.15-.76c.17-.15.34-.29.53-.42-.69-.08-.2-.13-.19-.16.15-.73-.34.34-.43-.2.04-.07.33-.3.34-.32Z"/><path class="cls-11" d="m45.89,17.5c.03.05.55.35.17,1.05-.04.08-.13.2-.23.21.15-.24.22-.69.08-.94-.15-.27-1.3-.28-.02-.32Z"/><path class="cls-11" d="m45.27,17.98c.37-.26.39.32.25.36-.03,0-.42-.25-.25-.36Z"/><path class="cls-34" d="m28.76,4.75l.8,2.43c.06.08.71.16.87.21.34.11.69.19,1.03.27.15.04.31.04.46.08.61.14,1.22.3,1.82.47-2.61,3.03-5.38,5.91-8.02,8.92-4.72-1.49-9.48-2.84-14.12-4.56L20.63,2.37c.52-.24,7.04,2.21,8.13,2.38Z"/><path class="cls-16" d="m28.38,2.52s.19-.2.53.06c.75.57.36,1.01.13,1.64,0,.02-.14.12-.19.35,0,0-.11.05-.09.17-1.09-.17-7.61-2.62-8.13-2.38l-9.03,10.2c4.64,1.72,9.4,3.07,14.12,4.56,2.64-3,5.41-5.89,8.02-8.92.26-.3.51-.58.76-.89.1-.12.77-.71.7-.83-.6-.21-2.83-.82-3.15-.99-.12-.06-.22-.18-.36-.22l.04-.12c.1.16.29.12.42.17,1.09.38,2.2.73,3.27,1.17-3,3.73-6.39,7.11-9.53,10.72-.16.08-.35.02-.51,0-.73-.08-12.19-3.88-13.97-4.53-.09-.12.31-.56.63-.96,2.21-2.75,6.15-6.68,8.59-9.6.41-.16,6.98,2.13,7.96,2.43.57-.92,1.04-1.57-.22-2.05Z"/><path class="cls-30" d="m27.56,10.96c.13-.15.44-.68.56-.82.13-.16.74-.86.87-.99,1.24-1.31-.35.81-1.43,1.82Z"/><path class="cls-18" d="m26.87,4.66c1.6.58,1.71-.04,2.06,1.61-.02.07-1.5-.13-.72.4.32.22,2.13.6-.79-.09l-.54-1.92Z"/><path class="cls-34" d="m27.45,5.14c.19.19-.22.44-.25.26,0-.03.24-.18.25-.26Z"/><path class="cls-7" d="m26.64,12.04l-2.26,2.58-6.17-1.94c2.07.53,4.1,1.16,6.13,1.81.75-.82,1.56-1.61,2.3-2.44Z"/><path class="cls-25" d="m22.37,6.09l.08.27.34,1.14.1.34.38,1.27-.07.02c-.29-.23-.71-2.82-1.01-2.76-1.25,1.44-3.81,4.6-5.05,5.68-.03.02-.17.01-.29.23h-.14q.04-.06.07-.12l5.47-6.1.12.04Z"/><path class="cls-1" d="m23.21,9.12l-3.28,3.69c-.93-.25-1.84-.56-2.79-.77,1.24-1.08,3.8-4.24,5.05-5.68.3-.05.72,2.53,1.01,2.76Z"/><path class="cls-18" d="m23.27,9.1c.23.06.47.1.7.15.01,0,.12.04.24.07.23.06.49.15.72.22.8.23,1.69.64,2.52.85,0,0,.16.02.16.06,0,.06-.23.17-.24.18-.21-.05-.61-.09-.77-.13-.54-.15-1.05-.33-1.6-.47-.21-.05-.39-.12-.64-.17-.33-.07-.67-.19-1-.28l-3.05,3.33c-.13-.03-.26-.06-.4-.1l3.28-3.69.07-.02Z"/><path class="cls-36" d="m17.14,12.04c.94.2,1.86.52,2.79.77.13.04.26.07.4.1.21.06,1.17.43,1.26.42.38-.39.66-.05.63-.7.19-.02,1.37-.42,1.18-.57-.13-.11-.73.37-.63-.03.62-.29.69,0,.73-.73.87-.27.91-.06.97-.07.67-.12.87-.34.92-.35.35-.09,1.07-.13,1.24-.37.16.04.56.09.77.13-.21.34-.24.29-.15.7-.2.23-.39.46-.6.69-.74.83-1.55,1.62-2.3,2.44-2.03-.65-4.07-1.28-6.13-1.81-.34-.09-1.1-.12-1.36-.39.12-.22.27-.21.29-.23Z"/><path class="cls-12" d="m24.38,9.87l-2.38,2.18-.24.55c.13.11.21.04.23.04.1.01.11.02.22,0,.03.65-.25.31-.63.7-.09,0-1.05-.37-1.26-.42l3.05-3.33c.33.09.67.22,1,.28Z"/><path class="cls-23" d="m26.62,10.51c-.17.24-.89.28-1.24.37-.05.01-.25.23-.92.35-.05,0-.1-.2-.97.07,0,0-.18.08-.16-.06.04-.3,1.54-.8,1.68-1.2.55.14,1.06.32,1.6.47Z"/><path class="cls-10" d="m25.02,10.04c-.15.4-1.65.9-1.68,1.2-.02.14.16.05.16.06-.04.74-.11.44-.73.73-.22.1-.79.01-.77.6-.02,0-.1.07-.23-.04l.24-.55,2.38-2.18c.24.05.43.12.64.17Z"/><path class="cls-10" d="m22.77,12.03c-.1.4.5-.08.63.03.19.15-.99.55-1.18.57-.11.01-.12,0-.22,0-.02-.59.56-.5.77-.6Z"/><path class="cls-34" d="m28.98,9.14c-.13.14-.74.83-.87.99-.03-.08-.04-.19-.07-.23-.25-.34-4.36-2.93-4.97-3.66,1.6.47,4.59,1.88,5.91,2.9Z"/><path class="cls-21" d="m23.07,6.24c.61.72,4.72,3.32,4.97,3.66.03.04.04.16.07.23-.12.14-.43.68-.56.82-.11.13-.21.26-.32.39-.08-.41-.05-.37.15-.7,0-.01.24-.12.24-.18,0-.04-.16-.05-.16-.06-.05-.12-.07-.32-.11-.37-.09-.12-2.19-1.78-2.31-1.86-.33-.21-.18-.04-.05.2-.21-.06-.48.01-.68.06-.2-.54.17,0,.45-.46l-1.05-.82c-1.14-.23-.78-.85-1.26-.79l-.08-.27c.18-.08.44.08.7.15Z"/><path class="cls-20" d="m24.31,8.43c.2-.05.47-.12.68-.06-.13-.24-.28-.4.05-.2.13.08,2.22,1.74,2.31,1.86.04.05.06.24.11.37-.83-.21-1.72-.62-2.52-.85.11-.8.24-.02.7-.1-1.05-1.45-.81-.63-.87-.58-.03.03-.65-.16-.56.46-.12-.03-.23-.07-.24-.07.07-.16-.09-.2-.17-.31.13-.07.08-.22.12-.33.16-.39.06-.11.38-.19Z"/><path class="cls-20" d="m23.71,7.15c.09.43.37.76.06.93-.04-.18-.33-1.34-.54-.82,0,.01.15.05.13.18-.15.89-.08-.07-.57.06l-.34-1.14c.48-.06.12.56,1.26.79Z"/><path class="cls-21" d="m24.31,8.43c-.32.08-.22-.2-.38.19-.23-.1-.16-.51-.16-.54.31-.17.03-.5-.06-.93l1.05.82c-.27.47-.65-.07-.45.46Z"/><path class="cls-23" d="m23.77,8.08s-.07.43.16.54c-.04.1.01.26-.12.33-.44-.64-.56-1.27-.92-1.11l-.1-.34c.49-.13.42.83.57-.06.02-.13-.13-.17-.13-.18.21-.52.5.64.54.82Z"/><path class="cls-7" d="m23.81,8.94c.08.11.24.15.17.31-.23-.05-.47-.09-.7-.15l-.38-1.27c.36-.16.48.48.92,1.11Z"/><path class="cls-20" d="m24.94,9.55c-.24-.07-.49-.16-.72-.22-.1-.62.52-.43.56-.46.06-.05-.18-.87.87.58-.46.09-.59-.7-.7.1Z"/></g></svg>