<?xml version="1.0" encoding="UTF-8"?><svg id="Capa_2" xmlns="http://www.w3.org/2000/svg" xmlns:xlink="http://www.w3.org/1999/xlink" viewBox="0 0 28.55 28.55"><defs><style>.cls-1{fill:url(#Degradado_sin_nombre_213);}.cls-1,.cls-2,.cls-3,.cls-4,.cls-5,.cls-6,.cls-7,.cls-8,.cls-9,.cls-10,.cls-11,.cls-12,.cls-13,.cls-14,.cls-15,.cls-16,.cls-17,.cls-18,.cls-19,.cls-20,.cls-21,.cls-22,.cls-23,.cls-24,.cls-25,.cls-26,.cls-27,.cls-28,.cls-29,.cls-30,.cls-31,.cls-32,.cls-33,.cls-34,.cls-35{stroke-width:0px;}.cls-2{fill:url(#Degradado_sin_nombre_214);}.cls-3{fill:url(#Degradado_sin_nombre_211);}.cls-4{fill:url(#Degradado_sin_nombre_212);}.cls-5{fill:url(#Degradado_sin_nombre_210);}.cls-6{fill:#7a4122;}.cls-7{fill:#606f6e;}.cls-8{fill:#828681;}.cls-9{fill:#512a15;}.cls-10{fill:#313536;}.cls-11{fill:#646761;}.cls-12{fill:#6e7264;}.cls-13{fill:#a45124;}.cls-14{fill:#342e21;}.cls-15{fill:#3e2008;}.cls-16{fill:#444d4d;}.cls-17{fill:#201809;}.cls-18{fill:#1e2e35;}.cls-19{fill:#171c1d;}.cls-20{fill:#c6cbbe;}.cls-21{fill:#d69e7f;}.cls-22{fill:#af6e40;}.cls-23{fill:#adb1a2;}.cls-24{fill:#a5a3a0;}.cls-25{fill:#939190;}.cls-26{fill:#b8b9b3;}.cls-27{fill:#8c968b;}.cls-28{fill:#914519;}.cls-29{fill:#915525;}.cls-30{fill:#737d74;}.cls-31{fill:#747774;}.cls-32{fill:#f2dbc5;}.cls-33{fill:#fff;}.cls-34{fill:#e2e2dc;}.cls-35{fill:#692614;}</style><linearGradient id="Degradado_sin_nombre_211" x1="15.22" y1="2.35" x2="10.01" y2="26.08" gradientUnits="userSpaceOnUse"><stop offset=".08" stop-color="#f9f8f4"/><stop offset=".51" stop-color="#cbc8c1"/><stop offset=".81" stop-color="#b4b4b2"/><stop offset="1" stop-color="#3a3e3f"/></linearGradient><linearGradient id="Degradado_sin_nombre_213" x1="17.89" y1="2.93" x2="11.5" y2="25.88" gradientUnits="userSpaceOnUse"><stop offset=".12" stop-color="#f9f8f4"/><stop offset=".61" stop-color="#b7b8b3"/><stop offset=".86" stop-color="#aaaaa6"/><stop offset="1" stop-color="#46494a"/></linearGradient><linearGradient id="Degradado_sin_nombre_210" x1="11.92" y1="15.01" x2="4.91" y2="21.66" gradientUnits="userSpaceOnUse"><stop offset="0" stop-color="#622b16"/><stop offset="1" stop-color="#371c12"/></linearGradient><linearGradient id="Degradado_sin_nombre_212" x1="16.31" y1="13.79" x2="14.12" y2="26.29" gradientUnits="userSpaceOnUse"><stop offset=".38" stop-color="#522917"/><stop offset="1" stop-color="#2f170f"/></linearGradient><linearGradient id="Degradado_sin_nombre_214" x1="16.72" y1="4.52" x2="17.66" y2="5.81" gradientUnits="userSpaceOnUse"><stop offset="0" stop-color="#c1613f"/><stop offset="1" stop-color="#d7815a"/></linearGradient></defs><g id="Capa_1-2"><circle class="cls-33" cx="14.27" cy="14.27" r="14.27"/><path class="cls-3" d="m16.63,2.34c-.41.07-.46.08-.86.22-2.52.89-3.36,3.45-4.23,5.7-.34.86-.73,1.72-.99,2.61-.12.39-.32.95-.13,1.06-.11.4-.3.79-.3,1.23-.08.03,0,.56-.22.65.18.37-.16,1.06-.17,1.12-.01.06.02.51,0,.73-.14,1.99-.21,3.7.13,5.7.06.35.24.73.17,1.08.41,1.17.86,2.33,1.68,3.28.38.44,1.76,1.61,2.2,1.36.83.2.05.07-.26.17-1.25-.06-2.68-.34-3.8-.91-.22-.11-.45-.22-.65-.39-.05-.04-.13-.08-.17-.13-.95-1.08-.38-5.96-.47-7.53.26-2.39.23-4.8.43-7.18.02-.2.04-.29.04-.3,0-.1-.01-.2,0-.3.01-.12.03-.18.04-.26.11-.94.25-1.87.56-2.76-.02-.13.03-.17.04-.22,0-.02.05.11.17-.3.47-1.54.94-3.09,1.47-4.62.27-.08.5-.12.78-.17-.12,1.01-.64,1.94-.88,2.93l1.1-2.98s.22-.12.58-.17c.94-.12,3.26-.08,4.1.26.26.1-.18.1-.37.13Z"/><path class="cls-18" d="m7.18,10.02c0,.05,0,.12,0,.17,0,.03.01.11,0,.26,0,.04-.09.25-.13.32l.06.06,1.92-.04s-.03.1-.04.3c-.44.03-.99-.04-1.4,0-.02,0-.14.09-.15.09-1,.13-2.01.41-2.89.95-.16.1-.16.12-.17.13-.51.35-1.24,1.02-1.47,1.6,0,.01,0,.03,0,.04-.26.36-.35.75-.43,1.17-.07.2-.13.3-.17.52,0,.03,0,.06,0,.09-.06.37-.07.73-.13,1.1-.18-1.27-.48-2.89.13-4.08.17-.33.81-1.01,1.12-1.25,1.08-.86,2.43-1.22,3.75-1.51,0,.03,0,.06,0,.09Z"/><path class="cls-1" d="m21.51,4.37c-1.78-1.11-2.59-1.93-4.57-.65-1.64,1.06-2.36,2.34-3.15,4.06-.03.07-.06.15-.09.22-.04.08-.04.12-.04.13-.05.12-.12.22-.17.35,0,0-.11.06-.13.11-.02.05.06.08.04.11-.06.14-.12.29-.17.43,0,.01-.05.05-.13.26,0,.02-.03.19-.09.35,0,.02-.09.18-.17.39-.03.07-.06.14-.09.22-.05.13-.13.25-.17.39,0,.01-.12.16-.06.22.75.24,1.54.46,2.22.86,0,0-.02-.01-.04.04-.25-.12-2.02-.86-2.14-.86-.22,0-.2.24-.24.39-.02.08.02.22,0,.3-.05.18-.16.41-.22.6-.03.1-.06.2-.09.3-.15.51-.36,1.06-.47,1.58-.55,2.51-.53,6.01.43,8.41.53,1.33,2.36,4.21,3.82,4.55,0,0,.11-.13.11.04-.7.1-1.53.12-2.24.09.31-.1,1.08.02.26-.17-1.2-.42-2.19-1.34-2.8-2.44-1.61-2.88-1.53-7.54-.95-10.7.38-2.07,1.99-7.26,3.06-8.98.58-.93,1.55-1.97,2.59-2.35.3-.11.54-.18.86-.22,1.47-.16,3.69,1.07,4.83,1.98Z"/><path class="cls-34" d="m26.81,13.56c0,.1,0,.2,0,.3-.79.92-2.42.41-3.5.28,1.18.43,2.37.59,3.5-.06,0,.25.07.34-.09.6-.1.17-.28.25-.41.39-.81.03-1.62.07-2.39-.15,1.01.73,2,.83,2.85-.19.2.27-.08.9-.09.95-1.15.46-2.17-.1-2.39,0-.04.02-.02.09-.02.13-.3-.16-.57-.38-.86-.56-.1-.06-.25-.27-.37-.26-.02,0-.29.12-.3.13-.12.09-.19.33-.22.35-.16.08-.33-.21-.32,0-.08-.07-.03-.22-.11-.04-.37-.28-1.85-1.44-2.09-1.51l-4.7-3.24c0-.18.02-.24-.09-.39.02-.05.04-.09.09-.13,0,0,.1.02.17-.13l.15.17c1.24.43,2.42,1.15,3.62,1.73.63.3,3.76,1.76,4.1,1.86.16.05.95.21,1.08.22.03,0,.01-.09.04-.09.8,0,1.61-.04,2.35-.35Z"/><path class="cls-34" d="m16.29,9.94c.72.36,1.5.64,2.22.99,2.08,1.01,6.19,3.64,8.18,1.98,0,0,.08-.01.09.02.03.2.02.42.04.63-.74.3-1.56.35-2.35.35-.03,0-.01.09-.04.09-.12,0-.92-.17-1.08-.22-.33-.1-3.47-1.56-4.1-1.86-1.2-.58-2.39-1.29-3.62-1.73l-.15-.17v-.04c.24-.43-1-.84-1.29-1.21.43.23.86.44,1.23.78.29.13.6.24.88.39Z"/><path class="cls-20" d="m23.41,15.24c.73.82,1.62,1.47,2.44,2.2.1-.05.1-.08.11-.09.07-.03.45-.31.43-.39-.11-.4-.7-.13-.82-.47.09,0,.19-.02.28-.04.87-.26-.13-.11-.3-.13-.29-.04-.98-.36-1.27-.52,0-.04-.02-.11.02-.13.22-.1,1.25.46,2.39,0-.03.29,0,.59-.04.88-.05.28-.17.33-.17.35,0,.04.08.11-.13.84-.19.19-.25.16-.26.17-.21.01-.46-.15-.6.09-.59-.49-1.3-.87-1.9-1.34-.36-.28-.9-.84-1.38-1.21,0-.21.16.08.32,0,.03-.01.09-.25.22-.35.01,0,.29-.13.3-.13.12,0,.27.2.37.26Z"/><path class="cls-26" d="m26.77,14.72c-.84,1.03-1.84.93-2.85.19.78.22,1.59.19,2.39.15.13-.14.31-.22.41-.39.05,0,.04.04.04.04Z"/><path class="cls-26" d="m26.08,18.52c-.1.03-.11.16-.17.22-.52,0-.57-.09-.86-.22-.15-.07-.12-.08-.13-.09.22-.07.32-.09.17-.22l.13-.09c.2.11.23.22.47.13.13-.05.29-.27.39-.35.01,0,.07.01.26-.17-.02.06.01.16,0,.24-.07.17-.2.38-.26.54Z"/><path class="cls-23" d="m26.81,14.08c-1.13.66-2.32.5-3.5.06,1.07.12,2.7.63,3.5-.28,0,.09,0,.13,0,.22Z"/><path class="cls-30" d="m25.82,19.04c-.29.11-.66-.05-.73.13-.08-.09-.17-.17-.26-.26,0-.04.04-.1.04-.13.34.04.73.21,1.04-.04.07-.06.08-.19.17-.22-.07.19-.17.34-.26.52Z"/><path class="cls-20" d="m25.82,19.04c-.26.69-.16.7-.17.73-.2-.19-.37-.41-.56-.6.07-.18.44-.02.73-.13Z"/><path class="cls-26" d="m12.32,2.12l-1.1,2.98c.24-.99.77-1.92.88-2.93.07-.01.14-.03.22-.04Z"/><path class="cls-34" d="m8.6,3.51c-.3,1.14-.36,2.33-.52,3.5-.02,0-.04.03-.17.04-1.1.12-3.3.77-4.14,1.47-.07-.28.2-.53.43-.65.1-.05.64-.14.86-.28,0-.08-.55-.16-.73-.24-.5-.21.71.02,1.38.11l-.97-.71c-.14-.11.01-.07.06-.13.24.15.84.56,1.06.6.19.04.19,0,.37-.09.14-.07.25-.03.19-.09l-1.19-.84.71-.67c.36.35.07,0,.06-.02-.02-.4.79.07.82-.09-.2-.54-.2-.55.28-.84.56,3.05.54,2.62.06-.11.45-.37.93-.68,1.42-.97Z"/><path class="cls-34" d="m6.23,7.13c-.18.09-.17.12-.37.09-.21-.04-.82-.46-1.06-.6.07-.08.26-.31.37-.3.07,0,1.07.69,1.06.82Z"/><path class="cls-20" d="m4.2,7.86l.13-.52c.18.08.74.16.73.24-.23.14-.77.23-.86.28Z"/><path class="cls-25" d="m16.63,2.34l.04.04c-.33.03-.56.1-.86.22l-.04-.04c.4-.14.46-.15.86-.22Z"/><path class="cls-10" d="m15.77,2.56l.04.04c-1.04.38-2.01,1.42-2.59,2.35-1.07,1.72-2.69,6.9-3.06,8.98-.58,3.16-.66,7.82.95,10.7.61,1.1,1.61,2.02,2.8,2.44-.44.25-1.82-.91-2.2-1.36-.82-.95-1.27-2.11-1.68-3.28.07-.35-.11-.72-.17-1.08-.33-1.99-.27-3.7-.13-5.7.02-.23-.01-.67,0-.73.01-.06.35-.75.17-1.12.23-.08.13-.62.22-.65,0-.44.19-.82.3-1.23.35-1.24,1-2.92,1.12-3.52.01-.06.13.06,0-.15.87-2.25,1.7-4.81,4.23-5.7Z"/><path class="cls-7" d="m10.42,11.92c-.19-.11.01-.67.13-1.06.27-.89.66-1.75.99-2.61.13.21.01.09,0,.15-.12.6-.78,2.28-1.12,3.52Z"/><path class="cls-18" d="m7.79,7.65c-.08.34-.04.33-.04.35,0,.01-.04.06-.09.26-1.44.1-2.91.59-4.14,1.38-.29.19-.57.36-.82.6.24-.57.6-1.33,1.08-1.73.85-.7,3.04-1.35,4.14-1.47-.05.23-.3.33-.13.6Z"/><path class="cls-14" d="m9.86,6.96c-.13.41-.17.29-.17.3h-1.79l-.11.11c-.01.09.02.21,0,.28-.17-.28.08-.38.13-.6.13-.01.16-.04.17-.04.5-.05,1.24.07,1.77-.04Z"/><path class="cls-5" d="m8.99,11.1c-.2,2.39-.17,4.8-.43,7.18.1,1.57-.47,6.45.47,7.53-.23.04-1.34-.67-1.6-.86-.11-.08-.52-.41-.65-.52-.03-.03-.1-.11-.17-.17-.11-.1-.24-.24-.35-.35,0-.17-.02-.35-.04-.52-.18-1.21-.26-2.44-.22-3.67.05-1.35.36-3.22.6-4.57.23-1.24.55-2.48.82-3.71.02-.07.07-.25,0-.26,0,0,.13-.08.15-.09.42-.04.97.03,1.4,0Z"/><path class="cls-28" d="m11.32,2.34c-.53,1.53-.99,3.07-1.47,4.62-.53.11-1.26,0-1.77.04.16-1.17.22-2.35.52-3.5,1.02-.61,1.57-.84,2.72-1.17Z"/><path class="cls-9" d="m9.64,7.48c-.31.89-.45,1.82-.56,2.76h-.13c.05-.06.13-.39.13-.41-.04-.19-1.64.07-1.9.19,0-.03,0-.06,0-.09.07-.09.1-.27.13-.39.05-.23.12-.46.17-.69.05-.2.12-.4.17-.6.05-.19.08-.25.09-.26.63-.21,1.52.04,1.9-.52Z"/><path class="cls-9" d="m9.68,7.26s-.06.09-.04.22c-.37.56-1.27.3-1.9.52,0-.02-.04,0,.04-.35.02-.07-.01-.19,0-.28l.11-.11h1.79Z"/><path class="cls-35" d="m9.04,10.5c-.01.1,0,.2,0,.3l-1.92.04-.06-.06c.04-.07.13-.28.13-.32l1.86.04Z"/><path class="cls-14" d="m8.95,10.24h.13c0,.07-.03.14-.04.26l-1.86-.04c.01-.15,0-.23,0-.26l1.77.04Z"/><path class="cls-9" d="m8.95,10.24l-1.77-.04c0-.06,0-.12,0-.17.26-.13,1.86-.39,1.9-.19,0,.02-.08.35-.13.41Z"/><path class="cls-34" d="m20,13.91s-.47-.05-.5-.04c-.37.1.53.46.82.65,1.1.71,2.14,1.57,3.26,2.2.34.39,1.23,1.2,1.64,1.42l-.13.09s-.6-.33-.8-.56c-.13.02-.23.05-.37,0-.7-.26-3.07-2.58-3.26-2.5-.06.03.05.12.02.22-.19-.12-.4-.23-.6-.35-.12-.11-.33-.26-.47-.35,0-.1.02-.14-.06-.22-.09-.08-1.72-.95-2.05-1.12-.94-.5-1.92-.92-2.8-1.51.02-.06.04-.04.04-.04.09-.1.15.18.22-.54-.07-.16-.07-.2-.22-.32-.09-.07-.15-.02-.13-.13.29.06.67.26.69-.13l4.7,3.24Z"/><path class="cls-34" d="m23.28,11.01c.8.05,2.45-.05,2.5-1.04.02-.05-.07-.16.13-.22.14.34.16.57.22.73-.4,1.47-2.37,1.43-3.56,1.17-1.14-.26-3.69-1.75-4.94-2.33-.53-.24-1.06-.47-1.6-.69-.03-.12.03-.23.15-.26.9-.23,4.84,2.49,7.1,2.63Z"/><path class="cls-34" d="m23.28,11.01c.44-.5,1.6-1.27.35-.24-.01.12,1.57-.3,1.7-.37.2-.09.35-.24.45-.43-.05.99-1.71,1.09-2.5,1.04Z"/><path class="cls-34" d="m20.6,4.37c.41-.02.8.06,1.17.26,1.69,1.42,3.27,3.07,4.14,5.13-.2.06-.11.17-.13.22-.1.19-.26.34-.45.43-.14.06-1.72.48-1.7.37,1.25-1.03.1-.26-.35.24-2.25-.14-6.2-2.87-7.1-2.63-.12.03-.18.14-.15.26-.14-.06-.3-.08-.43-.13.19-.41.44-.79.69-1.17.95-1.12,2.8-2.89,4.32-2.98Z"/><path class="cls-34" d="m24.16,8.86c-.28.63-1.83,1.07-2.52,1.19.76-.25,1.55-.44,2.22-.88l.3-.3Z"/><path class="cls-34" d="m23.06,8.55c-.46.35-1.41.62-1.98.76.65-.26,1.36-.43,1.98-.76Z"/><path class="cls-34" d="m18.57,6.91c-.46.43-.87.91-1.38,1.27.4-.49.91-.86,1.38-1.27Z"/><path class="cls-34" d="m20.51,5.36c-.16.19-.62.5-.86.63.25-.26.55-.45.86-.63Z"/><path class="cls-34" d="m18.7,7.91c-.22.17-.5.46-.78.54.22-.23.51-.37.78-.54Z"/><path class="cls-34" d="m21.83,5.4c.12.04-.55.57-.22.17.04-.04.14-.07.22-.17Z"/><path class="cls-34" d="m21.33,5.88s-.13.25-.26.19c.07-.09.16-.14.26-.19Z"/><path class="cls-34" d="m18.79,6.7c-.07.06-.13.14-.22.22.04-.04.09-.1.22-.22Z"/><path class="cls-34" d="m18.96,7.73c-.1.09-.16.11-.26.17.13-.1.12-.09.26-.17Z"/><path class="cls-34" d="m19.44,6.18c-.08.07-.13.11-.22.17.12-.11.1-.09.22-.17Z"/><path class="cls-34" d="m20.9,6.27c-.08.07-.14.11-.22.17.02-.02.01-.04.22-.17Z"/><path class="cls-34" d="m20.69,6.44c-.07.05-.15.12-.22.17.07-.06.14-.11.22-.17Z"/><path class="cls-34" d="m19.09,6.44c-.06.05-.1.12-.17.17.02-.01.03-.06.17-.17Z"/><path class="cls-34" d="m20.9,5.06s.08-.17.17-.11c-.1.13-.16.1-.17.11Z"/><path class="cls-34" d="m18.96,7.73s0-.15.17-.11c-.04.06-.11.07-.17.11Z"/><path class="cls-34" d="m19.65,7.22s-.09.18-.17.11c.1-.13.16-.1.17-.11Z"/><path class="cls-34" d="m19.82,7.09c-.05.04-.11.09-.17.13.08-.06.08-.07.17-.13Z"/><path class="cls-34" d="m19.82,7.09s.04-.11.17-.11c.02.09-.15.09-.17.11Z"/><path class="cls-34" d="m20.47,6.61c-.06.04-.13.09-.17.13.05-.04.12-.09.17-.13Z"/><path class="cls-34" d="m23.06,8.55s-.04-.06.11-.13c.07.07-.01.08-.11.13Z"/><path class="cls-34" d="m19.44,6.18s.02-.14.11-.13c.02.13-.1.12-.11.13Z"/><path class="cls-34" d="m20.9,6.27s.05-.09.11-.13c.07.13-.1.12-.11.13Z"/><path class="cls-34" d="m21.33,5.88s.05-.14.13-.06c-.06.09-.12.06-.13.06Z"/><path class="cls-34" d="m19.28,7.43s.1,0,.11.02c.03.06-.27.05-.11-.02Z"/><path class="cls-34" d="m20.3,6.74c-.1.08-.12.08-.13.09.11-.12.12-.08.13-.09Z"/><path class="cls-34" d="m18.92,6.61c-.12.1-.12.08-.13.09.12-.11.12-.08.13-.09Z"/><path class="cls-34" d="m19.22,6.35c-.12.11-.12.08-.13.09.11-.08.12-.08.13-.09Z"/><path class="cls-34" d="m20.17,6.83s.03.1-.06.09c-.05-.04.06-.08.06-.09Z"/><path class="cls-34" d="m20.51,5.36s-.02-.14.09-.06c-.05.06-.08.06-.09.06Z"/><path class="cls-34" d="m20.9,5.06s.02.14-.09.06c.05-.06.08-.06.09-.06Z"/><path class="cls-27" d="m23.92,17.66c.25.35.62.58.99.78,0,0-.02.02.13.09-.28.19-.16.18-.17.26,0,.03-.03.09-.04.13-.9-.9-3.14-2.91-4.14-3.54.03-.1-.08-.19-.02-.22.19-.08,2.56,2.24,3.26,2.5Z"/><path class="cls-20" d="m20,13.91c.25.07,1.73,1.23,2.09,1.51.08-.17.02-.02.11.04.48.37,1.03.93,1.38,1.21v.04c-1.12-.63-2.16-1.49-3.26-2.2-.28-.18-1.19-.54-.82-.65.02,0,.47.04.5.04Z"/><path class="cls-27" d="m24.27,15.8c.29.16.99.48,1.27.52.17.02,1.17-.13.3.13-.09.03-.19.03-.28.04-.25.03-.49-.04-.73-.02.24.33.49.27.52.28-.12.19.32.3.6.6,0,0,0,.03-.11.09-.81-.73-1.7-1.38-2.44-2.2.29.18.56.4.86.56Z"/><path class="cls-14" d="m14.26,7.95c.33.13.66.3.99.43.11.05.23.08.35.13.14.05.3.07.43.13.54.22,1.07.45,1.6.69-.74-.13-1.64-.69-2.33-.65-.29-.16-.64-.26-.95-.39-.21-.12-.41-.24-.65-.3.03-.07.05-.14.09-.22.16.05.32.11.47.17Z"/><path class="cls-19" d="m17.62,9.33c1.26.58,3.8,2.07,4.94,2.33,1.19.27,3.16.3,3.56-1.17.12.37.31.72.39,1.1.09.43.11.88.17,1.32-1.98,1.66-6.09-.97-8.18-1.98-.73-.35-1.5-.63-2.22-.99-.35-.28.17-.53-.24-.56-.11,0-.04.11-.24.04.18-.02.19-.18.13-.3-.06-.14-.5-.35-.65-.43.69-.04,1.59.52,2.33.65Z"/><path class="cls-26" d="m16.01,8.94l.82.3c.78.48,1.57.72,2.31,1.23-1.06-.47-2.14-.92-3.13-1.53Z"/><path class="cls-34" d="m7.48,8.86c-.06.23-.12.46-.17.69-1.17.48-3.2.77-3.88,1.9-.31.25-.95.92-1.12,1.25-.54-.18.18-1.98.39-2.46.25-.24.53-.42.82-.6.03.23.14-.04.15-.04,0,0,.04.07.13.04.28-.1.88-.41,1.12-.47.57-.15,1.93-.29,2.57-.3Z"/><path class="cls-34" d="m7.31,9.55c-.03.12-.06.3-.13.39-1.33.29-2.67.65-3.75,1.51.68-1.13,2.72-1.41,3.88-1.9Z"/><path class="cls-34" d="m7.66,8.25c-.05.2-.12.4-.17.6-.64.02-1.99.15-2.57.3-.24.06-.84.38-1.12.47-.08.03-.12-.05-.13-.04-.01,0-.12.27-.15.04,1.23-.79,2.7-1.28,4.14-1.38Z"/><path class="cls-27" d="m25.48,18c.06.05.16.19.22.26-.24.09-.28-.02-.47-.13-.41-.23-1.3-1.03-1.64-1.42v-.04c.6.47,1.31.85,1.9,1.34Z"/><path class="cls-20" d="m25.56,16.49c.12.34.71.07.82.47-.58.05-.84-.14-1.04-.22-.03-.01-.27.04-.52-.28.25-.02.49.05.73.02Z"/><path class="cls-26" d="m26.38,16.97c.02.08-.36.36-.43.39-.29-.3-.72-.42-.6-.6.2.08.46.27,1.04.22Z"/><path class="cls-23" d="m26.08,17.92c-.09.08-.25.3-.39.35-.06-.07-.15-.21-.22-.26.14-.23.39-.07.6-.09Z"/><path class="cls-26" d="m25.09,18.22c.14.13.05.15-.17.22-.37-.2-.74-.43-.99-.78.13.05.23.02.37,0,.2.23.76.53.8.56Z"/><path class="cls-30" d="m25.91,18.74c-.3.25-.7.09-1.04.04.02-.07-.1-.07.17-.26.29.13.34.21.86.22Z"/><path class="cls-31" d="m3.94,19.47c.08.14-.04.79.28.56.05-.04.01-.46.02-.56.01-.1.03-.2.04-.3.16.07-.1.81,0,.97.06.1.5-.1.45.45.05-.46.04-.92.11-1.38.07-.46.18-.86.35-1.29-.14.59-.26,1.12-.3,1.73,0,.12-.1.8-.02.86.04.03.54.2.63-.35.28.98.42,2.32.65,3.21,0,.03.06.02.09.02.02.17.04.35.04.52-1.52-1.44-2.14-2.47-3.11-4.32.2-.05.01-.99.13-1.62h.09c-.06.45-.12,1.17-.04,1.6.08.44.08-.27.09-.37.19-.05-.05,1.13.28.86.05-.04,0-.92.02-1.08.06-.78.19-1.79.47-2.52-.21.81-.61,3.27-.39,3.93.17.52.1-.53.13-.93Z"/><path class="cls-24" d="m6.62,15.16c-.25,1.35-.55,3.23-.6,4.57-.09-.02,0-.26-.06-.26-.08,0,.2.35-.45.17.08-.95.08-1.01.26-1.94.1-.5.16-1.01.3-1.51l.17-.19c.09-.36.03-.87.39-.84Z"/><path class="cls-25" d="m6.02,19.73c-.05,1.23.04,2.45.22,3.67-.03,0-.08.01-.09-.02-.23-.9-.37-2.23-.65-3.21.02-.14-.01-.35,0-.52.66.18.37-.17.45-.17.06,0-.03.24.06.26Z"/><path class="cls-34" d="m7.44,11.19c.07,0,.02.19,0,.26-.52.03-1.29.25-1.79.43-.67.24-1.02.68-1.1.26.88-.54,1.89-.82,2.89-.95Z"/><path class="cls-24" d="m4.38,13.52c-1.04,1.44-1.82,3.18-1.6,5.01-.33-.43-.45-1.19-.47-1.73.14.03.06-.11.09-.26.16.1.23-.9.47-1.47.32-.49.47-1.08.88-1.51-.87,1.44.3-.16.56-.13.03,0,0,.09.06.09Z"/><path class="cls-31" d="m3.3,15.59c-.14.35-.28.7-.35,1.08-.13.74-.17,1.55,0,2.29-.03-.06-.13-.05-.17-.43-.22-1.82.56-3.57,1.6-5.01.28-.39.45-.57.3-.28-.21.41-.9,1.11-1.38,2.35Z"/><path class="cls-34" d="m4.38,12.27c.53.14.13.22-.17.45-.17.86-.49.56-.54.58-.14.07-.55.49-.76.56.23-.58.96-1.25,1.47-1.6Z"/><path class="cls-34" d="m2.48,15.07c.08-.42.17-.81.43-1.17,0,0,.09.02.09.11-.13.31-.45.88-.52,1.06Z"/><path class="cls-24" d="m5.11,13.6c-.2.47-.14.61.04.04.54.06-.13.59.26.91-.18.69-.39,1.38-.56,2.07-.46-.01-.12-.45,0-1.06-.21.18,0,.42-.52.5,1.25-3.5.23-1.45-.09.09-.36-.41-.16.14-.52.17.25-.75.61-1.94.04-.35-.29.05-.45.66-.82.69.07-.38.21-.73.35-1.08.5-.21,1-1.47,1.08-1.06,0,.03-.42.86-.17.52.23-.31.24-1.29.91-1.45Z"/><path class="cls-25" d="m5.5,14.72c-.22.75-.45,1.48-.65,2.24-.07.29-.54,1.9-.47,2.05.01.03.4.13.47.19-.07.46-.06.92-.11,1.38.05-.56-.39-.36-.45-.45-.1-.16.16-.9,0-.97.13-.9.35-1.68.56-2.55.17-.69.39-1.38.56-2.07.8-2.63.71-1.99.09.17Z"/><path class="cls-24" d="m6.23,14.03c-.04.16-.15.85-.17.88-.02.04-.33.16-.35.17-.19.24-.27,1.93-.86,1.88.19-.76.43-1.49.65-2.24.5.73.43-1.31.73-.69Z"/><path class="cls-26" d="m7.44,11.45c-.27,1.23-.59,2.47-.82,3.71-.36-.03-.29.48-.39.84l-.17.19s-.08.01-.09-.02c-.07-.3.84-3.53.84-4.16-.21.67-.39,1.35-.58,2.03-.3-.62-.23,1.42-.73.69.62-2.17.71-2.8-.09-.17-.39-.32.28-.85-.26-.91.11-.34.12-.42-.04-.04-.67.15-.68,1.14-.91,1.45-.25.34.18-.49.17-.52-.08-.42-.58.84-1.08,1.06.48-1.24,1.17-1.94,1.38-2.35.15-.29-.02-.11-.3.28-.06,0-.03-.08-.06-.09-.26-.03-1.43,1.57-.56.13-.41.43-.56,1.02-.88,1.51-.21.33-.42,1.08-.47,1.47-.02.15.06.28-.09.26-.02-.38.06-.75,0-1.12,0-.03,0-.06,0-.09.16.07.15-.42.17-.52.07-.18.39-.75.52-1.06,0-.09-.09-.1-.09-.11,0-.01,0-.03,0-.04.21-.08.61-.49.76-.56.05-.02.37.28.54-.58.3-.23.71-.31.17-.45,0,0,.01-.03.17-.13.08.42.43-.02,1.1-.26.51-.18,1.27-.4,1.79-.43Z"/><path class="cls-34" d="m2.3,15.59c.05-.22.1-.32.17-.52-.02.1-.01.59-.17.52Z"/><path class="cls-24" d="m2.39,16.54c.06-.39.26-1.14.47-1.47-.24.57-.31,1.57-.47,1.47Z"/><path class="cls-25" d="m5.15,13.65c-.18.57-.25.43-.04-.04.16-.38.15-.3.04.04Z"/><path class="cls-24" d="m5.52,12.48c-.09.67-.35.79-.02.02l.02-.02Z"/><path class="cls-24" d="m6.1,12.48c-.01.09,0,.18-.06.26-.06-.09.03-.18.06-.26Z"/><path class="cls-25" d="m5.3,13.09c.07.02-.03.22-.04.22-.07-.02.03-.22.04-.22Z"/><path class="cls-24" d="m6.1,12.48s-.02-.1.02-.13c.07.13-.02.12-.02.13Z"/><path class="cls-25" d="m5.76,17.7c-.18.93-.18.99-.26,1.94-.01.16.02.38,0,.52-.09.55-.59.37-.63.35-.08-.06.01-.74.02-.86.09.03.43.08.47.02.08-.11.15-1.62.26-1.94.01-.04.09-.02.13-.02Z"/><path class="cls-25" d="m3.73,19c-.01.16.03,1.04-.02,1.08-.33.27-.09-.92-.28-.86.12-1.75.07-.57.09-.5,0,.02.14-.04.22.28Z"/><path class="cls-8" d="m4.33,16.06c-.08.22-.19.58-.09.09.32-1.53,1.34-3.59.09-.09Z"/><path class="cls-24" d="m4.85,16.62c-.21.87-.43,1.65-.56,2.55-.01.1-.03.2-.04.3l-.26-.11c.33-1.82.06-1.38-.04.11-.03.4.04,1.45-.13.93-.22-.66.18-3.12.39-3.93-.28.73-.42,1.74-.47,2.52-.08-.32-.21-.26-.22-.28-.02-.07.04-1.25-.09.5,0,.1,0,.8-.09.37-.07-.42-.02-1.15.04-1.6h-.09c-.12.63.07,1.57-.13,1.62-.05-.1-.09-.2-.13-.3.08-.08-.05-.27-.09-.35-.17-.73-.13-1.55,0-2.29.37-.03.53-.64.82-.69-.12.35-.2.51-.26.91,0,0-.09.02-.02.17.1-.13.02-.14.02-.17.07-.18.15-.37.22-.56.36-.04.16-.58.52-.17-.1.5,0,.13.09-.09.53-.08.31-.32.52-.5-.12.6-.46,1.05,0,1.06Z"/><path class="cls-31" d="m3.04,19.3c-.05-.15-.06-.21-.09-.35.04.07.16.26.09.35Z"/><path class="cls-25" d="m4.25,19.47c-.01.1.03.53-.02.56-.32.23-.2-.42-.28-.56.1-1.49.37-1.93.04-.11l.26.11Z"/><path class="cls-31" d="m3.73,16.32c-.06.19-.15.38-.22.56.06-.4.13-.55.26-.91.57-1.6.21-.4-.04.35Z"/><path class="cls-31" d="m3.45,17.14c0,.96-.22,1.04-.02.02l.02-.02Z"/><path class="cls-8" d="m3.51,16.88s.07.04-.02.17c-.07-.15.02-.16.02-.17Z"/><path class="cls-24" d="m6.06,16.19c-.14.5-.21,1.01-.3,1.51-.04,0-.12-.02-.13.02-.11.32-.18,1.83-.26,1.94-.04.06-.38.01-.47-.02.04-.6.16-1.14.3-1.73.02-.07.13-.18.06-.26-.09.11-.05.21-.06.26-.16.44-.28.83-.35,1.29-.08-.06-.46-.16-.47-.19-.07-.15.4-1.76.47-2.05.59.05.68-1.63.86-1.88.01-.02.32-.14.35-.17.02-.04.13-.73.17-.88.19-.68.37-1.36.58-2.03,0,.63-.91,3.86-.84,4.16,0,.03.06.02.09.02Z"/><path class="cls-25" d="m5.48,17.06c.11.03-.27.69-.02.02,0-.01.02-.02.02-.02Z"/><path class="cls-31" d="m5.2,17.92c.01-.05-.02-.15.06-.26.07.08-.04.19-.06.26Z"/><path class="cls-31" d="m16.46,18.18c.79,2.95,2.17,4.4,5.26,4.79.56.07,1.12.1,1.68.09-.52.51-1.59,1.5-2.16,1.9,0,0-.02,0-.09.04-.18.12-.37.24-.56.35-.62.34-.49.43-1.12.26-.79-.21-1.57-.83-2.11-1.42-.03-.03-.06-.1-.09-.13.06-.36-.15-.78-.13-1.17.18.21.74.67.99.86.85.67,1.8,1.28,2.91.78,0-.05-.56.15-.86.13-.03,0,0-.08-.04-.09-.13-.01-.18.06-.26.04-.01,0-.16-.13-.17-.13-.02,0-.24,0-.26,0-.02,0-.35-.18-.41-.22.09-.48.43-.15.58-.17.09-.01.42-.17.52-.17.28,0,.88.35.93-.13.54.02.92.11,1.42-.19-.45-.05-.96.05-1.45.02-.32-.02-.84-.07-1.14-.13-.51-.1-1.37-.48-1.79-.78-.23-.17-1.15-1.02-1.14-1.29.36.4.68.72,1.12,1.04,1.28.92,2.88,1.27,4.42.99-.32-.28.57-.02.6-.3-1.25-.08-2.55-.11-3.73-.56-1.39-.53-2.36-1.64-2.8-3.04-.03-.09.06-.12.04-.17-.27-.9-.6-1.83-.52-2.78.1.53.2,1.07.35,1.6Z"/><path class="cls-11" d="m19.48,25.6c-.04.41-.32.33-.6.52h-.04c-.18-.39-.58-.65-.78-.88-.03-.03-.2-.41-.22-.43-.19-.23-.66-.39-.47-.63.55.59,1.32,1.21,2.11,1.42Z"/><path class="cls-24" d="m16.11,16.58c-.08.96.25,1.88.52,2.78.01.05-.07.09-.04.17.45,1.4,1.41,2.51,2.8,3.04-.08.39-.74-.34-1.29-.13-.44-.32-.76-.64-1.12-1.04-.14-.16-.28-.38-.39-.35-.08-.17-.14-.33-.26-.47-.26-.62-.42-1.16-.56-1.81.27-.04-.02-1.08-.04-1.53-.03-.49.04-1.09,0-1.6.1-.03.11-.02.17-.11.12.33.15.69.22,1.04Z"/><path class="cls-25" d="m17.54,19.69c0,.07.12.47.13.5.08.14.97.92,1.17,1.06,0,.22.28.4.47.39.37.15,3.34,1.16,3.45,1.01.01-.02-.13-.13-.11-.15.18-.17.57.18.76.26-.11-.01-.23,0-.32-.09.08.36-1.77-.11-2.33-.26-.04,0,0-.08-.04-.09-.75-.2-1.12-.38-.86.04.43.12,1.85.38,2.07.47.26.11-.02.04-.19.13-3.09-.39-4.47-1.84-5.26-4.79.07-.04.08-.06.13.02.18.26.47.92.95,1.49Z"/><path class="cls-26" d="m16.29,16.02c.14.33.23.67.39.99-.29-.12.37.93.56,1.45,1.28,2.32,3.13,2.85,5.35,4.01-1.9-.36-3.78-1.29-5.05-2.78-.48-.57-.77-1.23-.95-1.49-.05-.08-.06-.06-.13-.02-.14-.53-.24-1.06-.35-1.6-.07-.35-.1-.7-.22-1.04.07-.1.07-.3.13-.24-.06.22.15.46.26.71Z"/><path class="cls-25" d="m19.39,22.58c1.19.45,2.48.48,3.73.56-.04.28-.93.02-.6.3-1.54.28-3.14-.07-4.42-.99.56-.21,1.22.52,1.29.13Z"/><path class="cls-8" d="m16.07,22.23c.18.36.38.7.6,1.04.18.27.39.53.6.78.03.03.06.1.09.13-.18.23.29.39.47.63.02.02.19.4.22.43.2.24.6.5.78.88-.21-.07-.41-.16-.6-.26l-.35-.76c-.04-.05-.26-.13-.52-.41-.02-.02-.11-.07-.13-.09-.18-.2-.39-.41-.56-.6-.3-.36-.75-1.05-.99-1.47.18-.18.18-.39.39-.3Z"/><path class="cls-31" d="m19.74,23.57c-.03.25.16.05.45.09.04,0,.2.1.88.13-.05.48-.64.12-.93.13-.09,0-.43.16-.52.17-.15.02-.5-.3-.58.17-.15-.08-.71-.47-.82-.56-.04-.04-.09-.13-.13-.17-.08-1.06.44-.03,1.64.04Z"/><path class="cls-25" d="m16.98,21.41c-.01.28.91,1.13,1.14,1.29.42.3,1.29.68,1.79.78.01.21-.05.09-.17.09-1.2-.08-1.72-1.1-1.64-.04-.79-.78-1.06-1.48-1.51-2.46.11-.03.24.19.39.35Z"/><path class="cls-31" d="m15.85,19.9c.12.3.17.52.47.69.12.14.18.31.26.47.45.98.73,1.68,1.51,2.46.04.04.08.13.13.17l-.09.04c-.25-.19-.82-.66-.99-.86-.11-.13-.6-.9-.73-1.12.08-.52-.44-1.21-.65-1.73.03-.07-.14-.15.09-.13Z"/><path class="cls-31" d="m23.41,22.75c.09.01.17-.03.26.04-.09.09-.17.17-.26.26-.56,0-1.12-.02-1.68-.09.17-.08.45-.02.19-.13-.22-.1-1.64-.35-2.07-.47-.25-.43.11-.25.86-.04.04,0,0,.08.04.09.56.15,2.41.62,2.33.26.09.08.21.07.32.09Z"/><path class="cls-24" d="m16.42,21.76c.13.22.62.99.73,1.12-.02.39.19.81.13,1.17-.22-.25-.42-.51-.6-.78.16-.61-.59-1.33-.43-1.77.05.08.12.17.17.26Z"/><path class="cls-25" d="m21.08,23.79c-.68-.03-.84-.12-.88-.13-.3-.04-.49.17-.45-.09.12,0,.19.13.17-.09.31.06.83.11,1.14.13.49.02,1-.07,1.45-.02-.5.3-.89.22-1.42.19Z"/><path class="cls-11" d="m18.23,23.7c.11.1.67.48.82.56.06.03.39.21.41.22.02,0,.24,0,.26,0,.01,0,.16.13.17.13.08.01.13-.06.26-.04.03,0,0,.08.04.09.3.02.85-.17.86-.13-1.12.51-2.06-.11-2.91-.78l.09-.04Z"/><path class="cls-31" d="m16.67,15.8c.27.49.4.84.73,1.34.09.13.17.28.26.41,1.02,1.05,2.17,1.96,3.28,2.91.18.15.35.33.52.47-.26.23.82,1.13.95.86.11.09.37.22.47.3.27.21.53.46.82.65-.02.02-.03.03-.04.04-.09-.07-.17-.03-.26-.04-.18-.08-.57-.43-.76-.26-.03.02.12.13.11.15-.11.15-3.08-.87-3.45-1.01.11-.24-.31-.28-.47-.39-.2-.13-1.08-.92-1.17-1.06-.01-.02-.12-.42-.13-.5,1.27,1.5,3.15,2.42,5.05,2.78-2.22-1.17-4.07-1.7-5.35-4.01-.19-.52-.85-1.56-.56-1.45.05.1.12.17.17.26.28.5.35.63.73,1.08.71.84,3.32,3.3,4.4,3.56-.41-.43-.87-.82-1.29-1.23-.84-.81-2.56-2.29-3.15-3.09-.57-.78-.89-1.66-1.29-2.52.16.25.29.47.43.73Z"/><path class="cls-34" d="m14.04,13.09c1.46.51,4.38,2.26,5.63,3.24,1.92,1.49,3.42,3.41,5.03,5.22.04.16-.1.14-.13.17-.48-.48-.96-.97-1.42-1.47-.64-.69-1.26-1.37-1.94-2.03-.81-.78-1.24-1.25-2.22-1.94-.7-.49-1.48-.84-2.2-1.29-.39-.24-.66-.65-.67-.39-.05,0-.1-.02-.13-.04-.57-.47-1.42-.9-2.07-1.25.02-.08.04-.25.13-.22Z"/><path class="cls-12" d="m21.08,19.08c.41.46.8.96,1.21,1.42.57.65,1.14,1.31,1.73,1.94-.03.03-.06.06-.09.09-.83-.81-1.72-1.56-2.5-2.42-.34-.37-.61-.81-.95-1.19-.61-.7-1.44-1.24-2.09-1.88-.71-.7-1.55-1.73-2.05-2.2,1.22,1.12,2.33,2.35,3.78,3.19.35.32.65.68.97,1.04Z"/><path class="cls-25" d="m23.15,20.25c.46.5.94.98,1.42,1.47-.11.16-.23.28-.35.43-.43-.45-.88-.91-1.29-1.38-.32-.36-.62-.76-.95-1.12.09-.24,1,.88,1.17.6Z"/><path class="cls-26" d="m21.42,20.12c.79.86,1.67,1.6,2.5,2.42-.07.08-.15.14-.22.22-.29-.19-.55-.43-.82-.65-.37-.5-.86-.88-1.25-1.36-.14-.17-.32-.55-.39-.63h.17Z"/><path class="cls-25" d="m22.93,20.77c.42.47.86.93,1.29,1.38-.02.03-.07.14-.22.3-.59-.64-1.15-1.29-1.73-1.94.09-.5.33.25.65.26Z"/><path class="cls-26" d="m15.98,14.55c-.1.12.04.12.22.39-.13.05.04.12.04.13.41.86.72,1.75,1.29,2.52.59.8,2.31,2.28,3.15,3.09-.22.19-.88-.47-1.21-.76-.04-.03-.08-.22-.15-.28-.02-.02-.28-.13-.47-.3-.4-.35-.74-.77-1.27-.99-.38-.45-.45-.58-.73-1.08.09-.16.17-.18.17-.19,0-.08-.79-1.6-.73-1.06-.11-.25-.32-.49-.26-.71-.06-.06-.06.14-.13.24-.06.09-.08.08-.17.11.04.5-.03,1.1,0,1.6.02.45.32,1.49.04,1.53-.18-.86-.2-1.22-.26-2.07-.03-.37-.05-2.28-.09-2.39-.09-.28-.08.7-.09,1.27-.1-.88.07-.37-.78-.52,0-.39.06-.79.09-1.19h-.09c0,.16.01.33,0,.5-.4.04-.6,1.59-.65,2.09,0,.03-.08,0-.09.04-.03.47.27,2.06.43,2.55.02.07.08.25.17.24.02.15-.07.09-.04.15.02.04.12,0,.13.04.02.09-.09.06-.09.09.16.7.87,2.29,1.25,2.96.24.42.69,1.11.99,1.47-.27.07.21.57.35.69v.22c-1.14-1.07-1.88-2.24-2.46-3.69-1.14-2.83-1.32-4.95-.65-7.92.66.35,1.5.79,2.07,1.25Z"/><path class="cls-8" d="m18.23,25.86c-.26-.13-.36-.24-.56-.39.08-.34-.35-.43-.3-.78.26.28.48.36.52.41l.35.76Z"/><path class="cls-8" d="m17.36,24.69c-.05.35.38.44.3.78-.27-.2-.41-.34-.65-.56v-.22c.22.19.32.24.22-.09.01.02.11.07.13.09Z"/><path class="cls-31" d="m15.51,16.71c.06.85.08,1.21.26,2.07.14.65.3,1.19.56,1.81-.3-.17-.35-.39-.47-.69-.1-.25-.2-.64-.26-.91-.15-.67-.17-.88-.22-1.55-.02-.23-.03-.46-.04-.69l.17-.04Z"/><path class="cls-31" d="m19.31,21.63c-.19,0-.47-.17-.47-.39.17.11.59.15.47.39Z"/><path class="cls-26" d="m16.85,17.27c-.05-.09-.12-.16-.17-.26-.16-.32-.25-.67-.39-.99-.06-.55.74.98.73,1.06,0,.01-.09.03-.17.19Z"/><path class="cls-26" d="m15.34,15.59c0,.39-.01.78,0,1.17,0,.23.03.46.04.69-.5-.7-.12,1.88.22,1.55.06.27.16.66.26.91-.22-.02-.05.06-.09.13-.02.04-.13,0-.13.15,0,.09.51,1.14.6,1.32-.16.44.59,1.16.43,1.77-.23-.33-.42-.68-.6-1.04-.14-.27-.32-.59-.43-.86-.99-2.31-1.14-3.81-1.08-6.3.84.15.68-.36.78.52Z"/><path class="cls-25" d="m15.64,21.37c.12.27.29.6.43.86-.2-.09-.21.12-.39.3-.38-.67-1.09-2.25-1.25-2.96,0-.03.1,0,.09-.09,0-.04-.11,0-.13-.04-.03-.06.06,0,.04-.15-.05-.43.05-.35.04-.37-.06-.63-.52-1.76-.09-2.22,0,.77.07,1.57.3,2.31-.2.25.24,1.42.39,1.77.03.06.12.06.13.09,0,.02-.02.26.09.43.19.29.11-.04.35.06Z"/><path class="cls-24" d="m17.24,24.61c.1.33,0,.28-.22.09-.14-.12-.62-.62-.35-.69.17.2.38.41.56.6Z"/><path class="cls-25" d="m16.42,21.76c-.05-.09-.13-.17-.17-.26-.1-.18-.61-1.23-.6-1.32,0-.16.11-.11.13-.15.21.51.73,1.21.65,1.73Z"/><path class="cls-27" d="m21.25,20.12c.07.08.25.46.39.63.39.47.88.86,1.25,1.36-.11-.08-.37-.21-.47-.3-.33-.27-.62-.59-.95-.86-.17-.15-.34-.32-.52-.47.14-.37-.16-.32-.32-.47-.32-.31-.63-.65-.95-.95,0,0-.05.07-.09.04-.39-.36-.83-.93-1.29-1.34-.21-.18-.72-.63-.88-.6-.34-.5-.47-.85-.73-1.34.04-.41.49.58.8.91,1.27,1.16,2.69,2.12,3.78,3.41Z"/><path class="cls-34" d="m16.11,14.6c.07.08.14.19.22.26.5.47,1.34,1.5,2.05,2.2.65.64,1.48,1.18,2.09,1.88.34.37.61.82.95,1.19h-.17c-1.08-1.29-2.5-2.24-3.78-3.41-.3-.32-.76-1.31-.8-.91-.14-.26-.28-.48-.43-.73,0,0,0-.06-.04-.13-.18-.27-.32-.26-.22-.39.03.03.08.05.13.04Z"/><path class="cls-26" d="m20.69,20.68c.43.41.88.8,1.29,1.23-1.08-.26-3.69-2.72-4.4-3.56.54.22.87.64,1.27.99.2.17.45.28.47.3.07.06.11.25.15.28.32.29.98.94,1.21.76Z"/><path class="cls-27" d="m20.95,20.46c-1.11-.95-2.26-1.86-3.28-2.91-.09-.13-.17-.28-.26-.41.16-.02.68.42.88.6.46.41.91.97,1.29,1.34.03.03.08-.05.09-.04.32.3.63.64.95.95.16.16.46.1.32.47Z"/><path class="cls-11" d="m22.41,21.8c-.13.27-1.21-.64-.95-.86.33.28.62.59.95.86Z"/><path class="cls-26" d="m21.2,18.22c-.04.25-1.06-.78-.99-.37.02.11,1.14,1.12,1.55,1.58-.29.02-.42-.43-.69-.35-.32-.35-.62-.71-.97-1.04-1.45-.84-2.56-2.07-3.78-3.19-.08-.07-.15-.18-.22-.26.01-.27.28.14.67.39.72.45,1.5.8,2.2,1.29.98.69,1.41,1.16,2.22,1.94Z"/><path class="cls-24" d="m21.2,18.22c.68.66,1.3,1.34,1.94,2.03-.16.27-1.07-.84-1.17-.6-.07-.07-.15-.14-.22-.22-.42-.45-1.54-1.47-1.55-1.58-.07-.41.95.62.99.37Z"/><path class="cls-24" d="m21.77,19.43c.07.08.15.14.22.22.33.36.63.76.95,1.12-.32,0-.56-.76-.65-.26-.41-.47-.8-.97-1.21-1.42.27-.09.4.36.69.35Z"/><path class="cls-26" d="m14.56,14.38c-.06.78-.18,1.55-.17,2.33-.44.46.02,1.6.09,2.22,0,.02-.09-.06-.04.37-.09.02-.15-.17-.17-.24-.16-.48-.46-2.07-.43-2.55,0-.03.08,0,.09-.04.05-.5.25-2.05.65-2.09Z"/><path class="cls-31" d="m14.56,15.07c-.06,2.49.09,3.99,1.08,6.3-.23-.1-.16.23-.35-.06-.11-.17-.08-.41-.09-.43-.01-.02-.1-.02-.13-.09-.15-.35-.59-1.52-.39-1.77-.23-.74-.3-1.54-.3-2.31,0-.78.11-1.55.17-2.33.01-.16,0-.33,0-.5h.09c-.02.39-.08.79-.09,1.19Z"/><path class="cls-8" d="m15.51,16.71l-.17.04c-.01-.39,0-.78,0-1.17,0-.57,0-1.55.09-1.27.04.11.06,2.03.09,2.39Z"/><path class="cls-27" d="m16.24,15.07s-.17-.08-.04-.13c.05.07.04.12.04.13Z"/><path class="cls-25" d="m15.38,17.44c.05.67.06.88.22,1.55-.34.33-.72-2.25-.22-1.55Z"/><path class="cls-19" d="m14.9,12.74l3.04,1.25c.65.33,1.3.69,1.94,1.04.03.02.16-.02.19,0,.2.11.41.22.6.35,1.01.63,3.24,2.64,4.14,3.54.09.09.17.17.26.26.19.2.36.41.56.6-.27.61-.63,1.18-.95,1.77-1.6-1.81-3.11-3.73-5.03-5.22-1.25-.97-4.17-2.72-5.63-3.24-.66-.23-1.35-.38-2.03-.52.03-.1.06-.2.09-.3.4,0,2.39.65,2.52.65.17,0,.18-.19.28-.17Z"/><path class="cls-18" d="m17.49,13.34c-.17.09.24.42.32.47,0,0,.07-.08.13-.04.55.33,1.11.59,1.66.91.14.08.35.23.47.35-.03-.02-.16.02-.19,0-.65-.35-1.29-.7-1.94-1.04l-3.04-1.25c0-.1-.08-.25-.09-.26,0-.02.04,0,0-.17,0,0,.06.02.04-.11,0-.04-.2-.29-.17-.37.89.59,1.87,1.01,2.8,1.51Z"/><path class="cls-16" d="m19.61,14.68c-.55-.32-1.12-.58-1.66-.91-.06-.04-.12.05-.13.04-.08-.05-.49-.39-.32-.47.33.17,1.96,1.04,2.05,1.12.08.07.07.11.06.22Z"/><path class="cls-4" d="m14.04,13.09c-.09-.03-.11.14-.13.22-.67,2.97-.5,5.08.65,7.92.58,1.45,1.32,2.62,2.46,3.69.24.22.38.37.65.56.21.15.31.25.56.39.2.1.39.19.6.26h.04c-.07.04-.34.28-.39.3-.11.05-.24.08-.35.13-.66.27-1.54.5-2.24.6,0-.17-.1-.04-.11-.04-1.46-.35-3.28-3.22-3.82-4.55-.96-2.4-.98-5.9-.43-8.41.11-.52.33-1.06.47-1.58.68.14,1.37.29,2.03.52Z"/><path class="cls-2" d="m21.51,4.37c.09.07.17.19.26.26-.37-.19-.75-.28-1.17-.26-1.23-.28-3.43,1.71-4.14,2.68-.37.07-.2.22-.22.24-.14.17-.19.02-.24.06-.39.32-.52,1.16-.76,1.04-.33-.13-.66-.3-.99-.43.24-.93.93-2.17,1.55-2.91.4-.48,1.27-1.07,1.12-1.32,1.98-1.28,2.79-.47,4.57.65Z"/><path class="cls-13" d="m16.93,3.72c.15.25-.72.84-1.12,1.32-.62.74-1.32,1.98-1.55,2.91-.16-.06-.32-.12-.47-.17.79-1.72,1.51-2.99,3.15-4.06Z"/><path class="cls-6" d="m20.6,4.37c-1.52.09-3.36,1.86-4.32,2.98.05-.08.11-.22.17-.3.71-.97,2.92-2.96,4.14-2.68Z"/><path class="cls-13" d="m16.46,7.04c-.06.08-.12.23-.17.3-.25.37-.5.76-.69,1.17-.11-.04-.23-.08-.35-.13.23.12.37-.72.76-1.04.05-.04.09.11.24-.06.01-.02-.15-.16.22-.24Z"/><path class="cls-35" d="m14.82,12.48s.08.16.09.26c-.1-.02-.11.16-.28.17-.13,0-2.12-.66-2.52-.65.06-.2.17-.42.22-.6.37.07,2.22.95,2.35.95,0,0,.15-.08.15-.13Z"/><path class="cls-35" d="m14.69,11.83c-.02.08.17.32.17.37.02.13-.04.1-.04.11-.83-.32-1.62-.77-2.5-.95.04-.15.02-.39.24-.39.12,0,1.89.74,2.14.86Z"/><path class="cls-17" d="m14.82,12.31c.04.17,0,.15,0,.17,0,.05-.14.13-.15.13-.13,0-1.98-.88-2.35-.95.02-.08-.02-.22,0-.3.88.18,1.67.63,2.5.95Z"/><path class="cls-9" d="m14.52,8.64c.22.13,1.22.75,1.29.78.2.07.13-.05.24-.04.41.03-.11.28.24.56-.29-.14-.59-.26-.88-.39-.37-.34-.8-.55-1.23-.78-.22-.12-.42-.34-.69-.3.05-.12.12-.23.17-.35.26-.13.22.22.32.3.14.02.42.14.54.22Z"/><path class="cls-29" d="m14.17,8.77c.29.37,1.54.78,1.29,1.21-.73-.36-1.4-.83-2.07-1.29.01-.03-.07-.06-.04-.11.02-.05.13-.1.13-.11.27-.04.47.18.69.3Z"/><path class="cls-17" d="m13.52,10.97c.94.31,1.54.66,1.21-.04.15.12.14.16.22.32-.06.72-.12.44-.22.54-.68-.4-1.47-.62-2.22-.86-.06-.05.06-.21.06-.22.33.03.64.16.95.26Z"/><path class="cls-6" d="m13.91,9.33c.49.34.39.41.41.43.03.03.21.05.37.22.14.14.16.27.17.28.04.05.18-.02.22.13.05.17-.07.25-.22.28.16-.07-.64-.63-.69-.65.45-.14-.67-.4-1.08-.65.08-.21.12-.25.13-.26.16-.15.51.09.69.22Z"/><path class="cls-15" d="m15.21,10.28c.11.15.1.2.09.39-.02.39-.4.19-.69.13-.35-.07-.69-.21-1.04-.3-.26-.07-.55-.14-.82-.17.03-.07.06-.14.09-.22.26.08.52.14.78.22.32.1,1.01.39,1.25.35.15-.03.26-.11.22-.28-.04-.15-.18-.08-.22-.13,0-.01-.04-.14-.17-.28.11.01.49.27.52.3Z"/><path class="cls-9" d="m15.47,9.98v.04c-.07.15-.16.12-.17.13l-1.38-.82c-.18-.13-.53-.37-.69-.22.06-.15.11-.29.17-.43.67.46,1.34.94,2.07,1.29Z"/><path class="cls-35" d="m13.57,10.5l-.04.47c-.31-.1-.62-.23-.95-.26.04-.14.12-.26.17-.39.27.03.56.1.82.17Z"/><path class="cls-15" d="m14.17,10.02s-.13.02-.3-.04c-.28-.1-.59-.14-.86-.26.06-.15.08-.32.09-.35.41.25,1.53.51,1.08.65Z"/><path class="cls-6" d="m13.87,9.98c-.15.18-.57.04-.26.35-.26-.08-.52-.14-.78-.22.08-.21.17-.37.17-.39.28.11.58.16.86.26Z"/><path class="cls-6" d="m14.34,8.3s-.07,0,.17.13v.22c-.12-.07-.4-.19-.54-.22-.1-.08-.06-.43-.32-.3,0,0,0-.05.04-.13.23.07.44.18.65.3Z"/><path class="cls-21" d="m15.29,10.15s-.06.08-.09.13c-.02-.03-.41-.29-.52-.3-.16-.16-.34-.19-.37-.22-.02-.02.08-.09-.41-.43l1.38.82Z"/><path class="cls-22" d="m15.94,9.12c.06.13.05.28-.13.3-.08-.03-1.07-.64-1.29-.78v-.22c.46.25.95.46,1.42.69Z"/><path class="cls-32" d="m15.29,8.68c.15.08.58.3.65.43-.47-.23-.96-.44-1.42-.69-.24-.13-.16-.12-.17-.13.31.12.66.23.95.39Z"/><path class="cls-28" d="m14.6,10.8c-.02.11.04.06.13.13.33.7-.27.35-1.21.04l.04-.47c.35.09.68.23,1.04.3Z"/><path class="cls-22" d="m14.17,10.02s.85.57.69.65c-.24.04-.93-.25-1.25-.35-.31-.3.11-.17.26-.35.18.06.28.04.3.04Z"/></g></svg>