<?xml version="1.0" encoding="UTF-8"?><svg id="Capa_2" xmlns="http://www.w3.org/2000/svg" viewBox="0 0 68.21 43.64"><defs><style>.cls-1{fill:#fff;}.cls-1,.cls-2{stroke-width:0px;}.cls-2{fill:#0056a2;}</style></defs><g id="Capa_1-2"><path class="cls-1" d="m57.64,43.64L3.52,31.56l-3.52-5.54L5.02,3.52,10.56,0l54.12,12.08,3.52,5.54-5.02,22.5-5.54,3.52Z"/><path class="cls-2" d="m23.05,15.52l-.81-.18.59-2.63.9.2c-.04.55.1,1.03.4,1.44s.73.67,1.28.79c.38.08.69.08.93-.02s.4-.27.45-.51c.09-.39-.25-.76-1.01-1.13-.12-.06-.22-.1-.28-.13-.66-.32-1.11-.57-1.36-.73s-.44-.34-.58-.52c-.18-.23-.31-.47-.37-.74s-.06-.55,0-.85c.15-.68.51-1.15,1.07-1.41s1.27-.3,2.14-.11c.43.1.8.23,1.12.4s.57.37.77.61l.31-.43.83.18-.55,2.45-.92-.2c.05-.51-.07-.94-.35-1.3s-.71-.6-1.27-.73c-.33-.07-.61-.06-.84.03s-.37.26-.42.5c-.08.34.31.7,1.14,1.08.32.15.57.27.75.36.72.36,1.23.75,1.5,1.18s.35.93.23,1.49c-.15.67-.52,1.14-1.1,1.42s-1.31.33-2.16.14c-.41-.09-.8-.23-1.16-.43s-.65-.41-.87-.65l-.38.43Z"/><path class="cls-2" d="m30.26,13.58v-.06c.07-.25.07-.41.03-.47s-.16-.12-.35-.16l-.32-.07.18-.83,2.46.55-.77,3.44c-.04.2-.04.33,0,.4s.16.12.34.17l.25.06-.18.81-3.15-.7.18-.81.3.07c.19.04.32.04.4,0s.13-.16.18-.36l.45-2.02Zm.51-2.65c.05-.23.18-.4.37-.53s.41-.16.64-.11.41.18.53.37.16.41.11.64-.18.41-.37.53-.41.16-.64.11-.41-.17-.54-.37-.16-.41-.11-.65Z"/><path class="cls-2" d="m33.64,16.15c-.16-.26-.26-.51-.31-.76s-.04-.51.02-.77c.13-.6.44-1.03.91-1.28s1.05-.3,1.76-.14c.29.07.55.16.78.29s.43.3.62.5c.21-.12.41-.19.6-.23s.38-.04.57,0c.32.07.57.23.73.46s.21.5.15.79c-.05.21-.15.37-.3.48s-.33.13-.53.09c-.18-.04-.32-.13-.42-.27s-.13-.28-.1-.44c.02-.1.06-.18.12-.26s.15-.15.25-.21c-.02-.05-.05-.08-.09-.11s-.07-.05-.11-.06c-.08-.02-.17,0-.28.02s-.23.09-.37.17c.08.17.12.35.14.54s0,.39-.05.6c-.13.58-.44.99-.93,1.24s-1.08.3-1.78.14c-.16-.04-.32-.09-.49-.16s-.32-.15-.48-.25c-.08.02-.14.05-.18.09s-.07.08-.08.14c-.03.14.03.25.19.34s.55.2,1.17.34c.13.03.31.07.54.12s.39.08.49.1c.59.13,1.01.34,1.26.62s.33.64.23,1.07c-.12.54-.43.88-.93,1.02s-1.27.09-2.31-.14c-.84-.19-1.45-.41-1.82-.66s-.53-.55-.45-.88c.04-.19.15-.34.31-.45s.38-.16.66-.17c-.21-.18-.36-.37-.43-.57s-.09-.41-.04-.64c.04-.19.15-.35.31-.48s.39-.21.68-.27Zm-.23,2.73c-.03.13.07.26.3.38s.59.24,1.06.34c.55.12.95.18,1.21.16s.4-.1.43-.25c.03-.14-.05-.26-.24-.36s-.56-.21-1.12-.34c-.62-.14-1.04-.2-1.26-.19s-.35.1-.39.25Zm1.84-2.57c.2.05.37-.02.5-.19s.25-.5.36-.97c.1-.44.12-.75.08-.95s-.17-.32-.37-.37-.37.02-.5.2-.25.5-.36.96c-.09.41-.11.72-.07.94s.17.34.36.39Z"/><path class="cls-2" d="m42.62,12.77l-1.21,5.42c-.05.21-.05.34,0,.41s.16.12.35.16l.27.06-.18.81-3.14-.7.18-.81.27.06c.19.04.32.04.4,0s.13-.16.18-.36l.9-4.02c.06-.26.07-.43.03-.51s-.15-.14-.35-.18l-.29-.06.18-.81,2.42.54Z"/><path class="cls-2" d="m42.8,17.37c.18-.79.56-1.35,1.14-1.7s1.3-.42,2.15-.23,1.46.56,1.85,1.13.49,1.24.32,2.02-.56,1.34-1.14,1.69-1.31.42-2.15.23-1.46-.56-1.85-1.12-.49-1.23-.31-2.01Zm1.8.4c-.14.63-.17,1.08-.08,1.35s.3.44.64.52.61.01.8-.2.36-.63.5-1.26.17-1.09.09-1.36-.3-.45-.64-.52-.61,0-.8.2-.36.63-.5,1.27Z"/><path class="cls-2" d="m10.96,27.77l.29-1.29.21.05c.35.08.66.08.91.02s.54-.23.87-.49l2.83-2.26-1.66-3.67c-.15-.33-.32-.58-.51-.75s-.43-.29-.73-.36l.28-1.28,5.33,1.19-.29,1.28s-.07-.02-.12-.04-.09-.03-.11-.03c-.23-.05-.4-.06-.54-.03s-.21.1-.24.22c-.01.06-.01.12,0,.19s.05.17.1.3l.7,1.66,1.51-1.15c.11-.08.19-.14.23-.2s.08-.12.09-.18c.03-.12-.02-.22-.15-.31s-.33-.17-.6-.23l-.1-.02.29-1.28,4.42.99-.29,1.28h-.06c-.34-.09-.65-.1-.91-.04s-.54.21-.84.43l-2.72,2.13,1.7,3.8c.18.42.35.71.52.88s.38.29.64.34c.06.01.16.03.29.04.02,0,.04,0,.05,0l-.29,1.29-5.64-1.26.29-1.29.17.04c.31.07.54.09.69.06s.23-.11.26-.24c.03-.12,0-.28-.11-.48-.03-.05-.05-.1-.07-.14l-.75-1.71-1.47,1.18c-.15.14-.26.24-.32.32s-.1.17-.12.25c-.02.11.02.2.13.29s.27.15.5.2c.08.02.14.03.18.04s.08.01.12.01l-.28,1.29-4.66-1.04Z"/><path class="cls-2" d="m29.05,31.81l-2.81-.63-.86-8.18c-.06-.54-.17-.91-.34-1.09s-.48-.34-.92-.45l.29-1.28,5.64,1.26-.29,1.28c-.07-.02-.15-.04-.24-.06s-.2-.05-.34-.08c-.32-.07-.55-.08-.68-.04s-.23.15-.27.33c-.02.07-.02.16-.02.29s.02.33.05.62l.5,5.28,2.86-4.78c.13-.22.22-.37.26-.44s.07-.14.08-.19c.03-.14-.02-.26-.15-.36s-.34-.18-.63-.25c-.12-.03-.22-.05-.28-.06s-.13-.02-.18-.03l.29-1.28,4.38.98-.29,1.28c-.46-.1-.83-.07-1.1.08s-.56.5-.86,1.05l-4.07,6.78Z"/><path class="cls-2" d="m33.39,32.78l.3-1.32.62.14c.39.09.65.09.79.02s.24-.3.33-.69l1.27-5.7c.09-.39.09-.65,0-.77s-.33-.22-.72-.31l-.62-.14.3-1.32,5.96,1.33-.3,1.32-.62-.14c-.4-.09-.66-.1-.8-.02s-.25.3-.33.69l-1.27,5.7c-.09.38-.08.64,0,.76s.33.23.73.32l.62.14-.3,1.32-5.96-1.33Z"/><path class="cls-2" d="m39.98,34.25l.3-1.32.62.14c.39.09.65.09.79.02s.24-.3.33-.69l1.27-5.7c.09-.39.09-.65,0-.77s-.33-.22-.72-.31l-.62-.14.3-1.32,5.96,1.33-.3,1.32-.62-.14c-.4-.09-.66-.1-.8-.02s-.25.3-.33.69l-1.27,5.7c-.09.38-.08.64,0,.76s.33.23.73.32l.62.14-.3,1.32-5.96-1.33Z"/><path class="cls-2" d="m46.56,35.72l.3-1.32.62.14c.39.09.65.09.79.02s.24-.3.33-.69l1.27-5.7c.09-.39.09-.65,0-.77s-.33-.22-.72-.31l-.62-.14.3-1.32,5.96,1.33-.3,1.32-.62-.14c-.4-.09-.66-.1-.8-.02s-.25.3-.33.69l-1.27,5.7c-.09.38-.08.64,0,.76s.33.23.73.32l.62.14-.3,1.32-5.96-1.33Z"/><path class="cls-2" d="m56.33,41.13L5.77,29.84l.09-.42c.43-1.91-.78-3.81-2.69-4.23l-.42-.09L7.13,5.52l.42.09c1.91.43,3.81-.78,4.23-2.69l.09-.42,50.56,11.29-.09.42c-.43,1.91.78,3.81,2.69,4.23l.42.09-4.37,19.57-.42-.09c-1.91-.43-3.81.78-4.23,2.69l-.09.42ZM6.77,29.19l48.94,10.93c.65-1.99,2.64-3.25,4.72-3l4.01-17.95c-1.99-.65-3.25-2.64-3-4.72L12.5,3.52c-.65,1.99-2.64,3.25-4.72,3L3.77,24.47c1.99.65,3.25,2.64,3,4.72Z"/></g></svg>