<?xml version="1.0" encoding="UTF-8"?><svg id="Capa_2" xmlns="http://www.w3.org/2000/svg" viewBox="0 0 35.92 33.25"><defs><style>.cls-1{fill:#281103;}.cls-1,.cls-2,.cls-3,.cls-4,.cls-5,.cls-6{stroke-width:0px;}.cls-2{fill:#5b2c05;}.cls-3{fill:#9b9b9b;}.cls-4{fill:#dfdfdf;}.cls-5{fill:#bcbcbc;}.cls-6{fill:#fdfdfd;}</style></defs><g id="Capa_1-2"><path class="cls-6" d="m34.6,22.76c-2.63,7.1-8.15,11.92-13.09,10.1-2.5-.92-4.55-3.55-5.44-6.68-.35-1.23-1.77-1.78-2.82-1.05-2.55,1.77-5.47,2.4-7.95,1.48C.37,24.79-1.52,19.36,1.35,10.45,3.81,2.85,10.11-1.4,15.03.42c2.48.92,4.18,3.47,4.92,6.55.31,1.27,1.77,1.79,2.86,1.07,2.62-1.75,5.68-2.39,8.15-1.48,4.93,1.83,6.26,9.1,3.63,16.2Z"/><path class="cls-3" d="m21.23,31.25c-.13-.23-.39-.29-.58-.45-1.13-.92-1.81-2.13-2.21-3.51-.68-2.33-.62-4.67-.18-7.03.28-1.48.71-2.91,1.32-4.28,1.17-2.65,2.73-5.03,5.07-6.82,1.26-.96,2.64-1.62,4.25-1.68.47-.02.91.08,1.37.13l1.21.45c.11.29.41.35.62.53,1.31,1.13,1.94,2.64,2.29,4.27.5,2.35.31,4.68-.23,7-.13.35-.23.7-.26,1.07l-1.02,2.74c-.19.24-.34.51-.4.81-.17.3-.35.61-.52.91-1.27,2.2-2.85,4.11-5.07,5.42-1.14.67-2.37,1.06-3.73.97-.22-.02-.44-.11-.66-.05l-1.28-.47Zm-2.46-10.63c-.3.13-.32.4-.29.66.04.38.05.76-.08,1.13-.06.17-.11.33-.03.52.06.16.12.41.04.52-.22.33-.14.71-.09,1,.14.72.26,1.44.41,2.16.27,1.3.85,2.42,1.78,3.38.33.34.74.55,1.11.81.28.19.59.35.96.41.72.11,1.42-.05,2.13-.06.6-.01,1.09-.22,1.54-.51.58-.37,1.18-.73,1.71-1.2.62-.55,1.37-.93,1.89-1.61.31-.4.52-.86.87-1.23.19-.2.44-.42.53-.63.21-.5.54-.92.79-1.39.28-.55.61-1.09.79-1.66.28-.88.65-1.72.9-2.61.33-1.14.38-2.31.52-3.47.06-.54.03-1.09.09-1.63.04-.31,0-.59-.07-.89-.08-.31-.12-.64-.17-.95-.06-.36-.05-.76-.2-1.08-.21-.44-.38-.9-.59-1.33-.48-.99-1.12-1.79-2.04-2.4-.44-.29-.89-.51-1.4-.56-.47-.04-.95-.02-1.43,0-.71.04-1.34.19-1.95.54-.19.11-.38.25-.59.32-.77.27-1.33.86-1.9,1.38-.62.56-1.18,1.19-1.68,1.88-.43.6-.86,1.21-1.26,1.84-.37.59-.67,1.22-.97,1.85-.07.15-.17.35.02.52-1.09,1.24-1.54,2.66-1.32,4.3Z"/><path class="cls-3" d="m15.22,2.03c-.06.08,0,.12.05.16,1.78,1.27,2.49,3.13,2.83,5.19.27,1.69.21,3.38-.08,5.07-.27,1.61-.71,3.17-1.36,4.67-.88,2.04-1.99,3.94-3.57,5.52-1.13,1.13-2.34,2.16-3.88,2.69-1,.35-2.02.49-3.06.27-.03,0-.06.02-.09.03l-1.02-.38s-.03-.06-.06-.08c-1.14-.58-1.89-1.53-2.43-2.65-.73-1.5-.98-3.11-1.01-4.77-.02-1.46.16-2.91.49-4.33.02-.08.08-.18-.07-.21l.07-.19c.1.03.1-.05.12-.11.05-.2.19-.37.14-.6l.99-2.68c.21-.3.36-.64.5-.98.1-.18.19-.36.29-.54,1.21-2.18,2.72-4.1,4.83-5.48,1.27-.83,2.63-1.34,4.18-1.23.11,0,.23.03.31-.07l1.6.59c.01.1.05.13.13.05l.13.05ZM2.3,14.44h0c-.29.34-.32.73-.28,1.16.05.49.05,1.01-.09,1.47-.22.7-.1,1.38-.02,2.05.06.47.22.93.28,1.41.07.58.31,1.11.57,1.63.25.5.51,1,.91,1.42.23.24.51.42.72.65.34.38.78.62,1.2.77,1.09.38,2.22.27,3.34-.02.4-.1.74-.34,1.11-.48.53-.19.96-.5,1.28-.96.07-.1.14-.17.23-.24.62-.46,1.23-.95,1.78-1.5.31-.32.45-.74.75-1.07.15-.17.4-.26.47-.49.16-.51.49-.93.76-1.38.34-.58.7-1.16.91-1.79.34-.99.72-1.97,1.06-2.96.11-.33.22-.67.27-1.01.08-.56.04-1.15.18-1.69.13-.51.11-1.03.13-1.53.03-.75.05-1.52-.13-2.27-.05-.22-.13-.45-.17-.69-.03-.19,0-.4-.07-.59-.2-.47-.39-.96-.56-1.44-.34-.97-1.13-1.55-1.81-2.23-.25-.24-.61-.28-.92-.42-.19-.09-.39-.27-.58-.26-.46.03-.88-.27-1.38-.08-.32.12-.74.08-1.1.14-.42.07-.76.33-1.15.47-.52.19-1.02.46-1.43.8-.68.56-1.38,1.11-1.95,1.81-.47.57-.88,1.18-1.37,1.72-.37.4-.53.93-.84,1.38-.22.32-.41.67-.57,1.03-.15.33-.23.69-.42.98-.11.17-.03.21.04.3-.47.66-.85,1.35-1.02,2.15-.11.54-.06,1.08-.14,1.61-.16.08-.06.11.03.15Z"/><path class="cls-4" d="m34.17,19.86l.12.05-.02.06c-.08.02-.1.06-.05.13l-.31.83c.02-.37.13-.72.26-1.07Z"/><path class="cls-4" d="m3.59,8.75c.06-.03.11-.06.17-.09-.13.34-.28.68-.5.98.11-.3.22-.6.33-.89Z"/><path class="cls-4" d="m32.63,24.37s-.1.07-.14.11c.06-.31.21-.57.4-.81l-.26.7Z"/><path class="cls-4" d="m2.26,12.33c.05.22-.09.4-.14.6-.02,0-.05-.01-.07-.02.07-.19.14-.38.21-.57Z"/><path class="cls-6" d="m34.22,20.1c-.05-.07-.04-.11.05-.13l-.05.13Z"/><path class="cls-6" d="m15.09,1.99c-.08.08-.12.05-.13-.05l.13.05Z"/><path class="cls-6" d="m2.05,12.9s.05.01.07.02c-.02.06-.02.13-.12.11.02-.04.03-.09.05-.13Z"/><path class="cls-2" d="m18.78,20.62c-.23-1.64.23-3.07,1.32-4.3.19-.2.45-.32.59-.57.28-.16.56-.31.85-.47.21-.08.42-.15.63-.23.31-.05.62-.11.93-.16.05,0,.1,0,.15,0,.14.03.28.04.43.01.04,0,.09.02.13.03.5.08.97.25,1.43.45.04.02.08.04.12.06.21.15.42.3.63.46v.02s.03,0,.03,0c.16.18.33.35.49.53h0c.15.25.3.49.46.74h0c.01.1.06.19.12.26.41,1.05.45,2.12.15,3.21-.28,1-.83,1.83-1.64,2.5-1,.82-2.13,1.17-3.41.97-1.07-.16-1.91-.73-2.59-1.55-.17-.31-.34-.61-.51-.92-.1-.35-.2-.69-.3-1.04Zm2.99,1.85c-.12.19-.31.37-.19.6.31.59.9.73,1.48.79.77.08,1.37-.33,1.88-.86.16-.17.25-.35.22-.61-.03-.28.03-.54.3-.75.18-.14.25-.39.23-.63.28-.63.41-1.28.29-1.97-.16-.85-.46-1.6-1.22-2.11-.35-.24-.78-.3-1.14-.51-.34-1.08-1.35-1.11-2.08-.7-.54.31-.74.83-.63,1.45-1.71,1.78-1.18,4.41.87,5.29Z"/><path class="cls-5" d="m20.68,15.75c-.14.25-.4.37-.59.57-.19-.17-.09-.37-.02-.52.3-.63.6-1.26.97-1.85.39-.63.82-1.24,1.26-1.84.5-.7,1.06-1.33,1.68-1.88.57-.52,1.12-1.11,1.9-1.38.21-.07.4-.21.59-.32.61-.35,1.25-.5,1.95-.54.48-.03.96-.05,1.43,0,.51.04.96.27,1.4.56.92.61,1.56,1.42,2.04,2.4.21.44.38.9.59,1.33.15.32.14.72.2,1.08.06.32.1.64.17.95.07.29.11.58.07.89-.07.54-.03,1.09-.09,1.63-.13,1.16-.19,2.33-.52,3.47-.25.89-.62,1.74-.9,2.61-.18.57-.51,1.11-.79,1.66-.24.47-.58.89-.79,1.39-.09.22-.34.43-.53.63-.35.37-.56.83-.87,1.23-.52.67-1.27,1.06-1.89,1.61-.52.47-1.12.83-1.71,1.2-.45.28-.94.5-1.54.51-.71.01-1.41.16-2.13.06-.36-.05-.68-.22-.96-.41-.38-.26-.78-.47-1.11-.81-.94-.95-1.51-2.08-1.78-3.38-.15-.72-.26-1.44-.41-2.16-.06-.29-.14-.67.09-1,.08-.11.02-.36-.04-.52-.07-.19-.02-.35.03-.52.13-.37.12-.75.08-1.13-.03-.26-.01-.53.29-.66.1.35.2.69.3,1.04-.18-.05-.34.07-.33.2.05.51-.1,1-.08,1.49.03.65.13,1.29.17,1.94.02.37.08.74.18,1.09.19.66.52,1.29.73,1.95.12.37.47.47.66.74.3.42.55.88,1.07,1.08.03.01.05.05.07.07.32.39.81.53,1.24.55.62.03,1.24.06,1.88-.13.72-.21,1.42-.41,2.04-.84.34-.24.7-.46,1.07-.63.35-.16.63-.37.83-.65.32-.43.72-.8,1.06-1.2.26-.31.62-.56.79-.91.26-.56.66-1.03.98-1.55.37-.6.65-1.24.9-1.89.48-1.26,1-2.51,1.25-3.86.13-.71.23-1.44.34-2.15.11-.68.03-1.39,0-2.08-.05-1.27-.48-2.46-.91-3.64-.04-.1-.11-.19-.17-.29-.26-.37-.5-.74-.73-1.12-.09-.15-.19-.28-.34-.37-.19-.11-.43-.21-.55-.39-.22-.34-.55-.42-.89-.54-.43-.15-.85-.08-1.28-.1-.14,0-.28-.05-.43-.02-.8.14-1.55.42-2.31.74-.68.28-1.24.68-1.78,1.16-.4.36-.75.76-1.15,1.12-.41.37-.78.79-1.07,1.24-.51.79-1,1.6-1.48,2.41-.11.19-.26.4-.18.66Z"/><path class="cls-5" d="m3.44,10.52c-.07-.09-.15-.13-.04-.3.19-.29.27-.65.42-.98.16-.36.35-.71.57-1.03.31-.45.47-.98.84-1.38.5-.54.9-1.16,1.37-1.72.58-.69,1.27-1.24,1.95-1.81.41-.34.9-.61,1.43-.8.39-.14.73-.4,1.15-.47.37-.06.78-.01,1.1-.14.5-.19.92.1,1.38.08.19-.01.38.17.58.26.31.14.67.17.92.42.68.67,1.47,1.26,1.81,2.23.17.48.36.97.56,1.44.08.2.04.4.07.59.04.23.11.47.17.69.18.76.16,1.52.13,2.27-.02.51,0,1.02-.13,1.53-.13.54-.1,1.13-.18,1.69-.05.34-.16.68-.27,1.01-.34.99-.72,1.97-1.06,2.96-.22.63-.58,1.21-.91,1.79-.26.45-.59.87-.76,1.38-.07.22-.32.32-.47.49-.3.33-.43.75-.75,1.07-.55.55-1.15,1.04-1.78,1.5-.09.07-.16.15-.23.24-.32.46-.75.77-1.28.96-.38.14-.71.37-1.11.48-1.11.29-2.24.4-3.34.02-.43-.15-.86-.39-1.2-.77-.21-.23-.49-.41-.72-.65-.4-.42-.66-.91-.91-1.42-.25-.52-.49-1.05-.57-1.63-.06-.48-.22-.94-.28-1.41-.09-.67-.2-1.35.02-2.05.14-.46.14-.98.09-1.47-.04-.43,0-.82.28-1.16.05.12.09.24.14.36-.05.26.12.47.17.71-.09-.02-.12.01-.15.11-.32.86-.21,1.75-.13,2.61.08.84.16,1.69.45,2.51.24.67.46,1.34.82,1.95.19.32.41.66.68.88.28.22.61.41.93.59.58.33,1.25.42,1.9.53.09.01.18,0,.27-.02.81-.19,1.62-.36,2.39-.71.79-.35,1.53-.78,2.17-1.36.64-.57,1.2-1.21,1.73-1.89.37-.47.71-.97,1.01-1.47.54-.91,1.05-1.86,1.33-2.9.27-1.01.83-1.92.97-2.98.07-.48.21-.96.22-1.45.01-.33.15-.64.17-.96.03-.51.06-1.01.03-1.53-.06-.88-.12-1.77-.3-2.64-.04-.2-.16-.36-.21-.57-.1-.47-.33-.9-.53-1.34-.2-.45-.53-.78-.79-1.17-.1-.15-.24-.26-.37-.38-.22-.21-.51-.27-.72-.48-.31-.31-.76-.44-1.19-.5-.25-.03-.57,0-.8-.04-.5-.09-.94.07-1.37.17-.81.19-1.54.62-2.23,1.08-.67.45-1.25,1.02-1.84,1.58-.4.39-.76.81-1.1,1.25-.22.28-.34.61-.53.9-.56.85-1.16,1.67-1.51,2.64-.1.26-.42.33-.52.6Z"/><path class="cls-1" d="m3.44,10.52c.1-.26.41-.34.52-.6.45-.23.81-.62,1.3-.78.13,0,.24-.07.35-.13.06.02.1,0,.14-.04h0s.04.03.06.04c-.03.22-.18.31-.38.34-.18.02-.32.08-.34.29-.08.07-.15.15-.27.17-.1-.05-.16-.05-.27.02-.2.14-.28.41-.45.52-.51.31-.72.82-1,1.29-.19.32-.3.66-.4,1.03-.12.45-.18.88-.06,1.32.08.32.01.57-.19.81-.05-.12-.09-.24-.14-.36,0,0,0,0,0,0,.02-.06.03-.11-.03-.15.08-.54.03-1.08.14-1.61.17-.81.56-1.5,1.02-2.15Z"/><path class="cls-5" d="m2.27,14.28c.06.04.05.09.03.15-.09-.04-.19-.07-.03-.15Z"/><path class="cls-6" d="m19.59,22.58c.68.83,1.52,1.39,2.59,1.55,1.28.2,2.41-.15,3.41-.97.81-.67,1.35-1.49,1.64-2.5.31-1.09.26-2.16-.15-3.21.07-.14.02-.22-.12-.26,0,0,0,0,0,0,.07-.34-.11-.63-.46-.74,0,0,0,0,0,0,.05-.38-.28-.39-.49-.53h-.02s0-.02,0-.02c-.03-.24-.31-.44-.63-.46-.04-.02-.08-.04-.12-.06,0-.03,0-.08-.01-.1-.4-.29-.87-.39-1.35-.43-.02,0-.05.04-.07.07-.04,0-.09-.02-.13-.03-.14-.13-.28-.18-.43-.01-.05,0-.1,0-.15,0-.51-.24-.68-.21-.93.16-.21.08-.42.15-.63.23-.07-.08-.07-.19,0-.25.38-.34.44-.85.72-1.25.56-.82,1.29-1.48,1.92-2.23.36-.43.84-.74,1.24-1.12.37-.35.81-.64,1.23-.86.66-.34,1.39-.68,2.16-.68.37,0,.78-.09,1.14.12.48.28.97.51,1.39.91.66.64,1.14,1.37,1.42,2.22.16.46.15.97.26,1.46.19.83.21,1.72.16,2.58-.06.9-.15,1.8-.29,2.7-.13.84-.4,1.61-.69,2.4-.18.48-.38.95-.53,1.44-.28.91-.81,1.69-1.31,2.47-.4.64-.91,1.22-1.34,1.84-.34.49-.76.92-1.22,1.27-.71.54-1.47,1.02-2.31,1.38-.83.35-1.67.5-2.55.54-.19,0-.38-.03-.55-.13-.33-.18-.67-.34-.93-.63-.22-.24-.54-.38-.66-.7-.07-.2-.2-.36-.35-.49-.19-.17-.28-.38-.34-.61-.16-.57-.2-1.16-.38-1.73-.31-.96-.2-1.98-.26-2.98,0-.12,0-.28.13-.37Z"/><path class="cls-4" d="m19.59,22.58c-.14.09-.14.24-.13.37.06,1-.05,2.01.26,2.98.19.57.22,1.16.38,1.73.07.23.16.44.34.61.15.13.28.29.35.49.12.32.44.46.66.7.26.29.6.45.93.63.17.1.36.14.55.13.88-.04,1.72-.19,2.55-.54.84-.35,1.6-.83,2.31-1.38.46-.35.88-.78,1.22-1.27.43-.63.94-1.2,1.34-1.84.5-.79,1.03-1.56,1.31-2.47.15-.49.35-.96.53-1.44.29-.78.55-1.56.69-2.4.14-.9.24-1.79.29-2.7.05-.86.03-1.75-.16-2.58-.11-.49-.11-.99-.26-1.46-.29-.85-.76-1.58-1.42-2.22-.42-.41-.91-.64-1.39-.91-.37-.21-.77-.12-1.14-.12-.77,0-1.49.34-2.16.68-.42.22-.86.51-1.23.86-.41.38-.88.7-1.24,1.12-.63.75-1.36,1.41-1.92,2.23-.28.4-.34.91-.72,1.25-.07.06-.06.17,0,.25-.28.16-.56.31-.85.47-.09-.26.06-.47.18-.66.48-.81.97-1.62,1.48-2.41.29-.45.66-.87,1.07-1.24.39-.36.75-.76,1.15-1.12.54-.48,1.1-.87,1.78-1.16.75-.32,1.5-.6,2.31-.74.15-.03.29.01.43.02.43.02.85-.05,1.28.1.34.12.67.19.89.54.11.17.35.27.55.39.15.09.25.22.34.37.23.38.48.76.73,1.12.07.09.13.18.17.29.43,1.18.86,2.36.91,3.64.03.69.1,1.41,0,2.08-.11.72-.21,1.44-.34,2.15-.25,1.35-.77,2.6-1.25,3.86-.25.65-.53,1.29-.9,1.89-.32.52-.72.98-.98,1.55-.16.35-.53.6-.79.91-.35.41-.74.77-1.06,1.2-.21.28-.48.49-.83.65-.36.17-.73.39-1.07.63-.62.43-1.32.63-2.04.84-.64.19-1.26.16-1.88.13-.42-.02-.92-.15-1.24-.55-.02-.03-.04-.06-.07-.07-.52-.19-.77-.66-1.07-1.08-.19-.27-.54-.37-.66-.74-.21-.66-.54-1.28-.73-1.95-.1-.34-.16-.72-.18-1.09-.04-.65-.14-1.29-.17-1.94-.02-.5.13-.99.08-1.49-.01-.13.14-.25.33-.2.17.31.34.61.51.92Z"/><path class="cls-1" d="m23.6,16.43c.36.21.78.27,1.14.51.76.51,1.07,1.26,1.22,2.11.13.7-.01,1.34-.29,1.97-.75,1.26-1.84,1.84-3.32,1.65l-.13-.04c-.15-.05-.31-.1-.46-.15-2.05-.89-2.58-3.51-.87-5.29.22.22.36.54.69.61.85.18,1.83-.25,1.94-1.19,0-.07,0-.14.08-.17Z"/><path class="cls-3" d="m21.77,22.47c.15.05.31.1.46.15.03.05.07.09.13.04,1.47.19,2.57-.38,3.32-1.65.02.25-.05.49-.23.63-.27.2-.32.46-.3.75.03.25-.06.44-.22.61-.51.54-1.11.95-1.88.86-.57-.06-1.17-.2-1.48-.79-.12-.23.07-.42.19-.6Z"/><path class="cls-3" d="m23.6,16.43c-.07.04-.07.1-.08.17-.11.94-1.09,1.37-1.94,1.19-.33-.07-.47-.39-.69-.61-.1-.62.09-1.14.64-1.45.73-.41,1.74-.38,2.08.7Zm-.37.4c.31-.59-.27-1.23-.82-1.17-.25.02-.49.07-.72.17-.49.21-.75.83-.55,1.22.21.44.59.62,1.02.57.48-.05.91-.27,1.07-.79Z"/><path class="cls-4" d="m23.8,14.92s.05-.07.07-.07c.48.04.95.14,1.35.43.02.01,0,.06.01.1-.46-.2-.93-.38-1.43-.45Z"/><path class="cls-4" d="m22.15,15.05c.25-.37.42-.4.93-.16-.31.05-.62.11-.93.16Z"/><path class="cls-4" d="m26.49,16.44c.35.11.53.4.46.74-.15-.25-.3-.5-.46-.74Z"/><path class="cls-4" d="m25.35,15.44c.32.01.6.22.63.46-.21-.15-.42-.3-.63-.46Z"/><path class="cls-4" d="m26.01,15.92c.21.14.54.15.49.53-.16-.18-.33-.35-.49-.53Z"/><path class="cls-4" d="m23.24,14.88c.15-.16.29-.12.43.01-.14.03-.29.02-.43-.01Z"/><path class="cls-4" d="m26.95,17.19c.14.04.19.12.12.26-.06-.08-.11-.16-.12-.26Z"/><path class="cls-4" d="m5.25,9.14c-.49.16-.84.56-1.3.78.36-.96.95-1.79,1.51-2.64.19-.29.31-.62.53-.9.34-.44.7-.86,1.1-1.25.58-.56,1.17-1.13,1.84-1.58.69-.47,1.42-.89,2.23-1.08.43-.1.87-.26,1.37-.17.22.04.55,0,.8.04.42.06.87.19,1.19.5.21.21.5.27.72.48.13.12.27.23.37.38.25.4.59.73.79,1.17.2.44.43.87.53,1.34.04.2.16.37.21.57.18.87.24,1.75.3,2.64.03.51,0,1.02-.03,1.53-.02.32-.16.63-.17.96-.02.49-.16.97-.22,1.45-.15,1.06-.7,1.97-.97,2.98-.28,1.05-.79,1.99-1.33,2.9-.3.5-.64,1-1.01,1.47-.53.68-1.09,1.32-1.73,1.89-.64.58-1.38,1.01-2.17,1.36-.77.34-1.58.52-2.39.71-.09.02-.18.03-.27.02-.65-.11-1.32-.2-1.9-.53-.32-.18-.65-.37-.93-.59-.27-.22-.49-.56-.68-.88-.36-.61-.58-1.28-.82-1.95-.3-.82-.37-1.67-.45-2.51-.08-.86-.19-1.75.13-2.61.04-.1.06-.13.15-.11.13.32.39.59.44.96-.12.3-.26.6-.09.94.05.09.02.22.01.34-.04.46.07.91.09,1.37.03.59.29,1.13.41,1.7.12.58.32,1.15.72,1.55.33.33.67.67,1.03.99.65.57,1.41.65,2.17.61.57-.04,1.17-.12,1.69-.42.35-.2.71-.36,1.05-.58.4-.26.79-.56,1.19-.8.53-.31.84-.81,1.3-1.17.25-.19.36-.48.55-.72.31-.39.64-.77.93-1.18.63-.9,1.02-1.92,1.45-2.92.34-.8.51-1.66.79-2.48.18-.53.1-1.11.33-1.63.02-.05,0-.11,0-.17.03-.51.04-1.03.1-1.54.08-.63.09-1.27,0-1.88-.11-.69-.19-1.39-.46-2.07-.15-.38-.28-.78-.47-1.15-.4-.79-.95-1.46-1.71-1.95-.32-.21-.65-.22-.99-.29-.44-.09-.87-.29-1.27.08-.05.04-.15.04-.23.04-.61.03-1.21.17-1.71.5-.4.26-.82.46-1.19.79-.52.47-1.17.81-1.48,1.48-.07.16-.22.24-.31.38-.21.32-.38.69-.7.93-.12.09-.2.2-.27.33-.21.37-.39.76-.66,1.1-.11.14-.2.31-.07.49Z"/><path class="cls-2" d="m3.06,16.46c-.05-.36-.31-.63-.44-.96-.05-.24-.22-.45-.17-.71.2-.24.27-.49.19-.81-.12-.44-.06-.87.06-1.32.1-.36.21-.71.4-1.03.28-.47.49-.99,1-1.29.18-.11.25-.38.45-.52.11-.08.17-.07.27-.02-.28.4-.44.83-.36,1.33-.05.13-.14.23-.24.33-.45.45-.65,1.01-.74,1.62-.21,1.34.54,2.79,1.97,3.41-.19.21-.05.7.26.89.54.33,1.16.4,1.74.27.64-.15,1.23-.48,1.43-1.23.12-.46.14-.48-.3-.61.53-.53.91-1.14,1-1.9.12-1.09-.13-2.03-.98-2.81-.42-.39-.94-.51-1.43-.73-.29-.85-.83-1.02-1.47-.91-.21.03-.41.12-.61.18.02-.21.17-.27.34-.29.2-.03.35-.12.38-.34.02,0,.04,0,.06,0,.16.06.3.15.48.08.4-.15.81-.15,1.22-.02.14.04.24.06.29-.11.12.03.24.04.36.08.55.19,1.02.5,1.46.88.2.24.4.49.6.73.22.39.4.8.56,1.22-.03.07,0,.13.04.18v.02c0,.1.01.2.07.28.06.6.08,1.2-.03,1.79-.05.1-.13.2-.15.3-.14.95-.67,1.67-1.3,2.34-.12.13-.29.2-.38.37-.07,0-.1.05-.13.1-.63.39-1.29.68-2.02.82-.07,0-.15.02-.22.03-.21,0-.43-.02-.64-.03-.78-.05-1.46-.38-2.11-.78-.31-.28-.61-.57-.92-.85Z"/><path class="cls-6" d="m3.06,16.46c.31.28.61.57.92.85-.01.06,0,.1.03.15.18.26.49.3.75.43.52.24,1.07.33,1.63.38.15.01.27-.02.34-.16.07,0,.15-.02.22-.03.04.19.17.15.31.13.25-.04.45-.22.69-.26.39-.06.65-.32.95-.53.07-.05.16-.07.06-.17.04-.04.06-.1.13-.1.12.06.22.05.33-.06.31-.31.53-.69.79-1.02.46-.58.73-1.19.7-1.93.11-.59.1-1.19.03-1.79,0-.1.2-.25-.07-.28,0,0,0-.02,0-.02.09-.08.06-.14-.04-.18-.16-.42-.33-.83-.56-1.22.07-.27-.29-.71-.6-.73-.44-.38-.91-.69-1.46-.88-.11-.04-.24-.06-.36-.08-.64-.24-1.29-.11-1.93-.06-.07-.01-.13.01-.18.07,0,0,0,0,0,0-.06-.02-.11-.02-.14.04-.11.06-.22.13-.35.13-.13-.19-.04-.36.07-.49.27-.34.45-.73.66-1.1.07-.13.15-.24.27-.33.32-.24.49-.61.7-.93.09-.14.24-.22.31-.38.31-.67.97-1,1.48-1.48.37-.34.79-.54,1.19-.79.51-.33,1.1-.47,1.71-.5.08,0,.18,0,.23-.04.41-.37.84-.17,1.27-.08.34.07.67.08.99.29.76.49,1.32,1.16,1.71,1.95.18.37.32.77.47,1.15.26.68.35,1.38.46,2.07.1.61.08,1.25,0,1.88-.06.51-.07,1.03-.1,1.54,0,.06.01.12,0,.17-.23.52-.14,1.1-.33,1.63-.28.82-.45,1.68-.79,2.48-.43,1-.82,2.02-1.45,2.92-.29.41-.61.79-.93,1.18-.19.23-.3.52-.55.72-.46.35-.77.86-1.3,1.17-.41.24-.79.54-1.19.8-.34.22-.71.38-1.05.58-.52.3-1.12.38-1.69.42-.76.05-1.51-.04-2.17-.61-.36-.31-.7-.66-1.03-.99-.4-.4-.6-.97-.72-1.55-.12-.57-.38-1.11-.41-1.7-.02-.46-.13-.91-.09-1.37,0-.11.03-.24-.01-.34-.17-.34-.03-.64.09-.94Z"/><path class="cls-3" d="m4.46,11.13c-.07-.5.09-.93.36-1.33.11-.02.19-.1.27-.17.2-.06.4-.15.61-.18.64-.11,1.18.07,1.47.91-.03.08-.06.17-.09.25-.19.56-.55.96-1.13,1.09-.54.13-1.03.02-1.35-.5-.03-.04-.09-.06-.14-.08Zm.34-.76c-.17.45,0,1.04.36,1.13.38.09.79.11,1.15-.11.42-.26.64-.65.54-1.14-.07-.36-.39-.53-.73-.62-.41-.11-1.15.31-1.32.74Z"/><path class="cls-4" d="m5.75,8.97c.05-.05.11-.08.18-.07-.02.04-.04.08-.06.11-.02,0-.04-.01-.06,0-.02-.01-.04-.03-.06-.04Z"/><path class="cls-4" d="m5.6,9.01c.04-.05.09-.06.14-.04-.04.05-.09.06-.14.04Z"/><path class="cls-2" d="m22.36,22.67c-.06.05-.1.02-.13-.04.04.01.09.02.13.04Z"/><path class="cls-5" d="m23.23,16.83c-.16.52-.59.74-1.07.79-.44.05-.81-.14-1.02-.57-.19-.39.06-1.01.55-1.22.23-.1.46-.15.72-.17.55-.05,1.13.58.82,1.17Zm-1.83.05h0c-.06.14-.03.23.09.33.44.4,1.26.24,1.51-.3.23-.5.06-.94-.42-1.04-.45-.1-.84.08-1.13.39-.11.12-.38.39-.05.62Z"/><path class="cls-1" d="m4.46,11.13s.11.04.14.08c.33.51.81.63,1.35.5.58-.14.94-.53,1.13-1.09.03-.08.06-.17.09-.25.49.21,1.01.34,1.43.73.85.77,1.1,1.72.98,2.81-.08.76-.47,1.37-1,1.9,0,.01-.02.02-.03.02-.03.03-.06.06-.1.09-.89.77-1.92.84-3.01.57-1.44-.62-2.19-2.07-1.97-3.41.1-.61.29-1.17.74-1.62.1-.1.19-.2.24-.33Z"/><path class="cls-3" d="m5.45,16.49c1.09.27,2.12.19,3.01-.57.06,0,.09-.04.1-.09.01,0,.02,0,.03-.02.43.13.42.15.3.61-.2.75-.78,1.08-1.43,1.23-.58.14-1.2.06-1.74-.27-.31-.19-.45-.67-.26-.89Z"/><path class="cls-4" d="m10.92,14.16c.03.74-.24,1.35-.7,1.93-.27.34-.48.72-.79,1.02-.11.11-.2.12-.33.06.09-.16.26-.24.38-.37.63-.67,1.16-1.4,1.3-2.34.02-.11.1-.2.15-.3Z"/><path class="cls-4" d="m6.72,18.12c-.07.14-.19.17-.34.16-.56-.05-1.11-.14-1.63-.38-.26-.12-.56-.17-.75-.43-.04-.05-.05-.1-.03-.15.65.4,1.33.73,2.11.78.21.01.43.02.64.03Z"/><path class="cls-4" d="m8.96,17.27c.09.1,0,.12-.06.17-.3.21-.56.47-.95.53-.24.03-.44.22-.69.26-.14.02-.27.06-.31-.13.73-.14,1.39-.43,2.02-.82Z"/><path class="cls-1" d="m5.87,9.02s.04-.08.06-.11c.65-.05,1.29-.18,1.93.06-.05.17-.15.15-.29.11-.41-.12-.82-.13-1.22.02-.19.07-.33-.03-.48-.08Z"/><path class="cls-4" d="m9.68,9.93c.31.02.67.46.6.73-.2-.24-.4-.49-.6-.73Z"/><path class="cls-4" d="m10.88,12.09c.27.03.08.18.07.28-.06-.08-.06-.18-.07-.28Z"/><path class="cls-4" d="m10.84,11.88c.1.04.13.1.04.18-.03-.06-.06-.11-.04-.18Z"/><path class="cls-5" d="m4.8,10.37c.17-.43.91-.85,1.32-.74.34.09.66.26.73.62.09.49-.13.88-.54,1.14-.36.23-.76.2-1.15.11-.36-.09-.54-.68-.36-1.13Zm1.65-.28c-.19-.35-.65-.39-1.01-.09-.3.07-.54.37-.52.68.01.3.24.53.53.61.37.1.66-.07.94-.25.31-.2.33-.75.07-.95Z"/><path class="cls-4" d="m21.4,16.88c-.33-.23-.06-.5.05-.62.29-.31.68-.49,1.13-.39.48.1.65.54.42,1.04-.25.54-1.07.7-1.51.3-.11-.1-.14-.2-.09-.33.05.02.13.03.15.07.21.46.58.31.9.22.41-.11.54-.68.25-.98-.31-.31-.94-.18-1.12.23-.06.14-.12.29-.17.44Z"/><path class="cls-2" d="m8.56,15.82c0,.06-.03.09-.1.09.03-.03.06-.06.1-.09Z"/><path class="cls-4" d="m6.44,10.09c.26.2.24.75-.07.95-.28.18-.57.35-.94.25-.29-.08-.52-.31-.53-.61-.01-.31.22-.61.52-.68v.02c-.06.1-.11.23-.2.3-.22.16-.17.36-.08.54.09.19.27.28.5.27.59-.03.83-.35.78-1.04h.02Z"/><path class="cls-4" d="m5.43,10c.37-.31.83-.27,1.01.09,0,0-.02,0-.02,0-.32-.2-.66-.06-.99-.08v-.02Z"/><path class="cls-6" d="m21.4,16.88c.06-.15.11-.3.17-.44.18-.42.82-.55,1.12-.23.29.3.16.87-.25.98-.32.08-.69.24-.9-.22-.02-.04-.1-.05-.15-.07,0,0,0,0,0,0Z"/><path class="cls-6" d="m5.44,10.02c.33.02.67-.12.99.08.06.68-.19,1.01-.78,1.04-.23.01-.41-.09-.5-.27-.09-.18-.14-.38.08-.54.09-.07.14-.2.21-.3Z"/></g></svg>