<?xml version="1.0" encoding="UTF-8"?><svg id="Capa_2" xmlns="http://www.w3.org/2000/svg" viewBox="0 0 33.6 29"><defs><style>.cls-1{fill:#180b37;}.cls-1,.cls-2{stroke-width:0px;}.cls-2{fill:#fdfdfd;}</style></defs><g id="Capa_1-2"><path class="cls-2" d="m4.21,13.08s-1.59,5.58,3.05,10.46,7.76,5.6,8.7,5.44,5.29-.26,6.78-.92,7.07-3.58,8.18-5.27,5.25-5.72.26-15.72C26.19-2.92,13.62.6,13.62.6c0,0-3.47,1.67-4.12,1.44S3.25,1.32.97,5.85c-2.28,4.53.16,8.96.16,8.96l3.08-1.73Z"/><path class="cls-1" d="m13.77,2.5s-.02.02-.05.06c-.24.27-1.18,1.32-1.44,1.3-.3-.02-.86-.02-.86-.02,0,0,.11.72-1.03,2.38s-1.72,2.14-1.78,2.4-2.31,1.93-2.4,2.09-2.78,1.72-3.15,2.1-.71,1.13-.71,1.13c0,0-1.27-2.74-1.17-3.45s.68-3.36.79-3.53,1.4-1.99,2.17-2.5,2.4-1.31,3.34-1.48,2.57-.38,3.11-.02.55.64,1.14.18,1.41-.38,1.41-.38"/><path class="cls-1" d="m14.17,2.32s.67-.97,1.16-.98,1.58.21,1.58.21c0,0,4.06-.47,4.75.05s2.59.72,3.06,1.08,3,2.98,3.23,3.21,2.48,1.03,3.41,5.09,1.43,6.4.54,8.57-2.8,3.63-2.8,3.63c0,0-2.77,2.06-3.15,1.79s-.36.62-.89.95-3.63,1.12-3.63,1.12c0,0-3.49,1.55-3.81,1.41s-4.67.61-7.76-3.38-3.9-5.8-3.9-5.8c0,0-.86-2.83-.78-3.38s.23-4.26.47-4.92,2.31-4.38,2.31-4.38c0,0,2.34-1.75,2.44-1.95s1.64-1.18,1.81-1.16.66-.36.66-.36l-.25-.92s.63-.54.86-.27.66.38.66.38Z"/></g></svg>