<?xml version="1.0" encoding="UTF-8"?><svg id="Capa_2" xmlns="http://www.w3.org/2000/svg" viewBox="0 0 45.57 45.68"><defs><style>.cls-1{fill:#180b37;}.cls-1,.cls-2{stroke-width:0px;}.cls-2{fill:#fff;}</style></defs><g id="Capa_1-2"><path class="cls-2" d="m1.29,13.06l-.86-3.53L17.08,3.5s.72-1.54,1.14-1.33,2.43.67,2.43.67c0,0-.49-1.39.02-1.83s2.99-1.01,2.99-1.01c0,0,1.33,2.88,2.45,2.32s8.39-.29,8.39-.29l11.07,18.72-2.05,2.53-3.72-.54-1.03,2.33s3.48,2.12,1.01,2.99-2.61.34-2.61.34l-.45,1.62s3.1,2.79.6,3.07-4,6.44-4,6.44l1.26,2.09-.97,2.82-4.94-1.36-.63,2.63s-16.83-3.1-19.18-4.42S.24,37.52.01,36.59s2.77-.59,1.98-1.58-1.13-1.86-1.13-1.86l1.37-3.2s1.18-.06,1.28-.42,2.71-15.78,2.71-15.78l-4.93-.69Z"/><path class="cls-1" d="m14.42,6.65c-.21.12-.64,0-.88-.02.1-.13.21-.24.3-.38.06-.09.14.11.06-.21.07-.13.17.08.32.09.24.18-.08.02-.1.03-.59.26-.11.4.53-.03.16.05-.13.47-.24.52Z"/><path class="cls-1" d="m22.78,3.58c-.24-.38-.85-1.26-1.11-1.64.35.18,1.18,1.41,1.11,1.64Z"/><path class="cls-1" d="m42.01,18.65s-.23-.16-.35-.32c-.04-.06.03-.16.02-.17.12-.01.46.02.52.08.04.04-.2.25-.19.41Z"/><path class="cls-1" d="m21.02,4.31c-.24.01-.48.12-.71.15-.65.08-1.93.06-2.18.09-.78-1.78-.65-1.48.51-.09.77-.2,1.59-.11,2.38-.15Z"/><path class="cls-1" d="m29.79,3.38s-.77.5-.81.53q0-.06-.02-.12c.05-.02.82-.51.84-.55.04-.07-.08-.52,0-.55.1,0,.28.41.31.49.25.81-.13.22-.32.2Z"/><path class="cls-1" d="m7.98,13.06c-.74.39-.5.04.03-.34-.01.05,0,.15-.03.34Z"/><path class="cls-1" d="m34.54,6.36c-.06-.11-.16-.24-.13-.38.57-.12.38.02.13.38Z"/><path class="cls-1" d="m39.37,14.81c-.1-.17-.16-.38-.25-.53.57,0,.54.05.25.53Z"/><path class="cls-1" d="m25.31,41.23q-.22.26-.43.52s-.03,0-.05-.01q.13-.26.25-.51s-.06-.05.23,0Z"/><path class="cls-1" d="m43.57,20.73c-.16.19-.78,1.07-.84,1.12-.02.02-.17.12-.18.13-.2-.19-.32-.46-.34-.51-.67-.06-1.34-.14-2.01-.26-.53,1.05-.39.16-.77-.04-.23-.13-.92-.08-1.14-.14-.11.1-.12.23-.16.37-.44,1.49-.94,2.98-1.51,4.43,1.51.37,3.26.56,2.62,1.39-.05.06-.25.13-.34.17-.7.32-2.09-.26-2.92-.28,0,.01-.01.03-.01.05-.06.4-1.02,2.66-1.27,3.34.72.25,2.67.66,2.11,1.54-.29.48-2.39-.35-2.59,0q-1.35,4.02-2.69,8.04-.02.06-.03.11s-.05.08.13.16c.05.01.11.02.16.04.5.21.96.47,1.48.64q.05.06.11.12c-.02.1-.07.2-.09.3-.03.22-.26,1.03-.34,1.23-.05.13-.02.3-.18.36-2.52-.45-4.94-1.27-7.45-1.77-.28-.05-.22,0-.23,0q-.12.25-.25.51s.04,0,.05.01c.31.24.98,1.08,1.42,1.38,0,0,.03,0,.05.01.33.13.69.25.63.64-.01.05-.32.73-.33,1-1.93-.5-3.83-1.07-5.74-1.59q-.88-.18-1.76-.37-.08-.02-.16-.04s-.07-.02-.1-.04c-.74-.19-1.48-.36-2.22-.55-.39-.1-.8-.14-1.2-.27-2.73-.66-5.44-1.53-8.07-2.58-.62-.25-1.24-.54-1.86-.8-.31-.13-.61-.3-.92-.43-.04-.02-.08-.01-.11-.03-1.05-.47-2.07-1.01-3.13-1.45-.22-.48.19-.06.22-.05,0,0,.18-.06.19-.06.68.13,3.58,1.17,3.99,1.04.15-.05.03-.1.08-.2.11-.24.08-.44.29-.65.53-.49,1.27.34,1.3-.53-.79-.35-2.74-1.13-2.87-1.2-.04-.02-.11-.22-.16-.27q-1.21-.66-2.41-1.3.26-.98.51-1.97c.33.03,1.34.36,1.66.49.02-.16.05-.3.07-.45.02-.18.06-.37.1-.55.78-4.07,1.71-8.11,2.55-12.17.37-1.78.73-3.57,1.07-5.35.04-.18-.02-.34-.01-.36.03-.18.02-.29.03-.34,0,0,.11-.21.12-.25-.63-.3-3.94-.1-4.14-.16-.3-.09-.05-.3-.12-.38-.07-.09-2.02-.16-2.32-.17-.61-1.33-.34-1.12,1.56-1.89.26-.1.24.02.26.02.58-.23,1.09-.54,1.64-.81.03-.02.18.07.22.05.33-.15.14-.41.54-.42.08,0,.09-.03.29.02q.37-.4.74-.81.06.02.11.03c-.01.1-.07.21-.08.3-.06.66.02.5.73.49.18.05.41.01.6.14.23-.1.53-1.44.65-1.41.05.02.35.38.41.41.06-.03.13-.86.72-.21,0,0,.1.02.17-.01.08-.03.51-.52,1.31-.85.13-.06.25.11.34-.2.15.07.1.23.17.33.29.02.65-.21.86,0,.34-.31.78-1.05,1.06-.69-.1.14-.2.25-.3.38.25.01.68.13.88.02t.05.07c.18-.15.37-.31.54-.48.1.01.22.08.32.09.31.02.44-.1.32-.32,0-.01.02-.07.03-.11.03,0,.08.02.11.03.27.03.79.12.84.12.05,0,.11.06.17.02.02-.05.01-.1.04-.14q.2.08.39.16c-.02-.16-.27-.16-.06-.31-.06-.06-.13-.1-.19-.16.03-.05.06-.09.1-.14.21-.31.38-.63.65-.89.29.07.4-.03.42-.03.25-.03,1.53,0,2.18-.09.23-.03.48-.13.71-.15.55.31.66.3.97.03.03-.03.39-.52.45-.51.03,0-.17.11.55.21-.08-.14-.14-.33-.22-.46.07-.22-.77-1.46-1.11-1.64-.18-.27-.3-.4-.58-.59q.22-.13.45-.26c.51.22,1.31,2.29,1.61,2.41-.21.16.2.46.41,0,.14-.31.22-1.62.44-.75.07.28-.06.62.04.88.4.14.95.15.8.69q.2,0,.41,0s-.03-.09-.03-.1c.17-.31,3.14-.52,3.63-.41.04,0,.08-.02.12-.02q.02.06.02.12s.77-.53.81-.53c.18.03.57.62.32-.2.26-.04.19.27.57.02q-.09.42-.18.84c.3-.14.63-.31.93-.43-.33-.33.92-.46,1.21-.42.68.11.3.88.67.1-.52,0-.27-.07.19-.15.04.03-.31.55-.32.63-.01.13,1.01,1.99,1.24,2.22-.03.14.07.26.13.38.64,1.27,1.34,2.45,2.04,3.69.1.17.23.32.33.49.02.04.05.09.08.14,0,.01,0,.14.13.16.51,1.23,1.3,2.31,2,3.44.1.15.15.37.25.53.17.26.91,1.52.98,1.6,0,0,.06-.06.09-.03,0,0-.1.1.17.22.09.55.27.4.28.42.01.02-.04,0,.23.41.32.46.53.69.56.73,0,0-.06.11-.02.17.12.17.33.3.35.32.51.7.93,1.46,1.56,2.08Z"/><path class="cls-1" d="m7.56,8.73c-.71.02-.79.17-.73-.49.27.56.2.35.73.49Z"/><path class="cls-1" d="m16.62,6.04s-.57-.08-.84-.12c.02-.17.11-.04.21-.12.21.06.69,0,.63.23Z"/><path class="cls-1" d="m17.21,6.09q-.19-.09-.39-.16s-.07.01.14-.31c.06.06.13.1.19.16-.21.16.03.15.06.31Z"/></g></svg>