<?xml version="1.0" encoding="UTF-8"?><svg id="Capa_2" xmlns="http://www.w3.org/2000/svg" xmlns:xlink="http://www.w3.org/1999/xlink" viewBox="0 0 27.79 37.47"><defs><style>.cls-1{fill:url(#Degradado_sin_nombre_86);}.cls-1,.cls-2,.cls-3,.cls-4,.cls-5,.cls-6,.cls-7,.cls-8,.cls-9,.cls-10,.cls-11,.cls-12,.cls-13,.cls-14,.cls-15,.cls-16,.cls-17,.cls-18,.cls-19,.cls-20,.cls-21,.cls-22,.cls-23,.cls-24,.cls-25,.cls-26,.cls-27,.cls-28,.cls-29,.cls-30,.cls-31,.cls-32,.cls-33,.cls-34,.cls-35,.cls-36,.cls-37,.cls-38,.cls-39,.cls-40,.cls-41,.cls-42,.cls-43,.cls-44,.cls-45,.cls-46,.cls-47,.cls-48,.cls-49,.cls-50,.cls-51,.cls-52,.cls-53,.cls-54,.cls-55,.cls-56,.cls-57,.cls-58,.cls-59,.cls-60,.cls-61,.cls-62{stroke-width:0px;}.cls-2{fill:url(#Degradado_sin_nombre_88);}.cls-3{fill:url(#Degradado_sin_nombre_87);}.cls-4{fill:url(#Degradado_sin_nombre_85);}.cls-5{fill:url(#Degradado_sin_nombre_80);}.cls-6{fill:url(#Degradado_sin_nombre_82);}.cls-7{fill:url(#Degradado_sin_nombre_89);}.cls-8{fill:url(#Degradado_sin_nombre_84);}.cls-9{fill:#f3d2a4;}.cls-10{fill:#f9ecb1;}.cls-11{fill:#5d846e;}.cls-12{fill:#5e4533;}.cls-13{fill:#507363;}.cls-14{fill:#2c2727;}.cls-15{fill:#86a98f;}.cls-16{fill:#884314;}.cls-17{fill:#9a8069;}.cls-18{fill:#a51b2e;}.cls-19{fill:#a46c32;}.cls-20{fill:#6e431f;}.cls-21{fill:#582915;}.cls-22{fill:#3e4229;}.cls-23{fill:#1d4c41;}.cls-24{fill:#0e1713;}.cls-25{fill:#40190b;}.cls-26{fill:#0b201d;}.cls-27{fill:#221912;}.cls-28{fill:#203831;}.cls-29{fill:#d9d5ca;}.cls-30{fill:#e16e71;}.cls-31{fill:#d98720;}.cls-32{fill:#de4e5b;}.cls-33{fill:#d4a159;}.cls-34{fill:#d53944;}.cls-35{fill:#db944e;}.cls-36{fill:#bdc2be;}.cls-37{fill:#bf2e3f;}.cls-38{fill:#a9c0a7;}.cls-39{fill:#bf7e41;}.cls-40{fill:#d7c5a0;}.cls-41{fill:#bd924b;}.cls-42{fill:#c26f1c;}.cls-43{fill:#b67368;}.cls-44{fill:#8d5e30;}.cls-45{fill:#b76117;}.cls-46{fill:#743514;}.cls-47{fill:#332a21;}.cls-48{fill:#ba8233;}.cls-49{fill:#97ae9e;}.cls-50{fill:#9f5a22;}.cls-51{fill:#a0a6a2;}.cls-52{fill:#664c43;}.cls-53{fill:#ed9e96;}.cls-54{fill:#f2d7c9;}.cls-55{fill:#ec9d2c;}.cls-56{fill:#fdb9ae;}.cls-57{fill:#e6a976;}.cls-58{fill:#fbf6d5;}.cls-59{fill:#ebbd80;}.cls-60{fill:#e8dec5;}.cls-61{fill:#e9e8e4;}.cls-62{fill:#f4f4f4;}</style><linearGradient id="Degradado_sin_nombre_86" x1="16.93" y1="3.87" x2="10.55" y2="5.46" gradientTransform="translate(9.97 -5.23) rotate(24.73)" gradientUnits="userSpaceOnUse"><stop offset="0" stop-color="#030a0a"/><stop offset="1" stop-color="#1f352f"/></linearGradient><linearGradient id="Degradado_sin_nombre_80" x1="16.58" y1="13.25" x2="6.71" y2="13.25" gradientTransform="translate(9.97 -5.23) rotate(24.73)" gradientUnits="userSpaceOnUse"><stop offset="0" stop-color="#482110"/><stop offset=".31" stop-color="#703819"/><stop offset=".45" stop-color="#9b5b26"/><stop offset=".75" stop-color="#edc688"/><stop offset="1" stop-color="#83431a"/></linearGradient><linearGradient id="Degradado_sin_nombre_85" x1="11.25" y1="13.17" x2="20.91" y2="13.18" gradientTransform="translate(9.97 -5.23) rotate(24.73)" gradientUnits="userSpaceOnUse"><stop offset="0" stop-color="#be8b48"/><stop offset=".54" stop-color="#582814"/><stop offset="1" stop-color="#fad9b2"/></linearGradient><linearGradient id="Degradado_sin_nombre_87" x1="10.14" y1="7.61" x2="17.12" y2="7.94" gradientTransform="translate(9.97 -5.23) rotate(24.73)" gradientUnits="userSpaceOnUse"><stop offset="0" stop-color="#e9bf82"/><stop offset=".38" stop-color="#995c28"/><stop offset=".86" stop-color="#5f2914"/></linearGradient><linearGradient id="Degradado_sin_nombre_84" x1="11.74" y1="24.62" x2="17.06" y2="24.67" gradientTransform="translate(9.97 -5.23) rotate(24.73)" gradientUnits="userSpaceOnUse"><stop offset="0" stop-color="#a15a1e"/><stop offset=".63" stop-color="#4a2312"/><stop offset="1" stop-color="#723117"/></linearGradient><linearGradient id="Degradado_sin_nombre_82" x1="20.75" y1="29.29" x2="6.63" y2="29.37" gradientTransform="translate(9.97 -5.23) rotate(24.73)" gradientUnits="userSpaceOnUse"><stop offset="0" stop-color="#f7d6a9"/><stop offset=".14" stop-color="#955921"/><stop offset=".31" stop-color="#5b2914"/><stop offset=".58" stop-color="#86461a"/><stop offset=".84" stop-color="#e9c280"/><stop offset="1" stop-color="#814218"/></linearGradient><linearGradient id="Degradado_sin_nombre_88" x1="15.88" y1="22.67" x2="13.51" y2="22.91" gradientTransform="translate(9.97 -5.23) rotate(24.73)" gradientUnits="userSpaceOnUse"><stop offset="0" stop-color="#4f2411"/><stop offset="1" stop-color="#70381a"/></linearGradient><linearGradient id="Degradado_sin_nombre_89" x1="20.94" y1="24.22" x2="18.96" y2="24.28" gradientTransform="translate(9.97 -5.23) rotate(24.73)" gradientUnits="userSpaceOnUse"><stop offset="0" stop-color="#f8dba5"/><stop offset="1" stop-color="#e2a464"/></linearGradient></defs><g id="Capa_1-2"><path class="cls-62" d="m15.5,3.55S14.88.31,15.91.02s12.11,3.65,11.88,5.41-1.97,2.75-1.97,2.75c0,0,2.6.75,1.2,4.08s-3.1,6.72-3.1,6.72c0,0,3.19.31,3.28,1.38s-1.27,1.92-1.79,1.93-2.65.19-2.65.19l-1.07,3.16s2.47,10.37,1.19,11.07-3.13-8.37-3.13-8.37c0,0-1.55,5.44-2.03,5.8s-3.52-.02-3.52-.02l.18,2c.06.64-.39,1.2-1.03,1.29-2.04.28-6.78.04-13.34-5.91,0,0,.12-1.23,1.09-1.68s1.41-1.53,1.41-1.53c0,0-2.06-1.52-1.52-2.56s4.89-11.86,5.37-12.21S11.48,3.36,11.79,3.25s3.71.3,3.71.3Z"/><path class="cls-27" d="m19.05,19.88c.07.25.25.63.32.87.15.54.34,1.07.48,1.62.15.58.29,1.15.43,1.73.2,1.13.35,2.27.55,3.4-.19-.11-.23,0-.34.12-.19-.87-.34-1.74-.47-2.61l-.16-.74c-.2-1.3-.7-2.51-1.05-3.77-.03-.13-.07-.26-.1-.38-.04-.16-.07-.33-.11-.49-.04-.18-.12-.43-.11-.61.12.26.18.48.33.74.06.11-.25.22.22.13Z"/><path class="cls-60" d="m22.03,34.35c-.3-1.82-.74-3.61-.94-5.45.06-.04.2.18.21.21.15.29.89,5.04.96,5.71.01.1.03.69-.01.69-.25-.42-.14-.71-.22-1.16Z"/><path class="cls-47" d="m20.83,27.5c.08.46.2.93.25,1.4.2,1.84.64,3.63.94,5.45-.03.1-.11-.07-.13-.2-.43-2.19-.93-4.35-1.4-6.52.11-.13.15-.24.34-.12Z"/><path class="cls-14" d="m17.3,13.28c.5,2.42,1.08,4.26,1.75,6.6-.47.09-.16-.01-.22-.13-.14-.26-.21-.47-.33-.74,0-.01-.07-.08-.07-.09-.45-1.47-.81-2.99-1.36-4.42-.13-.15-.05-.23-.05-.25,0-.05-.02-.81-.1-.99.02-.05.15-.07.16-.1l.23.11Z"/><path class="cls-29" d="m17.56,13.57c.17.58.3,1.19.46,1.77.27.97.5,2.59.97,3.46.05.49.25.96.34,1.44,0,.01-.01.05.03.29.01.07.05.15,0,.23-.07-.24-.25-.62-.32-.87-.67-2.35-1.25-4.18-1.75-6.6-.05-.24-.11-.48-.11-.72.13.34.27.66.37,1.01Z"/><path class="cls-60" d="m22.27,20.75c-.14-.01-.29-.02-.43-.03-.82-.08-1.65-.15-2.47-.19-.05-.25-.03-.28-.03-.29.23.1.47.04.7.05.14,0,.29.03.43.03.65.02,1.3.01,1.95,0,.36,0,.86.01,1.15-.08.07,0,.25.17.43-.08.54-.01,2.66-.21,2.74.46.07.57-2.01.32-2.4.43-.65-.2-1.37-.22-2.07-.28Z"/><path class="cls-40" d="m23.99,20.15c-.18.25-.36.09-.43.08-.64-.07.22-.08.43-.08Z"/><path class="cls-22" d="m25.87,20.63c.18.32-1.56.34-1.69.28-.53-.23-.18-.86.14-.66.07.05.15.57.18.58.21.15,1.34-.26,1.38-.2Z"/><path class="cls-29" d="m18.72,20.12c.03.13.07.26.1.38-.2-.12-.19-.04-.21-.04-.25-.03-.65-.08-.88-.02-.33-.06-.69-.07-1.02-.08-.88-.03-1.75-.05-2.63-.1-.09-.03-.16-.04-.25-.06-.06-.01-.25,0-.39-.01-.38-.05-.76-.04-1.13-.08.15-.16.69.07.42-.31,1.43.08,2.85.1,4.28.13.27,0,.55.03.82.04.31.02.6-.04.89.13Z"/><path class="cls-50" d="m9.04,20.07c-.05-.08-.12-.13-.21-.15l.04-.09c1.05.14,2.33.19,3.43.3.38.04.76.03,1.13.08.2.18-.29.2-.51.21-.67.02-3.14-.21-3.88-.34Z"/><path class="cls-33" d="m8.88,19.82l-.04.09c-.16-.04-.69.12-1.2-.05-.06-.06-.26-.23-.28-.24.08-.18.29,0,.39.01.37.06.77.14,1.14.19Z"/><path class="cls-17" d="m13.19,4.53s.06.29.19.2c0,.01.06.15.07.2.09.27.27.55.45.77.11.6.4,1.14.58,1.71.03.09.22.51.06.53-.03-.1-.13-.18-.19-.25,0,0,.02-.04-.03-.12-.13.07.03.12.03.12,0,.31-.16.09-.13.28l-.02.05c-.04-.08-.11-.1-.12-.11-.14-.53-1.1-3.14-1-3.39.01-.03.07,0,.1.02Z"/><path class="cls-27" d="m16.47,11.45c.09.4.7,1.38.6,1.72,0,.03-.14.04-.16.1-.06-.15-.06-.2-.18.03-.44-1.16-1.88-3.87-2.07-4.83-.02-.1.16,0,.12-.08-.01-.03-.49-.33-.56-.42-.03-.19.13.04.13-.28.06.08.15.15.19.25.16-.02-.03-.44-.06-.53l.16-.1c.1.58,1.47,3.55,1.83,4.13Z"/><path class="cls-27" d="m14.36,7.69s-.16-.05-.03-.12c.05.08.02.12.03.12Z"/><path class="cls-12" d="m17.13,12.31c.02.07.01.15.05.25,0,.24.06.48.11.72l-.23-.11c.1-.34-.51-1.32-.6-1.72.02.03.09-.02.09-.01.12.19.23.61.34.71.26-.18.21.09.23.16Z"/><path class="cls-36" d="m12.73,19.81c.27.37-.27.15-.42.31-1.1-.11-2.38-.16-3.43-.3-.37-.05-.77-.13-1.14-.19.05-.45.39-.14.43-.14,1.52.08,3.04.23,4.56.32Z"/><path class="cls-35" d="m14.13,4.07c-.1.48-.34.82-.22,1.32l-.1.04-.36-.5c-.02-.05-.07-.19-.07-.2-.06-.64.16-.8.75-.66Z"/><path class="cls-44" d="m14.75,4.3c-.12.08-.04.37.1.38-.24.63.18.42.31.48.55.23.64.41.92.54.03.02.05-.09.09-.07.29.13.56.26.85.39-.01.03-.02.09-.07.08-.23-.02-1.7-.78-2.24-.75l-.05-.02c0-.16.02-.57-.09-.65,0-.07.06-.29.01-.33-.41-.39-.32.16-.29.93.03.74-.03.78.36,1.39.53.84-.19-.37-.02.66l-.16.1c-.18-.57-.47-1.12-.58-1.71-.19-.22-.37-.49-.45-.77l.36.5.1-.04c-.12-.5.12-.84.22-1.32.13.03.38.17.62.23Z"/><path class="cls-55" d="m14.67,5.32c0,.45-.07.89,0,1.34-.39-.61-.33-.65-.36-1.39.29-.03.27-.34.28-.6.11.09.09.49.09.65Z"/><path class="cls-31" d="m14.58,4.67c0,.25.02.57-.28.6-.03-.76-.13-1.32.29-.93.04.04-.01.26-.01.33Z"/><path class="cls-54" d="m14.15,4.69c.08-.02.1,1.24.04,1.24-.34.03-.18-1.21-.04-1.24Z"/><path class="cls-16" d="m21.56,23.27s-.13.2-.2.55c-1.36.68-.83-.21-1.37-1.27.05-.07.11-.06.18-.03l.34,1.38c.07.05.2-.26.22-.29.25.04.33-.18.3-.42.19-.13.24.08.22-.12.01-.03.03-.06.04-.09.3,0,.29.05.26.29Z"/><path class="cls-31" d="m21.26,23.07c.02.2-.03-.01-.22.12-.3.21-.16.17-.3.42-.02.03-.14.34-.22.29l-.34-1.38c.28.12.71.44,1.08.55Z"/><path class="cls-42" d="m21.03,23.19c.03.23-.05.46-.3.42.14-.25,0-.21.3-.42Z"/><path class="cls-23" d="m12.6,32.68c.08.65.24,1.29.33,1.94.05.32.24,1.3.21,1.49,0,.05.02.07-.02.16-.13.02-.25.07-.38.1l-.05-.13c.12-.02.3.03.35-.15.02-.06-.22-1.15-.29-1.3l-.24-2.14s.06.04.09.04Z"/><path class="cls-49" d="m12,32.52c.32.95.55,2.72.41,3.7-.28,0-.56-.06-.84-.11l-.17-.11c.02-.72-.21-1.55-.25-2.12-.03-.36-.12-1.68.12-1.59.25.08.47.16.73.23Z"/><path class="cls-24" d="m11.27,32.29c-.23-.09-.15,1.23-.12,1.59.04.57.27,1.4.25,2.12l.17.11s-.07.07-.11.06c-.26-.05-.52-.24-.8-.2-.19-.11-.21-3.65-.11-3.81.07-.12.13.03.19-.05.17.06.36.13.53.19Z"/><path class="cls-11" d="m12.5,32.64l.24,2.14c.07.16.31,1.24.29,1.3-.05.17-.22.13-.35.15-.09.01-.18-.01-.27-.01.14-.98-.09-2.75-.41-3.7.17.04.33.08.5.12Z"/><path class="cls-53" d="m26.78,6s-.12-.06-.18-.08c-.05-.02-.09-.05-.23-.11-.04-.02-.22-.11-.32-.15-.09-.04-.18-.09-.28-.13-.22-.1-.43-.2-.64-.3-.15-.07-.31-.14-.46-.21.46-.14,1.31-.12,1.42-.29.38.25.71.52,1.02.86.02.25-.05.45-.33.41Z"/><path class="cls-54" d="m23.69,3.63c.09.16.05.34.06.36-.09-.23-.16-.23-.17-.24-.3-.4-1.59-.92-2.14-1.15-.38-.16-1.52-.85-1.82-.28-.17.31-.08.2.12.34l-.04.09c-.48-.21-.97-.4-1.45-.61.02-.12.2-.05.29-.03.31.07.71.29,1.01.1.42-.26.26-.37-.03-.54.01-.03.02-.09.07-.08.22.02,3.37,1.61,4,1.84.08.1.07.15.1.21Z"/><path class="cls-30" d="m18.75,1.3c-.1.11,0,.19-.01.27-2.54-1.11-.93.05-.26.21-.46.46.21-.03.08.31-.1-.02-.28-.09-.29.03-.28-.12-.55-.25-.83-.38.06-.2.27.11.41.02-.62-.34-1.14-.25-.8-.98.37.06,1.35.36,1.71.51Z"/><path class="cls-34" d="m25.14,4.24c-.86.51-1,.67-1.39-.25,0-.02.03-.2-.06-.36.16-.16,1,.38,1.45.61Z"/><path class="cls-34" d="m19.53,1.66c.29.17.45.28.03.54-.3.19-.7-.03-1.01-.1.13-.35-.54.15-.08-.31.27.07.22.04.26-.21.01-.08-.08-.16.01-.27.22.09.59.25.78.36Z"/><path class="cls-34" d="m17.03.79c-.34.73.18.64.8.98-.14.09-.35-.22-.41-.02-.14-.07-.28-.12-.41-.19-.29-.14-.57-.3-.85-.45.03-.55.49-.39.87-.32Z"/><path class="cls-32" d="m26.08,4.73c-.11.17-.96.15-1.42.29-.09-.04-.18-.09-.28-.13.06-.3.58-.12,1.12-.49.19.11.39.2.58.32Z"/><path class="cls-53" d="m25.51,4.41c-.54.37-1.06.19-1.12.49-.25-.11-.5-.29-.76-.41l.02-.05-.07-.7s.07.02.17.24c.39.92.53.76,1.39.25.12.06.25.1.37.17Z"/><path class="cls-56" d="m18.73,1.57c-.04.25,0,.28-.26.21-.66-.16-2.28-1.32.26-.21Z"/><path class="cls-18" d="m21.44,2.59c-.26.3,1.58,1.1,1.73.91l.21.82c-1.03-.51-2.09-.94-3.15-1.39-.16-.07-.36-.11-.53-.19l.04-.09c.38.25.81.08.71-.09-.23-.4-.58-.07-.83-.25.3-.57,1.44.12,1.82.28Z"/><path class="cls-37" d="m23.58,3.75l.07.7-.28-.13-.21-.82c-.15.19-1.98-.61-1.73-.91.56.24,1.85.75,2.14,1.15Z"/><path class="cls-18" d="m19.74,2.65c-.2-.13-.29-.02-.12-.34.25.17.61-.16.83.25.1.17-.33.34-.71.09Z"/><path class="cls-43" d="m23.37,4.32l.28.13-.02.05c-1.13-.52-2.33-.91-3.4-1.57,1.06.45,2.12.89,3.15,1.39Z"/><path class="cls-24" d="m17.01,1.56s-.08.04-.08.05c.15,1.38.67,2.71.91,4.07-.22-.1-.61-.31-.74-.34.03-.19-.1-.36-.15-.52-.11-.36-.81-3.52-.8-3.71.29.15.56.31.85.45Z"/><path class="cls-1" d="m23.63,4.49c.26.12.51.29.76.41.09.04.18.09.28.13.15.07.31.14.46.21-.63-.3-.62.09-1.58.89-.55.45-1.81,1.27-1.31,1.4,0,0-.07.05-.09.07-.06-.03-.12-.06-.18-.08-.33-.15-.69-.27-1.03-.42-.64-.29-1.25-.57-1.88-.87-.11-.05-.22-.1-.32-.15-.29-.14-.58-.27-.87-.4-.24-1.36-.77-2.69-.91-4.07,0,0,.08-.01.08-.05.14.07.28.13.41.19.27.13.55.26.83.38.48.21.96.4,1.45.61.17.07.37.12.53.19,1.07.65,2.27,1.05,3.4,1.57Z"/><path class="cls-28" d="m26.78,6c-.61.38-2.82,1.89-3.11,2.02-.32.14-.32.02-.34.01,1.09-.7,2.27-1.28,3.26-2.12.06.02.14.08.18.08Z"/><path class="cls-28" d="m25.77,5.53c-1.05.3-1.57,1.19-2.23,1.34-.11.25-.52.52-.82.82,0,0-.12-.11-.09.07-.05-.02-.14,0-.34-.1-.05-.02-.09-.04-.14-.06.02-.02.08-.07.09-.07.21-.08.43-.08.44-.1.07-.13-.06-.24-.05-.25.2-.36,1.38-.32,1.26-.81-.07-.29-.23.16-.34-.24.96-.79.95-1.19,1.58-.89.22.1.43.2.64.3Z"/><path class="cls-13" d="m26.04,5.66c-.33.19-.73.33-1.04.55-.43.32-1.58,1.63-2.3,1.48.31-.3.72-.57.82-.82.66-.15,1.18-1.04,2.23-1.34.09.04.18.09.28.13Z"/><path class="cls-38" d="m26.37,5.81c-.7.62-1.24.73-1.3.77,0,0,.05.08,0,.11-.64.41-1.38.76-1.94,1.31-.08-.04-.15-.07-.23-.11-.09-.04-.18-.08-.28-.13-.04-.18.08-.06.09-.07.72.15,1.87-1.16,2.3-1.48.31-.23.71-.36,1.04-.55.1.04.28.13.32.15Z"/><path class="cls-11" d="m26.6,5.92c-.99.84-2.17,1.42-3.26,2.12,0,0-.01.07-.11,0-.03-.02-.06-.03-.09-.04.56-.55,1.3-.9,1.94-1.31.05-.03,0-.11,0-.11.06-.04.6-.14,1.3-.77.14.05.18.09.23.11Z"/><path class="cls-24" d="m22.23,7.53c-.49-.13.76-.95,1.31-1.4.11.4.27-.05.34.24.11.49-1.06.45-1.26.81,0,.01.12.12.05.25-.01.02-.23.02-.44.1Z"/><path class="cls-42" d="m20.04,20.28c-.23,0-.47.05-.7-.05-.09-.48-.29-.95-.34-1.44.31.57.12.1.31-.55-.1-.67-.26-1.31-.44-1.96-.15-.56-.26-1.1-.5-1.63-.11-.24-.68-1.37-.81-1.1-.1-.35-.24-.67-.37-1.01-.04-.1-.03-.18-.05-.25.06,0,.13-.03.18.03.08.08,1.19,1.74,1.28,1.93.55,1.04.77,2.22,1.05,3.35-.22.12-.09.45-.09.68,0,0-.09.01-.09.07,0,.03.1.07.1.16,0,.05-.17.73-.15.93.08.78.26.67.63.82Z"/><path class="cls-16" d="m18.87,16.29c.18.65.34,1.29.44,1.96-.19.65,0,1.13-.31.55-.47-.86-.7-2.49-.97-3.46.2-.45.68,1.89.85.95Z"/><path class="cls-46" d="m18.87,16.29c-.16.94-.65-1.39-.85-.95-.16-.59-.29-1.19-.46-1.77.13-.28.7.86.81,1.1.24.53.35,1.07.5,1.63Z"/><path class="cls-57" d="m22.41,20.32c-.65,0-1.3.01-1.95,0,.7-.3,1.44.38,1.8-.65-.22-.06.3-.85.59-1.51.02-.04-.09-.05-.07-.09,1.02-2.38,2.4-4.64,3.12-7.14.15-.14.24-.31.34-.49.02-.04.04-.1.06-.14.03-.04.07-.03.09-.07.1.18.31.31.3.56-1.3,2.79-2.72,5.55-3.92,8.39-.14.34-.45,1.06-.36,1.14Z"/><path class="cls-9" d="m21.84,20.72c-.12.29-.9,1.89-.88,2.02.09.45.46-.21.57-.38-.15.33-.19.52-.23.62-.01.03-.03.06-.04.09-.37-.11-.8-.43-1.08-.55-.07-.03-.13-.04-.18.03-.04-.08,0-.16-.14-.18-.14-.54-.33-1.07-.48-1.62.04-.07,0-.15,0-.23.83.04,1.65.12,2.47.19Z"/><path class="cls-35" d="m26.39,10.23s-.06.03-.09.07c-.8-.81-2.08-1.75-3.08-2.26.1.07.11,0,.11,0,.02,0,.02.13.34-.01,1.25.52,2.07,1,2.72,2.2Z"/><path class="cls-20" d="m17.11,5.34s-.12.03-.13.05c-.53-.24-1.66-.72-1.81-.5-.09-.26-.21-.11-.32-.2-.15-.01-.22-.3-.1-.38.73.19,1.47.39,2.21.52.05.16.19.33.15.52Z"/><path class="cls-57" d="m21.53,22.36c-.1.17-.48.83-.57.38-.03-.13.75-1.73.88-2.02.14.01.29.02.43.03-.25.54-.5,1.07-.74,1.61Z"/><path class="cls-59" d="m14.09,7.9c.05.17.25.93.26,1.01.11.72-.77-.66-1.29-1.26-.07-.12.02-.21.06-.31.03-.08.07-.15.11-.23,0,0,.1,0,.12-.03.04-.06-.03-.21.01-.27.17-.27.38.6.54.95.07.09.14.06.19.14Z"/><path class="cls-57" d="m13.12,7.34c-.04.1-.13.19-.06.31.51.6,1.4,1.98,1.29,1.26.23-.01.52,1.07.35,1.11,0,0,0-.07-.09-.1l-1.37-1.92c-.22.13-.16.35-.23.56-.36-.45-.49-.33-.21-.93-.05-.02-.28.76-.44.3.15-.18.66-1,.77-.59Z"/><path class="cls-59" d="m14.61,9.92c-.45-.14-1.28-.95-1.61-1.35.07-.21.02-.43.23-.56l1.37,1.92Z"/><path class="cls-5" d="m13.19,4.53s-.09-.05-.1-.02c-.1.25.86,2.86,1,3.39-.05-.08-.11-.05-.19-.14-.16-.35-.37-1.21-.54-.95-.04.06.03.21-.01.27-.02.04-.12.02-.12.03-.12-.17.05-.54.17-.73-.17-1.08-.41.08-.47.17-.28.44-.69.6-.83,1.57.19.08.13-.04.25-.19.16.47.4-.32.44-.3-.28.6-.15.49.21.93.32.4,1.15,1.21,1.61,1.35.1.03.09.1.09.1.17-.04-.12-1.12-.35-1.11-.01-.08-.21-.84-.26-1.01,0,0,.08.03.12.11.34.65.98,2.29,1.39,3.21.33.73.77,1.44,1.09,2.17.12.28.16.61.32.87,0,.01-.07.1.05.25.14.73,1,3.75,1.25,4.36.05.11.11.05.11.05,0,.01.06.07.07.09,0,.17.07.43.11.61-.09,0-.18.02-.27-.01.2-.04.17-.38.03-.49-.15-.12-3.12-1.09-3.67-1.3-.35-.14-.69-.26-1.03-.42-.35-.16-.49-.3-.48-.17-.66-.49-1.53-.83-2.19-1.35-.56-.43-1.02-.97-1.54-1.43-.13-.12-.85-.79-.95-.77-.12.02-.2.66-.39.54.69-1.58,1.33-3.2,2.03-4.78.07-.15.17-.12.18-.14.74-1.65,1.53-3.29,2.08-5,.36-.05.56-.04.79.22Z"/><path class="cls-51" d="m16.73,13.3s-.03.06-.04.09c-.32-.73-.76-1.44-1.09-2.17-.42-.91-1.05-2.55-1.39-3.21l.02-.05c.07.09.54.39.56.42.03.08-.14-.01-.12.08.19.96,1.63,3.67,2.07,4.83Z"/><path class="cls-52" d="m18.43,18.93s-.07.06-.11-.05c-.25-.61-1.11-3.63-1.25-4.36.55,1.43.92,2.95,1.36,4.42Z"/><path class="cls-61" d="m16.91,13.27c.08.19.09.94.1.99-.17-.26-.2-.6-.32-.87.01-.03.03-.06.04-.09.12-.23.12-.18.18-.03Z"/><path class="cls-39" d="m13.23,7.11c-.04.08-.07.15-.11.23-.12-.41-.63.41-.77.59-.12.15-.07.27-.25.19.14-.97.55-1.13.83-1.57.06-.1.3-1.25.47-.17-.12.19-.29.56-.17.73Z"/><path class="cls-35" d="m12.72,11.06s.24.28.26.29c.5.28,1.09.41,1.51.89-.23-.01-2.09-.93-1.92-1.16.05.01.14-.02.15-.02Z"/><path class="cls-50" d="m14.7,17.82c-.05.11-1.14-.27-1.03-.42.35.16.68.28,1.03.42Z"/><path class="cls-4" d="m26.06,10.35c.06.03.12.06.18.08-.1.18-.18.35-.34.49-.72,2.51-2.1,4.76-3.12,7.14-.02.04.09.05.07.09-.28.66-.8,1.46-.59,1.51-.36,1.03-1.1.34-1.8.65-.14,0-.29-.03-.43-.03-.36-.15-.54-.04-.63-.82-.02-.2.15-.89.15-.93,0-.08-.1-.12-.1-.16,0-.06.09-.07.09-.07,0-.24-.13-.56.09-.68-.28-1.13-.49-2.31-1.05-3.35-.1-.18-1.2-1.85-1.28-1.93-.05-.05-.12-.02-.18-.03-.02-.07.03-.34-.23-.16-.11-.1-.22-.53-.34-.71,0,0-.07.04-.09.01-.36-.58-1.73-3.55-1.83-4.13-.17-1.02.56.18.02-.66-.07-.45,0-.89,0-1.34l.05.02c-.08.87.65.97,1.32,1.55.47.53,1.05.93,1.43,1.38.98.67,2.32.61,3.43,1.02.93.16,4.02.34,3.05.63.39,0,1.08.24,1.37.24.04,0,.04.22.18-.14.2.12.35.23.58.32Z"/><path class="cls-9" d="m23.13,8s.06.03.09.04c1,.51,2.28,1.45,3.08,2.26-.03.04-.04.09-.06.14-.06-.03-.12-.06-.18-.08-.27-.69-3.07-1.85-3.23-2.18-.01-.02.02-.19.07-.27.08.04.15.07.23.11Z"/><path class="cls-59" d="m17.85,5.67c.29.13.58.26.87.4-.49.87-.68.02-1.29.13-.03-.01-.06-.03-.09-.04-.09-.76-.17-.45-.27-.57-.06-.08.32-.02-.1-.21.02-.02.13-.05.13-.05.12.03.52.24.74.34Z"/><path class="cls-3" d="m22.62,7.76c.09.04.18.08.28.13-.06.08-.08.25-.07.27.16.34,2.96,1.5,3.23,2.18-.23-.09-.37-.2-.58-.32-.76-.46-1.31-.94-1.37-.35.38.14,1.13.27,1.19.49-.29,0-.98-.24-1.37-.24.97-.29-2.13-.47-3.05-.63-1.11-.42-2.45-.35-3.43-1.02-.38-.45-.96-.85-1.43-1.38-.67-.59-1.4-.69-1.32-1.55.55-.03,2.02.73,2.24.75.04,0,.05-.05.07-.08.11.05.21.1.32.15.03.01.06.03.09.04,1.03.46,2.07.92,3.1,1.37.17.07.34.16.51.23.97.42,1.95.81,2.92,1.23-.33-.47-1.81-.8-1.67-1.38.21.09.3.08.34.1Z"/><path class="cls-59" d="m16.98,5.39c.42.19.03.14.1.21.1.11.17-.19.27.57-.11-.05-.21-.1-.32-.15-.29-.13-.56-.26-.85-.39-.03-.02-.05.09-.09.07-.28-.13-.38-.3-.92-.54-.13-.05-.55.15-.31-.48.12.1.23-.06.32.2.14-.23,1.28.26,1.81.5Z"/><path class="cls-59" d="m25.48,10.03c-.14.36-.13.14-.18.14-.06-.22-.81-.35-1.19-.49.06-.59.61-.11,1.37.35Z"/><path class="cls-16" d="m21.96,7.51c-.52.82-.42.17-.92.3-.17-.07-.34-.16-.51-.23,0-.09-.32-.2-.58-.32.21-.82.57.01.97-.17.34.15.7.27,1.03.42Z"/><path class="cls-19" d="m22.14,7.6s.09.04.14.06c-.14.58,1.34.92,1.67,1.38-.97-.42-1.95-.81-2.92-1.23.5-.14.4.52.92-.3.06.03.12.06.18.08Z"/><path class="cls-44" d="m20.93,7.09c-.4.18-.76-.65-.97.17-1.6-.74-.66-.54-.74-.81-.03-.09-.29-.07-.18-.22.63.3,1.25.58,1.88.87Z"/><path class="cls-41" d="m19.04,6.23c-.11.15.15.13.18.22.08.28-.86.07.74.81.26.12.58.23.58.32-1.04-.45-2.07-.92-3.1-1.37.61-.11.79.74,1.29-.13.11.05.22.1.32.15Z"/><path class="cls-16" d="m9.45,14.46l-.24.28s-.08.02-.09.01c-.02-.03.11-.25-.42-.53-.04.27.01.41.13.62-.25.03-.27.12-.37.33-.03.07-.12,0-.12.03,0,.03.15.14.14.18,0,.02-.2.26-.22.35-.01.07.17.2.15.29-.02.07-.23.14-.18.39-.03.02-.27-.07-.42.36-.2-.13-.37-.29-.56-.42,0-.13.04-.29.08-.41.18-.5.55-1.16.78-1.7.19.11.27-.52.39-.54.11-.02.82.66.95.77Z"/><path class="cls-16" d="m7.14,17.07c.06.14.19.56.09.65-.15-.16-.18-.36-.19-.37-.39-.28.01.22.02.26.03.18-.15.41-.14.43.01.08.17.14.2.17-.27-.02-.46.56-.63.88-.09-.02-.07-.1-.14-.12-.01,0-.28.04-.29.03-.33-.19.22.11.56-.97-.17.1-.36.1-.54.14,1.17-1.36-.05-1.24.19-1.98.02-.06.1-.24.13-.28.11-.05.72,1.03.76,1.13Z"/><path class="cls-16" d="m7.33,15.93c-.04.12-.08.28-.08.41-.07-.05-.33-.32-.4-.21-.06.1.4.73.54.89l-.25.05c-.04-.1-.65-1.18-.76-1.13.25-.31.7-.24.95,0Z"/><path class="cls-8" d="m16.12,23.83c-.02.19-.2.01-.28.12-.04.06-.49,1.29-.61,1.33-.1.04-.24-.17-.28,0-.05-.01-.09-.05-.14-.06-.72-.23-1.41-.47-2.11-.75-.88-.51-1.83-.87-2.72-1.36-.69-.39-.93-.82-.94-.26l-.02.05s-.03-.01-.05-.02c-.21-.14-.83-.41-.81-.65.17.09.36.24.4-.09-.78-.42-1.8-1.78-1.66-1.05-.18-.18-.38-.32-.54-.53-.12-.15-.34-.36-.35-.39-.04-.09.18-.23-.04-.33-.38.49-.05.5-.09.93-.18-.2-.78-.83-.84-.72.22-.27.51-.43.59-.56.14-.23-.1-.18-.07-.45.26.18.27.1.29.1.24.12.48.38.7.54.4.29,2.79,2.35,2.97,2.32.1-.02.08-.26.17-.37-.77-.52-1.43-1.06-2.05-1.78.51.17,1.04.02,1.2.05.09.02.16.07.21.15-1.44-.25.87.38,1.29.54.74.28,1.44.67,2.16,1-.88-.17-2.23-.61-1.47-.07.62.45,4.16,1.97,5.1,2.29Z"/><path class="cls-16" d="m4.27,25.84s.04-.11-.25-.12c.06-.12-.19-.48-.3-.39l-.82,1.54c-.34-.45-.32-.7-.47-.66,0-.01-.09,0-.16-.27.04-.18.74-.68.98-1.53.05.09.71.7,1.32,1.55,0,0,.17,0,.18.08.04.24-.32.24-.23,0-.4.11-.01-.03-.26-.23Z"/><path class="cls-16" d="m6.48,19.11c.07.02.61-.04.69.2l-1.35-.29.03.12s-.03.08-.29-.1c-.03.27.21.22.07.45-.46-.81-.5-1.1.43-1.3.18-.04.37-.04.54-.14-.34,1.07-.89.78-.56.97.02.01.28-.04.29-.03.07.02.05.1.14.12Z"/><path class="cls-16" d="m18.34,19.61c-.46-.18-.72-.33-1.25-.19-.35-.16-.93-.45-1.17-.54-.04-.01-.05.08-.09.07-.03,0-.04-.11-.48-.28-.04-.01-.05.08-.09.07-.4-.15-.81-.3-1.21-.45l-2.4-1.33.15-.21c1.07.59,2,.93,1.4.48,0-.14.13,0,.48.17-.11.15.98.53,1.03.42.54.21,3.51,1.18,3.67,1.3.14.11.17.45-.03.49Z"/><path class="cls-42" d="m13.19,17.24c.6.46-.33.12-1.4-.48-.15-.08-1.16-.69-1.22-.73-.42-.29-1.03-.81-1.37-1.19-.03-.04.02-.1.02-.1l.24-.28c.52.46.98,1,1.54,1.43.66.51,1.54.85,2.19,1.35Z"/><path class="cls-35" d="m18.72,20.12c-.29-.17-.58-.11-.89-.13.62-.1-.45-.43-.74-.57.53-.15.79,0,1.25.19.09.04.18.01.27.01.04.16.07.34.11.49Z"/><path class="cls-50" d="m8.68,17.11c.09.05.19.09.28.13.63.28,1.28.53,1.91.82.26.12.5.29.76.41-.17.31-1.14.27-1.47.05,0-.02-.1-.04-.16-.07-.1-.26.82-.13.67-.36l-2.44-1.12c-.4.24.39.74,0,.72-.24-.01-.48-.44-.51-.46-.16-.13-.2-.09-.21-.1-.02-.02-.06-.05-.12-.11-.14-.15-.6-.79-.54-.89.07-.11.33.16.4.21.19.13.36.3.56.42.15-.43.39-.35.42-.36,0,0,.11,0,.11,0,.24.63-.3.35.34.71Z"/><path class="cls-42" d="m9.4,15.55c.25.26.98.87,1.28,1.09.05.29-.09.66-.43.58-.27-.16-.83-.56-1.04-.76-.03-.03-.28-.47-.31-.48-.12-.06-.17.08-.2.07-.01,0-.04-.17-.1-.16-.13.03-.06.36-.26.5,0,0-.11,0-.11,0-.05-.25.16-.32.18-.39.03-.09-.16-.22-.15-.29.02-.08.21-.33.22-.35,0-.03-.14-.14-.14-.18,0-.03.09.04.12-.03.79,1.46.35.35.94.38Z"/><path class="cls-35" d="m9.21,14.74s-.05.07-.02.1c.34.38.95.9,1.37,1.19l.68.76c.31-.15.24.22.39.18l2.4,1.33c-.27-.1-.54-.2-.8-.31-.58-.24-1.05-.43-1.61-.74-.24-.14-.51-.3-.74-.45.21-.36-.87-.82-1.29-1.49-.23-.14-.13.01-.27.16-.16-.17-.38-.42-.5-.62-.12-.21-.17-.35-.13-.62.53.28.4.5.42.53,0,0,.07-.04.09-.01Z"/><path class="cls-45" d="m9.33,15.46c.08.08.07.08.07.09-.59-.03-.15,1.08-.94-.38.11-.21.13-.3.37-.33.11.2.33.45.5.62Z"/><path class="cls-39" d="m17.01,19.95c-1.43-.03-2.85-.05-4.28-.13-1.52-.09-3.04-.24-4.56-.32-.03,0-.38-.31-.43.14-.1-.02-.3-.19-.39-.01-.67-.31-.39.21-.81.07-.22-.16-.46-.42-.7-.54l-.03-.12,1.35.29c.07.04.07-.06.09-.07.02-.01.15-.09.16-.1.03.15.87.2.88.15-.03-.25-.54-.49-.71-.63-.06-.05.02-.05-.1-.16-.17-.15-.18-.04-.37-.28-.03-.04-.19-.09-.2-.17,0-.02.17-.26.14-.43,0-.03-.41-.54-.02-.26.02.01.04.2.19.37.33.36.5.32.42-.19.41.49.57.48.6.5,1.06.76,1.24.72,2.43,1.01.36.09.67.21.73.23-.43.42.03.31.99.4.31.03.62.02.93.04.3.02.93.14,1.18.15.73.03,1.86-.11,2.49.09Z"/><path class="cls-50" d="m7.48,18.51c-.28.07-.53.54-.23.73-.02.01-.02.11-.09.07-.08-.24-.62-.19-.69-.2.17-.32.36-.9.63-.88.19.24.2.13.37.28Z"/><path class="cls-50" d="m7.5,17.13c-.03.14-.16.02-.13.11,0,.02.14.12.28.3.08.52-.09.56-.42.19.1-.09-.03-.51-.09-.65l.25-.05c.06.06.09.09.12.11Z"/><path class="cls-42" d="m5.97,21.55c.55,1.06,1.82,2.18,2.85,2.76.62.35.64.55.83-.23.18.26-.22.32-.02.66-.58-.07.99.53,1.43.77l-.28.48c-1.78-.74-3.14-1.59-4.49-3.02-.18-.57-.36-.48-.38-.51,0-.42-.37-.38-.31-.84-.06.18.35-.06.37-.08Z"/><path class="cls-57" d="m17.3,31.06c-.14-.13-.82.68-.51.74-.19-.03-.09.06-.14.19-.13.33-.15.36-.48.56.18-1.61,1.2-2.97,1.77-4.45.03-.07,0-.37.01-.39.05-.15.36-.16.18-.39.02,0,.29-.11.43-.14l.11.19-.61,1.56c.3-.2.38-1.3.37-.33-.4.81-.75,1.64-1.13,2.46Z"/><path class="cls-42" d="m6.9,21.09c.31.32.89.94,1.26,1.14-.02.24.6.51.81.65-.08.11,0,.2.03.29.12.34.26.33.54.53l-.2.19c-.1-.07-.24-.15-.35-.22-.23-.15-.45-.25-.69-.37-.04-.02-.06-.22-.25-.12-.12-.32-.54-.55-.91-.92-.35-.35-.65-.75-.99-1.12-.06-.07-.07-.08-.07-.09l.28-.48c.16.2.36.35.54.53Z"/><path class="cls-46" d="m11.11,24.53l-.47.73c.88.47,1.46.71,2.41,1,.31.1.64.14.96.22l-.21.46c-.93-.23-1.58-.35-2.51-.71.49-.42.14-.52-.23-.72-.44-.24-2.01-.83-1.43-.77.06.09.58.29.69.37l.47-.73c.1.05.22.1.32.15Z"/><path class="cls-42" d="m15.73,27.33c-.27,1.17-.62,1.11-.65,1.18-.34.61-.73,2.29-1.28,1.81.44-1,1.05-1.94,1.32-2.99.2-.08.41-.02.61,0Z"/><path class="cls-59" d="m7.14,22.26c-.03.17-.25.29-.21.4.02.06.87.77.93.76.08-.01.05-.17.2-.24.2-.1.22.1.25.12.24.12.46.22.69.37-.2.4-.53.17-.18.64-1.03-.58-2.3-1.7-2.85-2.76.09-.08.16-.11.17-.12,0-.01-.02-.23.02-.3.33.37.64.77.99,1.12Z"/><path class="cls-42" d="m16.56,26.98c-.19.16-.1.28-.17.31-.05.02-.86-.05-.98-.06,0,0,0-.08-.07-.09-.04,0-.05.08-.09.07-.02,0-.24-.24-.34-.05-.38-.07-.74-.14-1.12-.24l.21-.46c.85.2,1.7.32,2.55.51Z"/><path class="cls-45" d="m4.27,25.84c-.34-.14-.44.43-.44.72-.36.11-.28.29-.43.58-.22-.16-.05.15-.33.04-.07-.09-.12-.23-.17-.3l.82-1.54c.1-.09.35.27.3.39.3,0,.24.11.25.12Z"/><path class="cls-16" d="m6.37,20.56l-.28.48c-.08-.09-.14-.19-.21-.26.04-.43-.29-.44.09-.93.23.09,0,.24.04.33.01.02.23.23.35.39Z"/><path class="cls-16" d="m11.28,26.22c-.17-.07-.33-.16-.51-.23l.28-.48c.36.2.72.3.23.72Z"/><path class="cls-6" d="m5.87,20.78c.07.08.13.18.21.26,0,0,0,.02.07.09-.04.07-.02.28-.02.3,0,0-.08.04-.17.12-.02.02-.43.26-.37.08-.06.46.31.42.31.84.02.03.2-.06.38.51,1.35,1.43,2.71,2.27,4.49,3.02.17.07.34.16.51.23.94.36,1.58.48,2.51.71.37.09.74.17,1.12.24.01,0,.17.13.21.15-.27,1.05-.88,1.99-1.32,2.99.55.48.94-1.19,1.28-1.81.03-.06.38-.01.65-1.18.79.08,1.61.06,2.4,0,.18.23-.13.24-.18.39,0,.02.02.32-.01.39-.58,1.48-1.59,2.84-1.77,4.45-.2.12-.4.12-.45.24-.88.21-2.24.09-3.13-.1-.03,0-.06-.04-.09-.04-.17-.04-.34-.07-.5-.12-.26-.07-.48-.14-.73-.23-.17-.06-.36-.13-.53-.19-1.81-.65-4.45-1.84-5.98-2.98-.84-.63-1.97-1.93-2.34-2.91.15-.04.13.22.47.66.05.07.09.21.17.3.27.11.11-.2.33-.04.16-.29.08-.47.43-.58,0-.29.1-.85.44-.72.25.2-.15.34.26.23-.1.23.26.23.23,0-.01-.08-.18-.08-.18-.08-.6-.85-1.27-1.46-1.32-1.55-.36-.71,1.04-.96.8-2.22.16-.14,1.04-1.61,1.01-1.71-.05-.19-.4.03-.03-.43.06-.11.66.52.84.72Z"/><path class="cls-44" d="m8.62,28.84s-.02.09-.07.08c-1.12-.56-2.39-1.11-3.18-2.11.04-.05.77.47.89.55.03.02-.03.09,0,.11.04.02.14-.02.3.08.03.02-.03.09,0,.11.02,0,.08-.06.34.1.03.02-.03.09,0,.11.02.01.09-.06.39.12.03.02-.03.09,0,.11.02.01.12-.04.48.17.03.02-.03.09,0,.11.04.03.29.04.62.23.01,0-.1.04.21.21Z"/><path class="cls-44" d="m8.62,28.84s.08-.09.33.13c-.11,0-.24-.07-.33-.13Z"/><path class="cls-2" d="m16.38,22.66c.43.48-.03.38.19.56l-.12.08-1.2-.55-.04.09c.65.19,1.22.53,1.84.79-.08.16-.24.24-.35.4-.16-.21-.22-.1-.23-.11-.13-.03-.22-.06-.34-.1-.94-.32-4.48-1.84-5.1-2.29-.76-.55.6-.1,1.47.07-.72-.33-1.42-.71-2.16-1-.42-.16-2.72-.78-1.29-.54.74.13,3.21.36,3.88.34.23,0,.72-.03.51-.21.13.02.32,0,.39.01.62.97,1.78,1.6,2.55,2.45Z"/><path class="cls-7" d="m18.85,25.75c-.22.06-.99.2-1.15.2-.08,0-.09-.1-.09-.1-.52-.02-.96-.01-1.48-.18.25-.34.69-1.13.48-1.34,0-.01.07-.28.08-.3.11-.16.27-.23.35-.4.89.37.72.22.75.24.62.26,1.44.71,2.09.79-.09.78-.26.87-1.03,1.09Z"/><path class="cls-46" d="m17.39,21.9c.1.06.96.5,1.01.52.44.17,1.21.38.54-.25l.05.02c.18-.02.28.16.29.33.04.4-.32.19-1.15-.17-.79-.34-1.73-.99-1.72-.74-.34-.41-.35-.58-.63.27-.5-.46-.93-.97-1.34-1.51-.13-.01-.24-.07-.37-.11.88.04,1.75.07,2.63.1l-.1,1.01c.26.17.52.36.79.53Z"/><path class="cls-9" d="m18.82,20.5c.35,1.26.85,2.47,1.05,3.77-1.07-.71-2.53-.96-1.74-1.91.83.36,1.18.57,1.15.17-.01-.17-.12-.35-.29-.33.08-.23-.21-.18-.26-.23-.34-.33.47-.8-.02-1.23.01-.08.14-.18-.1-.27.01,0,0-.08.21.04Z"/><path class="cls-42" d="m17.7,25.95l-.06.25c-.96,0-2.19-.2-1.7-.06l-.12.5c-.73-.19-.95.1-.65-.64.83.15.69.06.04-.21l.17-.37c.11.03.26-.05.27-.04.01,0-.04.07.14.12.04.01.01.13.24.08.12-.46.37-.85.58-1.26.21.21-.23,1-.48,1.34.51.17.96.16,1.48.18,0,0,.01.1.09.1Z"/><path class="cls-60" d="m18.68,26.73c-.11.02-.21.06-.31.08-.65.11-.81.16-1.49.09-.01,0-.12-.04-.25-.06-.01-.79.57-.6.4-.21-.03-.47,1.79-.36,1.82-.25,0,.02-.17.18-.16.34Z"/><path class="cls-16" d="m15.17,26.01c-.29.74-.08.45.65.64.04,0,.3.16.73.23.07.01.06-.03.07-.02.13.02.24.06.25.06-.03.16-.18.14-.31.08-.85-.18-1.7-.31-2.55-.51-.32-.08-.65-.12-.96-.22,0-.45.23-.02.45.04.03,0,.63-.03.66.14l.32-.63s.09.05.14.06c.16.04.41.12.55.14Z"/><path class="cls-25" d="m15.78,21.89c.1.1.7.65.75.68l-.16.1c-.76-.85-1.92-1.49-2.55-2.45.09.02.16.03.25.06.12.04.24.1.37.11.41.54.84,1.05,1.34,1.51Z"/><path class="cls-16" d="m16.41,21.62c.09.11.65.72.65.77,0,.18-.17.38-.53.18-.04-.02-.64-.58-.75-.68.27-.85.28-.68.63-.27Z"/><path class="cls-55" d="m17.64,26.2l.06-.25c.16,0,.93-.13,1.15-.2.1.07.19-.06.22.02.17.54-1.1.43-1.42.43Z"/><path class="cls-59" d="m16.55,26.87c-.43-.07-.69-.22-.73-.23l.12-.5c.37.1.63-.05.4.41.35-.58.36-.3.21.32Z"/><path class="cls-57" d="m17.3,31.06c-.24.5-.76,1.8-.65.93.05-.13-.05-.21.14-.19-.31-.06.37-.87.51-.74Z"/><path class="cls-35" d="m18.13,22.36c-.79.96.67,1.2,1.74,1.91l.16.74c-.43.54,0,.72-.59,1.15.46.69-.18.75-.2.8-.51.94-1.7,4.06-2.43,5.4-.35.16-.71.33-1.08.42.04-.12.25-.12.45-.24.33-.2.35-.23.48-.56-.11.88.41-.43.65-.93.39-.81.73-1.65,1.13-2.46.01-.97-.08.13-.37.33l.61-1.56-.11-.19c-.14.02-.4.14-.43.14-.79.07-1.61.09-2.4,0-.2-.02-.42-.08-.61,0-.04-.02-.2-.15-.21-.15.1-.19.32.04.34.05.04,0,.04-.08.09-.07.06,0,.06.09.07.09.11.01.93.08.98.06.08-.03-.01-.15.17-.31.13.06.28.09.31-.08.68.07.84.02,1.49-.09-.59.55.7.31.85-.03.12-.28-.19-.12-.53-.05,0-.17.16-.33.16-.34-.02-.11-1.84-.22-1.82.25.17-.4-.42-.58-.4.21,0,0,0,.04-.07.02.14-.62.14-.9-.21-.32.23-.45-.03-.3-.4-.41-.49-.14.74.06,1.7.06.33,0,1.6.11,1.42-.43-.02-.07-.11.06-.22-.02.77-.21.94-.3,1.03-1.09-.64-.09-1.46-.54-2.09-.79-.04-.02.13.13-.75-.24-.61-.26-1.19-.6-1.84-.79l.04-.09,1.2.55.12-.08c-.22-.18.24-.08-.19-.56l.16-.1c.36.2.53,0,.53-.18,0-.05-.56-.66-.65-.77,0-.25.94.39,1.72.74Z"/><path class="cls-42" d="m17.23,22.56s.46.53.52.57c.09.07.15.01.16.02.03.03-.03.09,0,.11.09.07.16,0,.21.04.01,0,.15.24.17.24.12.09.93.41.85.64-.18.23-2.13-1.04-2.15-1.27,0-.02.23-.35.25-.36Z"/><path class="cls-31" d="m18.36,26.81c.11-.02.21-.06.31-.08.34-.07.66-.23.53.05-.15.33-1.44.58-.85.03Z"/><path class="cls-31" d="m19.62,25.6c.17.11-.19.48-.35.4-.42-.21.32-.42.35-.4Z"/><path class="cls-46" d="m14.8,25.23c-.28.6-.07.39.4.58.65.26.79.35-.04.21-.14-.03-.38-.1-.55-.14.02-.05.06-.11.05-.11-.09-.18-1.77-.49-3.66-1.49l.26-.33c.21.09.17-.03.2-.02.41.18.81.4,1.22.56.7.28,1.39.52,2.11.75Z"/><path class="cls-59" d="m7.35,19.62s.22.18.28.24c.62.72,1.28,1.26,2.05,1.78-.09.11-.07.35-.17.37-.19.04-2.58-2.02-2.97-2.32.43.14.14-.38.81-.07Z"/><path class="cls-50" d="m15.79,25.51c-.18-.05-.13-.12-.14-.12-.01,0-.16.07-.27.04-.14-.04-.29-.1-.43-.14.04-.18.18.03.28,0,.13-.05.57-1.27.61-1.33.08-.11.26.07.28-.12.13.04.21.07.34.1.23.1-.15.45-.2.55-.16.35-.18.77-.48,1.03Z"/><path class="cls-50" d="m11.27,23.94l-.26.33c-.37-.2-.73-.44-1.09-.67-.16-.1-.45-.36-.74-.57,0,0,.03,0-.16-.13l.02-.05c.35.15.35.33.76.29.5.24.96.57,1.47.79Z"/><path class="cls-60" d="m8.16,22.22c-.37-.2-.95-.82-1.26-1.14-.13-.73.88.63,1.66,1.05-.04.33-.23.18-.4.09Z"/><path class="cls-19" d="m12.7,24.48c-.41-.17-.81-.38-1.22-.56-.04-.02,0,.11-.2.02-.51-.23-.97-.55-1.47-.79.06,0,.14,0,.18-.03.89.5,1.84.85,2.72,1.36Z"/><path class="cls-16" d="m15.38,25.43l-.17.37c-.47-.19-.68.02-.4-.58.05.02.09.05.14.06.14.04.3.11.43.14Z"/><path class="cls-41" d="m9.98,23.12s-.12.02-.18.03c-.41.03-.41-.14-.76-.29.01-.55.24-.12.94.26Z"/><path class="cls-50" d="m9.18,23.03l-.18.14c-.04-.1-.11-.19-.03-.29.01,0,.03.01.05.02.19.13.15.12.16.13Z"/><path class="cls-46" d="m17.83,19.99c-.27-.01-.55-.04-.82-.04-.63-.2-1.76-.06-2.49-.09-.26-.01-.88-.13-1.18-.15,0-.33-.67-.27-.28-.6.09-.08,1.05.21,1.1.2.18-.04.47-.44.47-.59,0-.15-1.85-.33-1.39-.73.27.11.53.21.8.31.4.15.81.3,1.21.45.04.01.05-.08.09-.07.44.17.46.27.48.28.04.01.05-.08.09-.07.24.09.83.38,1.17.54.3.13,1.37.47.74.57Z"/><path class="cls-50" d="m11.79,16.76l-.15.21c-.15.04-.08-.33-.39-.18l-.68-.76c.06.04,1.08.65,1.22.73Z"/><path class="cls-42" d="m10.15,18.51c.18.29.04.08.65.35.04.02-.06.09.05.13.01,0,.05-.13.32-.02,0,0-.06.09-.02.1.09.03.11-.15.46.16,0,0-.07.05-.18.03-.06-.01-.37-.14-.73-.23.1-.21-.31-.15-.44-.2-.62-.27-2.24-1.3-2-.81-.03-.02-.19-.01-.6-.5-.15-.17-.28-.28-.28-.3-.03-.09.1.04.13-.11,0,0,.05-.03.21.1.03.02.27.45.51.46.39.02-.4-.48,0-.72l2.44,1.12c.16.23-.77.1-.67.36.06.03.15.06.16.07Z"/><path class="cls-9" d="m10.24,17.22c.14.09.29.18.44.26.01,0-.07.07.16.19.03.02,0-.11.2-.02l-.19.41c-.63-.3-1.28-.54-1.91-.82.14-.18.11-.4.16-.59,0-.03.07,0,.08-.18.21.2.78.6,1.04.76Z"/><path class="cls-42" d="m12.29,18.72c-.21-.12-.44-.15-.66-.25-.26-.12-.5-.28-.76-.41l.19-.41c1.29.6,1.7.49,1.47.93-.12.23-.22.13-.23.14Z"/><path class="cls-35" d="m9.2,16.46c-.01.17-.08.16-.08.18l-.44.47c-.64-.37-.1-.09-.34-.71.2-.14.13-.46.26-.5.06-.02.08.15.1.16.03,0,.08-.13.2-.07.03.01.28.45.31.48Z"/><path class="cls-16" d="m12.29,18.72c-.44.35-.37-.23-1.12.26-.27-.11-.3.03-.32.02-.11-.04-.01-.12-.05-.13-.61-.27-.47-.06-.65-.35.33.23,1.3.26,1.47-.05.22.1.45.13.66.25Z"/><path class="cls-59" d="m8.95,17.24c-.09-.04-.19-.08-.28-.13l.44-.47c-.05.2-.02.41-.16.59Z"/><path class="cls-50" d="m10.89,16.79c.23.16.5.32.74.45-.1.23.2.42-.03.6l-.92-.37c-.15-.08-.3-.17-.44-.26.35.08.49-.29.43-.58.07.05.14.11.21.15Z"/><path class="cls-58" d="m10.89,16.79c-.07-.05-.14-.1-.21-.15-.3-.22-1.03-.83-1.28-1.09,0,0,0,0-.07-.09.14-.14.03-.3.27-.16.42.67,1.5,1.12,1.29,1.49Z"/><path class="cls-16" d="m13.24,17.98c-.46.4,1.39.58,1.39.73,0,.15-.29.55-.47.59-.05.01-1.01-.28-1.1-.2-.39.33.27.28.28.6-.31-.02-.62,0-.93-.04.24-.39-.52-.37-.81-.43-.35-.3-.37-.12-.46-.16-.04-.01.02-.1.02-.1.75-.5.69.09,1.12-.26.01,0,.11.08.23-.14.24-.43-.18-.33-1.47-.93-.2-.09-.17.03-.2.02-.24-.11-.15-.18-.16-.19l.92.37c.23-.19-.07-.37.03-.6.56.31,1.03.5,1.61.74Z"/><path class="cls-60" d="m10.69,19.04c-1.19-.29-1.37-.25-2.43-1.01-.24-.49,1.38.54,2,.81.12.05.53,0,.44.2Z"/><path class="cls-50" d="m12.41,19.66c-.96-.09-1.41.02-.99-.4.11.02.17-.03.18-.03.28.06,1.05.04.81.43Z"/><path class="cls-42" d="m7.41,19.14s-.05-.17.17-.48c.17.14.68.38.71.63-.01.05-.85,0-.88-.15Z"/><path class="cls-50" d="m7.57,18.66c-.22.31-.15.46-.17.48,0,0-.13.08-.16.1-.3-.2-.06-.67.23-.73.12.1.04.11.1.16Z"/><path class="cls-16" d="m9.89,23.91c.29.18.6.31.9.47l-.47.73c-.11-.08-.64-.28-.69-.37-.2-.34.2-.4.02-.66-.1-.14-.21-.12-.3-.19l.2-.19c.1.07.24.15.35.22Z"/><path class="cls-48" d="m9.35,23.88c.09.07.2.05.3.19-.19.78-.21.58-.83.23-.35-.47-.02-.24.18-.64.1.07.25.14.35.22Z"/><path class="cls-10" d="m8.06,23.18c-.15.08-.12.23-.2.24-.06.01-.91-.71-.93-.76-.04-.12.18-.23.21-.4.37.37.79.61.91.92Z"/><path class="cls-16" d="m9.93,23.59l-.04.32c-.11-.06-.25-.15-.35-.22-.28-.2-.41-.19-.54-.53l.18-.14c.3.21.59.47.74.57Z"/><path class="cls-21" d="m14.48,25.8l-.32.63c-.03-.17-.63-.13-.66-.14-.23-.06-.46-.5-.45-.04-.95-.29-1.53-.53-2.41-1l.47-.73c1.1.55,2.18.96,3.37,1.27Z"/><path class="cls-21" d="m14.62,25.87s-.09-.05-.14-.06c-1.19-.32-2.27-.73-3.37-1.27-.11-.05-.22-.09-.32-.15-.3-.16-.61-.29-.9-.47l.04-.32c.36.22.71.47,1.09.67,1.89,1,3.57,1.31,3.66,1.49,0,0-.04.07-.05.11Z"/><path class="cls-42" d="m16.69,24.03s-.07.28-.08.3c-.21.41-.46.81-.58,1.26-.23.04-.2-.07-.24-.08.3-.26.31-.68.48-1.03.05-.1.43-.45.2-.55.01,0,.07-.11.23.11Z"/><path class="cls-16" d="m17.73,20.44c-.08.02-.15.04-.24.03-.12.12-.04.54-.01.75l-.09.68c-.27-.17-.52-.36-.79-.53l.1-1.01c.34.01.69.02,1.02.08Z"/><path class="cls-42" d="m17.95,21.55c.29.21.86.5.99.62.67.63-.1.42-.54.25-.05-.02-.91-.46-1.01-.52l.09-.68c.29-.07.03,0,.46.32Z"/><path class="cls-59" d="m18.99,22.19l-.05-.02c-.14-.13-.71-.41-.99-.62l.49.03c-.03-.29.26-.75.28-.85.49.43-.32.91.02,1.23.05.04.34,0,.26.23Z"/><path class="cls-35" d="m18.61,20.46c.24.08.11.19.1.27-.02.1-.31.56-.28.85l-.49-.03c-.44-.32-.17-.4-.46-.32-.03-.21-.11-.62.01-.75.09,0,.15,0,.24-.03.23-.06.64-.01.88.02Z"/><path class="cls-24" d="m10.74,32.11c-.06.08-.12-.07-.19.05-.1.17-.08,3.71.11,3.81.28-.04.54.15.8.2.05,0,.11-.06.11-.06.28.05.56.11.84.11.09,0,.18.03.27.01l.05.13c-2.45.54-7.85-2.21-9.83-3.69-.31-.23-.96-.68-1.16-.98-.27-.4-.19-.7.17-.98.02,0,.04-.02.07-.02.34-.13.97-.52,1.34-.72.49-.27.97-.54,1.45-.84,1.53,1.14,4.18,2.33,5.98,2.98Z"/><path class="cls-15" d="m6.55,31.4c-.44.35-.74,1.23-1.15,1.64,0,0-.19.13-.2.13-.03,0-.09-.13-.25-.17v.17c-.29-.16-2.48-1.47-2.48-1.62.83-.36,1.65-.74,2.44-1.19.45.46,1.07.75,1.64,1.03Z"/><path class="cls-26" d="m6.22,33.81c.61-.56,1.02-1.28,1.37-2.01,0-.05-.06.02-.19-.06-.14-.08-.31-.15-.46-.21-.06-.03-.12-.06-.18-.08-.03-.01-.06.03-.21-.04-.57-.28-1.19-.57-1.64-1.03.07-.04.06-.23.31-.25.44.22,2.13,1.1,2.24,1.2.3.28.03.55,1.04.76.18.16-.66,1.61-.83,1.87-.15.23-.4.28-.24.39-.06.03-1.05-.45-1.21-.53Z"/><path class="cls-23" d="m7.4,31.74c-.4.7-.82,1.39-1.36,1.99-.24-.12-.31-.19-.35-.22l1.25-1.99c.15.06.32.13.46.21Z"/><path class="cls-13" d="m6.94,31.52l-1.25,1.99c-.24-.12-.5-.21-.74-.34v-.17c.16.04.22.18.25.17.01,0,.19-.12.2-.13.15.62.07.14.21-.1.09-.15.62-.94.67-.86.15-.3.15-.52.47-.65.06.03.12.06.18.08Z"/><path class="cls-28" d="m6.22,33.81c-.06-.03-.12-.06-.18-.08.54-.6.96-1.29,1.36-1.99.14.08.19,0,.19.06-.35.73-.76,1.46-1.37,2.01Z"/><path class="cls-11" d="m5.41,33.05c.41-.42.71-1.3,1.15-1.64.14.07.18.03.21.04-.32.13-.31.35-.47.65-.05-.08-.58.71-.67.86-.14.24-.07.72-.21.1Z"/></g></svg>