<?xml version="1.0" encoding="UTF-8"?><svg id="Capa_2" xmlns="http://www.w3.org/2000/svg" xmlns:xlink="http://www.w3.org/1999/xlink" viewBox="0 0 31.36 43.34"><defs><style>.cls-1{fill:url(#Degradado_sin_nombre_41);}.cls-1,.cls-2,.cls-3,.cls-4,.cls-5,.cls-6,.cls-7,.cls-8,.cls-9,.cls-10,.cls-11,.cls-12,.cls-13,.cls-14,.cls-15,.cls-16,.cls-17,.cls-18,.cls-19,.cls-20,.cls-21,.cls-22,.cls-23,.cls-24,.cls-25,.cls-26,.cls-27,.cls-28,.cls-29,.cls-30,.cls-31,.cls-32,.cls-33,.cls-34,.cls-35,.cls-36,.cls-37,.cls-38,.cls-39,.cls-40,.cls-41,.cls-42,.cls-43,.cls-44,.cls-45,.cls-46,.cls-47,.cls-48,.cls-49,.cls-50,.cls-51,.cls-52,.cls-53,.cls-54{stroke-width:0px;}.cls-2{fill:url(#Degradado_sin_nombre_42);}.cls-3{fill:url(#Degradado_sin_nombre_47);}.cls-4{fill:url(#Degradado_sin_nombre_48);}.cls-5{fill:url(#Degradado_sin_nombre_43);}.cls-6{fill:url(#Degradado_sin_nombre_45);}.cls-7{fill:#f9cc59;}.cls-8{fill:#f3b630;}.cls-9{fill:#fac77f;}.cls-10{fill:#f8e274;}.cls-11{fill:#7a7966;}.cls-12{fill:#4f5850;}.cls-13{fill:#493e2d;}.cls-14{fill:#2b2e29;}.cls-15{fill:#2b2315;}.cls-16{fill:#8a470c;}.cls-17{fill:#6f7378;}.cls-18{fill:#a4360d;}.cls-19{fill:#311611;}.cls-20{fill:#584437;}.cls-21{fill:#3d1503;}.cls-22{fill:#18271c;}.cls-23{fill:#19140e;}.cls-24{fill:#0d1812;}.cls-25{fill:#45270c;}.cls-26{fill:#374630;}.cls-27{fill:#414030;}.cls-28{fill:#0b0f0c;}.cls-29{fill:#a8ac9e;}.cls-30{fill:#25231d;}.cls-31{fill:#c4ac31;}.cls-32{fill:#d0c5bf;}.cls-33{fill:#cd7016;}.cls-34{fill:#e27c1d;}.cls-35{fill:#e0d0bf;}.cls-36{fill:#d56514;}.cls-37{fill:#db8f42;}.cls-38{fill:#a6a188;}.cls-39{fill:#be520f;}.cls-40{fill:#859268;}.cls-41{fill:#ba6115;}.cls-42{fill:#9dadab;}.cls-43{fill:#6c6a5a;}.cls-44{fill:#7c837c;}.cls-45{fill:#872908;}.cls-46{fill:#66350b;}.cls-47{fill:#684335;}.cls-48{fill:#f38d26;}.cls-49{fill:#e3e8e1;}.cls-50{fill:#ef9822;}.cls-51{fill:#f0b790;}.cls-52{fill:#fcaf58;}.cls-53{fill:#f4f4f4;}.cls-54{fill:#69736a;}</style><linearGradient id="Degradado_sin_nombre_41" x1="11.59" y1="35.02" x2="12.62" y2="35.28" gradientTransform="translate(-4.12 3.06) rotate(-7.83)" gradientUnits="userSpaceOnUse"><stop offset="0" stop-color="#243427"/><stop offset="1" stop-color="#0f1c13"/></linearGradient><linearGradient id="Degradado_sin_nombre_43" x1="15.14" y1="25.27" x2="14.49" y2="26.55" gradientTransform="translate(-4.12 3.06) rotate(-7.83)" gradientUnits="userSpaceOnUse"><stop offset="0" stop-color="#070b0a"/><stop offset="1" stop-color="#1b2116"/></linearGradient><linearGradient id="Degradado_sin_nombre_42" x1="7.27" y1="20.84" x2="4.62" y2="21.15" gradientTransform="translate(-4.12 3.06) rotate(-7.83)" gradientUnits="userSpaceOnUse"><stop offset="0" stop-color="#0a0a08"/><stop offset="1" stop-color="#2d2c27"/></linearGradient><linearGradient id="Degradado_sin_nombre_45" x1="4.83" y1="25.75" x2="6.78" y2="25.78" gradientTransform="translate(-4.12 3.06) rotate(-7.83)" gradientUnits="userSpaceOnUse"><stop offset="0" stop-color="#f09c20"/><stop offset="1" stop-color="#974f08"/></linearGradient><linearGradient id="Degradado_sin_nombre_47" x1="5.04" y1="33.87" x2="6.57" y2="34.3" gradientTransform="translate(-4.12 3.06) rotate(-7.83)" gradientUnits="userSpaceOnUse"><stop offset="0" stop-color="#e38f19"/><stop offset="1" stop-color="#a75909"/></linearGradient><linearGradient id="Degradado_sin_nombre_48" x1="4.93" y1="28.83" x2="6.8" y2="29.12" gradientTransform="translate(-4.12 3.06) rotate(-7.83)" gradientUnits="userSpaceOnUse"><stop offset="0" stop-color="#f4bb53"/><stop offset="1" stop-color="#b5690e"/></linearGradient></defs><g id="Capa_1-2"><path class="cls-53" d="m0,2.06C-.1.64,1.78-.33,2.48.62s2.97,13.59,3.67,14.16,2.68,2.83,3.12,4.97,1.14,4.09,1.39,2.82-.06-7.73,2.3-8.25,3.17-.53,3.33.26.82,2.47,2.2,1.42.93-6.43.67-8.35S18.46.48,21.79.02s5.52,7.17,5.29,8.63.47,5.86,1.23,6.18,4.23,1.95,2.63,3.51-3.03,3.66-2.51,5.74,4.62,14.62.63,16.06-25.33,5.24-26.45,1.82c-1.04-3.2-2.29-13.06-1.84-15.84.41-2.56-.73-9.45.15-10.38S0,2.06,0,2.06Z"/><path class="cls-28" d="m28.62,16.41c.16,0,.49-.1.38.54-.06.4-2.29,1.73-2.21,4.24.02.59,1.46,11.06,1.6,11.63.21.87,1.37,2.47.72,4.5-.38,1.2-1.97,2.31-2.76,1.96-.16-.07-.83-.63-1.01-.79.55-.82-1.26-1.02-.06-2.66-.17-.84,0-.73,0-.78-.08-2.39-1.67-10.52-1.83-13.71-.84-1.4-1.43-2.75-3.25-2.97-.13-.21,1.1-.37.79-.65.5-.03.86-.03,1.32.18.39.17.72.47.85.89.37,1.25,1.8,14.2,2.33,16.91-.33.53-.6.89-.41,1.53.2.71,1.37,1.79,2.64.98.45-.28.85-1.26.82-1.77-.04-.71-.57-1.11-.66-1.38-.27-.86-1.9-14.5-2.27-16.91.31-1.14.84-1.28,1.86-1.52.37-.09.78-.2,1.16-.21Z"/><path class="cls-18" d="m25.04,7.69c.05.14.33.37.38.49.11.32.62,5.61.86,6.66.22.67,1.87,1.01,2.34,1.57-.39,0-.79.12-1.16.21,0-.2-.28,0-.37-.08-.03-.02-.03-.29-.29-.58-.31-.36-.65-.41-.81-1l.33.14c-.23-.27-.11-1.09-.41-1.11-.19-1.14-.7-5.5-.84-5.76-.05-.09-.42.03-.28-.51.08,0,.17-.03.25-.03Z"/><path class="cls-23" d="m25.04,7.69c-.08,0-.17.03-.25.03-.06,0-.06-.08-.15.02,0,0-.03.04-.06-.09-.03-.15-.18-.39-.18-.57-.25.32-.1-.03-.12-.14,0-.04-.1,0-.11-.04,0-.04.12.01.08-.17-.09-.42-.23-.9-.34-1.32.47-.7.71,1.14,1.14,2.27Z"/><path class="cls-29" d="m23.84,5.32s.03-.04.06.09c.11.43.25.91.34,1.32.04.18-.09.13-.08.17,0,.04.1,0,.11.04.02.11-.12.46.12.14,0,.18.15.42.18.57l-.39.16c-.04-.83-.86-2.67-.34-2.49Z"/><path class="cls-36" d="m28.53,36.44c.03.51-.37,1.49-.82,1.77-1.27.81-2.44-.27-2.64-.98-.03-.39.13-.48.21-.7-.15.23.74,1.32.83,1.33.27-.09.54-.18.82-.27.13-.04.26-.1.4-.11.04.07.05.27.18.34.12,0,.64-1.37.74-1.58-.02-.04-.1,0-.11-.01-.27-.26-.47-.59-.82-.71-.08-.25-.24-.5-.31-.76l-2.27-16.11c.06,0,.07-.08.09-.12.07-.15.14-.29.2-.44.12-.28.82-1.75.83-1.85.02-.12-.11-.47-.06-.79,0,0-.02-.05.04-.06.02.06.43.51.51.68-1.57,2.07-.91,2.11-.79,4.4l1.69,12.29c.35.08.26,1.48.45,2.11.12.42.51.79.68,1.2.1.24-.02.42.15.37Z"/><path class="cls-39" d="m24.79,7.73c-.14.54.22.41.28.51.15.25.65,4.61.84,5.76.05.3,0,.66.08.97.16.59.5.64.81,1,.26.29.26.56.29.58.09.07.38-.12.37.08-1.02.24-1.55.38-1.86,1.52.38,2.41,2,16.05,2.27,16.91.09.27.61.67.66,1.38-.18.06-.05-.12-.15-.37-.17-.41-.56-.78-.68-1.2-.18-.63-.1-2.03-.45-2.11l-1.69-12.29c-.12-2.29-.78-2.33.79-4.4-.08-.17-.49-.63-.51-.68-.04-.1-.03-.31-.06-.46-.08-.34-.1-.76-.15-1.12-.3-1.85-.48-3.71-.76-5.56-.32-.13-.22.4-.61.11.37-.07.43-.27.38-.62.1-.1.09-.02.15-.02Z"/><path class="cls-50" d="m24.03,7.83s-.16.24.23.54c.38.29.29-.24.61-.11.29,1.85.47,3.71.76,5.56l-1.11.2c-.18-1.81-.67-4.11-.8-5.81-.03-.38-.07-1.24.31-.38Z"/><path class="cls-52" d="m25.63,13.82c.06.36.08.77.15,1.12-.16.08-.33.1-.49.17-.07-.16-.45-.22-.65-.22.01-.12-.09-.6-.12-.86l1.11-.2Z"/><path class="cls-35" d="m24.33,15.7c-.03.66.28,2.13.49,2.83-.02.04-.03.11-.09.12l-.91-2.46c.79,1.03.39,1.38.44-.58.06-.01.07.05.06.09Z"/><path class="cls-52" d="m25.29,15.11c-.3.14-.7.39-.95.6,0-.05,0-.1-.06-.09.04-.15.36-.68.37-.72.2,0,.58.06.65.22Z"/><path class="cls-51" d="m24.64,7.75c.05.35-.01.55-.38.62-.39-.3-.22-.51-.23-.54l.15-.02.39-.16c.03.14.06.09.06.09Z"/><path class="cls-49" d="m21.33,1.74c.03,1.02.18,2.05.27,3.07.02.29.04.58.07.87,0,.18-.42-.13-.43-.15-.14-.23-.08-3.36,0-3.88l.09.09Z"/><path class="cls-28" d="m22.86,1.58h-.05s-.1-.23-.11-.24c-.05-.03-.95.18-1.09.15-.03-.06-.06-.13-.08-.2.3-.09.84-.08,1.19-.16.06.02.11.37.14.45Z"/><path class="cls-54" d="m22.86,2.71c.08.47.12.95.2,1.42.07.44.12.88.18,1.32.12.91.24,1.81.37,2.72l-1.02.09c-.34-1.94-.47-3.92-.76-5.87.47-.08.37-.15.39-.16.67-.09.38.4.64.48Z"/><path class="cls-14" d="m22.1,8.1c-.17-.02-.23.03-.3.04,0-.08-.03-.17-.03-.25.37.05.02-.26.01-.29-.09-.62-.05-1.3-.11-1.92-.03-.29-.04-.58-.07-.87.39-.08.2,1,.21,1.14,0,.04.11,0,.11.04,0,.01-.13.18-.12.22.06.56.23,1.29.31,1.9Z"/><path class="cls-14" d="m22.69,1.86c.12.2.13.61.17.86-.26-.08.03-.57-.64-.48l-.47-.04c-.03-.19-.01-.49-.02-.51.3.02.76-.13.96.18Z"/><path class="cls-30" d="m22.81,1.58c.03.15-.04.17-.12.27-.19-.31-.66-.16-.96-.18,0-.01-.02.03-.13-.19.14.03,1.04-.18,1.09-.15.01,0,.11.23.11.24Z"/><path class="cls-30" d="m23.24,5.46c-.06-.44-.12-.88-.18-1.32.26.15.55,1.26.18,1.32Z"/><path class="cls-30" d="m21.53,1.29c.02.06.05.14.08.2.11.22.13.18.13.19,0,.02,0,.33.02.51.02.16.07.17.08.2.29,1.95.42,3.93.76,5.87l1.02-.09c-.13-.9-.26-1.81-.37-2.72.37-.06.08-1.17-.18-1.32-.07-.47-.11-.95-.2-1.42-.04-.25-.05-.66-.17-.86.08-.1.14-.13.12-.27h.05c.39,1.21.67,2.5.98,3.74-.52-.19.3,1.65.34,2.49l-.15.02c-.38-.86-.34,0-.31.38.13,1.71.62,4,.8,5.81.03.26.13.74.12.86,0,.04-.33.57-.37.72-.05,1.96.35,1.61-.44.58-.1-.13-.05-.22-.18-.18-.07-.38-.1-.74-.26-1.1.13.1.28.18.44.22.33,1.97.29.29.09-.12-.02-.04-.61-.35-.72-.34-.04-.2-.05-.41-.08-.61,0-.02,0-.03,0-.05.12.09.08.78.32.63.23-.15-.43-1.91-.13-2.23-.23-.53-.16-1.2-.24-1.78-.01-.07-.43-.87-.2-1.42-.08,0-.18-.17-.18-.18-.16-.83.15-.6-.27-.45,0,0,0-.04-.09-.09-.32.49-.21-.18-.23-.38-.08-.61-.26-1.33-.31-1.9,0-.04.13-.21.12-.22,0-.04-.11,0-.11-.04-.01-.13.18-1.21-.21-1.14-.09-1.02-.24-2.04-.27-3.07,0-.13-.04-.25-.05-.38.03-.06.19-.04.25-.06Z"/><path class="cls-27" d="m23.12,14.01c-.06-.37-.09-.28-.09-.3-.12-.7-.19-1.43-.29-2.13.04,0,.09,0,.1-.04.03-.15-.31-2.58-.41-2.97.42-.15.11-.38.27.45,0,.01.1.19.18.18-.23.55.18,1.35.2,1.42.08.58.01,1.25.24,1.78-.3.32.36,2.08.13,2.23-.24.15-.2-.53-.32-.63Z"/><path class="cls-15" d="m22.1,8.1c.03.21-.09.87.23.38.09.05.08.09.09.09.1.39.44,2.82.41,2.97,0,.04-.06.03-.1.04-.11-.76-.19-1.53-.31-2.28-.12-.7.01-.73-.35-.31,0-.07-.02-.14-.03-.2,0-.13-.03-.34-.06-.46-.03-.11.06-.12,0-.16-.03-.02-.21.08-.24-.02.02,0,.03,0,.05,0,.07-.01.13-.06.3-.04Z"/><path class="cls-38" d="m23.4,14.9c-.06-.04-.11-.09-.17-.13.1-.03,0-.04-.01-.1.11-.01.7.31.72.34.21.41.24,2.09-.09.12-.16-.04-.31-.13-.44-.22Z"/><path class="cls-12" d="m22.22,2.23s.08.07-.39.16c0-.03-.05-.04-.08-.2l.47.04Z"/><path class="cls-45" d="m25.99,14.96c-.08-.32-.03-.68-.08-.97.3.02.18.83.41,1.11l-.33-.14Z"/><path class="cls-30" d="m21.66,5.67c.05.63.02,1.31.11,1.92,0,.02.36.34-.01.29-.03-.57-.15.04-.12.27-.26.04-.19.08-.2.08-.04,0-.09-.07-.21-.02-.02-.99.27-2.46-.05-2.63,0,0-.02-.05.04-.06.01.02.42.32.43.15Z"/><path class="cls-49" d="m21.18,5.58c.33.17.03,1.64.05,2.63,0,.17-.04.37-.03.52l-.62.03c.03-.05.3-.2.4-.44,0-.52-.03-2.42,0-2.59.02-.11.18-.15.19-.15Z"/><path class="cls-54" d="m21.76,7.88c0,.08.03.17.03.25-.02,0-.03,0-.05,0-.03,0-.07,0-.1.01-.03-.23.08-.84.12-.27Z"/><path class="cls-50" d="m25.78,14.93c.03.15.03.35.06.46-.06,0-.04.06-.04.06-.12.01-1.06,1.13-1.08,1.21-.01.08.05,1.58.3,1.43-.06.15-.13.29-.2.44-.22-.7-.52-2.17-.49-2.83.26-.21.66-.46.95-.6.16-.07.33-.1.49-.17Z"/><path class="cls-52" d="m25.8,15.45c-.05.32.07.67.06.79-.01.1-.71,1.57-.83,1.85-.25.14-.32-1.36-.3-1.43.02-.08.96-1.19,1.08-1.21Z"/><path class="cls-29" d="m27.37,36.29s0,.04,0,.05c-.16.13-.3.29-.46.43-.08.07-.08.11-.09.12-.15.11-.2.16-.39.21l-.88-.35c.21-.25.63-1.24.84-1.62.3.41.61.8.96,1.16Z"/><path class="cls-52" d="m21.2,8.74c.09,1.69,1.06,6.22,1.17,8.5l-.1.04c-.26-.39-.39-.54-.5-1.02.21-.3.28-.74.06-1.07-.16-.24-.08.29-.28.63l-1.06-6.97c.04-.08.09-.08.09-.09l.62-.03Z"/><path class="cls-50" d="m22.28,17.28l-.9-.34c-.86.98-.55.63-.38.78-.23.02-.49.12-.72.05.07-.04.53-.5.64-.63-.12-.14-.68.45-.66.07.21-.19.45-.4.64-.61.33.24.69-.05.89-.33.11.48.25.63.5,1.02Z"/><path class="cls-9" d="m21.77,16.26c-.2.28-.55.57-.89.33.17-.18.55-.56.67-.76.2-.34.11-.87.28-.63.22.33.15.77-.06,1.07Z"/><path class="cls-9" d="m20.25,17.2c-.02.38.54-.2.66-.07-.11.13-.57.59-.64.63,0,0,.05.01-.15.07-.09.03-.21.02-.3.04-.01,0-.02-.06-.21-.02-.04-.27.49-.52.63-.66Z"/><path class="cls-33" d="m21.45,8.24c-.06.11-.02.18-.02.21,0,0-.1,0-.1.04,0,.32.18.56.19.6.29,1.68.47,4.23.79,5.74,0,.02.16.15.2.36.04.19.11.36.13.55l.59,2.38c.22.52.36.14.61,1.39.81,4.23,1.38,11.27,2.18,15.87-.04.06-.09.09-.13.15-.02.03-.22.18-.28.19-.63-5.02-1.45-10.03-2.07-15.05,0-.04.1-.03.09-.06-.11-.92-.12-2.75-1.3-2.69-.46-.21-.82-.21-1.32-.18-.17-.15-.47.2.38-.78l.9.34.1-.04c-.11-2.28-1.08-6.81-1.17-8.5,0-.15.03-.35.03-.52.12-.04.17.03.21.02Z"/><path class="cls-50" d="m25.59,35.71c-.08.28-.2.55-.3.82-.09.23-.24.31-.21.7-.18-.65.08-1,.41-1.53-.52-2.71-1.96-15.66-2.33-16.91-.13-.43-.46-.72-.85-.89,1.18-.05,1.19,1.77,1.3,2.69,0,.04-.1.03-.09.06.62,5.03,1.44,10.03,2.07,15.05Z"/><path class="cls-22" d="m19.61,17.85c.19-.04.2.03.21.02-.64.58.19.57.3-.04.2-.06.14-.07.15-.07.22.07.48-.03.72-.05.31.28-.92.44-.79.65,1.82.21,2.41,1.57,3.25,2.97.16,3.19,1.75,11.32,1.83,13.71,0,.04-.17-.06,0,.78-1.2,1.64.6,1.84.06,2.66-.2-.17-.73-.57-.82-.69-.77-1.08-.14-3.23-.21-4.52-.03-.63-1.38-10.53-1.52-11.07-.56-2.2-3.34-3.59-3.47-3.82-.2-.33,0-.47.29-.53Z"/><path class="cls-12" d="m20.13,17.83c-.11.61-.95.62-.3.04.1-.02.21-.01.3-.04Z"/><path class="cls-18" d="m23.65,16c.13-.04.08.05.18.18l.91,2.46,2.27,16.11c.07.26.23.51.31.76.14.41.35.72.05.77-.35-.37-.66-.75-.96-1.16-.2.38-.63,1.37-.84,1.62,0,0-.07.05-.09.06.01-.5.44-.85.39-1.3.04-.06.1-.09.13-.15-.8-4.6-1.37-11.64-2.18-15.87.15.04.07-.5.03-.91.24.16.23-.22-.03-.2-.06-.6-.76-2.2-1.03-2.6-.03-.05-.1-.08-.16-.06-.02-.19-.09-.37-.13-.55l-.1-.71c.44.08.89,2.03,1.09,2.26.06.07.35.09.37.05.02-.05-.14-.44-.21-.77Z"/><path class="cls-45" d="m21.64,8.16s.07,0,.1-.01c.02.1.2,0,.24.02.05.04-.03.04,0,.16-.47.29-.48.38.06.46,0,.07.02.14.03.2,0,.02,0,.03,0,.05,0,0-.1,0-.1.04.15,1.64.55,3.28.63,4.93.05.14.41-.15.43-.29,0,.02.03-.08.09.3,0,.02,0,.03,0,.05-.82.37-.32.43.1.71.06.04.12.09.17.13.15.36.18.73.26,1.1.07.33.23.73.21.77-.02.04-.31.01-.37-.05-.2-.23-.65-2.17-1.09-2.26-.14-1.06-.59-5.2-.72-5.62-.05-.15-.29-.02-.26-.4,0-.03-.04-.1.02-.21.01,0-.07-.03.2-.08Z"/><path class="cls-34" d="m23.13,14.06c.03.2.04.41.08.61.01.06.11.08.01.1-.42-.28-.92-.34-.1-.71Z"/><path class="cls-18" d="m25.48,36.81c.03.37.67.36.97.28.18-.05.24-.1.39-.21-.11.24-.01.49.1.71-.27.08-.54.18-.82.27-.09,0-.98-1.11-.83-1.33.1-.27.22-.54.3-.82.06-.02.26-.17.28-.19.04.45-.38.79-.39,1.3Z"/><path class="cls-52" d="m28.14,36.23s.09-.03.11.01c-.1.2-.62,1.58-.74,1.58-.13-.07-.14-.27-.18-.34-.14-.27-.25-.65-.41-.72.15-.14.3-.29.46-.43.23.23.06.38.76-.1Z"/><path class="cls-34" d="m28.14,36.23c-.7.48-.53.34-.76.1,0,0,0-.04,0-.05.3-.05.09-.36-.05-.77.35.12.55.46.82.71Z"/><path class="cls-39" d="m27.33,37.48c-.14,0-.27.07-.4.11-.11-.22-.2-.47-.1-.71,0,0,0-.05.09-.12.16.07.27.45.41.72Z"/><path class="cls-39" d="m23.82,19.5c-.24-1.25-.38-.87-.61-1.39l-.59-2.38c.06-.02.13,0,.16.06.27.4.97,2,1.03,2.6.26-.02.27.37.03.2.04.41.12.95-.03.91Z"/><path class="cls-18" d="m21.42,8.45c-.03.38.22.26.26.4.13.42.58,4.56.72,5.62l.1.71c-.05-.21-.2-.34-.2-.36-.32-1.51-.5-4.06-.79-5.74,0-.03-.19-.28-.19-.6,0-.04.1-.03.1-.04Z"/><path class="cls-21" d="m26.45,37.09c-.3.08-.94.09-.97-.28.03-.01.09-.06.09-.06l.88.35Z"/><path class="cls-39" d="m22.07,9.03l.35.26c.13.76.2,1.53.31,2.28.11.71.17,1.43.29,2.13-.02.14-.38.43-.43.29-.08-1.66-.48-3.29-.63-4.93,0-.04.1-.03.1-.04Z"/><path class="cls-48" d="m21.97,8.32c.03.12.05.33.06.46-.54-.08-.53-.17-.06-.46Z"/><path class="cls-37" d="m22.42,9.29l-.35-.26s0-.03,0-.05c.37-.42.24-.38.35.31Z"/><path class="cls-50" d="m14.07,27.98c0,.12-.27.04-.34.13-.1.11-.21,2.62-.36,3.05-.03.09-.32.08-.08.19-.08,0-.15.05-.26-.02.24-1.08.25-2.18.43-3.27l.61-.08Z"/><path class="cls-33" d="m15.39,27.8c.04,1.02.02,2.64-.12,3.64-.15,0-.31.06-.46.06-.4,0-1.09-.12-1.52-.15-.24-.11.05-.11.08-.19.15-.43.25-2.94.36-3.05.08-.09.34,0,.34-.13l1.32-.18Z"/><path class="cls-24" d="m20.27,39.9c-.08-.17-.19-.35-.23-.54-.19-.83.31-1.74-.28-3.51-.42-1.28-2.3-3.6-2.64-4.5-.05-.14.03-.21.02-.24.15-.02.31-.07.45-.11.56-.19,1.15-.39,1.66-.69,0,0,.12-.03.16.06,1.72,3.29,2.85,6.6,2.62,9.49-.04.45-1.36.97-1.78.04Z"/><path class="cls-1" d="m13.03,31.33c.11.07.18,0,.26.02.43.04,1.12.15,1.52.15-.13,1.19-.86,2.86-1.07,3.85-.74,3.39,1.2,4.63-.17,5.92.05.1.62-.11.71-.12.63-.09-.76.67-1.5-.36-.1-.13-.12-.13-.12-.14-.58-.97-.86-3.08-.84-4.2.03-1.38.78-3.62,1.11-5.07.01-.05.1-.03.1-.04Z"/><path class="cls-28" d="m15.27,31.43c-.23,1.65-1.25,3.89-1.32,5.07-.11,1.92.65,2.87.64,3.53,0,.31-.2.46-.26.71-.02.06.07.08.07.12,0,.01-.12.2-.12.27-.08.01-.66.22-.71.12,1.37-1.29-.57-2.53.17-5.92.21-.99.94-2.65,1.07-3.85.14,0,.31-.06.46-.06Z"/><path class="cls-41" d="m18.24,27.46c.11.47.8,2.45,1.01,2.86-.51.31-1.1.5-1.66.69-.02-.1-.16,0-.18-.03-.15-.09-.95-2.9-1.05-3.32l1.89-.21Z"/><path class="cls-48" d="m16.36,27.66c.1.42.91,3.23,1.05,3.32.03.02.17-.07.18.03-.14.05-.3.09-.45.11-.38-1.05-.75-2.35-.94-3.44l.15-.02Z"/><path class="cls-26" d="m16.11,25.11s.07.19.1.19c-.01-.15.69-.07.72-.05.02.01.2.39.19.41-.09.16-1.09.17-1.3.31-.07-.51-.42-.78.29-.87Z"/><path class="cls-28" d="m16.78,20.93c-.14.46.71,1.08.31,1.9.26.34.2,1.09.32,1.59-.74.2-.22.42.48.45.04.03.73.45.75.54-.55,1-.63.98-.39,2.05l-1.89.21-.15.02c-.23-.37-.32-1.2-.39-1.71.21-.14,1.22-.15,1.3-.31.01-.02-.17-.4-.19-.41-.03-.02-.73-.1-.72.05-.04,0-.09-.15-.1-.19-.05-.11.03-.27-.13-.34-.02-.01-.38.05-.45-.04,2.18-.05,1.19-.26,1.19-1.85,0-.07.18.02.09-.84,0-.04.1-.03.09-.06-.01-.06-.33-.6-.36-1.11.02,0,.21.07.22.07Z"/><path class="cls-16" d="m17.41,24.41c.02.12.26.27.48.45-.7-.03-1.21-.25-.48-.45Z"/><path class="cls-31" d="m17.09,25.29c1.27,0,.88.87.27.48-.18-.11-.31-.45-.27-.48Z"/><path class="cls-8" d="m13.4,24.97c.26.06.69.05.7.21-.07.03-.2.16-.28.19-.13.05-.57.11-.75.16.08-.14.19-.48.34-.56Z"/><path class="cls-28" d="m14.76,25.04c.06,0,.23.08.27.12.24.36-.45.29-.84.48l-.37-.26c.09-.04.22-.17.28-.19.08-.03.12-.22.65-.14Z"/><path class="cls-5" d="m15.39,27.8l-1.32.18-.61.08-.12-.89-.79-.82c.12-.58.48-.78.51-.82.19-.04.63-.1.75-.16l.37.26c.39-.19,1.08-.12.84-.48,0,0,.12.04.17.11.05.84.16,1.69.19,2.53Z"/><path class="cls-40" d="m13.39,26l-.49.17c0-.13-.06-.25,0-.39.05-.1,1-.48.88-.02-.02.07-.25.07-.38.23Z"/><path class="cls-10" d="m13.39,26c-.09.11-.43.79-.57.36-.03-.08.08-.12.08-.19l.49-.17Z"/><path class="cls-13" d="m14.44,15.2c.33.25.3.37.41.75.06.05.05-.09.11.01.02.6-.46-.57-.46.01-.3-.34-.48.14-.89.3-.16.78-.57,2.49-.28,3.19.12.29.84.46.88.78-.75.48-1.01,1.45-1.4,1.07-.49-1.05.06-3.92.44-5.05.2-.61.43-1.18,1.2-1.07Z"/><path class="cls-28" d="m16.78,20.93s-.2-.07-.22-.07c-.2-.08-.88-.61-1.13-.67l.15-.07c.33.14.71.47.76.28-.13-1.26-.31-2.22-.93-3.36-.04-.13-.11-.23-.15-.34-.12-.33-.13-.41-.31-.73-.05-.1-.05.04-.11-.01-.12-.37-.09-.49-.41-.75.27.04.48.24.63.46.09.13,1.28,2.55,1.36,2.76.13.36.8,2.52.35,2.51Z"/><path class="cls-15" d="m14.2,20.25s.06.05.06.09c-.27.17-.87.98-1.17,1.25-.14-.06-.23-.13-.3-.27.39.37.65-.59,1.4-1.07Z"/><path class="cls-19" d="m14.49,15.97c.2.22.05.38.06.41-.53-.65-.68.06-.7.54-.01.25.18.61,0,.78.1.23.3.29.39.57.1.32.15,2.17.41,1.47,0,.01.14,0,.21.18.15,0,.11-.07.12-.07.03.01.08.02.11.04.17.07.33.17.5.24l-.15.07c-.4-.11-.81-.06-1.17.16,0-.05-.06-.05-.06-.09-.05-.33-.77-.5-.88-.78-.28-.7.13-2.41.28-3.19.41-.17.59-.64.89-.3Z"/><path class="cls-20" d="m14.96,15.96c.17.33.19.41.31.73-.23.15.15.05-.18.54-.33.48-.2.57-.53-.86,0-.02.14-.18-.06-.41,0-.58.49.58.46-.01Z"/><path class="cls-47" d="m15.26,16.69c.04.12.11.21.15.34.08.26.47,2.06.46,2.19-.25.5-.69.56-.75.59-.06-.26.04-.83-.18-.91,0-.24,0-.42-.04-.67l.17-1.01c.34-.49-.05-.4.18-.54Z"/><path class="cls-13" d="m15.58,20.11c-.17-.07-.33-.17-.5-.24.06,0,.04-.06.04-.06.05-.03.49-.09.75-.59.02-.13-.38-1.92-.46-2.19.62,1.15.8,2.11.93,3.36-.05.19-.43-.14-.76-.28Z"/><path class="cls-30" d="m14.91,18.24c.04.25.04.42.04.67,0,.05-.16.4.02.93,0,0,.03.07-.12.07-.06-.18-.2-.17-.21-.18-.02-.04-.16-.74-.16-.78-.03-.38.22-2.15.42-.7Z"/><path class="cls-32" d="m15.12,19.81s.02.05-.04.06c-.03-.01-.08-.02-.11-.04-.18-.52-.02-.88-.02-.93.22.07.12.65.18.91Z"/><path class="cls-13" d="m15.43,20.19c.25.07.93.59,1.13.67.03.52.35,1.06.36,1.11,0,.04-.1.03-.09.06.09.86-.09.77-.09.84,0,1.59.98,1.8-1.19,1.85-.03-.05-.03-.36-.07-.51.16-.21.56-.17.5-.33-.77.22-.95,0-1.64-.11.6.35.94.11,1.11.91.03.22-.5.14-.68.35-.53-.07-.57.11-.65.14-.01-.16-.44-.16-.7-.21-.12-.89-.62-2.77-.23-3.2l-.08-.17c.3-.27.9-1.08,1.17-1.25.35-.22.77-.27,1.17-.16Z"/><path class="cls-15" d="m15.47,24.22c-.14.18-.07.23-.04.47-.17-.8-.51-.56-1.11-.91.69.1.88.33,1.64.11.07.16-.34.11-.5.33Z"/><path class="cls-15" d="m14.59,20.61c.4.07.43-.06.46-.06.04,0,.02.09.06.09.02,0,.35,0,.36,0,1.2.59,1.11,2.75-.51,2.66-.95-.06-1.86-1.7-.37-2.69Z"/><path class="cls-13" d="m14.61,20.77c.29-.09.67-.07.94.08.38.2.42.58.59.72.15.9-.08,1.52-1.04,1.67-.71-.16-1.2-.58-1.2-1.36,0-.35.34-.99.7-1.11Z"/><path class="cls-17" d="m3.36,16.31c-.26-1.61-1.31-10.93-1.48-11.49.06.03.16.04.16.06.23.55,1.19,9.77,1.61,11.31-.06.15-.25.09-.29.12Z"/><path class="cls-27" d="m1.35,3.91c-.06-.25,0-.56-.01-.83.34-.43-.37-1,.71-1.03.15.37.21.76.28,1.12,0,.04.1,0,.11.04.05.24.14,1.15-.11,1.28-.61.33-.57-.49-.99-.59Z"/><path class="cls-28" d="m7.07,21.08c-.28.09-.6.03-.87.07l-.19-.85.04.87c-.26.04-.54.13-.81.16-.3.04-.34,0-.36,0-.24-1.3-.31-2.9-.67-4.15-.29-1.01-.39-1.07-.25.03.16,1.32.56,3.19.6,3.95-.18,0-.04.18-.1.22-.02.02-.53.09-.56.08-.06-.03-.1-.64-.13-.76-.27-1.29-.36-2.6-.59-3.9,0-.05-.03-.11-.02-.15,0,0,.08-.16.08-.17.05-.08.06-.11.13-.17.04-.03.23.03.29-.12-.42-1.54-1.38-10.77-1.61-11.31,0-.02-.1-.03-.16-.06-.12-.39-.45-.54-.54-.91.41.09.38.92.99.59.25-.14.15-1.05.11-1.28,0-.04-.1,0-.11-.04-.08-.37-.14-.75-.28-1.12-1.09.02-.38.6-.71,1.03,0-.39.06-.78,0-1.16.03-.12.64-.18.67-.17.14.04.93,2.51.42,2.87l1.59,11.58c2.9-.89,2.02,4.16,2.51,4.67.14.15.39-.3.55.21Z"/><path class="cls-30" d="m3.04,21.11c-.13-.6-.12.15-.03.52-.45.05-1.04.23-1.39.04.28-.13.55-.07.59-.21-.03-.97-.7-3.52-.38-4.24.15-.25.31-.33.36-.39.36.66.22,1.84.31,2.62.08.72.25,1.43.37,2.15.12-1.57-.33-3.24-.49-4.87.24-.21.11.07.17.13.04.04.16-.1.17-.1.22.07.54,4.11.72,4.63-.27.33-.18-.29-.4-.28Z"/><path class="cls-30" d="m4.21,17.18c.36,1.25.44,2.85.67,4.15-.02,0,.08.04-.35.1,0-.09.02-.17.02-.26-.04-.76-.44-2.64-.6-3.95l.25-.03Z"/><path class="cls-30" d="m3.76,20.71c-.12-.01-.2.13-.25.06-.11-.16-.33-2.71-.38-3.13.26-.15.03-.54.04-.83.22,1.3.32,2.61.59,3.9Z"/><path class="cls-29" d="m4.21,17.18l-.25.03c-.13-1.11-.04-1.04.25-.03Z"/><path class="cls-30" d="m6.2,21.15c-.05,0-.1.01-.15.02l-.04-.87.19.85Z"/><path class="cls-43" d="m3.04,21.11c.04.17.04.34.07.51-.03,0-.07,0-.1.01-.09-.37-.1-1.12.03-.52Z"/><path class="cls-28" d="m3.23,16.48s-.08.16-.08.17c-.41-.15-.04.81-.02.99.05.42.27,2.97.38,3.13.05.07.13-.07.25-.06.03.12.07.73.13.76.02.01.54-.06.56-.08.06-.04-.08-.23.1-.22,0,.09,0,.17-.02.26-.2.03-.41.06-.61.08-.27.04-.54.08-.81.11-.03-.17-.03-.34-.07-.51.22,0,.13.61.4.28-.17-.53-.49-4.57-.72-4.63,0,0-.13.14-.17.1-.06-.06.06-.34-.17-.13.16,1.63.61,3.3.49,4.87-.12-.71-.29-1.43-.37-2.15-.09-.78.05-1.97-.31-2.62.01-.01-.08-.16.14-.28.08-.04.84-.23.9-.07Z"/><path class="cls-44" d="m3.15,16.65s.02.1.02.15c-.01.3.22.69-.04.83-.02-.17-.39-1.13.02-.99Z"/><path class="cls-11" d="m3.6,20.83c.25.84-.04.89-.04.06l.02-.03.02-.03Z"/><path class="cls-2" d="m6.29,22.89c-.36.38.21.47-.29.92-.54.49-1.74.76-2.45.65-.13-.02-.26-.06-.38-.1,0-.1-.02-.15-.1-.19l-.18.39c-.05-.36-.1-.73-.15-1.09l-.92-.7c0-.14-.04-.21-.1-.32.73-.17,1.49-.2,2.23-.31.29-.04.58-.07.86-.12.76-.13,1.54-.25,2.24-.62-.02,1.04-.63.94-.78,1.5Z"/><path class="cls-14" d="m3.61,39.92c-.66-1.42-1.13-4.77-1.19-6.38-.08-2.29.57-4.31.6-6.57.23-.09.39.91.42,1.16.07.67-.22,1.83-.27,2.52,0,.01.09.03.08.2-.03.35-.31.75-.16,1.11,0,.04-.09.02-.09.06,0,.19.13,2.36.17,2.72.09.88.87,4.77.6,5.14-.04.05-.1.04-.15.05Z"/><path class="cls-28" d="m6.29,22.89c-.11.42.07,1.37.15,1.87.55,3.4,1.82,4.96,2.39,7.59.34,1.59.8,5.47.5,6.99-.37-.58-.36-1.26-.42-1.91-.11-1.16-.11-2.34-.28-3.51-.16-1.17-.36-2.37-.74-3.49-.04-.12-.11-.23-.15-.34-.34-.92-.75-1.82-1.29-2.64-.21-.78,0-1.7-.01-1.96-.02-.38-.26-1.84-.44-1.67.5-.45-.07-.54.29-.92Z"/><path class="cls-46" d="m7.74,30.09c.04.11.11.22.15.34.16,1.73.54,3.43.76,5.15.08.61-.05,1.28.25,1.85.06.65.05,1.33.42,1.91-.04.22-.11.38-.18.59-.33.46-.53,1.2-1.16,1.32.23-.23.62-.73.63-1.07,0-.16-.17-1.03-.29-.97-.07-.45-.26-.88-.29-1.33-.05-.87.63-1.89-.59-5.04.12-.49.31-.95.26-1.46.4-.04-.23-1.18.03-1.3Z"/><path class="cls-50" d="m4.18,33.17c.47.91-.24,1.93.13,3.58.1.43.48,1.09.56,1.47.21.9-.21,2.26.98,2.58-.25.28-.15.75-.44.94-.59-.15-1.14-.76-1.46-1.25.29-1.33.07-2.16-.05-3.36l.37-.28c-.57-1.18.27-2.5-.19-3.67h.1Z"/><path class="cls-14" d="m3.18,24.35s-.1,0-.1.04c.06,1.19.4,2.38.64,3.53-.34,1.34-.37,2.74-.52,4.11.2,1.02.3,2.04.42,3.07.08.68.21,1.35.28,2.03.12,1.2.34,2.02.05,3.36-.08-.13-.28-.46-.34-.57.05-.01.11,0,.15-.05.27-.37-.51-4.27-.6-5.14-.04-.36-.17-2.52-.17-2.72,0-.04.09-.02.09-.06-.15-.36.13-.76.16-1.11.01-.16-.08-.19-.08-.2.06-.69.35-1.85.27-2.52-.03-.25-.19-1.25-.42-1.16,0-.78-.02-1.64-.13-2.41l.18-.39c.09.05.1.1.1.19Z"/><path class="cls-41" d="m7.78,40.53c-.05.44-.62.66-.47,1.1-.37.09-1.09.16-1.48.15-.18,0-.23,0-.42-.05.29-.19.18-.66.44-.94.64.17,1.37.06,1.93-.27Z"/><path class="cls-50" d="m1.62,21.67c.35.19.95.02,1.39-.04.03,0,.07,0,.1-.01.27-.03.54-.08.81-.11l.03.62c-.74.1-1.5.14-2.23.31-.13-.25-.44-.6-.1-.76Z"/><path class="cls-16" d="m9.15,39.93c-.16.46-.37,1.02-.8,1.3-.09.06-.89.37-1.03.4-.15-.44.41-.66.47-1.1.73-.42.63-.78.54-1.32.12-.06.29.81.29.97,0,.33-.4.84-.63,1.07.63-.13.83-.86,1.16-1.32Z"/><path class="cls-16" d="m6.2,21.15c.27-.04.59.02.87-.07.09.28,0,.3,0,.31-.7.37-1.48.48-2.24.62.06-.3.58.16.42-.68.27-.04.55-.13.81-.16.05,0,.1-.01.15-.02Z"/><path class="cls-41" d="m5.24,21.33c.16.84-.36.38-.42.68-.28.05-.58.08-.86.12l-.03-.62c.2-.03.41-.06.61-.08.43-.06.33-.1.35-.1s.06.04.36,0Z"/><path class="cls-7" d="m3.18,24.35c.12.04.25.08.38.1-.35.04.03,1.45.12,2.39.09.85.07,3.22.51,2.59-.4,1.41-.88,2.25,0,3.73h-.1c-.12-.3-.23-.74-.51-.49-.28.26.09,1.38.13,1.87,0,.13.04.57-.08.55-.12-1.03-.23-2.05-.42-3.07.15-1.37.18-2.77.52-4.11-.24-1.16-.58-2.35-.64-3.53,0-.04.1-.03.1-.04Z"/><path class="cls-25" d="m8.91,37.43c-.3-.57-.18-1.24-.25-1.85-.22-1.72-.6-3.42-.76-5.15.38,1.12.57,2.32.74,3.49.16,1.16.17,2.34.28,3.51Z"/><path class="cls-8" d="m4.08,33.18c.47,1.17-.37,2.49.19,3.67l-.37.28c-.07-.68-.2-1.35-.28-2.03.12.02.09-.42.08-.55-.03-.49-.41-1.61-.13-1.87.28-.25.39.19.51.5Z"/><path class="cls-6" d="m7.74,30.09c-.26.11.37,1.26-.03,1.3-.1-1.16-1.12-2.16-1.68-3.16-.21-.38-.44-1.16-.55-1.19-1.4.08-.72.37-.74.8,0,.08-.47,1.31-.56,1.6-.44.63-.43-1.74-.51-2.59-.09-.93-.48-2.35-.12-2.39.71.11,1.9-.16,2.45-.65.18-.17.41,1.29.44,1.67.02.27-.19,1.18.01,1.96.54.82.95,1.72,1.29,2.64Z"/><path class="cls-19" d="m4.44,26.35c-.1.25,1.13.08.96-.13.37-.02.24.25.17.29-.05.03-1.12.19-1.17.16-.12-.06-.06-.27.03-.32Z"/><path class="cls-42" d="m5.4,26.22c.16.22-1.06.38-.96.13.04-.02.82-.12.96-.13Z"/><path class="cls-28" d="m7.71,31.39c.04.51-.14.97-.26,1.46,1.21,3.15.54,4.17.59,5.04.02.45.21.88.29,1.33.09.53.19.89-.54,1.32-.56.32-1.29.44-1.93.27-1.19-.32-.77-1.68-.98-2.58-.09-.39-.47-1.05-.56-1.47-.37-1.64.34-2.67-.13-3.58-.87-1.47-.39-2.31,0-3.73.08-.3.55-1.52.56-1.6.02-.43-.66-.72.74-.8.12.03.34.81.55,1.19.56.99,1.58,1.99,1.68,3.16Z"/><path class="cls-3" d="m5.06,37.29l-.27-1.59c.11-.2.25.09.3.09.12,0,.34-.88.05-1.3.1-.18.25-.55.46-.63.8-.33,1.65.4,1.94,1.1.91,2.2-1.25,4.75-2.47,2.33Z"/><path class="cls-4" d="m5.32,29.23c1.43-.29,2.76,2.77,1.13,3.31-3.22,1.06-2.41-3.05-1.13-3.31Z"/><path class="cls-8" d="m5.06,37.29c-.48-.96-.45-1.88.08-2.8.29.42.07,1.3-.05,1.3-.05,0-.19-.29-.3-.09l.27,1.59Z"/><path class="cls-38" d="m4.83,27.54s.43-.07.46-.06c.71.15-1.07.38-.46.06Z"/></g></svg>