<?xml version="1.0" encoding="UTF-8"?><svg id="Capa_2" xmlns="http://www.w3.org/2000/svg" xmlns:xlink="http://www.w3.org/1999/xlink" viewBox="0 0 20.77 31.94"><defs><style>.cls-1{fill:url(#Degradado_sin_nombre_76);}.cls-1,.cls-2,.cls-3,.cls-4,.cls-5,.cls-6,.cls-7,.cls-8,.cls-9,.cls-10,.cls-11,.cls-12,.cls-13,.cls-14,.cls-15,.cls-16,.cls-17,.cls-18,.cls-19,.cls-20,.cls-21,.cls-22,.cls-23,.cls-24,.cls-25,.cls-26,.cls-27,.cls-28,.cls-29,.cls-30,.cls-31,.cls-32,.cls-33,.cls-34,.cls-35,.cls-36,.cls-37,.cls-38,.cls-39,.cls-40,.cls-41,.cls-42,.cls-43,.cls-44,.cls-45,.cls-46,.cls-47,.cls-48,.cls-49,.cls-50,.cls-51,.cls-52,.cls-53,.cls-54,.cls-55,.cls-56,.cls-57,.cls-58,.cls-59,.cls-60,.cls-61,.cls-62,.cls-63,.cls-64,.cls-65,.cls-66,.cls-67,.cls-68,.cls-69,.cls-70,.cls-71,.cls-72,.cls-73,.cls-74,.cls-75,.cls-76,.cls-77,.cls-78,.cls-79,.cls-80,.cls-81,.cls-82,.cls-83,.cls-84,.cls-85,.cls-86,.cls-87,.cls-88,.cls-89,.cls-90,.cls-91,.cls-92,.cls-93,.cls-94,.cls-95,.cls-96,.cls-97,.cls-98,.cls-99,.cls-100,.cls-101,.cls-102,.cls-103,.cls-104,.cls-105,.cls-106,.cls-107,.cls-108,.cls-109,.cls-110,.cls-111,.cls-112,.cls-113,.cls-114,.cls-115,.cls-116,.cls-117,.cls-118,.cls-119,.cls-120,.cls-121,.cls-122,.cls-123,.cls-124,.cls-125,.cls-126,.cls-127,.cls-128,.cls-129,.cls-130,.cls-131,.cls-132,.cls-133,.cls-134{stroke-width:0px;}.cls-2{fill:#f57633;}.cls-3{fill:#f6edae;}.cls-4{fill:#f9eafd;}.cls-5{fill:#4a3849;}.cls-6{fill:#5f7e66;}.cls-7{fill:#4b4a94;}.cls-8{fill:#53180e;}.cls-9{fill:#759283;}.cls-10{fill:#79c6a0;}.cls-11{fill:#4d5b74;}.cls-12{fill:#8388c0;}.cls-13{fill:#4e4d47;}.cls-14{fill:#4e698b;}.cls-15{fill:#2d291a;}.cls-16{fill:#642c42;}.cls-17{fill:#559136;}.cls-18{fill:#595b9f;}.cls-19{fill:#5a3a46;}.cls-20{fill:#284c10;}.cls-21{fill:#283d2e;}.cls-22{fill:#29293c;}.cls-23{fill:#5c2d08;}.cls-24{fill:#626ea0;}.cls-25{fill:#626f6a;}.cls-26{fill:#6fa33d;}.cls-27{fill:#87818c;}.cls-28{fill:#86bf1e;}.cls-29{fill:#897ea7;}.cls-30{fill:#9a8094;}.cls-31{fill:#52a64e;}.cls-32{fill:#536448;}.cls-33{fill:#466334;}.cls-34{fill:#536c25;}.cls-35{fill:#96748e;}.cls-36{fill:#709651;}.cls-37{fill:#a3466e;}.cls-38{fill:#a27b7a;}.cls-39{fill:#6d8664;}.cls-40{fill:#6e8b99;}.cls-41{fill:#262960;}.cls-42{fill:#3a7625;}.cls-43{fill:#3b4b25;}.cls-44{fill:#2d611a;}.cls-45{fill:#587c38;}.cls-46{fill:#2f3133;}.cls-47{fill:#3e6cae;}.cls-48{fill:#453e5b;}.cls-49{fill:#187589;}.cls-50{fill:#090908;}.cls-51{fill:#3f759e;}.cls-52{fill:#40387b;}.cls-53{fill:#428046;}.cls-54{fill:#153d08;}.cls-55{fill:#135697;}.cls-56{fill:#424141;}.cls-57{fill:#224c25;}.cls-58{fill:#1f3641;}.cls-59{fill:#207649;}.cls-60{fill:#13260b;}.cls-61{fill:#c5a68c;}.cls-62{fill:#d41616;}.cls-63{fill:#cbd5cb;}.cls-64{fill:#ddc8f4;}.cls-65{fill:#cacbca;}.cls-66{fill:#c2ecb8;}.cls-67{fill:#d3d4e9;}.cls-68{fill:#d5bcc7;}.cls-69{fill:#d6e2c8;}.cls-70{fill:#d7bdbb;}.cls-71{fill:#a4a6d5;}.cls-72{fill:#ac231f;}.cls-73{fill:#b1d89d;}.cls-74{fill:#d981bf;}.cls-75{fill:#d8b0a7;}.cls-76{fill:#aeb5a9;}.cls-77{fill:#aeb3ba;}.cls-78{fill:#b05d6d;}.cls-79{fill:#a4857e;}.cls-80{fill:#ac9ebc;}.cls-81{fill:#af557e;}.cls-82{fill:#d8dbe3;}.cls-83{fill:#afcbe7;}.cls-84{fill:#a9b59d;}.cls-85{fill:#a7d3ea;}.cls-86{fill:#d0333c;}.cls-87{fill:#cdb897;}.cls-88{fill:#858782;}.cls-89{fill:#939394;}.cls-90{fill:#b4c6ec;}.cls-91{fill:#b4b0c3;}.cls-92{fill:#927e6b;}.cls-93{fill:#323b26;}.cls-94{fill:#8b6bae;}.cls-95{fill:#9f2457;}.cls-96{fill:#b8b19f;}.cls-97{fill:#b5d1b3;}.cls-98{fill:#9ea092;}.cls-99{fill:#9db6d8;}.cls-100{fill:#8fbd53;}.cls-101{fill:#8fa763;}.cls-102{fill:#b9ed45;}.cls-103{fill:#333a59;}.cls-104{fill:#332a44;}.cls-105{fill:#34251c;}.cls-106{fill:#2f81a2;}.cls-107{fill:#bb5da1;}.cls-108{fill:#6c5a53;}.cls-109{fill:#7e706b;}.cls-110{fill:#96b792;}.cls-111{fill:#7d6c86;}.cls-112{fill:#9f6c7f;}.cls-113{fill:#938a72;}.cls-114{fill:#fdfdfd;}.cls-115{fill:#6b695d;}.cls-116{fill:#7e416e;}.cls-117{fill:#7d8b98;}.cls-118{fill:#738681;}.cls-119{fill:#74756e;}.cls-120{fill:#648ab5;}.cls-121{fill:#655f6a;}.cls-122{fill:#efd580;}.cls-123{fill:#f1e8e8;}.cls-124{fill:#ef812b;}.cls-125{fill:#e9ac4b;}.cls-126{fill:#e9d5d8;}.cls-127{fill:#ea9354;}.cls-128{fill:#e64520;}.cls-129{fill:#e4e3d7;}.cls-130{fill:#ebf6ef;}.cls-131{fill:#fafbfa;}.cls-132{fill:#eab618;}.cls-133{fill:#675276;}.cls-134{fill:#668e5b;}</style><linearGradient id="Degradado_sin_nombre_76" x1="12.76" y1="18.44" x2="12.33" y2="30.18" gradientTransform="translate(1.55 -.89) rotate(5.38)" gradientUnits="userSpaceOnUse"><stop offset=".34" stop-color="#f6f7f7"/><stop offset="1" stop-color="#bcbfc9"/></linearGradient></defs><g id="Capa_1-2"><path class="cls-114" d="m2.06,5.77l-.81,4.89L0,28.43c-.03.42.2.82.58,1,2.34,1.1,9.45,3.99,16.96,1.57.22-.07.62-.74.65-.97l1.74-16.79s.72-.13.83-3.33-1.58-3.75-1.89-3.84-5.49-1.1-5.49-1.1c0,0-.69-4.24-1.15-4.87s-1.7,1.7-2.2,2.88-.68,1.74-.68,1.74c0,0-6.81-.77-7.3,1.05Z"/><path class="cls-50" d="m1.16,25.5c-.01.61-.14.97-.08,1.69.01.17,0,.34.03.51.15.2.33.36.52.52.98.85,2.89,1.38,4.15,1.68,1.49.35,2.95.52,4.48.61,2.05.12,5.65.32,7.24-1.02h.07c-.17.7-1.35,1.19-1.98,1.33-.22.05-1.31.2-1.57.23-1.65.16-4.38.07-6.02-.15-1.52-.2-5.03-.97-6.22-1.87-1.31-.99-.78-1.82-.67-3.58.03,0,.03.01.03.04Z"/><path class="cls-46" d="m12.32,5.83s.02.06-.19.02c.34-.57.41-1.19.36-1.84-.01-.15-.63-2.69-.68-2.83-.02-.04-.06-.15-.12-.14-.53,1.33-1.95,3.3-1.3,4.72.09.19.16.23.17.24.03.05.04.1.02.15-.14-.15-.25-.32-.43-.42-.67-.26-6.7-.63-7.29.54.95.74,1.2.87-.06.18.04.46-.62,2.93-.59,3.08.01.08.35.44.37.53.02.14-.34,2.47-.31,2.9l-.08.03c.09-.96.15-1.92.31-2.86-.67-.79-.27-.77-.12-1.49.13-.65.21-2.37.66-2.76.92-.8,5.84-.63,7.14-.31-.35-1.63.96-3.39,1.56-4.92l.09.03c.13,1.72,1.4,3.44.5,5.13Z"/><path class="cls-115" d="m17.58,29.51h-.07q.1-.91.21-1.82s-.06.03-.08.01c-.07-.06-.06-.09-.1-.12.02-.05.16-.18.17-.23.14-.49.6-6.74.7-7.86,0-.08.03-.15-.02-.15.21-.46.09-1.01.18-1.5,0,0,.03-.04.06-.18,0-.03,0-.04.04-.03-.11,1.51-.94,11.31-1.08,11.89Z"/><path class="cls-20" d="m2.08,15.76c.01.27.02.62.07.91.07.39.2.99.74.98.21.29-.02.26-.29.09-.07-.05-.28-.36-.71-.75,0,0-.01-.07-.07-.08.08-.85.16-1.7.24-2.55h.04c-.03.17-.13,1.23-.12,1.3,0,.04.08.05.1.1Z"/><path class="cls-119" d="m1.89,16.99c-.17,1.14-.26,2.3-.36,3.45-.1,1.19-.18,2.38-.26,3.57-.02.34-.1.68-.06,1.02-.01,0-.05,0-.07,0,.18-2.71.44-5.4.69-8.11.06.01.06.08.07.08Z"/><path class="cls-20" d="m19.41,12.09c-.22.49-.52.49-.44,1.42,0,.03-.08,0-.08.01.02-.3-.24.25-.3.35,0-.02,0-.06,0-.07.04-.09.09-.24.11-.33.17-.86-.04-.7-.04-.74.22-.37-.07-1.08.32-.37.08-.11.19-.21.28-.31l.15.05Z"/><path class="cls-33" d="m2.78,13.93l-.52-.69c-.08,0-.13.59-.12.65.01.05.41.79.73.31.03-.05.03-.06.05-.11l.16-.1c-.25.55-.48.81-.88.14l-.07-.03s0,.06,0,.09c-.01.05,0,.1-.01.15h-.04c.04-.45.09-.9.13-1.35l.08-.03c.02.13.35.44.52.96Z"/><path class="cls-20" d="m1.21,25.02c.23.12.38.68.48.88-.24-.09-.41-.46-.53-.39,0-.03,0-.04-.03-.04,0-.14,0-.3,0-.45.03,0,.06,0,.07,0Z"/><path class="cls-20" d="m18.66,17.62s-.04,0-.04.03l-.25-.14c.1-.24.11-.52.3-.73,0,.04.12.18,0,.83Z"/><path class="cls-44" d="m11.69,9.7c-.22.39-.41.79-.6,1.19,0,0-.13.03-.07.11.05-.02.1-.1.1-.1.71-.45,1.09-.37,1.88-.5.02.36-.67.2-1.01.32-.07.02-.35.24-.62.4-.89.5-.73.28-.56.36,0,0-.02.06.01.08.21.09.32.11.39-.11.15,0,.7-.29.43-.34.75-.12.27.07.5.33l-1.33.31-.14.08c-.06.23-.25.39-.36.59l-.2-.25c.39-.6.55-.78.08-.64-.14-.16.14-.36-.18-.28,0,0,.07-.1.1-.1.04,0,.54.04.52.12.06-.12.1-.13.11-.14.18.31.16-.36.24-.56.01-.03.3-.55.32-.58.16-.2.39-.27.4-.28Z"/><path class="cls-44" d="m15.88,15.01s-.1.06-.16.08c0,.07.61.1.38.41-.02.03-.55.04-.71.1-.08.03-1.38.87-1.45.92-.14.12-.23.17-.04.19,0,0,.02.05-.08.03-.02,0-.05,0-.07,0-.24-.03-.32-.09-.6-.09.82-.81,1.77-.83,2.29-1.39.03-.09-.02-.19,0-.32.18.08.5-.27.45.08Z"/><path class="cls-17" d="m11.95,13.74c-.06.29.19.7.37.94-.1.02-.08.1-.09.11-.02.04-.1.1-.13.14-.04-.14-.26-.19-.32-.26-.05-.06-.52-1-.83-1.27.12-.11.19-.23.33-.33l.66.67Z"/><path class="cls-42" d="m13.86,13.95h.04c.51.71.56.1.65.14.03.01.16.53.16.56,0,.04-.45.61-.49.62-.03,0-.4-.26-.48-.27,0,0,0-.04.05-.15.1-.19.47-.31-.09-.69-.07-.12.16-.2.17-.21Z"/><path class="cls-44" d="m3.68,12.46l.02.19-.07-.03c0,.12.07.02.07.03.19.25.21.57.07.46-.15-.25-.23-.23-.24-.25-.06-.1-.1-.12-.1-.12-.01-.02.04-.05.04-.05-.25-.43-.56-.66-.42-1.21.14-.55.53-.22.55-.18.07.21-.32.56.08,1.16Z"/><path class="cls-44" d="m10.72,10.78c.03.1.04.25,0,.34,0,0-.05.02-.11.14.03-.08-.48-.13-.52-.12-.04,0-.1.1-.1.1-.19.09-.5.4-.7.22.41-.2.12-.35.11-.39.54.03.34-.15.36-.17.14-.16.39-.3.39-.47.25-.04.5.11.57.36Z"/><path class="cls-17" d="m16.35,11.27c.24.11.46.24.37.53-.11-.02-.22.07-.34-.03.03-.06.08-.08.01-.15-.09-.1-.12,0-.3,0-.12-.54-.13-.07-.15-.05,0,.02-.17.12-.2.32-.14-.15-.28-.44-.52-.31.05-.18.09-.33.12-.52,0-.02.14-.01-.01-.27.18.06.26.69.33.71.22.07-.08-.6.68-.24Z"/><path class="cls-17" d="m13.9,13.96h-.04s.13-.22.12-.26c-.2-.13-.53.34-1.05-.33-.02-.03-.05-.08-.06-.12.12-.02.11-.06.12-.06.11,0,.85-.04.89-.03.02,0,.28.36.29.39,0,.05-.21.34-.27.41Z"/><path class="cls-17" d="m17.44,12.06c-.23.16-.31.44-.43.56-.26.26-.31.26-.54.06,0,0,.03-.11-.1-.12,0-.05.06-.05.08-.07.15-.09.27-.26.27-.43.01,0,.03,0,.04,0,0,0-.05.1.09.08l.52-.52c.07.02.21.17.21.19,0,.05-.12.18-.14.23Z"/><path class="cls-20" d="m10.19,16.78c0,.43.06.36.4.19-.14.15-.26.37-.39.53-.22-.16-.17.14-.26.13-.15-.02.08-.58.16-1.06,0-.03-.08-.02-.07-.04,0-.06.16-.11.16-.14,0-.02-.08-.04-.24-.31.15.2.13-.13.4-.42.41.62-.15.36-.16,1.12Z"/><path class="cls-45" d="m18.71,13.46c-.02.09-.07.24-.11.33-.15-.16-.66-1.05-.79-1.1-.17-.07-.44,0-.62-.02,0,0,.03-.06-.18-.06.12-.12.2-.4.43-.56-.04.1-.19.39-.17.4.91-.07.87.52,1.44,1.01Z"/><path class="cls-131" d="m2.78,13.93s.09.13.09.27c-.32.47-.72-.26-.73-.31-.01-.06.04-.65.12-.65l.52.69Z"/><path class="cls-42" d="m11.73,9.67s-.02.02-.04.03c-.02.02-.25.08-.4.28-.02.03-.3.54-.32.58-.08.2-.06.88-.24.56.03-.09.02-.25,0-.34.1-.25.19-.51.33-.74.26-.44.45-.51.47-.54.09,0,.17.05.22.11l-.08.03.07.03Z"/><path class="cls-45" d="m16.75,11.05c-.11.32.11.31.12.33.11.23.16.69.2.26.21.05.29-.01.3,0l-.52.52c-.13.01-.08-.09-.09-.08.09-.17.17-.23-.05-.27.1-.29-.13-.41-.37-.53.2-.3.36-.22.4-.23Z"/><path class="cls-26" d="m15.33,10.8c.15.25.02.25.01.27l-.03-.06c-.12.21-.18.49-.43.58-.03-.08-.04-.22-.05-.31-.01-.15.04-.32,0-.47.02-.05.44-.03.49-.01Z"/><path class="cls-14" d="m8.69,11.42c.15.1.21.34.07.46-.01.01-.08.07-.08.07-.02,0-.13,0-.19-.02-.04,0-.09,0-.11-.01-.02,0-.06-.03-.07-.04-.07-.06-.05-.19-.09-.24.02-.25.29-.35.47-.22Z"/><path class="cls-45" d="m12.99,13.19s0,.05-.12.06c-.07,0-.11,0-.19.02-.04,0-.11-.02-.15-.01.07-.58-.18-.65.35-.72l.11.65Z"/><path class="cls-96" d="m8.69,11.42c-.19-.13-.46-.03-.47.22-.07-.08-.12-.11-.17-.17-.04-.05-.07-.12-.14-.16.05-.04.32-.23.34-.23.2-.03.71.13.44.34Z"/><path class="cls-42" d="m9.41,11.07s-.02-.2-.02-.21c.03-.08.65-.42.76-.44,0,.18-.24.32-.39.47-.02.02.19.2-.36.17Z"/><path class="cls-44" d="m10.81,11.47c.13-.08.53-.3.6-.32.05-.02.17-.04.23-.05.27.05-.28.34-.43.34-.07.22-.18.2-.39.11-.03-.01,0-.07-.01-.08Z"/><path class="cls-96" d="m8.22,11.64s.02.18.09.24c-.18.15-.24.28-.42,0-.16-.25.02-.22.15-.4.05.05.11.09.17.17Z"/><path class="cls-44" d="m10.3,12.41c-.75,1.3-.18,1.24-.16,1.33.01.06-.19.25-.22.32-.03.1.03.09.03.1,0,.03-.29.31.08.39-.1.06-.26.1-.36.16-.19-.18-.38-.5-.48-.08,0,0-.08.11-.1.1-.04-.01-.26-.8-.24-.84,0,0,.14-.16.15-.16.12,0,.03.47.3.22.37-.33-.17-.91.42-.47.08-.35.08-.47.04-.81.09-.15.21-.28.3-.43.02-.02.03-.05.04-.07l.2.25Z"/><path class="cls-20" d="m10.02,14.54c-.36-.08-.08-.36-.08-.39.71-.07.55.1.08.39Z"/><path class="cls-44" d="m16.97,11.03h.07c-.04.18.04.43.02.61-.05.42-.1-.04-.2-.26,0-.02-.23-.02-.12-.33.08-.01.15-.04.23-.02Z"/><path class="cls-91" d="m8.68,11.95c-.03.24.13.3.02.57-.04,0-.16-.01-.22-.02.02-.2-.13-.41.02-.57.06,0,.17.02.19.02Z"/><path class="cls-40" d="m8.49,11.93c-.15.16,0,.36-.02.57,0,0-.17.04-.19,0,0-.24-.06-.37.09-.58.02,0,.07,0,.11.01Z"/><path class="cls-36" d="m11.4,11.15c-.07.02-.47.25-.6.32-.16-.08-.33.14.56-.36l.03.04Z"/><path class="cls-20" d="m3.53,12.87l-.24.13c-.01-.05-.02-.11-.03-.12l.16-.14s.04.03.1.12Z"/><path class="cls-36" d="m11.12,10.9s-.06.08-.1.1c-.06-.08.06-.1.07-.11h.04Z"/><path class="cls-44" d="m17.2,12.68c-.29.88-.4.44-1.11.69-.11-.09.24-.47.26-.58.04-.04.07-.09.12-.1.22.2.28.2.54-.06.21,0,.17.05.18.06Z"/><path class="cls-42" d="m15.52,14.41c.09-.12.16-.04.2-.08,0-.01,0-.1.03-.28.01-.06.08-.06.08-.07,0,.33.18-.41.75.09.14.25-.94.73-1.05.34Z"/><path class="cls-20" d="m17.76,14.77h-.04c0-.13.05-.78.08-.81.04-.06.72-.15.49.42-.05.13-.45.19-.53.39Z"/><path class="cls-84" d="m17.84,18.34c.21.12.14-.06.29.18-.06.16-.16.3-.18.48-.1.02-.26-.29-.28-.29-.03,0-.23.16-.53.25-.02-.02-.05-.04-.07-.04.26-.16.88-.33.06-.22v-.04c.44-.06.4-.19.62-.32.02,0,.08.02.09,0Z"/><path class="cls-36" d="m18.62,17.65c-.03.15-.05.17-.06.18-.4.22-.32.37-.44.68-.14-.24-.07-.06-.29-.18.57-.38.44-.51.31-.31-.11-.06.19-.44.22-.51l.25.14Z"/><path class="cls-131" d="m18.61,13.79s0,.05,0,.07c-.31.59-.22.69-.79,1.14-.1.03-.08-.17-.05-.23.08-.19.48-.25.53-.39.23-.58-.45-.49-.49-.42-.02.03-.07.68-.08.81,0,.1-.03.2-.03.3,0,.52.16.36.69-.48.14-.22.43-.79.51-1.03.02,0,.07.09.07.1.01.16-.26,2.64-.29,3.13-.18.21-.2.49-.3.73-.03.07-.32.45-.22.51.13-.2.26-.07-.31.31-.01,0-.08-.02-.09,0-.22.13-.18.26-.62.32-.48.07-.49.06-.34-.37.04-.11.26-.32-.03-.27-.03,0-.39.33-.39.36,0,.04.12.08.14.11.07.08.18.17.17.19-.02.04-.16.03-.19.04-.06,0-.13,0-.19.02-.17-.1-.07-.12-.12-.16-.11-.1-.37.24.08-.65-.27-.32-.37-.53-.83-.44.17-.37.24-.55-.25-.52-.26.02-.16.12-.37.34-.8-.08,0-.4-.82-.57-.02,0-.05,0-.07,0-.2-.01-.1-.07.04-.19.07-.05,1.37-.89,1.45-.92.16-.06.69-.07.71-.1.23-.31-.38-.34-.38-.41.05-.02.11-.05.16-.08.64-.44.81-.28.73-1.27-.49-.07-.54.04-.78.25,0,0-.07.01-.08.07,0,0-.05.03-.03-.12.03-.21.06-.41.06-.62.21-.16.39-.35.58-.53-.02.11-.37.49-.26.58.71-.25.81.19,1.11-.69.18.02.45-.05.62.02.13.05.63.93.79,1.1Z"/><path class="cls-45" d="m18.9,13.52s0,.03,0,.04c-.08.24-.37.81-.51,1.03-.53.85-.69,1.01-.69.48.15.04.11-.06.12-.06.57-.45.48-.55.79-1.14.05-.1.32-.65.3-.35Z"/><path class="cls-44" d="m16.89,15.33c.43.21.22.51.25.52.43-.58.43-.06.46-.03.04.04.16-.03.17,0,.05.09-.39.79-.38.83.03.12.4.05.44.12.04.06-.27.97-.91,1.07-.33-.96.04-.61.18-.7.08-.05-.31-1.56-.21-1.8Z"/><path class="cls-121" d="m17.75,13.07c.62-.05.34.75-.09.56-.08-.04-.18-.53.09-.56Z"/><path class="cls-71" d="m16.78,18.28l-.28.2s-.14-.07-.14-.11c0-.03.37-.36.39-.36.29-.06.07.16.03.27Z"/><path class="cls-103" d="m17.13,18.65v.04c-.21.03-.48.11-.69.09l.04-.07s.18,0,.19-.04c0-.01-.1-.11-.17-.19l.28-.2c-.15.43-.14.44.34.37Z"/><path class="cls-76" d="m17.81,15.01s.03.1-.12.06c0-.1.02-.2.03-.3h.04c-.03.07-.04.26.05.24Z"/><path class="cls-25" d="m16.48,18.7l-.04.07s-.08,0-.11-.01c-.05-.02-.03-.04-.03-.04.06-.01.13-.01.19-.02Z"/><path class="cls-82" d="m1.69,25.89c.07.13.15.34.35.3.02.09,0,.07.06.19.02.03.02.08.07.08-.06.19-.11,1.92-.01,1.97.83-.03,1.48-.95,1.82-1.08-.13.37-.75,1.23-.45,1.58.08.09.31.15.42.12.12-.03.59-1.42.76-1.63v1.68q.05.05.1.1c.24,0,1.16.18.61-.25.09-.09.22-.01.23-.02.08.29-.16.71.18.85,0,0,0,.05-.05.11-1.26-.29-3.18-.83-4.15-1.68.21-.11.08-.17.1-.26.11-.57.09-.87.28-.62.05.06.04.25.04-.07,0-.09,0-.22,0-.3,0-.01,0-.03,0-.04-.11-.62-.52-.64-.76-.34-.14.17-.15.35-.13.56l-.08.03c-.06-.73.07-1.08.08-1.69.12-.07.29.3.53.39Z"/><path class="cls-77" d="m1.21,27.36c.1.23.4.38.51.62-.02.09.11.15-.1.26-.19-.16-.37-.32-.52-.52-.02-.17-.01-.34-.03-.51l.08-.03c0,.07.03.13.06.19Z"/><path class="cls-131" d="m18.39,19.33c-.38.45-.53-.13-.65-.17-.08-.03-.3,0-.39-.04-.01,0-.17-.14-.21-.17.31-.09.51-.26.53-.25.02,0,.17.31.28.29.02-.18.11-.32.18-.48.12-.31.04-.45.44-.68-.09.49.03,1.04-.18,1.5Z"/><path class="cls-39" d="m18.39,19.33c.06,0,.03.07.02.15-.41.68-.69.02-.74,0-.01,0-.22.16-.28.13-.01,0-.01-.1-.15-.24l.1-.26c.09.03.31,0,.39.04.11.05.27.63.65.17Z"/><path class="cls-131" d="m2.89,17.65s.11-.02.12-.03c-.12.66.49-.12.64-.36.03-.08.04,0,.04,0,.11.33.22.77.2,1.12-.01.14-.07.21-.11.33-.24.25-.32.29-.33.31-.01.02.01.08-.04.07-.41-.03-.21.31-.28.35-.06.03-.58-.35-.61-.19.59.94.45.62,1.35.75-.19.44-.43.2-.15.63.13.2.29.3.31.35v1.23c-.25.21-.46,1.89-.65,1.91-.17-.07-.42-.62-.51-.65-.31-.13-1.39.44-.31-.97.07-.03.76-.6.78-.65v-.08c-.26-.04-.45-.14-.65-.29,1.48-.63.11-2.07-.53-.84v-.04c0-.05-.06-.07-.06-.12-.01-.23.17-1.04,0-1.06-.4.2-.19.57-.3.96-.02.06-.1.07-.09.14-.06-.04-.11-.1-.18-.09.1-1.15.19-2.3.36-3.45.42.38.63.7.71.75.27.17.5.2.29-.09Z"/><path class="cls-131" d="m1.71,20.52c.13.09.28.26.3.25.03,0,.07-.18.15-.18v.04c-.03.05-.11.19-.1.24.14.14.53.54.62.61.2.14.39.24.63.29v.08c-.28-.07-.52-.22-.79-.34,0,0-.1-.14-.18-.07-.03.03.03.08.03.08-.51.68-.28,1.29-.32,1.41-.08.24-.34.1-.35.12-.02.03.14.47.16.68.03.2.05.39.06.59-.4,0-.23.12-.51-.18-.04-.04-.07-.11-.14-.13.08-1.19.16-2.38.26-3.57.08,0,.12.05.18.09Z"/><path class="cls-82" d="m1.41,24.13c-.06.13.23.31.23.34.01.11-.29.22.13.22.15.54.17.96.27,1.5-.2.04-.28-.17-.35-.3-.11-.2-.26-.76-.48-.88-.04-.34.04-.68.06-1.02.07.02.1.08.14.13Z"/><path class="cls-131" d="m7.15,12.98l.81,1.42c-.12.12-1.45-.38-1.07.33,1.07.12,1.37-.08,1.81,1.02-.39-.02-1.16-.88-.75-.05-.01,0-.03,0-.04,0-.16-.15-.46-.23-.38,0-.06,0-.08.02-.12.03-.06-.34-.04.05-.52.1-.16.1-.07.14-.07.14-.1.13-.27.41-.28.58-.03.09-.11.06-.12.06-.15-.11.02-.3-.1-.31-.03,0-.42.38-.53.4-.12-.05.04-.58.01-.72-.02-.08-.17-.18-.24-.23.02.34-.16.9-.14,1.06,0,.07.02.13.04.19.03.02.39-.09.45-.11l.46.35s.07.15,0,.19c-.05.03-.6-.34-.16.7v.27c-.14-.18-.19-.16-.2-.17-.62-.54-.51-.31-1.28-.52.12-.24.49-.68.52-.74.04-.09.04-.18-.04-.34-.17-.36-.4-.46-.43-.27,0,.03.3.42.3.44,0,.05-.5.72-.54.72-.24,0-.05-.31-.02-.38.07-.15.4-.5-.16-.66.24-1.72.35-1.06.66-1.22.1-.05.04-.2.26-.39.11-.09.71-.24.52-.46-.11-.12-.74.39-.82.23v-.79c.19-.04,1.04-.81.65-.87-.11-.02-.56.3-.63.43v-.08c0-.07.05-.56-.01-.57-.21.03-.37,1.3-.63.9-.04-.07.37-1.28.71-1.35,1.04-.22,1.82.54,2.08.65Z"/><path class="cls-131" d="m10.41,19.72c.02.07.09.1.06.21l-.38,1.19c.03-.49.17-.77-.16-1.15-.05-.06-.24-.25-.26-.25-.29-.04-.2,1.48-.24,1.98-.03.37.08.64-.3.54-.26-.07-.22-.5-.25-.72-.04-.04-.19-.04-.26-.04-.25-.03-.87.03-1.18.04.01-.02-.03-.06-.03-.06.4-.55.6-.56-.22-.93-.01-.04.29-.33.3-.35.02-.08-.24-1.11-.42-.17-.06.03-.06-.11-.08-.12.3-.5-.41-.08-.41-.42.49-.1.45.24,1.52-.12.22-.07.44-.16.62-.32.16.24.78-.4.78-.46,0-.01-.15-.23-.17-.24l.26-.32s.03,0,.04,0c.08.09.21.13.28.23.07.68.47,1.37.5,1.47Z"/><path class="cls-44" d="m10.73,19.48c-.11.37-.18.76-.3,1.13-.4,1.26-.64.93.65.12.35.2,1.15.05.38.21.92,1.17.06,2.31-.28,2.15.07-.17.05-.37-.07-.5.02-.16-.01-1.14-.1-1.18-.48.18-.92.72-1.04.43.02-.06.08-.02.08-.05.01-.09-.05-.29-.05-.31.02-.12.06-.23.07-.35l.38-1.19c.04-.12-.03-.14-.06-.21.22-.28.27-.2.32-.23Z"/><path class="cls-131" d="m13.39,16.97c.01.08.07.53.06.55-.03.09-.61.3.35.32-.26.18-.33.06-.58.1-.29.05-.58.35-.7.61-.92-.22-.5-.3-.3-1.18.21-.32.88-.3,1.17-.4Z"/><path class="cls-131" d="m10.2,17.5c.13-.16.25-.38.39-.53,1.27-1.32,2.29.22,1.76-1.4l.21-.26c-.07.49.11.07.17.19.03.05-.12,1-.11,1.16-.59.13-.47-.38-.7.44-.98-.62-2.65,1.94-1.72.41Z"/><path class="cls-131" d="m9.75,17.5h-.11c.03-.29.04-.28-.1-.51-.04-.06-.2-.21-.28-.25.06-.1.06-.52.15-.55.06-.02.5.36.59.41-.06.31-.16.6-.24.9Z"/><path class="cls-63" d="m12.8,15.18l-.1.22s-.07-.05-.14-.09c-.23-.12-.05.02-.2.15-.24.2,0-.32.19-.42.02-.01.06-.03.08-.03,0,.04.15.16.17.17Z"/><path class="cls-17" d="m9.75,17.5c-.05.17-.08.35-.12.52,0,0-.03,0-.04,0-.03-.03-.08-.09-.1-.12.06-.1.14-.3.15-.4h.11Z"/><path class="cls-45" d="m4.72,13.81c.07,0,.08.05.15.05,0,.04,0,.08-.01.11-.13.36-.14.78-.22,1.15-.24.28-.37.98-.39,1.36-.02.32.11.64,0,.87-.25.49-.16.09-.18-.13,0-.13-.06-.11-.06-.12,0-.07.02-.15.02-.22.06-.95.49-1.84.64-2.78,0,0,.14.01.09-.12-.01-.03-.5-.22-.02-.17Z"/><path class="cls-44" d="m5.63,12.99c.13.36-.61.57-.76.87-.06,0-.07-.04-.15-.05.07-.15.23-.31.27-.47v.08c.08-.14.53-.45.64-.43Z"/><path class="cls-42" d="m15.34,11.07c-.03.19-.07.34-.12.52-.03.09-.08.09-.09.18-.05.29.07.6.4.6,0,.15.01.14-.03.3-.05.18-.28.35.05.42.36.08.28-.12.42-.26,0,0,0-.03,0-.04.07,0,.14.05.19-.02,0,0,0-.07.01-.11.15-.02.15-.1.16-.1.01,0,.03,0,.04,0,.14,0,.1.12.1.12-.06.01-.08.06-.12.1-.19.18-.37.37-.58.53,0,.21-.03.41-.06.62-.23-.28-.24.31-.2.47.11.39,1.19-.09,1.05-.34-.56-.5-.75.24-.75-.09.24-.21.29-.32.78-.25.09,1-.09.84-.73,1.27.05-.35-.26,0-.45-.08.06-.64.06-.8-.37-1.26l.28-.92-.05-.06c-.11.04-.46.09-.54.06-.06-.02-.6-.84-.21-1.14-.69-.52-.16-.3.25-.3,0,.28.12.32-.1.31.59.22.25.12.19-.04.25-.09.31-.37.43-.58l.03.06Z"/><path class="cls-73" d="m14.88,11.59c.06.16.4.26-.19.04.23,0,.11-.03.1-.31.03,0,.04,0,.04-.03,0,.08.02.23.05.31Z"/><path class="cls-45" d="m15.72,13.94c-.02.14.03.11.03.12-.03.18-.02.27-.03.28-.04.04-.11-.04-.2.08-.05-.17-.04-.75.2-.47Z"/><path class="cls-129" d="m15.27,13.29c.33.1.32.11.44.4l-.06.05-.37-.45Z"/><path class="cls-123" d="m15.97,12.83c-.14.14-.06.34-.42.26-.34-.07-.1-.24-.05-.42.04.46.34.12.48.16Z"/><path class="cls-68" d="m15.52,12.37c-.33,0-.45-.32-.4-.6.02.31.15.47.46.54.06.1-.06.06-.06.07Z"/><path class="cls-113" d="m16.17,12.77c-.05.07-.12.02-.19.02.07-.06.12-.02.19-.02Z"/><path class="cls-37" d="m12.68,13.27l.26.1c.51.66.84.2,1.05.33.01.04-.1.22-.12.25,0,.01-.24.1-.17.21-.09-.06-.73-.24-.79-.23-.14.04-.42.51.11.62.08.02.09.05.11.05.04.13.02.15.15.2.19.08.35-.09.51.05-.06.1-.05.14-.05.15-.03.05-.04.07-.04.07-.31,0-.51.26-1.05-.06-.02,0-.06.02-.08.03.05-.19-.14-.24-.23-.36-.17-.25-.42-.65-.37-.94l.54-.48s.03,0,.04,0c.04,0,.11.02.15.01Z"/><path class="cls-105" d="m13.68,15.07c-.07.09-.25.38-.34.16-.03,0-.02.07-.03.07-.04,0-.08,0-.11-.01,0,0,.02-.07-.01-.08-.2.07-.22.05-.39-.04-.02-.01-.17-.12-.17-.17.54.32.75.07,1.05.06Z"/><path class="cls-112" d="m13.21,15.29c-.38.39-.36.18-.5.1l.1-.22c.17.09.19.1.39.04.03,0,0,.08.01.08Z"/><path class="cls-81" d="m13.69,14.16c.56.38.19.5.09.69-.15-.13-.32.03-.51-.05-.14-.06-.11-.07-.15-.2.38-.04.33-.41.18-.48-.29-.13-.5.19-.29.43-.53-.11-.26-.58-.11-.62.06-.01.71.17.79.23Z"/><path class="cls-19" d="m13.12,14.6s-.03-.03-.11-.05c-.21-.23,0-.55.29-.43.16.07.2.44-.18.48Z"/><path class="cls-92" d="m12.87,13.25s.04.09.06.12l-.26-.1c.08-.02.12-.01.19-.02Z"/><path class="cls-44" d="m11.73,9.67l-.07-.03.08-.03c-.05-.06-.13-.12-.22-.11.02-.02-.11-.14.27-.48.94-.87,1.93.22,1.69.33-.99-.23-.58-.1-.59,0,0,0-.04.03-.06.05-.55-.2-.72,0-1.1.27Z"/><path class="cls-66" d="m13.35,9.14s.12.14.12.14c-.04.08-.2-.12-.12-.14Z"/><path class="cls-131" d="m12.06,15.41c-.21-.09-.43.17.05-.49.03-.04.1-.1.13-.14l-.17.63Z"/><path class="cls-44" d="m12.11,14.92c-.47.66-.26.4-.05.49.23.1.21.67.25.91-.45-.06-.87.03-1.3.16-.11-.16.3-.19.4-.26.09-.07.08-.17.17-.25.46-.24.53-.57.19-.44-.19.08-.17.14-.31.12-.18-.53.04-.27.11-.35.02-.03.08-.56.21-.64.06.07.28.12.32.26Z"/><path class="cls-20" d="m12.55,15.04c-.19.09-.43.62-.19.42.16-.13-.03-.27.2-.15l-.21.26c.53,1.62-.49.08-1.76,1.4-.34.17-.4.24-.4-.19.18-.07.32-.24.45-.37.05.18.24-.14.27.18.03,0,.1-.1.1-.1.43-.13.85-.22,1.3-.16-.04-.25-.03-.81-.25-.91l.17-.63s-.01-.09.09-.11c.09.12.28.17.23.36Z"/><path class="cls-42" d="m11.59,15.97c-.15.08-.46.07-.17.25-.1.07-.51.11-.4.26,0,0-.07.1-.1.1-.03-.32-.22,0-.27-.18.31-.32.44-.39.34-.82.47.02.13-.25.44.1.21.24.42.13.36-.16.34-.14.27.19-.19.44Z"/><path class="cls-45" d="m11.43,15.69s.04-.03.04-.03c.15.02.12-.04.31-.12.06.29-.14.39-.36.16Z"/><path class="cls-42" d="m11.59,15.97c-.1.08-.08.18-.17.25-.29-.18.02-.17.17-.25Z"/><path class="cls-131" d="m10.59,6.16c.17.18.31.39.41.42,0,.05-.01.11-.01.15-1.4-.48-3.1-.47-4.58-.54-.76.42,1.35,1.17,1.34,1.28-.02.19-1.33-.29-1.48-.35,0,0-.02-.1-.07-.06-.02.08.06.05.07.06.23.2,1.63.67,1.99.75,1.47.36,4.49.55,5.94.03.34.05.69.03,1.02-.02.13-.02,1.62-.43,1.49-.58-1.12-.34-2.28-.36-3.44-.4-.06,0-.35.08-.39.08-.09,0-.62-.16-1.09-.1-.19-.9.33-.9,1.07-.88,1.08.02,5.26.75,6.12,1.26.14.08.47.45.53.58,0,0,.02.08.03.12l-.07,1.11c.23.4.1,2.48,0,2.76-.02.06-.15.15-.21.23-.08.11-.19.21-.28.31-.39-.71-.1,0-.32.37,0,.04.21-.12.04.74-.57-.48-.53-1.08-1.44-1.01-.02-.01.13-.3.17-.4.02-.05.14-.18.14-.23,0-.02-.14-.17-.21-.19-.01,0-.09.05-.3,0,.02-.18-.06-.43-.02-.61.06-.26.63-.39.09-.71-.11-.07-.11-.07-.24-.06-.51.03-.38.63.05.72.03,0,.04,0,.03.04-.08-.02-.15,0-.23.02-.04,0-.2-.08-.4.23-.76-.36-.47.31-.68.24-.07-.02-.15-.65-.33-.71-.06-.02-.47-.04-.49.01.04.15-.02.32,0,.47,0,.03-.01.03-.04.03-.41,0-.95-.22-.25.3-.39.29.15,1.11.21,1.14.07.03.43-.03.54-.06l.05.06-.28.92c.43.47.43.63.37,1.26-.01.14.04.24,0,.32-.52.56-1.47.59-2.29,1.39-.06,0-.2.02-.25.05.15-.45.31-.92.42-1.4,0,0,0-.07.03-.07.08.22.27-.07.34-.16,0,0,0-.02.04-.07.09.02.46.27.48.27.04,0,.49-.58.49-.62,0-.03-.13-.55-.16-.56-.09-.04-.14.57-.65-.14.06-.07.27-.36.27-.41,0-.02-.26-.38-.29-.39-.04-.02-.78.02-.89.03l-.11-.65c-.53.08-.28.14-.35.72-.01,0-.03,0-.04,0-.56.16-.26.64-1.09-.29-.05.03-.1.1-.1.1-.14.1-.22.22-.33.33.31.27.78,1.21.83,1.27-.13.08-.19.62-.21.64-.07.08-.29-.18-.11.35,0,0,0,.04-.04.03-.31-.35.02-.08-.44-.1.1.42-.03.5-.34.82-.13.13-.27.3-.45.37.01-.76.58-.5.16-1.12-.27.29-.24.62-.4.42-.13-.23-.65-1.04-.56-1.24.05-.02.11-.05.16-.08.02-.02.08-.04.12-.06.1-.06.25-.09.36-.16.47-.29.63-.45-.08-.39,0,0-.06,0-.03-.1.03-.07.23-.26.22-.32-.02-.09-.59-.02.16-1.33.11-.2.3-.36.36-.59l.14-.08,1.33-.31c-.22-.27.25-.45-.5-.33-.06,0-.18.04-.23.05l-.03-.04c.27-.15.56-.37.62-.4.35-.12,1.03.04,1.01-.32-.79.13-1.17.06-1.88.5h-.04c.19-.41.38-.81.6-1.19.02-.02.04-.03.04-.03.38-.27.55-.48,1.1-.27.02-.02.06-.04.06-.05,0-.1-.4-.23.59,0,.24-.1-.75-1.19-1.69-.33-.38.35-.25.46-.27.48-.02.03-.2.1-.47.54-.14.24-.23.49-.33.74-.08-.24-.32-.4-.57-.36-.11.02-.73.36-.76.44,0,0,.01.18.02.21,0,.03.3.19-.11.39.2.18.51-.13.7-.22.32-.08.04.13.18.28.47-.15.31.04-.08.64-.01.02-.03.05-.04.07-.19.03-.39-.93-.51-.63-.07.16.18.86.2,1.06.04.34.04.46-.04.81-.59-.44-.05.14-.42.47-.27-.46-.06-1.07-.77-.66.07.24.26,1.25.29,1.31.04.07.55.19.37,1.49-.84-1.16-.69-2.72-.77-2.85-.27-.45-.14.79-.1,1.22-.1.04-.36-.69-.64-1.08-.35-.64-.25-.82-.25-1.54.38.84.65,1.16.24.1,0,.02.14.15.21.4.16-.16-.11-.38.02-.45.17.28.23.15.42,0,.02.01.05.04.07.04-.15.21-.09.34-.09.58.02.04.18,0,.19,0,.06,0,.18.03.22.02.25-.04.21-.18.06-.64.14-.12.08-.36-.07-.46.27-.21-.24-.37-.44-.34-.02,0-.29.2-.34.23-.17.11-.41.03-.28.54-.58-.56.82-1.42.18-1.31.09-.58,1.01-.57.61-1.3-.29.66-.66.81-.75.93-.02.03.13.06-.18.34-.03-.01-.05.06-.08.01-.05-.08.13-1.22-.79-1.66.44.27.76,1.79.48,2.14-.12.14.22.15.25.19-.26.12-.02,1.12-.2,1.1-.4-.71-.92-1.08-.74-1.98-.38.21-.18-.73-.43.39-.16-.21-.82-.75-.88-.9-.14-.35.27-.33.19-.81-.02-.12-.18-.21-.28-.27-.11-.07-.41-.27-.52-.07-.25.46.38.15.49.46.03.08.03.26-.1.24-.14-.08-.76-.56-.83-.65-.18-.24,0-.25-.18-.47-.15.61.32.65-.02.85-.19.11-.75-.5-1.19.15.17.34.65,1.39,1.1,1.33.5-.06-.47-.46-.52-.5-.09-.07-.39-.47-.34-.58.01-.03.37-.3.53-.23.08.04.19,1,.43.44.04-.1-.12-.76.24-.72.05,0,.46.5.78.53.1.71.19.77.78,1.15-.58.17-1.11.53-1.39,1.08-.37.72-.21,1.3-.6.72-.4-.6-.01-.95-.08-1.16-.01-.04-.41-.37-.55.18-.14.55.17.79.42,1.21,0,0-.05.03-.04.05l-.16.14s-.06.03-.06.03c-.73-.88-.22.95-.28,1.18-.01.05-.02.06-.05.11,0-.14-.07-.23-.09-.27-.17-.52-.5-.83-.52-.96-.03-.43.34-2.76.31-2.9-.01-.09-.35-.44-.37-.53-.02-.16.63-2.62.59-3.08,1.26.69,1,.56.06-.18.6-1.18,6.62-.8,7.29-.54.18.1.3.27.43.42Z"/><path class="cls-13" d="m19.41,12.09l-.15-.05c.06-.07.19-.17.21-.23.09-.28.23-2.36,0-2.76l.07-1.11s.07.03.07.06c-.15.81.15,1.5.12,2.32-.02.55-.1,1.28-.32,1.77Z"/><path class="cls-45" d="m7.49,10.52s.12-.01.15.03c-.2.18.08.02.09.03.2.06-.37.49-.63.43.29-.36-.04-1.87-.48-2.14.92.44.74,1.58.79,1.66.03.04.05-.03.08-.01Z"/><path class="cls-20" d="m6.02,9.62c.05.05.1.14.13.2-.75-.34-.57-1.7-.38-1.74.37-.08-.08,1.15.11,1.47.02.03.1.03.14.07Z"/><path class="cls-44" d="m18.52,10.68c0,.08-.04.21-.03.28.07.34.33-1.11.4-1.08.01,0,.06-.01.07.03-.15.9-.21,1.06-.93,1.6-.11-.25.35-.34.33-.52-.02-.17-.34-.06-.35-.26l.5-.05Z"/><path class="cls-45" d="m5.01,8.73c-.1.03.12.22.12.3.07.66-.23.35-.26.33.13.02.13-.16.1-.24-.11-.31-.74,0-.49-.46.11-.2.41,0,.52.07Z"/><path class="cls-44" d="m10.05,12.23c-.1.15-.22.27-.3.43-.02-.2-.27-.89-.2-1.06.12-.3.32.66.51.63Z"/><path class="cls-98" d="m7.91,11.31c.06.04.09.12.14.16-.13.18-.31.15-.15.4-.13.07.14.29-.02.45-.07-.25-.2-.38-.21-.4,0,0,0,.01-.03-.08-.13-.51.11-.43.28-.54Z"/><path class="cls-42" d="m12.49,13.26l-.54.48-.66-.67s.05-.08.1-.1c.83.93.53.45,1.09.29Z"/><path class="cls-36" d="m18.9,9.89c-.07-.03-.33,1.42-.4,1.08-.01-.07.02-.2.03-.28.02-.2.22-.66,0-.78.11-.01.28-.1.38-.02Z"/><path class="cls-36" d="m18.36,9.95c.08.15-.07.35.07.42-.52.34-.63-.52-.07-.42Z"/><path class="cls-34" d="m6.14,9.56c-.03.06-.05.02-.08.03-.18-.23.45-.96.44-.66,0,.04-.27.46-.36.63Z"/><path class="cls-20" d="m6.76,9.84c-.11-.15-.3-.02-.47-.08-.03-.01,0-.07-.01-.08.11-.27.78-.13.48.16Z"/><path class="cls-17" d="m6.28,9.68s-.02.06.01.08c.16.06.35-.07.47.08-.19.18-.4.07-.6-.02-.03-.06-.09-.15-.13-.2.05,0,.04-.03.04-.03.02-.01.04.03.08-.03.05.11.08.09.14.13Z"/><path class="cls-30" d="m8.7,12.52c.11-.27-.05-.33-.02-.57,0,0,.07-.06.08-.07.15.46.19.6-.06.64Z"/><path class="cls-76" d="m10.23,8.73c.08.15.26.21.39.3-.06.72-.16.25-.93.03l.19-.25c.4.41.61.34.33.11,0-.13-.12-.21.02-.19Z"/><path class="cls-32" d="m10.62,9.03c-.13-.09-.31-.15-.39-.3.39.1-.25-.51.01-.34.09.06.5.64.66.8l-.06.05c-.07-.07-.14-.16-.23-.21Z"/><path class="cls-32" d="m10.21,8.92c.28.24.07.3-.33-.11-.05-.15.3.08.33.11Z"/><path class="cls-88" d="m18.86,8.26c-.1-.02-.21.22-.22.28-.17.03-.19.15-.02.22-.08.24-.35-.08-.47-.2l.11-.41c.05.02.08.11.12.09.1-.41.84-.44.06-.05.21.02.27-.21.41.06Z"/><path class="cls-56" d="m18.86,8.26c.04.07.15.57-.2.51.12-.09-.02-.22-.02-.23,0-.06.12-.3.22-.28Z"/><path class="cls-13" d="m18.27,8.16l-.11.41s-.24-.12-.25-.19c0-.02.13-.28.36-.21Z"/><path class="cls-115" d="m18.65,8.54s.13.14.02.23c-.01,0-.03,0-.04,0-.17-.07-.15-.2.02-.22Z"/><path class="cls-33" d="m18.44,10.37c-.15-.07,0-.27-.07-.42.12-.09.1.19.07.42Z"/><path class="cls-90" d="m13.87,11.46c-.19.02.34-.38.02-.41-.08,0-.14.2-.17.21-.06.02-.28-.28-.42-.19,0-.08.33-.33.41-.38-.01.24.17.22.08-.07.22-.05.75.43.07.84Z"/><path class="cls-99" d="m13.87,11.46c-.19.11-.11.22-.57-.39.14-.09.35.21.42.19.04,0,.09-.22.17-.21.32.03-.21.43-.02.41Z"/><path class="cls-90" d="m13.72,10.69s0-.05.08-.07c.08.29-.09.31-.08.07Z"/><path class="cls-89" d="m6.26,7.11s-.09.02-.07-.06c.05-.04.07.06.07.06Z"/><path class="cls-17" d="m15.27,8.6c-.1.36.41.25.71.45l.03.04c-.22.43-.23-.13-.54-.05-.41.1,0,.96-.24,1.11-.03,0-.03-.04-.07-.04.01-.2.02-.65-.12-.77.02-.04.07-.07.03-.11-.05.02-.27.05-.29.05-.32-.01-.19-.04-.52-.52.67-.64.72.57,1-.15Z"/><path class="cls-17" d="m16.06,9.89c-.27.37-.02.56-.19.66l-1.22.11c-.1-.03-.19-.13-.2-.13.35-.08.65.14,1-.02.07-.11-.75-.13-.02-.19.18-.17.36-.57.63-.43Z"/><path class="cls-45" d="m15.05,9.34c-.08.13-.95.7-.9.77.26.09.82-.05,1.02,0,.04,0,.04.04.07.04-.16.11-.8.14-1.03.13-.06-.08-.15-.14-.21-.23,0-.13.8-.58.79-.78.01,0,.24-.03.29-.05.04.04,0,.07-.03.11Z"/><path class="cls-20" d="m16.01,8.78c.75.89.68.42.17,1l-.16-.7-.03-.04c.09-.18-.13-.29.02-.26Z"/><path class="cls-45" d="m16.01,8.78c-.15-.03.06.09-.02.26-.3-.19-.81-.08-.71-.45l.11-.14c.32.2.37.02.63.32Z"/><path class="cls-26" d="m16.02,9.09l.16.7c-.08.09-.12.1-.12.1-.27-.14-.45.27-.63.43-.73.06.09.08.02.19-.35.16-.66-.06-1,.02-.09-.05-.18-.17-.24-.25.24,0,.87-.02,1.03-.13.24-.16-.17-1.02.24-1.11.31-.07.32.48.54.05Z"/><path class="cls-102" d="m15.57,9.27c.11,0,.21.28.13.45-.19.4-.4-.42-.13-.45Z"/><path class="cls-26" d="m15.96,9.57c.08-.03.07.16-.01.11-.03-.02-.02-.1.01-.11Z"/><path class="cls-131" d="m15.17,10.1c-.2-.05-.76.09-1.02,0-.05-.07.82-.63.9-.77.13.11.13.57.12.77Z"/><path class="cls-44" d="m4.88,9.36s.32.33.26-.33c0-.08-.22-.27-.12-.3.09.06.26.15.28.27.08.48-.33.46-.19.81.06.14.72.69.88.9.26-1.12.05-.18.43-.39-.18.9.34,1.27.74,1.98.18.02-.06-.98.2-1.1-.02-.04-.37-.05-.25-.19.26.05.83-.37.63-.43-.01,0-.29.15-.09-.03-.03-.04-.11-.01-.15-.03.31-.28.16-.31.18-.34.09-.12.46-.27.75-.93.4.73-.53.72-.61,1.3.64-.11-.76.75-.18,1.31.02.09.03.07.03.08.42,1.06.14.74-.24-.1,0,.71-.09.9.25,1.54-.01-.02-.15-.05-.28-.4-.06,0-.22.03-.25.01-.26-.11-1.04-.87-2.08-.65-.34.07-.76,1.29-.71,1.35.26.4.42-.87.63-.9.07.01.02.5,0,.57-.04.15-.2.32-.27.47-.48-.05,0,.14.02.17.06.14-.09.12-.09.12l-1.01-.28c.1-.42.67.18.12-.71.14.11.12-.21-.07-.46l-.02-.19c.39.59.23,0,.6-.72.28-.55.81-.91,1.39-1.08-.59-.38-.68-.44-.78-1.15-.32-.02-.73-.52-.78-.53-.36-.05-.19.61-.24.72-.24.56-.35-.4-.43-.44-.16-.07-.52.21-.53.23-.04.11.25.51.34.58.05.04,1.02.44.52.5-.45.06-.93-.99-1.1-1.33.44-.66.99-.04,1.19-.15.34-.19-.12-.23.02-.85.19.22,0,.23.18.47.07.09.69.57.83.65Z"/><path class="cls-131" d="m6.01,10.83c.15.09.06.44.29.73-.91-.31-.73.33.05.1,1.25,1.69.65.38-1.06.43l-.16-.7c-.36.32-.25.61-.27.64-1.08.41.2-1.11,1.15-1.2Z"/><path class="cls-131" d="m4.65,12.33c.4.02-.45.18-.41,1.3-.15.3-.37-.79-.16-1.11.04-.07.54-.19.57-.19Z"/><path class="cls-44" d="m3.7,12.66s-.08.09-.07-.03l.07.03Z"/><path class="cls-17" d="m3.26,12.88s.01.06.03.12c.09.33-.08.71-.21,1l-.16.1c.06-.24-.45-2.06.28-1.18,0,0,.05-.05.06-.03Z"/><path class="cls-42" d="m3.07,13.13c.24,0-.12.24-.1.08,0,0,.1-.08.1-.08Z"/><path class="cls-47" d="m16.89,10.27c.05.1-.07.23-.07.32,0,.03.21.33.11.41-.43-.09-.56-.69-.05-.72Z"/><path class="cls-71" d="m17.05,11.04h-.07s0-.04-.03-.05c.09-.07-.11-.37-.11-.41,0-.09.12-.21.07-.32.13,0,.13,0,.24.06.54.32-.02.45-.09.71Z"/><path class="cls-64" d="m17.02,10.39c.17-.11.14.25.05.27-.15.03-.08-.25-.05-.27Z"/><path class="cls-44" d="m15.83,28.78c-.11-.22-.13-.49-.23-.55-.24.02-1.69-.86-1.75-.94-.33-.52.48.04.53-.03-.25-1.16-.57-1.7-1.21-.36-.09.12-.16.04-.19.06.3-.65.54-.62.2-.96.12-.34.2-.7.34-1.03.67.39.4.66.5.69.12.03,0-.48.7.42-.1,2.52.22.17.83-.34.47-.4.82,0,.77.22-.02.1-1.43,1.43-1.43,1.57,0,.39.47-.09.56-.08.04,0,.56.43.58.49.02.05.12,1.15-.19.83Z"/><path class="cls-20" d="m10.09,21.12c0,.13-.06.23-.07.35,0,.02.06.22.05.31,0,.03-.06-.01-.08.05-.04.15.11.16-.14.25-.02,0-.11.02-.15.02.07-.1.12-.28.22-.38-.04-.05-.07-.06-.06-.14.06-.54,0-1.08.08-1.62.32.38.18.66.16,1.15Z"/><path class="cls-28" d="m13.98,16.73c-.09.44.1.96.53,1.18-.02.12.15.24.07.5-.03.02-.17.07-.16.12.21-.02.2.11.22.11-.37.53-.03-.25-.27.03-.02.03-.22.41-.2.51-.25.08-.39.39-.58.57,0,0,.03-.07.05-.15.02-.06.25-.46.32-.56.04-.17-.06-.13-.06-.14,0-.09.04-.07.04-.07.09-.14-.04-.2-.01-.25.01-.02.4-.07.4-.23,0-.28-.25.21-.47.2-.11,0-.19-.12-.29-.14,0-.14.09-.2.04-.22-.5,0-.34.34-.04.26,0,0,.06-.02.02.15-.1-.06-.29-.11-.34,0,0,0-.05,0-.03-.08l.02-.6c.25-.04.32.09.58-.1.35-.25.15-.36.15-.38,0-.23-.05-.43-.12-.71.09.02.07-.03.08-.03.02,0,.05,0,.07,0Z"/><path class="cls-17" d="m16.29,18.72s-.02.03.03.04c-.07.09-.07.28-.11.37-.16,0,.08-.32.02-.38-.28,0-.52-.13-.74.04-.23-.18-.17-.54-.4-.6.4-.16.83.17.1-.29-.08-.17.21-.39.23-.43.46-.09.56.11.83.44-.45.9-.19.55-.08.65.04.04-.05.06.12.16Z"/><path class="cls-26" d="m15.17,16.95c.07.31-.19.54-.15.8-.42.29-.02.05-.07.32,0,.01,0,.03,0,.04-.03.08-.3.25-.37.31.08-.26-.09-.38-.07-.5.01-.07.29-.45.36-.59l-.07-.03c.21-.22.11-.32.37-.34Z"/><path class="cls-26" d="m15.42,17.47s-.31.26-.23.43c-.24-.04-.04.14-.24.17.05-.27-.35-.03.07-.32-.04-.26.23-.49.15-.8.5-.04.43.14.25.52Z"/><path class="cls-17" d="m13.83,16.75c.07.28.12.49.12.71,0,.02.2.14-.15.38-.96-.01-.38-.22-.35-.32,0-.03-.05-.47-.06-.55.06-.02.26-.18.36-.23.02,0,.05,0,.07,0Z"/><path class="cls-44" d="m13.2,18.54c-.13.11-.34.11-.51.14-.06.01-.15.02-.19.06,0,0-.06,0,.02-.19.12-.26.41-.57.7-.61l-.02.6Z"/><path class="cls-26" d="m13.84,18.57l.09.27s-.05-.02-.04.07c0-.01-.22-.19-.25-.16l-.08.81s-.14.02-.15.02c-.3-.04-.26.08-.6-.09-.12-.25-.16-.53-.11-.8.17-.03.38-.03.51-.14-.02.08.03.07.03.08.01.01.26.08.31.1.1-.06.02-.07.03-.11.03-.17-.02-.15-.02-.15,0-.01,0-.03,0-.04.1.02.18.14.29.14Z"/><path class="cls-42" d="m14.63,18.64c.22.1.3.02.37.07-.65.04-.05.36.52.47-.79.36-.58.14-.61.06-.02-.05-.19-.36-.21-.36l-.44.41c-.11.21.18.08-.07.39-.03.03-.41.38-.43.39-.05.02-.09-.05-.17-.05.03-.09-.03-.17-.01-.27.2-.18.33-.49.58-.57-.02-.1.17-.48.2-.51.24-.28-.1.5.27-.03Z"/><path class="cls-26" d="m15.09,18.19s-.07.02-.09.52c-.07-.05-.15.02-.37-.07-.01,0,0-.14-.22-.11-.01-.05.13-.09.16-.12.07-.05.34-.23.37-.31.12-.02.15-.07.14.09Z"/><path class="cls-45" d="m13.89,18.91s.11-.03.06.14c-.07.09-.3.49-.32.56-.03,0-.04-.05-.07-.04l.08-.81s.24.14.25.16Z"/><path class="cls-44" d="m13.55,18.42s0,.03,0,.04c-.3.08-.45-.25.04-.26.05.03-.05.09-.04.22Z"/><path class="cls-42" d="m13.93,18.84l-.09-.27c.22.01.47-.48.47-.2,0,.15-.39.21-.4.23-.03.05.1.1.01.25Z"/><path class="cls-20" d="m13.57,18.62s.07.05-.03.11c-.05-.02-.3-.09-.31-.1.05-.11.24-.07.34,0Z"/><path class="cls-17" d="m16.21,19.13c-.2.51-.38.52-.92.5.19.36.51.49-.06.66-.19-.04-.06-.12-.13-.22-.09-.14-.23-.22-.24-.25-.11-.29.16-.26-.19-.41l.24-.17c.03.08-.17.31.61-.06.06.01-.03-.2-.17-.22,0-.03.1-.14.13-.16.22-.18.47-.04.74-.04.07.05-.18.38-.02.38Z"/><path class="cls-26" d="m15.49,18.8s-.14.13-.13.16c.14.03.23.24.17.22-.57-.1-1.18-.42-.52-.47.02-.5.09-.49.09-.52.23.06.17.43.4.6Z"/><path class="cls-44" d="m15.19,17.9c.72.46.3.14-.1.29.01-.16-.02-.1-.14-.09,0-.01,0-.03,0-.04.2-.03,0-.21.24-.17Z"/><path class="cls-45" d="m14.8,17.29l.07.03c-.07.14-.34.52-.36.59-.43-.22-.62-.75-.53-1.18.82.17.01.49.82.57Z"/><path class="cls-69" d="m14.47,17.3c.41-.17.21.36.12.35-.02,0-.14-.34-.12-.35Z"/><path class="cls-44" d="m14.67,19.4c.35.16.07.12.19.41.01.03.15.11.24.25.07.1-.06.19.13.22-.46.14-.75-.52-.71-.94.05.01.1.03.15.05Z"/><path class="cls-17" d="m14.92,19.23l-.24.17s-.1-.04-.15-.05c-.09-.02-.18-.01-.26-.06l.44-.41s.19.31.21.36Z"/><path class="cls-82" d="m15.83,28.78s-.07.03.13.24c-.19-.14-.14.27-.05.34.03.03.71.14.85.19-.2-.24-.03-.56-.13-.84.04-.05.09-.12.13-.18l.22-.17c0,.49.16.28.1-.08.15.08.3-.29.55-.57.02.02.06-.06.08-.01l-.21,1.81c-1.59,1.34-5.19,1.14-7.24,1.02v-.04c1.7-1.12,1.85-.56,2.47-.33.89.32-.17-.24-.14-.37.39-.2.69-.56,1.12-.65-.1-.27.3-.37-.08-.56-.13.73-.31.47-.85.64-.52.16-1.06.38-1.58.48,0-.02.21-.16.24-.19.12.08.83-.14.89-.26.38.02.02-.1.01-.13-.01-.06.82-.63.71-.86,0-.01-.17-.08-.2-.09-.04-.02-.06-.06-.15-.05,0-.03,0-.06.03-.07.15-.08,1.51-.14.43-1.13.65-1.34.97-.8,1.21.36-.05.07-.87-.49-.53.03.05.08,1.51.96,1.75.94.1.06.12.33.23.55Z"/><path class="cls-32" d="m17.64,27.7c-.25.28-.39.65-.55.57.06.36-.1.58-.1.08l-.22.17c.06-.08.12-.17.17-.25.02-.03.14-.08.16-.14.02.24.38-.45.43-.56.04.03.04.06.1.12Z"/><path class="cls-8" d="m14.74,29.51c-.23.11-.23.08-.24.09l-.21-.17c.25-.32.29-.33.45.08Z"/><path class="cls-94" d="m14.36,30c.21-.14.35-.29.47-.52,0,0,.07-.12.14-.1.06.26.09.45-.12.65-.35.33-.43.03-.49-.03Z"/><path class="cls-94" d="m14.36,30s-.07-.06-.1-.12c.05-.05.24-.27.25-.28.01,0,.01.02.24-.09.02-.01.06-.02.08-.03-.11.23-.25.38-.47.52Z"/><path class="cls-23" d="m14.51,29.6s-.2.23-.25.28c-.05-.08-.15-.16-.13-.26,0-.01.1-.11.17-.19l.21.17Z"/><path class="cls-93" d="m16.75,29.32s.2.1.2.11c-.03.07-.27-.09-.2-.11Z"/><path class="cls-44" d="m3.52,28.94c-.3-.35.33-1.22.45-1.58.45-.17-.29.7-.32,1.35,0,.03.06.22.13.24h-.26Z"/><path class="cls-16" d="m2.04,26.99c.01.08,0,.22,0,.3l-.04.07c-.2-.25-.17.04-.28.62-.11-.23-.41-.38-.51-.62.67.55.08-.23.07-.35,0-.03.08,0,.08-.01.12.35.29.27.52.09.02-.02-.08-.1.16-.1Z"/><path class="cls-16" d="m1.87,26.86c-.16-.11-.32-.31-.48-.08-.09.12-.02.2-.02.22,0,0-.08-.02-.08.01,0,.12.6.9-.07.35-.03-.07-.05-.12-.06-.19-.02-.21-.01-.38.13-.56.23.08.46-.17.58.24Z"/><path class="cls-78" d="m2.05,26.95c-.17,0-.13-.06-.18-.09-.12-.42-.35-.17-.58-.24.24-.3.65-.28.76.34Z"/><path class="cls-29" d="m1.87,26.86c.05.04,0,.1.18.09,0,.01,0,.03,0,.04-.24,0-.14.08-.16.1-.25.08-.32-.19-.5-.31.16-.23.32-.03.48.08Z"/><path class="cls-6" d="m2.01,27.36l.04-.07c0,.32,0,.13-.04.07Z"/><path class="cls-131" d="m10.93,6.98c.48.27.19.47.22.89.03.15-.98-.07-1.01-.11-.24-.42.65-.66.79-.78Z"/><path class="cls-46" d="m19.51,7.83c-.06-.13-.4-.5-.53-.58-.86-.5-5.04-1.24-6.12-1.26-.74-.01-1.25-.01-1.07.88.47-.06,1,.1,1.09.1.04,0,.32-.08.39-.08,1.16.04,2.32.06,3.44.4.13.15-1.36.56-1.49.58-.34.05-.68.07-1.02.02-1.45.52-4.47.33-5.94-.03-.36-.09-1.76-.55-1.99-.75.15.05,1.46.54,1.48.35.01-.11-2.1-.86-1.34-1.28,1.48.08,3.18.07,4.58.54,0,.05.2.05-.06.26-.15.12-1.03.35-.79.78.03.05,1.04.26,1.01.11.01.19.19.23.26.21.24-.04-.06-.93.35-1.12-.12-.45-.23-.38-.26-.44-.05-.11,0-.5-.26-.5.21-.21.17-.06.33.11,0,0-.02.13.08.12.03,0,.12-.12.15-.14.1-.07.16-.17.17-.17.04-.02.04-.03.04-.03.04-.02.08-.05.12-.06.21.04.18-.02.19-.02,1.16-.11,6.04.72,6.92,1.41.21.17.51.61.27.59Z"/><path class="cls-131" d="m12,7.01c1.29-.09,2.62.99-.4,1.02-.04-.41-.12-.98.4-1.02Z"/><path class="cls-82" d="m13.47,7.03c.18,0,2.31.25,2.28.46-.69.37-.69.07-.78.06-.25.17-.55.08-.61.09-.26.06-.91.42-1.48.47.75-.22,1.06-.62.23-1.06.24.01.34-.02.36-.02Z"/><path class="cls-131" d="m7.98,6.29c.41.1-.81.15-.97.25-.19.12-.14.23-.17.25l-.47-.4c.21-.04,1.54-.11,1.62-.09Z"/><path class="cls-65" d="m14.65,6.99c.23,0,1.61.23,1.67.31.28.36-1.56-.3-1.67-.31Z"/><path class="cls-131" d="m9.02,6.5c.25.01.58.04.82.08,1.88.28.34.47.21.76-.02.06,0,.26-.08.45l.81.27c-1.03.03-2.03-.17-3-.49.12-.41-.87-.52-.77-.81.07-.2,1.75-.26,2.01-.25Z"/><path class="cls-46" d="m8.1,6.64c.38-.03-.53.2-.05.52.49.33,1.74.28,1.82.32.61.36-1.46.05-1.8-.13-.53-.28-.27-.69.03-.72Z"/><path class="cls-50" d="m11.14,7.87c-.03-.42.26-.62-.22-.89.26-.21.06-.21.06-.26,0-.04.01-.1.01-.15,0-.01,0-.02,0-.04.15.02.02-.29.24-.51.25,0,.21.39.26.5.03.06.14-.01.26.44-.42.19-.11,1.08-.35,1.12-.07.01-.25-.03-.26-.21Z"/><path class="cls-131" d="m12.13,5.85s-.08.04-.12.06c.27-.46.22-.81.12-1.31-.04-.19-.27-.92-.35-1.07-.41-.77-.53.04-1.21,1.19-.2.32-.18.68-.17,1.04-.65-1.41.77-3.39,1.3-4.72.06,0,.1.1.12.14.05.14.67,2.68.68,2.83.05.65-.03,1.27-.36,1.84Z"/><path class="cls-128" d="m11.63,5.5c0,.22.1.39.17.62-.03.02-.11.14-.15.14-.1,0-.08-.12-.08-.12-.2-.78-.53-.45-.57.4,0,.01,0,.02,0,.04-.11-.03-.24-.24-.41-.42.01-.06,0-.1-.02-.15.11-.02.09-.15.1-.26.21-.22.3-.09.35-.14,0,0-.05-.13.02-.22,0-.01.21-.15.22-.15.27-.04.18.29.37.26Z"/><path class="cls-122" d="m12.13,4.6c.09.51.14.85-.12,1.31,0,0,0,.01-.04.03-.13-.18-.07-.18-.08-.35,0-.07.04-.09.09-.12l-.2-.3c-.31-1.24-.98-.44-1.11.58-.01.11.01.23-.1.26,0-.01-.08-.05-.17-.24,0-.37-.02-.72.17-1.04.09-.14.62-.67.8-.68.37-.01.51.36.76.56Z"/><path class="cls-124" d="m11.77,5.28c.02.12.05.22.12.31,0,.17-.05.16.08.35-.01,0-.06.1-.17.17-.06-.23-.17-.4-.17-.62,0-.12-.1-.24.13-.21Z"/><path class="cls-85" d="m11.57,6.13c-.16-.17-.12-.31-.33-.11-.21.21-.09.53-.24.51.04-.85.37-1.18.57-.4Z"/><path class="cls-2" d="m11.78,5.17s-.04-.05-.01.11c-.23-.02-.13.1-.13.21-.19.03-.1-.3-.37-.26-.01,0-.21.14-.22.15-.07.09-.01.22-.02.22-.05.05-.15-.09-.35.14.13-1.02.8-1.82,1.11-.58Z"/><path class="cls-3" d="m12.13,4.6c-.25-.2-.39-.58-.76-.56-.18,0-.71.54-.8.68.68-1.15.8-1.96,1.21-1.19.08.15.32.88.35,1.07Z"/><path class="cls-125" d="m11.89,5.6c-.07-.1-.1-.2-.12-.31-.03-.16.01-.11.01-.11l.2.3s-.09.05-.09.12Z"/><path class="cls-44" d="m2.52,21.51c-.11.11.05.17.06.21,0,.16-.09.15-.09.16-.06-.08-.07-.24-.11-.24-.07.01-.46,1.57,0,.53-.03.38.01.38.16.32-1.09,1.41,0,.84.31.97.08.03.33.59.51.65.19-.01.4-1.7.65-1.91l.31.37c-.13.11-.26.16-.33.33l-.2.96c.31-.04.84-.03,1.08-.07.02,0,.29-.26.29-.03,0,.04-.49.56-.53.57-.12.06-.62.08-.91.18-.01,0-.14-.03-.27.11-.17.15-.52.9-.62.98-.15.13-.27.12-.46.03.26.04.39-.76.67-1.13l-.41-.85c-.11-.1-.7-.01-.76.04-.03-.21-.18-.65-.16-.68.01-.02.28.12.35-.12.04-.12-.19-.73.32-1.41,0,0-.06-.05-.03-.08.08-.07.17.07.18.07Z"/><path class="cls-42" d="m3.39,19.09c.29.02.33.32.35.34-.35.19.05.41.34.45-.09.29.03.04.1.14-.21.29-.3.09-.39.47,0,0-.05-.03-.05.15h-.04c-.27-.43-.03-.19.15-.63-.9-.13-.76.19-1.35-.75.02-.16.55.22.61.19.07-.04-.13-.38.28-.35Z"/><path class="cls-20" d="m3.32,21.85s-.71.62-.78.65c-.15.06-.19.07-.16-.32.03-.34.08-.23.1-.29,0,0,.1,0,.09-.16,0-.04-.17-.1-.06-.21.26.12.51.27.8.34Z"/><path class="cls-20" d="m5.09,17.97c-.6-.25-.74.48-1.28,1.13-.18-.14-.15-.06-.37-.07.01-.02.09-.06.33-.31.35-.36.81-1.1,1.32-.75Z"/><path class="cls-110" d="m2.09,20.48l-.29-.1c.11-.38-.1-.75.3-.96.16.02-.02.83,0,1.06Z"/><path class="cls-17" d="m3.81,19.1s.2.28.52.5c-.14.06-.12.02-.21.17-.12-.11-.27-.22-.38-.34-.02-.02-.06-.31-.35-.34.06,0,.03-.05.04-.07.22,0,.19-.07.37.07Z"/><path class="cls-60" d="m2.09,20.48c0,.05.06.07.06.12-.08,0-.12.17-.15.18-.02,0-.17-.16-.3-.25-.01-.08.07-.09.09-.14l.29.1Z"/><path class="cls-131" d="m3.77,13.12c.55.89-.02.29-.12.71l1.01.28c-.15.93-.58,1.83-.64,2.78-.07-.06-.13-.04-.15-.05-.34-.23-.51-.87-.97-.9-.04.43.42.63.63.97-.11.17-.35.66-.52.73,0,0-.11.03-.12.03-.54.01-.67-.59-.74-.98.31-.53-.04-.86-.07-.91-.02-.05-.1-.06-.1-.1-.01-.06.1-1.13.12-1.29,0-.05,0-.1.01-.15l.08-.07c.41.66.64.41.88-.14.13-.29.3-.67.21-1l.24-.13s.09,0,.24.25Z"/><path class="cls-17" d="m2.15,16.67c-.05-.29-.05-.64-.07-.91.02.05.37.38.07.91Z"/><path class="cls-76" d="m2.19,14.14l-.08.07s0-.06,0-.09l.07.03Z"/><path class="cls-44" d="m3.87,16.83c-.29.34-.22.41-.23.43-.15.24-.76,1.01-.64.36.17-.07.41-.56.52-.73-.21-.34-.67-.53-.63-.97.46.03.63.68.97.9Z"/><path class="cls-20" d="m2.74,16.61c.35-.08.63.77.23.78-.34.01-.44-.73-.23-.78Z"/><path class="cls-117" d="m3.81,14.67c-.09-.1-.55-.34-.63-.15-.02.04.39.58.48.48-.09.17,0,.08-.01.11-.09,0-.17-.03-.26-.06-.3-.11-.52-.21-.29-.56.26-.21.56-.13.7.18Z"/><path class="cls-83" d="m3.81,14.67s.06.05.06.12c-.04,0-.2.19-.21.21-.09.09-.5-.44-.48-.48.08-.19.54.05.63.15Z"/><path class="cls-21" d="m3.4,15.05c.14.25.02.2-.07.37-.44-.07-.54-.66-.22-.93-.23.35-.01.45.29.56Z"/><path class="cls-27" d="m3.87,14.79c.02.29-.1.55-.4.61.07-.11.12-.17.18-.29.02-.03-.08.06.01-.11,0-.01.17-.21.21-.21Z"/><path class="cls-121" d="m3.65,15.11c-.06.12-.11.18-.18.29-.04,0-.05.04-.15.02.09-.17.21-.12.07-.37.08.03.17.06.26.06Z"/><path class="cls-20" d="m2.62,23.67c-.49-.11-.65.32-.64.73-.51.16.13.16-.24.19-.02.02.02.06.03.1-.42,0-.12-.11-.13-.22,0-.04-.3-.21-.23-.34.29.3.11.19.51.18,0-.2-.03-.39-.06-.59.06-.05.65-.14.76-.04Z"/><path class="cls-20" d="m4.36,16.5s0,.05-.11-.01c.02-.38.16-1.08.39-1.36.79-.05.24-.21.21-.26-.07-.13.17-.82,0-.89.01-.03,0-.08.01-.11.16-.31.89-.51.76-.87.39.06-.46.82-.65.87v.79c.07.16.71-.35.82-.23.2.22-.41.37-.52.46-.23.2-.16.34-.26.39-.31.16-.43-.5-.66,1.22Z"/><path class="cls-20" d="m5.8,15.99c.03.13-.13.67-.01.72.11-.02.5-.41.53-.4.13.02-.05.2.1.31-.01,0-.23.16-.24.17,0,0-.03-.01-.12.03-.14.06-.15.1-.16.1-.05.02-.42.13-.45.11-.02-.06-.03-.13-.04-.19.39-.13.01-.97.38-.83Z"/><path class="cls-20" d="m4.36,16.5c.57.16.24.51.16.66-.19-.02-.14.32-.28.2.12-.23-.01-.55,0-.87.12.06.11,0,.11.01Z"/><path class="cls-17" d="m6.22,18.42c.06.07.04.12.18.15l-.08.03.33.5s-.07-.03-.11-.05c-.09-.04-.13.08-.5-.27.01-.24-.12-.22-.03-.46,0,0,.06.02,0-.07.01,0,.06,0,.21.17Z"/><path class="cls-45" d="m5.8,15.99c-.37-.13,0,.7-.38.83-.02-.17.15-.73.14-1.06.07.05.23.15.24.23Z"/><path class="cls-20" d="m6.07,16.81l.39.3s-.09.14-.09.14l-.46-.35s.03-.04.16-.1Z"/><path class="cls-26" d="m7.91,15.7c-.1-.02-.27-.01-.38,0-.08-.23.22-.16.38,0Z"/><path class="cls-44" d="m9.93,19.97c-.07.54-.02,1.08-.08,1.62h-.04s-.05-.15-.1-.16c.04-.56-.28-.32-.12.08.01.04.08.02.11.03-.16.65-.15-.67-.28.16.04-.5-.04-2.02.24-1.98.02,0,.21.19.26.25Z"/><path class="cls-7" d="m7.91,15.7s.03,0,.04,0c.23.05.44.19.61.32.04.03.17.08.18.09.07.09.1.27.08.39v.07c-.1-.03-.27-.05-.38-.07-.17-.03-.42-.13-.6-.06-.04-.03-.06-.04-.11-.05-.01,0-.08-.16-.09.18-.32-.11-.29-.21-.37-.53.09-.09.39-.16.1-.29,0,0-.01-.02.04-.03.04,0,.06-.02.12-.03.1-.01.28-.02.38,0Z"/><path class="cls-18" d="m7.27,16.06c-.2.2-.04.18-.16.5-.03.04-.06-.04-.07-.03-.08-.45-.21-.14-.28.13-.12-.02-.1.02-.22-.1.01-.17.18-.45.28-.58.21-.08.32-.15.55-.21.28.13-.02.2-.1.29Z"/><path class="cls-43" d="m7.42,15.73c-.05.01-.04.03-.04.03-.23.06-.34.13-.55.21,0,0-.09-.05.07-.14.48-.05.46-.44.52-.1Z"/><path class="cls-52" d="m7.04,16.53c-.08.09-.12.16-.15.18-.06.02-.1-.05-.13-.05.07-.26.2-.58.28-.13Z"/><path class="cls-7" d="m9.33,18.33s.17.23.17.24c-.55-.14-.71.08-1.19.23-.38.06-.47-.03-.77-.22.83.07,1.41-.39,1.49-.39.05,0,.3.13.31.14Z"/><path class="cls-41" d="m7.53,18.58c.3.2.4.29.77.22-.17.05-.29.15-.58.17-.22.01-.5.03-.67-.14-.21-.2-.27-.79-.32-1.05.23.31.47.58.8.79Z"/><path class="cls-18" d="m7.64,16.58c.06.02.17.17.26.08.02-.03-.18-.17-.16-.26.05,0,.07.02.11.05.1.08.15.14.14.28.41-.04,1.04.58.46-.22.11.02.28.05.37.07.17.05.27.06.44.15.07.04.24.19.28.25-.02.69-.3.56-.05.9.02.03.08.09.1.12l-.26.32s-.26-.14-.31-.14c-.08,0-.66.46-1.49.39-.32-.21-.56-.48-.8-.79-.03-.19-.06-.36-.02-.55-.02-.06-.12-.05-.21-.15-.1-.11-.19-.22-.31-.29.01,0,.23-.16.24-.17,0,0,.08.03.12-.06.12.12.1.08.22.1.03,0,.07.07.13.05.03-.01.06-.09.15-.18.02-.02.05.07.07.03.12-.32-.04-.29.16-.5.07.31.05.42.37.53Z"/><path class="cls-60" d="m9.63,17.49c-.01.11-.09.31-.15.4-.25-.35.03-.21.05-.9.15.23.13.22.1.5Z"/><path class="cls-18" d="m8.44,16.51c.58.8-.05.18-.46.22,0-.14-.04-.2-.14-.28.18-.08.43.02.6.06Z"/><path class="cls-12" d="m8.1,17.08c.25,0,.19.51.03.53-.16.02-.28-.33-.43-.44.28.08.34-.1.41-.09Z"/><path class="cls-18" d="m7.73,16.4c-.01.09.19.24.16.26-.08.09-.2-.06-.26-.08.01-.34.08-.18.09-.18Z"/><path class="cls-82" d="m6.18,16.79c.13.07.22.19.31.29-.04,0-.04.03-.04.03l-.39-.3c.09-.04.11-.02.12-.03Z"/><path class="cls-20" d="m7.68,13.37c.27.39.53,1.12.64,1.08-.04-.43-.17-1.67.1-1.22.08.13-.07,1.7.77,2.85.18-1.3-.33-1.42-.37-1.49-.03-.06-.22-1.07-.29-1.31.71-.42.5.2.77.66-.27.25-.18-.22-.3-.22-.01,0-.14.15-.15.16-.02.04.2.82.24.84.02,0,.1-.1.1-.1.07-.03.17-.14.18-.13.02,0,.16.24.18.28-.05.03-.11.06-.16.08-.09.2.43,1.02.56,1.24.15.26.24.29.24.31,0,.02-.16.07-.16.14,0,.03.08.02.07.04-.07.48-.31,1.04-.16,1.06.09.01.04-.29.26-.13-.92,1.53.74-1.02,1.72-.41.24-.82.11-.31.7-.44-.01-.16.14-1.11.11-1.16-.06-.12-.25.31-.17-.19.07.04.09.06.14.09.14.08.12.28.5-.1.04,0,.08.01.11.01-.11.48-.26.95-.42,1.4.05-.03.19-.05.25-.05.28,0,.36.06.6.09-.11.05-.3.21-.36.23-.29.1-.96.08-1.17.4-.2.89-.61.96.3,1.18-.08.18-.02.18-.02.19-.02.1-.04.07-.04.07-.41-.11-1.25.41-1.73.67-.06.03-.1-.05-.32.23-.03-.1-.43-.78-.5-1.47-.07-.11-.2-.14-.28-.23.05-.17.08-.35.12-.52.08-.3.18-.6.24-.9-.09-.06-.52-.44-.59-.41-.09.03-.09.45-.15.55-.17-.09-.26-.1-.44-.15v-.07c.5.18.23-.16.46-.35-.31-.02-.19.07-.44-.14-.13-.11-.02-.31-.27.01-.18-.13-.38-.28-.61-.32-.41-.82.36.04.75.05-.44-1.11-.74-.91-1.81-1.02-.38-.72.96-.22,1.07-.33l-.81-1.42s.19,0,.25-.01c.13.36.27.38.28.4Z"/><path class="cls-101" d="m9.67,14.69s-.1.05-.12.06c-.02-.04-.17-.28-.18-.28-.01,0-.11.1-.18.13.11-.42.29-.09.48.08Z"/><path class="cls-131" d="m11.71,18.36l-.56-.05c0-.21.11-.26.08-.29-1.27-.53-.13,1.44-.92.71-.02-.2-.13-.57-.04-.74.59-.43.92-.99,1.68-.6-.13.32-.17.65-.24.98Z"/><path class="cls-20" d="m8.82,16.5c.03-.11-.01-.29-.08-.39l.09-.11c.25.21.13.11.44.14-.23.19.04.53-.45.35Z"/><path class="cls-20" d="m11.71,18.36c-.02.1-.03.17-.03.28-.07.09-.09,0-.11,0,0-.07-.08-.03-.15-.05-.27-.07-.28-.02-.28-.29l.56.05Z"/><path class="cls-131" d="m8.83,16.01l-.09.11s-.14-.07-.18-.09c.24-.32.14-.12.27-.01Z"/><path class="cls-20" d="m11.14,18.31c0,.27,0,.22.28.29-.36.19-.66.48-.91.78-.08.03-.06.07-.14.06l-.05-.1c0-.2,0-.42-.02-.63.79.73-.35-1.23.92-.71.02.03-.08.09-.08.29Z"/><path class="cls-69" d="m11.42,18.6c.07.02.15-.01.15.05-.42.2-.7.59-1.05.73.25-.3.55-.6.91-.78Z"/><path class="cls-44" d="m10.92,18.48s.24.08.23.15c0,.02-.29.19-.3.18-.05-.04.02-.32.07-.33Z"/><path class="cls-42" d="m4.64,15.13c.08-.37.09-.79.22-1.15.16.07-.08.76,0,.89.03.05.58.21-.21.26Z"/><path class="cls-37" d="m16.39,11.62c-.07.08-.09.17-.09.18-.03.05-.13.13-.13.21-.16.21-.11.22-.14.29-.01.03-.33.43.16.36,0,.04,0,.1-.01.11-.07,0-.12-.04-.19.02,0,0,0,.03,0,.04-.14-.04-.43.3-.48-.16.04-.16.03-.15.03-.3,0,0,.12.03.06-.07-.31-.07-.44-.22-.46-.54.02-.09.07-.09.09-.18.24-.13.38.16.52.31.03-.2.19-.3.2-.32.14.15.14.05.15.05.18-.02.21-.11.3,0Z"/><path class="cls-107" d="m16.1,12.31l.24.25s-.01.08-.16.1c-.49.07-.17-.33-.16-.36.02,0,.05,0,.07,0Z"/><path class="cls-78" d="m16.46,12.5s-.08.02-.08.07c-.01,0-.03,0-.04,0l-.24-.25c.05,0,.07,0,.12-.03l.24.21Z"/><path class="cls-31" d="m16.71,11.8c.22.04.14.1.05.27-.01,0-.03,0-.04,0-.21.05-.34.14-.51.22-.05.02-.06.03-.12.03-.02,0-.05,0-.07,0,.03-.06-.02-.08.14-.29,0-.01.14-.06.13-.21l.08-.03c.12.11.23.01.34.03Z"/><path class="cls-82" d="m16.09,11.63s0,.1-.15-.05c.01-.02.03-.49.15.05Z"/><path class="cls-79" d="m16.38,11.77l-.08.03s.02-.1.09-.18c.07.07.02.09-.01.15Z"/><path class="cls-107" d="m16.73,12.07c0,.17-.12.34-.27.43l-.24-.21c.17-.08.3-.17.51-.22Z"/><path class="cls-79" d="m16.16,12.01c0-.09.1-.17.13-.21,0,.16-.13.2-.13.21Z"/><path class="cls-82" d="m3.71,24.53c.03.32.06-.11.71.45.16.14.31.28.45.44,0,.07-.1.13-.15.42,0,0-.09.03-.08.05,0,.02.29.17.03.32-.05.03-1.13.23-.38-.21l-.05-.06c-.6-.11-.73-.38-1.43-.32.1-.08.45-.83.62-.98.13-.14.26-.1.27-.11Z"/><path class="cls-131" d="m2.62,23.67l.41.85c-.28.37-.41,1.16-.67,1.13-.26-.12-.18-.59-.22-.87-.02-.17-.15-.19-.15-.37-.01-.41.15-.85.64-.73Z"/><path class="cls-44" d="m8.89,22.98c0,.06-.07.09-.05.17.12.19.37,0,.31.33-.01.06-.75,1.05-.71.67.77-1.06.03-.45-.34.04,0-.08-.04-.1-.06-.16.47-.2.35-.84.42-1.27.1-.19.32.29.43.21Z"/><path class="cls-44" d="m4.96,25.79l-.23.05c.06-.29.16-.35.15-.42-.14-.16-.29-.3-.45-.44.15-.45.59-.06.94.11.01.04-.36.59-.41.7Z"/><path class="cls-131" d="m8.44,24.15c-.51.71-.94.84-.34.04.37-.5,1.11-1.11.34-.04Z"/><path class="cls-134" d="m9.72,21.43s0,.08-.01.11c-.03,0-.1,0-.11-.03-.16-.41.16-.65.12-.08Z"/><path class="cls-20" d="m9.71,21.54s0-.08.01-.11c.05,0,.1.13.1.16,0,.14-.19.44-.28.56.2.13.14-.02.16-.04.04,0,.13-.01.15-.02l-.81,2.14c.13-.02.46-.4.55-.38.38.07-1.04.83-.48.64.12-.04.48-.45,1.51-.35.64.75-.43,1.04-.97.7-1.03-.08-.96.15-1.85.6l1.44.36c-.26.32-.92.28-1.31.24.09-.29.15-.36-.12-.5l-.06.49c-.14-.1.04-.5-.08-.54-.5.31-1.07.55-1.54.91-.21-.39-1.09.43-1.12.59,0,.06.13.02.06.14-.04,0-.08-.02-.11-.01-.02,0-.05-.03-.07-.04-.19-.16-.25-.18-.08.03.01.01.03.03.03.04,0,0,.03.06.03.08-.26-.02.1.07.2.13.17-.32.6-.84.69-.65-.84.77-.75.88-.79,1.99.1.16.34.19.46.29.55.42-.37.24-.61.25l-.08-.1v-1.68c-.18.21-.65,1.6-.77,1.63-.12.03-.35-.03-.42-.12h.26c-.07-.01-.13-.2-.13-.23.03-.65.77-1.52.32-1.35-.34.13-.99,1.04-1.82,1.08-.1-.05-.04-1.77.01-1.97.05-.16.25-.25.34-.38.18.1.38.17.56.28.96.11.35-.5.2-.55-.05-.02-1.05-.06-1.09-.03-.12.1.24.24.26.25l-.34.35c-.06-.12-.04-.1-.06-.19-.11-.54-.13-.96-.27-1.5-.01-.04-.05-.07-.03-.1.37-.02-.26-.02.24-.19,0,.19.13.2.15.37.04.28-.04.75.22.87.19.09.3.09.46-.03.69-.06.83.21,1.43.32l.05.06c-.75.43.33.23.38.21.26-.16-.02-.3-.03-.32,0-.02.08-.04.08-.05l.23-.05c-.02.06-.15.36-.15.38.01.07.31.18.37.32.49-.5.58-.06.42-.87l.61.36s.06-.07.06-.07c.1-.02.07-.03.08-.03.19-.07.37-.19.55-.27-.01-.21.09-.42.09-.58.11.07.15.45.24.48.04,0,.62-.38.63-.41.01-.12-.48-.04-.04-.8-.09-.14-.52-.59-.54-.66-.15-.47.31-.66.76.39.03.06.06.07.06.16-.6.8-.17.67.34-.04-.04.38.7-.61.71-.67.06-.33-.19-.14-.31-.33-.01-.08.06-.1.05-.17-.01-.1-.02-.36-.04-.4-.13-.28-1,.22-1.21-.02.02-.07.03,0,.07,0,.14.04.58-.09.77-.1.07-.31.26-.69.26-.73,0-.03-.07-.06-.07-.06-.02-.06-.04-.13-.06-.19.07,0,.22,0,.26.04.03.22,0,.66.25.72.38.1.27-.17.3-.54.13-.83.12.48.28-.16Z"/><path class="cls-44" d="m6.11,26.39c-.08.06-.3.24-.37.31-.08-.19-.51.34-.69.65-.1-.06-.46-.15-.2-.13.08,0,.16-.02.2-.09.07-.12-.07-.08-.06-.14.02-.17.9-.99,1.12-.59Z"/><path class="cls-17" d="m7.92,26.03c-.07,0-.17,0-.19-.02l.06-.49c.27.14.22.21.12.5Z"/><path class="cls-82" d="m4.17,26.32l-.27.3c-.04.17.8-.25.73.09-.2-.15-.32.15-.44.22-.19.12-1.71.93-1.8.83-.06-.85-.07-1.07.98-1.33.24-.06.58-.03.8-.11Z"/><path class="cls-134" d="m2.51,26.08c-.08.13-.29.23-.34.38-.05,0-.05-.05-.07-.08l.34-.35s.05.03.07.04Z"/><path class="cls-44" d="m2.51,26.08s-.05-.03-.07-.04c-.02-.01-.38-.15-.26-.25.04-.04,1.04,0,1.09.03.14.05.75.66-.2.55-.18-.11-.38-.17-.56-.28Z"/><path class="cls-130" d="m8.05,25.02v-.04c.9-1.08,1.14-.65,0,.04Z"/><path class="cls-97" d="m9.85,21.59c0,.07.02.09.06.14-.1.1-.15.27-.22.38-.01.02.05.17-.16.04.09-.12.29-.42.28-.56h.04Z"/><path class="cls-45" d="m8.06,24.98v.04q-.07-.11-.13-.22l.13.18Z"/><path class="cls-9" d="m5.06,27.12c-.04.07-.12.1-.2.09,0-.02-.03-.07-.03-.08.13.03.11-.03.12-.03.03,0,.08.01.11.01Z"/><path class="cls-118" d="m4.87,27.06l-.08.03c-.17-.21-.11-.19.08-.03Z"/><path class="cls-82" d="m4.87,27.06s.05.04.07.04c0,0,.01.06-.12.03,0-.01-.02-.03-.03-.04l.08-.03Z"/><path class="cls-111" d="m5.83,29.8c-.34-.14-.11-.56-.18-.85,0,0,0-.1.07-.11.18-.01.75.03.79.24.14.64-.61.67-.67.71Z"/><path class="cls-80" d="m6.03,29.1c.38-.05.25.69-.08.48-.25-.15-.09-.46.08-.48Z"/><path class="cls-20" d="m15.96,29.02c.07.08.14.15.23.21.04,0,.38-.45.45-.53.1.28-.07.6.13.84-.14-.06-.82-.17-.85-.19-.08-.06-.13-.48.05-.34Z"/><path class="cls-131" d="m16.5,29.14c.26,0-.02.25-.34.21-.02-.06.32-.21.34-.21Z"/><path class="cls-133" d="m1.88,27.08c-.23.18-.4.27-.52-.09,0-.02-.07-.1.02-.22.18.13.25.39.5.31Z"/><path class="cls-131" d="m2.49,21.88c-.02.06-.08-.05-.1.29-.46,1.04-.08-.52,0-.53.04,0,.05.16.11.24Z"/><path class="cls-131" d="m5.09,17.97l.03.08c.01.87.12.44.27.55.15.12-.35.25-.33.04-.06-.87-.15-.43-.91.44-.01.12.15.22.17.24.22.42.05.25.01.27-.32-.23-.49-.48-.52-.5.54-.65.68-1.38,1.28-1.13Z"/><path class="cls-44" d="m6.01,18.24c.06.1,0,.07,0,.07-.08-.07-.12,0-.16.1-.17-.19-.18,0-.24-.02-.17-.06-.29-.47-.48-.35l-.03-.08c-.51-.35-.97.38-1.32.75.04-.12.1-.19.11-.33.25-.1.12-1.03-.2-1.12,0,0,0-.08-.04,0,.01-.02-.07-.09.23-.43.01,0,.08-.01.15.05,0,.07-.02.15-.02.22-.3-.16.01.45.06.12.02.22-.07.62.18.13.15.12.09-.22.28-.2-.03.07-.22.38.02.38.05,0,.54-.68.54-.72,0-.03-.3-.42-.3-.44.02-.19.25-.09.43.27.08.16.09.26.04.34-.03.06-.4.51-.52.74.77.21.66-.02,1.28.52Z"/><path class="cls-53" d="m3.88,18.38c.03-.35-.09-.78-.2-1.12.32.09.45,1.02.2,1.12Z"/><path class="cls-130" d="m4,17.11s.05-.01.06.12c-.05.34-.36-.28-.06-.12Z"/><path class="cls-131" d="m4.36,17.41s.24.33-.12.52c-.1-.28.1-.52.12-.52Z"/><path class="cls-62" d="m2.68,21.49c-.09-.06-.48-.47-.62-.61,0-.04.07-.18.1-.24.64-1.23,2,.21.53.84Z"/><path class="cls-72" d="m2.79,20.51c.32-.12-.12.58-.1.67-.13-.12.06-.66.1-.67Z"/><path class="cls-131" d="m4.12,19.77s-.04.09-.05.11c-.29-.04-.69-.25-.34-.45.11.12.27.22.38.34Z"/><path class="cls-26" d="m6.73,17.78c.05.27.11.85.32,1.05-.35.09-.44-.11-.61-.32-.07-.08-.19-.27-.23-.36-.44-1.05.11-.68.16-.7.07-.04,0-.18,0-.19,0,0,.06-.1.09-.14,0,0,0-.04.04-.03.09.1.19.09.21.15-.04.19,0,.36.02.55Z"/><path class="cls-20" d="m6.44,18.51c.22.5.55.85,1.13.86.25,0,.49-.14.53-.03-1.07.36-1.04.02-1.52.12,0-.16.36-.22.07-.37l-.33-.5.08-.03c-.13-.03-.11-.08-.18-.15v-.27c.02.09.15.28.22.36Z"/><path class="cls-26" d="m9.49,18.57c0,.05-.62.69-.78.46-.17.16-.4.25-.62.32-.04-.11-.29.03-.53.03-.04-.23-.01-.25.15-.4.29-.02.42-.12.58-.17.49-.14.64-.37,1.19-.23Z"/><path class="cls-100" d="m7.05,18.83c.17.17.45.15.67.14-.16.15-.19.17-.15.4-.58-.01-.91-.37-1.13-.86.18.21.26.42.61.32Z"/><path class="cls-131" d="m7.58,21.64l-.29.71c.04.09.13.06.14.07.06.06.12.12.21.13.21.24,1.08-.26,1.21.02.02.04.03.3.04.4-.11.08-.34-.4-.43-.21-.08.43.05,1.07-.42,1.27-.45-1.06-.91-.86-.76-.39.02.06.45.51.54.66-.44.75.05.68.04.8,0,.04-.59.42-.63.41-.09-.02-.13-.4-.24-.48,0-.37-.04-.54-.41-.42-.08.03-.22.08-.24.17-.4-.08-.67-.58-.6.4,0,0-.05-.02-.05.09l.05.06c.06-.04.06-.07.06-.07.19,0,.47.02.56-.17.14-.03.34.22.63-.05,0,.16-.11.37-.09.58-.19.08-.37.2-.55.27l-.04-.16-.04.19s-.04.07-.06.07l-.61-.36c.16.8.06.37-.42.87-.06-.14-.36-.24-.37-.32,0-.02.13-.33.15-.38.04-.11.42-.66.41-.7-.34-.16-.79-.56-.94-.11-.66-.56-.69-.13-.71-.45.28-.1.79-.12.91-.18.03-.02.53-.54.53-.57,0-.23-.27.03-.29.03-.24.04-.78.03-1.08.07l.2-.96c.07-.17.2-.22.33-.33.03-.03.15-.13.16-.14,1.05.51.9.89,1.92.07.2-.16.88-.81,1-.97l.04.16c.21-.22.12-.06.14-.06Z"/><path class="cls-58" d="m6.35,25.88s.02.01-.08.03l.04-.19.04.16Z"/><path class="cls-33" d="m6.4,22.52c-1.02.83-.87.44-1.92-.07.07-.04.06-.1.18-.06,1.2.97.94.29,1.75.13Z"/><path class="cls-44" d="m5.24,23.77c.49-.14.6.33.79.66l-1.23.05s.4-.7.45-.71Z"/><path class="cls-44" d="m8.61,21.48c.02.06.04.13.06.19-.36-.07-.73,0-1.09-.03-.02,0,.08-.16-.14.06l-.04-.16s.04-.03.04-.03c.31,0,.92-.07,1.18-.04Z"/><path class="cls-44" d="m8.67,21.67s.07.04.07.06c0,.04-.19.42-.26.73-.19,0-.63.13-.77.1,0-.03.03-.04.04-.07.21-.07.46-.24.54-.46.15-.42-.13-.17-.22-.11-.24.14-.45.32-.65.51-.01-.01-.1.02-.14-.07l.29-.71c.36.04.73-.04,1.09.03Z"/><path class="cls-17" d="m7.76,22.49s-.04.04-.04.07c-.05-.01-.06-.08-.07,0-.09-.01-.15-.08-.21-.13.2-.19.41-.36.65-.51.19,0-.15.13-.32.58Z"/><path class="cls-42" d="m7.76,22.49c.17-.45.51-.58.32-.58.09-.05.37-.31.22.11-.08.22-.32.39-.54.46Z"/><path class="cls-44" d="m12.83,26.91s0,.06.08.16c.02-.03.06-.1.07-.11.04-.01.11.06.19-.06,1.08.99-.28,1.05-.43,1.13-.03.02-.02.04-.03.07l-.61.42c-.05.29.58-.14.75-.36.03.01.19.08.2.09.12.23-.72.8-.71.86,0,.03.37.15-.01.13-.17,0-.27-.11-.53-.01-.23-.27-.45-.16-.56-.28l-.36.38c.1-.28.16-.28.35-.5.08-.09.19-.18.21-.21.08-.09.17-.19.25-.28.07-.08.11-.14.17-.21.15-.17.36-.28.5-.46.04-.08,0-.17,0-.32.31-.14-.11-.22.32-.22-.1-.05-.28-.2-.31-.31.08-.05.11-.13.13-.21.06-.24.05-.54.15-.78.2.39-.21.65.16,1.07Z"/><path class="cls-45" d="m10.21,26.24c.11.09.14.21.17.24-.09.14-.04.26.04.38,0,0,0,.06-.05.11-.04.05-.09.09-.13.14-.1.13-.42.33-.15.4-.06.13-.02.08-.01.15.02.38.3.3.27.73.21-.25.36.35-.37.29-.55-.05-.42-.18-.84-.5-.53-.9.96-.72.09-1.56.56-.66.38-.87.98-.38Z"/><path class="cls-17" d="m12.67,25.83c-.1.24-.09.54-.15.78-.15-.03-.17.08-.13.21.03.11.21.26.31.31-.44,0-.02.08-.32.22,0,0-.01.03-.03-.08-.01-.07.04-.07-.05-.27-.12-.27-.55-.79-.83-.42,0-.02.04-.11-.04-.16-.08-.05-.13.03-.13.03-.34-.01-.42.05-.67.24-.25-.31-.23-.2-.24-.21-.03-.03-.06-.16-.17-.24.22-.19.32-.6.59-.66-.08.16.54.39.48.12.5.12,1.19-.24,1.39.13Z"/><path class="cls-54" d="m10.26,30.48c-.34.07.09-.63.11-1.2.15.08-.06.58.3.6.25.01.06-.09.22-.55l.36-.38c.11.12.33,0,.56.28-.02,0-.31.22-.37.27-.03.03-.25.17-.24.19.51-.1,1.06-.31,1.58-.48.54-.17.72.09.85-.64.38.18-.02.28.08.56-.43.09-.73.45-1.12.65-.03.13,1.03.7.14.37-.63-.23-.78-.78-2.47.33Z"/><path class="cls-20" d="m10.8,28.45s.06.03.07.04c.01.01.06.07.07.08.02.01-.09.14.32.26-.19.22-.25.22-.35.5-.16.46.03.56-.22.55-.36-.02-.15-.52-.3-.6-.05-.06-.38-.19-.4-.6.73.07.58-.54.37-.29.03-.43-.25-.35-.27-.73.18.17.52.72.62.82,0,0,.06-.06.1-.03Z"/><path class="cls-20" d="m12.98,26.96s-.04.08-.07.11c-.07-.1-.07-.15-.08-.16.13-.3.25-.6.35-.91.33.35.1.31-.2.96Z"/><path class="cls-42" d="m11.28,25.7c.06.27-.56.04-.48-.12.5-.12.45.11.48.12Z"/><path class="cls-45" d="m12.87,28.16c-.18.22-.8.65-.75.36l.61-.42c.08,0,.1.03.15.05Z"/><path class="cls-67" d="m12.35,29.24c-.06.12-.78.34-.89.26.06-.04.34-.26.37-.27.26-.09.36,0,.53.01Z"/><path class="cls-42" d="m12.52,26.61c-.02.09-.05.16-.13.21-.04-.14-.02-.25.13-.21Z"/><path class="cls-26" d="m10.62,26.7c-.06.05-.15.12-.21.17-.08-.13-.13-.24-.04-.38.01.01,0-.1.24.21Z"/><path class="cls-18" d="m12.34,27.28c.02.11.03.07.03.08,0,.15.05.24,0,.32-.14.18-.35.3-.5.46-.28-.09,0-.14-.02-.17-.02-.04-.31.04-.18-.47-.09-.08-.08.05-.08.05-.06-.02-.02-.08-.05-.08,0,0-.04.05-.14.06-.07,0-.1-.11-.18.06-.18-.24,0,.17,0,.19,0,.03-.05.17-.09.18-.07-1.12-.08.29-.39.15,0-.08-.04-.26,0-.49.15.15.33-.28.02-.19-.05.01-.07.05-.12.06,0,0,0-.07.09-.14.06-.05.12-.1.18-.13.67.05,1.42-.28.98.43l.43-.38Z"/><path class="cls-22" d="m11.88,28.14c-.06.07-.1.13-.17.21.05-.08-.24-.13-.33-.14-.22-.03-.43,0-.64-.02,0-.02,0-.05,0-.07.31.14.32-1.27.39-.15,0,.03-.09.07-.03.15.7,0,.32-.07.49-.56,0,0,0-.13.08-.05-.13.51.16.43.18.47.01.03-.26.09.02.17Z"/><path class="cls-11" d="m11.71,28.35c-.08.09-.17.19-.25.28,0-.06-.05-.03-.07-.04.08-.12.24-.12-.14-.16l.13-.21c.09.01.37.07.33.14Z"/><path class="cls-16" d="m11.39,28.58s.08-.01.07.04c-.02.02-.13.11-.21.21-.41-.12-.3-.24-.32-.26.33.15.35-.08.37-.08,0,0-.01.03.09.08Z"/><path class="cls-106" d="m12.29,27.01l-1.72.14c-.15-.02-.16,0-.21-.17.04-.05.04-.1.05-.11.05-.05.14-.12.21-.17.25-.19.33-.25.67-.24.19.59.32.51.18.13.28-.38.71.15.83.42Z"/><path class="cls-54" d="m10.58,27.15s.08,0,.07.04c-.02,0-.06-.01-.07,0-.29.07-.11.27,0,.42-.24.38-.29.19.09.65.05.06.09.14.13.2-.04-.04-.09.03-.1.03-.1-.1-.45-.64-.62-.82,0-.07-.05-.02.01-.15.09-.19.44-.18.15-.4.04-.05.08-.09.13-.14.05.17.06.15.21.17Z"/><path class="cls-49" d="m10.09,27.52c-.27-.07.05-.27.15-.4.29.22-.06.22-.15.4Z"/><path class="cls-104" d="m12.34,27.28l-.43.38c.43-.71-.31-.39-.98-.43-.07.04-.13.09-.18.13.02-.07.02-.12-.06-.16,0,0-.02,0-.04,0,0-.05-.03-.04-.07-.04l1.72-.14c.09.2.04.2.05.27Z"/><path class="cls-60" d="m11.46,26.59c.14.38.01.46-.18-.13,0,0,.05-.08.13-.03.08.05.03.13.04.16Z"/><path class="cls-51" d="m11.39,28.21l-.13.21c-.05,0-.44,0-.39.08-.01-.01-.06-.03-.07-.04-.04-.06-.08-.14-.13-.2.09.02.07,0,.08-.07.22.02.42,0,.64.02Z"/><path class="cls-116" d="m11.39,28.58c-.1-.06-.08-.08-.09-.08-.02,0-.04.23-.37.08-.01-.01-.06-.07-.07-.08-.05-.08.33-.08.39-.08.37.04.22.05.14.16Z"/><path class="cls-51" d="m10.76,27.62c-.05.23,0,.41,0,.49,0,.02,0,.05,0,.07-.01.06,0,.09-.08.07-.38-.46-.33-.27-.09-.65,0,0,.08-.09.09-.11.05,0,.07-.05.12-.06l-.02.19Z"/><path class="cls-24" d="m11.6,27.55c-.16.48.21.56-.49.56-.05-.08.03-.12.03-.15.04-.01.09-.15.09-.18.15-.05.29-.1.17-.25.1-.01.13-.06.14-.06.03,0-.01.06.05.08Z"/><path class="cls-59" d="m10.69,27.19c.08.04.08.08.06.16-.09.07-.08.14-.09.14,0,.01-.08.1-.09.11-.11-.14-.28-.35,0-.42h.11Z"/><path class="cls-104" d="m11.41,27.53c.12.15-.02.2-.17.25,0-.02-.18-.43,0-.19.08-.17.1-.05.18-.06Z"/><path class="cls-48" d="m10.76,27.62l.02-.19c.31-.1.13.33-.02.19Z"/><path class="cls-10" d="m10.65,27.19s.03,0,.04,0h-.11s.05,0,.07,0Z"/><path class="cls-1" d="m17.06,18.91c-.05.03-.13.02-.12.08.09.08.14.28.19.36.08.1.09,0,.11.03.14.14.13.23.15.24.06.03.26-.13.28-.13.05.01.33.68.74,0-.1,1.12-.56,7.37-.7,7.86-.01.05-.15.18-.17.23-.06.12-.41.81-.43.56.07-.13.07-.43-.01-.46-1.06.31-.27,0-.47.52.04.03.26-.11.32.07-.05.08-.12.17-.17.25-.04.06-.09.13-.13.18-.06.07-.41.52-.45.53-.09-.06-.15-.13-.23-.21-.2-.21-.12-.22-.13-.24.31.32.21-.78.19-.83-.02-.05-.54-.49-.58-.49-.09,0-.56.47-.56.08,0-.13,1.41-1.46,1.43-1.57.04-.22-.3-.62-.77-.22-.6.51-.92,2.85-.83.34-.69-.91-.57-.39-.7-.42-.11-.03.17-.3-.5-.69-.15.33-.23.69-.34,1.03-.11.31-.22.61-.35.91-.37-.42.04-.69-.16-1.07-.19-.37-.89-.01-1.39-.13-.03,0,.02-.24-.48-.12-.27.07-.37.47-.59.66-.6-.49-.43-.28-.98.38.87.85-.62.66-.09,1.56.42.31.29.44.84.5.01.41.35.54.4.6-.02.57-.45,1.27-.11,1.2v.04c-1.53-.09-2.99-.26-4.48-.61.05-.06.04-.11.05-.11.06-.04.81-.07.67-.71-.05-.21-.61-.26-.79-.24-.06,0-.06.11-.07.11-.01,0-.14-.07-.23.02-.13-.1-.37-.13-.46-.29.04-1.11-.05-1.21.79-1.99.07-.06.29-.24.37-.31.47-.36,1.04-.6,1.54-.91.13.03-.05.44.08.54.01,0,.12,0,.19.02.38.05,1.05.08,1.31-.24l-1.44-.36c.89-.45.82-.68,1.85-.6.54.33,1.61.05.97-.7-1.02-.1-1.39.31-1.51.35-.56.2.85-.57.48-.64-.09-.02-.42.37-.55.38l.81-2.14c.25-.09.1-.1.14-.25.12.29.56-.25,1.04-.43.08.04.11,1.02.1,1.18l-.44-.51c.02.26.28.9.51,1.01.33.16,1.2-.98.28-2.15.77-.15-.03,0-.38-.21-1.29.82-1.05,1.15-.65-.12.11-.37.18-.76.3-1.13.48-.26,1.31-.78,1.73-.67-.02.34.03.51.35.68.34.17.3.06.6.09-.53.13-.82.58,0,.23.09.42.11.2.19.21.07,0,.11.07.17.05.03-.01.41-.36.43-.39.25-.31-.04-.18.07-.39.08.05.17.04.26.06-.05.42.25,1.07.71.94.57-.17.25-.3.06-.66.54.02.71.01.92-.5.04-.09.04-.27.11-.37.03,0,.08,0,.11.01.22.02.48-.06.69-.09.82-.11.2.06-.06.22Z"/><path class="cls-45" d="m12.81,19.49c-.32-.16-.37-.34-.35-.68,0,0,.02.03.04-.07.04-.04.14-.05.19-.06-.05.27,0,.55.11.8Z"/><path class="cls-20" d="m13.63,19.6c-.02.07-.05.14-.05.15-.02.09.04.17.01.27-.08,0-.1.22-.19-.21-.82.36-.53-.09,0-.23,0,0,.15-.02.15-.02.03,0,.04.05.07.04Z"/><path class="cls-43" d="m17.14,18.95s.2.17.21.17l-.1.26s-.04.07-.11-.03c-.06-.08-.1-.28-.19-.36,0-.07.07-.05.12-.08.03,0,.05.03.07.04Z"/><path class="cls-20" d="m17.08,26.4c.05-.15-.09-.13-.11-.01-.4-.13,0-.32.04-.43.02-.06.07-.84-.05-1.05.03-.06.12-.42.12-.44,0-.61-.87-1.05-.65-1.38,1,.88.4.26.64-.81.03.05.15.08.16.11.05.1,0,2.01-.1,2.26.31.29,0,1.21.03,1.29.01.03.51.04.15.43-.12.13-.11.03-.23.04Z"/><path class="cls-20" d="m7,28.78l.7.77c-.87.28-.79.02-.7-.77Z"/><path class="cls-5" d="m16.86,26.53c.14,0,.45.35.17.62-.52.5-.57-.61-.17-.62Z"/><path class="cls-20" d="m9.45,29.23c.05,0,.3.02.32.05.01.02-.04.45-.06.47-.17.1-.98-.49-.25-.52Z"/><path class="cls-39" d="m17.1,28.14c-.03.05-.15.11-.16.14-.05-.17-.27-.04-.32-.07.2-.53-.6-.21.47-.52.08.03.08.33.01.46Z"/><path class="cls-44" d="m6.38,27.17c.8-.02.1.15.12-.86.52.04.29.5.33.88-.03.05-.46.08-.45-.02Z"/><path class="cls-90" d="m16.13,24c.03.58-.48.34-.43.6-.14-.11-.19-.67.18-.7,0,.44.02.23.26.1Z"/><path class="cls-99" d="m11.81,20.04s.05,0,.07,0c-.17.2.06-.17.07.46-.03.01-.51.06-.57.06-.09-.3.15.13.38-.4l-.44-.14s0-.05,0-.07c.31-.07.57-.05.26.08.08.07.15,0,.23,0Z"/><path class="cls-20" d="m11.12,22.58c.12.13.14.33.07.5-.23-.11-.49-.75-.51-1.01l.44.51Z"/><path class="cls-35" d="m7.99,26.9l-.24.15c.23.27-.46.09-.64.34-.1-.12.27-.56.3-.58.04-.02.5-.05.58.09Z"/><path class="cls-5" d="m7.11,27.39c.18-.25.86-.07.64-.34l.24-.15c.22.44-.49.6-.75.57-.11-.01-.07-.02-.12-.09Z"/><path class="cls-55" d="m11.81,20.04c-.08,0-.15.06-.23,0,.32-.13.05-.15-.26-.08-.28-.67.56-.48.48.08Z"/><path class="cls-120" d="m15.7,24.6c-.05-.26.46-.02.43-.6.56.38-.17.8-.43.6Z"/><path class="cls-42" d="m6.5,26.31c-.02,1.01.69.84-.12.86l-.03-.85s.09,0,.15,0Z"/><path class="cls-90" d="m11.39,20.57s-.05,0-.07,0l-.07-.46s.08-.06.08-.07l.44.14c-.23.52-.46.1-.38.4Z"/><path class="cls-120" d="m11.96,20.51c0-.63-.24-.26-.07-.46.14,0,.27.02.41.02-.08.27-.09.36-.34.44Z"/><path class="cls-20" d="m7.66,27.44s.06.35.06.36c-.06.39-.72-.14-.06-.36Z"/><path class="cls-20" d="m17.07,24.47s-.08.38-.12.44c-.05-.08-.25-.18-.28-.27,0-.01.02-.25.02-.26.04-.06.3.11.37.09Z"/><path class="cls-20" d="m5.72,27.14c.06.87.25.43,1.05.48.77.05-.02.26-.36,1.03-1.34.08-.89,0-1.04-1.18l.35-.33Z"/><path class="cls-20" d="m7.17,27.81s.23.18.23.19c0,.02-.36.25-.38.25-.38,0,.12-.44.15-.44Z"/><path class="cls-51" d="m11.31,20.56c-.4-.05-.47-.07-.07-.46l.07.46Z"/><path class="cls-108" d="m8.68,29.62c-.08-.19-.13-.4-.21-.59.23-.12.3.13.35.15.18.06.09-.3-.36-.37.7-.15.62.23.61.79-.08.09-.23.02-.38.02Z"/><path class="cls-45" d="m8.42,29.18s.14.08-.08.41c-.11-.01-.23.06-.34-.01l-.05-.7c.28.02.41.63.46.31Z"/><path class="cls-53" d="m8.34,28.79v.04c.02.13.06.2.08.35-.05.33-.18-.29-.46-.31.04-.05.31-.08.39-.08Z"/><path class="cls-57" d="m8.47,29.03c.08.19.13.4.21.59-.11,0-.23-.02-.34-.03.22-.33.08-.39.08-.41-.01-.14-.06-.22-.08-.35.05.03.11.15.13.2Z"/><path class="cls-109" d="m8.46,28.8c.45.08.54.44.36.37-.05-.02-.11-.27-.35-.15-.02-.05-.08-.17-.13-.2v-.04s.08,0,.12.01Z"/><path class="cls-14" d="m17.33,20.56c.05.04.11.2.13.28-.08.24-.08.21-.29.28-.15.04-.23.05-.38,0-.21-.54-.14-.31.18-.66.09.07.3.07.37.11Z"/><path class="cls-127" d="m17.33,20.56c-.06-.04-.28-.04-.37-.11,0-.01.01-.22.12-.25.17-.05.4.14.25.36Z"/><path class="cls-61" d="m17.14,21.3s-.01.16-.18.13c-.3-.31-.17-.3-.18-.32.14.05.23.04.38,0l-.02.19Z"/><path class="cls-75" d="m17.14,21.3l.02-.19c.21-.06.21-.04.29-.28.05.3-.08.32-.31.46Z"/><path class="cls-90" d="m16.13,24c-.23.13-.26.34-.26-.1.11-.01.17.04.26.1Z"/><path class="cls-60" d="m17.08,26.4s0,.03-.11-.01c.03-.12.16-.14.11.01Z"/><path class="cls-17" d="m14.27,21.67s.02.04.22.1c.03.16-.01.77,0,.81,0,.04.07,0,.11.07-.54-.16-.57.31-.14.29.04.28,0,.55-.08.82,0,.03-.05.23-.06.24-.16.11-.24-.22-.38-.36.08.03.11-.08.13-.14.21-1-.32-.23-.18-.85.09.33.06.02.12-.05.02-.02.32-.07.19-.4-.02-.04-.08.06-.11-.01-.07-.15.02-.28-.09-.25.2-.27,0-.34.29-.28Z"/><path class="cls-42" d="m14.88,24.07c-.02.21.04.5-.03.56-.97.25-1.07-.47-1.17-.45l-.55.84c-.12.11-.14,0-.15,0,.29-.4.72-1.32,1.22-.75.37.09.39-.26.68-.2Z"/><path class="cls-44" d="m12.7,20.88c.1-.02.45.55.45.59.06.27-.04,1.15-.36.65-.03-.04-.29-.85-.29-.9,0-.13.18-.34.2-.34Z"/><path class="cls-45" d="m14.78,22.7s-.07.07-.12.1c.07-.18,0-.06-.06-.16-.04-.07-.1-.03-.11-.07-.01-.04.04-.65,0-.81.66.19.94.38.29.94Z"/><path class="cls-44" d="m13.34,22.26s.1.15.1.16c.03.09.02.24.08.31,0,.05,0,.1-.01.15l-.06.03s-.04-.11-.05-.12c-.02-.53-.59-.46-.32-.22-.04,0-.06-.02-.08.03-.01.05-.01.13-.02.19-.05-.58-.25-.18-.25.24-.2.03-.36-.15-.4-.15v-.07c.16.03.27.07.28.06.04-.02,0-.23.17-.38-.82-.37.41-.17.55-.23Z"/><path class="cls-26" d="m14.81,22.78c-.04.08-.03.36-.04.37-.06.22-.27.41-.12.52,0,.01,0,.03,0,.04l-.16.1s-.06,0-.11-.05c.07-.27.12-.54.08-.82.11,0,.16-.11.2-.13.06-.03.08-.06.12-.1-.02.08.03.08.03.08Z"/><path class="cls-17" d="m14.2,21.59s.07.02.07.08c-.28-.06-.09,0-.29.28-.18.24-.42.47-.45.79-.06-.07-.06-.22-.08-.31.26-.27.29-.86.76-.84Z"/><path class="cls-45" d="m14.2,21.59c-.47-.03-.5.56-.76.84,0,0-.07-.13-.1-.16.25-.12.41-1.24.86-.68Z"/><path class="cls-44" d="m14.88,24c.04-.31.06-.55.27-.84.01.01.21.07.2.26l-.47.58Z"/><path class="cls-26" d="m12.83,23.31c0,.07-.03.07-.05.11-.08.15-.17.19-.34.16-.58-.11-.33-.85.38-.27Z"/><path class="cls-28" d="m13.88,22.65c-.04-.15.01-.26-.11-.27l-.26.51s0-.1.01-.15c.04-.32.27-.55.45-.79.11-.03.02.11.09.25.03.07.1-.03.11.01.13.33-.17.38-.19.4-.06.07-.02.37-.12.05Z"/><path class="cls-44" d="m14.59,22.65c.05.1.13-.03.06.16-.04.02-.09.13-.2.13-.43.03-.39-.45.14-.29Z"/><path class="cls-17" d="m13.41,22.8c-.07-.04-.27-.17-.29-.18,0-.05-.03-.04-.03-.04-.27-.25.3-.31.32.22Z"/><path class="cls-86" d="m13.88,22.65c-.13.62.39-.15.18.85-.07,0-.16-.07-.22-.02-.42-.39-.4-.07-.76.08-.04-.04,0-.14-.06-.16-.03-.23-.05-.37-.02-.61,0-.06,0-.14.02-.19.04,0,.09,0,.11.01.02,0,.22.14.29.18,0,0,.03.09.05.12l.06-.03.26-.51c.12.01.06.12.11.27Z"/><path class="cls-132" d="m13.84,23.48s-.04.05-.04.07c0,.02,0,.05,0,.07-.03,0-.56.06-.71-.07.36-.15.35-.47.76-.08Z"/><path class="cls-15" d="m14.06,23.5c-.01.06-.04.17-.13.14,0,0-.06,0-.14-.09,0-.02.04-.07.04-.07.07-.05.16.02.22.02Z"/><path class="cls-87" d="m13.09,22.58s.04,0,.03.04c-.03-.01-.08,0-.11-.01.02-.05.04-.04.08-.03Z"/><path class="cls-17" d="m12.99,22.8c-.03.24-.01.38.02.61,0,.07-.04.2-.02.24.08.25.77.22.98.19.04-.04-.17-.2-.19-.21,0-.02,0-.06,0-.07.08.09.14.08.14.09.14.14.22.47.38.36.01,0,.05-.21.06-.24.05.05.1.04.11.05.3.24.11.02.16-.1,0-.01,0-.03,0-.04,0,0,.06.02.08-.01.04-.09.02-.21.02-.22.03-.09.45-.49.03-.28,0-.02,0-.29.04-.37.13.14.22.22.34.37-.21.29-.23.54-.27.84,0,.02,0,.05,0,.07-.29-.06-.31.29-.68.2-.5-.57-.94.36-1.22.75-.33,0-.63-.12-.95-.2.3-.92.31-.5.1-.63-.73-.45-.4-.93-.01-1.48.07.06.15.08.24.1v.07c-.08,0-.36.2-.37.29-.1.51,1.16.75.81.25.02-.04.04-.04.05-.11,0-.02-.09-.23-.09-.27,0-.42.2-.82.25-.24Z"/><path class="cls-17" d="m12.74,23.04s.09.25.09.27c-.72-.58-.96.16-.38.27.17.03.26,0,.34-.16.35.5-.91.26-.81-.25.02-.09.29-.29.37-.29.04,0,.21.18.4.15Z"/><path class="cls-54" d="m13.07,23.56c.15.13.68.06.71.07.01,0,.23.17.19.21-.22.03-.9.06-.98-.19-.01-.04.03-.17.02-.24.06.02.02.12.06.16Z"/><path class="cls-17" d="m14.65,23.67c-.14-.11.07-.3.12-.52.42-.21,0,.19-.03.28,0,.01.02.13-.02.22-.01.03-.08,0-.08.01Z"/><path class="cls-17" d="m14.49,23.81l.16-.1c-.05.11.14.34-.16.1Z"/><path class="cls-17" d="m13.1,23.83c.12.45.44.09.32.39,0,.02-.37.36-.39.36-.23.04-.75-.43-.16-.73.14,0,.18.12.23-.02Z"/><path class="cls-26" d="m13.02,23.93c.23.04-.01.23-.1.22-.02,0-.08-.25.1-.22Z"/><path class="cls-44" d="m15.76,20.94c.87.03-.18.64.93.75l-.3.97c-.98.17-.33-.35-.75-1.07l.12-.65Z"/><path class="cls-17" d="m16.33,21.94c-.11.24.06.14.07.06,0,0-.04-.06-.07-.06.23-.52.19.25.07.31-.13.06-.37-.37-.07-.31Z"/><path class="cls-73" d="m16.33,21.94s.07.06.07.06c0,.07-.18.18-.07-.06Z"/><path class="cls-44" d="m5.06,18.65s-.18.11.13.2c-.11,0-.95.11-.86.26,0,0,0,.05-.19-.02.76-.87.85-1.31.91-.44Z"/><path class="cls-42" d="m4.34,19.11c-.09-.15.75-.25.86-.26.4-.03.47.19.3.25-.12.04-.95.02-1.15,0Z"/><path class="cls-44" d="m5.84,18.42c-.07.17-.05.13.19.36.37.35.42.23.5.27,0,.11-.1.1-.16.14-.62-.47-1.03-.49-.24.17,0,0,0,.06-.03.07-.04.01-.5-.01-.85.03-.24-.43-.54-.27-.04.03-.07,0-.3.11-.37.08-.08-.04-.05-.32-.08-.35-.04-.03-.51-.05-.45.11-.01-.02-.18-.13-.17-.24.19.07.18.02.19.02.2.01,1.03.04,1.15,0,.17-.06.1-.28-.3-.25-.32-.1-.13-.18-.13-.2-.03.21.48.07.33-.04-.15-.11-.26.31-.27-.55.19-.12.31.29.48.35.06.02.07-.17.24.02Z"/><path class="cls-42" d="m6,18.32c-.09.23.04.22.03.46-.24-.23-.26-.19-.19-.36.04-.09.08-.17.16-.1Z"/><path class="cls-82" d="m6.37,19.19c-.08.05-.15.13-.24.17-.79-.65-.38-.64.24-.17Z"/><path class="cls-82" d="m5.25,19.46s.01.03-.04.03c-.5-.3-.2-.46.04-.03Z"/><path class="cls-131" d="m5.54,18.62c.08-.02.23.25.05.27-.11.01-.18-.24-.05-.27Z"/><path class="cls-120" d="m6.99,25.03c-.29.27-.49.02-.63.05-.1.19-.37.18-.56.17l-.07-.08c-.06-.98.21-.48.6-.4-.03.1.04.18.07.27-.03-.31.26-.25.17-.44.37-.12.42.05.41.42Z"/><path class="cls-47" d="m6.58,24.61c.09.19-.2.13-.17.44-.03-.09-.09-.18-.07-.27.02-.08.17-.14.24-.17Z"/><path class="cls-82" d="m5.8,25.26s0,.03-.06.07l-.05-.06c0-.11.05-.09.05-.09l.07.08Z"/><path class="cls-51" d="m5.82,24.81c.09.04.05.38,0,.38-.05,0-.06-.33,0-.38Z"/><path class="cls-26" d="m7.44,21.52s0,0-.04.03c-.12.15-.8.81-1,.97-.8.16-.55.84-1.75-.13-.12-.04-.1.02-.18.06,0,0-.13.11-.16.14l-.31-.37v-1.23c-.01-.05-.17-.15-.31-.35h.04c.25.37.44-.37,1.08-.65-.13.14-.26.29-.35.46-.01.03-.19.04-.17.57,0,.25.38.48-.06,1.02.86.17,2.47.55,2.6-.72.03-.24.03-.33-.02-.57.52.39.26.54.24.68-.1.61.63-.5.5-.65-.02-.03-.56-.27-.72-.14-.05-.16-.42-.58-.58-.66.19-.07.4-.3.43-.3.02,0,.25.18.3.22.02.01.03.15.08.12.18-.94.43.1.42.17,0,.02-.31.31-.3.35.82.37.61.38.22.93,0,0,.05.04.03.06Z"/><path class="cls-44" d="m6.57,19.47c0,.33.71-.09.41.42-.05-.04-.28-.22-.3-.22-.03,0-.24.23-.43.3-.04-.02-.06-.03-.11-.05.03-.2.21-.41.42-.45Z"/><path class="cls-100" d="m4.86,19.99s-.03,0-.04,0c-.64.28-.84,1.02-1.08.65,0-.17.05-.14.05-.15.28-.13.59-.47.69-.73.35-.08.83-.14.38.22Z"/><path class="cls-100" d="m6.83,20.74s.02-.09.01-.11c.17-.12.7.11.72.14.13.15-.59,1.26-.5.65.02-.14.28-.3-.24-.68Z"/><path class="cls-100" d="m6.65,19.1c.28.15-.08.21-.07.37-.21.04-.39.25-.42.45-.48-.16-.84-.11-1.29.07.45-.37-.03-.3-.38-.22-.11.26-.41.6-.69.73.09-.38.18-.19.39-.47-.07-.1-.19.15-.1-.14,0-.01.04-.1.05-.11.08-.15.07-.11.21-.17.04-.02.21.16-.01-.27-.07-.16.4-.14.45-.11.03.03,0,.31.08.35.07.03.3-.07.37-.08.05,0,.04-.03.04-.03.36-.04.81-.02.85-.03.04-.01.02-.07.03-.07.09-.03.16-.12.24-.17.06-.04.17-.02.16-.14.04.02.09.04.11.05Z"/><path class="cls-126" d="m6.15,19.92s.07.03.11.05c.16.08.53.5.58.66,0,.03-.02.08-.01.11.05.24.05.33.02.57-.17.69-.92.91-1.54.72.01-.23.12-.02.13-.03.06-.02.1-.17.13-.18.06-.02.84-.04.92-.76.03-.3-.14-.3-.34-.43-.12-.08-.11-.13-.29-.18-.16-.04-.41,0-.45.11-.12-.23-.53.22-.7.37-.06.29.07.63-.09.5-.18-.34-.24-.6-.17-1,.09-.17.21-.32.35-.46,0,0,.03,0,.04,0,.45-.18.82-.23,1.29-.07Z"/><path class="cls-20" d="m4.65,21.44c.16.31.31.49.66.59.62.18,1.37-.04,1.54-.72-.13,1.27-1.74.89-2.6.72.44-.53.07-.77.06-1.02-.02-.53.15-.54.17-.57-.07.4,0,.65.17,1Z"/><path class="cls-70" d="m5.87,20.46c-.12.02-.21.11-.32.16-.09.04-.19.07-.29.05-.03.02.03.02-.03.15-.6-.08-.32.74.43.83l.51-.35c.23-.31.14-.44.02-.58,0,0-.03-.06-.03-.08.2.13.37.13.34.43-.08.72-.86.74-.92.76-.03.01-.07.16-.13.18-.01,0-.12-.21-.13.03-.36-.1-.51-.28-.66-.59.15.12.02-.21.09-.5.16-.15.58-.6.7-.37.03-.12.29-.15.45-.11Z"/><path class="cls-95" d="m6.16,20.64s.03.08.03.08c0,.46-.09.28-.1.29-.11-.55-.61-.12-.37.31-.32.02-.34-.21-.26-.48.03-.09.08-.13.1-.22.11-.05.2-.14.32-.16.18.05.16.09.29.18Z"/><path class="cls-38" d="m5.24,20.82c-.04.07-.14.18-.08.22l.3-.2c-.08.27-.07.5.26.48.34-.02.3-.19.37-.31.01-.02.11.17.1-.29.12.15.21.27-.02.58l-.51.35c-.75-.1-1.04-.91-.43-.83Z"/><path class="cls-79" d="m5.56,20.62c-.02.08-.07.13-.1.22l-.3.2c-.06-.04.04-.15.08-.22.07-.13,0-.13.03-.15.1.03.2-.01.29-.05Z"/><path class="cls-74" d="m6.09,21.01c-.07.11-.03.28-.37.31-.24-.42.26-.86.37-.31Z"/><path class="cls-4" d="m5.82,20.87c.24-.1.16.35,0,.34-.18-.01-.05-.33,0-.34Z"/></g></svg>