<?xml version="1.0" encoding="UTF-8"?><svg id="Capa_2" xmlns="http://www.w3.org/2000/svg" viewBox="0 0 22.96 22.96"><defs><style>.cls-1{fill:#ccddec;}.cls-1,.cls-2,.cls-3{stroke-width:0px;}.cls-2{fill:#fbfbfb;}.cls-3{fill:#0056a1;}</style></defs><g id="Capa_1-2"><path class="cls-2" d="m22.61,14.29c-1.55,6.15-7.79,9.88-13.94,8.33S-1.2,14.82.35,8.68,8.14-1.2,14.29.35s9.88,7.79,8.33,13.94Z"/><circle class="cls-1" cx="11.48" cy="11.48" r="10.31"/><path class="cls-3" d="m16.37,8.29l1.99.59-.3,1.69-5.88-1.35.17-1.76,2.41-1.13-2.02-.39.51-1.84,5.99,1.68-.33,1.63-2.54.87Z"/><path class="cls-3" d="m11.53,13.07l1.6.32-.12,1.34-4.69-.64v-1.39s1.81-1.05,1.81-1.05l-1.61-.17.27-1.47,4.8.89-.14,1.3-1.93.86Z"/><path class="cls-3" d="m6.37,16.53l1.19.52-.32,1.03-3.55-1.3.24-1.08,1.58-.52-1.23-.4.46-1.1,3.59,1.51-.33.99-1.65.35Z"/></g></svg>